<?xml version="1.0" encoding="UTF-8" standalone="no"?>
<svg
     xmlns:dc="http://purl.org/dc/elements/1.1/"
     xmlns:cc="http://creativecommons.org/ns#"
     xmlns:rdf="http://www.w3.org/1999/02/22-rdf-syntax-ns#"
     xmlns:svg="http://www.w3.org/2000/svg"
     xmlns="http://www.w3.org/2000/svg"
     xmlns:sodipodi="http://sodipodi.sourceforge.net/DTD/sodipodi-0.dtd"
     xmlns:inkscape="http://www.inkscape.org/namespaces/inkscape"
     sodipodi:docname="ability_str.svg"
     inkscape:version="1.1-dev (1:0.92.0+devel+202001221713+085aa25)"
     id="svg35"
     version="1.1"
     viewBox="0 0 215.9 279.4"
     height="11in"
     width="8.5in">
    <defs
         id="defs29">
        <path
             d="m -25.14,50.53 c -27.37,3.82 -69.72,-3.82 -97.06,0 V 37.81 c 27.34,-3.82 69.69,3.81 97.06,0 z"
             style="fill:#ebf6f7;fill-opacity:1;stroke:#000000;stroke-width:0.5332;stroke-linecap:butt;stroke-linejoin:miter;stroke-miterlimit:10;stroke-dasharray:none;stroke-opacity:1"
             id="path402-5-3-8"
             inkscape:connector-curvature="0" />
    </defs>
    <sodipodi:namedview
         inkscape:snap-nodes="false"
         inkscape:window-maximized="1"
         inkscape:window-y="27"
         inkscape:window-x="0"
         inkscape:window-height="983"
         inkscape:window-width="1920"
         borderlayer="true"
         units="in"
         showgrid="true"
         inkscape:current-layer="layer1"
         inkscape:document-units="px"
         inkscape:cy="37.78"
         inkscape:cx="80.81"
         inkscape:zoom="5.6"
         inkscape:pageshadow="2"
         inkscape:pageopacity="0.0"
         borderopacity="1.0"
         bordercolor="#666666"
         pagecolor="#ffffff"
         id="base">
        <inkscape:grid
             id="grid310"
             type="xygrid" />
    </sodipodi:namedview>
    <metadata
         id="metadata32">
        <rdf:RDF>
            <cc:Work
                 rdf:about="">
                <dc:format>image/svg+xml</dc:format>
                <dc:type
                     rdf:resource="http://purl.org/dc/dcmitype/StillImage" />
                <dc:title></dc:title>
            </cc:Work>
        </rdf:RDF>
    </metadata>
    <g
         transform="translate(0,-17.6)"
         id="layer1"
         inkscape:groupmode="layer"
         inkscape:label="Layer 1">
        <path
             inkscape:connector-curvature="0"
             id="path1108"
             style="display:inline;opacity:1;fill:none;fill-opacity:1;fill-rule:nonzero;stroke:#000000;stroke-width:0.1323;stroke-opacity:1;stroke-miterlimit:4;stroke-dasharray:none"
             d="m 43.65,23.65 c 0,0 -0.79,-0.98 -2.36,-0.98 H 1.879 v -3.92 c 0,0 38.601,0 39.411,0 1.57,0 2.36,-0.97 2.36,-0.97 0,0 0,1.95 0.8,2.93 -0.8,0.98 -0.8,2.94 -0.8,2.94" />
        <path
             inkscape:connector-curvature="0"
             id="path1116"
             style="fill:none;fill-opacity:1;stroke:#000000;stroke-width:0.132289;stroke-linecap:butt;stroke-linejoin:miter;stroke-miterlimit:4;stroke-dasharray:none;stroke-opacity:1"
             d="m 0.088,18.13 c 4.349,-0.59 8.734,-0.59 13.082,0 -0.75,3.46 -0.94,7.34 -0.31,11.12 C 11.1,31.04 9.237,32.92 6.63,34.76 4.019,32.92 2.155,31.04 0.3945,29.25 1.029,25.47 0.8433,21.59 0.088,18.13 Z" />
        <text
             xml:space="preserve"
             style="font-style:normal;font-weight:normal;font-size:9.94458px;line-height:1.25;font-family:sans-serif;letter-spacing:0px;word-spacing:0px;display:inline;fill:#1d205e;fill-opacity:1;stroke:#9bbfd4;stroke-width:0;stroke-miterlimit:4;stroke-dasharray:none;stroke-opacity:1"
             x="15.06"
             y="19.89"
             id="text8686-9"
             transform="scale(0.9117,1.097)"><tspan
                 sodipodi:role="line"
                 id="tspan8684-3"
                 x="15.06"
                 y="19.89"
                 style="font-style:normal;font-variant:normal;font-weight:bold;font-stretch:normal;font-size:2.98336px;font-family:'Century Schoolbook L';-inkscape-font-specification:'Century Schoolbook L Bold';letter-spacing:0.791094px;fill:#111337;fill-opacity:1;stroke:#9bbfd4;stroke-width:0;stroke-miterlimit:4;stroke-dasharray:none;stroke-opacity:1">  DEXTERITY</tspan></text>
        <text
             xml:space="preserve"
             style="font-style:normal;font-variant:normal;font-weight:normal;font-stretch:normal;font-size:6.18037px;line-height:1.25;font-family:'Century Schoolbook L';-inkscape-font-specification:'Century Schoolbook L';letter-spacing:0px;word-spacing:0px;display:inline;fill:#463078;fill-opacity:1;stroke:#ebf6f7;stroke-width:0.170948;stroke-miterlimit:4;stroke-dasharray:none;stroke-opacity:1"
             x="2.415"
             y="24.88"
             id="text5487-8"
             transform="scale(0.9515,1.051)"><tspan
                 sodipodi:role="line"
                 x="2.415"
                 y="24.88"
                 style="font-size:8.24046px;fill:#463078;fill-opacity:1;stroke:#ebf6f7;stroke-width:0.170934;stroke-miterlimit:4;stroke-dasharray:none;stroke-opacity:1"
                 id="tspan5581">20</tspan></text>
        <text
             transform="scale(0.8327,1.201)"
             id="text6538-4-0-6"
             y="28.96"
             x="5.023"
             style="font-style:normal;font-variant:normal;font-weight:normal;font-stretch:normal;font-size:5.5073px;line-height:1.25;font-family:'Century Schoolbook L';-inkscape-font-specification:'Century Schoolbook L';letter-spacing:0px;word-spacing:0px;display:inline;fill:#659dbd;fill-opacity:1;stroke:#05386b;stroke-width:0.223708;stroke-miterlimit:4;stroke-dasharray:none;stroke-opacity:1"
             xml:space="preserve"><tspan
                 style="font-size:5.0528px;fill:#659dbd;fill-opacity:1;stroke:#05386b;stroke-width:0.223667;stroke-miterlimit:4;stroke-dasharray:none;stroke-opacity:1"
                 y="28.96"
                 x="5.023"
                 id="tspan6536-9-2-7"
                 sodipodi:role="line">+5</tspan></text>
        <circle
             r="3.855"
             cy="32.68"
             cx="6.618"
             id="path993"
             style="fill:none;fill-opacity:1;stroke:#000000;stroke-width:0.1323;stroke-linecap:round;stroke-linejoin:round;stroke-miterlimit:4;stroke-dasharray:none;stroke-opacity:1" />
        <circle
             style="fill:none;fill-opacity:1;stroke:#000000;stroke-width:0.132366;stroke-linecap:round;stroke-linejoin:round;stroke-miterlimit:4;stroke-dasharray:none;stroke-opacity:1"
             id="path993-5"
             cx="6.628"
             cy="32.69"
             r="4.445" />
        <path
             d="m 0.6049,18.77 c 3.9981,-0.55 8.0291,-0.55 12.0251,0 -0.69,3.18 -0.86,6.74 -0.28,10.22 -1.62,1.65 -3.335,3.38 -5.732,5.06 C 4.218,32.37 2.505,30.64 0.8866,28.99 1.47,25.51 1.299,21.95 0.6049,18.77 Z"
             style="fill:none;fill-opacity:1;stroke:#000000;stroke-width:0.132292;stroke-linecap:butt;stroke-linejoin:miter;stroke-miterlimit:4;stroke-dasharray:none;stroke-opacity:1"
             id="path1116-1"
             inkscape:connector-curvature="0" />
        <path
             inkscape:connector-curvature="0"
             id="path1667"
             fill-opacity="1"
             fill="#fff"
             d="m 7.978,22.95 1.13,-1.5 0.78,0.59 -1.13,1.51 z m -0.23,-0.17 1.21,-1.6 -0.82,-0.62 -1.21,1.6 z m -0.5,-1.78 -0.35,0.72 1.03,-1.37 -0.77,-0.58 -0.65,0.87 z m -0.37,-1.33 -0.85,-0.65 -0.75,1.01 0.97,0.47 z m 1.93,4.28 -2.51,-1.87 h -0.18 0.1 l 1.12,2.52 h -0.29 l -1.05,-2.34 -0.72,-0.33 -0.1,-0.56 0.71,0.36 0.66,-0.1 0.3,-0.64 -2,-0.98 -1.46,2.05 1.83,2.77 -0.41,2.65 h 3.36 v -2.17 l 0.64,-0.9 0.19,-0.87 z"
             style="opacity:0.33;stroke:#000000;stroke-width:0.1323;stroke-miterlimit:4;stroke-dasharray:none;stroke-opacity:1" />
    </g>
</svg>
