<?xml version="1.0" encoding="utf-8" ?>
<svg baseProfile="full" height="86px" version="1.1" viewBox="0.0,0.03367486482212234,951.2772523444837,407.1763103695273" width="200px" xmlns="http://www.w3.org/2000/svg" xmlns:ev="http://www.w3.org/2001/xml-events" xmlns:xlink="http://www.w3.org/1999/xlink">
  <defs/>
  <path d="M 821.4,405.2 C 807.7,402.1 791.1,394.5 782.0,387.2 C 779.0,384.8 779.8,384.7 787.0,386.7 C 800.9,390.7 828.3,389.5 845.0,384.2 C 857.2,380.4 857.6,378.3 845.5,381.4 C 811.2,390.2 762.1,379.0 710.6,350.8 C 693.9,341.6 691.8,340.2 680.3,330.8 C 673.1,325.0 673.1,325.0 654.8,324.1 C 621.6,322.4 556.4,318.1 501.5,314.1 C 329.7,301.6 227.6,297.9 157.2,301.8 C 146.0,302.5 146.0,302.5 146.0,315.6 C 146.0,328.7 146.0,328.7 93.1,335.5 C 64.0,339.3 32.0,343.6 21.9,345.2 C 11.8,346.8 2.7,348.1 1.8,348.1 C 0.1,348.2 0.0,343.7 0.0,267.4 C 0.0,186.6 0.0,186.6 15.2,184.3 C 37.0,181.0 35.8,181.5 31.0,178.1 C 26.6,174.9 26.5,174.4 25.0,162.2 C 23.4,148.3 23.5,147.6 27.8,144.7 C 31.5,142.1 31.5,142.1 32.7,154.2 C 34.1,169.2 34.5,170.8 37.1,172.2 C 39.2,173.3 39.2,173.3 38.3,163.5 C 36.3,139.3 37.5,134.0 46.3,129.4 C 51.0,127.0 51.0,127.0 54.5,130.0 C 57.7,132.9 57.8,133.2 56.1,134.1 C 54.5,135.0 51.0,145.3 51.0,149.2 C 51.0,153.8 56.5,149.2 58.3,143.2 C 61.0,133.7 69.8,132.1 72.8,140.5 C 76.6,151.0 80.3,149.2 79.4,137.3 C 78.2,120.5 82.6,103.1 93.5,81.9 C 100.5,68.2 100.6,65.6 93.8,69.6 C 90.0,71.9 90.4,69.9 95.5,60.7 C 106.1,41.7 123.1,29.8 149.9,22.5 C 163.1,19.0 166.2,15.0 157.0,13.5 C 144.8,11.6 176.2,5.5 193.0,6.5 C 222.0,8.3 244.0,30.2 231.5,45.0 C 229.2,47.6 206.4,28.2 201.4,19.4 C 194.9,8.1 187.8,25.7 192.6,41.0 C 193.3,43.3 193.1,43.3 190.0,42.7 C 182.7,41.1 162.0,42.1 162.0,44.1 C 162.0,44.5 164.4,46.5 167.4,48.6 C 187.6,62.4 186.9,67.6 163.7,78.6 C 147.8,86.1 141.2,90.6 137.1,96.5 C 132.9,102.7 132.4,104.5 135.2,103.8 C 152.6,98.9 173.6,103.1 167.6,110.2 C 162.9,115.9 161.8,124.8 164.8,133.7 C 166.4,138.2 255.0,142.3 255.0,137.8 C 255.0,128.7 232.2,121.7 220.2,127.1 C 215.4,129.3 215.4,129.3 217.9,124.3 C 220.9,118.5 228.6,110.6 235.1,106.5 C 242.3,102.1 242.6,102.9 232.4,100.1 C 223.8,97.8 223.7,97.8 226.0,96.0 C 228.7,93.8 242.8,89.2 249.3,88.4 C 251.9,88.1 254.3,87.4 254.7,86.9 C 255.6,85.4 236.9,86.7 229.5,88.7 C 218.0,91.7 201.0,102.0 207.0,102.2 C 218.6,102.7 223.4,105.8 216.0,108.0 C 204.5,111.6 186.7,121.3 177.6,128.8 C 173.9,132.0 173.7,131.6 175.5,124.1 C 180.3,103.7 174.2,96.5 152.8,97.4 C 146.9,97.6 142.0,97.7 142.0,97.5 C 142.0,96.5 160.6,85.4 170.0,80.7 C 192.2,69.7 193.1,66.1 177.9,51.7 C 169.8,44.0 174.6,43.0 196.8,47.7 C 200.0,48.4 200.0,48.4 198.4,44.6 C 193.8,33.6 195.8,16.9 200.8,25.0 C 205.4,32.5 211.0,37.5 224.0,45.9 C 246.5,60.4 249.9,63.1 254.8,69.7 C 257.1,72.7 257.1,72.7 255.5,68.7 C 253.2,63.0 246.8,54.8 241.5,51.1 C 232.8,44.8 232.6,19.2 241.2,2.9 C 243.4,-1.3 243.4,-1.3 244.2,5.7 C 246.0,20.5 252.9,30.8 277.9,55.7 C 287.9,65.6 297.7,76.0 299.7,78.9 C 304.1,85.3 304.8,85.6 301.9,79.9 C 297.6,71.5 293.5,66.4 278.4,51.2 C 260.0,32.5 259.2,30.8 262.0,16.4 C 264.0,5.6 266.2,2.8 267.2,9.7 C 269.1,23.6 277.5,36.0 300.4,58.7 C 319.7,77.8 326.1,88.6 326.5,102.7 C 326.7,109.3 327.0,109.9 330.4,113.3 C 332.4,115.3 334.0,117.9 334.0,119.1 C 334.0,122.5 336.9,121.5 342.1,116.4 C 347.6,110.8 348.2,111.4 346.9,121.1 C 346.2,126.2 344.0,132.9 340.4,140.7 C 340.1,141.3 354.0,142.5 379.2,144.0 C 400.8,145.2 439.4,147.8 465.0,149.6 C 511.5,153.0 511.5,153.0 518.0,146.7 C 546.8,119.1 564.5,120.1 607.6,151.9 C 618.6,160.1 618.6,160.1 646.6,161.6 C 717.6,165.5 817.0,166.2 859.0,163.2 C 882.1,161.6 913.3,158.4 928.6,156.1 C 936.0,155.1 942.3,154.2 942.5,154.2 C 942.8,154.2 943.1,134.8 943.2,111.1 C 943.5,68.1 943.5,68.1 947.2,77.0 C 951.2,86.4 952.8,98.0 949.5,93.6 C 948.2,91.9 948.1,108.5 948.0,233.0 C 948.0,358.6 948.2,374.3 949.5,373.2 C 952.5,370.6 951.3,379.9 947.2,389.4 C 943.5,398.2 943.5,398.2 943.2,357.1 C 943.0,316.0 943.0,316.0 940.2,316.6 C 914.0,322.0 854.7,326.2 793.6,327.0 C 747.7,327.7 747.7,327.7 757.4,335.4 C 784.9,357.4 822.7,373.2 841.0,370.2 C 852.8,368.4 874.0,354.2 874.0,348.3 C 874.0,347.8 876.8,347.2 880.2,346.8 C 893.7,345.4 909.8,339.4 920.7,331.6 C 927.9,326.4 927.8,326.4 924.6,335.7 C 915.5,362.6 900.7,377.1 875.0,384.6 C 860.2,389.0 860.7,394.0 876.0,394.2 C 882.5,394.3 882.5,394.3 879.0,395.8 C 870.6,399.5 864.2,399.6 838.5,396.6 C 828.4,395.4 827.5,399.8 836.9,404.7 C 842.9,407.8 834.2,408.1 821.4,405.2 L 821.4,405.2" fill="none" stroke="#000000" stroke-width="0.9512772523444837"/>
  <path d="M 17.8,340.1 C 24.8,339.0 50.7,335.4 75.3,332.2 C 100.0,329.0 120.4,326.1 120.6,325.9 C 126.8,319.7 77.7,322.9 22.2,332.4 C 6.4,335.1 -6.5,342.2 4.5,342.2 C 4.8,342.2 10.8,341.2 17.8,340.1" fill="none" stroke="#000000" stroke-width="0.9512772523444837"/>
  <path d="M 26.7,328.8 C 38.2,326.9 55.0,324.3 64.2,323.1 C 73.5,321.8 80.7,320.4 80.2,320.1 C 79.8,319.7 70.4,318.1 59.2,316.5 C 39.0,313.7 39.0,313.7 39.0,254.9 C 39.0,221.0 38.6,196.2 38.1,196.2 C 37.6,196.2 29.9,197.3 21.0,198.7 C 12.1,200.0 4.6,201.2 4.4,201.2 C 4.2,201.2 4.0,230.6 4.0,266.7 C 4.0,308.6 4.4,332.2 5.0,332.2 C 5.5,332.2 15.3,330.6 26.7,328.8 L 26.7,328.8" fill="none" stroke="#000000" stroke-width="0.9512772523444837"/>
  <path d="M 140.0,312.5 C 140.0,302.9 140.0,302.9 129.8,303.6 C 105.7,305.2 63.5,310.0 64.5,311.0 C 65.1,311.6 132.1,321.9 136.8,322.0 C 140.0,322.2 140.0,322.2 140.0,312.5 L 140.0,312.5" fill="none" stroke="#000000" stroke-width="0.9512772523444837"/>
  <path d="M 862.5,319.3 C 895.1,316.7 932.6,312.5 940.8,310.5 C 942.9,310.0 944.3,302.1 942.2,302.2 C 941.8,302.2 936.4,303.1 930.2,304.2 C 875.2,313.8 767.0,316.6 659.5,311.2 C 601.8,308.2 550.3,304.7 484.5,299.2 C 312.5,284.6 170.5,283.4 71.5,295.7 C 44.4,299.1 45.0,298.9 45.0,303.7 C 45.0,307.9 45.0,307.9 52.7,306.5 C 144.4,290.6 255.2,291.1 507.5,308.7 C 617.9,316.4 643.1,318.0 693.5,320.1 C 720.5,321.3 845.0,320.6 862.5,319.3 L 862.5,319.3" fill="none" stroke="#000000" stroke-width="0.9512772523444837"/>
  <path d="M 815.0,310.1 C 865.6,308.7 901.7,305.9 929.8,301.1 C 936.1,300.0 941.6,299.2 942.1,299.2 C 942.6,299.2 943.0,272.6 943.0,235.5 C 943.0,171.9 943.0,171.9 939.8,172.6 C 866.3,187.9 696.1,186.1 483.5,167.7 C 392.3,159.8 273.0,153.7 273.0,157.0 C 273.0,158.7 278.0,160.4 281.2,159.8 C 292.1,157.6 273.0,172.8 260.1,176.6 C 249.3,179.7 248.5,179.0 255.2,172.3 C 262.1,165.4 262.5,164.0 257.2,165.2 C 247.2,167.6 245.3,166.6 250.1,161.4 C 254.5,156.7 254.5,156.7 223.5,156.3 C 154.4,155.7 66.8,161.7 64.6,167.3 C 63.4,170.7 62.9,170.8 60.5,168.2 C 58.7,166.1 52.0,165.3 52.0,167.0 C 52.0,167.5 52.7,169.6 53.6,171.7 C 55.2,175.6 53.2,176.2 46.9,173.7 C 45.4,173.1 45.3,178.4 45.1,234.6 C 44.9,286.8 45.1,296.2 46.3,296.2 C 47.0,296.2 52.0,295.5 57.4,294.7 C 130.3,283.8 258.4,281.6 386.0,289.2 C 446.8,292.8 451.3,293.2 480.0,295.6 C 533.7,300.3 564.2,302.5 608.0,305.1 C 654.0,307.9 685.0,309.2 721.5,310.1 C 768.3,311.2 776.5,311.2 815.0,310.1 L 815.0,310.1" fill="none" stroke="#000000" stroke-width="0.9512772523444837"/>
  <path d="M 21.5,195.7 C 30.3,194.3 37.8,193.2 38.2,193.2 C 38.7,193.2 39.0,191.6 39.0,189.7 C 39.0,186.4 38.9,186.3 35.8,186.8 C 1.7,192.1 4.5,191.4 4.2,194.9 C 4.0,196.7 4.2,198.2 4.7,198.1 C 5.1,198.1 12.7,197.0 21.5,195.7 L 21.5,195.7" fill="none" stroke="#000000" stroke-width="0.9512772523444837"/>
  <path d="M 865.0,178.2 C 923.0,174.2 943.0,170.7 943.0,164.6 C 943.0,162.1 942.7,160.2 942.4,160.2 C 942.1,160.2 933.7,161.3 923.7,162.6 C 828.7,175.3 735.5,174.3 505.0,158.2 C 325.9,145.6 329.4,145.7 328.1,154.2 C 328.0,154.5 340.5,155.3 355.7,156.0 C 392.3,157.7 430.3,160.3 487.5,165.2 C 567.0,171.9 630.5,176.0 687.0,178.2 C 702.7,178.8 719.3,179.4 724.0,179.6 C 742.4,180.3 850.4,179.2 865.0,178.2 L 865.0,178.2" fill="none" stroke="#000000" stroke-width="0.9512772523444837"/>
  <path d="M 56.7,159.4 C 56.0,155.1 56.1,155.2 52.8,155.9 C 47.5,156.9 48.9,164.1 54.1,163.4 C 57.0,162.9 57.2,162.7 56.7,159.4 L 56.7,159.4" fill="none" stroke="#000000" stroke-width="0.9512772523444837"/>
  <path d="M 80.5,160.2 C 110.1,156.6 157.0,154.1 210.9,153.3 C 258.7,152.6 259.2,152.5 256.5,145.4 C 255.2,141.9 150.6,144.7 100.5,149.7 C 69.8,152.7 67.0,153.7 67.0,160.8 C 67.0,161.4 72.2,161.2 80.5,160.2 L 80.5,160.2" fill="none" stroke="#000000" stroke-width="0.9512772523444837"/>
  <path d="M 325.3,151.4 C 325.6,149.9 325.4,148.2 324.9,147.7 C 324.0,146.7 274.4,144.4 273.6,145.3 C 268.7,150.2 272.2,153.1 283.1,153.4 C 322.2,154.5 324.7,154.4 325.3,151.4" fill="none" stroke="#000000" stroke-width="0.9512772523444837"/>
  <path d="M 322.4,139.8 C 321.1,136.3 308.7,132.2 299.5,132.2 C 295.1,132.2 295.1,132.2 297.5,127.5 C 303.6,116.1 300.4,113.6 280.0,113.7 C 260.2,113.8 250.2,115.9 260.8,117.7 C 271.5,119.6 271.1,119.2 268.4,125.0 C 261.8,138.8 261.8,138.8 291.1,139.9 C 305.6,140.4 318.7,140.9 320.2,141.0 C 322.1,141.1 322.8,140.8 322.4,139.8" fill="none" stroke="#000000" stroke-width="0.9512772523444837"/>
  <path d="M 300.6,101.8 C 299.5,97.3 286.2,84.5 284.5,86.3 C 282.2,88.8 291.3,101.8 296.5,103.6 C 301.1,105.2 301.4,105.1 300.6,101.8" fill="none" stroke="#000000" stroke-width="0.9512772523444837"/>
</svg>
