<?xml version="1.0" encoding="utf-8" ?>
<svg baseProfile="full" height="86px" version="1.1" viewBox="0.0,-6.834834920255162e-10,951.3068805110896,407.18163819732325" width="200px" xmlns="http://www.w3.org/2000/svg" xmlns:ev="http://www.w3.org/2001/xml-events" xmlns:xlink="http://www.w3.org/1999/xlink">
  <defs/>
  <path d="M 821.35418,405.15163 C 807.66113,402.05764 791.07182,394.49555 782.0,387.21238 C 778.98122,384.78879 779.82081,384.70954 787.0,386.74041 C 800.8578,390.66055 828.26251,389.46361 845.01073,384.20672 C 857.22925,380.3716 857.58958,378.26595000000003 845.4956599999999,381.37292 C 811.1818299999999,390.18825000000004 762.0665399999999,379.04683 710.6049699999999,350.77404 C 693.8731999999999,341.58166 691.8368499999999,340.24240000000003 680.3093999999999,330.84929 C 673.1187999999999,324.99005 673.1187999999999,324.99005 654.8093999999999,324.05789 C 621.64843,322.36962 556.37486,318.14247 501.5,314.12948 C 329.72307,301.56747 227.597,297.91837 157.25,301.82895 C 146.0,302.45433 146.0,302.45433 145.99766,315.55758 C 145.99566,328.66081999999994 145.99566,328.66081999999994 93.114968,335.50415 C 64.03077,339.26799 31.96932,343.64531 21.8673,345.23153 C 11.76528,346.81776 2.7125,348.12576 1.75,348.1382 C 0.09759,348.1596 0.0,343.65652 0.0,267.38949 C 0.0,186.61816000000002 0.0,186.61816000000002 15.25,184.31599000000003 C 36.96721,181.03753000000003 35.77987,181.50838000000002 31.02165,178.06154000000004 C 26.64476,174.89094000000003 26.4676,174.42316000000002 25.00966,162.18705000000003 C 23.35791,148.32442000000003 23.47253,147.59209000000004 27.75,144.67940000000002 C 31.5,142.12588000000002 31.5,142.12588000000002 32.66099,154.22063000000003 C 34.09771,169.18793000000002 34.50228,170.82408000000004 37.111779999999996,172.22064000000003 C 39.188449999999996,173.33204000000003 39.19526,173.28401000000002 38.34997,163.49951000000004 C 36.25658,139.26786000000004 37.47247,134.03335000000004 46.26405,129.42886000000004 C 50.9963,126.95039000000004 50.9963,126.95039000000004 54.49487,130.02218000000005 C 57.71828,132.85236000000006 57.84664,133.17253000000005 56.12696,134.09287000000006 C 54.50571,134.96054 51.0,145.2787 51.0,149.18276 C 51.0,153.78212 56.53237,149.21176 58.28947,143.16082 C 61.026450000000004,133.73545000000001 69.782538,132.13964 72.81084800000001,140.51427 C 76.602338,150.99946 80.297578,149.19635 79.411518,137.29344 C 78.165078,120.54937000000001 82.607148,103.06557000000001 93.495948,81.857653 C 100.5076,68.201212 100.56824999999999,65.621782 93.783508,69.629628 C 90.005648,71.861267 90.382798,69.942758 95.546638,60.660816999999994 C 106.11875,41.657568999999995 123.06786,29.779964999999994 149.93149,22.548971999999992 C 163.12713,18.997047999999992 166.23597,15.021717999999993 156.97603,13.540992999999991 C 144.83401,11.599406 176.15506,5.4900209 193.0,6.5142709 C 222.0414,8.2801209 243.95784,30.176673 231.48376,44.963114 C 229.24571,47.616043 206.41738999999998,28.212144999999996 201.37001999999998,19.366661999999998 C 194.94668,8.109788899999998 187.77692,25.721999999999998 192.55423,41.022290999999996 C 193.25157,43.25566499999999 193.11478,43.344938 190.03269999999998,42.667998 C 182.73157,41.064402 162.0,42.110494 162.0,44.082497 C 162.0,44.492734 164.44599,46.513002 167.43554,48.571982 C 187.55574000000001,62.429294 186.90798,67.564274 163.65036,78.57813999999999 C 147.84318000000002,86.06377599999999 141.16112,90.585202 137.14703,96.51164699999998 C 132.92354,102.74724999999998 132.44869,104.54862999999997 135.23514,103.76453999999998 C 152.64278000000002,98.86617699999998 173.63568,103.05134999999999 167.60541,110.21790999999999 C 162.86099000000002,115.85634999999999 161.78357,124.83961 164.79377,133.66082 C 166.35651,138.24034 254.98201999999998,142.26312000000001 254.99698999999998,137.75521 C 255.02709,128.68871000000001 232.19812,121.71044 220.25,127.13389000000001 C 215.36798,129.34992 215.35854,129.33851 217.91943,124.31875000000001 C 220.88368,118.50834 228.55322,110.55913000000001 235.08444,106.52784000000001 C 242.28122,102.08573000000001 242.61892,102.88014000000001 232.36216,100.12378000000001 C 223.76337999999998,97.81296700000001 223.73441,97.79429700000001 225.95570999999998,95.995597 C 228.68746,93.783567 242.76138999999998,89.22922 249.27920999999998,88.448086 C 251.90776999999997,88.133063 254.34151999999997,87.417236 254.68755,86.85736 C 255.60133,85.378829 236.87528999999998,86.72815 229.53452,88.669782 C 218.03318,91.711886 200.99316,101.95482 207.0,102.21552 C 218.62803,102.72018 223.38303,105.78667 216.04307,108.04736 C 204.54275,111.58945 186.66242,121.26388 177.62443,128.83436 C 173.85192999999998,131.99431 173.68088,131.61609 175.4631,124.05537000000001 C 180.27283,103.65111000000002 174.19559,96.48383700000001 152.83113,97.36408700000001 C 146.87401,97.609537 142.0,97.692777 142.0,97.549077 C 142.0,96.54417699999999 160.55778,85.350736 170.0,80.660404 C 192.15585,69.654706 193.12995,66.072458 177.87903,51.685514 C 169.75259,44.019444 174.62314,42.995385 196.75131,47.717515 C 200.00261999999998,48.411342 200.00261999999998,48.411342 198.41011999999998,44.599944 C 193.79662999999996,33.558322000000004 195.80612999999997,16.874127 200.77656,24.952112 C 205.39058999999997,32.450861 211.02139,37.536798 224.0,45.928342 C 246.45362,60.446119 249.89374,63.095561000000004 254.815,69.66081700000001 C 257.06377,72.66081700000001 257.06377,72.66081700000001 255.49726,68.70582700000001 C 253.23713,62.999640000000014 246.77434000000002,54.841177000000016 241.53196000000003,51.07638400000002 C 232.80797,44.811289000000016 232.62989000000002,19.23562000000002 241.19646000000003,2.891673900000022 C 243.41403000000003,-1.3391830999999783 243.41403000000003,-1.3391830999999783 244.22985000000003,5.660816900000022 C 245.95900000000003,20.49747600000002 252.90836000000002,30.803765000000023 277.94402,55.66081700000002 C 287.91516,65.56081700000003 297.70665,76.02331700000002 299.7029,78.91081700000002 C 304.09897,85.26958700000003 304.75647,85.57111100000003 301.88348,79.91081700000002 C 297.6345,71.53959100000003 293.46778,66.43784200000002 278.40266,51.16081700000002 C 260.04178,32.54167100000002 259.22245000000004,30.806771000000023 261.96376000000004,16.351933000000024 C 263.99699000000004,5.630712900000024 266.19270000000006,2.798870900000024 267.15185,9.660747900000024 C 269.09678,23.575054000000023 277.53679,36.00784100000002 300.41558000000003,58.66081700000002 C 319.71826000000004,77.77298100000002 326.13797000000005,88.58938300000003 326.54404000000005,102.68401000000003 C 326.73488000000003,109.30781000000003 326.95263000000006,109.91345000000003 330.3731900000001,113.33401000000003 C 332.3679400000001,115.32876000000003 334.00000000000006,117.90582000000003 334.00000000000006,119.06082000000004 C 334.00000000000006,122.49934000000003 336.92131000000006,121.52523000000004 342.08002000000005,116.36652000000004 C 347.63480000000004,110.81174000000004 348.18906000000004,111.35794000000004 346.85991000000007,121.07692000000003 C 346.15823000000006,126.20770000000003 343.9760600000001,132.85609000000002 340.42930000000007,140.66898000000003 C 340.13524000000007,141.31672000000003 354.00846000000007,142.49625000000003 379.2358100000001,143.96839000000003 C 400.83112000000006,145.22857000000002 439.42500000000007,147.77433000000002 465.00000000000006,149.62562000000003 C 511.50000000000006,152.99160000000003 511.50000000000006,152.99160000000003 518.0,146.74240000000003 C 546.79578,119.05769000000004 564.49086,120.08418000000003 607.6441,151.94264000000004 C 618.63234,160.05486000000005 618.63234,160.05486000000005 646.5661699999999,161.57873000000004 C 717.61502,165.45464000000004 817.0132,166.22060000000005 859.0,163.21573000000004 C 882.1038,161.56226000000004 913.31765,158.39193000000003 928.5897,156.14764000000002 C 936.0257,155.05489000000003 942.30524,154.16082000000003 942.54423,154.16082000000003 C 942.7832199999999,154.16082000000003 943.0960299999999,134.79324000000003 943.23938,111.12176000000002 C 943.5,68.082705 943.5,68.082705 947.25,76.956564 C 951.23694,86.391105 952.82168,97.95155700000001 949.5318,93.601947 C 948.2386,91.892174 948.05982,108.51057999999999 948.0318,233.03325999999998 C 948.0036,358.58666 948.16784,374.26640999999995 949.5,373.16081999999994 C 952.53665,370.64061999999996 951.25153,379.89600999999993 947.25,389.36517999999995 C 943.5,398.23913999999996 943.5,398.23913999999996 943.23884,357.12296999999995 C 942.9776899999999,316.00681 942.9776899999999,316.00681 940.23884,316.57042999999993 C 913.98014,321.9741599999999 854.65474,326.20917999999995 793.60809,327.0378599999999 C 747.7161799999999,327.6608199999999 747.7161799999999,327.6608199999999 757.39882,335.4020799999999 C 784.9141,357.4005099999999 822.74925,373.1665899999999 841.00886,370.2427699999999 C 852.75657,368.36166 874.0,354.21098 874.0,348.26669 C 874.0,347.81516 876.79435,347.15367 880.20967,346.79668999999996 C 893.7483699999999,345.38161999999994 909.77157,339.35371999999995 920.67347,331.57428999999996 C 927.86429,326.44302999999996 927.82088,326.39753999999994 924.6441,335.73566999999997 C 915.51888,362.55918999999994 900.74105,377.11665999999997 875.0,384.63948999999997 C 860.20484,388.96338999999995 860.73028,394.00138999999996 876.0,394.22765 C 882.5,394.32394999999997 882.5,394.32394999999997 879.0,395.84743 C 870.61903,399.49544999999995 864.15698,399.61307999999997 838.5,396.58464999999995 C 828.39063,395.39138999999994 827.54004,399.7939099999999 836.93425,404.68872999999996 C 842.89667,407.79542999999995 834.19852,408.05386 821.35418,405.15162999999995 L 821.35418,405.15163" fill="none" stroke="#000000" stroke-width="0.9513068805110896"/>
  <path d="M 17.76654,340.11766 C 24.76994,338.99392 50.678419999999996,335.42799 75.340938,332.19338 C 100.00345999999999,328.95877 120.35524999999998,326.1389 120.56714,325.92701 C 126.84406,319.6501 77.67759799999999,322.86913 22.25,332.36404 C 6.35426,335.08702999999997 -6.450230000000001,342.16082 4.516539999999999,342.16082 C 4.80064,342.16082 10.76314,341.2414 17.76654,340.11766" fill="none" stroke="#000000" stroke-width="0.9513068805110896"/>
  <path d="M 26.725929999999998,328.7554 C 38.151669999999996,326.88242 55.035309999999996,324.31523 64.24512999999999,323.05053 C 73.45494799999999,321.78583 80.65494799999999,320.44126 80.245128,320.0626 C 79.835308,319.68394 70.387498,318.0891 59.25,316.51852 C 39.0,313.66291 39.0,313.66291 39.0,254.91187 C 39.0,221.04914 38.62123,196.16082 38.10587,196.16082 C 37.614110000000004,196.16082 29.91646,197.28582 21.000000000000004,198.66082 C 12.083530000000003,200.03582 4.610890000000005,201.16082 4.3941200000000045,201.16082 C 4.177350000000004,201.16082 4.000000000000004,230.63582 4.000000000000004,266.66082 C 4.000000000000004,308.58394 4.351290000000004,332.16082 4.975930000000004,332.16082 C 5.5126900000000045,332.16082 15.300190000000004,330.62838 26.725930000000005,328.7554 L 26.725929999999998,328.7554" fill="none" stroke="#000000" stroke-width="0.9513068805110896"/>
  <path d="M 140.0,312.532 C 140.0,302.90317999999996 140.0,302.90317999999996 129.75,303.60004 C 105.6657,305.23744999999997 63.535120000000006,310.02927999999997 64.52447,311.01863 C 65.14917999999999,311.64333999999997 132.14199,321.86467 136.75,322.03833999999995 C 140.0,322.16081999999994 140.0,322.16081999999994 140.0,312.5319999999999 L 140.0,312.532" fill="none" stroke="#000000" stroke-width="0.9513068805110896"/>
  <path d="M 862.5,319.2596 C 895.09616,316.69804999999997 932.56454,312.50151 940.75,310.49543 C 942.94089,309.95849 944.34935,302.14219 942.25,302.17117 C 941.8375,302.17717 936.43738,303.06742 930.24973,304.15017 C 875.1801,313.78663 767.0041,316.58558 659.5,311.15556 C 601.78659,308.24047 550.28243,304.70794 484.5,299.15278 C 312.45793,284.62428 170.49488,283.44 71.499998,295.70749 C 44.37999,299.06821 45.0,298.88229 45.0,303.65379 C 45.0,307.87236 45.0,307.87236 52.72506,306.52901 C 144.35625,290.59479000000005 255.22937000000002,291.13139 507.5,308.73003000000006 C 617.85675,316.4286200000001 643.0727400000001,317.97168000000005 693.5,320.1120700000001 C 720.52808,321.2592700000001 845.04644,320.6311800000001 862.5,319.2596000000001 L 862.5,319.2596" fill="none" stroke="#000000" stroke-width="0.9513068805110896"/>
  <path d="M 815.0,310.13185 C 865.64318,308.6986 901.74529,305.85528999999997 929.84937,301.08657999999997 C 936.09153,300.02741 941.60403,299.16081999999994 942.09937,299.16081999999994 C 942.62411,299.16081999999994 943.0,272.6056899999999 943.0,235.53581999999994 C 943.0,171.91081999999994 943.0,171.91081999999994 939.75,172.58992999999995 C 866.29723,187.93828999999994 696.06908,186.09870999999995 483.5,167.65942999999996 C 392.34201,159.75194 273.0,153.72719 273.0,157.03275 C 273.0,158.73445999999998 278.03674,160.39862 281.25,159.75858 C 292.12432,157.59257 273.00002,172.7671 260.0685,176.56544 C 249.34410999999997,179.71549 248.49746999999996,178.98335 255.15999999999997,172.32082 C 262.08099999999996,165.39982 262.48655999999994,164.02623 257.24999999999994,165.24227 C 247.18905999999996,167.57864999999998 245.34982999999994,166.58992999999998 250.12263999999993,161.41082 C 254.49999999999994,156.66082 254.49999999999994,156.66082 223.49999999999994,156.34811 C 154.40793999999994,155.65116 66.75193899999994,161.70844 64.63139999999996,167.32639 C 63.35991999999996,170.69492 62.88088999999996,170.79167 60.49999999999996,168.16082 C 58.68006999999996,166.14982 51.99999999999996,165.26795 51.99999999999996,167.0387 C 51.99999999999996,167.52153 52.70786999999996,169.61074 53.573039999999956,171.68139 C 55.20390999999996,175.58462 53.189749999999954,176.19030999999998 46.88771999999996,173.69176 C 45.41650999999996,173.10846999999998 45.25805999999996,178.43814999999998 45.07676999999996,234.60667999999998 C 44.90844999999996,286.75521 45.09166999999996,296.16082 46.27616999999996,296.16082 C 47.045119999999955,296.16082 52.04577999999996,295.50459 57.38874999999996,294.70252 C 130.26202,283.7631 258.37137,281.62907 386.0,289.22854 C 446.75876,292.84634 451.2611,293.15295000000003 480.0,295.62995 C 533.67962,300.25659 564.19408,302.51962000000003 608.0,305.12275 C 654.04988,307.85922999999997 685.03625,309.21585 721.5,310.09189 C 768.32547,311.21688 776.53709,311.22038 815.0,310.13189 L 815.0,310.13185" fill="none" stroke="#000000" stroke-width="0.9513068805110896"/>
  <path d="M 21.5,195.66851 C 30.3,194.31277 37.8375,193.19392 38.25,193.18216999999999 C 38.6625,193.17047 39.0,191.61410999999998 39.0,189.72368999999998 C 39.0,186.40877999999998 38.88443,186.30454999999998 35.75,186.79251999999997 C 1.662390000000002,192.09925999999996 4.5297100000000015,191.36138999999997 4.186640000000001,194.91498999999996 C 4.014290000000001,196.70018999999996 4.239240000000001,198.15466999999995 4.686640000000001,198.14715999999996 C 5.133990000000001,198.13915999999995 12.700000000000001,197.02425999999997 21.5,195.66850999999997 L 21.5,195.66851" fill="none" stroke="#000000" stroke-width="0.9513068805110896"/>
  <path d="M 865.0,178.23247 C 922.99118,174.21504000000002 943.0,170.70695 943.0,164.55693 C 943.0,162.13907 942.73963,160.16082 942.42139,160.16082 C 942.10316,160.16082 933.66566,161.25507 923.67139,162.59249 C 828.7307,175.29731 735.50477,174.31368 505.0,158.17506 C 325.91603,145.63664 329.40435,145.71491 328.08465,154.2054 C 328.03805,154.50492 340.46061000000003,155.31575 355.69025,156.00724 C 392.28258999999997,157.66869 430.29127,160.30581 487.5,165.15245 C 566.97462,171.88544 630.52433,176.02921999999998 687.0,178.16092999999998 C 702.675,178.75259999999997 719.325,179.38264999999998 724.0,179.56104999999997 C 742.3806,180.26244999999997 850.38781,179.24475999999996 865.0,178.23246999999998 L 865.0,178.23247" fill="none" stroke="#000000" stroke-width="0.9513068805110896"/>
  <path d="M 56.65257,159.4073 C 55.954209999999996,155.10378 56.08734,155.22459999999998 52.75,155.8657 C 47.547380000000004,156.86512 48.85998,164.12852 54.10412,163.35885000000002 C 57.04684,162.92695 57.18817,162.70781000000002 56.652570000000004,159.40730000000002 L 56.65257,159.4073" fill="none" stroke="#000000" stroke-width="0.9513068805110896"/>
  <path d="M 80.526228,160.18166 C 110.05697,156.55536 157.02553,154.07695999999999 210.92919,153.30067 C 258.6601,152.61327 259.16651,152.52564999999998 256.52658,145.41082 C 255.20682000000002,141.85397 150.62902000000003,144.72776 100.50000000000003,149.69842 C 69.76759800000002,152.74576 66.99999800000003,153.6615 66.99999800000003,160.78294 C 66.99999800000003,161.43228 72.23798800000003,161.19944 80.52622800000003,160.18166 L 80.526228,160.18166" fill="none" stroke="#000000" stroke-width="0.9513068805110896"/>
  <path d="M 325.3065,151.41082 C 325.60330000000005,149.89832 325.40914000000004,148.21082 324.87501000000003,147.66082 C 323.95378000000005,146.71222 274.42964000000006,144.39117 273.57671000000005,145.25663 C 268.73423,150.17024 272.17598000000004,153.10423 283.14504000000005,153.41333 C 322.24782000000005,154.51523 324.7203400000001,154.39779000000001 325.3065,151.41082" fill="none" stroke="#000000" stroke-width="0.9513068805110896"/>
  <path d="M 322.4223,139.81893 C 321.06625,136.28512999999998 308.70998000000003,132.16082 299.47891,132.16082 C 295.05627,132.16082 295.05627,132.16082 297.52813,127.51188 C 303.5802,116.12951000000001 300.42312,113.63878 280.04098999999997,113.71569000000001 C 260.23787,113.79039000000002 250.16415999999995,115.89137000000001 260.80405999999994,117.72772 C 271.4929199999999,119.57252000000001 271.14852999999994,119.24052 268.37816999999995,125.02919 C 261.80427,138.76538 261.83498999999995,138.78539 291.13248999999996,139.85228 C 305.63462,140.38039 318.72337999999996,140.89085 320.21862,140.98665 C 322.12627,141.10886 322.78362999999996,140.76053 322.4223,139.81893" fill="none" stroke="#000000" stroke-width="0.9513068805110896"/>
  <path d="M 300.63132,101.82802999999998 C 299.4903,97.28182699999998 286.21671000000003,84.52858599999999 284.50832,86.33708099999998 C 282.2228,88.75653899999999 291.2961,101.82602999999999 296.5,103.61029999999998 C 301.14939,105.20443999999998 301.44657,105.07623999999998 300.63132,101.82802999999998" fill="none" stroke="#000000" stroke-width="0.9513068805110896"/>
</svg>
