<?xml version="1.0" encoding="utf-8" ?>
<svg baseProfile="full" height="125px" version="1.1" viewBox="-193.92952,-28.518234,79.025,49.32" width="200px" xmlns="http://www.w3.org/2000/svg" xmlns:ev="http://www.w3.org/2001/xml-events" xmlns:xlink="http://www.w3.org/1999/xlink">
  <defs/>
  <path d="M -116.27952,15.218766 L -116.27952,11.343766 C -116.68752,12.565766 -117.26652,13.868766 -118.07852000000001,15.099766 L -118.07852000000001,15.170766 L -118.12452000000002,15.170766 C -119.27952000000002,16.897766 -120.90652000000001,18.464766 -123.19352000000002,19.426766 L -120.48752000000002,19.426766 L -116.27952000000002,15.218766" fill="none" stroke="#000000" stroke-width="0.07902500000000001"/>
  <path d="M -125.13152,-27.143234 L -183.72852,-27.143234 C -186.34152,-26.511233999999998 -188.43452,-25.072233999999998 -190.00552,-22.865234 L -190.00552,15.124766000000001 C -188.63951999999998,17.039766 -186.63551999999999,18.703766 -183.70352,19.426766 L -125.10552,19.426766 C -122.49252,18.794766 -120.39952,17.355766 -118.82852,15.148766000000002 L -118.82852,-22.841234 C -120.19351999999999,-24.756234 -122.19852,-26.420234 -125.13152,-27.143234" fill="none" stroke="#000000" stroke-width="0.07902500000000001"/>
  <path d="M -192.55452,9.0727665 C -192.25152,10.488766 -191.71152,12.253766 -190.75552,13.945765999999999 L -190.75552,-21.677234 C -190.92252,-21.380233999999998 -191.09951999999998,-21.098233999999998 -191.25052,-20.779234 C -191.90851999999998,-19.394233999999997 -192.30852,-18.003234 -192.55452,-16.839233999999998 L -192.55452,9.0727665" fill="none" stroke="#000000" stroke-width="0.07902500000000001"/>
  <path d="M -118.07852,13.960766 C -117.91152,13.663765999999999 -117.73352,13.381765999999999 -117.58352,13.062766 C -116.92652,11.677766 -116.52452,10.286766 -116.27951999999999,9.122766500000001 L -116.27951999999999,-16.788234 C -116.58251999999999,-18.206234 -117.12252,-19.970233999999998 -118.07852,-21.662233999999998 L -118.07852,13.960766" fill="none" stroke="#000000" stroke-width="0.07902500000000001"/>
  <path d="M -188.34652,19.426766 L -185.63952,19.426766 C -187.92752000000002,18.464766 -189.55452,16.897766 -190.70952,15.170766 L -190.75552,15.170766 L -190.75552,15.099766 C -191.56752,13.868766 -192.14651999999998,12.565766 -192.55452,11.343766 L -192.55452,15.218766 L -188.34652,19.426766" fill="none" stroke="#000000" stroke-width="0.07902500000000001"/>
  <path d="M -192.55452,-22.936234 L -192.55452,-19.060233999999998 C -192.14652,-20.282234 -191.56752,-21.585233999999996 -190.75552,-22.816233999999998 L -190.75552,-22.887234 L -190.70952,-22.887234 C -189.55452,-24.614234 -187.92752,-26.181234 -185.63952,-27.143234 L -188.34652,-27.143234 L -192.55452,-22.936234" fill="none" stroke="#000000" stroke-width="0.07902500000000001"/>
  <path d="M -120.48752,-27.143234 L -123.19352,-27.143234 C -120.90652,-26.181234 -119.27952,-24.614234 -118.12452,-22.887234 L -118.07852,-22.887234 L -118.07852,-22.816233999999998 C -117.26652,-21.585233999999996 -116.68751999999999,-20.282234 -116.27951999999999,-19.060233999999998 L -116.27951999999999,-22.936234 L -120.48751999999999,-27.143234" fill="none" stroke="#000000" stroke-width="0.07902500000000001"/>
  <path d="M -119.91752,20.801766 L -188.91752,20.801766 L -193.92952,15.788766 L -193.92952,-23.506234 L -188.91752,-28.518234 L -119.91752,-28.518234 L -114.90451999999999,-23.506234 L -114.90451999999999,15.788766000000003 L -119.91752,20.801766" fill="none" stroke="#000000" stroke-width="0.07902500000000001"/>
</svg>
