<?xml version="1.0" encoding="utf-8" ?>
<svg baseProfile="full" height="200px" version="1.1" viewBox="-163.92951999999997,-64.52565800000006,51.91000000000011,57.15000040000006" width="182px" xmlns="http://www.w3.org/2000/svg" xmlns:ev="http://www.w3.org/2001/xml-events" xmlns:xlink="http://www.w3.org/1999/xlink">
  <defs/>
  <path d="M -112.01952,-45.305658 L -112.01952,-35.435658000000004 C -112.78052,-32.815658000000006 -121.04052,-13.045658000000003 -136.99952,-7.375657600000004 C -137.22951999999998,-7.655657600000004 -137.54952,-7.855657600000004 -137.93952,-7.865657600000004 L -137.93952,-7.875657600000004 L -138.00951999999998,-7.875657600000004 L -138.00951999999998,-7.865657600000004 C -138.39951999999997,-7.855657600000004 -138.71952,-7.655657600000004 -138.95051999999998,-7.375657600000004 C -154.91052,-13.045658000000003 -163.16951999999998,-32.815658 -163.92951999999997,-35.435658000000004 L -163.92951999999997,-45.305658 C -163.42951999999997,-45.505658000000004 -163.08051999999998,-45.995658 -163.08051999999998,-46.575658000000004 C -163.08051999999998,-46.645658000000005 -163.10951999999997,-46.70565800000001 -163.12051999999997,-46.77565800000001 C -158.68951999999996,-49.685658000000004 -157.03051999999997,-57.175658000000006 -156.46951999999996,-59.795658 L -138.97951999999995,-64.525658 C -138.74051999999995,-64.22565800000001 -138.41051999999996,-64.015658 -138.00951999999995,-64.00565800000001 L -138.00951999999995,-63.99565800000001 L -137.93951999999996,-63.99565800000001 L -137.93951999999996,-64.00565800000001 C -137.54051999999996,-64.01565800000002 -137.20951999999997,-64.22565800000001 -136.96951999999996,-64.525658 L -119.47951999999997,-59.795658 C -118.91951999999996,-57.175658000000006 -117.25951999999997,-49.685658000000004 -112.83051999999996,-46.77565800000001 C -112.83951999999996,-46.70565800000001 -112.87051999999997,-46.645658000000005 -112.87051999999997,-46.575658000000004 C -112.87051999999997,-45.995658000000006 -112.51951999999997,-45.505658000000004 -112.01951999999997,-45.305658" fill="none" stroke="#000000" stroke-width="0.05715000040000006"/>
</svg>
