<?xml version="1.0" encoding="utf-8" ?>
<svg baseProfile="full" height="200px" version="1.1" viewBox="-57.270999999999994,-46.04,61.60099999999999,68.09" width="181px" xmlns="http://www.w3.org/2000/svg" xmlns:ev="http://www.w3.org/2001/xml-events" xmlns:xlink="http://www.w3.org/1999/xlink">
  <defs/>
  <path d="M 3.62,-26.01 C -2.71,-27.3 -3.55,-38.95 -3.56,-39.05 L -3.6089999999999995,-39.66 L -26.398999999999997,-46.019999999999996 L -26.429999999999996,-46.029999999999994 L -26.469999999999995,-46.03999999999999 L -26.469999999999995,-44.15999999999999 L -26.429999999999996,-44.14999999999999 L -26.398999999999997,-44.13999999999999 L -5.2499999999999964,-38.279999999999994 C -4.949999999999997,-35.989999999999995 -3.4999999999999964,-26.189999999999994 2.5800000000000036,-24.419999999999995 L 2.5800000000000036,-11.029999999999994 C 2.0900000000000034,-9.229999999999993 -6.7499999999999964,14.710000000000004 -26.398999999999994,20.170000000000005 C -26.409999999999993,20.170000000000005 -26.419999999999995,20.180000000000007 -26.429999999999993,20.180000000000007 C -26.438999999999993,20.180000000000007 -26.459999999999994,20.19000000000001 -26.46999999999999,20.19000000000001 L -26.46999999999999,22.050000000000008 L -26.429999999999993,22.040000000000006 L -26.398999999999994,22.030000000000005 L -26.249999999999993,21.990000000000006 C -4.7,16.24 4.24,-10.42 4.311,-10.69 L 4.33,-10.91 L 4.33,-25.87 L 3.62,-26.01" fill="none" stroke="#000000" stroke-width="0.06809000000000001"/>
  <path d="M 0.0,-23.99 C -0.31,-23.99 -0.59,-23.86 -0.819,-23.8 C -5.08,-26.51 -6.6,-33.98 -7.06,-36.32 L -7.119999999999999,-36.61 L -25.159999999999997,-41.519999999999996 C -25.219999999999995,-42.199999999999996 -25.728999999999996,-42.73 -26.398999999999997,-42.76 C -26.409999999999997,-42.769999999999996 -26.419999999999998,-42.769999999999996 -26.429999999999996,-42.769999999999996 L -26.469999999999995,-42.769999999999996 L -26.469999999999995,-40.04 L -26.429999999999996,-40.04 C -26.419999999999995,-40.04 -26.409999999999997,-40.04 -26.398999999999997,-40.05 C -25.999999999999996,-40.059999999999995 -25.669999999999998,-40.269999999999996 -25.429999999999996,-40.57 L -7.9389999999999965,-35.84 C -7.379999999999996,-33.220000000000006 -5.719999999999997,-25.730000000000004 -1.2899999999999965,-22.820000000000004 C -1.2999999999999965,-22.750000000000004 -1.3299999999999965,-22.690000000000005 -1.3299999999999965,-22.620000000000005 C -1.3299999999999965,-22.040000000000006 -0.9789999999999965,-21.550000000000004 -0.47899999999999654,-21.350000000000005 L -0.47899999999999654,-11.480000000000006 C -1.24,-8.86 -9.5,10.91 -25.46,16.58 C -25.689,16.3 -26.01,16.1 -26.399,16.09 C -26.41,16.08 -26.42,16.08 -26.43,16.08 L -26.47,16.08 L -26.47,18.81 L -26.43,18.81 C -26.419999999999998,18.81 -26.41,18.81 -26.399,18.799999999999997 C -25.720000000000002,18.769999999999996 -25.189,18.22 -25.149,17.519999999999996 C -8.59,11.64 -0.22,-8.89 0.46,-11.27 L 0.48000000000000004,-11.4 L 0.48000000000000004,-21.35 C 0.98,-21.55 1.33,-22.040000000000003 1.33,-22.62 C 1.33,-23.380000000000003 0.7400000000000001,-23.990000000000002 0.0,-23.990000000000002" fill="none" stroke="#000000" stroke-width="0.06809000000000001"/>
  <path d="M -26.5,-42.77 C -26.521,-42.77 -26.53,-42.77 -26.54,-42.76 C -27.21,-42.730000000000004 -27.72,-42.2 -27.779999999999998,-41.52 L -45.81999999999999,-36.61 L -45.879999999999995,-36.32 C -46.339999999999996,-33.980000000000004 -47.85999999999999,-26.509999999999998 -52.12,-23.67 C -52.351,-23.860000000000003 -52.629999999999995,-23.990000000000002 -52.94,-23.990000000000002 C -53.68,-23.990000000000002 -54.271,-23.380000000000003 -54.271,-22.62 C -54.271,-22.040000000000003 -53.92,-21.55 -53.42,-21.35 L -53.42,-11.400000000000002 L -53.4,-11.270000000000001 C -52.72,-8.89 -44.351,11.639999999999999 -27.79,17.519999999999996 C -27.75,18.219999999999995 -27.22,18.769999999999996 -26.54,18.799999999999997 C -26.529999999999998,18.81 -26.509999999999998,18.81 -26.5,18.81 L -26.47,18.81 L -26.47,16.08 L -26.5,16.08 C -26.521,16.08 -26.53,16.08 -26.54,16.09 C -26.93,16.1 -27.25,16.3 -27.48,16.58 C -43.44,10.909999999999998 -51.7,-8.860000000000003 -52.46,-11.48 L -52.46,-21.35 C -51.96,-21.55 -51.61,-22.040000000000003 -51.61,-22.62 C -51.61,-22.69 -51.64,-22.75 -51.65,-22.82 C -47.22,-25.73 -45.561,-33.22 -45.0,-35.84 L -27.51,-40.57000000000001 C -27.271,-40.27000000000001 -26.94,-40.06000000000001 -26.540000000000003,-40.050000000000004 C -26.53,-40.040000000000006 -26.51,-40.040000000000006 -26.500000000000004,-40.040000000000006 L -26.470000000000002,-40.040000000000006 L -26.470000000000002,-42.77 L -26.500000000000004,-42.77 C -26.521000000000004,-42.77 -26.530000000000005,-42.77 -26.540000000000003,-42.760000000000005 C -27.210000000000004,-42.730000000000004 -27.720000000000002,-42.2 -27.78,-41.52 L -45.82,-36.61 L -45.88,-36.32 C -46.34,-33.980000000000004 -47.86,-26.509999999999998 -52.120000000000005,-23.67 C -52.351000000000006,-23.860000000000003 -52.63,-23.990000000000002 -52.940000000000005,-23.990000000000002 C -53.68000000000001,-23.990000000000002 -54.27100000000001,-23.380000000000003 -54.27100000000001,-22.62 C -54.27100000000001,-22.040000000000003 -53.92000000000001,-21.55 -53.42000000000001,-21.35 L -53.42000000000001,-11.400000000000002 L -53.400000000000006,-11.270000000000001 C -52.720000000000006,-8.89 -44.351000000000006,11.639999999999999 -27.790000000000006,17.519999999999996 C -27.750000000000007,18.219999999999995 -27.220000000000006,18.769999999999996 -26.540000000000006,18.799999999999997 C -26.530000000000005,18.81 -26.510000000000005,18.81 -26.500000000000007,18.81 L -26.470000000000006,18.81 L -26.470000000000006,16.08 L -26.500000000000007,16.08 C -26.521000000000008,16.08 -26.53000000000001,16.08 -26.540000000000006,16.09 C -26.930000000000007,16.1 -27.250000000000007,16.3 -27.480000000000008,16.58 C -43.44000000000001,10.909999999999998 -51.7,-8.860000000000003 -52.46000000000001,-11.48 L -52.46000000000001,-21.35 C -51.96000000000001,-21.55 -51.61000000000001,-22.040000000000003 -51.61000000000001,-22.62 C -51.61000000000001,-22.69 -51.64000000000001,-22.75 -51.650000000000006,-22.82 C -47.220000000000006,-25.73 -45.56100000000001,-33.22 -45.00000000000001,-35.84 L -27.51000000000001,-40.57000000000001 C -27.271000000000008,-40.27000000000001 -26.94000000000001,-40.06000000000001 -26.54000000000001,-40.050000000000004 C -26.53000000000001,-40.040000000000006 -26.51000000000001,-40.040000000000006 -26.50000000000001,-40.040000000000006 L -26.47000000000001,-40.040000000000006 L -26.47000000000001,-42.77 L -26.50000000000001,-42.77 C -26.52100000000001,-42.77 -26.530000000000012,-42.77 -26.54000000000001,-42.760000000000005 C -27.21000000000001,-42.730000000000004 -27.72000000000001,-42.2 -27.78000000000001,-41.52 L -45.82000000000001,-36.61 L -45.88000000000001,-36.32 C -46.34000000000001,-33.980000000000004 -47.86000000000001,-26.509999999999998 -52.12000000000001,-23.67 C -52.35100000000001,-23.860000000000003 -52.63000000000001,-23.990000000000002 -52.94000000000001,-23.990000000000002 C -53.680000000000014,-23.990000000000002 -54.271000000000015,-23.380000000000003 -54.271000000000015,-22.62 C -54.271000000000015,-22.040000000000003 -53.920000000000016,-21.55 -53.420000000000016,-21.35 L -53.420000000000016,-11.400000000000002 L -53.40000000000001,-11.270000000000001 C -52.72000000000001,-8.89 -44.35100000000001,11.639999999999999 -27.790000000000013,17.519999999999996 C -27.750000000000014,18.219999999999995 -27.220000000000013,18.769999999999996 -26.540000000000013,18.799999999999997 C -26.530000000000012,18.81 -26.510000000000012,18.81 -26.500000000000014,18.81 L -26.470000000000013,18.81 L -26.470000000000013,16.08 L -26.500000000000014,16.08 C -26.521000000000015,16.08 -26.530000000000015,16.08 -26.540000000000013,16.09 C -26.930000000000014,16.1 -27.250000000000014,16.3 -27.480000000000015,16.58 C -43.44000000000001,10.909999999999998 -51.70000000000002,-8.860000000000003 -52.460000000000015,-11.48 L -52.460000000000015,-21.35 C -51.960000000000015,-21.55 -51.610000000000014,-22.040000000000003 -51.610000000000014,-22.62 C -51.610000000000014,-22.69 -51.640000000000015,-22.75 -51.65000000000001,-22.82 C -47.22000000000001,-25.73 -45.561000000000014,-33.22 -45.000000000000014,-35.84 L -27.510000000000016,-40.57000000000001 C -27.271000000000015,-40.27000000000001 -26.940000000000015,-40.06000000000001 -26.540000000000017,-40.050000000000004 C -26.530000000000015,-40.040000000000006 -26.510000000000016,-40.040000000000006 -26.500000000000018,-40.040000000000006 L -26.470000000000017,-40.040000000000006 L -26.470000000000017,-42.77 L -26.500000000000018,-42.77" fill="none" stroke="black" stroke-width=".1"/>
  <path d="M -26.5,-46.03 L -26.54,-46.02 L -49.33,-39.660000000000004 L -49.379999999999995,-39.050000000000004 C -49.38999999999999,-38.95 -50.23,-27.300000000000004 -56.56099999999999,-26.010000000000005 L -57.270999999999994,-25.870000000000005 L -57.270999999999994,-10.910000000000004 L -57.24999999999999,-10.690000000000003 C -57.17999999999999,-10.420000000000003 -48.239999999999995,16.239999999999995 -26.689999999999994,21.989999999999995 L -26.539999999999996,22.029999999999994 L -26.499999999999996,22.039999999999996 L -26.469999999999995,22.049999999999997 L -26.469999999999995,20.189999999999998 C -26.479999999999997,20.189999999999998 -26.489999999999995,20.179999999999996 -26.499999999999996,20.179999999999996 C -26.509999999999998,20.179999999999996 -26.529999999999998,20.169999999999995 -26.539999999999996,20.169999999999995 C -46.19,14.709999999999994 -55.029999999999994,-9.230000000000004 -55.521,-11.030000000000005 L -55.521,-24.420000000000005 C -49.44,-26.190000000000005 -47.99,-35.99000000000001 -47.69,-38.28 L -26.54,-44.14 L -26.5,-44.15 L -26.47,-44.16 L -26.47,-46.04 L -26.5,-46.03" fill="none" stroke="#000000" stroke-width="0.06809000000000001"/>
</svg>
