<?xml version="1.0" encoding="utf-8" ?>
<svg baseProfile="full" height="22px" version="1.1" viewBox="-163.92879000000016,-64.591376,94.59285800000018,10.317670000000021" width="200px" xmlns="http://www.w3.org/2000/svg" xmlns:ev="http://www.w3.org/2001/xml-events" xmlns:xlink="http://www.w3.org/1999/xlink">
  <defs/>
  <path d="M -75.346292,-54.473656 L -108.05549,-54.473656 C -108.12559,-54.455556 -108.25626000000001,-54.442555999999996 -108.41288,-54.442555999999996 C -108.64094,-54.442555999999996 -108.82591000000001,-54.469255999999994 -108.82591000000001,-54.502055999999996 C -108.82591000000001,-54.534955999999994 -108.64094,-54.561755999999995 -108.41288,-54.561755999999995 C -108.25623,-54.561755999999995 -108.12487,-54.548956 -108.05497,-54.530556 L -75.34642199999999,-54.530556 C -73.00052199999999,-54.530556 -71.31365199999999,-54.724546 -70.24941199999999,-54.903555999999995 C -70.115472,-54.978356 -69.803812,-55.198955999999995 -70.302512,-55.42801599999999 L -70.315512,-55.43401599999999 L -70.304112,-55.44001599999999 L -69.33667200000001,-55.95738599999999 L -69.33667200000001,-62.908255999999994 L -70.31412200000001,-63.431065999999994 L -70.301122,-63.437065999999994 C -69.803982,-63.66554599999999 -70.111412,-63.885836 -70.247122,-63.96107599999999 C -71.31188200000001,-64.14015599999999 -73.00031200000001,-64.33445599999999 -75.345132,-64.33445599999999 L -108.05476000000002,-64.33445599999999 C -108.12486000000001,-64.316256 -108.25551000000002,-64.30325599999999 -108.41213000000002,-64.30325599999999 C -108.64022000000001,-64.30325599999999 -108.82520000000002,-64.329956 -108.82520000000002,-64.362956 C -108.82520000000002,-64.39575599999999 -108.64022000000003,-64.42275599999999 -108.41213000000002,-64.42275599999999 C -108.25547000000002,-64.42275599999999 -108.12412000000002,-64.40985599999999 -108.05426000000001,-64.391556 L -75.34569200000001,-64.391556 C -72.33559200000002,-64.391556 -70.35223200000001,-64.09247599999999 -69.33593200000001,-63.884575999999996 L -69.33593200000001,-64.02751599999999 C -70.29658200000002,-64.17753599999999 -72.55310200000001,-64.47708599999999 -75.77352200000001,-64.591376 L -157.4952,-64.591206 C -160.71506000000002,-64.476876 -162.96901000000003,-64.177626 -163.92862000000002,-64.027576 L -163.92862000000002,-63.884575999999996 C -162.91071000000002,-64.09247599999999 -160.92897000000002,-64.391556 -157.91726000000003,-64.391556 L -125.21026000000003,-64.391556 C -125.13876000000003,-64.410156 -125.00741000000004,-64.42275599999999 -124.85131000000004,-64.42275599999999 C -124.62430000000003,-64.42275599999999 -124.43774000000005,-64.39605599999999 -124.43774000000005,-64.36305599999999 C -124.43774000000005,-64.33015599999999 -124.62430000000005,-64.30335599999998 -124.85131000000004,-64.30335599999998 C -125.00733000000004,-64.30335599999998 -125.13774000000004,-64.31625599999998 -125.20918000000005,-64.33455599999998 L -157.91681000000005,-64.33455599999998 C -160.26218000000006,-64.33455599999998 -161.95172000000005,-64.14025599999998 -163.01536000000004,-63.96117599999998 C -163.15042000000005,-63.88587599999998 -163.45785000000004,-63.66564599999998 -162.96226000000004,-63.43715599999998 L -162.94976000000005,-63.43115599999998 L -162.96066000000005,-63.42515599999998 L -163.92838000000006,-62.90762599999998 L -163.92838000000006,-55.95652599999998 L -162.94991000000007,-55.43380599999998 L -162.96241000000006,-55.42780599999998 C -163.45904000000007,-55.19924599999998 -163.14948000000007,-54.978875999999985 -163.01551000000006,-54.903705999999985 C -161.95186000000007,-54.72462599999999 -160.26233000000008,-54.53034599999999 -157.91696000000007,-54.53034599999999 L -125.20995000000008,-54.53034599999999 C -125.13845000000008,-54.54884599999999 -125.00712000000007,-54.561545999999986 -124.85102000000008,-54.561545999999986 C -124.62403000000008,-54.561545999999986 -124.43745000000007,-54.53484599999999 -124.43745000000007,-54.501845999999986 C -124.43745000000007,-54.469045999999985 -124.62403000000008,-54.44224599999998 -124.85102000000006,-54.44224599999998 C -125.00704000000006,-54.44224599999998 -125.13747000000006,-54.45504599999998 -125.20891000000006,-54.47344599999998 L -157.91741000000007,-54.47344599999998 C -160.92910000000006,-54.47344599999998 -162.91087000000007,-54.772635999999984 -163.92879000000008,-54.98044599999998 L -163.92879000000008,-54.83751599999998 C -162.9681300000001,-54.68740599999998 -160.71100000000007,-54.38785599999998 -157.48910000000006,-54.27370599999998 L -75.77106200000006,-54.273865999999984 C -72.55068200000005,-54.38806599999998 -70.29570200000006,-54.687325999999985 -69.33612200000006,-54.83741599999998 L -69.33612200000006,-54.980445999999986 C -70.35246200000006,-54.77262599999999 -72.33579200000005,-54.47344599999999 -75.34590200000007,-54.47344599999999" fill="none" stroke="#000000" stroke-width="0.09459285800000018"/>
</svg>
