<?xml version="1.0" encoding="utf-8" ?>
<svg baseProfile="full" height="23px" version="1.1" viewBox="-0.15000000000000177 -0.15000000000000044 94.89999999999999 10.600000000000001" width="200px" xmlns="http://www.w3.org/2000/svg" xmlns:ev="http://www.w3.org/2001/xml-events" xmlns:xlink="http://www.w3.org/1999/xlink">
  <defs/>
  <path d="M 88.6,10.1 L 55.9,10.1 C 55.9,10.1 55.7,10.2 55.6,10.2 C 55.3,10.2 55.2,10.1 55.2,10.1 C 55.2,10.1 55.3,10.0 55.6,10.0 C 55.7,10.0 55.9,10.0 55.9,10.1 L 88.6,10.1 C 91.0,10.1 92.7,9.9 93.7,9.7 C 93.9,9.6 94.2,9.4 93.7,9.2 L 93.7,9.2 L 93.7,9.2 L 94.6,8.6 L 94.6,1.7 L 93.7,1.2 L 93.7,1.2 C 94.2,0.9 93.9,0.7 93.7,0.6 C 92.7,0.5 91.0,0.3 88.6,0.3 L 55.9,0.3 C 55.9,0.3 55.7,0.3 55.6,0.3 C 55.3,0.3 55.2,0.3 55.2,0.2 C 55.2,0.2 55.3,0.2 55.6,0.2 C 55.7,0.2 55.9,0.2 55.9,0.2 L 88.6,0.2 C 91.6,0.2 93.6,0.5 94.6,0.7 L 94.6,0.6 C 93.7,0.4 91.4,0.1 88.2,0.0 L 6.5,0.0 C 3.3,0.1 1.0,0.4 0.0,0.6 L 0.0,0.7 C 1.1,0.5 3.0,0.2 6.1,0.2 L 38.8,0.2 C 38.8,0.2 39.0,0.2 39.1,0.2 C 39.4,0.2 39.5,0.2 39.5,0.2 C 39.5,0.3 39.4,0.3 39.1,0.3 C 39.0,0.3 38.8,0.3 38.8,0.3 L 6.1,0.3 C 3.7,0.3 2.0,0.5 1.0,0.6 C 0.8,0.7 0.5,0.9 1.0,1.2 L 1.0,1.2 L 1.0,1.2 L 0.0,1.7 L 0.0,8.6 L 1.0,9.2 L 1.0,9.2 C 0.5,9.4 0.8,9.6 1.0,9.7 C 2.0,9.9 3.7,10.1 6.1,10.1 L 38.8,10.1 C 38.8,10.0 39.0,10.0 39.1,10.0 C 39.4,10.0 39.5,10.1 39.5,10.1 C 39.5,10.1 39.4,10.2 39.1,10.2 C 39.0,10.2 38.8,10.1 38.8,10.1 L 6.1,10.1 C 3.0,10.1 1.1,9.8 0.0,9.6 L 0.0,9.8 C 1.0,9.9 3.3,10.2 6.5,10.3 L 88.2,10.3 C 91.4,10.2 93.7,9.9 94.6,9.8 L 94.6,9.6 C 93.6,9.8 91.6,10.1 88.6,10.1" fill="none" stroke="#000000" stroke-width="0.3"/>
</svg>
