<?xml version="1.0" encoding="UTF-8" standalone="no"?>
<!-- Created with Inkscape (http://www.inkscape.org/) -->

<svg
   xmlns:dc="http://purl.org/dc/elements/1.1/"
   xmlns:cc="http://creativecommons.org/ns#"
   xmlns:rdf="http://www.w3.org/1999/02/22-rdf-syntax-ns#"
   xmlns:svg="http://www.w3.org/2000/svg"
   xmlns="http://www.w3.org/2000/svg"
   xmlns:sodipodi="http://sodipodi.sourceforge.net/DTD/sodipodi-0.dtd"
   xmlns:inkscape="http://www.inkscape.org/namespaces/inkscape"
   version="1.1"
   id="svg99"
   width="328.39307"
   height="348.09286"
   viewBox="0 0 328.39307 348.09286"
   sodipodi:docname="alignment.svg"
   inkscape:version="0.92.3 (2405546, 2018-03-11)">
  <metadata
     id="metadata105">
    <rdf:RDF>
      <cc:Work
         rdf:about="">
        <dc:format>image/svg+xml</dc:format>
        <dc:type
           rdf:resource="http://purl.org/dc/dcmitype/StillImage" />
        <dc:title></dc:title>
      </cc:Work>
    </rdf:RDF>
  </metadata>
  <defs
     id="defs103" />
  <sodipodi:namedview
     pagecolor="#ffffff"
     bordercolor="#666666"
     borderopacity="1"
     objecttolerance="10"
     gridtolerance="10"
     guidetolerance="10"
     inkscape:pageopacity="0"
     inkscape:pageshadow="2"
     inkscape:window-width="1920"
     inkscape:window-height="983"
     id="namedview101"
     showgrid="false"
     inkscape:zoom="1.7350305"
     inkscape:cx="160.62663"
     inkscape:cy="160.53718"
     inkscape:window-x="0"
     inkscape:window-y="27"
     inkscape:window-maximized="1"
     inkscape:current-layer="svg99" />
  <path
     inkscape:connector-curvature="0"
     id="path165"
     d="m 192.47717,345.03533 c -0.80628,-0.97151 -0.8484,-1.62901 -0.13268,-2.07135 1.20494,-0.7447 1.45254,-14.53001 0.26097,-14.53001 -1.60101,0 -10.42504,9.84694 -9.77155,10.90431 0.42349,0.68522 -0.28148,1.09569 -1.88184,1.09569 -2.07869,0 -2.55902,-0.48033 -2.55902,-2.55902 0,-1.60036 0.41047,-2.30533 1.09569,-1.88184 1.05737,0.65349 10.90431,-8.17054 10.90431,-9.77155 0,-1.18237 -13.43907,-0.94852 -14.64238,0.25479 -0.72318,0.72318 -1.41175,0.59733 -2.24856,-0.41097 -1.91447,-2.3068 0.25832,-2.94281 9.27891,-2.71611 l 8.11203,0.20388 -4.98062,-5.07808 c -2.73934,-2.79295 -5.55184,-4.85888 -6.25,-4.59098 -0.81458,0.31259 -1.26938,-0.39736 -1.26938,-1.9815 0,-1.98171 0.50474,-2.46862 2.55902,-2.46862 1.60036,0 2.30533,0.41047 1.88184,1.09569 -0.65349,1.05737 8.17054,10.90431 9.77155,10.90431 1.18237,0 0.94852,-13.43907 -0.25479,-14.64238 -0.72318,-0.72318 -0.61069,-1.40065 0.36732,-2.21233 1.09072,-0.90522 1.67699,-0.84789 2.59094,0.25335 0.80628,0.97151 0.8484,1.62901 0.13268,2.07135 -1.20495,0.7447 -1.45254,14.53001 -0.26097,14.53001 1.60101,0 10.42504,-9.84694 9.77155,-10.90431 -0.42349,-0.68522 0.28148,-1.09569 1.88184,-1.09569 2.05428,0 2.55902,0.48691 2.55902,2.46862 0,1.58414 -0.4548,2.29409 -1.26938,1.9815 -0.69816,-0.2679 -3.51066,1.79803 -6.25,4.59098 l -4.98062,5.07808 8.30073,-0.20886 c 8.53306,-0.21471 11.48163,0.78052 8.83068,2.98062 -0.98847,0.82036 -1.66064,0.87078 -2.1014,0.15762 -0.7447,-1.20495 -14.53001,-1.45254 -14.53001,-0.26097 0,1.60101 9.84694,10.42504 10.90431,9.77155 0.68522,-0.42349 1.09569,0.28148 1.09569,1.88184 0,2.07869 -0.48033,2.55902 -2.55902,2.55902 -1.60036,0 -2.30533,-0.41047 -1.88184,-1.09569 0.65349,-1.05737 -8.17054,-10.90431 -9.77155,-10.90431 -1.18237,0 -0.94852,13.43907 0.25479,14.64238 0.72318,0.72318 0.61069,1.40065 -0.36732,2.21233 -1.09072,0.90522 -1.67699,0.84789 -2.59094,-0.25335 z m 112.59539,-2.47418 -2.82049,-1.85964 5.31099,0.28611 c 3.25811,0.17552 5.59864,-0.16609 6.05518,-0.88377 0.50508,-0.794 0.7491,-0.65919 0.7595,0.4196 0.008,0.87422 -1.13086,2.11172 -2.53174,2.75 -3.29253,1.50018 -3.44157,1.48451 -6.77344,-0.7123 z m -63.18743,-8.13515 -7.961,-8.00796 8.23446,-8.23446 8.23446,-8.23446 8.23446,8.23446 8.23446,8.23446 -7.961,8.00796 c -4.37855,4.40439 -8.20711,8.00797 -8.50792,8.00797 -0.30081,0 -4.12937,-3.60358 -8.50792,-8.00797 z m 16.51637,-0.50054 7.4584,-7.50851 -7.73342,-7.73343 -7.73343,-7.73342 -7.73343,7.73342 -7.73342,7.73343 7.4584,7.50851 c 4.10212,4.12968 7.70592,7.50851 8.00845,7.50851 0.30253,0 3.90633,-3.37883 8.00845,-7.50851 z m 48.51104,2.54005 c -0.36173,-0.58529 -1.07659,-0.80527 -1.58859,-0.48883 -0.51199,0.31643 -0.9309,0.10734 -0.9309,-0.46464 0,-0.57198 -1.125,-1.32232 -2.5,-1.66743 -2.13034,-0.53468 -2.47986,-1.16591 -2.36382,-4.26905 0.0941,-2.51669 0.27409,-2.91574 0.58263,-1.29183 0.37829,1.99108 0.93838,2.29233 3.6692,1.97352 2.70705,-0.31603 3.2139,-0.052 3.16738,1.65024 -0.0437,1.59823 0.47293,1.95298 2.44461,1.6787 3.32022,-0.46188 3.53387,-0.7868 1.8925,-2.87805 -1.27127,-1.61971 -1.23757,-1.65255 0.38711,-0.37715 1.38933,1.09064 2.32141,1.15017 4.25,0.27144 2.26547,-1.03221 2.47039,-0.91998 2.47039,1.35298 0,1.78129 -0.54254,2.47856 -1.92857,2.47856 -1.06072,0 -2.52322,0.5625 -3.25,1.25 -1.75025,1.65564 -5.47614,2.11771 -6.30194,0.78154 z m 0.91048,-8.91823 c 0.30141,-0.48768 -0.01,-1.33436 -0.69098,-1.8815 -1.78901,-1.43642 -8.6172,-2.014 -9.21142,-0.77917 -0.2772,0.57605 -0.36593,-0.97764 -0.19719,-3.45264 0.20228,-2.9667 -0.31284,-5.61775 -1.51178,-7.78042 -1.00023,-1.80423 -1.80099,-4.27923 -1.77946,-5.5 0.0316,-1.79298 0.34975,-1.54688 1.65522,1.28042 0.88883,1.925 1.51246,4.1236 1.38584,4.88578 -0.16353,0.98429 0.2985,1.15802 1.59478,0.59966 1.00376,-0.43237 5.55733,-0.87328 10.11905,-0.97981 8.85307,-0.20674 9.78581,-0.60755 10.48511,-4.50563 0.33418,-1.8628 0.48321,-1.56544 0.58468,1.16667 0.0777,2.09268 -0.3841,3.84009 -1.07584,4.07067 -0.94935,0.31645 -0.94935,1.28069 0,4.44935 1.8318,6.11398 1.71219,6.31331 -3.78798,6.31331 -3.77778,0 -5,0.36667 -5,1.5 0,0.825 -0.70156,1.5 -1.55902,1.5 -0.85746,0 -1.31241,-0.39901 -1.01101,-0.88669 z m -95.93789,-22.12128 -7.961,-8.00796 8.23446,-8.23446 8.23446,-8.23446 8.23446,8.23446 8.23446,8.23446 -7.961,8.00796 c -4.37855,4.40439 -8.20711,8.00797 -8.50792,8.00797 -0.30081,0 -4.12937,-3.60358 -8.50792,-8.00797 z m 16.51637,-0.50054 7.4584,-7.50851 -7.73342,-7.73343 -7.73343,-7.73342 -7.73343,7.73342 -7.73342,7.73343 7.4584,7.50851 c 4.10212,4.12968 7.70592,7.50851 8.00845,7.50851 0.30253,0 3.90633,-3.37883 8.00845,-7.50851 z m 43.48363,0.50054 -7.961,-8.00796 8.23446,-8.23446 8.23446,-8.23446 8.23446,8.23446 8.23446,8.23446 -7.961,8.00796 c -4.37855,4.40439 -8.20711,8.00797 -8.50792,8.00797 -0.30081,0 -4.12937,-3.60358 -8.50792,-8.00797 z m 16.51637,-0.50054 7.4584,-7.50851 -7.73342,-7.73343 -7.73343,-7.73342 -7.73343,7.73342 -7.73342,7.73343 7.4584,7.50851 c 4.10212,4.12968 7.70592,7.50851 8.00845,7.50851 0.30253,0 3.90633,-3.37883 8.00845,-7.50851 z M 182.88513,275.426 l -7.961,-8.00796 8.23446,-8.23446 8.23446,-8.23446 8.23446,8.23446 8.23446,8.23446 -7.961,8.00796 c -4.37855,4.40438 -8.20711,8.00797 -8.50792,8.00797 -0.30081,0 -4.12937,-3.60359 -8.50792,-8.00797 z m 16.51637,-0.50054 7.4584,-7.50851 -7.73342,-7.73343 -7.73343,-7.73342 -7.73343,7.73342 -7.73342,7.73343 7.4584,7.50851 c 4.10212,4.12968 7.70592,7.50851 8.00845,7.50851 0.30253,0 3.90633,-3.37883 8.00845,-7.50851 z m 42.48363,0.50054 -7.961,-8.00796 8.23446,-8.23446 8.23446,-8.23446 8.23446,8.23446 8.23446,8.23446 -7.961,8.00796 c -4.37855,4.40438 -8.20711,8.00797 -8.50792,8.00797 -0.30081,0 -4.12937,-3.60359 -8.50792,-8.00797 z m 16.51637,-0.50054 7.4584,-7.50851 -7.73342,-7.73343 -7.73343,-7.73342 -7.73343,7.73342 -7.73342,7.73343 7.4584,7.50851 c 4.10212,4.12968 7.70592,7.50851 8.00845,7.50851 0.30253,0 3.90633,-3.37883 8.00845,-7.50851 z m 42.48363,0.50054 -7.961,-8.00796 8.23446,-8.23446 8.23446,-8.23446 8.23446,8.23446 8.23446,8.23446 -7.961,8.00796 c -4.37855,4.40438 -8.20711,8.00797 -8.50792,8.00797 -0.30081,0 -4.12937,-3.60359 -8.50792,-8.00797 z m 16.51637,-0.50054 7.4584,-7.50851 -7.73342,-7.73343 -7.73343,-7.73342 -7.73343,7.73342 -7.73342,7.73343 7.4584,7.50851 c 4.10212,4.12968 7.70592,7.50851 8.00845,7.50851 0.30253,0 3.90633,-3.37883 8.00845,-7.50851 z M 211.88513,245.426 l -7.961,-8.00796 8.23446,-8.23446 8.23446,-8.23446 8.23446,8.23446 8.23446,8.23446 -7.961,8.00796 c -4.37855,4.40438 -8.20711,8.00797 -8.50792,8.00797 -0.30081,0 -4.12937,-3.60359 -8.50792,-8.00797 z m 16.51637,-0.50054 7.4584,-7.50851 -7.73342,-7.73343 -7.73343,-7.73342 -7.73343,7.73342 -7.73342,7.73343 7.4584,7.50851 c 4.10212,4.12968 7.70592,7.50851 8.00845,7.50851 0.30253,0 3.90633,-3.37883 8.00845,-7.50851 z m 43.48363,0.50054 -7.961,-8.00796 8.23446,-8.23446 8.23446,-8.23446 8.23446,8.23446 8.23446,8.23446 -7.961,8.00796 c -4.37855,4.40438 -8.20711,8.00797 -8.50792,8.00797 -0.30081,0 -4.12937,-3.60359 -8.50792,-8.00797 z m 16.51637,-0.50054 7.4584,-7.50851 -7.73342,-7.73343 -7.73343,-7.73342 -7.73343,7.73342 -7.73342,7.73343 7.4584,7.50851 c 4.10212,4.12968 7.70592,7.50851 8.00845,7.50851 0.30253,0 3.90633,-3.37883 8.00845,-7.50851 z m 9.65822,-15.15816 c -0.36667,-0.36666 -0.66667,-1.47583 -0.66667,-2.46481 0,-2.11387 -3.21819,-4.10576 -5.32641,-3.29676 -2.20213,0.84504 -3.2601,-1.66973 -1.30415,-3.09995 1.81281,-1.32556 0.74355,-6.47181 -1.34469,-6.47181 -0.56361,0 -1.02475,-0.675 -1.02475,-1.5 0,-0.825 0.8449,-1.5 1.87756,-1.5 2.55478,0 4.47521,-2.543 3.81809,-5.05585 -0.58224,-2.22646 2.36547,-4.26079 3.07771,-2.12406 0.5717,1.71508 5.90676,1.45588 6.58827,-0.32009 0.94882,-2.4726 3.63837,-1.7832 3.63837,0.93261 0,2.57836 2.55425,4.05941 5.23008,3.03259 0.87233,-0.33474 1.77079,0.0947 2.12402,1.01518 0.35987,0.93782 9.1e-4,1.82989 -0.87096,2.16446 -2.20472,0.84603 -1.81961,5.10472 0.57763,6.38768 2.28757,1.22427 2.11988,3.45907 -0.26132,3.48255 -2.67988,0.0264 -4.82162,2.54842 -4.21539,4.96382 0.64203,2.55807 -2.05686,4.33736 -2.96992,1.95797 -0.84805,-2.20999 -5.36606,-1.79386 -6.11414,0.56314 -0.64959,2.04667 -1.64946,2.5172 -2.83333,1.33333 z m 8.33333,-9.33333 c 2.79877,-2.79877 2.5315,-6.43676 -0.65713,-8.94494 -6.02206,-4.73695 -13.34868,3.03004 -7.95043,8.42829 3.0347,3.0347 5.91654,3.20767 8.60756,0.51665 z m -111.77658,7.15925 c -0.82858,-0.52583 0.39969,-1.19278 3.5,-1.90051 l 4.77658,-1.09039 -2.36078,1.91583 c -2.56204,2.07914 -3.93923,2.32941 -5.9158,1.07507 z m 9.21983,-3.40925 c -1.09759,-2.3953 0.0155,-8.76992 1.71817,-9.83998 1.03813,-0.65242 1.14253,-2.65301 0.4128,-7.91002 -0.36061,-2.5978 -0.3039,-2.80732 0.21997,-0.81279 0.38819,1.47796 1.71831,3.84388 2.95581,5.2576 2.87773,3.28752 2.83218,4.33281 -0.25,5.73714 -2.60421,1.18656 -3.58475,6.0296 -1.48369,7.32813 0.55897,0.34547 0.75742,1.04702 0.44098,1.55902 -1.01205,1.63753 -2.95125,1.00027 -4.01404,-1.3191 z m -14.91944,-1.36905 c -2.32628,-2.32628 -1.65608,-2.47014 5.39703,-1.15848 4.48327,0.83375 5.76625,1.38392 4.44171,1.90468 -3.28538,1.29168 -8.17144,0.92111 -9.83874,-0.7462 z m 52.96827,-6.38892 -7.961,-8.00796 8.23446,-8.23446 8.23446,-8.23446 8.23446,8.23446 8.23446,8.23446 -7.961,8.00796 c -4.37855,4.40438 -8.20711,8.00797 -8.50792,8.00797 -0.30081,0 -4.12937,-3.60359 -8.50792,-8.00797 z m 16.51637,-0.50054 7.4584,-7.50851 -7.73342,-7.73343 -7.73343,-7.73342 -7.73343,7.73342 -7.73342,7.73343 7.4584,7.50851 c 4.10212,4.12968 7.70592,7.50851 8.00845,7.50851 0.30253,0 3.90633,-3.37883 8.00845,-7.50851 z m -65.45833,3.38216 c -4.23413,-0.99205 -7.55012,-3.38899 -7.55012,-5.45756 0,-0.84149 1.95184,-0.284 5.75,1.64233 3.1625,1.60393 6.51094,2.92195 7.44098,2.92891 0.93004,0.007 1.9691,0.46267 2.30902,1.01267 0.7419,1.20042 -2.50756,1.14877 -7.94988,-0.12635 z m 3.38986,-3.75167 c -6.70306,-2.62309 -10.6232,-5.16155 -12.02979,-7.78979 -2.01036,-3.75639 -0.49128,-3.65977 4.20594,0.26752 2.41113,2.01591 6.29637,4.59534 8.63387,5.73206 2.3375,1.13672 4.25,2.42709 4.25,2.8675 0,0.97821 0.4224,1.06814 -5.06002,-1.07729 z m 0.56002,-4.04874 c -7.78565,-4.52812 -11.43533,-8.15038 -12.16464,-12.07324 l -0.6507,-3.5 4.65517,5.14415 c 2.56035,2.82929 6.9063,6.5887 9.65767,8.35425 8.00187,5.13478 6.74884,6.8709 -1.4975,2.07484 z m -0.5,-5.91894 c -6.82564,-5.05676 -11,-10.97939 -11,-15.6069 0,-3.13111 15.43202,12.2122 17.70173,17.59998 1.61839,3.84171 0.87611,3.62095 -6.70173,-1.99308 z m 120,1.45269 c 0,-1.8772 -2.94305,-2.89915 -4.53772,-1.57568 -1.57615,1.30809 -2.6444,-0.1186 -1.48882,-1.98837 1.09089,-1.7651 0.20045,-4.04294 -1.58045,-4.04294 -0.76615,0 -1.39301,-0.675 -1.39301,-1.5 0,-0.825 0.70891,-1.5 1.57537,-1.5 1.17741,0 1.49317,-0.82099 1.25,-3.25 -0.31249,-3.12134 -0.19671,-3.23712 2.92463,-2.92463 2.72719,0.27302 3.25,-0.008 3.25,-1.75 0,-2.70269 2.02731,-2.68694 2.73552,0.0213 0.43858,1.67714 1.0965,1.98698 3.28832,1.54861 3.17371,-0.63474 4.39455,0.14571 2.95023,1.88601 -1.27701,1.53871 -0.20635,4.46876 1.63292,4.46876 0.76615,0 1.39301,0.675 1.39301,1.5 0,0.825 -0.62686,1.5 -1.39301,1.5 -1.83927,0 -2.90993,2.93005 -1.63292,4.46876 1.3118,1.58062 0.0753,2.81711 -1.50531,1.50531 -1.53871,-1.27701 -4.46876,-0.20635 -4.46876,1.63292 0,0.76616 -0.675,1.39301 -1.5,1.39301 -0.825,0 -1.5,-0.62685 -1.5,-1.39301 z m 6.01227,-7.62991 c 2.13474,-3.9888 -2.75157,-8.25733 -6.90677,-6.03354 -3.42772,1.83446 -3.71479,5.13562 -0.67405,7.75116 2.98056,2.56377 5.6081,1.96844 7.58082,-1.71762 z"
     style="fill:#515151;fill-opacity:1" />
  <path
     style="fill:#000000"
     d="m 18.989823,346.61845 c -1.02814,-1.13609 -1.315749,-2.0081 -0.662314,-2.0081 0.766558,0 1.154988,-2.42558 1.154988,-7.21241 v -7.21241 l -5.018491,4.94303 c -2.76017,2.71867 -4.7992926,5.51425 -4.5313846,6.21241 0.3125836,0.81458 -0.39736,1.26938 -1.9815088,1.26938 -1.9581536,0 -2.4686152,-0.51046 -2.4686152,-2.46862 0,-1.58414 0.4547985,-2.29409 1.2693788,-1.9815 0.6981583,0.2679 3.4937418,-1.77122 6.2124078,-4.53139 l 4.943029,-5.01849 h -7.129075 c -4.2025022,0 -7.2764104,0.44201 -7.4879829,1.07673 -0.203974,0.61192 -1.1068086,0.2503 -2.0914288,-0.83769 -1.64813885,-1.82117 -1.63471685,-2.00292 0.2755756,-3.73171 1.1360822,-1.02814 2.0080955,-1.31575 2.0080955,-0.66232 0,0.76656 2.4255816,1.15499 7.2124076,1.15499 h 7.212408 l -4.943029,-5.01849 c -2.718666,-2.76017 -5.5142495,-4.79929 -6.2124078,-4.53139 -0.8145803,0.31259 -1.2693788,-0.39736 -1.2693788,-1.9815 0,-1.98171 0.5047413,-2.46862 2.559017,-2.46862 1.59692,0 2.3049846,0.41103 1.883335,1.09328 -0.655182,1.0601 7.1726496,9.90672 8.7658556,9.90672 1.225661,0 0.949614,-12.78073 -0.284935,-13.19224 -0.611922,-0.20398 -0.250307,-1.10681 0.837686,-2.09143 1.821173,-1.64814 2.002924,-1.63472 3.731715,0.27557 1.02814,1.13609 1.315749,2.0081 0.662314,2.0081 -0.754857,0 -1.154988,2.25184 -1.154988,6.5 0,3.575 0.356306,6.5 0.791792,6.5 1.593206,0 9.421038,-8.84662 8.765856,-9.90672 -0.42165,-0.68225 0.286415,-1.09328 1.883335,-1.09328 2.054276,0 2.559017,0.48691 2.559017,2.46862 0,1.58414 -0.454799,2.29409 -1.269379,1.9815 -0.698158,-0.2679 -3.493742,1.77122 -6.212408,4.53139 l -4.943029,5.01849 h 7.129075 c 4.202503,0 7.276411,-0.44201 7.487983,-1.07673 0.203974,-0.61192 1.106809,-0.2503 2.091429,0.83769 1.648139,1.82117 1.634717,2.00292 -0.275575,3.73171 -1.136083,1.02814 -2.008096,1.31575 -2.008096,0.66232 0,-0.76656 -2.425582,-1.15499 -7.212408,-1.15499 h -7.212408 l 4.943029,5.01849 c 2.718666,2.76017 5.51425,4.79929 6.212408,4.53139 0.81458,-0.31259 1.269379,0.39736 1.269379,1.9815 0,1.95816 -0.510462,2.46862 -2.468615,2.46862 -1.584149,0 -2.294093,-0.4548 -1.981509,-1.26938 0.267908,-0.69816 -1.771215,-3.49374 -4.531385,-6.21241 l -5.018491,-4.94303 v 7.12908 c 0,4.2025 0.442009,7.27641 1.076727,7.48798 0.611922,0.20398 0.250307,1.10681 -0.837686,2.09143 -1.821173,1.64814 -2.002924,1.63472 -3.731715,-0.27557 z m 113.687767,-1.18151 c -3.42644,-2.16947 -4.32409,-4.30208 -1.4451,-3.43324 4.53676,1.36911 7.33439,1.37941 8.68183,0.032 1.52643,-1.52643 3.19457,-0.24786 2.06377,1.5818 -1.89643,3.0685 -6.04575,3.88024 -9.3005,1.81948 z m -63.703012,-8.83456 -7.960998,-8.00796 8.234458,-8.23446 8.234459,-8.23446 8.234459,8.23446 8.234458,8.23446 -7.960998,8.00796 c -4.378549,4.40439 -8.207113,8.00797 -8.507919,8.00797 -0.300806,0 -4.12937,-3.60358 -8.507919,-8.00797 z m 16.516372,-0.50054 7.458398,-7.50851 -7.733425,-7.73343 -7.733426,-7.73342 -7.733426,7.73342 -7.733425,7.73343 7.458398,7.50851 c 4.102119,4.12968 7.705923,7.50851 8.008453,7.50851 0.30253,0 3.906334,-3.37883 8.008453,-7.50851 z m 46.03492,1.97645 c -4.82062,-2.63722 -8.8092,-11.19673 -7.5613,-16.22657 0.3082,-1.24225 -0.12418,-3.5824 -0.96085,-5.20034 -0.83667,-1.61794 -1.47516,-4.87656 -1.41886,-7.24137 0.0955,-4.01003 0.15413,-4.09758 0.87082,-1.29966 1.16799,4.55972 3.35545,8.02438 5.02681,7.96186 0.825,-0.0309 3.52501,-0.40541 6,-0.83233 2.64663,-0.45652 5.592,-0.35978 7.15136,0.23488 3.53732,1.34894 5.82388,-1.14014 5.91893,-6.44315 0.0557,-3.10537 0.2491,-3.50513 0.92971,-1.92126 1.29454,3.01253 1.1025,7.78117 -0.39265,9.75083 -1.03421,1.36242 -1.08999,2.64646 -0.25144,5.78809 0.80931,3.03204 0.77466,4.52237 -0.13915,5.9856 -0.66922,1.07159 -1.21676,3.21785 -1.21676,4.76946 0,2.68968 -1.57075,3.89557 -8.99951,6.90904 -0.27526,0.11166 -2.50596,-0.89412 -4.95711,-2.23508 z m 6.95662,-3.90764 c 0,-2.62158 -2.76481,-3.86827 -3.89508,-1.75635 -1.21061,2.26206 -0.9283,2.70842 1.84518,2.91734 1.12746,0.0849 2.0499,-0.43752 2.0499,-1.16099 z m -4.5,-4.074 c 0,-1.51001 -0.77931,-2.06144 -3.25,-2.29966 -3.6272,-0.34973 -4.92221,3.21974 -1.5,4.13447 3.109,0.83101 4.75,0.19713 4.75,-1.83481 z m 10,0.0137 c 0,-1.34198 -0.77822,-2.11011 -2.36534,-2.33466 -2.92283,-0.41355 -4.41387,0.94347 -3.5397,3.22154 0.966,2.51733 5.90504,1.77553 5.90504,-0.88688 z m -105.265218,-21.764 -8.235965,-8.27897 8.507865,-8.46367 8.507865,-8.46367 8.235371,8.23537 8.23537,8.23537 -8.50727,8.50727 -8.507271,8.50727 z m 16.773678,-1.24451 7.458398,-7.50851 -7.733425,-7.73343 -7.733426,-7.73342 -7.733426,7.73342 -7.733425,7.73343 7.458398,7.50851 c 4.102119,4.12968 7.705923,7.50851 8.008453,7.50851 0.30253,0 3.906334,-3.37883 8.008453,-7.50851 z m 43.984907,1.00184 -8.463669,-8.50787 8.235369,-8.23537 8.235373,-8.23537 8.50727,8.50727 8.50727,8.50727 -8.27897,8.23596 -8.27897,8.23597 z m 16.015083,-1.00184 7.4584,-7.50851 -7.73342,-7.73343 -7.73342,-7.73342 -7.733433,7.73342 -7.733421,7.73343 7.458401,7.50851 c 4.102123,4.12968 7.705923,7.50851 8.008453,7.50851 0.30253,0 3.90632,-3.37883 8.00844,-7.50851 z M 9.9745784,277.60238 l -7.9609983,-8.00796 8.2344579,-8.23446 8.234459,-8.23446 8.234459,8.23446 8.234458,8.23446 -7.960998,8.00796 c -4.378549,4.40438 -8.207113,8.00797 -8.507919,8.00797 -0.300806,0 -4.12937,-3.60359 -8.5079186,-8.00797 z m 16.5163716,-0.50054 7.458398,-7.50851 -7.733425,-7.73343 -7.733426,-7.73342 -7.733426,7.73342 -7.7334248,7.73343 7.4583978,7.50851 c 4.102119,4.12968 7.705923,7.50851 8.008453,7.50851 0.30253,0 3.906334,-3.37883 8.008453,-7.50851 z m 42.483628,0.50054 -7.960998,-8.00796 8.234458,-8.23446 8.234459,-8.23446 8.234459,8.23446 8.234458,8.23446 -7.960998,8.00796 c -4.378549,4.40438 -8.207113,8.00797 -8.507919,8.00797 -0.300806,0 -4.12937,-3.60359 -8.507919,-8.00797 z m 16.516372,-0.50054 7.458398,-7.50851 -7.733425,-7.73343 -7.733426,-7.73342 -7.733426,7.73342 -7.733425,7.73343 7.458398,7.50851 c 4.102119,4.12968 7.705923,7.50851 8.008453,7.50851 0.30253,0 3.906334,-3.37883 8.008453,-7.50851 z m 42.48362,0.50054 -7.961,-8.00796 8.23446,-8.23446 8.23446,-8.23446 8.23447,8.23446 8.23446,8.23446 -7.961,8.00796 c -4.37856,4.40438 -8.20711,8.00797 -8.50793,8.00797 -0.30081,0 -4.12936,-3.60359 -8.50792,-8.00797 z m 16.51637,-0.50054 7.4584,-7.50851 -7.73342,-7.73343 -7.73343,-7.73342 -7.73342,7.73342 -7.73342,7.73343 7.4584,7.50851 c 4.10212,4.12968 7.70592,7.50851 8.00844,7.50851 0.30253,0 3.90633,-3.37883 8.00845,-7.50851 z m -105.781116,-29.76298 -8.228517,-8.27148 8.272081,-8.22911 8.272081,-8.22911 8.455745,8.4999 8.455745,8.4999 -7.953771,8.00069 c -9.564762,9.6212 -7.398993,9.65515 -17.273364,-0.27079 z m 16.781126,-0.23702 7.458398,-7.50851 -7.733425,-7.73343 -7.733426,-7.73342 -7.733426,7.73342 -7.733425,7.73343 7.458398,7.50851 c 4.102119,4.12968 7.705923,7.50851 8.008453,7.50851 0.30253,0 3.906334,-3.37883 8.008453,-7.50851 z m 43.490857,0.50781 -7.953772,-8.00069 8.455742,-8.4999 8.455753,-8.4999 8.27208,8.22911 8.27208,8.22911 -8.22852,8.27148 c -9.87437,9.92594 -7.7086,9.89199 -17.273363,0.27079 z m 16.509143,-0.50781 7.4584,-7.50851 -7.73342,-7.73343 -7.73343,-7.73342 -7.733433,7.73342 -7.733421,7.73343 7.458401,7.50851 c 4.102123,4.12968 7.705923,7.50851 8.008453,7.50851 0.30253,0 3.90632,-3.37883 8.00845,-7.50851 z m 9.72052,-14.60653 c -0.97407,-0.55434 -1.4925,-1.45858 -1.15204,-2.00943 1.13871,-1.84247 -2.61349,-4.92633 -4.66081,-3.83064 -1.42961,0.7651 -2.07055,0.53507 -2.91726,-1.04701 -0.85645,-1.6003 -0.75993,-2.15233 0.45802,-2.61971 2.27553,-0.8732 1.94578,-5.11559 -0.45689,-5.87817 -2.2015,-0.69873 -2.40211,-1.31678 -1.09649,-3.37812 0.4801,-0.75796 1.39291,-1.05672 2.0285,-0.66391 2.01796,1.24717 4.21306,-1.52103 3.56085,-4.49052 -0.6938,-3.1588 1.62846,-4.73114 3.55647,-2.40801 1.69872,2.04682 4.69714,1.7828 5.93075,-0.5222 1.2395,-2.31603 4.01992,-1.66081 4.01992,0.9473 0,2.44779 2.51476,4.30425 4.83359,3.56828 2.47958,-0.78699 3.82304,2.23627 1.69939,3.82423 -1.80165,1.34719 -0.97763,5.62295 1.08365,5.62295 0.76085,0 1.38337,0.9 1.38337,2 0,1.4392 -0.66667,2 -2.37755,2 -3.00242,0 -4.69883,1.99193 -3.99347,4.68918 0.7065,2.70166 -1.28133,3.90589 -3.44198,2.08516 -2.11941,-1.78597 -4.65761,-1.25254 -5.8056,1.2201 -0.6854,1.47627 -1.27521,1.67428 -2.65242,0.89052 z m 7.81648,-10.33951 c 5.60283,-5.60282 -1.8377,-13.21089 -7.71671,-7.89046 -3.82603,3.46251 -1.1065,9.71293 4.46671,10.26606 0.4375,0.0434 1.9,-1.0256 3.25,-2.3756 z m -105.545453,9.57699 c 0,-1.30341 2.582838,-3.20627 3.333333,-2.45577 0.750495,0.75049 -1.152368,3.33333 -2.455778,3.33333 -0.482655,0 -0.877555,-0.3949 -0.877555,-0.87756 z m -6.956979,-1.85371 c -0.882994,-0.3475 0.298872,-1.09832 3,-1.90588 6.416132,-1.91821 7.959734,-1.71515 5.096195,0.67042 -2.317324,1.93052 -5.208809,2.37176 -8.096195,1.23546 z m 10.660789,-3.16064 c -1.65748,-3.3225 -1.525647,-5.35031 0.673095,-10.35335 1.298312,-2.95419 1.399002,-4.14071 0.476712,-5.61753 -0.672944,-1.07755 -0.840615,-2.67133 -0.395013,-3.75474 0.677679,-1.64768 0.900009,-1.5083 1.782581,1.11753 0.554584,1.65 2.077192,4.14962 3.383575,5.55472 3.028372,3.2572 2.991906,3.57503 -0.62476,5.44528 -2.960069,1.53071 -4.031351,4.74456 -2,6 1.481231,0.91545 1.212194,3.2046 -0.451667,3.84308 -0.917578,0.35211 -1.96412,-0.47018 -2.844523,-2.23499 z m -12.381189,0.18336 c -2.283634,-0.4316 -4.976966,-2.97044 -4.091038,-3.85637 0.801122,-0.80112 13.768417,0.73934 13.768417,1.63563 0,0.74111 -2.502987,1.72567 -6,2.36012 -0.825,0.14968 -2.479821,0.087 -3.677379,-0.13938 z m 50.16946,-8.29942 -7.960998,-8.00796 8.234458,-8.23446 8.234459,-8.23446 8.234459,8.23446 8.234458,8.23446 -7.960998,8.00796 c -4.378549,4.40438 -8.207113,8.00797 -8.507919,8.00797 -0.300806,0 -4.12937,-3.60359 -8.507919,-8.00797 z m 16.516372,-0.50054 7.458398,-7.50851 -7.733425,-7.73343 -7.733426,-7.73342 -7.733426,7.73342 -7.733425,7.73343 7.458398,7.50851 c 4.102119,4.12968 7.705923,7.50851 8.008453,7.50851 0.30253,0 3.906334,-3.37883 8.008453,-7.50851 z m -67.630151,3.07159 c -2.938584,-1.27894 -6.823942,-5.45077 -5.919144,-6.35557 0.227236,-0.22724 2.804385,0.69828 5.726999,2.05671 2.922614,1.35843 6.551343,2.76328 8.063843,3.12188 1.5125,0.3586 2.75,1.09343 2.75,1.63295 0,1.42765 -6.982479,1.1279 -10.621698,-0.45597 z m 6.621698,-2.49821 c -7.996463,-2.44123 -14,-7.31494 -14,-11.3653 0,-1.53866 0.699037,-1.25707 4.094703,1.6495 2.252086,1.9277 6.526017,4.77526 9.497624,6.32792 7.03428,3.67539 7.251084,5.4771 0.407673,3.38788 z m -2.662427,-5.92508 c -7.329764,-4.73746 -10.354226,-8.42048 -10.285121,-12.52465 l 0.05245,-3.11514 1.662335,2.5 c 2.533317,3.80988 9.240883,9.89629 13.982974,12.68808 3.967048,2.33551 4.813093,4.31192 1.845806,4.31192 -0.70727,0 -3.973571,-1.7371 -7.258446,-3.86021 z m 5.144562,-1.7752 C 17.207013,204.51726 12.461266,198.25605 12.514177,191.91001 l 0.03168,-3.79966 2.139193,3 c 1.176555,1.65 5.09712,5.925 8.712366,9.5 9.298031,9.19452 11.509897,15.62112 3.567216,10.36459 z m 116.206918,-1.44565 c -0.41897,-1.60214 -1.19373,-2.00487 -3.36663,-1.75 -2.56561,0.30094 -2.79508,0.0735 -2.52196,-2.49937 0.22878,-2.15525 -0.18866,-2.95833 -1.75,-3.36663 -2.29239,-0.59947 -2.83051,-3.30294 -0.65745,-3.30294 1.80341,0 2.6256,-2.21279 1.88066,-5.06148 -0.50965,-1.94891 -0.28407,-2.1745 1.66485,-1.66485 2.84868,0.74495 5.06147,-0.0772 5.06147,-1.88066 0,-2.17306 2.70348,-1.63494 3.30295,0.65745 0.4083,1.56134 1.21137,1.97878 3.36663,1.75 2.57288,-0.27312 2.8003,-0.0437 2.49936,2.52196 -0.25487,2.1729 0.14786,2.94766 1.75,3.36663 2.67139,0.69859 2.69018,2.9184 0.0306,3.61389 -1.56134,0.4083 -1.97878,1.21138 -1.75,3.36663 0.27312,2.57289 0.0436,2.80031 -2.52196,2.49937 -2.1729,-0.25487 -2.94766,0.14786 -3.36663,1.75 -0.29932,1.14458 -1.11424,2.08106 -1.81095,2.08106 -0.6967,0 -1.51162,-0.93648 -1.81094,-2.08106 z m 4.37669,-5.95412 c 3.74678,-2.00522 1.82698,-7.96482 -2.56575,-7.96482 -2.68046,0 -4.5,1.81954 -4.5,4.5 0,3.95323 3.21101,5.52781 7.06575,3.46482 z"
     id="path157"
     inkscape:connector-curvature="0" />
  <path
     style="fill:#000000"
     d="m 189.65757,158.62539 c -1.94707,-2.07256 -2.06452,-2.50561 -0.67958,-2.50561 1.39935,0 1.67431,-1.10162 1.67431,-6.70821 v -6.70821 l -4.501,4.4174 c -3.21811,3.15834 -4.33265,4.94777 -3.91038,6.27825 0.50717,1.59793 0.11875,1.81564 -2.749,1.54081 -2.97817,-0.2854 -3.37426,-0.68149 -3.65966,-3.65966 -0.27482,-2.86775 -0.0571,-3.25617 1.54081,-2.749 1.33048,0.42227 3.11991,-0.69227 6.27825,-3.91038 l 4.4174,-4.501 h -6.63489 c -5.25782,0 -6.70199,0.32949 -6.95821,1.58753 -0.26301,1.29143 -0.74403,1.13841 -2.57893,-0.82042 l -2.2556,-2.40795 2.5056,-2.35389 c 2.07256,-1.94707 2.50561,-2.06452 2.50561,-0.67958 0,1.39935 1.10162,1.67431 6.70821,1.67431 h 6.70821 l -4.4174,-4.501 c -3.15834,-3.21811 -4.94777,-4.33265 -6.27825,-3.91038 -1.59793,0.50717 -1.81563,0.11875 -1.54081,-2.749 0.2854,-2.97817 0.68149,-3.37426 3.65966,-3.65966 2.86775,-0.27483 3.25617,-0.0571 2.749,1.54081 -0.42227,1.33048 0.69227,3.11991 3.91038,6.27825 l 4.501,4.4174 v -6.63489 c 0,-5.25782 -0.32949,-6.70199 -1.58753,-6.95821 -1.29143,-0.26301 -1.13841,-0.74403 0.82042,-2.57893 l 2.40795,-2.2556 2.35389,2.5056 c 1.94706,2.07256 2.06452,2.50561 0.67958,2.50561 -1.39935,0 -1.67431,1.10162 -1.67431,6.70821 v 6.70821 l 4.50099,-4.4174 c 3.21812,-3.15834 4.33266,-4.94777 3.91039,-6.27825 -0.50717,-1.59793 -0.11875,-1.81564 2.749,-1.54081 2.97817,0.2854 3.37426,0.68149 3.65966,3.65966 0.27482,2.86775 0.0571,3.25617 -1.54081,2.749 -1.33048,-0.42227 -3.11991,0.69227 -6.27825,3.91038 l -4.4174,4.501 h 6.70821 c 5.60658,0 6.70821,-0.27496 6.70821,-1.67431 0,-1.38494 0.43305,-1.26749 2.50561,0.67958 l 2.5056,2.35389 -2.2556,2.40795 c -1.8349,1.95883 -2.31592,2.11185 -2.57893,0.82042 -0.25622,-1.25804 -1.70039,-1.58753 -6.95821,-1.58753 h -6.63489 l 4.4174,4.501 c 3.15834,3.21811 4.94777,4.33265 6.27825,3.91038 1.59793,-0.50717 1.81563,-0.11875 1.54081,2.749 -0.2854,2.97817 -0.68149,3.37426 -3.65966,3.65966 -2.86775,0.27483 -3.25617,0.0571 -2.749,-1.54081 0.42227,-1.33048 -0.69227,-3.11991 -3.91039,-6.27825 l -4.50099,-4.4174 v 6.63489 c 0,5.25782 0.32949,6.70199 1.58753,6.95821 1.29143,0.26301 1.13841,0.74403 -0.82042,2.57893 l -2.40795,2.2556 z m 113.24473,-1.62066 c -2.58793,-1.65735 -3.25,-2.75255 -3.25,-5.37616 0,-2.00623 -0.58664,-3.51993 -1.5,-3.87042 -0.8678,-0.333 -1.5,-1.82835 -1.5,-3.54797 0,-1.6348 -0.50163,-3.28239 -1.11474,-3.66132 -0.67873,-0.41947 -0.93609,-2.54832 -0.65797,-5.44271 0.34359,-3.5758 0.006,-5.34011 -1.36302,-7.12006 -2.20286,-2.86442 -2.40745,-8.7659 -0.39607,-11.42518 1.36841,-1.8092 1.47035,-1.66145 1.5,2.17401 0.0473,6.12574 3.08759,9.60997 7.14978,8.19389 1.68755,-0.58829 5.478,-0.82091 8.42321,-0.51693 l 5.35494,0.55267 1.14701,-3.47549 c 0.63086,-1.91152 0.87233,-4.6891 0.5366,-6.17239 -0.581,-2.56691 -0.53738,-2.60334 0.90492,-0.75576 1.76359,2.25914 2.04169,10.63252 0.4074,12.26681 -0.81058,0.81058 -0.78455,2.08778 0.097,4.75881 0.95787,2.90234 0.93858,4.29382 -0.0941,6.78681 -0.71442,1.72477 -1.21414,4.16073 -1.11047,5.41324 0.11463,1.38507 -0.58982,2.69383 -1.79801,3.34043 -1.29026,0.69053 -1.98649,2.09326 -1.98649,4.00227 0,2.2433 -0.69849,3.30034 -2.95034,4.46482 -3.72848,1.92807 -3.88748,1.91606 -7.79966,-0.58937 z m 7.90943,-3.97027 c 1.01231,-0.54178 1.84057,-1.50921 1.84057,-2.14986 0,-0.86688 -0.30694,-0.85788 -1.2,0.0352 -1.67377,1.67377 -5.93137,1.49671 -8.57749,-0.3567 -1.22238,-0.85621 -2.22251,-1.10673 -2.22251,-0.55673 0,2.8256 6.76833,4.84295 10.15943,3.02809 z m -2.34482,-7.17127 c 1.4653,0.54864 1.50736,0.41215 0.32208,-1.04517 -1.57325,-1.93436 -3.17278,-1.3533 -3.05774,1.11078 0.0442,0.9472 0.29256,1.16587 0.56461,0.49716 0.26711,-0.65661 1.24408,-0.90985 2.17105,-0.56277 z m 5.973,-3.87907 c 0.36559,-1.89834 -1.90752,-3.0263 -3.77401,-1.87274 -1.81505,1.12175 -0.41337,4.23204 1.72189,3.82082 0.95785,-0.18446 1.8813,-1.0611 2.05212,-1.94808 z m -9.28761,-0.86434 c 0,-0.96136 -1.16705,-1.61252 -3.25,-1.81336 -3.4722,-0.33478 -3.58881,-0.23314 -2.62225,2.28567 0.80063,2.08641 5.87225,1.67849 5.87225,-0.47231 z m -65.50745,7.49251 -8.46329,-8.50748 8.73537,-8.73537 8.73537,-8.73537 8.73537,8.73537 8.73537,8.73537 -8.46329,8.50748 c -4.65481,4.67912 -8.70816,8.50749 -9.00745,8.50749 -0.29929,0 -4.35264,-3.82837 -9.00745,-8.50749 z m 17.0159,-1.00102 7.4584,-7.50851 -7.73342,-7.73343 -7.73343,-7.73342 -7.73343,7.73342 -7.73342,7.73343 7.4584,7.50851 c 4.10212,4.12968 7.70592,7.50851 8.00845,7.50851 0.30253,0 3.90633,-3.37883 8.00845,-7.50851 z m -47.0159,-27.99898 -8.46329,-8.50748 8.73537,-8.73537 8.73537,-8.735363 8.73537,8.735363 8.73537,8.73537 -8.46329,8.50748 c -4.65481,4.67912 -8.70816,8.50749 -9.00745,8.50749 -0.29929,0 -4.35264,-3.82837 -9.00745,-8.50749 z m 17.0159,-1.00102 7.4584,-7.50851 -7.73342,-7.73343 -7.73343,-7.73341 -7.73343,7.73341 -7.73342,7.73343 7.4584,7.50851 c 4.10212,4.12968 7.70592,7.50851 8.00845,7.50851 0.30253,0 3.90633,-3.37883 8.00845,-7.50851 z m 42.9841,1.00102 -8.46329,-8.50748 8.73537,-8.73537 8.73537,-8.735363 8.73537,8.735363 8.73537,8.73537 -8.46329,8.50748 c -4.65481,4.67912 -8.70816,8.50749 -9.00745,8.50749 -0.29929,0 -4.35264,-3.82837 -9.00745,-8.50749 z m 17.0159,-1.00102 7.4584,-7.50851 -7.73342,-7.73343 -7.73343,-7.73341 -7.73343,7.73341 -7.73342,7.73343 7.4584,7.50851 c 4.10212,4.12968 7.70592,7.50851 8.00845,7.50851 0.30253,0 3.90633,-3.37883 8.00845,-7.50851 z m -106.0159,-28.998966 -8.46329,-8.507487 8.73537,-8.73537 8.73537,-8.73537 8.73537,8.73537 8.73537,8.73537 -8.46329,8.507487 c -4.65481,4.679118 -8.70816,8.507487 -9.00745,8.507487 -0.29929,0 -4.35264,-3.828369 -9.00745,-8.507487 z m 17.0159,-1.001023 7.4584,-7.50851 -7.73342,-7.733425 -7.73343,-7.733426 -7.73343,7.733426 -7.73342,7.733425 7.4584,7.50851 c 4.10212,4.129681 7.70592,7.50851 8.00845,7.50851 0.30253,0 3.90633,-3.378829 8.00845,-7.50851 z m 41.9841,1.001023 -8.46329,-8.507487 8.73537,-8.73537 8.73537,-8.73537 8.73537,8.73537 8.73537,8.73537 -8.46329,8.507487 c -4.65481,4.679118 -8.70816,8.507487 -9.00745,8.507487 -0.29929,0 -4.35264,-3.828369 -9.00745,-8.507487 z m 17.0159,-1.001023 7.4584,-7.50851 -7.73342,-7.733425 -7.73343,-7.733426 -7.73343,7.733426 -7.73342,7.733425 7.4584,7.50851 c 4.10212,4.129681 7.70592,7.50851 8.00845,7.50851 0.30253,0 3.90633,-3.378829 8.00845,-7.50851 z m 41.9841,1.001023 -8.46329,-8.507487 8.73537,-8.73537 8.73537,-8.73537 8.73537,8.73537 8.73537,8.73537 -8.46329,8.507487 c -4.65481,4.679118 -8.70816,8.507487 -9.00745,8.507487 -0.29929,0 -4.35264,-3.828369 -9.00745,-8.507487 z m 17.0159,-1.001023 7.4584,-7.50851 -7.73342,-7.733425 -7.73343,-7.733426 -7.73343,7.733426 -7.73342,7.733425 7.4584,7.50851 c 4.10212,4.129681 7.70592,7.50851 8.00845,7.50851 0.30253,0 3.90633,-3.378829 8.00845,-7.50851 z m -106.0159,-28.998977 -8.46329,-8.507487 8.73537,-8.73537 8.73537,-8.73537 8.73537,8.73537 8.73537,8.73537 -8.46329,8.507487 c -4.65481,4.679118 -8.70816,8.507487 -9.00745,8.507487 -0.29929,0 -4.35264,-3.828369 -9.00745,-8.507487 z m 17.0159,-1.001023 7.4584,-7.50851 -7.73342,-7.733425 -7.73343,-7.733426 -7.73343,7.733426 -7.73342,7.733425 7.4584,7.50851 c 4.10212,4.129681 7.70592,7.50851 8.00845,7.50851 0.30253,0 3.90633,-3.378829 8.00845,-7.50851 z m 42.9841,1.001023 -8.46329,-8.507487 8.73537,-8.73537 8.73537,-8.73537 8.73537,8.73537 8.73537,8.73537 -8.46329,8.507487 c -10.16067,10.213723 -7.85423,10.213723 -18.0149,0 z m 17.0159,-1.001023 7.4584,-7.50851 -7.73342,-7.733425 -7.73343,-7.733426 -7.73343,7.733426 -7.73342,7.733425 7.4584,7.50851 c 4.10212,4.129681 7.70592,7.50851 8.00845,7.50851 0.30253,0 3.90633,-3.378829 8.00845,-7.50851 z M 295.9023,44.45751 c -0.6875,-0.277412 -1.25,-1.543741 -1.25,-2.814064 0,-2.567038 -1.797,-3.651008 -4.76564,-2.87469 -2.53002,0.661613 -3.78567,-2.358666 -1.88896,-4.543583 1.53828,-1.772022 1.09816,-4.169996 -0.99203,-5.405072 -2.36424,-1.397004 -1.64446,-4.70031 1.02419,-4.70031 2.9667,0 4.82582,-2.05289 3.62244,-4 -1.01077,-1.635459 0.51008,-4 2.57275,-4 0.73033,0 1.68773,0.620232 2.12756,1.378293 0.92251,1.589983 5.29969,0.420779 5.29969,-1.41562 0,-0.605976 1.0125,-0.957759 2.25,-0.78174 1.53037,0.217677 2.19508,0.9426 2.07828,2.266547 -0.20541,2.328307 2.36289,4.446042 4.66262,3.844649 2.52709,-0.660849 4.423,2.119472 2.52143,3.697637 -2.16546,1.79717 -1.86525,4.763446 0.55999,5.533188 1.30903,0.415471 1.86152,1.207067 1.5,2.149175 -0.31478,0.820295 -0.57232,1.957126 -0.57232,2.52629 0,0.569164 -0.88345,0.803815 -1.96323,0.521447 -2.48668,-0.650282 -4.39442,1.577918 -3.57133,4.171243 0.8177,2.576357 -3.1327,5.139571 -4.08727,2.652015 -0.87687,-2.285093 -5.0386,-1.949626 -5.66792,0.456876 -0.52695,2.015078 -1.16769,2.262786 -3.46025,1.337719 z m 7.54826,-13.925224 c 0.36402,-2.547789 -1.9553,-4.673201 -4.17151,-3.822759 -1.63395,0.627005 -2.24227,4.461411 -0.9179,5.78578 1.41135,1.411354 4.79368,0.106765 5.08941,-1.963021 z m -3.98576,-5.271048 c 1.72994,-0.63311 2.06397,-1.011681 0.9375,-1.0625 -2.25861,-0.101892 -5.77294,3.412441 -5.67105,5.671053 0.0508,1.126471 0.42939,0.792438 1.0625,-0.9375 0.54177,-1.480373 2.19068,-3.129276 3.67105,-3.671053 z M 195.28971,43.09021 c -1.57443,-0.471722 -3.59943,-1.537155 -4.5,-2.36763 -0.90058,-0.830474 -2.64991,-2.430841 -3.88741,-3.556371 -2.57776,-2.344522 -2.91232,-4.046418 -0.79546,-4.046418 0.98538,0 0.62997,-0.82458 -1.10187,-2.556422 -1.51003,-1.51003 -2.36467,-3.289698 -2.08795,-4.347875 0.25766,-0.985299 -0.13055,-2.872409 -0.86269,-4.193578 -1.85121,-3.340574 -1.76215,-5.254295 0.20931,-4.497773 1.24707,0.478546 1.43615,0.220149 0.83637,-1.143011 -0.42624,-0.968738 -0.70126,-2.886341 -0.61115,-4.261341 0.0901,-1.375 0.15153,-4.2056463 0.13651,-6.290324 -0.0452,-6.27093341 1.34673,-7.5463267 3.83748,-3.5162047 3.56359,5.7660006 15.12468,16.2713007 16.44908,14.9468997 1.82418,-1.82418 2.74037,-1.334294 2.74037,1.465273 0,1.433104 1.125,3.942631 2.5,5.576725 2.99192,3.555696 3.17158,5.469706 0.5903,6.288969 -2.98761,0.948233 -4.6414,3.377564 -3.24792,4.771044 1.94347,1.943473 1.30458,4.272852 -1.80189,6.56956 -3.18881,2.357589 -4.01894,2.472033 -8.40308,1.158477 z m 44.35514,-12.477906 -8.46329,-8.507487 8.73537,-8.73537 8.73537,-8.7353712 8.73537,8.7353712 8.73537,8.73537 -8.46329,8.507487 c -10.16067,10.213723 -7.85423,10.213723 -18.0149,0 z m 17.0159,-1.001023 7.4584,-7.50851 -7.73342,-7.733425 -7.73343,-7.7334269 -7.73343,7.7334269 -7.73342,7.733425 7.4584,7.50851 c 4.10212,4.129681 7.70592,7.50851 8.00845,7.50851 0.30253,0 3.90633,-3.378829 8.00845,-7.50851 z m 56.82808,-8.778803 c -1.32031,-1.756219 -1.92397,-1.959726 -2.92621,-0.986481 -1.82171,1.769016 -4.18824,-0.338397 -2.95908,-2.635093 1.04682,-1.956005 0.29526,-3.461676 -2.18438,-4.3762 -1.94324,-0.716691 -1.35154,-3.7149139 0.73314,-3.7149139 1.64676,0 2.73089,-2.7392664 1.40777,-3.5570027 -1.71714,-1.061252 0.97554,-3.2862725 3.25547,-2.6900589 1.33523,0.3491706 2.42302,-0.049144 3.01292,-1.1032345 1.17837,-2.10562703 3.42751,-2.12490623 4.229,-0.03625 0.41636,1.0850062 1.33505,1.4262391 2.80496,1.0418508 2.87524,-0.7518945 5.23124,1.1079647 3.71612,2.9335693 -1.29584,1.56139 -0.41044,3.411126 1.63278,3.411126 0.79254,0 1.44098,0.9000009 1.44098,2.0000009 0,1.1 -0.62686,2 -1.39301,2 -1.82908,0 -2.9128,2.926599 -1.64804,4.450542 1.5325,1.846549 -0.873,3.865676 -2.74977,2.308097 -1.15232,-0.956338 -1.79556,-0.752711 -3.23409,1.023794 -2.22291,2.745183 -3.03057,2.73422 -5.13856,-0.06975 z m 5.20504,-9.129354 C 318.27,10.557291 317.12629,9.6197906 316.1523,9.6197906 c -0.97399,0 -2.1177,0.9375004 -2.54157,2.0833334 -0.68321,1.846908 -0.39479,2.083334 2.54157,2.083334 2.93636,0 3.22478,-0.236426 2.54157,-2.083334 z"
     id="path139"
     inkscape:connector-curvature="0" />
</svg>
