<?xml version="1.0" encoding="UTF-8" standalone="no"?>
<!-- Created with Inkscape (http://www.inkscape.org/) -->

<svg
   xmlns:dc="http://purl.org/dc/elements/1.1/"
   xmlns:cc="http://creativecommons.org/ns#"
   xmlns:rdf="http://www.w3.org/1999/02/22-rdf-syntax-ns#"
   xmlns:svg="http://www.w3.org/2000/svg"
   xmlns="http://www.w3.org/2000/svg"
   xmlns:sodipodi="http://sodipodi.sourceforge.net/DTD/sodipodi-0.dtd"
   xmlns:inkscape="http://www.inkscape.org/namespaces/inkscape"
   version="1.1"
   id="svg1534"
   width="355.49365"
   height="446.08813"
   viewBox="0 0 355.49365 446.08813"
   sodipodi:docname="backpack.svg"
   inkscape:version="0.92.3 (2405546, 2018-03-11)">
  <metadata
     id="metadata1540">
    <rdf:RDF>
      <cc:Work
         rdf:about="">
        <dc:format>image/svg+xml</dc:format>
        <dc:type
           rdf:resource="http://purl.org/dc/dcmitype/StillImage" />
        <dc:title></dc:title>
      </cc:Work>
    </rdf:RDF>
  </metadata>
  <defs
     id="defs1538" />
  <sodipodi:namedview
     pagecolor="#ffffff"
     bordercolor="#666666"
     borderopacity="1"
     objecttolerance="10"
     gridtolerance="10"
     guidetolerance="10"
     inkscape:pageopacity="0"
     inkscape:pageshadow="2"
     inkscape:window-width="1920"
     inkscape:window-height="983"
     id="namedview1536"
     showgrid="false"
     inkscape:zoom="2.1118568"
     inkscape:cx="270.62068"
     inkscape:cy="290.04809"
     inkscape:window-x="0"
     inkscape:window-y="27"
     inkscape:window-maximized="1"
     inkscape:current-layer="svg1534" />
  <path
     style="fill:#000000"
     d="m 2.9327525,443.14057 c -1.83669,-1.67755 -3.14370999,-3.24581 -2.90450999,-3.48502 0.23921,-0.2392 1.95493999,1.13334 3.81273999,3.0501 4.16537,4.29758 3.61132,4.56289 -0.90823,0.43492 z m 81.7861605,-3.3041 c -6.98611,-2.87383 -10.3523,-5.25127 -15.79408,-11.1549 -6.49277,-7.04383 -9.48249,-14.342 -9.93035,-24.2409 l -0.37325,-8.25 h 3.9657 3.96571 l 0.51286,6.38916 c 1.00061,12.46549 8.4022,23.20687 19.613,28.46288 l 5.64796,2.64796 h 88.499997 88.5 l 5.70236,-2.80008 c 11.02288,-5.41267 18.79764,-17.50536 18.79764,-29.23743 v -5.46249 h 4.64434 4.64434 l -0.55071,7.25 c -1.00679,13.25435 -6.6992,23.78096 -16.93438,31.31567 -10.61879,7.81711 -5.19873,7.43724 -105.73509,7.41059 l -89.568497,-0.0237 z m -25.89245,-63.6458 v -19 h -16.54966 c -18.22864,0 -20.35301,-0.52121 -25.95034,-6.36689 l -3,-3.13311 -0.30457,-21.8064 c -0.25035,-17.92506 -0.0122,-22.8122 1.3382,-27.45729 2.69133,-9.25784 6.35403,-15.35945 13.35892,-22.25432 8.09347,-7.96635 15.74396,-11.86628 28.35745,-14.45558 1.95664,-0.40165 2.75,-1.1755 2.75,-2.68237 0,-1.99163 -0.38422,-2.08702 -6.4461,-1.60043 -7.543,0.60548 -17.34508,4.81252 -24.08982,10.33934 -5.21053,4.26963 -11.38637,13.12152 -13.38964,19.19147 -1.52954,4.63458 -4.85547,6.48213 -7.5874305,4.2148 -2.31644,-1.92248 -1.78824,-5.11839 2.14553,-12.98153 4.9439805,-9.88244 13.6784605,-18.62653 22.8674605,-22.89263 7.72429,-3.5861 16.99931,-6.07753 22.70993,-6.10028 l 3.70994,-0.0148 0.29006,-43.2893 0.29007,-43.2893 3.0795,-6.2107 c 1.69373,-3.41589 2.96863,-6.2107 2.83311,-6.2107 -0.13551,0 -5.27119,1.8 -11.41261,4 -11.63518,4.16799 -14.83422,4.69427 -18.05539,2.97036 -4.65309,-2.49026 -4.94461,-4.81442 -4.94461,-39.42071 V 85.190644 h -5.46482 c -4.18206,0 -5.68475,-0.410961 -6.4018,-1.750778 -0.63624,-1.188817 -10e-4,-6.86279 1.97795,-17.677125 1.60322,-8.75949 4.65728,-25.746645 6.7868,-37.749232 2.25303,-12.698685 4.56896,-22.886799 5.53916,-24.36751 3.55311,-5.422725 3.60862,-5.411566 44.79338,9.003259 37.534707,13.137295 38.307717,13.358711 40.269327,11.534513 6.57836,-6.117552 19.3607,-4.894515 22.78714,2.180314 0.87399,1.804608 1.74393,2.585298 2.14954,1.929016 1.01179,-1.637117 77.72294,-1.542833 79.36332,0.09754 0.93333,0.933333 1.2,0.749848 1.2,-0.825686 0,-3.761106 4.46018,-6.707647 10.85336,-7.170088 5.83096,-0.42177 12.14664,1.565206 12.14664,3.821457 0,2.116895 5.09146,0.493105 37.86844,-12.077168 32.72588,-12.55067497 34.14054,-12.99522797 36.86702,-11.58531297 3.83735,1.98437397 5.05801,4.64709497 6.70988,14.63680097 0.77304,4.675 3.2668,18.85 5.54169,31.5 6.26823,34.855894 6.32714,35.238892 5.67987,36.925673 -0.44893,1.169879 -2.02515,1.574327 -6.13552,1.574327 h -5.53138 v 31.532116 c 0,25.86475 -0.27151,32.18193 -1.51061,35.14752 -3.42576,8.199 -7.19485,8.18083 -26.77392,-0.12907 l -3.78453,-1.60626 1.92422,3.77785 c 4.92208,9.66358 5.14484,12.0649 5.14484,55.45935 v 40.8185 l 4.75,0.0119 c 7.32544,0.0183 14.22951,2.12648 26.98844,8.24098 4.79219,2.29658 13.39453,12.30971 17.35866,20.20549 4.11688,8.20002 4.61796,12.07961 1.78882,13.84995 -2.79036,1.74606 -4.56455,0.0697 -8.42838,-7.96351 -6.66121,-13.84921 -19.02321,-23.60737 -33.34836,-26.32407 -8.07059,-1.53059 -9.10918,-1.37676 -9.10918,1.34915 0,2.09625 0.68638,2.50494 5.94435,3.53938 15.00187,2.95144 28.77557,14.01407 35.82185,28.77104 l 3.7338,7.81969 0.31501,23.70182 0.315,23.70182 -4.17773,4.5323 c -2.5369,2.75222 -5.60628,4.9291 -7.815,5.5426 -2.00051,0.55567 -10.49978,1.01282 -18.88728,1.01588 l -15.25,0.006 v 18.5 18.5 h -4.5 -4.5 l -7.9e-4,-114.25 -7.9e-4,-114.25 -2.84846,-6 c -3.14249,-6.61933 -9.49756,-13.09196 -16.30055,-16.60208 -3.39536,-1.7519 -6.70759,-2.37069 -15.10014,-2.82104 l -10.75074,-0.57689 7.4e-4,32.66822 c 4e-4,17.96752 -0.2788,33.39666 -0.62045,34.28699 -1.50949,3.93365 -12.36449,6.38171 -12.39247,2.7948 -0.008,-0.9625 -0.285,-2.7625 -0.61664,-4 -0.51285,-1.9137 -0.21188,-2.25 2.01366,-2.25 h 2.61663 V 116.13029 28.069933 l -3.75,0.310366 -3.75,0.310365 -0.25547,87.134796 -0.25547,87.13481 -2.24453,0.60154 c -6.1255,1.64167 -5.74455,3.70555 -5.74437,-31.12114 l 1.6e-4,-31.75001 H 182.8268 141.82682 l -1.8e-4,26.75001 -1.8e-4,26.75 h -4.5 -4.5 V 111.19066 28.190664 h -4 -4 v 88.999996 c 0,88.33334 0.015,89.00001 2,89.00001 1.55556,0 2,0.66667 2,3 0,2.54891 -0.38337,3 -2.54966,3 -3.26178,0 -8.02628,-2.45252 -8.82916,-4.5448 -0.34165,-0.89033 -0.62063,-16.31947 -0.61995,-34.28699 l 10e-4,-32.66822 -11.25123,0.29598 c -12.594627,0.33132 -17.567057,1.60519 -24.271657,6.21808 -5.58574,3.8431 -9.73972,9.3926 -12.44708,16.62864 -1.99904,5.34354 -2.03226,7.27879 -2.03226,118.39482 v 112.96249 h -4 -4 z m 0,-66.61129 v -39.61129 l -3.75,0.67159 c -10.03877,1.79787 -21.29863,9.37978 -27.2312,18.33632 -5.70421,8.61178 -7.0188,15.23638 -7.0188,35.36967 0,18.22455 0.79965,22.79593 4.22896,24.17571 0.69907,0.28127 8.58354,0.54692 17.52104,0.59034 l 16.25,0.0789 z m 279.595007,37.50905 c 1.70138,-1.87754 1.93835,-4.07186 2.21715,-20.53025 0.34059,-20.10615 -0.4845,-25.24004 -5.56531,-34.62833 -5.26228,-9.72363 -17.58445,-18.66704 -27.99685,-20.32008 l -4.25,-0.67472 v 39.12781 39.12781 h 16.84501 c 15.84731,0 16.95784,-0.12451 18.75,-2.10224 z M 62.785383,132.27224 c 8.18056,-8.01987 22.35936,-21.89408 31.50846,-30.83158 L 110.92856,85.190664 H 100.79702 90.665473 l -25.91951,25.231636 -25.9195,25.23163 0.0136,5.01837 c 0.007,2.7601 0.27152,5.97935 0.58669,7.15387 1.14461,4.26559 7.37108,0.11954 23.35858,-15.55393 z m 256.041077,8.19731 v -8.72111 l -6.47266,6.41512 c -3.55996,3.52832 -6.37109,6.51668 -6.24697,6.6408 0.59008,0.59008 10.37033,4.28382 11.46963,4.33178 0.90861,0.0396 1.25,-2.32728 1.25,-8.66659 z m -10.76633,-10.01184 10.76633,-10.73294 v -9.38395 -9.38395 L 300.80103,118.215 c -9.91398,9.49198 -17.76242,17.52114 -17.44098,17.84258 0.71598,0.71598 11.58428,4.96476 12.95008,5.06261 0.54102,0.0388 5.82852,-4.75936 11.75,-10.66248 z m -224.733667,4.24797 c 13.32065,-4.57999 14.29839,-5.10336 20.149167,-10.78547 5.59487,-5.43358 6.47376,-5.93401 9.75,-5.55153 l 3.60083,0.42038 V 105.2061 91.623146 l -14.25,13.963454 c -7.837497,7.6799 -19.039487,18.63732 -24.893307,24.34981 -5.85382,5.71249 -10.12882,10.20555 -9.5,9.98459 0.62882,-0.22096 7.44331,-2.56786 15.14331,-5.21532 z m 33.499997,-2.07404 c 0,-0.85746 -0.45734,-1.27636 -1.01631,-0.9309 -0.55897,0.34546 -0.75742,1.04702 -0.44098,1.55902 0.85723,1.38704 1.45729,1.12841 1.45729,-0.62812 z m 66,-0.44098 c 28.68889,0 38.90812,0.30812 39.8,1.2 0.93333,0.93333 1.2,0.46168 1.2,-2.12244 0,-2.71138 -0.25379,-3.11182 -1.3799,-2.17724 -0.99789,0.82818 -12.34809,1.06971 -41.00035,0.87245 l -39.62046,-0.27277 3.5e-4,2.45 c 2.8e-4,1.90556 0.26703,2.18333 1.20036,1.25 0.89188,-0.89188 11.11111,-1.2 39.8,-1.2 z m 113.78187,-21.62405 c 13.37707,-13.019384 22.21813,-22.370526 22.21813,-23.499996 0,-1.695188 -0.84313,-1.871501 -8.75,-1.829783 l -8.75,0.04617 -21.20901,20.812219 -21.209,20.81222 6.209,2.54488 c 3.41496,1.39968 6.89835,2.58841 7.74088,2.64161 0.84252,0.0532 11.53002,-9.63409 23.75,-21.52732 z m -179.78187,14.06503 c 0,-0.85746 -0.45734,-1.27636 -1.01631,-0.9309 -0.55897,0.34546 -0.75742,1.04702 -0.44098,1.55902 0.85723,1.38704 1.45729,1.12841 1.45729,-0.62812 z m 158.98611,-25.871672 13.4861,-13.569304 h -10.00956 -10.00957 l -7.97654,8.053421 c -6.20195,6.261729 -8.47711,7.961145 -10.22654,7.638665 -2.23107,-0.41126 -2.25,-0.31409 -2.25,11.54957 v 11.96431 l 6.75,-6.03368 c 3.7125,-3.31853 12.81875,-12.13987 20.23611,-19.602982 z m -211.499507,0.499736 13.9866,-14.06904 h -9.96871 -9.96871 l -9.76789,9.731238 -9.76789,9.731238 v 9.3677 9.36771 l 5.75,-5.0299 c 3.1625,-2.76645 12.04397,-11.36097 19.7366,-19.098946 z m 159.513397,4.463176 c 0,-18.740208 -0.0713,-19.440943 -1.90835,-18.749992 -1.0496,0.394777 -10.25404,8.930276 -20.45432,18.967772 l -18.54597,18.25 9.70432,-10e-4 c 10.64854,-0.001 8.9229,0.75023 19.66467,-8.56454 4.17788,-3.62286 6.36507,-4.20882 8.33965,-2.23424 2.11292,2.11292 1.29806,4.48761 -2.55,7.43131 l -3.75,2.86869 4.5,0.59981 c 2.475,0.32989 4.6125,0.66739 4.75,0.75 0.1375,0.0826 0.25,-8.61031 0.25,-19.31759 z m -34.1953,-0.004 18.6953,-18.47191 -10.5,-0.0077 -10.5,-0.0077 -18.64598,18.47954 -18.64598,18.47953 h 10.45068 10.45069 l 18.69529,-18.47185 z m -29.5547,-2.2722 c 8.1125,-8.191189 14.75,-15.199735 14.75,-15.574544 0,-0.37481 -4.33718,-0.681472 -9.63817,-0.681472 h -9.63817 l -4.33949,4 c -4.56487,4.207756 -6.21267,4.771505 -8.18417,2.8 -0.93333,-0.933333 -1.2,1.852263 -1.2,12.535176 0,12.78042 0.12165,13.66841 1.75,12.77455 0.9625,-0.52835 8.3875,-7.66252 16.5,-15.85371 z m 93.13888,-12.142223 3.79478,-3.886207 -4.09183,-0.390219 -4.09183,-0.390219 v 4.276426 c 0,2.352034 0.13367,4.276426 0.29705,4.276426 0.16338,0 2.00471,-1.748793 4.09183,-3.886207 z m -210.388877,-0.613793 3.39233,-3.5 h -3.69617 c -3.55752,0 -3.69616,0.131285 -3.69616,3.5 0,1.925 0.13672,3.5 0.30383,3.5 0.16711,0 1.83038,-1.575 3.69617,-3.5 z m 73.999997,-2.468615 c 0,-1.312258 -0.48526,-1.782402 -1.45545,-1.410106 -1.14824,0.440618 -1.20101,0.848129 -0.25,1.930578 1.5961,1.816708 1.70545,1.783335 1.70545,-0.520472 z m 0,-31.066569 c 0,-23.03136 -0.0769,-23.994043 -1.84058,-23.050137 -1.38093,0.739052 -4.6409,-0.0013 -13.05408,-2.964816 -6.167437,-2.172425 -11.976677,-3.965252 -12.909427,-3.984062 -0.93275,-0.01881 -12.3761,-3.774069 -25.42967,-8.345023 l -23.73376,-8.310824 -0.58818,3.595023 c -0.32349,1.977263 -1.22274,6.970023 -1.99833,11.095023 -1.92873,10.258019 -9.44597,52.808297 -9.44597,53.467547 0,0.292849 19.8,0.532453 44,0.532453 28.666667,0 43.999997,0.348485 43.999997,1 0,0.55 0.225,1 0.5,1 0.275,0 0.5,-10.815833 0.5,-24.035184 z m 107,0.835184 c 0,-18.044444 -0.26667,-22.933333 -1.2,-22 -1.72291,1.722914 -77.87709,1.722914 -79.6,0 -0.93333,-0.933333 -1.20008,3.788889 -1.20036,21.25 l -3.5e-4,22.45 39.67749,-0.272868 c 26.07205,-0.179301 40.02823,0.07788 40.70035,0.75 0.56258,0.562578 1.15787,1.022868 1.32287,1.022868 0.165,0 0.3,-10.44 0.3,-23.2 z M 324.44508,43.16916 c -3.29537,-18.688173 -6.38023,-33.978496 -6.85523,-33.978496 -0.475,0 -10.26852,3.6 -21.76339,8 -11.49487,4.4 -21.51983,8 -22.2777,8 -0.75787,0 -5.39292,1.593905 -10.30012,3.542011 -5.12004,2.032601 -10.09408,3.384842 -11.67218,3.173193 l -2.75,-0.368818 -3.3e-4,23.076807 -3.4e-4,23.076807 40.80544,-0.271504 40.80544,-0.271505 z M 112.22753,359.28524 c -2.25441,-1.02383 -5.17941,-3.37645 -6.5,-5.22804 l -2.40107,-3.36653 -0.27188,-62.75734 c -0.30065,-69.39686 -0.52674,-66.76062 6.07043,-70.78314 3.09297,-1.8859 5.52249,-1.95204 71.70145,-1.95204 66.17896,0 68.60848,0.0661 71.70145,1.95204 6.59717,4.02252 6.37108,1.38628 6.07043,70.78314 l -0.27188,62.75734 -2.40107,3.36653 c -1.32059,1.85159 -4.24559,4.20421 -6.5,5.22804 -3.86163,1.75374 -7.83308,1.86151 -68.59893,1.86151 -60.76585,0 -64.7373,-0.10777 -68.59893,-1.86151 z m 136.4944,-8.49956 c 2.06298,-1.86737 2.10453,-2.5958 2.10453,-36.89505 v -34.99007 l -5.49147,5.1936 c -3.05326,2.88765 -8.49226,6.60209 -12.25,8.36585 -6.31273,2.963 -7.63252,3.19831 -20.00853,3.56728 l -13.25,0.39504 v 4.42962 c 0,3.36973 -0.58731,5.01694 -2.45455,6.88417 -2.3738,2.37381 -2.91807,2.45455 -16.54545,2.45455 -13.62738,0 -14.17165,-0.0807 -16.54545,-2.45455 -1.86724,-1.86723 -2.45455,-3.51444 -2.45455,-6.88417 v -4.42962 l -13.25,-0.39504 c -12.37601,-0.36897 -13.6958,-0.60428 -20.00853,-3.56728 -3.75774,-1.76376 -9.19674,-5.4782 -12.25,-8.36585 l -5.49147,-5.1936 v 34.99007 c 0,32.07644 0.14572,35.11701 1.75,36.51456 0.9625,0.83848 2.425,1.77767 3.25,2.0871 0.825,0.30943 30.59046,0.48065 66.14547,0.38049 62.02862,-0.17474 64.73066,-0.25922 66.75,-2.0871 z m -56.89547,-62.09501 v -14.5 h -11 -11 v 14.5 14.5 h 11 11 z m -30,-8.86514 c 0,-6.94859 0.35097,-8.81133 2.07258,-11 l 2.07258,-2.63486 h 14.85484 14.85484 l 2.07258,2.63486 c 1.72606,2.19433 2.07258,4.05023 2.07258,11.10042 v 8.46557 l 12.75,-0.38046 c 10.36249,-0.30922 13.63333,-0.78292 17.46723,-2.5297 6.59221,-3.00351 14.25171,-10.51154 17.51058,-17.1643 2.62808,-5.36507 2.77189,-6.42587 3.09619,-22.8398 l 0.34009,-17.21341 -2.53659,-2.53659 -2.53659,-2.53659 h -65.09091 -65.09091 l -2.53659,2.53659 -2.53659,2.53659 0.37629,17.21341 c 0.42942,19.64378 1.40983,23.09343 8.86054,31.17649 8.29109,8.99478 14.6565,11.37476 30.67726,11.47002 l 11.25,0.0669 z"
     id="path1544"
     inkscape:connector-curvature="0" />
</svg>
