<?xml version="1.0" encoding="UTF-8" standalone="no"?>
<svg
   xmlns:dc="http://purl.org/dc/elements/1.1/"
   xmlns:cc="http://creativecommons.org/ns#"
   xmlns:rdf="http://www.w3.org/1999/02/22-rdf-syntax-ns#"
   xmlns:svg="http://www.w3.org/2000/svg"
   xmlns="http://www.w3.org/2000/svg"
   xmlns:sodipodi="http://sodipodi.sourceforge.net/DTD/sodipodi-0.dtd"
   xmlns:inkscape="http://www.inkscape.org/namespaces/inkscape"
   height="40.621853"
   version="1.1"
   viewBox="-164.41 -64.82 386.13515 64.96867"
   width="241.09164"
   id="svg3294"
   sodipodi:docname="banner_piece.svg"
   inkscape:version="0.92.3 (2405546, 2018-03-11)">
  <metadata
     id="metadata3298">
    <rdf:RDF>
      <cc:Work
         rdf:about="">
        <dc:format>image/svg+xml</dc:format>
        <dc:type
           rdf:resource="http://purl.org/dc/dcmitype/StillImage" />
      </cc:Work>
    </rdf:RDF>
  </metadata>
  <sodipodi:namedview
     pagecolor="#ffffff"
     bordercolor="#666666"
     borderopacity="1"
     objecttolerance="10"
     gridtolerance="10"
     guidetolerance="10"
     inkscape:pageopacity="0"
     inkscape:pageshadow="2"
     inkscape:window-width="640"
     inkscape:window-height="480"
     id="namedview3296"
     showgrid="false"
     inkscape:zoom="0.615"
     inkscape:cx="-87.663637"
     inkscape:cy="-18.385191"
     inkscape:window-x="0"
     inkscape:window-y="27"
     inkscape:window-maximized="0"
     inkscape:current-layer="svg3294" />
  <defs
     id="defs3278" />
  <path
     d="m 189.20899,-3.5044144 c -15.88453,-1.60875 -28.99735,-2.853063 -29.13961,-2.76514 -0.14227,0.08792 -0.25866,-1.700535 -0.25866,-3.9743516 v -4.13421 l -1.24529,-0.18929 c -0.6849,-0.104109 -9.98717,-0.290078 -20.67169,-0.413268 -31.84087,-0.367109 -53.702925,0.39162 -129.7507246,4.503037 -41.3241404,2.2341306 -49.5801904,2.5466366 -53.0395804,2.0076316 -4.00824,-0.624515 -2.9647,-0.840128 5.46199,-1.128545 8.3323,-0.285187 25.00036,-1.1157866 57.28302,-2.8545206 62.86232,-3.385739 79.69924,-3.996641 110.083025,-3.994187 20.85554,0.0017 31.46303,0.2779 44.99623,1.171695 7.63953,0.504549 19.34672,1.587254 23.41132,2.165128 3.86513,0.549516 3.98491,0.519214 3.98491,-1.008267 0,-0.730566 -0.11208,-1.331261 -0.24906,-1.334877 -0.13698,-0.0036 -2.08892,-0.22449 -4.33764,-0.490831 -16.81241,-1.991294 -43.83625,-3.145077 -73.78312,-3.150167 -31.774235,-0.0054 -57.109515,0.923369 -99.456605,3.645996 -26.2953396,1.690609 -45.21412,2.698531 -62.09812,3.308355 -5.11396,0.184707 -11.0166,0.405929 -13.11698,0.491598 -2.10037,0.08567 -4.11773,0.02374 -4.48302,-0.137589 l -0.66415,-0.293352 0.66415,-0.02491 c 0.36529,-0.01368 4.69887,-0.174582 9.63019,-0.357526 22.77314,-0.844843 42.8822404,-1.891017 70.06793,-3.645275 23.63118,-1.524891 36.07034,-2.176476 57.44906,-3.009285 14.57764,-0.567875 54.512165,-0.772258 68.739625,-0.351811 21.31762,0.629978 41.1035,1.901388 50.22641,3.227479 l 1.41133,0.205146 v -19.925274 -19.925276 l -1.07925,-0.192541 c -1.88171,-0.335697 -10.79876,-1.17997 -17.84906,-1.689953 -17.5958,-1.272794 -35.79979,-1.839411 -59.10943,-1.839841 -31.287715,-5.76e-4 -57.414525,0.959684 -99.124535,3.643206 -32.4858296,2.09006 -50.39468,3.010573 -78.86793,4.053803 -15.17199,0.555886 -63.914475,0.561739 -74.052825,0.0089 -17.58918,-0.959143 -32.87547,-2.552807 -32.87547,-3.427415 0,-0.372529 -0.49986,-0.409342 4.8715,0.358767 25.87308,3.69987 76.183125,3.998056 138.917175,0.823356 12.2249104,-0.61865 22.5029704,-1.225134 42.00755,-2.478766 39.79397,-2.557707 57.72285,-3.266917 89.494345,-3.540115 28.36267,-0.243886 48.11413,0.25272 68.57359,1.724126 7.16539,0.515323 16.1024,1.358564 18.01509,1.699792 1.06832,0.190593 1.07925,0.179235 1.07925,-1.122395 v -1.314936 l -2.73963,-0.375471 c -26.27484,-3.601021 -67.35155,-4.564969 -115.147175,-2.702162 -13.45506,0.524404 -34.01737,1.539386 -67.07924,3.311119 -55.9588,2.998741 -71.34958,3.597268 -99.62265,3.874188 -30.671365,0.300411 -54.151165,-0.670347 -73.940965,-3.057045 -2.2215,-0.267918 -4.12678,-0.487124 -4.23396,-0.487124 -0.10719,0 -0.19488,-0.343605 -0.19488,-0.763567 v -0.763568 l 4.73208,0.576731 c 20.7257,2.525981 51.18544,3.62944 82.373755,2.984139 27.02994,-0.559263 39.03839,-1.061278 88.39605,-3.695411 69.14073,-3.689921 85.86505,-4.312299 115.894345,-4.312891 28.34817,-5.58e-4 46.33469,0.901121 67.3283,3.375226 l 6.22642,0.733785 v 4.357565 4.357564 l 4.23396,0.395702 c 2.32868,0.217636 6.58755,0.642182 9.46415,0.943436 l 5.23019,0.547734 v 24.688383 24.68837959 l -1.57736,-0.0379 c -0.86755,-0.02085 -14.57379,-1.35415399 -30.45833,-2.96290699 v -7e-6"
     id="path3280"
     inkscape:connector-curvature="0"
     style="fill:none;stroke:#000000;stroke-width:0.96096689" />
  <path
     d="m 219.25223,-25.409268 c 0,-12.784906 -0.11208,-23.245409 -0.24906,-23.245563 -0.13698,-1.53e-4 -3.91019,-0.373613 -8.3849,-0.829909 -4.47472,-0.456297 -8.17321,-0.829756 -8.21887,-0.82991 -0.0457,-1.53e-4 -0.083,0.52274 -0.083,1.161985 0,0.639246 0.091,1.162264 0.20213,1.162264 0.63115,0 14.42911,1.365584 15.36567,1.52074 0.61736,0.102279 0.99094,0.309605 0.83019,0.460726 -0.1608,0.151121 -3.80403,-0.07853 -8.0961,-0.510343 -4.29208,-0.431809 -7.91585,-0.790027 -8.05283,-0.79604 -0.13699,-0.006 -0.24906,8.207936 -0.24906,18.25322 v 18.264151 l -1.24528,-0.0057 c -1.6034,-0.0073 -17.67851,1.7906236 -17.01887,1.9034966 0.67195,0.114978 34.29855,3.747471 34.69096,3.747471 0.17082,0 0.15637,0.153433 -0.0322,0.341998 -0.23461,0.234612 -6.30771,-0.304808 -19.34141,-1.717929 l -18.99943,-2.059927 -5.78904,0.618673 c -3.18397,0.340271 -5.72017,0.687526 -5.63602,0.771677 0.177,0.177006 46.77885,4.938547 48.89583,4.995933 l 1.41132,0.03825 -3e-5,-23.2452636"
     id="path3282"
     inkscape:connector-curvature="0"
     style="fill:none;stroke:#000000;stroke-width:0.96096689" />
  <path
     d="m 179.83331,-10.02382 c 8.30032,-0.931166 13.89427,-1.690812 13.44905,-1.826362 -1.45814,-0.443974 -13.11804,-1.438335 -28.57353,-2.436753 l -2.90566,-0.187705 v 3.213105 3.2131096 l 1.90943,-0.190559 c 1.05019,-0.104806 8.30451,-0.907984 16.12071,-1.7848356 v 0"
     id="path3284"
     inkscape:connector-curvature="0"
     style="fill:none;stroke:#000000;stroke-width:0.96096689" />
  <path
     d="m 194.17823,-4.6917734 c -13.57658,-1.363499 -24.61865,-2.495427 -24.53794,-2.515397 0.0807,-0.01997 2.52424,-0.302782 5.43005,-0.628474 l 5.28329,-0.592168 14.35293,1.559398 c 7.89412,0.857668 14.82843,1.611628 15.40959,1.675466 5.11581,0.561947 8.6777,0.939505 8.69548,0.921718 0.0118,-0.01178 0.0585,-0.191036 0.10384,-0.398357 0.0793,-0.362567 0.0826,-0.32264 0.0883,1.046605 0.005,1.106089 -0.0105,1.422075 -0.0675,1.416926 -0.0404,-0.0036 -11.18149,-1.122217 -24.75808,-2.485717 h 4e-5"
     id="path3286"
     inkscape:connector-curvature="0"
     style="fill:none;stroke:#000000;stroke-width:0.96096689" />
  <path
     d="m -52.568195,-10.197881 c -3.10916,-0.869768 -2.6063,-1.246921 1.67156,-1.253682 7.07568,-0.01118 41.7780104,-1.67824 62.6997,-3.012016 5.75321,-0.366772 15.01812,-0.956661 20.58868,-1.310866 33.1476,-2.107691 59.39602,-2.985531 89.162275,-2.981902 30.12088,0.0037 52.71762,0.894901 71.56226,2.822454 7.17523,0.733928 6.97359,0.68085 6.97359,1.835689 0,0.685293 -0.16312,0.981179 -0.54093,0.981179 -0.29751,0 -3.84657,-0.368921 -7.88679,-0.819824 -20.00696,-2.232845 -30.65188,-2.668837 -64.79492,-2.653851 -35.801225,0.01571 -42.102695,0.239576 -111.743405,3.969728 -38.02843,2.03691 -62.278,3.2117446 -64.58868,3.1291706 -0.36528,-0.01305 -1.76179,-0.33079 -3.10334,-0.7060796 v 0"
     id="path3288"
     inkscape:connector-curvature="0"
     style="fill:none;stroke:#000000;stroke-width:0.96096689" />
  <path
     d="m -137.70998,-53.454477 c -11.26118,-0.71854 -25.04633,-2.454063 -25.84626,-3.253994 -1.39155,-1.391555 0.71071,-1.477467 10.7294,-0.43847 20.5596,2.132149 36.57847,2.624373 72.565915,2.229786 19.17736,-0.210272 40.84529,-0.697412 48.15095,-1.082534 7.30566,-0.385123 24.4905604,-1.293121 38.1886804,-2.017774 82.3233396,-4.355043 99.9148846,-4.941584 133.4943446,-4.450997 26.06239,0.380764 35.56425,0.87801 51.99059,2.72074 7.44066,0.834703 9.1307,1.259562 8.30298,2.087283 -0.20105,0.20105 -5.40633,-0.08742 -11.5673,-0.641037 -40.22666,-3.614743 -97.340355,-3.095367 -171.331885,1.558044 -52.10667,3.277048 -74.03726,4.036129 -113.50006,3.928562 -17.898855,-0.04879 -36.428675,-0.336612 -41.177355,-0.639609 v 0"
     id="path3290"
     inkscape:connector-curvature="0"
     style="fill:none;stroke:#000000;stroke-width:0.96096689" />
  <path
     d="m 210.37993,-47.401601 -7.89558,-0.778075 v -0.966733 -0.966733 l 0.49897,0.06024 c 0.77594,0.09368 15.7385,1.578955 15.90629,1.578955 0.10803,0 0.14904,0.258462 0.14904,0.939251 v 0.939252 l -0.38157,-0.01404 c -0.20986,-0.0077 -3.93458,-0.364177 -8.27715,-0.792117 v 0"
     id="path3292"
     inkscape:connector-curvature="0"
     style="fill:none;stroke:#000000;stroke-width:0.96096689" />
</svg>
