<?xml version="1.0" encoding="UTF-8" standalone="no"?>
<svg
   xmlns:dc="http://purl.org/dc/elements/1.1/"
   xmlns:cc="http://creativecommons.org/ns#"
   xmlns:rdf="http://www.w3.org/1999/02/22-rdf-syntax-ns#"
   xmlns:svg="http://www.w3.org/2000/svg"
   xmlns="http://www.w3.org/2000/svg"
   xmlns:sodipodi="http://sodipodi.sourceforge.net/DTD/sodipodi-0.dtd"
   xmlns:inkscape="http://www.inkscape.org/namespaces/inkscape"
   height="43.648575"
   version="1.1"
   viewBox="-164.41 -64.82 95.05426 69.809466"
   width="59.349136"
   id="svg3253"
   sodipodi:docname="box.svg"
   inkscape:version="0.92.3 (2405546, 2018-03-11)">
  <metadata
     id="metadata3257">
    <rdf:RDF>
      <cc:Work
         rdf:about="">
        <dc:format>image/svg+xml</dc:format>
        <dc:type
           rdf:resource="http://purl.org/dc/dcmitype/StillImage" />
      </cc:Work>
    </rdf:RDF>
  </metadata>
  <sodipodi:namedview
     pagecolor="#ffffff"
     bordercolor="#666666"
     borderopacity="1"
     objecttolerance="10"
     gridtolerance="10"
     guidetolerance="10"
     inkscape:pageopacity="0"
     inkscape:pageshadow="2"
     inkscape:window-width="640"
     inkscape:window-height="480"
     id="namedview3255"
     showgrid="false"
     inkscape:zoom="0.615"
     inkscape:cx="134.92942"
     inkscape:cy="1.7879361"
     inkscape:window-x="0"
     inkscape:window-y="27"
     inkscape:window-maximized="0"
     inkscape:current-layer="svg3253" />
  <defs
     id="defs3249" />
  <path
     d="m -157.95078,3.02086 h 32.53623 c 0.0697,0.12169 0.19972,0.20831 0.3555,0.20831 0.22684,0 0.41085,-0.17896 0.41085,-0.39784 0,-0.22038 -0.18401,-0.39883 -0.41085,-0.39883 -0.15578,0 -0.28647,0.0864 -0.356,0.20929 h -32.53573 c -2.33351,0 -4.01149,-1.29663 -5.07004,-2.49317 -0.13334,-0.49944 -0.44325,-1.9745 0.0528,-3.50567 l 0.0119,-0.0353 -0.0107,-0.0355 -0.96235,-3.45815 v -46.463028 l 0.97227,-3.494556 -0.0119,-0.03472 c -0.49451,-1.527115 -0.18871,-2.999664 -0.054,-3.502637 1.05907,-1.19704 2.73863,-2.495676 5.07107,-2.495676 h 32.53647 c 0.0697,0.122341 0.19972,0.208784 0.35547,0.208784 0.22688,0 0.41087,-0.179043 0.41087,-0.398337 0,-0.219891 -0.18399,-0.398852 -0.41087,-0.398852 -0.15575,0 -0.28648,0.08648 -0.35596,0.209296 h -32.53575 c -2.99423,0 -4.96704,1.999271 -5.97802,3.388912 v -0.955511 c 0.95557,-1.002933 3.20021,-3.005231 6.40356,-3.76905 l 81.289896,9.56e-4 c 3.20281,0.764329 5.44484,2.764604 6.39935,3.767536 v 0.955908 c -1.01253,-1.389674 -2.98379,-3.388945 -5.97959,-3.388945 h -32.534236 c -0.0711,-0.122861 -0.20178,-0.209296 -0.35705,-0.209296 -0.22581,0 -0.41137,0.179042 -0.41137,0.398852 0,0.219431 0.18556,0.398335 0.41137,0.398335 0.15527,0 0.2849,-0.08643 0.35599,-0.208758 h 32.535446 c 2.33298,0 4.01358,1.298644 5.0716,2.495683 0.13439,0.502976 0.44014,1.975504 -0.0528,3.502639 l -0.0119,0.03472 0.0104,0.03551 0.96263,3.459203 V -6.88655 l -0.97333,3.49402 0.0119,0.0353 c 0.494,1.52764 0.18609,3.00069 0.0528,3.50315 -1.05802,1.19702 -2.73862,2.49568 -5.0716,2.49568 h -32.534126 c -0.0711,-0.12292 -0.20178,-0.20929 -0.35705,-0.20929 -0.22581,0 -0.41137,0.17838 -0.41137,0.39882 0,0.2189 0.18556,0.39785 0.41137,0.39785 0.15527,0 0.28491,-0.0864 0.35599,-0.20834 h 32.535306 c 2.99581,0 4.96706,-1.99975 5.97959,-3.38886 v 0.95541 c -0.95555,1.0034 -3.20071,3.00572 -6.40562,3.76853 l -81.286246,-9.1e-4 c -3.20334,-0.76332 -5.44642,-2.76362 -6.40091,-3.76703 v -0.95594 c 1.01097,1.3891 2.98378,3.38888 5.978,3.38888"
     id="path3251"
     inkscape:connector-curvature="0"
     style="fill:none;stroke:#000000;stroke-width:0.96096689" />
</svg>
