<?xml version="1.0" encoding="UTF-8" standalone="no"?>
<!-- Created with Inkscape (http://www.inkscape.org/) -->

<svg
   xmlns:dc="http://purl.org/dc/elements/1.1/"
   xmlns:cc="http://creativecommons.org/ns#"
   xmlns:rdf="http://www.w3.org/1999/02/22-rdf-syntax-ns#"
   xmlns:svg="http://www.w3.org/2000/svg"
   xmlns="http://www.w3.org/2000/svg"
   xmlns:sodipodi="http://sodipodi.sourceforge.net/DTD/sodipodi-0.dtd"
   xmlns:inkscape="http://www.inkscape.org/namespaces/inkscape"
   version="1.1"
   id="svg1629"
   width="106.73683"
   height="90.022041"
   viewBox="0 0 106.73683 90.022041"
   sodipodi:docname="constitution.svg"
   inkscape:version="0.92.3 (2405546, 2018-03-11)">
  <metadata
     id="metadata1635">
    <rdf:RDF>
      <cc:Work
         rdf:about="">
        <dc:format>image/svg+xml</dc:format>
        <dc:type
           rdf:resource="http://purl.org/dc/dcmitype/StillImage" />
      </cc:Work>
    </rdf:RDF>
  </metadata>
  <defs
     id="defs1633">
    <inkscape:path-effect
       effect="bspline"
       id="path-effect1681"
       is_visible="true"
       weight="33.333333"
       steps="2"
       helper_size="0"
       apply_no_weight="true"
       apply_with_weight="true"
       only_selected="false" />
  </defs>
  <sodipodi:namedview
     pagecolor="#ffffff"
     bordercolor="#666666"
     borderopacity="1"
     objecttolerance="10"
     gridtolerance="10"
     guidetolerance="10"
     inkscape:pageopacity="0"
     inkscape:pageshadow="2"
     inkscape:window-width="1920"
     inkscape:window-height="983"
     id="namedview1631"
     showgrid="false"
     inkscape:zoom="6.1298701"
     inkscape:cx="75.968698"
     inkscape:cy="44.622531"
     inkscape:window-x="0"
     inkscape:window-y="27"
     inkscape:window-maximized="1"
     inkscape:current-layer="svg1629" />
  <g
     id="g2287">
    <path
       style="fill:#000000;fill-opacity:1;stroke:none;stroke-width:0.5;stroke-linecap:round;stroke-linejoin:round;stroke-miterlimit:1;stroke-dasharray:none;stroke-opacity:1"
       d="M 15.683946,68.447665 C 4.0374522,56.863125 -3.3823782,39.305997 1.558248,22.983541 5.3833504,10.34437 17.427848,-0.24268386 31.028179,0.06542673 39.297443,0.07016733 47.665654,3.3606047 53.387401,9.3985735 61.587909,0.81162465 75.021949,-2.1775152 86.195908,1.6146155 93.77439,5.0660223 100.26397,11.367387 103.68505,18.984711 c 5.78096,13.390477 2.9279,29.290312 -5.483851,40.916639 -4.177619,5.754061 -9.031857,11.223088 -14.847842,15.343037 -3.502151,0.583859 -7.06673,-1.337095 -10.675078,-1.496047 -3.167012,-0.199293 -0.25077,-0.581232 1.269403,-0.921255 C 80.34947,70.092337 85.101744,64.557312 89.812673,59.607252 99.920836,48.525773 103.72237,30.454741 95.224186,17.381347 89.115685,7.7452322 75.493052,3.4761137 65.295968,9.0743523 60.209958,10.530402 57.165604,17.647365 51.594265,16.4998 46.594432,11.788597 40.489586,7.6274753 33.53511,6.6348563 23.785042,5.9606478 13.732839,11.360056 9.8340218,20.528732 c -4.8125605,9.738934 -3.477826,21.394329 1.4630272,30.791993 3.771433,7.348497 10.116116,12.993715 16.033746,18.602564 1.869044,1.629536 6.370511,3.228751 1.414657,4.223929 -2.001126,0.361348 -4.289559,1.395143 -6.19211,1.253409 -2.289799,-2.317654 -4.579597,-4.635308 -6.869396,-6.952962 z m 33.495519,-12.14772 c -0.09736,-2.583333 -0.194709,-5.166667 -0.292064,-7.75 -5.166667,-0.194709 -10.333333,-0.389419 -15.5,-0.584129 0,-2.610581 0,-5.221161 0,-7.831742 5.166667,-0.19471 10.333333,-0.38942 15.5,-0.584129 0.194709,-5.166667 0.389419,-10.333333 0.584129,-15.5 2.610581,0 5.221161,0 7.831742,0 0.19471,5.166667 0.38942,10.333333 0.584129,15.5 5.166667,0.194709 10.333333,0.389419 15.5,0.584129 0,2.610581 0,5.221161 0,7.831742 -5.166667,0.19471 -10.333333,0.38942 -15.5,0.584129 -0.194709,5.166667 -0.389419,10.333333 -0.584129,15.5 -2.610581,0 -5.221161,0 -7.831742,0 -0.09736,-2.583333 -0.19471,-5.166667 -0.292065,-7.75 z"
       id="path1639"
       inkscape:connector-curvature="0" />
    <path
       style="fill:none;stroke:#000000;stroke-width:7;stroke-linecap:butt;stroke-linejoin:miter;stroke-miterlimit:4;stroke-dasharray:none;stroke-opacity:1"
       d="m 24.886129,72.657176 c 9.38711,6.973698 18.77422,13.947396 28.243315,13.864376 9.469094,-0.08302 19.020171,-7.222758 28.571249,-14.362497"
       id="path1679" />
    <path
       style="opacity:1;vector-effect:none;fill:#ff0000;fill-opacity:1;fill-rule:nonzero;stroke:none;stroke-width:7;stroke-linecap:round;stroke-linejoin:round;stroke-miterlimit:4;stroke-dasharray:none;stroke-dashoffset:0;stroke-opacity:1"
       d="M 49.477187,62.99369 C 49.334945,58.159004 49.15867,53.324714 48.929199,48.493417 43.783649,48.281007 38.636871,48.051429 33.48819,47.944466 c 0,-2.553719 0,-5.107438 0,-7.661157 5.126086,-0.427297 10.29107,-0.397763 15.429558,-0.701687 0.238413,-5.14891 0.481007,-10.3009 0.557739,-15.454953 2.588086,0 5.176171,0 7.764257,0 0.201902,5.149741 0.348564,10.302149 0.615498,15.448964 5.140783,0.315954 10.309993,0.272049 15.438041,0.707679 0,2.553719 0,5.107438 0,7.661157 -5.151227,0.09917 -10.300299,0.34021 -15.447988,0.557481 -0.243953,5.141398 -0.404313,10.286456 -0.603164,15.429782 -2.588884,0 -5.177769,0 -7.766653,0 5.75e-4,-0.312679 0.0011,-0.625368 0.0017,-0.938042 z"
       id="path2279"
       inkscape:connector-curvature="0" />
    <path
       style="opacity:1;vector-effect:none;fill:#000000;fill-opacity:1;fill-rule:nonzero;stroke:#010000;stroke-width:1.5;stroke-linecap:round;stroke-linejoin:round;stroke-miterlimit:4;stroke-dasharray:none;stroke-dashoffset:0;stroke-opacity:1"
       d="M 52.004079,82.909758 C 44.232079,82.052739 37.456364,77.492719 31.431671,72.818929 27.266215,70.001015 23.125761,66.139385 19.604416,62.227134 14.743354,57.350405 10.764017,51.592713 8.7858951,44.941687 4.446911,33.027959 7.6342983,17.730454 18.600384,10.506505 25.529493,6.2564881 34.819016,5.0869029 41.9466,9.5934195 c 4.601794,1.4839475 7.375166,7.1661945 12.15487,7.1523065 4.564538,-2.309976 7.934373,-6.6371 12.903891,-8.3361587 11.523451,-5.1809087 25.827183,1.6930767 30.362915,13.1480037 5.923004,13.856165 0.545233,30.359588 -9.930746,40.51292 -4.209283,4.01412 -8.335766,8.702762 -13.910078,10.744382 -2.429665,0.464577 -3.131579,0.64873 -0.583932,1.312989 -6.232922,4.243293 -13.06857,9.018833 -20.939441,8.781896 z M 57.372397,63.7278 c 0.292651,-5.017361 0.366647,-10.044983 0.628669,-15.063866 5.148847,-0.241984 10.301083,-0.481856 15.455344,-0.556367 -0.01069,-2.669419 0.02928,-5.339852 -0.04078,-8.008431 -5.13098,-0.245974 -10.268299,-0.369244 -15.395581,-0.684995 -0.344044,-5.145649 -0.285397,-10.321688 -0.721723,-15.456425 -2.634803,0.02912 -5.269606,0.05824 -7.904409,0.08736 -0.207411,5.123665 -0.348331,10.25075 -0.634115,15.370696 -5.14043,0.324626 -10.299207,0.321523 -15.434741,0.724134 0,2.639171 0,5.278341 0,7.917512 5.15199,0.174581 10.305215,0.337167 15.453,0.608731 0.25932,5.072665 0.342994,10.153363 0.627018,15.224801 2.6045,0.396796 5.265196,0.128388 7.894699,0.203919 l 0.0542,-0.273952 z"
       id="path2281"
       inkscape:connector-curvature="0" />
  </g>
</svg>
