<?xml version="1.0" encoding="UTF-8" standalone="no"?>
<svg
   xmlns:dc="http://purl.org/dc/elements/1.1/"
   xmlns:cc="http://creativecommons.org/ns#"
   xmlns:rdf="http://www.w3.org/1999/02/22-rdf-syntax-ns#"
   xmlns:svg="http://www.w3.org/2000/svg"
   xmlns="http://www.w3.org/2000/svg"
   xmlns:sodipodi="http://sodipodi.sourceforge.net/DTD/sodipodi-0.dtd"
   xmlns:inkscape="http://www.inkscape.org/namespaces/inkscape"
   height="16.607782"
   version="1.1"
   viewBox="-164.41 -64.82 70.683083 26.561701"
   width="44.132477"
   id="svg2382"
   sodipodi:docname="dragon_tail.svg"
   inkscape:version="0.92.3 (2405546, 2018-03-11)">
  <metadata
     id="metadata2386">
    <rdf:RDF>
      <cc:Work
         rdf:about="">
        <dc:format>image/svg+xml</dc:format>
        <dc:type
           rdf:resource="http://purl.org/dc/dcmitype/StillImage" />
      </cc:Work>
    </rdf:RDF>
  </metadata>
  <sodipodi:namedview
     pagecolor="#ffffff"
     bordercolor="#666666"
     borderopacity="1"
     objecttolerance="10"
     gridtolerance="10"
     guidetolerance="10"
     inkscape:pageopacity="0"
     inkscape:pageshadow="2"
     inkscape:window-width="1920"
     inkscape:window-height="983"
     id="namedview2384"
     showgrid="false"
     inkscape:zoom="13.915861"
     inkscape:cx="17.389544"
     inkscape:cy="8.9699564"
     inkscape:window-x="0"
     inkscape:window-y="27"
     inkscape:window-maximized="1"
     inkscape:current-layer="svg2382" />
  <defs
     id="defs2378" />
  <path
     style="fill:none;stroke:#000000;stroke-width:0.96096689"
     d="m -94.537406,-58.287734 c -1.26902,6.387982 -5.813614,12.59769 -12.440074,14.013297 -1.57174,-0.167373 -4.25234,1.698507 -1.37452,2.264117 1.15237,0.317715 4.45779,-0.287088 1.61512,0.663299 -3.43829,1.214115 -7.00988,-0.166644 -10.49694,-0.04201 -2.72026,1.449705 5.3556,3.040679 0.8917,2.59169 -4.92662,-0.431058 -9.9312,-2.140377 -13.6783,-5.444395 6.14514,1.886947 13.0952,1.487793 18.88089,-1.36875 0.91097,-0.437549 3.1825,-2.087676 1.0916,-0.896703 -7.57637,3.488622 -16.36014,2.255511 -24.02512,-0.28934 -4.8328,-1.656681 -9.55403,-3.675654 -13.88774,-6.400856 -4.62772,-2.259443 -10.24235,-3.747387 -15.23463,-1.902351 2.8643,-4.315646 6.94892,-8.689725 12.3947,-9.229879 3.99711,-0.341653 7.19579,2.50702 10.41321,4.419895 3.72516,2.436656 6.7949,5.770845 10.81592,7.763209 3.76589,1.981943 7.68492,4.008533 11.94304,4.61565 4.10084,0.265648 8.60381,-1.884199 10.21213,-5.815875 4.01551,0.216038 7.967134,-1.448289 11.298984,-3.572432 0.56884,-0.403616 1.11158,-0.850021 1.58003,-1.368568 z"
     id="path2380"
     inkscape:connector-curvature="0" />
</svg>
