<?xml version="1.0" encoding="UTF-8" standalone="no"?>
<svg
   xmlns:dc="http://purl.org/dc/elements/1.1/"
   xmlns:cc="http://creativecommons.org/ns#"
   xmlns:rdf="http://www.w3.org/1999/02/22-rdf-syntax-ns#"
   xmlns:svg="http://www.w3.org/2000/svg"
   xmlns="http://www.w3.org/2000/svg"
   xmlns:sodipodi="http://sodipodi.sourceforge.net/DTD/sodipodi-0.dtd"
   xmlns:inkscape="http://www.inkscape.org/namespaces/inkscape"
   height="115.60309"
   version="1.1"
   viewBox="-194.41 -4.82 79.985964 1.9235342"
   width="183.89909"
   id="svg3195"
   sodipodi:docname="elaborate_box.svg"
   inkscape:version="0.92.3 (2405546, 2018-03-11)">
  <metadata
     id="metadata3199">
    <rdf:RDF>
      <cc:Work
         rdf:about="">
        <dc:format>image/svg+xml</dc:format>
        <dc:type
           rdf:resource="http://purl.org/dc/dcmitype/StillImage" />
      </cc:Work>
    </rdf:RDF>
  </metadata>
  <sodipodi:namedview
     pagecolor="#ffffff"
     bordercolor="#666666"
     borderopacity="1"
     objecttolerance="10"
     gridtolerance="10"
     guidetolerance="10"
     inkscape:pageopacity="0"
     inkscape:pageshadow="2"
     inkscape:window-width="640"
     inkscape:window-height="480"
     id="namedview3197"
     showgrid="false"
     inkscape:zoom="0.59"
     inkscape:cx="-5.3684155"
     inkscape:cy="-132.22313"
     inkscape:window-x="0"
     inkscape:window-y="27"
     inkscape:window-maximized="0"
     inkscape:current-layer="svg3195" />
  <defs
     id="defs3177" />
  <path
     d="m -116.27952,15.218766 v -3.875 c -0.408,1.222 -0.987,2.525 -1.799,3.756 v 0.071 h -0.046 c -1.155,1.727 -2.782,3.294 -5.069,4.256 h 2.706 l 4.208,-4.208"
     id="path3179"
     inkscape:connector-curvature="0"
     style="fill:none;stroke:#000000;stroke-width:0.96096689" />
  <path
     d="m -125.13152,-27.143234 h -58.597 c -2.613,0.632 -4.706,2.071 -6.277,4.278 v 37.99 c 1.366,1.915 3.37,3.579 6.302,4.302 h 58.598 c 2.613,-0.632 4.706,-2.071 6.277,-4.278 v -37.99 c -1.365,-1.915 -3.37,-3.579 -6.303,-4.302"
     id="path3181"
     inkscape:connector-curvature="0"
     style="fill:none;stroke:#000000;stroke-width:0.96096689" />
  <path
     d="m -192.55452,9.0727665 c 0.303,1.4159995 0.843,3.1809995 1.799,4.8729995 v -35.623 c -0.167,0.297 -0.344,0.579 -0.495,0.898 -0.658,1.385 -1.058,2.776 -1.304,3.94 V 9.0727665"
     id="path3183"
     inkscape:connector-curvature="0"
     style="fill:none;stroke:#000000;stroke-width:0.96096689" />
  <path
     d="m -118.07852,13.960766 c 0.167,-0.297 0.345,-0.579 0.495,-0.898 0.657,-1.385 1.059,-2.776 1.304,-3.9399995 V -16.788234 c -0.303,-1.418 -0.843,-3.182 -1.799,-4.874 v 35.623"
     id="path3185"
     inkscape:connector-curvature="0"
     style="fill:none;stroke:#000000;stroke-width:0.96096689" />
  <path
     d="m -188.34652,19.426766 h 2.707 c -2.288,-0.962 -3.915,-2.529 -5.07,-4.256 h -0.046 v -0.071 c -0.812,-1.231 -1.391,-2.534 -1.799,-3.756 v 3.875 l 4.208,4.208"
     id="path3187"
     inkscape:connector-curvature="0"
     style="fill:none;stroke:#000000;stroke-width:0.96096689" />
  <path
     d="m -192.55452,-22.936234 v 3.876 c 0.408,-1.222 0.987,-2.525 1.799,-3.756 v -0.071 h 0.046 c 1.155,-1.727 2.782,-3.294 5.07,-4.256 h -2.707 l -4.208,4.207"
     id="path3189"
     inkscape:connector-curvature="0"
     style="fill:none;stroke:#000000;stroke-width:0.96096689" />
  <path
     d="m -120.48752,-27.143234 h -2.706 c 2.287,0.962 3.914,2.529 5.069,4.256 h 0.046 v 0.071 c 0.812,1.231 1.391,2.534 1.799,3.756 v -3.876 l -4.208,-4.207"
     id="path3191"
     inkscape:connector-curvature="0"
     style="fill:none;stroke:#000000;stroke-width:0.96096689" />
  <path
     d="m -119.91752,20.801766 h -69 l -5.012,-5.013 v -39.295 l 5.012,-5.012 h 69 l 5.013,5.012 v 39.295 l -5.013,5.013"
     id="path3193"
     inkscape:connector-curvature="0"
     style="fill:none;stroke:#000000;stroke-width:0.96096689" />
</svg>
