<?xml version="1.0" encoding="UTF-8" standalone="no"?>
<!-- Created with Inkscape (http://www.inkscape.org/) -->

<svg
   xmlns:dc="http://purl.org/dc/elements/1.1/"
   xmlns:cc="http://creativecommons.org/ns#"
   xmlns:rdf="http://www.w3.org/1999/02/22-rdf-syntax-ns#"
   xmlns:svg="http://www.w3.org/2000/svg"
   xmlns="http://www.w3.org/2000/svg"
   xmlns:sodipodi="http://sodipodi.sourceforge.net/DTD/sodipodi-0.dtd"
   xmlns:inkscape="http://www.inkscape.org/namespaces/inkscape"
   version="1.1"
   id="svg465"
   width="951.30688"
   height="407.18164"
   viewBox="0 0 951.30688 407.18164"
   sodipodi:docname="header.svg"
   inkscape:version="0.92.3 (2405546, 2018-03-11)">
  <metadata
     id="metadata471">
    <rdf:RDF>
      <cc:Work
         rdf:about="">
        <dc:format>image/svg+xml</dc:format>
        <dc:type
           rdf:resource="http://purl.org/dc/dcmitype/StillImage" />
        <dc:title></dc:title>
      </cc:Work>
    </rdf:RDF>
  </metadata>
  <defs
     id="defs469" />
  <sodipodi:namedview
     pagecolor="#ffffff"
     bordercolor="#666666"
     borderopacity="1"
     objecttolerance="10"
     gridtolerance="10"
     guidetolerance="10"
     inkscape:pageopacity="0"
     inkscape:pageshadow="2"
     inkscape:window-width="1920"
     inkscape:window-height="983"
     id="namedview467"
     showgrid="false"
     inkscape:zoom="0.99742298"
     inkscape:cx="690.94091"
     inkscape:cy="138.36365"
     inkscape:window-x="0"
     inkscape:window-y="27"
     inkscape:window-maximized="1"
     inkscape:current-layer="svg465" />
  <path
     style="fill:#000000"
     d="M 821.35418,405.15163 C 807.66113,402.05764 791.07182,394.49555 782,387.21238 c -3.01878,-2.42359 -2.17919,-2.50284 5,-0.47197 13.8578,3.92014 41.26251,2.7232 58.01073,-2.53369 12.21852,-3.83512 12.57885,-5.94077 0.48493,-2.8338 -34.31383,8.81533 -83.42912,-2.32609 -134.89069,-30.59888 -16.73177,-9.19238 -18.76812,-10.53164 -30.29557,-19.92475 -7.1906,-5.85924 -7.1906,-5.85924 -25.5,-6.7914 C 621.64843,322.36962 556.37486,318.14247 501.5,314.12948 329.72307,301.56747 227.597,297.91837 157.25,301.82895 146,302.45433 146,302.45433 145.99766,315.55758 c -0.002,13.10324 -0.002,13.10324 -52.882692,19.94657 C 64.03077,339.26799 31.96932,343.64531 21.8673,345.23153 11.76528,346.81776 2.7125,348.12576 1.75,348.1382 0.09759,348.1596 0,343.65652 0,267.38949 c 0,-80.77133 0,-80.77133 15.25,-83.0735 21.71721,-3.27846 20.52987,-2.80761 15.77165,-6.25445 -4.37689,-3.1706 -4.55405,-3.63838 -6.01199,-15.87449 -1.65175,-13.86263 -1.53713,-14.59496 2.74034,-17.50765 3.75,-2.55352 3.75,-2.55352 4.91099,9.54123 1.43672,14.9673 1.84129,16.60345 4.45079,18.00001 2.07667,1.1114 2.08348,1.06337 1.23819,-8.72113 -2.09339,-24.23165 -0.8775,-29.46616 7.91408,-34.07065 4.73225,-2.47847 4.73225,-2.47847 8.23082,0.59332 3.22341,2.83018 3.35177,3.15035 1.63209,4.07069 C 54.50571,134.96054 51,145.2787 51,149.18276 c 0,4.59936 5.53237,0.029 7.28947,-6.02194 2.73698,-9.42537 11.493068,-11.02118 14.521378,-2.64655 3.79149,10.48519 7.48673,8.68208 6.60067,-3.22083 -1.24644,-16.74407 3.19563,-34.22787 14.08443,-55.435787 7.011652,-13.656441 7.072302,-16.235871 0.28756,-12.228025 -3.77786,2.231639 -3.40071,0.31313 1.76313,-8.968811 10.572112,-19.003248 27.521222,-30.880852 54.384852,-38.111845 13.19564,-3.551924 16.30448,-7.527254 7.04454,-9.007979 C 144.83401,11.599406 176.15506,5.4900209 193,6.5142709 c 29.0414,1.76585 50.95784,23.6624021 38.48376,38.4488431 -2.23805,2.652929 -25.06637,-16.750969 -30.11374,-25.596452 -6.42334,-11.2568731 -13.5931,6.355338 -8.81579,21.655629 0.69734,2.233374 0.56055,2.322647 -2.52153,1.645707 C 182.73157,41.064402 162,42.110494 162,44.082497 c 0,0.410237 2.44599,2.430505 5.43554,4.489485 20.1202,13.857312 19.47244,18.992292 -3.78518,30.006158 -15.80718,7.485636 -22.48924,12.007062 -26.50333,17.933507 -4.22349,6.235603 -4.69834,8.036983 -1.91189,7.252893 17.40764,-4.898363 38.40054,-0.71319 32.37027,6.45337 -4.74442,5.63844 -5.82184,14.6217 -2.81164,23.44291 1.56274,4.57952 90.18825,8.6023 90.20322,4.09439 0.0301,-9.0665 -22.79887,-16.04477 -34.74699,-10.62132 -4.88202,2.21603 -4.89146,2.20462 -2.33057,-2.81514 2.96425,-5.81041 10.63379,-13.75962 17.16501,-17.79091 7.19678,-4.44211 7.53448,-3.6477 -2.72228,-6.40406 -8.59878,-2.310813 -8.62775,-2.329483 -6.40645,-4.128183 2.73175,-2.21203 16.80568,-6.766377 23.3235,-7.547511 2.62856,-0.315023 5.06231,-1.03085 5.40834,-1.590726 0.91378,-1.478531 -17.81226,-0.12921 -25.15303,1.812422 C 218.03318,91.711886 200.99316,101.95482 207,102.21552 c 11.62803,0.50466 16.38303,3.57115 9.04307,5.83184 -11.50032,3.54209 -29.38065,13.21652 -38.41864,20.787 -3.7725,3.15995 -3.94355,2.78173 -2.16133,-4.77899 4.80973,-20.40426 -1.26751,-27.571533 -22.63197,-26.691283 C 146.87401,97.609537 142,97.692777 142,97.549077 c 0,-1.0049 18.55778,-12.198341 28,-16.888673 22.15585,-11.005698 23.12995,-14.587946 7.87903,-28.97489 -8.12644,-7.66607 -3.25589,-8.690129 18.87228,-3.967999 3.25131,0.693827 3.25131,0.693827 1.65881,-3.117571 -4.61349,-11.041622 -2.60399,-27.725817 2.36644,-19.647832 4.61403,7.498749 10.24483,12.584686 23.22344,20.97623 22.45362,14.517777 25.89374,17.167219 30.815,23.732475 2.24877,3 2.24877,3 0.68226,-0.95499 -2.26013,-5.706187 -8.72292,-13.86465 -13.9653,-17.629443 -8.72399,-6.265095 -8.90207,-31.840764 -0.3355,-48.1847101 2.21757,-4.230857 2.21757,-4.230857 3.03339,2.769143 1.72915,14.8366591 8.67851,25.1429481 33.71417,50.0000001 9.97114,9.9 19.76263,20.3625 21.75888,23.25 4.39607,6.35877 5.05357,6.660294 2.18058,1 -4.24898,-8.371226 -8.4157,-13.472975 -23.48082,-28.75 -18.36088,-18.619146 -19.18021,-20.354046 -16.4389,-34.808884 2.03323,-10.7212201 4.22894,-13.5530621 5.18809,-6.6911851 1.94493,13.9143061 10.38494,26.3470931 33.26373,49.0000691 19.30268,19.112164 25.72239,29.928566 26.12846,44.023193 0.19084,6.6238 0.40859,7.22944 3.82915,10.65 1.99475,1.99475 3.62681,4.57181 3.62681,5.72681 0,3.43852 2.92131,2.46441 8.08002,-2.6943 5.55478,-5.55478 6.10904,-5.00858 4.77989,4.7104 -0.70168,5.13078 -2.88385,11.77917 -6.43061,19.59206 -0.29406,0.64774 13.57916,1.82727 38.80651,3.29941 21.59531,1.26018 60.18919,3.80594 85.76419,5.65723 46.5,3.36598 46.5,3.36598 53,-2.88322 28.79578,-27.68471 46.49086,-26.65822 89.6441,5.20024 10.98824,8.11222 10.98824,8.11222 38.92207,9.63609 71.04885,3.87591 170.44703,4.64187 212.43383,1.637 23.1038,-1.65347 54.31765,-4.8238 69.5897,-7.06809 7.436,-1.09275 13.71554,-1.98682 13.95453,-1.98682 0.23899,0 0.5518,-19.36758 0.69515,-43.03906 C 943.5,68.082705 943.5,68.082705 947.25,76.956564 c 3.98694,9.434541 5.57168,20.994993 2.2818,16.645383 -1.2932,-1.709773 -1.47198,14.908633 -1.5,139.431313 -0.0282,125.5534 0.13604,141.23315 1.4682,140.12756 3.03665,-2.5202 1.75153,6.73519 -2.25,16.20436 -3.75,8.87396 -3.75,8.87396 -4.01116,-32.24221 -0.26115,-41.11616 -0.26115,-41.11616 -3,-40.55254 -26.2587,5.40373 -85.5841,9.63875 -146.63075,10.46743 -45.89191,0.62296 -45.89191,0.62296 -36.20927,8.36422 27.51528,21.99843 65.35043,37.76451 83.61004,34.84069 C 852.75657,368.36166 874,354.21098 874,348.26669 c 0,-0.45153 2.79435,-1.11302 6.20967,-1.47 13.5387,-1.41507 29.5619,-7.44297 40.4638,-15.2224 7.19082,-5.13126 7.14741,-5.17675 3.97063,4.16138 -9.12522,26.82352 -23.90305,41.38099 -49.6441,48.90382 -14.79516,4.3239 -14.26972,9.3619 1,9.58816 6.5,0.0963 6.5,0.0963 3,1.61978 -8.38097,3.64802 -14.84302,3.76565 -40.5,0.73722 -10.10937,-1.19326 -10.95996,3.20926 -1.56575,8.10408 5.96242,3.1067 -2.73573,3.36513 -15.58007,0.4629 z M 17.76654,340.11766 c 7.0034,-1.12374 32.91188,-4.68967 57.574398,-7.92428 24.662522,-3.23461 45.014312,-6.05448 45.226202,-6.26637 6.27692,-6.27691 -42.889542,-3.05788 -98.31714,6.43703 -15.89574,2.72299 -28.70023,9.79678 -17.73346,9.79678 0.2841,0 6.2466,-0.91942 13.25,-2.04316 z m 8.95939,-11.36226 c 11.42574,-1.87298 28.30938,-4.44017 37.5192,-5.70487 9.209818,-1.2647 16.409818,-2.60927 15.999998,-2.98793 C 79.835308,319.68394 70.387498,318.0891 59.25,316.51852 39,313.66291 39,313.66291 39,254.91187 c 0,-33.86273 -0.37877,-58.75105 -0.89413,-58.75105 -0.49176,0 -8.18941,1.125 -17.10587,2.5 -8.91647,1.375 -16.38911,2.5 -16.60588,2.5 -0.21677,0 -0.39412,29.475 -0.39412,65.5 0,41.92312 0.35129,65.5 0.97593,65.5 0.53676,0 10.32426,-1.53244 21.75,-3.40542 z M 140,312.532 c 0,-9.62882 0,-9.62882 -10.25,-8.93196 -24.0843,1.63741 -66.21488,6.42924 -65.22553,7.41859 0.62471,0.62471 67.61752,10.84604 72.22553,11.01971 3.25,0.12248 3.25,0.12248 3.25,-9.50634 z m 722.5,6.7276 c 32.59616,-2.56155 70.06454,-6.75809 78.25,-8.76417 2.19089,-0.53694 3.59935,-8.35324 1.5,-8.32426 -0.4125,0.006 -5.81262,0.89625 -12.00027,1.979 C 875.1801,313.78663 767.0041,316.58558 659.5,311.15556 601.78659,308.24047 550.28243,304.70794 484.5,299.15278 312.45793,284.62428 170.49488,283.44 71.499998,295.70749 44.37999,299.06821 45,298.88229 45,303.65379 c 0,4.21857 0,4.21857 7.72506,2.87522 91.63119,-15.93422 202.50431,-15.39762 454.77494,2.20102 110.35675,7.69859 135.57274,9.24165 186,11.38204 27.02808,1.1472 151.54644,0.51911 169,-0.85247 z M 815,310.13185 c 50.64318,-1.43325 86.74529,-4.27656 114.84937,-9.04527 6.24216,-1.05917 11.75466,-1.92576 12.25,-1.92576 0.52474,0 0.90063,-26.55513 0.90063,-63.625 0,-63.625 0,-63.625 -3.25,-62.94589 -73.45277,15.34836 -243.68092,13.50878 -456.25,-4.9305 C 392.34201,159.75194 273,153.72719 273,157.03275 c 0,1.70171 5.03674,3.36587 8.25,2.72583 10.87432,-2.16601 -8.24998,13.00852 -21.1815,16.80686 -10.72439,3.15005 -11.57103,2.41791 -4.9085,-4.24462 6.921,-6.921 7.32656,-8.29459 2.09,-7.07855 -10.06094,2.33638 -11.90017,1.34766 -7.12736,-3.83145 4.37736,-4.75 4.37736,-4.75 -26.62264,-5.06271 -69.09206,-0.69695 -156.748061,5.36033 -158.8686,10.97828 -1.27148,3.36853 -1.75051,3.46528 -4.1314,0.83443 -1.81993,-2.011 -8.5,-2.89287 -8.5,-1.12212 0,0.48283 0.70787,2.57204 1.57304,4.64269 1.63087,3.90323 -0.38329,4.50892 -6.68532,2.01037 -1.47121,-0.58329 -1.62966,4.74639 -1.81095,60.91492 -0.16832,52.14853 0.0149,61.55414 1.1994,61.55414 0.76895,0 5.76961,-0.65623 11.11258,-1.4583 C 130.26202,283.7631 258.37137,281.62907 386,289.22854 c 60.75876,3.6178 65.2611,3.92441 94,6.40141 53.67962,4.62664 84.19408,6.88967 128,9.4928 46.04988,2.73648 77.03625,4.0931 113.5,4.96914 46.82547,1.12499 55.03709,1.12849 93.5,0.04 z M 21.5,195.66851 c 8.8,-1.35574 16.3375,-2.47459 16.75,-2.48634 0.4125,-0.0117 0.75,-1.56806 0.75,-3.45848 0,-3.31491 -0.11557,-3.41914 -3.25,-2.93117 -34.08761,5.30674 -31.22029,4.56887 -31.56336,8.12247 -0.17235,1.7852 0.0526,3.23968 0.5,3.23217 0.44735,-0.008 8.01336,-1.1229 16.81336,-2.47865 z M 865,178.23247 c 57.99118,-4.01743 78,-7.52552 78,-13.67554 0,-2.41786 -0.26037,-4.39611 -0.57861,-4.39611 -0.31823,0 -8.75573,1.09425 -18.75,2.43167 C 828.7307,175.29731 735.50477,174.31368 505,158.17506 325.91603,145.63664 329.40435,145.71491 328.08465,154.2054 c -0.0466,0.29952 12.37596,1.11035 27.6056,1.80184 36.59234,1.66145 74.60102,4.29857 131.80975,9.14521 79.47462,6.73299 143.02433,10.87677 199.5,13.00848 15.675,0.59167 32.325,1.22172 37,1.40012 18.3806,0.7014 126.38781,-0.31629 141,-1.32858 z M 56.65257,159.4073 c -0.69836,-4.30352 -0.56523,-4.1827 -3.90257,-3.5416 -5.20262,0.99942 -3.89002,8.26282 1.35412,7.49315 2.94272,-0.4319 3.08405,-0.65104 2.54845,-3.95155 z m 23.873658,0.77436 c 29.530742,-3.6263 76.499302,-6.1047 130.402962,-6.88099 47.73091,-0.6874 48.23732,-0.77502 45.59739,-7.88985 -1.31976,-3.55685 -105.89756,-0.68306 -156.02658,4.2876 -30.732402,3.04734 -33.500002,3.96308 -33.500002,11.08452 0,0.64934 5.23799,0.4165 13.52623,-0.60128 z M 325.3065,151.41082 c 0.2968,-1.5125 0.10264,-3.2 -0.43149,-3.75 -0.92123,-0.9486 -50.44537,-3.26965 -51.2983,-2.40419 -4.84248,4.91361 -1.40073,7.8476 9.56833,8.1567 39.10278,1.1019 41.5753,0.98446 42.16146,-2.00251 z m -2.8842,-11.59189 c -1.35605,-3.5338 -13.71232,-7.65811 -22.94339,-7.65811 -4.42264,0 -4.42264,0 -1.95078,-4.64894 6.05207,-11.38237 2.89499,-13.8731 -17.48714,-13.79619 -19.80312,0.0747 -29.87683,2.17568 -19.23693,4.01203 10.68886,1.8448 10.34447,1.5128 7.57411,7.30147 -6.5739,13.73619 -6.54318,13.7562 22.75432,14.82309 14.50213,0.52811 27.59089,1.03857 29.08613,1.13437 1.90765,0.12221 2.56501,-0.22612 2.20368,-1.16772 z m -21.79098,-37.9909 c -1.14102,-4.546203 -14.41461,-17.299444 -16.123,-15.490949 -2.28552,2.419458 6.78778,15.488949 11.99168,17.273219 4.64939,1.59414 4.94657,1.46594 4.13132,-1.78227 z M 164.98437,330.29904 c -6.56264,-6.56264 -0.32818,-17.76852 8.63416,-15.51911 3.58595,0.90001 3.10453,3.4755 -0.51436,2.75172 -2.13834,-0.42766 -3.44625,-0.0288 -5,1.525 -4.52871,4.52871 -1.26127,11.79453 4.89752,10.89061 2.41278,-0.35412 3.01566,-0.10901 2.78113,1.13072 -0.58576,3.0962 -7.416,2.60351 -10.79845,-0.77894 z m 14.6823,2.19511 c -1.87604,-1.87603 -0.68701,-17.33333 1.33333,-17.33333 1.61905,0 2,0.66667 2,3.5 0,3.41667 0.0952,3.5 4,3.5 3.90476,0 4,-0.0833 4,-3.5 0,-2.44444 0.45238,-3.5 1.5,-3.5 1.22222,0 1.5,1.66667 1.5,9 0,7.33333 -0.27778,9 -1.5,9 -1.08333,0 -1.5,-1.11111 -1.5,-4 0,-4 0,-4 -4,-4 -4,0 -4,0 -4,4 0,3.77083 -1.44792,5.21875 -3.33333,3.33333 z M 198,332.22477 c 0,-3.26985 6.50263,-17.06395 8.04406,-17.06395 1.63187,0 7.97595,13.34746 7.96132,16.75 -0.01,2.30532 -2.95986,1.27953 -3.59474,-1.25 -0.51596,-2.05578 -1.23391,-2.5 -4.04049,-2.5 -2.67014,0 -3.66096,0.54415 -4.5521,2.5 C 200.72661,333.05625 198,334.17313 198,332.22477 Z m 9.44316,-9.31395 c -0.78383,-2.55 -1.27489,-3.26992 -1.81893,-2.66667 -1.79538,1.99077 -1.57176,4.91667 0.37577,4.91667 1.7521,0 2.0108,-0.40333 1.44316,-2.25 z m 10.55684,1.25 c 0,-9 0,-9 4.92857,-9 7.28121,0 11.27931,5.9797 6.14286,9.18747 -1.8562,1.15921 -1.86235,1.30026 -0.16397,3.75847 3.23383,4.68058 3.3196,5.05406 1.16075,5.05406 -1.24275,0 -2.93933,-1.37317 -4.30902,-3.48762 C 222.83257,325.15523 221,325.15047 221,329.6608 c 0,2.44444 -0.45238,3.5 -1.5,3.5 -1.22222,0 -1.5,-1.66667 -1.5,-9 z m 8.81955,-3.75 c 0.27184,-1.91406 -0.13875,-2.25 -2.75,-2.25 -2.62871,0 -3.06955,0.36859 -3.06955,2.56642 0,3.50957 5.31723,3.22046 5.81955,-0.31642 z M 234,332.43814 c 0,-3.53894 6.73693,-17.29903 8.35061,-17.05602 1.45474,0.21908 8.64939,14.75224 8.64939,17.47175 0,1.48391 -3.29357,-0.24327 -4.18195,-2.19305 -0.88645,-1.94554 -1.88522,-2.5 -4.50332,-2.5 -2.66838,0 -3.56083,0.51709 -4.31473,2.5 -0.84502,2.22257 -4,3.62443 -4,1.77732 z m 9.98469,-8.52732 c -0.0222,-1.8152 -1.65294,-4.11228 -2.2055,-3.10676 -1.69611,3.08652 -1.62258,4.35676 0.25219,4.35676 1.08274,0 1.96173,-0.5625 1.95331,-1.25 z M 257.5,332.03179 c -8.82275,-4.93907 -2.97279,-20.37752 6.5734,-17.34767 2.61759,0.83079 2.54972,3.45241 -0.0716,2.76691 -3.40692,-0.89093 -7.00177,2.27247 -7.00177,6.16141 0,4.35921 2.22473,6.54838 6.65476,6.54838 2.36186,0 3.37744,0.40934 3.10127,1.25 -0.53783,1.63721 -6.70199,2.05076 -9.25603,0.62097 z m 16.5,-6.29765 c 0,-7.41154 -0.0534,-7.57332 -2.5,-7.57332 -1.55556,0 -2.5,-0.56667 -2.5,-1.5 0,-1.19048 1.44444,-1.5 7,-1.5 5.55556,0 7,0.30952 7,1.5 0,0.9262 -0.93958,1.5 -2.45619,1.5 -2.35501,0 -2.46829,0.29822 -2.75,7.2394 C 277.3435,336.49578 274,336.79007 274,325.73414 Z m 12.66667,6.76001 C 282.45,328.27748 286.48589,315.16082 292,315.16082 c 4.66667,0 6,0.33333 6,1.5 0,1.08333 -1.11111,1.5 -4,1.5 -3.33333,0 -4,0.33333 -4,2 0,1.61905 0.66667,2 3.5,2 2.44444,0 3.5,0.45238 3.5,1.5 0,1.04762 -1.05556,1.5 -3.5,1.5 -3.06667,0 -3.5,0.30952 -3.5,2.5 0,2.25 0.4,2.5 4,2.5 2.88889,0 4,0.41667 4,1.5 0,1.55815 -9.8819,2.28476 -11.33333,0.83333 z m 16,0 c -3.92978,-3.92977 -0.24748,-17.33333 4.7619,-17.33333 7.95033,0 11.20694,4.36449 6.65391,8.91752 -1.89002,1.89002 -1.88216,1.9653 0.54832,5.25 3.6958,4.99472 0.0537,5.40669 -3.92734,0.44423 -3.63,-4.52489 -4.70346,-4.5504 -4.70346,-0.11175 0,3.29395 -1.55282,4.61385 -3.33333,2.83333 z m 9.15288,-12.08333 c 0.27184,-1.91406 -0.13875,-2.25 -2.75,-2.25 -2.62871,0 -3.06955,0.36859 -3.06955,2.56642 0,3.50957 5.31723,3.22046 5.81955,-0.31642 z m 15.18045,3.75 c 0,-11.1812 1.50887,-11.83266 7.5,-3.23815 4,5.73815 4,5.73815 4.2999,-0.0118 0.54244,-10.40008 3.2001,-7.64008 3.2001,3.32332 0,11.08482 -1.33105,11.53957 -7.49155,2.55948 C 330.5,320.95056 330.5,320.95056 330.20228,327.05569 329.68168,337.73134 327,335.3071 327,324.16082 Z m 18.99462,7.75 c -0.0146,-3.40254 6.32945,-16.75 7.96132,-16.75 1.54143,0 8.04406,13.7941 8.04406,17.06395 0,1.94836 -2.72661,0.83148 -3.81805,-1.56395 -0.89114,-1.95585 -1.88196,-2.5 -4.5521,-2.5 -2.80658,0 -3.52453,0.44422 -4.04049,2.5 -0.63488,2.52953 -3.58482,3.55532 -3.59474,1.25 z m 9.44854,-9 c -0.78383,-2.55 -1.27489,-3.26992 -1.81893,-2.66667 -1.79538,1.99077 -1.57176,4.91667 0.37577,4.91667 1.7521,0 2.0108,-0.40333 1.44316,-2.25 z m 10.55684,1.25 c 0,-11.64893 3.25683,-13.37128 6.40416,-3.38679 1.95023,6.18683 2.45056,6.10068 5.01326,-0.86321 3.33029,-9.04973 6.58258,-6.94991 6.58258,4.25 0,11.24493 -2.68768,13.55302 -3.20228,2.75 -0.29772,-6.25 -0.29772,-6.25 -2.69428,0.0345 -2.86249,7.50628 -3.906,7.451 -6.794,-0.35989 -2.19055,-5.92459 -2.19055,-5.92459 -2.25,0.32541 -0.0462,4.86247 -0.39245,6.25 -1.55944,6.25 -1.22222,0 -1.5,-1.66667 -1.5,-9 z m 23,0.0499 c 0,-9.0499 0,-9.0499 5.5,-9.0499 4.22222,0 5.5,0.34848 5.5,1.5 0,1.08333 -1.11111,1.5 -4,1.5 -3.33333,0 -4,0.33333 -4,2 0,1.61905 0.66667,2 3.5,2 2.44444,0 3.5,0.45238 3.5,1.5 0,1.04762 -1.05556,1.5 -3.5,1.5 -3.06667,0 -3.5,0.30952 -3.5,2.5 0,2.30303 0.36111,2.5 4.58333,2.5 6.87745,0 5.22283,2.42257 -1.91233,2.7999 -5.671,0.29991 -5.671,0.29991 -5.671,-8.75 z M 658.45455,112.70627 c -1.35,-1.35 -2.50779,-3.0375 -2.57286,-3.75 -0.0651,-0.7125 -0.40258,0.0228 -0.75,1.63393 C 654.1817,114.99567 651,111.49648 651,106.04623 c 0,-3.48531 -0.61236,-4.53582 -5,-8.577533 -2.75,-2.53318 -5,-5.36901 -5,-6.301844 0,-0.932833 -0.9,-2.51055 -2,-3.506036 -1.1,-0.995486 -1.96447,-2.527731 -1.92105,-3.404988 0.0512,-1.03372 0.25644,-1.155132 0.58333,-0.345012 0.70258,1.741175 2.33772,1.56631 2.33772,-0.25 0,-2.045691 -3.63013,-1.906246 -4.42688,0.17005 -0.35247,0.918528 -0.25529,1.931028 0.21595,2.25 1.68857,1.142941 2.06624,3.955139 0.68511,5.101378 -2.259,1.874812 -3.8634,0.611627 -3.92084,-3.086981 -0.0468,-3.013964 -0.40071,-3.474218 -2.8906,-3.759289 -2.73341,-0.312953 -2.77348,-0.395305 -1.09501,-2.25 1.10373,-1.219602 1.29732,-1.925158 0.52824,-1.925158 -0.6677,0 -0.93907,-0.444846 -0.60305,-0.988546 0.35708,-0.577758 -0.0688,-0.727703 -1.02483,-0.360836 -0.95228,0.365424 -1.21135,0.890021 -0.62002,1.255483 0.55867,0.345275 -0.7536,1.646089 -2.91616,2.890696 C 620,85.220536 620,85.220536 620,82.690677 c 0,-2.078924 -0.49017,-2.540342 -2.75,-2.588667 -2.5125,-0.05373 -2.58862,-0.161685 -0.88144,-1.25 5.61479,-3.579371 6.28573,-4.570583 4.19031,-6.190527 -1.87206,-1.447269 -1.8487,-1.500666 0.65638,-1.500666 2.19135,0 2.5108,-0.351818 2.04298,-2.25 -0.55454,-2.25 -0.55454,-2.25 1.84362,-0.148766 3.78885,3.319744 5.34916,4.01645 4.59528,2.051873 -1.51985,-3.960646 0.45083,-8.184275 2.10353,-4.508384 1.50856,3.355277 1.50856,3.355277 2.23563,0.355277 0.3999,-1.65 0.78032,-2.254711 0.8454,-1.343801 0.0651,0.910909 2.33849,3.95968 5.05204,6.775046 2.71355,2.815366 5.07627,6.120076 5.25049,7.343801 0.18793,1.320086 0.9761,2.177163 1.938,2.107443 1.75315,-0.127072 1.50274,2.95296 -0.44154,5.430699 -0.83741,1.067175 -1.19434,1.02034 -1.90526,-0.25 -0.48114,-0.859753 -1.50595,-1.563188 -2.27736,-1.563188 -0.95959,0 -0.6708,0.789584 0.91436,2.5 1.27431,1.375 2.8759,2.5 3.55909,2.5 0.68319,0 3.50287,1.8 6.26596,4 5.72868,4.56124 7.48506,4.92429 8.6456,1.78705 1.15085,-3.11105 3.5785,1.23778 2.68291,4.806093 -0.70252,2.79907 0.11868,3.01646 3.21151,0.85016 2.67975,-1.876973 2.78485,-3.155473 0.47251,-5.747463 -1.6961,-1.90122 -1.673,-1.93861 0.75,-1.21381 9.17141,2.74349 9.403,12.779063 0.35745,15.489763 -2.85745,0.8563 -2.85745,0.8563 -0.10745,0.94226 3.44409,0.10764 3.53427,1.40758 0.20295,2.92543 -4.15307,1.89227 -8.30003,1.40435 -10.9984,-1.29403 z M 641,79.696001 c 0,-0.805649 -0.9,-1.946482 -2,-2.535184 -2.41738,-1.29374 -2.6774,0.179742 -0.42857,2.428571 C 640.5221,81.540063 641,81.561042 641,79.696001 Z m -16.5,32.875039 c -1.65,-0.89352 -3.58027,-2.36166 -4.28949,-3.26253 -0.96928,-1.23122 -1.47744,-1.33382 -2.04642,-0.41319 -2.16111,3.49674 -5.76051,-9.168103 -4.1759,-14.693313 0.56021,-1.95337 0.46969,-3.055231 -0.27131,-3.30223 -1.4637,-0.487901 0.7497,-5.946246 3.3745,-8.321653 C 618.93797,80.906978 619,80.975293 619,84.680143 c 0,3.829302 0,3.829302 2.25,1.803754 3.78733,-3.409523 4.50631,-3.508076 3.96007,-0.542818 -0.4864,2.640371 -0.4434,2.66867 1.4732,0.969738 3.24949,-2.880447 4.48609,-2.075989 2.30577,1.5 -6.48573,10.63737 1.98869,20.282123 10.81476,12.308293 5.87447,-5.307233 11.53331,-1.016853 6.63832,5.03299 -6.36251,7.86358 -15.03574,10.55895 -21.94212,6.81894 z M 382.91357,101.2051 C 374.77476,98.738627 373,95.282797 373,81.901329 c 0,-9.876999 -0.078,-10.229259 -2.75,-12.416985 -2.75,-2.251601 -2.75,-2.251601 3.91821,-2.287564 8.38534,-0.04522 10.12772,0.542565 8.82484,2.977029 -2.38204,4.450877 0.23666,22.456018 3.31742,22.809268 5.17918,0.59386 5.80846,-0.94497 5.61733,-13.736579 -0.2261,-15.13106 15.97097,-18.163654 29.1349,-5.454957 6.9373,6.6974 6.9373,6.6974 6.9373,2.041812 0,-3.572581 -0.46525,-4.946142 -2,-5.904609 -3.57503,-2.232642 -2.15532,-2.768459 7.25,-2.736247 9.25,0.03168 9.25,0.03168 6.5,2.083407 C 437,71.32763 437,71.32763 437,86.975462 c 0,15.647838 0,15.647838 -10,5.685355 -10,-9.962477 -10,-9.962477 -10,-2.263176 0,7.370896 0.1173,7.762936 2.75,9.191206 2.59241,1.406403 2.17695,1.491893 -7.25,1.491893 -9.42695,0 -9.84241,-0.0855 -7.25,-1.491893 3.3354,-1.80949 4.39758,-26.815771 1.25,-29.42803 -3.1778,-2.637343 -4.30953,0.392379 -4.66523,12.489243 -0.46671,15.872147 -6.91334,22.19402 -18.9212,18.55504 z m 66.4875,-0.88638 c -18.54547,-8.708901 -8.25698,-35.526324 12.53268,-32.667015 6.30245,0.866809 6.66958,1.224659 7.4542,7.265908 0.68274,5.256795 0.68274,5.256795 -2.60261,3.253738 -4.46264,-2.72085 -12.0696,-2.726269 -14.78534,-0.01053 -5.76676,5.766761 0.42218,18.07764 7.68662,15.29001 2.2373,-0.85853 1.60054,-6.975471 -0.90913,-8.733306 -2.09612,-1.468185 -1.79649,-1.556704 5.26944,-1.556704 7.49194,0 7.49194,0 7.18181,7.25 -0.3619,8.46029 0.4847,10.508909 3.64409,8.81806 3.18186,-1.70288 3.29306,-27.322999 0.12717,-29.300133 -3.73779,-2.334287 -2.01446,-2.767927 11,-2.767927 11.71009,0 13.00109,0.173641 13.01101,1.75 0.006,0.9625 0.29834,3.489347 0.64953,5.615215 0.60815,3.681259 0.53937,3.812138 -1.44526,2.75 C 494.3011,75.181232 487,75.837836 487,78.284651 c 0,1.962958 0.4166,2.089282 5.5,1.667727 5.5,-0.456102 5.5,-0.456102 5.5,4.208443 0,4.664545 0,4.664545 -5.5,4.208443 -5.38511,-0.446575 -5.5,-0.401292 -5.5,2.167727 0,3.16428 5.49391,3.69778 11.63892,1.130232 3.57468,-1.493597 3.57468,-1.493597 2.91955,1.116668 -0.36033,1.43564 -0.92183,3.94371 -1.24778,5.57349 -0.59265,2.963239 -0.59265,2.963239 -16.70167,2.838939 -8.85996,-0.0684 -19.25902,0.1393 -23.10902,0.46147 -5.67701,0.47507 -7.77469,0.22199 -11.09893,-1.33907 z m 66.72173,0.84002 c -20.50243,-4.840603 -15.52445,-33.957699 5.81148,-33.992346 15.35249,-0.02493 23.0224,18.273038 12.19707,29.098363 -5.06957,5.069573 -10.73906,6.610303 -18.00855,4.893983 z m 10.56485,-10.247923 c 5.7687,-6.374153 2.42168,-14.772989 -5.87191,-14.734687 C 515.5963,76.20023 513,79.17811 513,85.14053 c 0,6.888124 9.17536,10.756167 13.68765,5.770287 z M 562,93.052017 c -9.5,-8.83698 -9.5,-8.83698 -9.80042,-2.156426 -0.26893,5.980086 -0.0592,6.866156 2,8.450656 2.25025,1.731493 2.09574,1.770583 -7.08444,1.792333 -9.38486,0.0222 -9.38486,0.0222 -6.75,-2.050343 4.16362,-3.2751 4.08426,-25.502526 -0.10492,-29.386951 -2.73978,-2.540469 -2.73978,-2.540469 2.66994,-2.540469 5.31273,0 5.53665,0.121014 12.48978,6.75 7.08006,6.75 7.08006,6.75 7.39923,2.261024 0.27849,-3.916773 -0.0402,-4.776552 -2.5,-6.745033 C 557.5,67.170751 557.5,67.170751 567.5,67.197588 c 9.01051,0.02418 9.80793,0.172112 8.05887,1.495032 -1.06762,0.807509 -2.29397,1.468197 -2.72523,1.468197 -0.43125,0 -0.90774,7.138838 -1.05887,15.864086 C 571.5,101.88899 571.5,101.88899 562,93.052017 Z m 20.5,8.453863 c -6.98351,-1.47678 -6.5,-0.92898 -6.5,-7.364113 0,-6.804659 0.011,-6.813905 4.31672,-3.618607 C 585.75513,94.559057 591,94.844667 591,91.104928 c 0,-1.359327 -1.46411,-2.30343 -5.58816,-3.603422 -18.83526,-5.937294 -10.4055,-23.689421 9.37094,-19.734133 2.77202,0.554404 3.06855,1.005806 3.44881,5.25 0.52296,5.836952 0.55921,5.803795 -4.0653,3.718431 -3.97777,-1.793724 -9.7837,-1.839491 -9.51272,-0.07499 0.0845,0.55 2.55947,1.781852 5.5,2.737448 18.38986,5.976221 11.40964,26.138858 -7.65357,22.107618 z m 210.15519,-0.80371 c -19.03594,-6.787253 -13.44299,-33.852846 6.91053,-33.441673 8.63682,0.174477 9.79709,0.858442 10.7118,6.314459 0.94888,5.659829 0.67693,6.167036 -2.41835,4.510492 C 798.37029,73.007151 791,76.071534 791,85.095076 c 0,5.192756 2.67147,8.065741 7.5,8.065741 4.43193,0 5.21906,-5.722057 1.25,-9.086884 -2.24662,-1.904603 -2.23889,-1.907098 5.14587,-1.660293 7.39588,0.247177 7.39588,0.247177 7.39591,8.747177 4e-5,10.197443 -7.532,13.857233 -19.63659,9.541353 z m 34,0 c -19.59642,-6.987083 -13.14389,-34.997278 7.65212,-33.217594 6.87089,0.587998 11.63553,3.450554 14.6394,8.795219 7.89117,14.040437 -6.66911,29.992535 -22.29152,24.422375 z M 838.92742,90.525958 C 843.8336,84.288759 840.47981,76.160817 833,76.160817 c -5.40527,0 -8,2.654907 -8,8.185549 0,8.239971 9.12275,12.287731 13.92742,6.179592 z m 53.81154,10.675482 c -4.67604,-0.90682 -4.35463,-0.44083 -5.02865,-7.290623 -0.64442,-6.548889 -0.58208,-6.598411 4.23594,-3.365186 4.21964,2.831676 8.04225,3.858366 9.95777,2.674506 2.49252,-1.540466 0.40146,-3.679957 -5.81033,-5.944889 -14.27011,-5.203142 -11.45935,-20.114431 3.79155,-20.114431 8.30177,0 10.11476,1.160638 10.11476,6.475249 0,4.932891 -0.28502,5.148423 -4,3.024751 -1.375,-0.786021 -4.1875,-1.445075 -6.25,-1.464565 -5.84075,-0.05519 -4.68234,2.377449 2.0194,4.240699 7.58086,2.107666 10.7306,5.402198 10.7306,11.223866 0,8.67527 -7.83354,12.853723 -19.76104,10.540623 z M 336.25,99.588847 c 4.03618,-2.18967 4.30594,-23.617668 0.34419,-27.339547 -5.92282,-5.564199 -2.23741,-6.53443 17.10535,-4.503197 17.25763,1.812269 22.38302,23.578241 7.33857,31.164714 -5.67563,2.862063 -30.04246,3.528563 -24.78811,0.67803 z m 22,-9.5084 c 4.20006,-5.138952 0.52711,-13.91963 -5.82258,-13.91963 -3.42742,0 -3.42742,0 -3.42742,8.630842 0,9.146938 4.15507,11.522648 9.25,5.288788 z m 328.00483,9.09456 c 4.3959,-3.45782 4.22075,-22.264001 -0.25483,-27.361409 -4.30046,-4.897955 -3.95989,-5.185492 5.74986,-4.854503 27.04314,0.921856 37.87769,18.175077 19.86901,31.639932 -4.36921,3.266803 -29.51068,3.837733 -25.36404,0.57598 z m 20.8692,-8.626434 c 5.00634,-4.530678 1.15331,-14.387756 -5.62403,-14.387756 -3.5,0 -3.5,0 -3.5,8.630842 0,9.111348 3.19196,11.125358 9.12403,5.756914 z M 719.75,99.486397 c 3.28745,-2.29321 3.50088,-27.527443 0.25,-29.557653 -3.43874,-2.147529 -2.24042,-2.769371 5.25,-2.724376 18.02264,0.108263 24.7922,5.814141 18.71808,15.776961 -1.92154,3.151729 1.57402,11.182248 4.86595,11.178788 1.40442,-0.001 10.19594,-23.369331 9.17585,-24.389419 -2.10075,-2.100749 -0.81955,-2.696162 5.18061,-2.407598 6.19049,0.297717 6.19049,0.297717 11.98762,14.720089 3.18842,7.932305 6.78114,15.469808 7.98383,16.749998 2.18669,2.327633 2.18669,2.327633 -6.11007,2.327633 -7.22994,0 -8.13805,-0.19124 -7.06244,-1.487273 2.40736,-2.90069 0.44642,-4.51273 -5.48943,-4.51273 -5.93585,0 -7.89679,1.61204 -5.48943,4.51273 1.07697,1.297683 0.0837,1.487273 -7.79197,1.487273 -9.02629,0 -9.02629,0 -13.87244,-6.000633 -4.84616,-6.000635 -4.84616,-6.000635 -5.16514,-1.76507 -0.25464,3.38126 0.12068,4.59159 1.86079,6.00064 2.11868,1.715603 1.91748,1.763593 -7.18103,1.712613 -8.80129,-0.0493 -9.2263,-0.14626 -7.11078,-1.621973 z M 767,86.81004 c 0,-2.216542 -2.41935,-6.641048 -3.02001,-5.523005 -2.28705,4.256962 -2.16246,5.873782 0.45262,5.873782 1.41207,0 2.56739,-0.15785 2.56739,-0.350777 z m -31.18664,-8.407412 c 0.26191,-2.709571 -0.0254,-3.241811 -1.75,-3.241811 -1.69952,0 -2.06336,0.630092 -2.06336,3.573324 0,4.831607 3.34237,4.541038 3.81336,-0.331513 z M 851.75,99.486397 c 2.14426,-1.49577 2.25,-2.20243 2.25,-15.037259 0,-12.743719 -0.12096,-13.568643 -2.25,-15.344759 -2.25,-1.877023 -2.25,-1.877023 3.27889,-1.910293 5.492,-0.03305 5.57187,0.0101 11.97111,6.466731 7.60212,7.670302 8,7.784073 8,2.287565 0,-3.382875 -0.54156,-4.655847 -2.75,-6.464038 -2.75,-2.251601 -2.75,-2.251601 6.5,-2.287564 8.60532,-0.03346 11.79756,1.020696 7.35797,2.429768 -2.66871,0.847016 -3.07884,3.270499 -3.09432,18.284269 -0.0162,15.765013 0.75842,15.475203 -10.74486,4.01975 C 863,82.700318 863,82.700318 863,89.857987 c 0,6.54147 0.22683,7.3361 2.63486,9.23025 2.63486,2.072583 2.63486,2.072583 -6.75,2.020133 -8.82317,-0.0493 -9.2502,-0.14639 -7.13486,-1.621973 z M 650.48012,90.138846 c -1.78805,-1.975771 -1.75161,-2.106668 1.59501,-5.728682 1.88368,-2.038691 2.41237,-2.85906 1.17487,-1.823041 -1.31064,1.09725 -2.25,1.395339 -2.25,0.713996 0,-1.578686 6.93864,-8.966187 6.97294,-7.424027 0.0176,0.789704 1.34226,0.451809 3.77706,-0.963433 2.60656,-1.51508 3.36196,-1.693932 2.47739,-0.586563 -1.1345,1.420242 -0.79977,1.539847 3.08428,1.102059 7.70251,-0.868184 12.68105,2.676234 6.18833,4.405713 -2.75,0.732523 -5.98127,1.104795 -7.1806,0.82727 -3.76513,-0.871248 -7.2772,1.297907 -10.50282,6.486832 -3.63393,5.845787 -3.04866,5.517867 -5.33646,2.989876 z M 920,87.491697 c -7.93459,-3.096829 -9.15157,-15.132661 -1.90881,-18.878038 8.74813,-4.52383 17.38624,2.612485 14.74428,12.180876 -1.35306,4.900386 -8.23667,8.492048 -12.83547,6.697162 z m 7.66323,-3.807551 C 932.37228,80.3858 931.27032,72.147905 925.86815,70.264698 920.30343,68.324827 916,71.7396 916,78.095076 c 0,5.906863 6.65585,9.096375 11.66323,5.58907 z M 919,77.660817 c 0,-5.5 0,-5.5 3.25,-5.484687 4.81322,0.02268 5.63648,0.970111 5.43264,6.252053 -0.20053,5.196119 -1.53766,6.024321 -4.00822,2.482634 -1.56952,-2.25 -1.56952,-2.25 -1.62197,0 C 921.92652,86.312956 919,83.197041 919,77.660817 Z m 6,-1.5 c 0,-0.55 -0.675,-1 -1.5,-1 -0.825,0 -1.5,0.45 -1.5,1 0,0.55 0.675,1 1.5,1 0.825,0 1.5,-0.45 1.5,-1 z M 640.0162,70.678058 c -1.83365,-1.951827 -2.38098,-3.504653 -2.15595,-6.116613 0.35603,-4.132375 -1.21163,-6.400628 -4.42368,-6.400628 -2.76036,0 -3.33097,0.799121 -4.90757,6.872869 -1.20109,4.627131 -1.20109,4.627131 -3.34404,1.147105 -2.14295,-3.480027 -2.14295,-3.480027 -2.80509,-0.16934 -0.76818,3.840939 -2.3396,2.411915 -2.36456,-2.150294 -0.0718,-13.121933 20.53442,-17.202247 25.60365,-5.06988 3.07297,7.354652 -1.24807,16.522139 -5.60276,11.886781 z"
     id="path475"
     inkscape:connector-curvature="0" />
</svg>
