<?xml version="1.0" encoding="UTF-8" standalone="no"?>
<svg
   xmlns:dc="http://purl.org/dc/elements/1.1/"
   xmlns:cc="http://creativecommons.org/ns#"
   xmlns:rdf="http://www.w3.org/1999/02/22-rdf-syntax-ns#"
   xmlns:svg="http://www.w3.org/2000/svg"
   xmlns="http://www.w3.org/2000/svg"
   xmlns:sodipodi="http://sodipodi.sourceforge.net/DTD/sodipodi-0.dtd"
   xmlns:inkscape="http://www.inkscape.org/namespaces/inkscape"
   height="13.085581"
   version="1.1"
   viewBox="-164.41 -64.82 33.025918 20.928459"
   width="20.62043"
   id="svg3094"
   sodipodi:docname="oval.svg"
   inkscape:version="0.92.3 (2405546, 2018-03-11)">
  <metadata
     id="metadata3098">
    <rdf:RDF>
      <cc:Work
         rdf:about="">
        <dc:format>image/svg+xml</dc:format>
        <dc:type
           rdf:resource="http://purl.org/dc/dcmitype/StillImage" />
      </cc:Work>
    </rdf:RDF>
  </metadata>
  <sodipodi:namedview
     pagecolor="#ffffff"
     bordercolor="#666666"
     borderopacity="1"
     objecttolerance="10"
     gridtolerance="10"
     guidetolerance="10"
     inkscape:pageopacity="0"
     inkscape:pageshadow="2"
     inkscape:window-width="640"
     inkscape:window-height="480"
     id="namedview3096"
     showgrid="false"
     inkscape:zoom="0.615"
     inkscape:cx="188.74383"
     inkscape:cy="-64.328858"
     inkscape:window-x="0"
     inkscape:window-y="27"
     inkscape:window-maximized="0"
     inkscape:current-layer="svg3094" />
  <defs
     id="defs3090" />
  <path
     d="m -132.61485,-54.591826 c -0.299,-7.051 -9.72,-9.158 -15.278,-9.247 -5.554,-0.089 -14.986,2.324 -15.28,9.247 -0.297,7.017 10.194,9.164 15.28,9.245 5.552,0.089 14.984,-2.322 15.278,-9.245 0.021,-0.482 0.771,-0.484 0.75,0 -0.319,7.519 -10.012,9.898 -16.028,9.995 -6.012,0.096 -15.716,-2.606 -16.03,-9.995 -0.317,-7.487 10.536,-9.909 16.03,-9.997 6.012,-0.097 15.714,2.608 16.028,9.997 0.021,0.484 -0.729,0.482 -0.75,0"
     id="path3092"
     inkscape:connector-curvature="0"
     style="fill:none;stroke:#000000;stroke-width:0.96096689" />
</svg>
