<?xml version="1.0" encoding="UTF-8" standalone="no"?>
<!-- Created with Inkscape (http://www.inkscape.org/) -->

<svg
   xmlns:dc="http://purl.org/dc/elements/1.1/"
   xmlns:cc="http://creativecommons.org/ns#"
   xmlns:rdf="http://www.w3.org/1999/02/22-rdf-syntax-ns#"
   xmlns:svg="http://www.w3.org/2000/svg"
   xmlns="http://www.w3.org/2000/svg"
   xmlns:sodipodi="http://sodipodi.sourceforge.net/DTD/sodipodi-0.dtd"
   xmlns:inkscape="http://www.inkscape.org/namespaces/inkscape"
   id="svg8"
   version="1.1"
   viewBox="0 0 162.05274 166.43952"
   height="166.43951mm"
   width="162.05273mm"
   inkscape:version="0.92.3 (2405546, 2018-03-11)"
   sodipodi:docname="raven3.svg">
  <sodipodi:namedview
     inkscape:window-maximized="1"
     inkscape:window-y="27"
     inkscape:window-x="0"
     inkscape:window-height="983"
     inkscape:window-width="1920"
     showgrid="false"
     inkscape:current-layer="layer1"
     inkscape:document-units="mm"
     inkscape:cy="229.92917"
     inkscape:cx="466.0051"
     inkscape:zoom="0.98994949"
     inkscape:pageshadow="2"
     inkscape:pageopacity="0.0"
     borderopacity="1.0"
     bordercolor="#666666"
     pagecolor="#ffffff"
     id="base" />
  <defs
     id="defs2" />
  <metadata
     id="metadata5">
    <rdf:RDF>
      <cc:Work
         rdf:about="">
        <dc:format>image/svg+xml</dc:format>
        <dc:type
           rdf:resource="http://purl.org/dc/dcmitype/StillImage" />
        <dc:title />
      </cc:Work>
    </rdf:RDF>
  </metadata>
  <g
     inkscape:label="Layer 1"
     inkscape:groupmode="layer"
     id="layer1"
     transform="translate(142.48942,-30.103558)">
    <rect
       style="opacity:0;vector-effect:none;fill:#178141;fill-opacity:1;fill-rule:nonzero;stroke:#f7f81f;stroke-width:0.50799996;stroke-linecap:butt;stroke-linejoin:miter;stroke-miterlimit:4;stroke-dasharray:none;stroke-dashoffset:0;stroke-opacity:1"
       id="rect1223"
       width="197.11458"
       height="190.5"
       x="7.014174"
       y="83.616867" />
    <path
       style="fill:#000000;stroke-width:1"
       d="m -125.25956,196.44151 c -0.16292,-0.0426 -0.34057,-0.25413 -0.39478,-0.47012 l -0.0986,-0.3927 0.28368,-0.56857 c 0.15603,-0.31271 1.75186,-2.01637 3.54631,-3.7859 3.76773,-3.71544 4.71415,-4.7995 5.8721,-6.72616 l 0.83903,-1.396 -0.0498,-0.425 -0.0498,-0.42501 -0.44584,-0.21265 -0.44583,-0.21265 -0.53257,0.10652 -0.53257,0.10651 -1.22293,1.62889 c -2.02786,2.70101 -6.05799,6.50484 -9.26626,8.74593 -2.01823,1.4098 -3.85164,2.59469 -4.70296,3.03943 l -0.89296,0.4665 -1.05923,0.085 -1.05923,0.085 -0.21989,-0.26496 -0.21988,-0.26493 0.95783,-0.7289 c 0.52681,-0.4009 2.29648,-1.79569 3.93259,-3.09956 1.63611,-1.30387 3.17871,-2.52307 3.42799,-2.70933 1.51256,-1.13021 6.96369,-5.89918 9.02105,-7.89215 l 0.80535,-0.78014 v -0.49832 c 0,-0.62185 -0.27186,-0.90473 -0.86951,-0.90473 -0.82687,0 -1.31228,0.30784 -2.90124,1.83993 -1.4214,1.37053 -2.05568,1.91186 -4.10954,3.50735 -5.60815,4.35655 -14.58235,8.54378 -16.15165,7.53612 l -0.24061,-0.15449 0.28379,-0.43313 c 0.24472,-0.37349 1.44152,-1.25499 2.5681,-1.89151 0.18626,-0.10525 0.71966,-0.41794 1.18533,-0.69487 0.46567,-0.27694 1.38007,-0.79538 2.032,-1.15211 0.65193,-0.35672 1.87113,-1.03184 2.70933,-1.50027 0.8382,-0.46843 2.38293,-1.28948 3.43274,-1.82456 4.04054,-2.05944 7.00364,-4.48261 9.64826,-7.89017 l 0.55034,-0.7091 v -0.43872 -0.43871 l -0.381,-0.14227 -0.381,-0.14226 -0.41914,0.15803 c -0.23053,0.0869 -0.99253,0.67469 -1.69334,1.30617 -4.03328,3.6343 -13.19889,9.66857 -14.68585,9.66857 -0.1767,0 -0.39366,0.0717 -0.48214,0.1594 -0.21381,0.21187 -3.42565,0.42504 -4.20396,0.27903 l -0.61357,-0.11507 v -0.21885 c 0,-0.1866 1.62716,-1.12047 1.95229,-1.12047 0.17791,0 6.48397,-3.1182 7.78438,-3.84919 0.65193,-0.36647 1.56633,-0.88028 2.032,-1.14179 5.75321,-3.23099 11.87244,-7.69095 13.39148,-9.76029 1.50324,-2.04783 -0.78778,-1.14089 -4.75548,1.88253 -2.18945,1.66839 -4.30133,2.74491 -5.70719,2.90923 -1.1159,0.13043 -0.59603,-0.27583 5.62252,-4.3937 1.90923,-1.26428 3.77613,-2.53322 4.14867,-2.81987 1.21665,-0.93616 2.69575,-2.20076 3.38666,-2.89555 0.61335,-0.61679 2.17367,-1.77537 2.39098,-1.77537 0.0484,0 0.40653,-0.21798 0.79585,-0.48439 0.67871,-0.46447 4.42641,-2.73419 5.74138,-3.47716 1.42232,-0.80362 3.73865,-2.57422 5.31414,-4.06213 l 1.674985,-1.58186 0.802961,-1.58956 c 1.666306,-3.29866 4.830103,-6.87499 10.542372,-11.91703 4.908514,-4.33259 8.04138,-7.94874 11.51777,-13.29453 1.479846,-2.27563 3.520995,-5.78612 3.703055,-6.36874 l 0.111681,-0.3574 -0.300254,-0.33509 -0.300253,-0.3351 -1.231114,-0.19655 -1.231114,-0.19656 -0.661818,-0.41779 c -0.363999,-0.22978 -1.143496,-0.85984 -1.732219,-1.40013 -3.560019,-3.26718 -7.57728,-4.77659 -12.749959,-4.79057 -3.517382,-0.01 -5.761775,-0.40437 -5.761775,-1.01369 v -0.25172 l 1.016,-0.54133 c 0.942614,-0.50223 4.19014,-1.77457 5.757333,-2.25565 0.372533,-0.11436 0.809649,-0.27477 0.971369,-0.35647 0.16172,-0.0817 0.448503,-0.14855 0.637298,-0.14855 0.188794,0 0.475577,-0.0724 0.637298,-0.16084 0.374802,-0.20503 2.492578,-0.74756 4.595239,-1.1772 0.985626,-0.2014 1.106967,-0.27031 2.133462,-1.21164 1.276872,-1.17093 3.11273,-1.86791 5.757334,-2.18575 l 1.523999,-0.18317 2.370667,0.25591 c 2.388585,0.25784 3.650873,0.42894 5.672663,0.76893 1.80518,0.30357 3.08536,0.50386 3.91731,0.6129 l 0.78465,0.10283 0.99335,-0.54417 c 2.54737,-1.3955 5.36737,-4.078127 7.00469,-6.663477 0.51224,-0.80882 1.66457,-2.59387 2.56075,-3.96678 l 1.62941,-2.4962 1.8991,-1.86267 c 7.19404,-7.055989 12.39272,-14.147098 14.40056,-19.642666 1.48447,-4.063089 3.95497,-8.358034 6.542,-11.37322 0.73233,-0.853537 1.78872,-2.180441 2.34752,-2.948673 2.00019,-2.749846 5.0966,-5.724101 8.10805,-7.788195 0.7341,-0.503161 1.44771,-1.087279 1.58581,-1.298042 0.52998,-0.808847 1.0588,-0.403694 1.0588,0.811193 v 0.658697 l -1.09894,1.57112 c -2.65175,3.791108 -3.14863,4.563308 -3.2444,5.042169 l -0.10166,0.508285 h 0.32053 c 2.70084,0 10.4055003,-12.355928 13.0402903,-20.912666 l 0.31285,-1.016 h 0.508 0.508 l 0.51529,0.77101 c 0.28341,0.424056 0.61845997,1.201042 0.74454997,1.726637 l 0.22925,0.955627 -0.93883997,1.914029 c -0.51635,1.052716 -1.44621,2.819996 -2.06634,3.927287 -0.62014,1.107292 -1.36161,2.478892 -1.64771,3.048001 -0.75205,1.495956 -2.01415,3.266694 -3.09129,4.337117 l -0.9368,0.930958 -0.002,0.44755 -0.002,0.447549 0.26785,0.102784 c 0.14732,0.05653 0.46149,0.102784 0.69816,0.102784 h 0.43032 l 1.11399,-0.794927 c 3.6385,-2.596382 5.83715997,-5.617984 7.30732997,-10.042407 0.38684003,-1.164166 0.85071003,-2.439686 1.03084003,-2.834488 0.18013,-0.394801 0.32751,-0.783145 0.32751,-0.862985 0,-0.07984 0.3048,-0.768892 0.67733,-1.531226 0.37254,-0.762334 0.67734,-1.415047 0.67734,-1.450473 0,-0.27724 1.48315,-2.54284 1.88723,-2.882848 l 0.50942,-0.428646 h 0.46639 0.4664 l 0.20836,0.389331 0.20836,0.389332 0.0319,1.515668 0.0319,1.515669 -0.97608,1.947333 c -2.21501,4.419081 -4.24806,7.326307 -7.72629,11.048451 -1.67479,1.792229 -1.73436,1.920079 -1.15039,2.468699 0.48624,0.45679 0.7701,0.460478 1.70265997,0.02212 l 0.73621,-0.346059 1.50905003,-1.558941 c 2.06914,-2.137542 5.35424,-5.918307 8.05295,-9.268016 C 10.67476,36.68802 11.99023,35.069931 12.35801,34.631393 12.7258,34.192854 13.3354,33.242339 13.71268,32.519136 l 0.68597,-1.314914 0.28491,-0.05255 0.2849,-0.05255 0.20375,0.380695 0.20374,0.380696 -0.0302,1.194934 -0.0301,1.194935 -1.09265,1.881627 c -2.6535,4.569542 -6.2442697,8.511756 -10.7886697,11.844607 -1.46785,1.076518 -1.50949,1.769604 -0.10631,1.769604 h 0.6303 l 1.33527,-0.684623 c 2.07165,-1.062179 4.09669,-2.686458 7.4117297,-5.944932 3.50611,-3.446274 3.60873,-3.533143 4.97394,-4.210497 l 1.01987,-0.506008 0.4321,0.196878 0.43209,0.196877 v 0.327679 c 0,1.256142 -6.82736,8.129403 -10.1031197,10.17104 -1.53939,0.959436 -1.70425,2.23215 -0.23454,1.810642 0.57893,-0.166035 1.9166297,-0.945318 4.0723297,-2.37235 1.49414,-0.989089 2.61353,-1.560853 3.45254,-1.763488 l 0.4892,-0.11815 0.48446,0.464147 0.48447,0.464146 v 0.886459 0.886456 l -0.6613,0.566046 c -0.36371,0.311326 -0.95426,0.670982 -1.31233,0.799236 -2.18135,0.781323 -3.61222,1.725128 -4.11777,2.716093 l -0.34327,0.672857 v 0.815736 0.815734 l 0.25197,0.359734 c 0.25691,0.366796 1.55647,0.900955 2.19193,0.900955 0.32495,0 2.4312,0.700044 2.80926,0.933699 0.091,0.05626 0.16551,0.35268 0.16551,0.658716 v 0.556428 l -0.29634,0.263415 c -0.3833,0.340727 -1.46504,0.6336 -2.34465,0.634797 -0.92525,0.0012 -1.60831,0.367409 -2.43282,1.304097 l -0.68353,0.776529 v 0.399492 0.399493 l 0.889,0.0028 0.889,0.0028 0.67734,0.382463 0.67733,0.382465 0.0525,0.450174 c 0.11014,0.944559 -0.9389,2.286906 -2.75143,3.520711 -2.3107997,1.572982 -4.7227697,4.658072 -3.8912197,4.977166 0.49222,0.188884 0.86302,0.106409 1.82178,-0.405217 1.1507297,-0.614063 1.2970397,-0.625419 1.2970397,-0.100668 0,1.274375 -4.2984497,5.985034 -6.5616697,7.190914 -0.47129,0.251115 -0.48664,0.551649 -0.0423,0.829124 0.44936,0.280631 0.42781,0.439083 -0.127,0.933897 -1.74923,1.560058 -2.30059,2.110967 -2.50145,2.499378 l -0.22821,0.441307 0.32655,0.495357 c 0.4226,0.641078 0.41474,0.76444 -0.11803,1.852499 l -0.44681,0.9125 -1.54556003,1.48985 c -1.89524997,1.82692 -3.90283997,3.60307 -5.30782997,4.69592 -1.47671,1.14864 -1.47348,1.15439 1.016,1.80922 0.39582,0.10411 0.81846,0.21738 0.93921,0.2517 l 0.21953,0.0624 -0.66503,0.97596 c -0.66458,0.9753 -2.20212,2.57125 -3.16071,3.280787 -2.06382,1.52763 -3.5965703,3.5918 -3.0197603,4.06677 0.4782003,0.39377 1.2417603,1.53658 1.2417603,1.85853 v 0.30531 l -0.55033,0.24382 c -1.1970203,0.53032 -2.4187103,0.84499 -4.3603303,1.12308 -0.79164,0.11339 -1.60087,0.26874 -1.7983,0.34524 l -0.35896,0.13908 -1.97819,2.74721 -1.9782,2.74722 0.0882,0.22979 c 0.0485,0.12638 0.26201,0.22921 0.47449,0.2285 0.58269,-0.002 3.17712,-0.31354 3.52204,-0.42302 l 0.30243,-0.096 0.47958,0.41252 0.47958,0.41252 -0.21563,0.80619 -0.21562,0.8062 0.17376,0.17376 c 0.0956,0.0956 1.4892,0.27557 3.09697,0.40001 l 2.9232003,0.22625 5.50333,-0.19512 c 5.38538,-0.19093 11.08911,-0.12928 13.13189,0.14195 l 1.0245597,0.13603 0.86539,0.55532 c 0.47597,0.30543 0.91493,0.68441 0.97548,0.84218 l 0.11007,0.28685 -0.39136,0.29386 c -0.95208,0.71489 -1.15655,0.9211 -1.33262,1.34403 -0.10295,0.24728 -0.16188,0.62756 -0.13096,0.84508 l 0.0562,0.39549 0.4584,0.21901 c 1.36518,0.65224 1.73227,1.49349 0.95412,2.18652 -0.29414,0.26197 -1.01804,0.94873 -1.60866,1.52612 l -1.0738597,1.04981 v 0.91912 0.91913 l 0.2651697,0.22007 c 0.44802,0.37182 0.75083,1.12492 0.75083,1.86733 v 0.70808 l -0.56701,0.53475 c -0.3118497,0.29412 -0.8642997,0.62633 -1.2276597,0.73824 -0.36337,0.11192 -1.18003,0.36475 -1.8148,0.56186 l -1.15415,0.35837 -0.15778,0.41499 c -0.0868,0.22825 -0.20611,0.73437 -0.26518,1.12472 -0.37071,2.44961 -2.07232,4.13093 -4.73745003,4.68095 l -1.03404,0.2134 -0.91329997,-0.0974 c -0.50231,-0.0536 -1.50385,-0.14763 -2.22563,-0.20907 l -1.31233,-0.1117 v 0.30211 c 0,0.16616 0.19929,0.56339 0.44287,0.88274 l 0.44288,0.58064 -0.18174,0.18174 -0.18174,0.18174 -2.2508,-0.0189 c -4.6298803,-0.039 -7.5527703,-0.83734 -10.3218703,-2.81938 -0.52749,-0.37756 -1.51265,-1.06747 -2.18924,-1.53314 -0.67659,-0.46566 -1.57851,-1.16836 -2.00427,-1.56153 -0.76177,-0.7035 -1.24541,-0.88847 -1.45142,-0.55513 -0.0576,0.0931 -0.51742,0.16933 -1.02191,0.16933 h -0.91724 l -0.55443,-0.32828 c -0.30493,-0.18055 -1.05469,-0.9613 -1.66613,-1.73499 -1.1644,-1.47339 -2.64282,-2.75077 -3.39618,-2.93435 l -0.44389,-0.10816 -0.37703,0.61005 c -0.20737,0.33552 -0.49194,0.72495 -0.63239,0.8654 l -0.25535,0.25535 -0.2085,-0.17304 c -0.11468,-0.0952 -0.31107,-0.60058 -0.43643,-1.12312 -0.50293,-2.09647 -1.74458,-2.24799 -2.37262,-0.28953 -0.11335,0.35347 -0.491,1.21417 -0.83922,1.91267 -0.34822,0.6985 -0.71973,1.54211 -0.82557,1.87469 l -0.19245,0.60469 v 1.89972 1.89973 l -0.3455,0.67723 c -0.19002,0.37247 -0.59007,0.82635 -0.889,1.00862 l -0.5435,0.33139 -0.6858,6.7e-4 c -0.88095,8.5e-4 -1.0922,0.22902 -1.0922,1.17989 0,2.30941 -1.33616,3.86728 -3.65328,4.25944 l -1.17272,0.19844 -1.74992,-0.27977 c -1.95925,-0.31324 -1.97737,-0.30995 -2.11615,0.38394 -0.24219,1.21098 -1.34424,3.08496 -2.61722,4.45046 l -0.74002,0.7938 -0.49468,0.10865 -0.49467,0.10865 v 0.32751 c 0,1.20479 -3.23747,4.64309 -4.93437,5.24048 l -0.61637,0.217 -0.18357,0.61269 c -0.54356,1.81423 -4.4472,4.9736 -7.21969,5.84318 -0.46567,0.14605 -1.11337,0.35053 -1.439336,0.45438 -0.869884,0.27716 -1.154336,0.59272 -1.888023,2.09452 -1.576285,3.22653 -2.521761,3.81493 -4.489516,2.794 -1.238653,-0.64265 -1.144693,-0.66459 -1.631736,0.381 -1.685734,3.61895 -3.801749,5.86578 -6.016913,6.38889 l -0.902853,0.2132 -0.79048,-0.0923 c -0.434764,-0.0508 -0.968355,-0.14664 -1.18576,-0.21303 l -0.395284,-0.1207 -2.56805,2.60734 c -1.412427,1.43403 -2.758551,2.69499 -2.991385,2.80213 -0.730857,0.33629 -1.073652,0.44738 -2.031999,0.6585 l -0.931334,0.20517 -0.638529,-0.30542 -0.638527,-0.30543 -0.337523,0.6616 c -0.185639,0.36388 -0.666246,0.99033 -1.06802,1.3921 l -0.730495,0.73049 -1.172119,0.57192 c -1.879904,0.91726 -2.361148,1.05226 -3.861888,1.08329 l -0.99644,0.0206 -0.17537,-0.27627 -0.17538,-0.27627 0.30515,-0.64306 0.30515,-0.64305 -0.16642,-0.26601 c -0.0915,-0.1463 -0.39848,-0.28929 -0.68213,-0.31776 l -0.51573,-0.0517 -1.29016,0.62069 -1.29017,0.6207 -0.91666,1.01295 -0.91666,1.01294 -0.72443,1.72011 -0.72443,1.72012 -0.73288,0.7859 -0.73288,0.78591 -1.01013,0.37777 -1.01014,0.37776 -0.25393,-0.21074 -0.25392,-0.21074 v -0.67046 -0.67047 l 1.10842,-2.21447 c 0.60963,-1.21797 1.0676,-2.32083 1.01772,-2.45082 l -0.0907,-0.23634 -0.80151,0.0517 -0.8015,0.0517 -1.26379,1.69334 c -1.62235,2.17376 -4.4639,5.02249 -7.04265,7.06045 -2.61839,2.06929 -2.73632,2.12957 -3.68289,1.88217 z"
       id="path2119"
       inkscape:connector-curvature="0" />
  </g>
</svg>
