<?xml version="1.0" encoding="UTF-8" standalone="no"?>
<!-- Created with Inkscape (http://www.inkscape.org/) -->

<svg
   xmlns:dc="http://purl.org/dc/elements/1.1/"
   xmlns:cc="http://creativecommons.org/ns#"
   xmlns:rdf="http://www.w3.org/1999/02/22-rdf-syntax-ns#"
   xmlns:svg="http://www.w3.org/2000/svg"
   xmlns="http://www.w3.org/2000/svg"
   xmlns:sodipodi="http://sodipodi.sourceforge.net/DTD/sodipodi-0.dtd"
   xmlns:inkscape="http://www.inkscape.org/namespaces/inkscape"
   id="svg8"
   version="1.1"
   viewBox="0 0 197.03258 190.5918"
   height="190.5918mm"
   width="197.03258mm"
   inkscape:version="0.92.3 (2405546, 2018-03-11)"
   sodipodi:docname="raven.svg">
  <sodipodi:namedview
     inkscape:window-maximized="1"
     inkscape:window-y="27"
     inkscape:window-x="0"
     inkscape:window-height="983"
     inkscape:window-width="1920"
     showgrid="false"
     inkscape:current-layer="layer1"
     inkscape:document-units="mm"
     inkscape:cy="322.53703"
     inkscape:cx="723.24639"
     inkscape:zoom="0.98994949"
     inkscape:pageshadow="2"
     inkscape:pageopacity="0.0"
     borderopacity="1.0"
     bordercolor="#666666"
     pagecolor="#ffffff"
     id="base" />
  <defs
     id="defs2" />
  <metadata
     id="metadata5">
    <rdf:RDF>
      <cc:Work
         rdf:about="">
        <dc:format>image/svg+xml</dc:format>
        <dc:type
           rdf:resource="http://purl.org/dc/dcmitype/StillImage" />
        <dc:title />
      </cc:Work>
    </rdf:RDF>
  </metadata>
  <g
     inkscape:label="Layer 1"
     inkscape:groupmode="layer"
     id="layer1"
     transform="translate(129.34354,-80.259118)">
    <path
       style="fill:#000000;stroke-width:1"
       d="m -54.239789,270.36791 c -1.631561,-1.28339 -4.662041,-6.59376 -13.732944,-24.06452 -5.754595,-11.08348 -8.127145,-15.44619 -8.303903,-15.26943 -0.06259,0.0626 0.490789,2.06531 1.229744,4.45047 2.570578,8.29719 5.549439,20.5762 5.549439,22.87505 v 1.21717 l -0.261215,-0.0882 c -0.143669,-0.0485 -0.800028,-0.80257 -1.458582,-1.6757 l -1.197366,-1.5875 -3.415022,-6.87916 c -5.024588,-10.12145 -8.754293,-18.76647 -12.981162,-30.08882 -0.908413,-2.43332 -1.819098,-4.63597 -2.02375,-4.89479 l -0.372089,-0.47056 0.205113,2.51354 c 0.112813,1.38245 0.205115,3.37099 0.205115,4.41898 v 1.90544 l -0.333668,0.33323 -0.333669,0.33323 -0.507473,-0.51888 c -1.89084,-1.93333 -5.413201,-11.50569 -6.740787,-18.31875 -1.740832,-8.93379 -3.138232,-29.39729 -3.174952,-46.49387 l -0.0204,-9.525 0.33968,-2.51355 c 0.51704,-3.82604 1.24668,-6.58542 2.445003,-9.24674 l 1.087752,-2.41574 -0.172537,-0.78555 C -98.702319,131.32544 -114.2379,118.106 -118.08003,116.66848 l -1.47162,-0.55061 -3.34784,-0.39162 c -1.84132,-0.21538 -3.52717,-0.39925 -3.74634,-0.40858 -0.21917,-0.009 1.08978,-0.5448 2.90879,-1.18994 5.37159,-1.90511 8.14352,-3.03393 8.4975,-3.46045 l 0.33223,-0.40031 -0.4819,-0.89483 c -1.00447,-1.86519 -5.67944,-4.82557 -10.19991,-6.45899 -1.23693,-0.44695 -2.58769,-1.03563 -3.00169,-1.30818 l -0.75273,-0.49554 0.27257,-0.16846 c 0.14991,-0.0927 2.57223,-0.29763 5.38294,-0.4555 l 5.11037,-0.28705 9.65729,0.12971 9.657293,0.12972 2.513541,0.43847 c 3.856366,0.67273 6.185943,1.32124 13.361459,3.71954 3.63802,1.21595 7.626005,2.41249 8.862186,2.65898 l 2.247604,0.44815 1.882934,-0.12084 1.882936,-0.12084 1.77365,-0.82999 1.773651,-0.82999 1.38049,-1.41398 1.380487,-1.41398 0.99096,-1.8858 c 0.545028,-1.03719 1.225751,-2.803834 1.512718,-3.925864 l 0.521758,-2.040053 V 92.69371 c 0,-1.346369 -0.178572,-3.381152 -0.39683,-4.52174 -0.218255,-1.140587 -0.396848,-2.742348 -0.396875,-3.559468 l -4.5e-5,-1.485673 0.55253,-0.702426 c 2.616935,-3.326897 14.770496,-2.793204 32.243564,1.415894 4.15408,1.000676 9.3388,2.191184 11.52161,2.645573 14.73029952,3.066355 22.2890995,5.185899 24.4458695,6.854806 l 0.63336,0.490098 -0.18596,0.300888 -0.18595,0.300888 -2.03491,-0.0068 c -1.1192,-0.0038 -3.19436,-0.11962 -4.61146,-0.25748 -3.78054,-0.367779 -4.37683,0.0077 -1.82837998,1.151411 1.93874998,0.870059 4.75037998,1.896375 14.59139048,5.326229 22.50454,7.8434 35.87688,14.17922 31.81126,15.07218 -1.24329,0.27307 -10.50255,-0.8642 -12.9597,-1.59178 l -0.59531,-0.17628 v 0.28305 c 0,0.43327 4.62163,3.36835 9.98929,6.34396 7.92397,4.39271 12.66009,7.56126 14.73507,9.85802 l 0.97197,1.07585 -0.0842,0.44469 -0.0842,0.44469 -1.05613,0.0955 c -0.58087,0.0525 -2.34332,-0.0533 -3.91656,-0.23521 l -2.86042,-0.33066 -0.26828,0.26828 -0.26828,0.26827 1.54121,1.3325 c 0.84765,0.73287 2.72378,2.32533 4.16916,3.5388 l 2.62797,2.2063 1.14234,1.67061 1.14235,1.67061 v 0.72387 c 0,2.47324 -1.92228,1.69387 -16.73738,-6.78604 l -7.87385,-4.50685 -2.30219,-0.83303 c -1.2662,-0.45816 -3.02928,-0.90092 -3.91795,-0.98391 l -1.61577,-0.15088 -1.22014,0.53973 -1.22015,0.53973 -0.38792,0.75079 c -0.66627,1.28949 -0.94135,2.72928 -1.35957,7.11606 -0.85924,9.01261 -3.89983,13.9649 -9.01926,14.6899 -0.91479,0.12955 -1.97058,0.37558 -2.3462,0.54672 l -0.68295,0.31117 v 0.56842 c 0,1.75872 9.9522,5.98276 33.07291,14.03722 16.63973,5.79671 20.76369,7.69264 21.73407,9.99193 l 0.35864,0.84979 v 4.23333 4.23333 l -0.48681,2.07635 c -0.26775,1.14199 -0.97095,3.02059 -1.56266,4.17466 l -1.07585,2.0983 -1.34776,1.39885 c -2.54946,2.6461 -6.12847,4.51205 -10.03506,5.23187 l -1.77376,0.32683 -2.02558,-0.31491 c -7.2634,-1.12922 -13.97998,-4.5159 -26.99417,-13.61117 -9.93903,-6.94613 -21.3396005,-13.16902 -22.11608048,-12.07184 -0.86723,1.22541 -6.58750002,7.32402 -7.83443002,8.3526 l -1.69799,1.40066 -1.4631795,0.42535 c -3.92478,1.14097 -10.12592,5.29137 -11.301,7.56372 -0.20419,0.39486 -0.66193,1.63327 -1.0172,2.75203 -0.35527,1.11875 -1.05959,2.70444 -1.56514,3.52374 -2.17879,3.53093 -4.00765,12.13952 -5.06619,23.84692 -0.4978,5.50566 -1.0058,8.74239 -1.75832,11.20314 l -0.55365,1.81044 0.30975,1.57443 c 0.17037,0.86595 0.72894,2.73016 1.24128,4.1427 1.17135,3.22943 2.21081,7.072 2.21168,8.17589 l 7.9e-4,0.84514 -0.62758,0.72961 -0.62758,0.72961 -0.92024,-0.0261 c -1.27517,-0.0361 -2.44468,-0.70114 -4.23305,-2.40697 -0.84111,-0.80214 -1.52917,-1.4061 -1.52917,-1.34211 0,0.064 0.603,1.89781 1.34002,4.07517 l 1.34002,3.95883 0.15043,2.01313 0.15043,2.01312 -0.31486,0.1946 c -1.0867,0.67161 -3.579942,-1.63772 -8.270491,-7.66043 -5.571849,-7.15431 -6.004276,-7.44579 -4.052175,-2.73144 0.682318,1.64781 1.776822,4.52527 2.432235,6.39435 l 1.191657,3.39833 0.13889,2.5548 0.13889,2.55479 -0.541385,0.66146 -0.541387,0.66146 -0.843759,-0.79375 c -1.240785,-1.16725 -5.040683,-7.05307 -10.994848,-17.03038 -4.85512,-8.13566 -6.949247,-11.26274 -6.97724,-10.41884 -0.01619,0.48809 2.24554,6.53479 4.873578,13.02943 4.626239,11.43278 5.823553,18.58388 2.700155,16.12702 z"
       id="path2121"
       inkscape:connector-curvature="0" />
    <rect
       style="opacity:0;vector-effect:none;fill:#178141;fill-opacity:1;fill-rule:nonzero;stroke:#f7f81f;stroke-width:0.50799996;stroke-linecap:butt;stroke-linejoin:miter;stroke-miterlimit:4;stroke-dasharray:none;stroke-dashoffset:0;stroke-opacity:1"
       id="rect1223"
       width="197.11458"
       height="190.5"
       x="7.014174"
       y="83.616867" />
  </g>
</svg>
