<?xml version="1.0" encoding="UTF-8" standalone="no"?>
<svg
   xmlns:dc="http://purl.org/dc/elements/1.1/"
   xmlns:cc="http://creativecommons.org/ns#"
   xmlns:rdf="http://www.w3.org/1999/02/22-rdf-syntax-ns#"
   xmlns:svg="http://www.w3.org/2000/svg"
   xmlns="http://www.w3.org/2000/svg"
   xmlns:sodipodi="http://sodipodi.sourceforge.net/DTD/sodipodi-0.dtd"
   xmlns:inkscape="http://www.inkscape.org/namespaces/inkscape"
   height="43.345886"
   version="1.1"
   viewBox="-164.41 -64.82 62.561966 69.32536"
   width="39.061886"
   id="svg2958"
   sodipodi:docname="shield_outline.svg"
   inkscape:version="0.92.3 (2405546, 2018-03-11)">
  <metadata
     id="metadata2962">
    <rdf:RDF>
      <cc:Work
         rdf:about="">
        <dc:format>image/svg+xml</dc:format>
        <dc:type
           rdf:resource="http://purl.org/dc/dcmitype/StillImage" />
      </cc:Work>
    </rdf:RDF>
  </metadata>
  <sodipodi:namedview
     pagecolor="#ffffff"
     bordercolor="#666666"
     borderopacity="1"
     objecttolerance="10"
     gridtolerance="10"
     guidetolerance="10"
     inkscape:pageopacity="0"
     inkscape:pageshadow="2"
     inkscape:window-width="1920"
     inkscape:window-height="983"
     id="namedview2960"
     showgrid="false"
     inkscape:zoom="9.84"
     inkscape:cx="41.36233"
     inkscape:cy="14.971841"
     inkscape:window-x="0"
     inkscape:window-y="27"
     inkscape:window-maximized="1"
     inkscape:current-layer="svg2958" />
  <defs
     id="defs2948" />
  <g
     id="g2968"
     transform="translate(-106.65852,-18.365224)">
    <path
       style="fill:none;stroke:#000000;stroke-width:0.96096689"
       inkscape:connector-curvature="0"
       id="path2950"
       d="m 3.62,-26.01 c -6.33,-1.29 -7.17,-12.94 -7.18,-13.04 l -0.049,-0.61 -22.79,-6.36 -0.031,-0.01 -0.04,-0.01 v 1.88 l 0.04,0.01 0.031,0.01 21.149,5.86 c 0.3,2.29 1.75,12.09 7.83,13.86 v 13.39 c -0.49,1.8 -9.33,25.74 -28.979,31.2 -0.011,0 -0.021,0.01 -0.031,0.01 -0.009,0 -0.03,0.01 -0.04,0.01 v 1.86 l 0.04,-0.01 0.031,-0.01 0.149,-0.04 C -4.7,16.24 4.24,-10.42 4.311,-10.69 l 0.019,-0.22 v -14.96 l -0.71,-0.14" />
    <path
       style="fill:none;stroke:#000000;stroke-width:0.96096689"
       inkscape:connector-curvature="0"
       id="path2952"
       d="m 0,-23.99 c -0.31,0 -0.59,0.13 -0.819,0.32 C -5.08,-26.51 -6.6,-33.98 -7.06,-36.32 l -0.06,-0.29 -18.04,-4.91 c -0.06,-0.68 -0.569,-1.21 -1.239,-1.24 -0.011,-0.01 -0.021,-0.01 -0.031,-0.01 h -0.04 v 2.73 h 0.04 c 0.01,0 0.02,0 0.031,-0.01 0.399,-0.01 0.729,-0.22 0.969,-0.52 l 17.491,4.73 c 0.559,2.62 2.219,10.11 6.649,13.02 -0.01,0.07 -0.04,0.13 -0.04,0.2 0,0.58 0.351,1.07 0.851,1.27 v 9.87 C -1.24,-8.86 -9.5,10.91 -25.46,16.58 -25.689,16.3 -26.01,16.1 -26.399,16.09 -26.41,16.08 -26.42,16.08 -26.43,16.08 h -0.04 v 2.73 h 0.04 c 0.01,0 0.02,0 0.031,-0.01 0.679,-0.03 1.21,-0.58 1.25,-1.28 C -8.59,11.64 -0.22,-8.89 0.46,-11.27 l 0.02,-0.13 v -9.95 c 0.5,-0.2 0.85,-0.69 0.85,-1.27 0,-0.76 -0.59,-1.37 -1.33,-1.37" />
    <path
       style="fill:none;stroke:#000000;stroke-width:0.96096689"
       inkscape:connector-curvature="0"
       id="path2954"
       d="m -26.5,-42.77 c -0.021,0 -0.03,0 -0.04,0.01 -0.67,0.03 -1.18,0.56 -1.24,1.24 l -18.04,4.91 -0.06,0.29 c -0.46,2.34 -1.98,9.81 -6.24,12.65 -0.231,-0.19 -0.51,-0.32 -0.82,-0.32 -0.74,0 -1.331,0.61 -1.331,1.37 0,0.58 0.351,1.07 0.851,1.27 v 9.95 l 0.02,0.13 c 0.68,2.38 9.049,22.91 25.61,28.79 0.04,0.7 0.57,1.25 1.25,1.28 0.01,0.01 0.03,0.01 0.04,0.01 h 0.03 v -2.73 h -0.03 c -0.021,0 -0.03,0 -0.04,0.01 -0.39,0.01 -0.71,0.21 -0.94,0.49 -15.96,-5.67 -24.22,-25.44 -24.98,-28.06 v -9.87 c 0.5,-0.2 0.85,-0.69 0.85,-1.27 0,-0.07 -0.03,-0.13 -0.04,-0.2 4.43,-2.91 6.089,-10.4 6.65,-13.02 l 17.49,-4.73 c 0.239,0.3 0.57,0.51 0.97,0.52 0.01,0.01 0.03,0.01 0.04,0.01 h 0.03 v -2.73 h -0.03 c -0.021,0 -0.03,0 -0.04,0.01 -0.67,0.03 -1.18,0.56 -1.24,1.24 l -18.04,4.91 -0.06,0.29 c -0.46,2.34 -1.98,9.81 -6.24,12.65 -0.231,-0.19 -0.51,-0.32 -0.82,-0.32 -0.74,0 -1.331,0.61 -1.331,1.37 0,0.58 0.351,1.07 0.851,1.27 v 9.95 l 0.02,0.13 c 0.68,2.38 9.049,22.91 25.61,28.79 0.04,0.7 0.57,1.25 1.25,1.28 0.01,0.01 0.03,0.01 0.04,0.01 h 0.03 v -2.73 h -0.03 c -0.021,0 -0.03,0 -0.04,0.01 -0.39,0.01 -0.71,0.21 -0.94,0.49 -15.96,-5.67 -24.22,-25.44 -24.98,-28.06 v -9.87 c 0.5,-0.2 0.85,-0.69 0.85,-1.27 0,-0.07 -0.03,-0.13 -0.04,-0.2 4.43,-2.91 6.089,-10.4 6.65,-13.02 l 17.49,-4.73 c 0.239,0.3 0.57,0.51 0.97,0.52 0.01,0.01 0.03,0.01 0.04,0.01 h 0.03 v -2.73 h -0.03 c -0.021,0 -0.03,0 -0.04,0.01 -0.67,0.03 -1.18,0.56 -1.24,1.24 l -18.04,4.91 -0.06,0.29 c -0.46,2.34 -1.98,9.81 -6.24,12.65 -0.231,-0.19 -0.51,-0.32 -0.82,-0.32 -0.74,0 -1.331,0.61 -1.331,1.37 0,0.58 0.351,1.07 0.851,1.27 v 9.95 l 0.02,0.13 c 0.68,2.38 9.049,22.91 25.61,28.79 0.04,0.7 0.57,1.25 1.25,1.28 0.01,0.01 0.03,0.01 0.04,0.01 h 0.03 v -2.73 h -0.03 c -0.021,0 -0.03,0 -0.04,0.01 -0.39,0.01 -0.71,0.21 -0.94,0.49 -15.96,-5.67 -24.22,-25.44 -24.98,-28.06 v -9.87 c 0.5,-0.2 0.85,-0.69 0.85,-1.27 0,-0.07 -0.03,-0.13 -0.04,-0.2 4.43,-2.91 6.089,-10.4 6.65,-13.02 l 17.49,-4.73 c 0.239,0.3 0.57,0.51 0.97,0.52 0.01,0.01 0.03,0.01 0.04,0.01 h 0.03 v -2.73 h -0.03" />
    <path
       style="fill:none;stroke:#000000;stroke-width:0.96096689"
       inkscape:connector-curvature="0"
       id="path2956"
       d="m -26.5,-46.03 -0.04,0.01 -22.79,6.36 -0.05,0.61 c -0.01,0.1 -0.85,11.75 -7.181,13.04 l -0.71,0.14 v 14.96 l 0.021,0.22 c 0.07,0.27 9.01,26.93 30.56,32.68 l 0.15,0.04 0.04,0.01 0.03,0.01 v -1.86 c -0.01,0 -0.02,-0.01 -0.03,-0.01 -0.01,0 -0.03,-0.01 -0.04,-0.01 -19.65,-5.46 -28.49,-29.4 -28.981,-31.2 v -13.39 c 6.081,-1.77 7.531,-11.57 7.831,-13.86 l 21.15,-5.86 0.04,-0.01 0.03,-0.01 v -1.88 l -0.03,0.01" />
  </g>
</svg>
