<?xml version="1.0" encoding="UTF-8" standalone="no"?>
<svg
   xmlns:dc="http://purl.org/dc/elements/1.1/"
   xmlns:cc="http://creativecommons.org/ns#"
   xmlns:rdf="http://www.w3.org/1999/02/22-rdf-syntax-ns#"
   xmlns:svg="http://www.w3.org/2000/svg"
   xmlns="http://www.w3.org/2000/svg"
   xmlns:sodipodi="http://sodipodi.sourceforge.net/DTD/sodipodi-0.dtd"
   xmlns:inkscape="http://www.inkscape.org/namespaces/inkscape"
   height="36.377064"
   version="1.1"
   viewBox="-164.41 -64.82 52.870965 58.179755"
   width="33.011105"
   id="svg2993"
   sodipodi:docname="shield2.svg"
   inkscape:version="0.92.3 (2405546, 2018-03-11)">
  <metadata
     id="metadata2997">
    <rdf:RDF>
      <cc:Work
         rdf:about="">
        <dc:format>image/svg+xml</dc:format>
        <dc:type
           rdf:resource="http://purl.org/dc/dcmitype/StillImage" />
      </cc:Work>
    </rdf:RDF>
  </metadata>
  <sodipodi:namedview
     pagecolor="#ffffff"
     bordercolor="#666666"
     borderopacity="1"
     objecttolerance="10"
     gridtolerance="10"
     guidetolerance="10"
     inkscape:pageopacity="0"
     inkscape:pageshadow="2"
     inkscape:window-width="1920"
     inkscape:window-height="983"
     id="namedview2995"
     showgrid="false"
     inkscape:zoom="4.92"
     inkscape:cx="3.0653801"
     inkscape:cy="34.597717"
     inkscape:window-x="0"
     inkscape:window-y="27"
     inkscape:window-maximized="1"
     inkscape:current-layer="svg2993" />
  <defs
     id="defs2989" />
  <path
     d="m -112.01952,-45.305658 v 9.87 c -0.761,2.62 -9.021,22.39 -24.98,28.0600004 -0.23,-0.28 -0.55,-0.48 -0.94,-0.49 v -0.01 h -0.07 v 0.01 c -0.39,0.01 -0.71,0.21 -0.941,0.49 -15.96,-5.6700004 -24.219,-25.4400004 -24.979,-28.0600004 v -9.87 c 0.5,-0.2 0.849,-0.69 0.849,-1.27 0,-0.07 -0.029,-0.13 -0.04,-0.2 4.431,-2.91 6.09,-10.4 6.651,-13.02 l 17.49,-4.73 c 0.239,0.3 0.569,0.51 0.97,0.52 v 0.01 h 0.07 v -0.01 c 0.399,-0.01 0.73,-0.22 0.97,-0.52 l 17.49,4.73 c 0.56,2.62 2.22,10.11 6.649,13.02 -0.009,0.07 -0.04,0.13 -0.04,0.2 0,0.58 0.351,1.07 0.851,1.27"
     id="path2991"
     inkscape:connector-curvature="0"
     style="fill:none;stroke:#000000;stroke-width:0.96096689" />
</svg>
