<?xml version="1.0" encoding="UTF-8" standalone="no"?>
<!-- Created with Inkscape (http://www.inkscape.org/) -->

<svg
   xmlns:dc="http://purl.org/dc/elements/1.1/"
   xmlns:cc="http://creativecommons.org/ns#"
   xmlns:rdf="http://www.w3.org/1999/02/22-rdf-syntax-ns#"
   xmlns:svg="http://www.w3.org/2000/svg"
   xmlns="http://www.w3.org/2000/svg"
   xmlns:sodipodi="http://sodipodi.sourceforge.net/DTD/sodipodi-0.dtd"
   xmlns:inkscape="http://www.inkscape.org/namespaces/inkscape"
   id="svg8"
   version="1.1"
   viewBox="0 0 69.188522 113.88991"
   height="113.88991mm"
   width="69.188522mm"
   inkscape:version="0.92.3 (2405546, 2018-03-11)"
   sodipodi:docname="stag1.svg">
  <sodipodi:namedview
     inkscape:window-maximized="1"
     inkscape:window-y="27"
     inkscape:window-x="0"
     inkscape:window-height="983"
     inkscape:window-width="1920"
     showgrid="false"
     inkscape:current-layer="layer1"
     inkscape:document-units="mm"
     inkscape:cy="241.73437"
     inkscape:cx="26.832928"
     inkscape:zoom="0.98994949"
     inkscape:pageshadow="2"
     inkscape:pageopacity="0.0"
     borderopacity="1.0"
     bordercolor="#666666"
     pagecolor="#ffffff"
     id="base" />
  <defs
     id="defs2" />
  <metadata
     id="metadata5">
    <rdf:RDF>
      <cc:Work
         rdf:about="">
        <dc:format>image/svg+xml</dc:format>
        <dc:type
           rdf:resource="http://purl.org/dc/dcmitype/StillImage" />
        <dc:title />
      </cc:Work>
    </rdf:RDF>
  </metadata>
  <g
     inkscape:label="Layer 1"
     inkscape:groupmode="layer"
     id="layer1"
     transform="translate(62.189099,-71.335199)">
    <rect
       style="opacity:0;vector-effect:none;fill:#178141;fill-opacity:1;fill-rule:nonzero;stroke:#f7f81f;stroke-width:0.50799996;stroke-linecap:butt;stroke-linejoin:miter;stroke-miterlimit:4;stroke-dasharray:none;stroke-dashoffset:0;stroke-opacity:1"
       id="rect1223"
       width="197.11458"
       height="190.5"
       x="7.014174"
       y="83.616867" />
    <path
       style="fill:#000000;stroke-width:1"
       d="m -28.140548,184.85794 c -0.70028,-0.20181 -1.95044,-0.70067 -2.77812,-1.10858 l -1.50489,-0.74166 -2.12252,-2.12582 -2.12253,-2.12583 -0.975652,-1.98437 c -0.536604,-1.09141 -1.183619,-2.75828 -1.437809,-3.70417 l -0.462161,-1.71979 -0.0011,-3.175 -0.0011,-3.175 0.587573,-2.06353 c 0.702628,-2.46761 1.815939,-4.7582 3.394549,-6.98416 l 1.16261,-1.63937 -0.17078,-1.83747 -0.17077,-1.83748 -0.95688,-0.15827 c -0.52629,-0.0871 -1.34403,-0.15958 -1.81722,-0.16118 l -0.860338,-0.003 -0.95042,-1.32292 c -0.522732,-0.7276 -1.120794,-1.32292 -1.329026,-1.32292 -0.862198,0 -1.207352,-3.54307 -0.614463,-6.3076 l 0.280209,-1.30658 0.939051,-1.09707 0.939054,-1.09707 -0.167658,-1.11802 -0.167659,-1.11802 -1.165254,-0.73719 c -4.248474,-2.68775 -9.408886,-11.51196 -7.85465,-13.43136 l 0.491551,-0.60704 1.823553,0.0352 1.823551,0.0352 1.719792,0.53427 c 0.945885,0.29385 2.774722,1.14001 4.064082,1.88035 2.752655,1.58055 2.970055,1.53314 1.664195,-0.36291 -2.976044,-4.32109 -8.087241,-7.83831 -14.835106,-10.20863 -5.923944,-2.08093 -8.889439,-4.84085 -10.112104,-9.41117 l -0.353911,-1.32291 -0.0031,-2.877181 -0.0031,-2.87717 0.674588,-3.34054 c 1.216561,-6.02437 3.660383,-12.05976 6.123143,-15.122044 l 0.951452,-1.18307 -0.147129,0.529167 c -0.08092,0.291042 -0.685401,2.030227 -1.343287,3.864857 -1.366888,3.8118 -2.395686,8.36556 -2.808727,12.43227 l -0.284729,2.80338 0.264009,1.86149 c 0.306756,2.162911 0.587426,3.002831 1.163085,3.480591 l 0.4142,0.34375 1.002427,-0.32503 c 0.551333,-0.17876 1.806099,-0.72679 2.788364,-1.21785 l 1.785938,-0.892821 7.93e-4,-1.51803 c 0.0023,-4.72694 2.364264,-14.6149 3.491095,-14.6149 h 0.278424 l -0.173522,0.8599 c -0.601919,2.98284 -1.477142,10.66372 -1.479219,12.98148 l -7.94e-4,1.00909 1.629485,-1.14138 c 0.896217,-0.62776 2.630884,-2.01616 3.85482,-3.08535 1.223933,-1.06918 2.291069,-1.87823 2.37141,-1.79789 0.533853,0.53386 -3.615214,5.60742 -6.089219,7.44603 l -1.780103,1.322911 0.112628,2.24896 c 0.176289,3.52015 1.090774,5.45953 3.049108,6.46633 0.840907,0.43231 6.068891,2.44364 7.678701,2.95416 l 1.16954,0.37091 0.59278,-0.38841 c 0.32604,-0.21363 0.73614,-0.83911 0.91135,-1.38997 0.71951,-2.26221 3.77009,-9.76059 4.11722,-10.12024 l 0.37384,-0.38742 -2.7e-4,0.7843 c -1.9e-4,0.43136 -0.31181,2.03446 -0.69249,3.56242 l -0.69214,2.77813 -0.13427,2.82046 -0.13427,2.82045 0.57368,1.88872 0.57368,1.88871 1.28271,1.33079 1.28271,1.33078 2.21151,-0.17452 c 2.9665,-0.23411 3.73013,-0.50608 4.82566,-1.7187 l 0.92926,-1.02857 0.29854,-1.1087 0.29854,-1.1087 -0.54889,-3.94192 c -0.30189,-2.16805 -0.53886,-4.80128 -0.52659,-5.85161 l 0.0223,-1.90969 0.51795,1.12693 c 0.28488,0.61981 0.94033,2.82246 1.45657,4.89479 1.27579,5.12134 1.24943,5.10333 5.06948,3.46259 4.31521,-1.85342 6.0952104,-3.15926 7.2841904,-5.34381 l 0.72989,-1.34104 0.38616,-2.01832 c 0.21231,-1.11007 0.38608,-2.54191 0.38608,-3.18186 v -1.163541 l -1.52311,-0.76886 c -4.5777204,-2.31083 -7.8814704,-6.14975 -10.1191204,-11.75832 -1.14374,-2.86675 -0.89429,-3.01082 0.97089,-0.56073 2.83273,3.72104 10.4067604,10.14839 10.4067604,8.83121 0,-0.60614 -1.33223,-6.1344 -2.22871,-9.2483 -2.6802104,-9.309711 1.1014,-3.4676 4.61382,7.12774 l 1.2653,3.81682 1.20711,0.47416 1.20711,0.47416 0.20883,-0.98369 c 0.11486,-0.54102 0.19603,-2.53149 0.18038,-4.42326 l -0.0285,-3.43959 -0.70075,-4.0997 -0.70075,-4.0997 -1.18902,-1.9267 c -1.30468,-2.114096 -1.37773,-2.306051 -0.79215,-2.081342 0.52577,0.201758 0.53623,0.247164 -0.54437,-2.363304 -0.51769,-1.250602 -0.90208,-2.472386 -0.8542,-2.715078 l 0.0871,-0.441256 1.35335,2.248958 c 0.74435,1.236927 1.74078,3.022865 2.2143,3.96875 0.47353,0.945882 1.56467,2.487782 2.42476,3.426432 3.25074,3.54765 4.44903,5.96969 5.1679,10.4456 l 0.42793,2.66443 0.021,5.60167 0.021,5.601671 -0.55456,0.74833 c -0.72456,0.97773 -4.43326,3.16528 -11.47368,6.76767 -7.4132904,3.79318 -9.5479404,5.03575 -10.7972804,6.2851 l -1.02631,1.02631 -0.31107,1.03824 c -0.64413,2.14996 -0.30303,2.96121 1.24507,2.96121 h 0.92113 l 2.70576,-2.75873 c 3.6001004,-3.67057 4.6060804,-4.14865 8.7539004,-4.16021 l 2.24651,-0.006 0.7752,0.32109 0.7752,0.3211 0.16718,0.66611 c 0.36355,1.44852 -1.64846,7.97713 -3.44339,11.17315 -1.52557,2.7164 -4.18387,4.81004 -6.60648,5.20318 l -0.9234304,0.14985 -1.21025,-0.60443 -1.21026,-0.60443 -0.65337,0.2977 c -0.35935,0.16373 -0.86497,0.68981 -1.1236,1.16906 l -0.47024,0.87137 0.0172,1.85208 c 0.009,1.01864 0.39397,3.81661 0.8545,6.21771 0.46052,2.40109 1.06702,6.09203 1.34778,8.20208 l 0.51046,3.83646 0.91589,2.38125 c 1.18554,3.08238 1.5734004,5.52055 1.5783204,9.92187 l 0.004,3.57188 -0.5605104,1.72383 c -1.54165,4.74135 -5.64611,8.97634 -10.30443,10.63212 l -1.51797,0.53955 -2.24896,0.0939 -2.24895,0.094 -1.27324,-0.36692 z m -23.293854,-78.53157 c -0.09177,-0.76399 -0.16788,-1.95376 -0.169145,-2.64395 l -0.0024,-1.25489 -1.785938,1.1443 c -2.052534,1.31517 -0.796711,4.1436 1.839839,4.1436 h 0.284472 z m 50.0248044,-3.34622 c 0.32277,-0.63988 0.52299,-1.26676 0.44492,-1.39308 -0.12164,-0.19682 -1.83267,-1.01539 -2.12244,-1.01539 -0.16768,0 -0.11124,2.83778 0.0656,3.29864 0.2793,0.72785 0.99512,0.33253 1.61191,-0.89017 z m 5.36625,-9.136641 v -2.96537 l -0.40903,-1.37738 c -1.13171,-3.81088 -1.87691,-4.6626 -1.30103,-1.48701 0.21015,1.15879 0.46204,3.882 0.55976,6.05157 l 0.17769,3.94469 0.48631,-0.60056 0.4863,-0.60056 z"
       id="path3329"
       inkscape:connector-curvature="0" />
  </g>
</svg>
