<?xml version="1.0" encoding="UTF-8" standalone="no"?>
<!-- Created with Inkscape (http://www.inkscape.org/) -->

<svg
   xmlns:dc="http://purl.org/dc/elements/1.1/"
   xmlns:cc="http://creativecommons.org/ns#"
   xmlns:rdf="http://www.w3.org/1999/02/22-rdf-syntax-ns#"
   xmlns:svg="http://www.w3.org/2000/svg"
   xmlns="http://www.w3.org/2000/svg"
   xmlns:sodipodi="http://sodipodi.sourceforge.net/DTD/sodipodi-0.dtd"
   xmlns:inkscape="http://www.inkscape.org/namespaces/inkscape"
   width="128.85175mm"
   height="190.575mm"
   viewBox="0 0 128.85174 190.575"
   version="1.1"
   id="svg8"
   inkscape:version="0.92.3 (2405546, 2018-03-11)"
   sodipodi:docname="stag.svg">
  <defs
     id="defs2" />
  <sodipodi:namedview
     id="base"
     pagecolor="#ffffff"
     bordercolor="#666666"
     borderopacity="1.0"
     inkscape:pageopacity="0.0"
     inkscape:pageshadow="2"
     inkscape:zoom="0.35"
     inkscape:cx="803.50195"
     inkscape:cy="208.68868"
     inkscape:document-units="mm"
     inkscape:current-layer="layer1"
     showgrid="false"
     inkscape:window-width="1920"
     inkscape:window-height="983"
     inkscape:window-x="0"
     inkscape:window-y="27"
     inkscape:window-maximized="1" />
  <metadata
     id="metadata5">
    <rdf:RDF>
      <cc:Work
         rdf:about="">
        <dc:format>image/svg+xml</dc:format>
        <dc:type
           rdf:resource="http://purl.org/dc/dcmitype/StillImage" />
        <dc:title />
      </cc:Work>
    </rdf:RDF>
  </metadata>
  <g
     inkscape:label="Layer 1"
     inkscape:groupmode="layer"
     id="layer1"
     transform="translate(303.30751,-13.4739)">
    <path
       style="fill:#000000;stroke-width:1"
       d="m -303.307,202.75162 c 0,-0.7135 0.0758,-2.53668 0.16852,-4.0515 l 0.16852,-2.75422 1.68882,-1.15608 c 2.04856,-1.40233 2.57861,-2.11081 3.28134,-4.38598 l 0.54189,-1.75444 0.23878,-3.49441 0.23879,-3.49442 -0.2794,-4.63021 c -0.15368,-2.54662 -0.22837,-5.24993 -0.16599,-6.00737 l 0.11342,-1.37715 0.98759,-1.48742 c 0.54318,-0.81808 1.96257,-2.567 3.15422,-3.8865 1.19165,-1.31949 3.14461,-3.53751 4.33993,-4.92894 l 2.1733,-2.52987 0.77635,-1.59919 c 1.76779,-3.64142 1.78223,-6.37212 0.0742,-14.0346 -0.29193,-1.30969 -0.73273,-3.86953 -0.97955,-5.68854 l -0.44876,-3.3073 0.15421,-2.24895 c 0.0848,-1.23693 0.38106,-3.05036 0.65832,-4.02984 l 0.50411,-1.78088 -0.95525,-0.15177 c -3.19884,-0.50823 -7.02292,-2.60996 -9.8609,-5.41957 l -1.7619,-1.74429 -0.32235,-1.17589 -0.32234,-1.17589 0.31829,-1.56792 c 0.41173,-2.02816 1.60125,-4.44721 3.14764,-6.40115 l 1.2314,-1.55593 0.18162,2.189 c 0.55026,6.63203 3.81141,11.11166 9.02606,12.3985 l 1.75308,0.43262 1.53124,-1.40396 c 4.83421,-4.43239 7.64885,-5.65661 16.12027,-7.01142 5.53203,-0.88473 6.6738,-1.28388 10.14277,-3.54583 1.5453,-1.00761 4.29234,-2.63441 6.10453,-3.6151 9.43092,-5.10368 10.82535,-6.24461 16.13853,-13.20468 3.71504,-4.86657 5.26907,-8.424296 5.78202,-13.237147 0.15449,-1.449424 0.47309,-4.439253 0.70802,-6.644065 l 0.42714,-4.008747 -0.55384,-2.894799 -0.55383,-2.894801 0.0163,-3.415202 c 0.009,-1.878361 0.10232,-4.27206 0.20739,-5.319329 l 0.19103,-1.904129 -1.11699,-0.426577 c -1.64101,-0.626708 -3.10651,-2.106988 -4.44606,-4.490903 l -1.18629,-2.111155 0.27009,-0.270095 c 0.14856,-0.148553 1.12735,-0.270097 2.1751,-0.270097 h 1.905 l 1.15626,0.607631 c 2.66985,1.403044 1.04868,-3.237423 -3.70537,-10.606335 -1.33404,-2.067796 -2.91357,-4.771661 -3.51008,-6.008588 l -1.08456,-2.248958 0.006,-2.645833 0.006,-2.645834 0.69759,-1.333538 c 0.84894,-1.622897 2.60614,-3.288813 4.45981,-4.228139 l 1.38137,-0.69999 -1.39012,1.390116 -1.39011,1.390116 -0.74666,1.578798 c -0.41066,0.86834 -0.82443,2.201339 -0.9195,2.962222 l -0.17285,1.383423 0.31652,1.556621 c 0.17409,0.856142 0.66241,2.288723 1.08517,3.183515 l 0.76863,1.626894 0.9345,0.820502 0.93451,0.820502 h 0.91073 0.91074 l 0.37493,-0.595313 c 0.20621,-0.327421 0.81108,-1.964531 1.34416,-3.63802 1.44613,-4.539836 2.42152,-5.963053 4.61776,-6.737932 1.74511,-0.615713 1.80617,-0.510463 0.46879,0.808033 l -1.23125,1.213852 -0.95117,1.924568 -0.95117,1.924568 -0.43182,2.538292 -0.43182,2.538291 0.31642,1.533185 0.31643,1.533184 0.83971,0.760244 0.83972,0.760243 1.79158,-0.128187 1.79158,-0.128187 1.22158,-0.715893 c 0.67187,-0.393741 1.57238,-1.200157 2.00113,-1.792037 l 0.77956,-1.076143 0.32844,-1.59017 0.32844,-1.59017 0.17739,0.633483 c 0.0976,0.348416 0.18926,1.136782 0.20377,1.751923 l 0.0264,1.118439 -0.6657,1.768621 c -0.36614,0.972742 -0.59858,1.980135 -0.51653,2.238652 l 0.14918,0.47003 0.94425,0.31163 c 2.59677,0.857017 6.19804,-1.123804 9.16566,-5.041436 l 0.70148,-0.926042 -0.49673,1.645158 c -0.86091,2.851354 -2.31833,4.628406 -4.63522,5.651808 l -1.30673,0.577197 -1.70733,0.137048 c -0.93904,0.07538 -3.21712,-0.01689 -5.06242,-0.205033 -3.69797,-0.377042 -4.92066,-0.262509 -5.78399,0.541797 l -0.57552,0.536181 v 1.059362 1.05936 l 1.22382,1.308362 1.22382,1.308365 1.41798,0.69375 1.41798,0.693754 4.21853,0.35274 c 9.3081,0.778317 20.35635,4.036914 22.09285,6.516121 l 0.41961,0.599064 v 1.072883 1.072883 l -0.40657,0.580448 -0.40656,0.580448 -1.11479,0.295553 c -0.61314,0.162555 -1.8887,0.809329 -2.83458,1.437278 l -1.7198,1.141722 -1.55227,0.163758 c -1.9228,0.202848 -3.84241,1.006814 -4.80641,2.013011 l -0.73235,0.76441 0.30437,3.002206 c 0.38537,3.801116 0.38569,7.424605 0.001,12.269208 l -0.30326,3.820213 0.32422,1.113806 c 0.17833,0.612593 1.26749,2.615812 2.42036,4.451592 3.12019,4.96844 4.26236,7.7901 5.55682,13.72784 0.33311,1.52797 0.67484,2.86351 0.7594,2.96786 0.0846,0.10436 1.63999,-0.28331 3.4565,-0.86148 9.7537,-3.10446 15.37704,-4.43653 16.52357,-3.91413 l 0.67799,0.30891 1.18654,1.85457 1.18654,1.85458 v 0.8534 0.8534 l -1.99206,3.93291 c -1.09563,2.1631 -2.16578,4.58573 -2.3781,5.38363 l -0.38606,1.45072 -0.003,5.26259 -0.003,5.26258 -2.47755,2.54263 c -1.36265,1.39844 -3.51166,3.88207 -4.77558,5.51918 -3.06074,3.96447 -2.93976,4.00553 -3.19086,-1.08284 l -0.16767,-3.39794 2.10281,-2.02601 2.10282,-2.02602 0.15498,-0.79375 c 0.0852,-0.43656 0.28119,-2.93687 0.43544,-5.55625 0.15426,-2.61937 0.43565,-5.56617 0.62532,-6.54844 l 0.34485,-1.78593 h -0.23066 c -1.13458,0 -5.70071,3.0621 -9.07911,6.08857 -1.01865,0.91253 -2.54977,2.17809 -3.40251,2.81234 l -1.55041,1.15319 -3.07979,0.95435 -3.07979,0.95435 -2.29454,1.31566 c -5.87963,3.37134 -12.5992,5.47192 -24.82519,7.76053 -11.37962,2.13018 -16.36317,3.75884 -21.05571,6.88114 l -2.2305,1.48413 -0.85846,1.13075 c -0.47215,0.62192 -1.81096,2.88801 -2.97512,5.03576 l -2.11667,3.90501 -1.40903,1.5586 c -1.37163,1.51723 -2.82111,2.63108 -10.49722,8.06657 -5.60511,3.96901 -9.76421,7.39509 -12.73595,10.4913 l -2.68179,2.79411 -0.85327,1.73324 -0.85327,1.73323 -0.10237,1.66785 c -0.0563,0.91732 -0.2249,3.68263 -0.37464,6.14512 -0.54991,9.04299 -1.18097,10.53198 -6.64137,15.67041 l -3.076,2.89462 -1.62036,0.86364 -1.62035,0.86364 z"
       id="path2732"
       inkscape:connector-curvature="0" />
  </g>
</svg>
