<?xml version="1.0" encoding="UTF-8" standalone="no"?>
<!-- Created with Inkscape (http://www.inkscape.org/) -->

<svg
   xmlns:dc="http://purl.org/dc/elements/1.1/"
   xmlns:cc="http://creativecommons.org/ns#"
   xmlns:rdf="http://www.w3.org/1999/02/22-rdf-syntax-ns#"
   xmlns:svg="http://www.w3.org/2000/svg"
   xmlns="http://www.w3.org/2000/svg"
   xmlns:sodipodi="http://sodipodi.sourceforge.net/DTD/sodipodi-0.dtd"
   xmlns:inkscape="http://www.inkscape.org/namespaces/inkscape"
   id="svg8"
   version="1.1"
   viewBox="0 0 92.978622 78.615066"
   height="78.615067mm"
   width="92.978622mm"
   inkscape:version="0.92.3 (2405546, 2018-03-11)"
   sodipodi:docname="stag2.svg">
  <sodipodi:namedview
     inkscape:window-maximized="1"
     inkscape:window-y="27"
     inkscape:window-x="0"
     inkscape:window-height="983"
     inkscape:window-width="1920"
     showgrid="false"
     inkscape:current-layer="layer1"
     inkscape:document-units="mm"
     inkscape:cy="69.33075"
     inkscape:cx="384.5894"
     inkscape:zoom="0.98994949"
     inkscape:pageshadow="2"
     inkscape:pageopacity="0.0"
     borderopacity="1.0"
     bordercolor="#666666"
     pagecolor="#ffffff"
     id="base" />
  <defs
     id="defs2" />
  <metadata
     id="metadata5">
    <rdf:RDF>
      <cc:Work
         rdf:about="">
        <dc:format>image/svg+xml</dc:format>
        <dc:type
           rdf:resource="http://purl.org/dc/dcmitype/StillImage" />
        <dc:title />
      </cc:Work>
    </rdf:RDF>
  </metadata>
  <g
     inkscape:label="Layer 1"
     inkscape:groupmode="layer"
     id="layer1"
     transform="translate(156.8455,-60.994924)">
    <rect
       style="opacity:0;vector-effect:none;fill:#178141;fill-opacity:1;fill-rule:nonzero;stroke:#f7f81f;stroke-width:0.50799996;stroke-linecap:butt;stroke-linejoin:miter;stroke-miterlimit:4;stroke-dasharray:none;stroke-dashoffset:0;stroke-opacity:1"
       id="rect1223"
       width="197.11458"
       height="190.5"
       x="7.014174"
       y="83.616867" />
    <path
       style="fill:#000000;stroke-width:1"
       d="m -65.467685,139.30564 c -0.38332,-0.17391 -1.49844,-0.63315 -2.47805,-1.02053 -3.56721,-1.41064 -3.69384,-1.52008 -5.64186,-4.87589 -2.92402,-5.03714 -4.08297,-6.24451 -7.81374,-8.14013 -2.59791,-1.32002 -3.5592,-1.5616 -9.46635,-2.37905 -3.00582,-0.41596 -4.42499,-0.77076 -5.82126,-1.45536 l -1.09748,-0.53811 -1.30313,-1.17517 c -1.596965,-1.44014 -2.416085,-2.02493 -3.276125,-2.33887 l -0.65993,-0.2409 -2.01342,0.0164 c -2.85428,0.0232 -5.31026,0.36076 -10.86657,1.4934 -7.62281,1.5539 -9.95231,1.85922 -15.46269,2.02665 l -3.25244,0.0988 -1.7811,-0.24905 c -0.9796,-0.13698 -2.51289,-0.29193 -3.40731,-0.34432 -0.89442,-0.0524 -2.38116,-0.18965 -3.30386,-0.30502 -0.9227,-0.11536 -1.81084,-0.16047 -1.97365,-0.10024 l -0.29601,0.1095 1.05572,1.93294 c 1.37882,2.52452 2.69268,4.63449 3.20465,5.14647 l 0.40984,0.40983 1.40407,0.50225 c 0.77223,0.27623 1.60273,0.66942 1.84555,0.87374 l 0.44149,0.37149 v 0.59566 c 0,0.32761 -0.068,0.77443 -0.15104,0.99294 l -0.15105,0.39727 h -0.60703 c -1.08689,0 -4.78473,-1.34166 -6.3389,-2.29991 l -0.66571,-0.41045 -0.45282,-0.78567 c -0.24906,-0.43211 -0.70489,-1.51239 -1.01297,-2.40061 -0.85223,-2.45703 -1.58598,-3.37156 -3.46694,-4.32106 -0.52077,-0.26288 -1.21968,-0.72445 -1.55314,-1.02571 l -0.60629,-0.54775 -0.18106,-0.54862 c -0.64356,-1.95001 1.12541,-3.50658 5.01477,-4.41266 l 1.42157,-0.33117 3.07224,-0.0152 3.07225,-0.0152 0.2872,-0.35433 0.28721,-0.35434 -0.38623,-1.02612 -0.38623,-1.02612 -0.14603,-1.71711 c -0.0803,-0.9444 -0.24965,-3.11099 -0.37629,-4.81465 -0.40649,-5.468039 -0.81861,-7.086899 -2.86103,-11.238539 l -1.26204,-2.56537 -0.45712,-0.27003 -0.45712,-0.27002 -0.7377,-0.006 c -0.40574,-0.003 -1.53805,0.11208 -2.51624,0.25605 l -1.77853,0.26177 -0.76023,-0.10085 c -0.97324,-0.12911 -1.52964,-0.42092 -1.89323,-0.99291 -0.15944,-0.25085 -0.74292,-0.81778 -1.29661,-1.25986 -1.57488,-1.25741 -1.62722,-1.09542 0.73773,-2.2833 2.5481,-1.27988 3.51466,-1.94056 4.76044,-3.2539 1.28786,-1.35771 2.3044,-2.02057 4.80474,-3.13301 l 1.86206,-0.82846 0.003,-0.55488 c 0.001,-0.30518 0.1916,-0.96404 0.42239,-1.46414 0.2308,-0.50009 0.41963,-1.15244 0.41963,-1.44966 v -0.5404 l -0.47609,-0.89323 c -0.55765,-1.04627 -1.53007,-2.07951 -2.3533,-2.5005 l -0.58366,-0.29848 -2.82366,-0.31402 c -5.73892,-0.638227 -8.40428,-1.442317 -9.01708,-2.720287 l -0.23402,-0.48804 v -0.872 -0.87201 l 0.21305,-0.0817 0.21304,-0.0817 0.86873,0.86873 0.86874,0.86874 1.12523,0.51217 c 0.61888,0.2817 1.28205,0.5617 1.47371,0.62222 l 0.34848,0.11004 0.007,-0.20403 c 0.004,-0.11222 -0.66631,-1.52824 -1.48884,-3.14672 l -1.49551,-2.94268 -0.0778,-0.71549 -0.0778,-0.71549 0.17953,-0.11095 c 0.29287,-0.181 0.60916,0.1907 2.10286,2.4712 1.81428,2.76996 2.59698,3.74589 3.25638,4.06033 l 0.52901,0.25227 0.39129,-0.17828 0.3913,-0.17829 v -0.32077 c 0,-0.37586 -0.32762,-1.04816 -0.96427,-1.97872 -0.80083,-1.17056 -0.91382,-2.32123 -0.26216,-2.66999 l 0.29716,-0.15904 0.30621,0.16388 c 0.42048,0.22504 0.62474,0.65435 0.87075,1.83016 l 0.21004,1.00387 0.55479,0.71209 c 0.72852,0.93509 1.79261,1.80262 2.89142,2.35729 l 0.88845,0.44849 h 0.61848 0.61848 l 0.17002,-0.31768 0.17001,-0.31768 -0.242,-1.17023 c -0.13311,-0.64362 -0.24201,-1.33456 -0.24201,-1.5354 v -0.36518 l 0.32264,-0.17268 0.32264,-0.17267 0.28089,0.2542 c 0.46898,0.42443 0.64741,1.55666 0.78147,4.95891 l 0.12816,3.252427 0.3857,1.82738 c 0.21214,1.00506 0.50904,2.0156 0.65977,2.24566 l 0.27408,0.41828 0.12104,-0.46456 c 0.16919,-0.64935 1.07152,-2.09637 1.46811,-2.35433 l 0.33047,-0.21496 0.25032,0.25032 0.25032,0.25032 -0.004,1.18924 c -0.002,0.65408 -0.0754,1.50287 -0.16305,1.88619 l -0.15928,0.69695 -0.63405,0.64853 -0.63405,0.64853 0.091,0.76815 0.091,0.76815 0.93987,1.87493 c 0.51693,1.03121 1.21224,2.55425 1.54514,3.38454 3.74436,9.33898 8.5362,13.924719 15.91784,15.233209 l 1.82709,0.32388 3.58316,0.0824 3.58315,0.0824 1.76014,-0.18327 c 0.96808,-0.10081 2.84041,-0.42694 4.16075,-0.72473 5.171085,-1.16632 4.53014,-1.11926 7.201835,-0.52886 l 1.54878,0.34225 1.03381,-0.0827 c 1.72019,-0.13756 2.67461,-0.94604 4.27076,-3.617699 l 0.81311,-1.36099 -0.002,-0.62082 c -10e-4,-0.34145 -0.20222,-1.1958 -0.44684,-1.89856 l -0.44476,-1.27774 h 0.18297 c 0.10063,0 0.71409,0.34867 1.36324,0.77483 l 1.18027,0.77484 0.52858,0.73522 c 0.29071,0.40438 0.6183,0.96104 0.72795,1.23702 l 0.19938,0.50179 -0.062,0.97445 -0.062,0.97445 -0.35014,0.56654 -0.35014,0.56654 -1.74512,1.162149 -1.74513,1.16216 -0.29319,0.54442 -0.29319,0.54442 0.24749,0.50979 c 0.13612,0.28039 0.59579,0.94049 1.02149,1.4669 0.96901,1.19823 1.22683,1.91602 1.34672,3.74928 0.13671,2.09046 0.45228,3.28822 1.34304,5.09748 l 0.78543,1.59534 1.26058,1.33184 1.26059,1.33183 1.56507,1.10875 1.56508,1.10876 2.56256,1.26573 c 3.69874,1.82693 3.89858,2.04035 5.43925,5.80898 l 0.96262,2.35466 0.91053,1.46114 c 1.50814,2.42017 3.25373,3.98088 4.75747,4.25361 l 0.57112,0.10358 0.70257,0.78143 0.70256,0.78142 0.2621,0.83145 0.26209,0.83146 -0.19956,0.24045 c -0.26279,0.31665 -0.5593,0.29917 -1.40066,-0.0825 z"
       id="path3926"
       inkscape:connector-curvature="0" />
  </g>
</svg>
