<?xml version="1.0" encoding="UTF-8" standalone="no"?>
<!-- Created with Inkscape (http://www.inkscape.org/) -->

<svg
   xmlns:dc="http://purl.org/dc/elements/1.1/"
   xmlns:cc="http://creativecommons.org/ns#"
   xmlns:rdf="http://www.w3.org/1999/02/22-rdf-syntax-ns#"
   xmlns:svg="http://www.w3.org/2000/svg"
   xmlns="http://www.w3.org/2000/svg"
   xmlns:sodipodi="http://sodipodi.sourceforge.net/DTD/sodipodi-0.dtd"
   xmlns:inkscape="http://www.inkscape.org/namespaces/inkscape"
   width="67.787766mm"
   height="76.103241mm"
   viewBox="0 0 67.787763 76.103241"
   version="1.1"
   id="svg5974"
   inkscape:version="0.92.3 (2405546, 2018-03-11)"
   sodipodi:docname="viper2.svg">
  <defs
     id="defs5968" />
  <sodipodi:namedview
     id="base"
     pagecolor="#ffffff"
     bordercolor="#666666"
     borderopacity="1.0"
     inkscape:pageopacity="0.0"
     inkscape:pageshadow="2"
     inkscape:zoom="0.35"
     inkscape:cx="-157.65989"
     inkscape:cy="182.86838"
     inkscape:document-units="mm"
     inkscape:current-layer="layer1"
     showgrid="false"
     inkscape:window-width="1920"
     inkscape:window-height="983"
     inkscape:window-x="0"
     inkscape:window-y="27"
     inkscape:window-maximized="1" />
  <metadata
     id="metadata5971">
    <rdf:RDF>
      <cc:Work
         rdf:about="">
        <dc:format>image/svg+xml</dc:format>
        <dc:type
           rdf:resource="http://purl.org/dc/dcmitype/StillImage" />
        <dc:title></dc:title>
      </cc:Work>
    </rdf:RDF>
  </metadata>
  <g
     inkscape:label="Layer 1"
     inkscape:groupmode="layer"
     id="layer1"
     transform="translate(8.5566552,-121.11403)">
    <g
       id="layer1-2"
       inkscape:label="Layer 1"
       transform="translate(11.329619,-19.086395)">
      <path
         style="fill:#e0252a;stroke-width:1"
         d="m 27.827651,240.09871 c 0,-0.47695 0.236198,-0.71248 0.524884,-0.5234 0.288686,0.18907 0.524884,0.5793 0.524884,0.86717 0,0.28787 -0.236198,0.52339 -0.524884,0.52339 -0.288686,0 -0.524884,-0.39022 -0.524884,-0.86716 z m 2.333628,-0.44506 c -0.272236,-1.14945 -0.493742,-1.37261 -0.820356,-0.82648 -0.348954,0.58348 -0.449196,0.54112 -0.455468,-0.19243 -0.0137,-1.60282 0.991663,-1.68941 1.363963,-0.11747 l 0.353005,1.49048 0.706945,-1.60679 c 0.611762,-1.39045 0.663762,-1.41956 0.386214,-0.21622 -0.619756,2.68705 -1.13008,3.17562 -1.534303,1.46891 z m 3.440093,0.44506 c 0,-0.47695 0.236198,-0.71248 0.524884,-0.5234 0.288686,0.18907 0.524883,0.5793 0.524883,0.86717 0,0.28787 -0.236197,0.52339 -0.524883,0.52339 -0.288686,0 -0.524884,-0.39022 -0.524884,-0.86716 z m 2.427823,0.0141 c -0.194149,-0.53615 -0.229337,-1.10588 -0.0782,-1.26604 0.15114,-0.16016 0.285453,0.0634 0.29847,0.49678 0.01302,0.4334 0.364978,0.0371 0.782124,-0.88069 0.632196,-1.39091 0.705055,-1.43721 0.437716,-0.27811 -0.552335,2.39473 -1.03643,3.04285 -1.440108,1.92806 z m 3.345898,-0.0141 c 0,-0.47695 0.236197,-0.71248 0.524883,-0.5234 0.288686,0.18907 0.524884,0.5793 0.524884,0.86717 0,0.28787 -0.236198,0.52339 -0.524884,0.52339 -0.288686,0 -0.524883,-0.39022 -0.524883,-0.86716 z m 2.427823,0.0141 c -0.194149,-0.53615 -0.229338,-1.10588 -0.0782,-1.26604 0.151141,-0.16016 0.285453,0.0634 0.29847,0.49678 0.01302,0.4334 0.364978,0.0371 0.782124,-0.88069 0.632196,-1.39091 0.705055,-1.43721 0.437716,-0.27811 -0.552335,2.39473 -1.03643,3.04285 -1.440107,1.92806 z m 5.314211,0.48833 c 1.485573,-0.33819 1.52358,-1.07925 0.07592,-1.48043 -1.266597,-0.351 -1.087858,-1.72907 0.240308,-1.85274 0.672712,-0.0626 0.69378,-0.0195 0.08772,0.17984 -1.139039,0.37455 -0.984865,1.11153 0.307456,1.46966 1.451991,0.40238 1.003882,1.74492 -0.621299,1.86141 -1.175745,0.0843 -1.182505,0.071 -0.09011,-0.17774 z m 2.870059,-2.41642 c -0.0054,-1.69827 0.142075,-2.56435 0.331564,-1.94679 0.190564,0.62106 0.805045,1.11245 1.391109,1.11245 0.805613,0 1.061147,0.3881 1.098703,1.66868 0.04818,1.64352 0.04566,1.64511 -0.166835,0.10554 -0.28877,-2.09199 -1.857049,-1.78129 -2.309152,0.45748 -0.248921,1.23263 -0.33813,0.8717 -0.345389,-1.39736 z m 5.036002,2.40117 c 0.378897,-0.16068 0.83161,-0.14092 1.006028,0.0439 0.174414,0.18483 -0.135598,0.31629 -0.688909,0.29214 -0.611464,-0.0267 -0.735835,-0.15849 -0.317119,-0.33605 z m 1.805431,-1.56683 c 0.0058,-1.2237 0.113318,-1.65881 0.238865,-0.96691 0.125546,0.6919 0.120781,1.6931 -0.0106,2.22491 -0.131373,0.5318 -0.234098,-0.0343 -0.228272,-1.258 z m 2.393638,1.56683 c 0.378898,-0.16068 0.83161,-0.14092 1.006029,0.0439 0.174413,0.18483 -0.135599,0.31629 -0.68891,0.29214 -0.611463,-0.0267 -0.735834,-0.15849 -0.317119,-0.33605 z m 2.022991,0.009 c -0.192459,-0.20392 -0.349924,-1.34015 -0.349924,-2.52492 0,-1.81784 0.114844,-2.04217 0.735614,-1.43693 0.404585,0.39447 0.522684,0.80065 0.262442,0.90263 -0.8661,0.33937 -0.50897,2.78236 0.445374,3.04664 0.73595,0.20381 0.753339,0.26721 0.08748,0.3189 -0.457089,0.0355 -0.988534,-0.10234 -1.180988,-0.30629 z m 3.75073,-0.009 c 0.378897,-0.16068 0.83161,-0.14092 1.006028,0.0439 0.174414,0.18483 -0.135598,0.31629 -0.688909,0.29214 -0.611464,-0.0267 -0.735835,-0.15849 -0.317119,-0.33605 z m 2.794312,-1.30941 c -0.05929,-1.63207 0.118068,-1.98261 1.040399,-2.05624 0.961613,-0.0768 1.002097,0.001 0.299572,0.57692 -0.446771,0.36612 -0.914946,1.29143 -1.040398,2.05624 -0.1739,1.06018 -0.245074,0.92311 -0.299573,-0.57692 z m 3.471487,1.32463 c 1.485573,-0.33819 1.52358,-1.07925 0.07592,-1.48043 -1.266597,-0.351 -1.087858,-1.72907 0.240307,-1.85274 0.672712,-0.0626 0.693781,-0.0195 0.08772,0.17984 -1.139039,0.37455 -0.984865,1.11153 0.307456,1.46966 1.451991,0.40238 1.003882,1.74492 -0.6213,1.86141 -1.175744,0.0843 -1.182505,0.0709 -0.09011,-0.17774 z m 3.105563,-0.006 c -0.192459,-0.20396 -0.349924,-1.34019 -0.349924,-2.52496 0,-1.81784 0.114845,-2.04217 0.735614,-1.43693 0.404586,0.39447 0.522684,0.80065 0.262442,0.90263 -0.8661,0.33937 -0.508969,2.78236 0.445374,3.04664 0.73595,0.20381 0.753339,0.26721 0.08748,0.3189 -0.45709,0.0355 -0.988535,-0.10234 -1.180989,-0.30629 z m 3.980366,-0.22998 c 0.505201,-0.31182 0.918547,-0.91753 0.918547,-1.34601 0,-0.42848 -0.413346,-1.03419 -0.918547,-1.34601 -1.022977,-0.63142 -0.667531,-0.78396 0.613175,-0.26316 1.676945,0.68193 0.693355,3.62944 -1.180988,3.53905 -0.1929,-0.009 0.06261,-0.27204 0.567813,-0.58387 z m 3.149303,0.23241 c -0.360858,-0.15431 -0.656105,-0.85867 -0.656105,-1.56526 0,-1.21876 0.925506,-2.00222 2.273686,-1.92469 0.337243,0.0194 0.08173,0.26162 -0.567814,0.5383 -0.649544,0.27667 -1.180988,0.89462 -1.180988,1.37323 0,0.47861 0.531444,1.09656 1.180988,1.37324 0.649544,0.27667 0.826692,0.49914 0.393663,0.49439 -0.433029,-0.005 -1.082573,-0.13491 -1.44343,-0.28921 z m 3.148063,-2.41276 c 0.0066,-2.4722 0.07049,-2.695 0.332776,-1.16111 0.291038,1.70205 0.398985,1.8026 1.044939,0.97339 0.396208,-0.5086 0.972798,-0.92473 1.281309,-0.92473 0.308516,0 0.10558,0.35284 -0.450964,0.7841 -0.997815,0.77319 -0.997384,0.80222 0.03091,2.08585 l 1.042787,1.30175 -1.091097,-0.9734 c -0.600105,-0.53537 -1.232327,-0.9734 -1.404946,-0.9734 -0.172613,0 -0.421864,0.43803 -0.553883,0.9734 -0.132024,0.53537 -0.23635,-0.40326 -0.231836,-2.08585 z m 6.824727,2.41276 c -0.360858,-0.15431 -0.656105,-0.85867 -0.656105,-1.56526 0,-1.21876 0.925506,-2.00222 2.273686,-1.92469 0.337243,0.0194 0.08173,0.26162 -0.567814,0.5383 -0.649544,0.27667 -1.180988,0.89462 -1.180988,1.37323 0,0.47861 0.531444,1.09656 1.180988,1.37324 0.649544,0.27667 0.826692,0.49914 0.393663,0.49439 -0.433029,-0.005 -1.082573,-0.13491 -1.44343,-0.28921 z m 4.840136,-0.38553 c 0.621336,-0.48146 0.847167,-1.1012 0.624926,-1.71494 -0.465902,-1.28663 -1.545992,-0.82915 -1.986522,0.8414 l -0.355818,1.34933 -0.05233,-1.47011 c -0.05509,-1.54786 0.963749,-2.3376 2.309656,-1.79029 1.042876,0.42409 1.011383,2.77216 -0.04293,3.20089 -1.347771,0.54807 -1.536981,0.38959 -0.496992,-0.41628 z m 2.439113,-0.9709 c -0.05713,-1.84276 0.05333,-1.99845 1.381332,-1.9468 1.23045,0.0478 1.45065,0.30234 1.49236,1.72481 0.0482,1.64352 0.0457,1.64511 -0.16683,0.10554 -0.28877,-2.09199 -1.857049,-1.78129 -2.309152,0.45748 -0.331994,1.644 -0.336272,1.64033 -0.39771,-0.34103 z m 15.804712,1.07357 c -1.37422,-1.45628 -0.40137,-4.39883 1.42811,-4.31955 0.49906,0.0216 0.35702,0.22972 -0.36742,0.5383 -0.64955,0.27668 -1.18099,0.71871 -1.18099,0.98231 0,0.26359 0.53144,0.45938 1.18099,0.43509 0.91924,-0.0344 1.18099,0.26235 1.18099,1.33878 0,1.53826 -1.22766,2.09964 -2.24168,1.02507 z m 1.97923,-1.01745 c 0,-1.15156 -1.26628,-1.53496 -1.83709,-0.55622 -0.43935,0.75333 0.15349,1.66868 1.08075,1.66868 0.41599,0 0.75634,-0.50061 0.75634,-1.11246 z m 2.4932,1.30031 c 0.36086,-0.15431 0.65611,-1.1149 0.65611,-2.13465 0,-1.01974 -0.29525,-1.98034 -0.65611,-2.13464 -0.39195,-0.1676 -0.28629,-0.29823 0.26244,-0.32446 0.72551,-0.0347 0.91855,0.41391 0.91855,2.13464 0,1.2224 0.28796,2.30169 0.65611,2.45911 0.36085,0.1543 -0.0525,0.28055 -0.91855,0.28055 -0.86606,0 -1.27941,-0.12625 -0.91855,-0.28055 z m 3.92571,-0.28286 c -1.49501,-1.58429 -0.10352,-4.89389 1.74204,-4.14339 0.59331,0.24127 0.78,0.92333 0.66279,2.42157 -0.17247,2.20477 -1.23274,2.9639 -2.40483,1.72182 z m 1.88127,-1.71273 c -0.17877,-1.96478 -1.58852,-2.55738 -1.90755,-0.80185 -0.2663,1.46535 0.2752,2.60959 1.23497,2.60959 0.62818,0 0.79602,-0.45109 0.67258,-1.80774 z m 2.76131,2.20704 c -0.0214,-0.23926 0.29748,-1.28825 0.70865,-2.33108 0.73635,-1.86756 0.72648,-1.89947 -0.65611,-2.1237 -1.25802,-0.20404 -1.22667,-0.2363 0.3022,-0.311 0.93822,-0.0458 1.68835,0.10439 1.66694,0.33383 -0.0653,0.69999 -1.98003,4.89744 -2.02168,4.43195 z m 3.47519,-0.22843 c -0.14252,-0.24695 -0.21666,-1.32504 -0.16476,-2.39578 0.0811,-1.67236 0.2771,-1.94679 1.39059,-1.94679 1.16233,0 1.29621,0.22981 1.29621,2.2249 0,1.8548 -0.18821,2.25333 -1.13146,2.39578 -0.6223,0.094 -1.24806,-0.0311 -1.39058,-0.27811 z m 2.2596,-1.00521 c 0,-0.46352 -0.46656,-0.83434 -1.04976,-0.83434 -0.58321,0 -1.04977,0.37082 -1.04977,0.83434 0,0.46352 0.46656,0.83434 1.04977,0.83434 0.5832,0 1.04976,-0.37082 1.04976,-0.83434 z m 0,-2.22491 c 0,-0.45889 -0.34035,-0.83434 -0.75634,-0.83434 -0.8769,0 -1.46884,0.79389 -0.979,1.31298 0.62732,0.66478 1.73534,0.35917 1.73534,-0.47864 z m 3.68222,3.1983 c -0.004,-0.3824 -0.48043,-0.69528 -1.0578,-0.69528 -0.57737,0 -1.04977,-0.22687 -1.04977,-0.50415 0,-0.27729 0.4724,-0.37325 1.04977,-0.21324 0.81895,0.22694 1.04977,0.0171 1.04977,-0.95452 0,-1.09625 -0.10442,-1.15399 -0.87165,-0.48204 -0.79785,0.69875 -0.80938,0.65742 -0.13619,-0.48813 0.40451,-0.68833 0.88901,-1.25151 1.07667,-1.25151 0.52581,0 0.82462,3.82029 0.35951,4.59631 -0.3261,0.54408 -0.41394,0.54253 -0.42031,-0.007 z m 3.01005,0.0488 c 0.36086,-0.15431 0.6561,-1.1149 0.6561,-2.13465 0,-1.01975 -0.29524,-1.98034 -0.6561,-2.13464 -0.39195,-0.1676 -0.28629,-0.29823 0.26244,-0.32447 0.72551,-0.0347 0.91855,0.41392 0.91855,2.13465 0,1.2224 0.28796,2.30169 0.6561,2.45911 0.36086,0.1543 -0.0525,0.28055 -0.91854,0.28055 -0.86606,0 -1.27941,-0.12625 -0.91855,-0.28055 z m 4.06785,-0.0212 c 0.57737,-0.14328 1.34501,-0.66269 1.70587,-1.15424 0.5937,-0.80871 0.65611,-0.80991 0.65611,-0.0126 0,0.94332 -1.11105,1.59688 -2.53613,1.49187 -0.63973,-0.0472 -0.59281,-0.13471 0.17415,-0.32504 z m 4.42259,-0.0984 c 1.73095,-0.5126 1.96587,-1.62605 0.47654,-2.25862 -0.67372,-0.28615 -0.94901,-0.53614 -0.61177,-0.55553 1.24462,-0.0716 2.27368,0.66773 2.27368,1.63344 0,1.03963 -1.04973,1.70736 -2.53612,1.61324 -0.51463,-0.0326 -0.35068,-0.2109 0.39767,-0.43251 z m -84.950798,-1.31976 c -0.02278,-0.8413 0.05734,-1.52963 0.178072,-1.52963 0.120734,0 0.652178,-0.15882 1.180988,-0.35294 0.844953,-0.31017 0.83425,-0.2449 -0.08829,0.53853 -1.043216,0.88592 -1.04267,0.8916 0.08748,0.90918 0.625483,0.01 1.256382,-0.29519 1.40199,-0.6776 0.158158,-0.41535 0.281427,-0.30339 0.306181,0.27812 0.02855,0.67063 -0.3531,0.97339 -1.227031,0.97339 -0.697655,0 -1.387604,0.31288 -1.533212,0.69529 -0.145608,0.3824 -0.28339,0.007 -0.30618,-0.83434 z m 13.182979,-0.13906 c 0.01071,-0.91777 0.128334,-1.22589 0.261413,-0.6847 0.133079,0.54119 0.124329,1.2921 -0.01947,1.66868 -0.143781,0.37659 -0.252663,-0.0662 -0.241966,-0.98398 z m -22.569999,-0.55623 c 0.01071,-0.91777 0.128334,-1.22589 0.261413,-0.6847 0.133079,0.5412 0.124329,1.2921 -0.01947,1.66869 -0.143782,0.37658 -0.252663,-0.0662 -0.241966,-0.98399 z m 4.176258,-0.55622 c -0.03491,-1.2237 0.110089,-1.94956 0.322184,-1.61303 0.212095,0.33654 0.739923,0.7548 1.172952,0.92948 0.645429,0.26037 0.628354,0.32552 -0.09472,0.36152 -0.485124,0.0241 -0.984398,0.60709 -1.109509,1.29542 -0.129048,0.71003 -0.254915,0.28887 -0.290912,-0.97339 z m -23.691245,0.72811 c -0.0042,-0.51731 0.228162,-1.09527 0.516848,-1.28434 0.664293,-0.43507 0.664293,0.30127 0,1.39057 -0.438488,0.71903 -0.509919,0.70434 -0.516848,-0.10623 z m 5.773721,0 c -0.0042,-0.51731 0.228162,-1.09527 0.516848,-1.28434 0.664292,-0.43507 0.664292,0.30127 0,1.39057 -0.438488,0.71903 -0.50992,0.70434 -0.516848,-0.10623 z m 68.051884,0.29163 c -0.60395,-0.64001 -0.38224,-1.29786 0.4374,-1.29786 0.43303,0 0.78733,0.37546 0.78733,0.83434 0,0.86859 -0.62078,1.10354 -1.22473,0.46352 z m -81.140573,-1.06609 c 0.0252,-0.64798 0.149561,-0.77978 0.317114,-0.33606 0.151623,0.40152 0.132979,0.88128 -0.04141,1.0661 -0.174419,0.18483 -0.29847,-0.14369 -0.27568,-0.73004 z m 5.773721,0 c 0.02519,-0.64798 0.14956,-0.77978 0.317114,-0.33606 0.151623,0.40152 0.132979,0.88128 -0.04141,1.0661 -0.174419,0.18483 -0.29847,-0.14369 -0.275679,-0.73004 z m 5.77372,0 c 0.02519,-0.64798 0.149561,-0.77978 0.317114,-0.33606 0.151623,0.40152 0.132979,0.88128 -0.04141,1.0661 -0.174419,0.18483 -0.29847,-0.14369 -0.27568,-0.73004 z m 64.104892,-0.01 c -0.37223,-0.42805 -0.44522,-0.77825 -0.16219,-0.77825 0.54506,0 1.33411,1.05806 1.02278,1.37147 -0.10108,0.10175 -0.48834,-0.1652 -0.86059,-0.59323 z m 41.88017,-0.0371 c 0.43303,-0.19344 0.98246,-0.62705 1.22095,-0.96358 0.2789,-0.39355 0.35703,-0.31418 0.21895,0.22246 -0.11807,0.45888 -0.6675,0.8925 -1.22095,0.96359 -0.70704,0.0908 -0.77215,0.0246 -0.21895,-0.22247 z m -0.6233,-1.67732 c 0.3789,-0.16067 0.83162,-0.14092 1.00603,0.0439 0.17442,0.18483 -0.13559,0.31629 -0.68891,0.29214 -0.61146,-0.0267 -0.73583,-0.15849 -0.31712,-0.33605 z m 4.16627,0.0116 c 0.36086,-0.1543 0.95135,-0.1543 1.31221,0 0.36086,0.15431 0.0656,0.28056 -0.65611,0.28056 -0.72171,0 -1.01696,-0.12625 -0.6561,-0.28056 z M 6.569862,212.03852 c -6.77837998,-1.05518 -10.7699163,-4.81466 -10.754988,-10.12973 0.00666,-2.36862 2.0416264,-6.79985 4.41452321,-9.61278 L 2.10626,190.0711 0.29300157,193.33564 c -1.87559837,3.37677 -2.73756767,7.12459 -2.18002097,9.47869 0.4682503,1.97707 2.78272548,4.66726 5.0873465,5.9132 4.1303522,2.23297 14.0309169,2.49938 20.3934909,0.54876 0.99128,-0.30391 1.894537,-0.45484 2.007235,-0.33541 0.112698,0.11942 -1.052644,0.58998 -2.589655,1.04567 -6.872984,2.03772 -12.234583,2.70686 -16.441536,2.05197 z m 4.178775,-4.44059 c -5.2012747,-0.8098 -8.1212614,-3.49327 -8.1073651,-7.4507 0.00441,-1.25892 0.1815688,-2.57792 0.3936627,-2.93112 0.212094,-0.35319 0.3856253,0.43402 0.3856253,1.74934 0,2.89486 1.1393697,4.43418 4.4615113,6.02763 1.965153,0.94258 3.3760818,1.12391 8.3981388,1.07931 10.00178,-0.0888 19.213908,-2.98592 19.947391,-6.27319 0.268893,-1.20511 0.356638,-1.25323 0.676575,-0.371 0.202191,0.55753 0.139761,1.46486 -0.138726,2.0163 -1.098755,2.17564 -9.351459,5.09504 -17.322168,6.12773 -4.840388,0.62712 -4.831945,0.6271 -8.694645,0.0257 z M 154.6177,200.71555 c 12.26476,-3.47147 20.5095,-9.26525 24.13326,-16.95903 4.73833,-10.06019 -0.41483,-20.64884 -11.97232,-24.60061 -6.68625,-2.28618 -12.68202,-0.82186 -18.35896,4.48375 l -2.4932,2.33011 v -1.67974 c 0,-0.92386 0.23035,-2.32179 0.51189,-3.10652 0.7907,-2.20389 -0.20096,-1.68567 -1.25451,0.65558 -0.54143,1.20318 -1.13612,4.43221 -1.40857,7.64812 -0.85016,10.03527 -1.67749,12.52851 -4.54132,13.68571 -2.06501,0.83442 -5.40295,0.14645 -7.22557,-1.48923 -1.08992,-0.97812 -1.21745,-1.22733 -0.4195,-0.81973 3.00577,1.53536 6.89404,0.0345 8.35333,-3.22434 1.06876,-2.38673 0.61656,-8.74039 -0.83694,-11.75962 -2.48675,-5.16552 -11.91794,-11.16704 -18.21653,-11.59205 l -3.32088,-0.22409 -2.36658,2.5079 c -2.13553,2.26305 -2.41666,2.40876 -2.87942,1.49244 -0.73545,-1.45626 -0.63259,-3.67959 0.25432,-5.4971 1.18705,-2.43257 4.31789,-3.49975 11.17395,-3.80875 3.24771,-0.14638 5.90494,-0.48495 5.90494,-0.75238 0,-0.26743 -0.7086,-0.48623 -1.57465,-0.48623 -2.1589,0 -1.97599,-0.97832 0.39366,-2.10548 1.51818,-0.72214 3.52877,-0.93668 8.7918,-0.93812 6.24625,-0.002 7.42293,0.17232 13.90942,2.0573 3.89726,1.13254 8.93117,2.46407 11.18647,2.95895 2.40604,0.52796 6.01668,1.91628 8.73742,3.35962 9.40566,4.98965 14.30814,13.5394 13.51466,23.5691 -1.1078,14.00294 -13.07209,23.97357 -30.3622,25.30281 l -4.38856,0.33739 z m -12.46438,-46.54276 c 1.4873,-1.46836 1.47705,-1.95378 -0.0178,-0.84421 -1.89209,1.40441 -4.96271,1.11682 -6.46932,-0.6059 -1.56363,-1.78794 -1.71714,-0.92622 -0.19928,1.11866 1.40692,1.89541 4.92562,2.06984 6.68642,0.33145 z m -2.52544,-3.0471 c 0,-1.44516 0.39785,-1.40051 7.15224,0.80275 2.33458,0.76153 4.70201,1.15142 6.29861,1.0373 l 2.5581,-0.18284 -2.62442,-0.43556 c -1.44343,-0.23956 -4.2778,-1.10259 -6.2986,-1.91784 -4.21709,-1.7013 -10.17081,-2.27326 -13.0783,-1.25639 -2.4881,0.87018 -2.42109,1.69978 0.0874,1.08246 3.78552,-0.93158 4.33029,-0.74237 4.33029,1.50398 0,1.72795 0.11212,1.91629 0.78732,1.32246 0.43303,-0.38084 0.78733,-1.26119 0.78733,-1.95632 z m 2.88686,48.16765 c 15.33382,-5.70777 22.40689,-12.43247 21.66638,-20.59929 -0.52584,-5.7993 -4.64644,-10.96366 -10.54114,-13.21127 l -2.52174,-0.96151 1.99685,-0.78566 c 1.13844,-0.44791 4.14042,-0.81445 6.98325,-0.85264 6.52945,-0.0877 9.75649,1.10152 13.40232,4.93905 4.26194,4.48604 5.06671,9.66391 2.42257,15.5868 -3.50724,7.85625 -13.27568,13.48909 -28.38267,16.36652 -8.58642,1.63545 -10.2784,1.47317 -5.02582,-0.482 z M -6.272653,198.09829 c -0.029063,-3.36637 1.4317782,-7.44193 3.5957865,-10.0318 2.7033232,-3.23531 6.5262395,-5.59852 13.2253725,-8.17552 6.638649,-2.55374 9.965749,-4.86647 11.817188,-8.21436 1.18458,-2.14204 1.349641,-2.96855 1.13505,-5.68359 -0.138108,-1.74737 -0.437772,-3.64395 -0.665918,-4.21462 -0.876904,-2.19344 3.71181,0.30888 5.674214,3.09426 2.565757,3.64176 1.180358,10.2628 -2.713292,12.96729 -1.0476,0.72765 -5.766326,2.47081 -10.486062,3.87368 -4.719736,1.40287 -9.4436894,3.02083 -10.4976742,3.59546 -5.23193718,2.85244 -8.3880423,6.55633 -10.1244101,11.88163 -0.9268532,2.84258 -0.9434149,2.85823 -0.9602547,0.90757 z m 117.743173,-7.7592 c -2.13101,-0.45854 -7.53473,-3.06496 -7.53473,-3.63429 0,-0.15857 0.51703,0.005 1.14896,0.36331 0.63192,0.3584 3.28915,0.73693 5.90494,0.84118 3.99301,0.15915 4.46127,0.0942 2.91889,-0.40492 -4.80968,-1.55639 -6.24507,-2.33522 -8.16465,-4.42998 l -2.07059,-2.25957 2.65684,1.40652 c 3.5452,1.87681 6.49016,2.32111 9.4885,1.43149 3.44144,-1.02108 5.53337,-3.48885 7.29399,-8.60444 2.31684,-6.73168 5.76211,-9.57444 10.08193,-8.31881 l 1.44688,0.42057 -1.74822,0.41392 c -3.6134,0.85554 -5.4769,4.06165 -6.9392,11.93872 -0.68948,3.71407 -1.97786,6.74411 -3.47948,8.18314 -2.34733,2.24947 -7.31443,3.44707 -11.00406,2.65316 z M 7.8820712,186.08906 c 0,-0.39873 2.8294248,-1.40023 9.3834918,-3.32138 8.419366,-2.4679 11.024159,-3.69264 13.44793,-6.32303 1.637454,-1.77705 2.030733,-2.65087 2.242078,-4.98171 0.440561,-4.85884 -1.719566,-8.99988 -5.915245,-11.33974 l -1.574651,-0.87815 2.924578,-0.0222 c 6.237671,-0.0475 10.864059,3.15037 12.033925,8.31813 1.292295,5.70856 -1.644272,10.94342 -7.418654,13.22482 -1.548743,0.61189 -6.240762,1.63868 -10.426709,2.28176 -4.185948,0.64308 -9.205148,1.63937 -11.153779,2.21399 -1.9486306,0.57463 -3.5429648,0.94703 -3.5429648,0.82758 z M 132.4893,179.91145 c -0.67184,-0.47539 -1.78445,-2.58816 -1.78445,-3.38856 0,-0.3025 0.68978,0.18096 1.53284,1.07436 1.2456,1.31999 1.76196,1.53363 2.75564,1.14013 1.01055,-0.4002 1.2228,-0.88479 1.2228,-2.79183 0,-1.98344 0.0922,-2.17373 0.65611,-1.35471 0.90792,1.31859 0.82119,3.8232 -0.16872,4.87222 -0.8569,0.90809 -3.21063,1.15852 -4.21422,0.44839 z M 9.7753209,166.10785 c -0.1752293,-0.48391 -0.3185986,-1.29051 -0.3185986,-1.79244 0,-0.70742 0.1837214,-0.63465 0.8170887,0.3236 1.29974,1.96645 2.596628,1.48551 6.660326,-2.46992 4.89993,-4.76939 7.341201,-5.94193 11.751678,-5.64432 2.18529,0.14746 3.159931,0.0365 2.822373,-0.32116 -0.826518,-0.87587 -6.719046,-1.09999 -9.787626,-0.37227 -1.941315,0.46039 -3.013527,1.04603 -3.441778,1.87988 l -0.622032,1.21117 -0.316523,-1.38271 c -0.260514,-1.13804 -0.823481,-1.50653 -3.181468,-2.08242 -3.402627,-0.83103 -5.2098658,-0.26569 -5.2601927,1.64547 l -0.033272,1.26344 -0.5028396,-1.33213 c -0.6457932,-1.71084 -0.1785329,-3.24582 1.1211133,-3.68295 0.562607,-0.18922 1.02292,-0.55807 1.02292,-0.81966 0,-1.09802 3.977385,-1.78861 9.135923,-1.58625 4.737214,0.18583 5.752151,0.41525 8.74551,1.97687 1.862492,0.97166 4.022346,2.46893 4.799673,3.32727 l 1.413322,1.56062 -3.913464,-0.18307 c -5.469068,-0.25585 -7.978979,0.78237 -13.248771,5.48034 -4.483156,3.99668 -6.952554,4.96359 -7.6633621,3.00064 z M 21.676953,153.08201 c 0.406874,0 0.392554,-0.20598 -0.04668,-0.67144 -0.494891,-0.52445 -0.833891,-0.44627 -1.548407,0.35708 -0.871265,0.97958 -0.869044,1.01153 0.04668,0.67144 0.528812,-0.19639 1.225595,-0.35708 1.548407,-0.35708 z M 7.0448754,164.29452 c 0.5499433,-0.66023 0.7861409,-1.2015 0.5248837,-1.20281 -0.2612577,-0.001 0.5878761,-0.75114 1.8869632,-1.6663 3.3649697,-2.37049 3.7141147,-2.06101 0.7844177,0.69529 -3.0057244,2.82782 -4.7019086,3.98142 -3.1962646,2.17382 z m 5.2987076,0.0682 c 0.577372,-0.14906 1.522162,-0.68321 2.099534,-1.18699 1.041151,-0.90846 1.04156,-0.9057 0.04987,0.33554 -0.549944,0.68833 -1.494734,1.22247 -2.099535,1.18698 -1.057584,-0.062 -1.059491,-0.0749 -0.04987,-0.33553 z M 115.69318,162.8716 c -0.98153,-1.04014 -1.7846,-2.28331 -1.7846,-2.76259 0,-1.43531 3.54964,-4.7955 5.13511,-4.86103 3.07635,-0.12716 4.68264,0.19273 7.33087,1.45993 3.04531,1.45721 3.82638,2.3537 0.93541,1.07364 -2.23535,-0.98976 -5.3594,-1.05072 -5.67148,-0.11067 -0.12695,0.38241 -0.0344,1.25847 0.20571,1.9468 0.2401,0.68833 0.24279,1.25151 0.006,1.25151 -0.6069,0 -2.16789,-1.91033 -2.16789,-2.65305 0,-1.65456 -2.28646,-1.28037 -3.19735,0.52326 -0.4263,0.84414 -0.24832,1.61094 0.82404,3.55004 1.63007,2.9476 0.87354,3.22017 -1.61581,0.58216 z M 28.97585,113.31178 c -0.111322,-3.09413 -1.541583,-6.67473 -2.666204,-6.67473 -1.232821,0 -2.643026,2.62501 -3.137574,5.84039 l -0.470537,3.05925 -0.04983,-2.78114 c -0.03201,-1.78661 0.352415,-3.67621 1.075032,-5.28415 0.850485,-1.89248 1.135738,-3.62236 1.169457,-7.0919 0.04136,-4.256804 0.123342,-4.588872 1.132741,-4.588872 1.008154,0 1.087443,0.316883 1.078594,4.310762 -0.0073,3.3175 0.26177,4.9261 1.167997,6.98138 0.900044,2.04124 1.133114,3.41764 0.988976,5.84038 l -0.188586,3.16976 z m -15.243782,-4.9844 C 15.148111,102.74748 12.615627,94.677134 6.8307533,86.334769 -2.8650724,72.352415 -4.8307639,68.156293 -3.9680179,63.282843 -3.4773214,60.511014 -0.57811955,57.260258 2.7688417,55.729077 8.1289041,53.276935 16.796046,54.421166 23.359102,58.447392 l 2.617379,1.60568 2.631457,-1.558944 c 4.366702,-2.586949 9.033364,-3.989158 13.391573,-4.023813 6.317301,-0.05023 10.872997,2.193298 13.160068,6.480901 0.934529,1.751984 1.096497,2.73601 0.875485,5.31896 -0.345285,4.035221 -1.921117,7.305982 -7.013213,14.556467 -5.179374,7.374757 -8.178764,12.355269 -9.346672,15.520212 -1.357864,3.679715 -1.941298,8.342225 -1.416435,11.319445 0.542357,3.07644 0.292811,3.29586 -0.747529,0.6573 -2.174746,-5.51571 -0.116456,-14.78004 5.408354,-24.342918 1.729019,-2.992759 1.82068,-3.388737 1.493593,-6.452452 -0.388319,-3.637215 -0.09325,-4.167307 2.667696,-4.792547 0.918284,-0.207953 1.976963,-0.77056 2.352633,-1.250238 0.58481,-0.746736 0.363608,-1.163671 -1.538387,-2.899605 -2.664708,-2.43206 -2.905971,-3.370549 -0.453583,-1.764381 2.139163,1.40102 3.39943,1.474099 3.852331,0.223383 0.502739,-1.388357 -3.597579,-5.000002 -6.832206,-6.017944 -4.563827,-1.436241 -10.386357,-0.873823 -15.710677,1.517549 l -2.488421,1.117655 -3.772846,-1.481971 C 14.581831,59.073926 6.8318377,59.789306 2.6428649,64.012136 c -1.1600407,1.169417 -2.10916532,2.423126 -2.10916532,2.786021 0,1.211638 1.64962442,1.34999 3.59067372,0.301145 3.0797881,-1.66416 3.1032672,-1.600904 0.401379,1.08135 -2.9872899,2.965583 -2.8158745,3.729929 1.0689682,4.766558 l 2.404858,0.641711 -0.3356552,3.452732 c -0.2675018,2.751667 -0.1462116,3.809155 0.5973507,5.208104 2.517854,4.737126 5.312447,10.689307 5.861294,12.483923 1.763099,5.76498 1.670951,12.10911 -0.214422,14.76233 -0.645477,0.90835 -0.666968,0.76572 -0.176078,-1.16863 z m 131.444882,-4.47146 c 0.85928,-5.59857 4.32169,-9.833799 13.87162,-16.967859 6.90009,-5.154552 10.46145,-8.685257 12.22585,-12.120619 3.62151,-7.051248 1.79592,-12.428418 -5.40236,-15.912331 -3.81873,-1.848237 -11.8039,-3.268796 -16.97541,-3.019922 -3.74678,0.180311 -3.97484,0.133736 -2.48972,-0.508445 0.89919,-0.388817 3.86627,-0.952138 6.59351,-1.251826 12.96214,-1.424368 23.11228,2.275961 26.48294,9.654603 1.40229,3.069729 1.43887,8.124062 0.0811,11.202595 -2.44447,5.54232 -5.24899,7.998672 -16.51178,14.461902 -10.29564,5.908237 -14.19373,9.07081 -16.4541,13.349452 l -1.7631,3.33736 z m -4.43313,-0.69877 c -1.47524,-3.705213 -7.5265,-8.819565 -15.2878,-12.920816 -5.67264,-2.99755 -11.80778,-7.097038 -14.00891,-9.36072 -4.33175,-4.454855 -6.10819,-11.503244 -4.15058,-16.468249 1.78369,-4.523899 6.66273,-8.230129 12.91065,-9.807216 5.24837,-1.324783 18.22852,-0.670059 21.356,1.077207 0.3427,0.191462 -1.19457,0.260639 -3.41616,0.153727 -7.95358,-0.38276 -17.69346,2.329417 -21.26722,5.922088 -3.38153,3.399423 -3.80483,6.871899 -1.47094,12.06649 1.79132,3.986996 5.02954,7.342609 12.59449,13.051099 2.98881,2.255345 6.69847,5.325101 8.2437,6.821685 3.01807,2.923062 5.67652,7.845285 5.39095,9.981555 -0.15959,1.19386 -0.22904,1.15371 -0.89418,-0.51685 z M 20.47928,99.633723 c -2.268391,-1.430839 -3.149302,-2.587385 -3.149302,-4.134703 0,-0.655285 -0.944791,-3.091787 -2.099535,-5.414441 -2.449628,-4.927191 -2.736077,-6.14372 -0.610164,-2.591327 0.819154,1.368801 2.118241,2.925391 2.88686,3.459086 1.060571,0.736405 1.39749,1.427028 1.39749,2.864585 0,2.228107 0.881146,3.313567 3.406946,4.196933 1.256401,0.439414 1.841891,0.984088 1.841891,1.713496 0,1.405338 -1.352427,1.370878 -3.674186,-0.09363 z m 7.348371,0.160888 c 0,-0.67284 0.848585,-1.381985 2.582853,-2.15845 2.457558,-1.100289 2.600788,-1.283149 2.952639,-3.76955 0.276908,-1.956807 0.668807,-2.757545 1.560264,-3.187982 0.654766,-0.316142 1.800409,-1.735723 2.545875,-3.154617 0.745466,-1.418896 1.361134,-2.226348 1.368156,-1.794339 0.007,0.43201 -0.623252,1.933823 -1.400615,3.337361 -0.777363,1.403539 -1.899302,4.04659 -2.493197,5.87344 -0.904853,2.783365 -1.419995,3.525406 -3.179347,4.579723 -2.558262,1.533073 -3.936628,1.629153 -3.936628,0.274414 z M 142.77143,91.201755 c -1.24663,-2.166704 -1.30643,-4.121875 -0.25669,-8.392737 0.93022,-3.784621 0.99858,-6.141164 0.22271,-7.677459 -0.51546,-1.020664 -0.46751,-1.062915 0.55089,-0.485339 1.89808,1.076481 2.3169,2.839459 1.37383,5.783058 -1.2107,3.778989 -1.10424,8.170859 0.23499,9.694198 1.24911,1.420826 0.77017,1.644596 -0.63522,0.296786 -1.08358,-1.039188 -1.303,-0.24197 -0.41653,1.513343 0.90583,1.793616 0.0393,1.203158 -1.07398,-0.73185 z M 32.034757,91.308067 c -0.0042,-0.782823 -0.327102,-1.885721 -0.717075,-2.450886 -0.629892,-0.912871 -0.972279,-0.957333 -3.067242,-0.398314 -1.600958,0.427198 -2.928468,0.455944 -4.134099,0.08953 -2.427226,-0.737687 -3.621812,-0.20857 -3.995146,1.769568 -0.369662,1.958681 -1.195573,1.08561 -1.208529,-1.277531 -0.01663,-3.032496 -2.519924,-6.147507 -5.560741,-6.91958 -2.184156,-0.554563 -2.845435,-1.263921 -2.845435,-3.052312 0,-1.955117 0.603697,-2.38775 1.890987,-1.35516 0.804418,0.645259 7.03879,1.261754 7.029839,0.695156 -0.0083,-0.527073 -2.789979,-5.810169 -3.491972,-6.632184 -0.477181,-0.558765 -1.522716,-1.015937 -2.323411,-1.015937 -2.735131,0 -3.8886596,-2.46109 -2.288355,-4.882279 1.491499,-2.25657 5.705479,-1.173222 6.283444,1.615374 0.398386,1.922149 1.297607,2.666986 1.297607,1.074824 0,-0.721107 0.340198,-1.144132 0.918546,-1.142179 1.950493,0.0066 4.857925,1.203573 5.581125,2.297742 l 0.756898,1.145156 0.576963,-1.142435 c 0.93054,-1.842556 6.338327,-3.096082 6.338327,-1.469225 0,1.365837 1.003168,0.946653 1.362184,-0.569203 0.434288,-1.833667 2.125023,-3.046272 4.247416,-3.046272 1.850336,0 2.788539,1.166693 2.788539,3.467663 0,1.792414 -0.942502,2.650834 -2.910485,2.650834 -1.875415,0 -2.989779,1.078763 -4.147473,4.014967 -0.439664,1.115103 -1.03917,2.184498 -1.332229,2.376435 -1.292689,0.846634 -0.304779,1.394439 2.485246,1.378086 1.786814,-0.01047 3.424362,-0.343585 4.013953,-0.816523 1.287293,-1.03259 1.890988,-0.599957 1.890988,1.35516 0,1.82085 -0.804877,2.680118 -2.936887,3.135353 -2.886493,0.616336 -5.455478,3.924756 -5.469288,7.043522 -0.0042,0.998405 -0.237,2.190739 -0.516847,2.649626 -0.401521,0.658411 -0.510502,0.534223 -0.516848,-0.588972 z M 148.02602,86.790351 c 0,-0.19556 2.11794,-2.796912 4.70653,-5.780782 3.82287,-4.406615 6.84091,-9.031033 6.84091,-10.482051 0,-0.13476 -1.12194,0.384203 -2.4932,1.153253 -2.20417,1.236175 -2.32416,1.257183 -1.03507,0.18122 3.74669,-3.12725 3.92648,-8.014582 0.40305,-10.956918 -1.31281,-1.096301 0.0995,-0.802619 1.77762,0.369637 2.12292,1.483008 2.88186,3.16602 2.90365,6.43911 0.0258,3.881038 -2.53517,8.284576 -8.44122,14.514313 -2.56426,2.70478 -4.66227,4.757779 -4.66227,4.562218 z m -15.12126,-5.565726 c -8.67656,-9.159762 -10.34214,-16.276022 -4.66762,-19.942589 2.25757,-1.458719 2.8406,-1.377318 1.1573,0.161575 -1.9865,1.816065 -2.49807,4.853476 -1.26299,7.498862 0.54099,1.158723 1.63657,2.535726 2.43461,3.060008 0.79805,0.524281 1.18872,0.959898 0.86815,0.968039 -0.32058,0.0081 -1.47021,-0.623325 -2.55474,-1.403258 -1.08453,-0.779933 -2.03858,-1.343112 -2.12011,-1.251511 -0.57152,0.64212 2.76249,5.897449 6.6723,10.5174 2.56077,3.025889 4.57894,5.501618 4.48481,5.501618 -0.0941,0 -2.34939,-2.299565 -5.01171,-5.110144 z m 5.55944,-1.042641 c -0.49568,-0.306177 -1.36037,-1.656623 -1.92154,-3.00099 -0.56117,-1.344367 -2.0452,-3.628224 -3.29784,-5.075237 -1.37525,-1.58865 -1.82777,-2.378797 -1.14224,-1.99449 0.6244,0.350043 2.24136,2.008429 3.59323,3.685301 1.35186,1.676872 3.38012,3.480015 4.50721,4.006985 2.49119,1.164739 2.86342,2.978486 0.60585,2.952032 -0.79389,-0.0093 -1.84899,-0.267423 -2.34467,-0.573601 z m 7.64517,-0.660996 c 0.16318,-0.688331 1.68638,-2.753323 3.3849,-4.588872 4.45026,-4.809303 5.91283,-5.991015 3.44214,-2.781135 -1.17737,1.529624 -2.55615,3.657192 -3.06395,4.727929 -1.20494,2.540727 -2.35048,3.893589 -3.29691,3.893589 -0.52911,0 -0.67196,-0.383486 -0.46618,-1.251511 z M 13.220961,77.105637 c -2.203806,-1.635781 -1.009736,-6.70097 1.262078,-5.353679 0.599517,0.355541 0.69242,0.647494 0.289924,0.911104 -0.325758,0.213352 -0.584775,1.061471 -0.575595,1.88471 0.0152,1.363218 0.07892,1.409928 0.71397,0.5234 1.006558,-1.405155 1.593157,-1.210162 2.509943,0.834341 l 0.810616,1.807738 -1.935558,0.11921 c -1.064557,0.06557 -2.448478,-0.261504 -3.075378,-0.726824 z m 21.577125,-1.200124 c 1.142987,-2.05285 1.650602,-2.223235 2.485697,-0.834341 0.473345,0.787254 0.5361,0.582817 0.328168,-1.069065 -0.192743,-1.531155 -0.04761,-2.127663 0.579833,-2.382804 1.222013,-0.496931 2.028377,1.177696 1.729098,3.590926 -0.195739,1.578378 -1.590607,2.476048 -3.868497,2.489586 l -2.260811,0.01344 z M 136.31161,71.906742 c -1.27635,-1.246752 -3.22387,-2.598202 -4.32782,-3.003221 -1.10394,-0.405019 -2.11793,-1.091541 -2.2533,-1.525604 -0.18979,-0.608588 -0.0764,-0.647636 0.49535,-0.170619 0.4078,0.340222 1.36676,0.776572 2.13101,0.969664 0.76425,0.193093 2.38094,1.228815 3.59263,2.301605 2.17807,1.928396 3.2937,2.285494 4.98789,1.596552 2.4575,-0.999345 1.91767,-6.598959 -0.69417,-7.200552 -2.70586,-0.623248 -4.17938,-1.441026 -5.67128,-3.147466 l -1.50509,-1.721533 2.16272,1.7971 c 2.52843,2.100983 5.21048,2.471898 6.31365,0.873146 0.39,-0.565211 0.7091,-1.330783 0.7091,-1.701272 0,-0.774323 -2.66191,-1.876452 -4.67106,-1.93399 -0.75081,-0.0215 -1.8375,-0.266945 -2.41487,-0.545428 -1.24576,-0.600862 3.16269,-0.146334 6.05271,0.624058 1.08232,0.288517 2.61118,0.28778 3.67418,-0.0018 1.0013,-0.272742 3.00154,-0.629981 4.44497,-0.793864 2.80126,-0.318048 2.15138,-0.02754 -3.01809,1.349158 -2.74579,0.731239 -2.71922,0.701199 -1.95628,2.211894 1.28125,2.537007 3.91271,2.460693 6.8365,-0.198262 0.73549,-0.668868 0.44939,-0.277491 -0.63578,0.869727 -1.36659,1.44475 -2.43826,2.085861 -3.48666,2.085861 -1.98163,0 -3.25097,1.55799 -3.25097,3.990235 0,2.223203 1.28785,3.796943 3.10719,3.796943 0.65309,0 2.16345,-0.885309 3.35634,-1.967354 1.19289,-1.082045 2.76572,-2.098373 3.49518,-2.258506 0.72946,-0.160133 1.73963,-0.528456 2.24483,-0.818494 0.52551,-0.301699 0.91855,-0.313165 0.91855,-0.0268 0,0.2753 -0.99879,0.924047 -2.21954,1.44166 -1.22074,0.517613 -3.24061,1.938506 -4.48858,3.157539 -1.98264,1.93667 -2.48094,2.168431 -3.94784,1.836186 -0.92335,-0.209131 -1.97405,-0.632285 -2.33491,-0.940343 -0.44043,-0.375988 -0.87178,-0.375988 -1.31221,0 -0.36086,0.308058 -1.41157,0.731212 -2.33491,0.940343 -1.4709,0.333148 -1.9662,0.09951 -3.99944,-1.886585 z m 16.7008,-6.817033 c 0.57737,-0.346958 1.2233,-0.902526 1.4354,-1.234597 0.2655,-0.415693 0.38812,-0.393281 0.39366,0.07195 0.004,0.371642 -0.44884,0.934822 -1.00723,1.251511 -1.38145,0.783478 -2.13746,0.701732 -0.82183,-0.08886 z m -21.26832,-0.739348 c -0.36517,-0.46628 -0.56229,-0.955501 -0.43806,-1.087158 0.12424,-0.131656 0.5142,0.249846 0.86657,0.847782 0.76203,1.293074 0.5079,1.435044 -0.42851,0.239376 z m 0.15174,-5.656175 c 0.5107,-0.141028 1.21929,-0.131753 1.57465,0.02061 0.35536,0.152363 -0.0625,0.26775 -0.92853,0.256414 -0.86606,-0.01134 -1.15681,-0.135997 -0.64612,-0.277025 z m 20.99535,0 c 0.51069,-0.141028 1.21929,-0.131753 1.57465,0.02061 0.35536,0.152363 -0.0625,0.26775 -0.92854,0.256414 -0.86605,-0.01134 -1.15681,-0.135997 -0.64611,-0.277025 z"
         id="path920"
         inkscape:connector-curvature="0" />
    </g>
    <rect
       style="opacity:0;vector-effect:none;fill:#000104;fill-opacity:0.2745098;fill-rule:nonzero;stroke:#f7f81f;stroke-width:0.50799996;stroke-linecap:butt;stroke-linejoin:miter;stroke-miterlimit:4;stroke-dasharray:none;stroke-dashoffset:0;stroke-opacity:1"
       id="rect11443"
       width="145.89882"
       height="106.58929"
       x="104.84225"
       y="103.47311" />
    <rect
       style="opacity:0;vector-effect:none;fill:#000104;fill-opacity:0.2745098;fill-rule:nonzero;stroke:#f7f81f;stroke-width:0.50799996;stroke-linecap:butt;stroke-linejoin:miter;stroke-miterlimit:4;stroke-dasharray:none;stroke-dashoffset:0;stroke-opacity:1"
       id="rect11445"
       width="96.005951"
       height="78.619049"
       x="112.14777"
       y="112.79855" />
    <rect
       style="opacity:0;vector-effect:none;fill:#000104;fill-opacity:0.2745098;fill-rule:nonzero;stroke:#f7f81f;stroke-width:0.50799996;stroke-linecap:butt;stroke-linejoin:miter;stroke-miterlimit:4;stroke-dasharray:none;stroke-dashoffset:0;stroke-opacity:1"
       id="rect11466"
       width="67.279762"
       height="75.595238"
       x="-8.3026552"
       y="121.36803" />
  </g>
</svg>
