<?xml version="1.0" encoding="utf-8" ?>
<svg baseProfile="full" height="170" version="1.1" width="145" xmlns="http://www.w3.org/2000/svg" xmlns:ev="http://www.w3.org/2001/xml-events" xmlns:xlink="http://www.w3.org/1999/xlink"><defs /><path d="M 23, 167 c -0.20581,-0.53633 0.25304,-1.76296 2.64589,-7.07318 c 6.57858,-14.59918 14.77212,-28.86312 21.44596,-37.3348 c 6.10432,-7.74871 10.858326,-12.29674 21.131826,-20.21619 c 6.14506,-4.73701 10.15723,-8.2885 15.55112,-13.76558 c 9.45283,-9.59861 14.15623,-18.0969 14.15623,-25.57805 c 0,-4.99421 -1.94911,-8.69558 -6.50167,-12.34672 c -2.43023,-1.94903 -8.90723,-5.77086 -9.23115,-5.44694 c -0.0979,0.0979 -0.14503,1.41346 -0.10477,2.9235 c 0.2284,8.56594 -2.17867,18.35009 -6.76079,27.48103 c -3.58891,7.15173 -7.04581,11.65711 -16.02133,20.88062 c -2.68047,2.75453 -3.632896,3.52862 -5.858606,4.76163 c -1.46179,0.80979 -3.59734,1.83719 -4.74568,2.28309 c -2.0123,0.78138 -2.18553,0.80149 -4.78444,0.55561 c -2.1941,-0.20758 -3.01408,-0.42437 -4.40072,-1.16343 c -0.9373,-0.49958 -1.70418,-1.05711 -1.70418,-1.23895 c 0,-0.18185 1.42875,-0.76055 3.175,-1.28601 c 6.24088,-1.87792 10.55403,-4.88622 15.884946,-11.0793 c 4.33241,-5.03309 7.23988,-9.70298 9.07457,-14.57531 c 1.50567,-3.99859 2.30224,-9.60374 1.66114,-11.68881 c -0.59182,-1.92483 -3.87608,-9.50352 -4.11838,-9.50352 c -0.123,0 -0.54394,0.54655 -0.93542,1.21456 c -0.86883,1.48255 -4.32102,4.80574 -6.57323,6.3276 c -2.516196,1.70024 -6.654086,3.84193 -10.266406,5.31367 c -4.0164,1.63638 -5.63172,2.44455 -7.62,3.81239 c -1.84641,1.27025 -5.75788,4.69633 -6.38681,5.59425 c -0.24485,0.34958 -1.35274,1.0689 -2.46197,1.59848 c -1.10922,0.52959 -2.56612,1.44177 -3.23754,2.02708 l -1.22077, 1.06419 l -0.007, 3.66889 c -0.0128,7.22265 1.66315,13.85364 5.00996,19.82254 c 1.1521,2.05473 2.09473,3.86448 2.09473,4.02167 c 0,0.59183 -0.55197,0.24148 -1.79135,-1.137 c -3.55831,-3.9577 -7.73813,-10.17139 -9.19311,-13.66641 c -1.30145,-3.12623 -2.75956,-8.46524 -2.99016,-10.94882 c -0.2303,-2.48023 -0.057,-2.34355 -3.24093,-2.55564 c -1.00895,-0.0672 -2.83479,-0.46884 -4.05742,-0.89252 c -2.55717,-0.88614 -2.58477,-0.87174 -2.88147,1.50292 c -0.40714,3.25869 0.77481,10.24179 2.70695,15.99298 c 0.61727,1.83735 1.0751,3.38786 1.01739,3.44557 c -0.36803,0.36805 -2.35344,-2.55849 -3.68059,-5.42529 c -3.19895,-6.91012 -4.95818,-13.23921 -4.95818,-17.83777 c 0,-2.9521 -0.006,-2.97965 -0.98964,-4.31921 c -2.65042,-3.61059 -2.25436,-7.1396 1.24614,-11.1035 c 4.20776,-4.76477 6.72949,-9.80732 9.19478,-18.38619 c 0.7137,-2.48355 1.72681,-5.42882 2.25137,-6.54504 c 3.18317,-6.77355 8.8186,-11.727853 16.12443,-14.175531 c 3.14996,-1.055332 5.43128,-1.541129 9.99069,-2.127481 c 10.42872,-1.341153 20.030486,-5.172856 27.966396,-11.160315 c 4.19796,-3.167268 9.73578,-5.67094 16.20138,-7.324708 c 7.10639,-1.817669 18.03142,-1.286258 26.10556,1.269818 c 5.32218,1.684871 11.95054,5.094571 15.30696,7.874059 c 3.4325,2.842488 8.20228,9.102698 10.66015,13.991177 c 2.49775,4.967761 4.13914,9.918341 5.1194,15.440481 c 0.54416,3.06547 0.63733,4.55337 0.62333,9.95421 c -0.0228,8.77208 -0.86412,14.82332 -3.22032,23.16041 c -4.28865,15.17484 -15.70556,35.00914 -26.60684,46.22337 c -0.95787,0.98536 -4.53473,4.28736 -7.94859,7.33778 c -5.86984,5.24493 -14.94692,13.86365 -19.61723,18.62662 c -7.0213,7.1606 -11.63199,12.88477 -13.70816,17.01868 c -1.41842,2.82425 -1.75011,3.07538 -4.92804,3.73131 c -3.6552,0.75444 -8.96383,0.99417 -26.440966,1.19407 c -14.65932,0.16768 -17.01842,0.13851 -17.15294,-0.21204 z m 11.0776, -99.85675 c 0.65934,-0.29929 1.84043,-1.18579 2.62465,-1.97001 c 0.78421,-0.78422 1.67071,-1.96531 1.97,-2.62464 c 0.65238,-1.43721 0.74422,-4.57779 0.17379,-5.94301 c -0.88602,-2.12055 -5.74621,-5.37665 -7.1028,-4.75855 c -0.40725,0.18556 -1.25293,1.50516 -2.37484,3.70572 c -1.98433,3.89214 -2.0242,3.13765 0.38379,7.26277 c 0.74241,1.27182 1.30432,2.44893 1.24869,2.61581 c -0.0556,0.16688 -1.07299,-0.39745 -2.26081,-1.25406 c -2.27004,-1.63708 -2.7767,-1.81307 -3.32333,-1.15442 c -0.26031,0.31366 -0.24202,0.5797 0.0825,1.19945 c 0.52373,1.00025 2.03765,2.46076 3.14626,3.03526 c 1.19331,0.61839 3.94554,0.56047 5.43212,-0.11432 z" transform="scale(1,1)" /></svg>