<?xml version="1.0" encoding="UTF-8" standalone="no"?>
<svg
   xmlns:dc="http://purl.org/dc/elements/1.1/"
   xmlns:cc="http://creativecommons.org/ns#"
   xmlns:rdf="http://www.w3.org/1999/02/22-rdf-syntax-ns#"
   xmlns:svg="http://www.w3.org/2000/svg"
   xmlns="http://www.w3.org/2000/svg"
   xmlns:sodipodi="http://sodipodi.sourceforge.net/DTD/sodipodi-0.dtd"
   xmlns:inkscape="http://www.inkscape.org/namespaces/inkscape"
   height="7.0420804"
   version="1.1"
   viewBox="-164.41 -64.82 95.55455 11.26277"
   width="59.661503"
   id="svg3065"
   sodipodi:docname="wide_bar.svg"
   inkscape:version="0.92.3 (2405546, 2018-03-11)">
  <metadata
     id="metadata3069">
    <rdf:RDF>
      <cc:Work
         rdf:about="">
        <dc:format>image/svg+xml</dc:format>
        <dc:type
           rdf:resource="http://purl.org/dc/dcmitype/StillImage" />
      </cc:Work>
    </rdf:RDF>
  </metadata>
  <sodipodi:namedview
     pagecolor="#ffffff"
     bordercolor="#666666"
     borderopacity="1"
     objecttolerance="10"
     gridtolerance="10"
     guidetolerance="10"
     inkscape:pageopacity="0"
     inkscape:pageshadow="2"
     inkscape:window-width="640"
     inkscape:window-height="480"
     id="namedview3067"
     showgrid="false"
     inkscape:zoom="3.4789654"
     inkscape:cx="41.066091"
     inkscape:cy="-22.993841"
     inkscape:window-x="0"
     inkscape:window-y="27"
     inkscape:window-maximized="0"
     inkscape:current-layer="svg3065" />
  <defs
     id="defs3047" />
  <path
     d="m -69.879942,-54.969096 c 0.13135,-0.10625 0.23016,-0.2808 -0.16075,-0.46479 l 0.70419,-0.37647 v 0.7276 c -0.14661,0.0336 -0.32523,0.0724 -0.54331,0.11366"
     id="path3049"
     inkscape:connector-curvature="0"
     style="fill:none;stroke:#000000;stroke-width:0.96096689" />
  <path
     d="m -69.336502,-63.052446 v -0.72755 c -0.14579,-0.0336 -0.32523,-0.0721 -0.54281,-0.11336 0.13136,0.10634 0.22912,0.28066 -0.16124,0.46435 l 0.70405,0.37656"
     id="path3051"
     inkscape:connector-curvature="0"
     style="fill:none;stroke:#000000;stroke-width:0.96096689" />
  <path
     d="m -163.92907,-63.779996 v 0.72755 l 0.70415,-0.37656 c -0.38987,-0.18369 -0.29266,-0.43364 -0.16129,-0.53997 -0.21758,0.0413 -0.39624,0.15534 -0.54287,0.18898"
     id="path3053"
     inkscape:connector-curvature="0"
     style="fill:none;stroke:#000000;stroke-width:0.96096689" />
  <path
     d="m -75.346292,-54.473656 h -32.709198 c -0.0701,0.0181 -0.20077,0.0311 -0.35739,0.0311 -0.22806,0 -0.41303,-0.0267 -0.41303,-0.0595 0,-0.0329 0.18497,-0.0597 0.41303,-0.0597 0.15665,0 0.28801,0.0128 0.35791,0.0312 h 32.708548 c 2.3459,0 4.03277,-0.19399 5.09701,-0.373 0.13394,-0.0748 0.4456,-0.2954 -0.0531,-0.52446 l -0.013,-0.006 0.0114,-0.006 0.96744,-0.51737 v -6.95087 l -0.97745,-0.52281 0.013,-0.006 c 0.49714,-0.22848 0.18971,-0.44877 0.054,-0.52401 -1.06476,-0.17908 -2.75319,-0.37338 -5.09801,-0.37338 h -32.709628 c -0.0701,0.0182 -0.20075,0.0312 -0.35737,0.0312 -0.22809,0 -0.41307,-0.0267 -0.41307,-0.0597 0,-0.0328 0.18498,-0.0598 0.41307,-0.0598 0.15666,0 0.28801,0.0129 0.35787,0.0312 h 32.708568 c 3.0101,0 4.99346,0.29908 6.00976,0.50698 v -0.14294 c -0.96065,-0.15002 -3.21717,-0.44957 -6.43759,-0.56386 l -81.721678,1.7e-4 c -3.21986,0.11433 -5.47381,0.41358 -6.43342,0.56363 v 0.143 c 1.01791,-0.2079 2.99965,-0.50698 6.01136,-0.50698 h 32.707 c 0.0715,-0.0186 0.20285,-0.0312 0.35895,-0.0312 0.22701,0 0.41357,0.0267 0.41357,0.0597 0,0.0329 -0.18656,0.0597 -0.41357,0.0597 -0.15602,0 -0.28643,-0.0129 -0.35787,-0.0312 h -32.70763 c -2.34537,0 -4.03491,0.1943 -5.09855,0.37338 -0.13506,0.0753 -0.44249,0.29553 0.0531,0.52402 l 0.0125,0.006 -0.0109,0.006 -0.96772,0.51753 v 6.9511 l 0.97847,0.52272 -0.0125,0.006 c -0.49663,0.22856 -0.18707,0.44893 -0.0531,0.5241 1.06365,0.17908 2.75318,0.37336 5.09855,0.37336 h 32.70701 c 0.0715,-0.0185 0.20283,-0.0312 0.35893,-0.0312 0.22699,0 0.41357,0.0267 0.41357,0.0597 0,0.0328 -0.18658,0.0596 -0.41357,0.0596 -0.15602,0 -0.28645,-0.0128 -0.35789,-0.0312 h -32.7085 c -3.01169,0 -4.99346,-0.29919 -6.01138,-0.507 v 0.14293 c 0.96066,0.15011 3.21779,0.44966 6.43969,0.56381 l 81.718038,-1.6e-4 c 3.22038,-0.1142 5.47536,-0.41346 6.43494,-0.56355 v -0.14303 c -1.01634,0.20782 -2.99967,0.507 -6.00978,0.507"
     id="path3055"
     inkscape:connector-curvature="0"
     style="fill:none;stroke:#000000;stroke-width:0.96096689" />
  <path
     d="m -163.92952,-54.782376 v 0.19512 c 0,0 1.9171,0.16396 2.40473,0.31355 h 3.0869 c -2.62076,-0.12585 -4.52153,-0.36368 -5.49163,-0.50867"
     id="path3057"
     inkscape:connector-curvature="0"
     style="fill:none;stroke:#000000;stroke-width:0.96096689" />
  <path
     d="m -69.336872,-64.079826 v -0.1951 c 0,0 -1.91601,-0.16396 -2.40475,-0.31355 h -3.0853 c 2.61967,0.12584 4.51995,0.36377 5.49005,0.50865"
     id="path3059"
     inkscape:connector-curvature="0"
     style="fill:none;stroke:#000000;stroke-width:0.96096689" />
  <path
     d="m -74.825862,-54.273666 h 3.08426 c 0.48873,-0.14943 2.40474,-0.31355 2.40474,-0.31355 v -0.19496 c -0.9701,0.14499 -2.86986,0.38267 -5.489,0.50851"
     id="path3061"
     inkscape:connector-curvature="0"
     style="fill:none;stroke:#000000;stroke-width:0.96096689" />
  <path
     d="m -158.44049,-64.588686 h -3.0843 c -0.48765,0.14943 -2.40473,0.31355 -2.40473,0.31355 v 0.19495 c 0.9701,-0.14489 2.86931,-0.38265 5.48903,-0.5085"
     id="path3063"
     inkscape:connector-curvature="0"
     style="fill:none;stroke:#000000;stroke-width:0.96096689" />
</svg>
