<?xml version="1.0" encoding="UTF-8" standalone="no"?>
<!-- Created with Inkscape (http://www.inkscape.org/) -->

<svg
   xmlns:dc="http://purl.org/dc/elements/1.1/"
   xmlns:cc="http://creativecommons.org/ns#"
   xmlns:rdf="http://www.w3.org/1999/02/22-rdf-syntax-ns#"
   xmlns:svg="http://www.w3.org/2000/svg"
   xmlns="http://www.w3.org/2000/svg"
   xmlns:sodipodi="http://sodipodi.sourceforge.net/DTD/sodipodi-0.dtd"
   xmlns:inkscape="http://www.inkscape.org/namespaces/inkscape"
   width="225.73787mm"
   height="257.93369mm"
   viewBox="0 0 225.73787 257.93368"
   version="1.1"
   id="svg8"
   inkscape:version="0.92.3 (2405546, 2018-03-11)"
   sodipodi:docname="wolf.svg">
  <defs
     id="defs2" />
  <sodipodi:namedview
     id="base"
     pagecolor="#ffffff"
     bordercolor="#666666"
     borderopacity="1.0"
     inkscape:pageopacity="0.0"
     inkscape:pageshadow="2"
     inkscape:zoom="0.49497475"
     inkscape:cx="-185.10247"
     inkscape:cy="513.09541"
     inkscape:document-units="mm"
     inkscape:current-layer="layer1"
     showgrid="false"
     inkscape:window-width="1920"
     inkscape:window-height="983"
     inkscape:window-x="0"
     inkscape:window-y="27"
     inkscape:window-maximized="1" />
  <metadata
     id="metadata5">
    <rdf:RDF>
      <cc:Work
         rdf:about="">
        <dc:format>image/svg+xml</dc:format>
        <dc:type
           rdf:resource="http://purl.org/dc/dcmitype/StillImage" />
        <dc:title />
      </cc:Work>
    </rdf:RDF>
  </metadata>
  <g
     inkscape:label="Layer 1"
     inkscape:groupmode="layer"
     id="layer1"
     transform="translate(-97.934727,-100.27132)">
    <path
       style="fill:#000000;stroke-width:1"
       d="m 203.76076,350.93811 c -10.09344,-12.42174 -11.40141,-14.04336 -20.64729,-25.59844 -9.86842,-12.3331 -19.60909,-24.64721 -20.0319,-25.32422 -0.95597,-1.53077 -0.60707,0.37999 0.88914,4.86926 1.96677,5.90119 5.3388,11.8141 8.85302,15.52393 l 1.86392,1.96766 -2.24896,-1.40022 c -23.08014,-14.36993 -39.12144,-31.65293 -45.00338,-48.48693 -0.48369,-1.38431 -0.61893,-1.2821 -1.5754,1.19063 -2.52875,6.53754 -4.41007,16.47813 -4.51196,23.84053 l -0.0262,1.89019 -0.3791,-1.19062 c -1.14287,-3.58942 -2.48186,-12.16136 -3.32702,-21.29896 l -0.3426,-3.70416 0.005,-11.77396 0.005,-11.77396 0.47247,-3.96875 c 0.25986,-2.18281 0.53291,-4.26641 0.60677,-4.63021 l 0.1343,-0.66146 -2.16653,2.24896 c -6.07679,6.30802 -14.19569,18.09228 -17.647978,25.61538 -0.88673,1.93232 -0.9107,1.7736 -0.45558,-3.01569 3.264348,-34.35107 13.485098,-59.82014 31.264568,-77.90812 l 4.04144,-4.11156 -0.91043,-4.09052 c -7.22097,-32.44362 -5.74964,-65.62415 3.44451,-77.67829 l 0.66384,-0.87035 0.87131,-0.16346 0.87129,-0.16345 1.70335,0.42958 c 11.67191,2.94364 20.958,9.03481 35.91646,23.55925 l 4.57978,4.44691 -0.18069,-0.77015 c -0.42669,-1.8187 -1.27548,-4.06178 -2.12918,-5.62679 l -0.91733,-1.68164 1.00257,0.60361 c 4.39741,2.64751 15.75825,9.87838 28.18773,17.94074 l 4.16642,2.70255 8.20111,-5.31005 c 12.47854,-8.07959 18.44314,-11.86458 24.15612,-15.3289 l 1.00257,-0.60795 -0.91733,1.68164 c -0.8537,1.56501 -1.70249,3.80809 -2.12918,5.62679 l -0.18069,0.77015 4.57978,-4.44691 c 14.94432,-14.51072 24.25558,-20.61839 35.91646,-23.55925 l 1.70335,-0.42958 0.87129,0.16345 0.87131,0.16346 0.66384,0.87035 c 9.35893,12.27018 10.70413,49.60489 2.8884,80.16456 l -0.39635,1.54972 4.05618,4.13882 c 17.8547,18.21851 28.02384,43.54574 31.29186,77.93539 0.45512,4.78929 0.43114,4.94801 -0.45558,3.01569 -3.4523,-7.5231 -11.57119,-19.30736 -17.64799,-25.61538 l -2.16652,-2.24896 0.13429,0.66146 c 0.0739,0.3638 0.34691,2.4474 0.60677,4.63021 l 0.47248,3.96875 0.005,11.77396 0.005,11.77396 -0.34261,3.70416 c -0.84515,9.1376 -2.18414,17.70954 -3.32702,21.29896 l -0.3791,1.19062 -0.0271,-1.71979 c -0.1653,-10.50431 -4.76852,-29.46026 -6.11989,-25.20156 -5.17068,16.29482 -22.1402,34.35262 -46.42516,49.40249 l -0.79375,0.49191 1.86392,-1.97129 c 3.61455,-3.82277 6.91501,-9.67859 8.98007,-15.93287 1.10767,-3.35471 1.6719,-5.47758 1.38239,-5.20118 -0.0762,0.0728 -1.72723,2.17126 -3.66893,4.66333 -1.9417,2.49207 -5.01864,6.405 -6.83766,8.69539 -1.81901,2.2904 -4.08119,5.14982 -5.02708,6.35426 -1.44751,1.84318 -8.49361,10.60668 -21.0593,26.19223 -13.49327,16.73603 -10.59076,15.84719 -18.79154,5.75469 z m 9.38646,-12.43542 c 4.30446,-4.70628 7.90166,-10.16392 16.17465,-24.5401 3.87741,-6.73787 7.15321,-12.11951 7.2924,-11.98032 0.0498,0.0498 0.002,2.5276 -0.10573,5.50625 -0.10793,2.97865 -0.15758,5.469 -0.11034,5.5341 0.14696,0.2025 4.50914,-4.23212 6.62297,-6.73295 2.80113,-3.31394 6.30687,-8.08116 11.96612,-16.27187 8.62941,-12.48949 8.80788,-12.68116 9.29979,-9.98802 l 0.35037,1.91823 0.004,4.96035 c 0.002,2.7282 0.0831,4.96062 0.17956,4.96094 0.42434,10e-4 4.91647,-3.88352 8.68716,-7.51291 8.15788,-7.85216 15.23003,-17.72757 20.14989,-28.1369 1.80917,-3.82781 1.49097,-3.67355 2.86995,-1.39127 0.61547,1.01864 1.18162,1.85208 1.2581,1.85208 0.0765,0 0.0718,-3.12539 -0.0105,-6.94531 l -0.14956,-6.94532 -0.42758,-3.57187 c -0.23517,-1.96453 -0.67055,-5.10003 -0.96751,-6.96778 -0.29696,-1.86775 -0.47477,-3.46107 -0.39512,-3.54072 0.3605,-0.3605 8.56799,4.74229 12.87998,8.0078 1.44589,1.09498 2.62888,1.92071 2.62888,1.83497 0,-0.41004 -7.51981,-13.15427 -12.25283,-20.76552 -10.97327,-17.64632 -15.67656,-23.51872 -23.94567,-29.89791 l -0.85743,-0.66146 1.87798,-1.45521 c 1.92291,-1.49002 5.28085,-4.79758 5.27901,-5.1998 -5.3e-4,-0.12329 -1.81627,-1.13833 -4.0349,-2.25565 -4.48714,-2.25976 -9.61303,-5.38353 -12.90731,-7.86585 -2.6826,-2.0214 -2.6032,-2.17826 -1.17974,2.3308 0.6543,2.07263 1.18964,3.84807 1.18964,3.94543 0,0.0974 -2.61937,-2.44033 -5.82083,-5.63931 -6.60925,-6.60412 -6.21092,-6.03561 -4.56406,-6.51405 l 1.25677,-0.36511 2.24896,0.0214 2.24896,0.0214 1.57169,0.46364 c 3.37892,0.99675 6.42495,2.9227 10.73659,6.78854 l 2.36803,2.1232 0.99622,-0.18081 c 1.60186,-0.29073 3.00672,-1.13803 4.61914,-2.78587 l 1.50757,-1.54069 1.33872,-2.72 c 2.83564,-5.76138 4.4452,-13.26159 5.04843,-23.52455 l 0.28792,-4.89841 -0.28067,-4.71125 c -0.64797,-10.87666 -3.56302,-21.24982 -6.26273,-22.28579 -1.09837,-0.42149 -4.69825,3.84699 -10.08172,11.95418 -5.2596,7.92064 -6.86653,10.00309 -9.47653,12.28072 l -1.0355,0.90363 3.92238,-0.16941 3.92239,-0.16941 -0.29903,0.36031 c -2.09099,2.51948 -27.2881,9.42733 -54.32509,14.89336 l -3.63802,0.73549 -3.63802,-0.7368 C 179.76211,145.48148 154.9479,138.6792 152.83993,136.13926 l -0.29903,-0.36031 3.92239,0.16941 3.92238,0.16941 -1.0355,-0.90363 c -2.61,-2.27763 -4.21693,-4.36008 -9.47653,-12.28072 -5.38347,-8.10719 -8.98335,-12.37567 -10.08172,-11.95418 -2.84879,1.09318 -5.8517,12.4201 -6.39585,24.12501 l -0.1722,3.70417 0.30608,4.63021 c 1.14829,17.3704 5.67374,28.52609 12.13403,29.91157 l 1.36446,0.29263 2.37707,-2.1313 c 4.32109,-3.87433 7.36437,-5.79921 10.74563,-6.79665 l 1.57169,-0.46364 2.24896,-0.0214 2.24896,-0.0214 1.25677,0.36511 c 1.64686,0.47844 2.04519,-0.0901 -4.56406,6.51405 -3.20146,3.19898 -5.82083,5.73667 -5.82083,5.6393 0,-0.0974 0.53534,-1.8728 1.18964,-3.94542 1.42346,-4.50906 1.50286,-4.3522 -1.17974,-2.3308 -3.29428,2.48231 -8.42017,5.60609 -12.90731,7.86585 -2.21863,1.11732 -4.03433,2.12037 -4.0349,2.22901 -0.002,0.39618 3.44327,3.80958 5.27534,5.22644 l 1.88165,1.4552 -0.85743,0.66146 c -8.26911,6.37919 -12.9724,12.25159 -23.94567,29.89791 -4.73302,7.61125 -12.25283,20.35548 -12.25283,20.76552 0,0.0857 1.18299,-0.73999 2.62888,-1.83497 4.31199,-3.26551 12.51948,-8.3683 12.87998,-8.0078 0.0796,0.0797 -0.0982,1.67297 -0.39512,3.54072 -0.29696,1.86775 -0.73293,5.00325 -0.96882,6.96778 l -0.42889,3.57187 -0.1448,6.4823 c -0.0796,3.56526 -0.0991,6.71601 -0.0433,7.00166 l 0.10155,0.51938 1.15309,-1.90844 c 1.41837,-2.34747 1.09283,-2.49712 2.904,1.33492 5.19751,10.99676 12.60115,21.13903 21.53091,29.49524 2.51066,2.3494 7.03026,6.1555 7.30831,6.15457 0.0952,-2.7e-4 0.17504,-2.23274 0.17738,-4.96094 l 0.004,-4.96035 0.35038,-1.91823 c 0.49191,-2.69314 0.67038,-2.50147 9.29979,9.98802 5.65924,8.19071 9.16499,12.95793 11.96611,16.27187 2.11384,2.50083 6.47602,6.93545 6.62297,6.73295 0.0472,-0.0651 -0.002,-2.55545 -0.11034,-5.5341 -0.10793,-2.97865 -0.15551,-5.45647 -0.10572,-5.50625 0.13919,-0.13919 3.41498,5.24245 7.29239,11.98032 13.85129,24.06969 17.4361,28.28641 20.86256,24.5401 z m -3.93145,-22.68593 c -7.00944,-1.87781 -14.66764,-7.5847 -19.17334,-14.28797 l -1.42384,-2.11829 -0.66238,-1.98437 c -1.53135,-4.58765 -3.60111,-16.1196 -6.38707,-35.58646 l -1.47674,-10.31875 -0.64986,-2.31996 c -1.71202,-6.11178 -5.99859,-10.73082 -10.39791,-11.20437 l -1.23615,-0.13307 -0.8506,0.53531 -0.85061,0.53531 -0.67018,1.32253 c -1.07697,2.12531 -1.94699,5.11427 -2.41541,8.2982 l -0.43637,2.96605 0.17265,2.51355 c 0.095,1.38244 0.34743,3.34693 0.56106,4.36552 0.21363,1.01859 0.38842,1.95908 0.38842,2.08998 0,0.27512 -2.05733,-2.41754 -3.61833,-4.73571 -5.7896,-8.59787 -9.17024,-19.13612 -9.71852,-30.29479 -0.0751,-1.52797 -0.14109,-2.81761 -0.1467,-2.86588 -0.0343,-0.29458 -2.72588,3.13902 -4.1591,5.30561 -4.18798,6.3309 -6.55816,13.2443 -7.26697,21.19654 l -0.30267,3.39566 0.30247,3.21893 c 0.16637,1.77041 0.36313,3.69518 0.43726,4.27726 l 0.13479,1.05833 -1.33543,-2.69355 -1.33543,-2.69356 -0.62407,-2.46582 c -3.89547,-15.39176 2.1095,-35.38624 14.24941,-47.4456 l 3.19683,-3.17561 2.64583,-1.75903 c 4.8248,-3.20766 9.57622,-5.24978 14.76682,-6.34662 l 2.69568,-0.56964 3.96875,-0.0274 c 2.18282,-0.0151 4.78851,0.0731 5.79043,0.19596 l 1.82167,0.22333 -0.62119,-0.88478 c -0.94497,-1.34597 -3.30848,-3.5841 -4.90257,-4.64252 -1.728,-1.14733 -1.78225,-1.27058 -0.27486,-0.62444 16.00707,6.86143 26.28105,18.90282 27.42078,32.13791 l 0.27973,3.24833 -0.27022,3.54796 c -0.71592,9.39984 -3.85506,21.02795 -6.2027,22.97632 -0.51773,0.42968 -0.51835,0.36602 -0.0106,-1.07269 0.22474,-0.63676 0.70099,-2.60145 1.05834,-4.36598 l 0.64972,-3.20825 v -2.40113 c 0,-2.92552 -0.34936,-4.70563 -1.33351,-6.79458 l -0.74875,-1.58929 -1.42184,-1.45342 c -1.65463,-1.69139 -3.45582,-2.72974 -5.46419,-3.15002 -1.78047,-0.37258 -1.65942,-0.62964 -1.30569,2.77268 l 0.30075,2.89266 -0.2056,1.5875 -0.2056,1.5875 -0.21849,-0.52916 c -0.12018,-0.29104 -0.65454,-1.56919 -1.18748,-2.84031 l -0.96899,-2.31115 -1.04247,-0.94181 c -1.34135,-1.21183 -1.82556,-1.38205 -5.21428,-1.83306 -3.20867,-0.42705 -4.45736,-0.82129 -6.90034,-2.17862 l -1.73247,-0.96257 -2.01269,-2.00686 -2.0127,-2.00687 -1.24996,-2.51354 -1.24996,-2.51354 0.17366,1.95715 c 0.55365,6.2399 4.43885,13.09259 9.3468,16.48585 1.45239,1.00415 1.28888,1.14913 -0.71657,0.63536 -5.6822,-1.45572 -14.34144,-9.14961 -17.529,-15.57485 l -0.62458,-1.25899 -0.66146,0.14983 c -3.32773,0.75379 -4.9448,2.49266 -3.56329,3.83168 3.39358,3.28918 6.46765,10.1241 6.90339,15.34907 0.0966,1.1578 0.21135,2.1051 0.25509,2.1051 0.0437,0 0.53264,-0.41934 1.08644,-0.93186 0.5538,-0.51252 1.66175,-1.25626 2.46212,-1.65275 l 1.45521,-0.7209 3.30729,0.002 3.30729,0.002 2.11667,0.89838 2.11666,0.89837 2.25783,2.27347 2.25783,2.27347 1.22046,2.38125 c 3.16604,6.17724 4.89359,16.37073 4.67249,27.57027 -0.0992,5.02432 -0.019,5.22014 0.79027,1.93077 0.48768,-1.98211 0.67707,-3.19801 1.27123,-8.16136 l 0.13765,-1.1499 1.22834,1.67906 c 2.62472,3.58784 5.09083,8.80409 5.89117,12.46084 0.38598,1.76353 0.32622,1.72384 1.25251,0.83169 0.39383,-0.37931 1.31137,-0.96438 2.03897,-1.30015 l 1.32292,-0.61048 h 8.86354 8.86354 l 1.32292,0.61048 c 0.7276,0.33577 1.64514,0.92084 2.03897,1.30015 0.92629,0.89215 0.86653,0.93184 1.25251,-0.83169 0.80034,-3.65675 3.26645,-8.873 5.89117,-12.46084 l 1.22834,-1.67906 0.13765,1.1499 c 0.59416,4.96335 0.78355,6.17925 1.27123,8.16136 0.80931,3.28937 0.88946,3.09355 0.79027,-1.93077 -0.2211,-11.19954 1.50645,-21.39303 4.67249,-27.57027 l 1.22046,-2.38125 2.25783,-2.27347 2.25783,-2.27347 2.11666,-0.89837 2.11667,-0.89838 3.30729,-0.002 3.30729,-0.002 1.45521,0.7209 c 0.80037,0.39649 1.90832,1.14023 2.46212,1.65275 0.5538,0.51252 1.0427,0.93186 1.08644,0.93186 0.0437,0 0.15853,-0.9473 0.25509,-2.1051 0.43574,-5.22497 3.50981,-12.05989 6.90339,-15.34907 0.51404,-0.49823 0.93463,-1.03326 0.93463,-1.18895 0,-0.57153 -4.83585,-3.18633 -5.10472,-2.76018 -0.0362,0.0574 -0.34871,0.64013 -0.69445,1.29497 -3.5356,6.69648 -11.8461,14.05449 -17.51379,15.50649 -2.00545,0.51377 -2.16896,0.36879 -0.71657,-0.63536 4.90795,-3.39326 8.79315,-10.24595 9.3468,-16.48585 l 0.17366,-1.95715 -1.24996,2.51354 -1.24996,2.51354 -2.0127,2.00687 -2.01269,2.00686 -1.73247,0.96257 c -2.44298,1.35733 -3.69167,1.75157 -6.90034,2.17862 -3.38872,0.45101 -3.87293,0.62123 -5.21428,1.83306 l -1.04247,0.94181 -0.96899,2.31115 c -0.53294,1.27112 -1.0673,2.54927 -1.18748,2.84031 l -0.21849,0.52916 -0.2056,-1.5875 -0.2056,-1.5875 0.30075,-2.89266 c 0.35373,-3.40232 0.47478,-3.14526 -1.30569,-2.77268 -2.00837,0.42028 -3.80956,1.45863 -5.46419,3.15002 l -1.42184,1.45342 -0.74875,1.58929 c -0.98415,2.08895 -1.33351,3.86906 -1.33351,6.79458 v 2.40113 l 0.64972,3.20825 c 0.35734,1.76453 0.83359,3.72922 1.05833,4.36598 0.50777,1.43871 0.50715,1.50237 -0.0106,1.07269 -1.80736,-1.49997 -4.54945,-10.22521 -5.68381,-18.08566 l -0.56989,-3.94898 0.12682,-5.44373 0.12682,-5.44373 0.57287,-2.11666 c 2.88603,-10.66354 13.27405,-21.13611 26.65478,-26.87176 1.50739,-0.64614 1.45313,-0.52289 -0.27487,0.62444 -1.59409,1.05842 -3.95759,3.29655 -4.90257,4.64252 l -0.62119,0.88478 1.82168,-0.22333 c 1.00192,-0.12282 3.60761,-0.21101 5.79042,-0.19596 l 3.96875,0.0274 2.69568,0.56964 c 5.1906,1.09684 9.94203,3.13896 14.76682,6.34662 l 2.64583,1.75903 3.19683,3.17561 c 12.14364,12.06307 18.14608,32.04912 14.24942,47.4456 l -0.62407,2.46582 -1.33543,2.69356 -1.33543,2.69355 0.13478,-1.05833 c 0.0741,-0.58208 0.2709,-2.50685 0.43726,-4.27726 l 0.30248,-3.21893 -0.30267,-3.39566 c -0.70882,-7.95224 -3.07899,-14.86564 -7.26697,-21.19654 -1.43323,-2.16659 -4.12486,-5.60019 -4.15911,-5.30561 -0.006,0.0483 -0.0716,1.33791 -0.1467,2.86588 -0.53794,10.94832 -3.66111,20.90302 -9.28512,29.59509 -1.67596,2.59024 -4.05172,5.77734 -4.05172,5.43541 0,-0.1309 0.17318,-1.06569 0.38484,-2.07732 0.21166,-1.01163 0.46427,-2.92149 0.56136,-4.24414 l 0.17652,-2.40481 -0.31181,-2.37035 c -0.43103,-3.27651 -1.22457,-6.25607 -2.26716,-8.51262 l -0.88211,-1.90921 -0.88134,-0.554 -0.88134,-0.554 -1.23615,0.13307 c -4.39932,0.47355 -8.68589,5.09259 -10.39791,11.20437 l -0.64986,2.31996 -1.47674,10.31875 c -2.78577,19.46552 -4.85552,30.99767 -6.38693,35.58646 l -0.66224,1.98437 -1.41118,2.11667 c -5.86221,8.79291 -16.79661,15.78034 -22.36128,14.28959 z m 5.82427,-5.97395 c 6.48209,-1.79628 11.11709,-7.07829 12.86922,-14.66564 l 0.4888,-2.11667 -0.0137,-5.42395 -0.0137,-5.42396 -0.59916,-2.77366 c -0.77133,-3.57063 -0.80229,-3.58255 -2.55277,-0.98324 l -0.86337,1.28204 0.77119,1.50201 c 0.42416,0.82611 0.90838,2.24654 1.07605,3.15652 l 0.30486,1.6545 -0.2782,1.79735 c -0.52066,3.36376 -2.55602,6.3954 -5.17118,7.70241 l -1.12663,0.56307 -0.59531,-0.6814 -0.59531,-0.6814 v -0.99301 c 0,-0.54616 0.1748,-1.22413 0.38846,-1.5066 0.56846,-0.75157 0.51187,-0.85729 -0.64434,-1.2037 l -1.04962,-0.31447 -1.14236,0.43627 -1.14236,0.43627 -0.45385,0.7683 c -0.88198,1.49306 -0.41326,3.70418 0.97853,4.61611 l 0.66567,0.43617 1.66295,0.004 c 1.92691,0.005 2.8489,0.38737 3.32522,1.38077 l 0.33936,0.70773 -0.38979,0.93288 -0.38978,0.93288 -4.67238,2.29835 -4.67239,2.29835 h -0.74082 -0.74083 l -4.67238,-2.29835 -4.67238,-2.29835 -0.38979,-0.93288 -0.38978,-0.93288 0.33935,-0.70773 c 0.47633,-0.9934 1.39832,-1.37625 3.32522,-1.38077 l 1.66296,-0.004 0.66567,-0.43617 c 1.39179,-0.91193 1.8605,-3.12305 0.97853,-4.61611 l -0.45385,-0.7683 -1.14236,-0.43627 -1.14236,-0.43627 -1.04963,0.31447 c -1.1562,0.34641 -1.21279,0.45213 -0.64433,1.2037 0.21365,0.28247 0.38846,0.96044 0.38846,1.5066 v 0.99301 l -0.59531,0.6814 -0.59532,0.6814 -1.12662,-0.56307 c -2.61516,-1.30701 -4.65052,-4.33865 -5.17118,-7.70241 l -0.27821,-1.79735 0.30486,-1.6545 c 0.16768,-0.90998 0.6519,-2.33041 1.07605,-3.15652 l 0.77119,-1.50201 -0.86337,-1.28204 c -1.75048,-2.59931 -1.78144,-2.58739 -2.55276,0.98324 l -0.59916,2.77366 -0.0137,5.42396 -0.0137,5.42395 0.4888,2.11667 c 1.73058,7.49403 6.22151,12.69243 12.60808,14.59427 l 1.98437,0.59092 2.38657,0.0142 2.38657,0.0142 1.97717,-0.5479 z m -30.41994,-88.04287 0.59836,-0.48453 -0.16112,-0.63995 c -0.0886,-0.35197 -0.75551,-1.22497 -1.48198,-1.94 l -1.32086,-1.30006 -0.40224,0.33384 c -0.22124,0.18361 -0.82523,0.34582 -1.34222,0.36047 l -0.93997,0.0266 -0.58913,-0.58926 -0.58913,-0.58925 0.0246,-1.15061 0.0246,-1.15061 -1.15616,-0.56171 c -0.6359,-0.30894 -1.56106,-0.5617 -2.05593,-0.5617 h -0.89976 l -0.57357,0.7276 -0.57356,0.72761 0.13485,1.0111 c 0.1742,1.30619 1.15293,2.76762 2.70551,4.03985 l 1.23729,1.01386 1.75668,0.59879 1.75668,0.59878 1.62434,0.007 1.62433,0.007 0.59837,-0.48453 z m 57.75609,-0.05 1.73074,-0.53456 1.3405,-1.05961 c 1.63431,-1.29185 2.66242,-2.78802 2.84221,-4.13619 l 0.13485,-1.0111 -0.57356,-0.72761 -0.57357,-0.7276 h -0.89976 c -0.49487,0 -1.42003,0.25276 -2.05592,0.5617 l -1.15616,0.56171 0.0246,1.15061 0.0246,1.15061 -0.58913,0.58925 -0.58913,0.58926 -0.93997,-0.0266 c -0.51699,-0.0146 -1.12098,-0.17686 -1.34222,-0.36047 l -0.40224,-0.33384 -1.32086,1.30006 c -0.72647,0.71503 -1.39336,1.58803 -1.48198,1.94 l -0.16112,0.63995 0.59836,0.48453 0.59837,0.48453 h 1.53032 1.53032 l 1.73074,-0.53458 z m -45.33125,-4.22366 c 0,-0.78374 -2.28929,-5.37262 -3.84931,-7.71596 l -1.80197,-2.70676 -2.26759,-2.27965 c -2.93863,-2.95426 -6.85482,-5.70465 -9.99131,-7.01703 l -0.84456,-0.35338 2.04346,2.03062 c 3.72111,3.6977 5.10825,6.21887 2.8537,5.1867 -0.8265,-0.37838 -2.48174,-0.85976 -3.67831,-1.06973 l -2.17557,-0.38175 -1.78594,0.17407 c -2.27166,0.22141 -2.25929,0.4432 0.045,0.80604 l 1.83091,0.28829 1.80711,0.87676 1.80711,0.87676 -2.77813,0.21368 c -3.18005,0.24458 -5.71952,0.93194 -7.34219,1.9873 -1.53567,0.99879 -1.48199,1.04382 1.45521,1.22057 l 2.57969,0.15524 1.98437,0.55729 c 2.75417,0.77348 5.88381,2.38365 8.04106,4.13705 l 1.82334,1.48201 1.52056,-0.17203 1.52055,-0.17203 1.81548,0.28623 c 0.99851,0.15743 2.52985,0.62838 3.40297,1.04655 1.7894,0.85702 1.98438,0.91039 1.98438,0.54316 z m 29.43818,-0.52416 c 0.95157,-0.43146 2.52915,-0.91212 3.50572,-1.06813 l 1.77559,-0.28365 1.52055,0.17203 1.52056,0.17203 1.82334,-1.48201 c 2.15725,-1.7534 5.28689,-3.36357 8.04105,-4.13705 l 1.98438,-0.55729 2.57969,-0.15524 c 2.9372,-0.17675 2.99088,-0.22178 1.45521,-1.22057 -1.62267,-1.05536 -4.16214,-1.74272 -7.34219,-1.9873 l -2.77813,-0.21368 1.80711,-0.87676 1.80711,-0.87676 1.83091,-0.28829 c 2.27644,-0.35846 2.31621,-0.57755 0.1452,-0.79998 -2.71029,-0.27768 -6.01385,0.33723 -8.37694,1.55923 l -0.8624,0.44596 0.16458,-0.42888 c 0.43318,-1.12886 2.57372,-3.91617 4.3253,-5.6322 l 1.94606,-1.90657 -0.8643,0.36163 c -7.15426,2.9934 -14.36574,10.46446 -17.28083,17.90287 -0.95649,2.44067 -1.04419,2.35102 1.27243,1.30061 z"
       id="path8159"
       inkscape:connector-curvature="0" />
  </g>
</svg>
