<?xml version="1.0" encoding="UTF-8" standalone="no"?>
<!-- Created with Inkscape (http://www.inkscape.org/) -->

<svg
   xmlns:dc="http://purl.org/dc/elements/1.1/"
   xmlns:cc="http://creativecommons.org/ns#"
   xmlns:rdf="http://www.w3.org/1999/02/22-rdf-syntax-ns#"
   xmlns:svg="http://www.w3.org/2000/svg"
   xmlns="http://www.w3.org/2000/svg"
   xmlns:sodipodi="http://sodipodi.sourceforge.net/DTD/sodipodi-0.dtd"
   xmlns:inkscape="http://www.inkscape.org/namespaces/inkscape"
   width="94.620018mm"
   height="92.076981mm"
   viewBox="0 0 94.620015 92.076978"
   version="1.1"
   id="svg5974"
   inkscape:version="0.92.3 (2405546, 2018-03-11)"
   sodipodi:docname="wolf3.svg">
  <defs
     id="defs5968" />
  <sodipodi:namedview
     id="base"
     pagecolor="#ffffff"
     bordercolor="#666666"
     borderopacity="1.0"
     inkscape:pageopacity="0.0"
     inkscape:pageshadow="2"
     inkscape:zoom="1.979899"
     inkscape:cx="309.99818"
     inkscape:cy="176.14636"
     inkscape:document-units="mm"
     inkscape:current-layer="layer1"
     showgrid="false"
     inkscape:window-width="1920"
     inkscape:window-height="983"
     inkscape:window-x="0"
     inkscape:window-y="27"
     inkscape:window-maximized="1" />
  <metadata
     id="metadata5971">
    <rdf:RDF>
      <cc:Work
         rdf:about="">
        <dc:format>image/svg+xml</dc:format>
        <dc:type
           rdf:resource="http://purl.org/dc/dcmitype/StillImage" />
        <dc:title />
      </cc:Work>
    </rdf:RDF>
  </metadata>
  <g
     inkscape:label="Layer 1"
     inkscape:groupmode="layer"
     id="layer1"
     transform="translate(-127.60388,-192.24016)">
    <rect
       style="opacity:0;vector-effect:none;fill:#000104;fill-opacity:0.2745098;fill-rule:nonzero;stroke:#f7f81f;stroke-width:0.50799996;stroke-linecap:butt;stroke-linejoin:miter;stroke-miterlimit:4;stroke-dasharray:none;stroke-dashoffset:0;stroke-opacity:1"
       id="rect11443"
       width="145.89882"
       height="106.58929"
       x="104.84225"
       y="103.47311" />
    <rect
       style="opacity:0;vector-effect:none;fill:#000104;fill-opacity:0.2745098;fill-rule:nonzero;stroke:#f7f81f;stroke-width:0.50799996;stroke-linecap:butt;stroke-linejoin:miter;stroke-miterlimit:4;stroke-dasharray:none;stroke-dashoffset:0;stroke-opacity:1"
       id="rect11445"
       width="96.005951"
       height="78.619049"
       x="112.14777"
       y="112.79855" />
    <path
       style="fill:#000000;stroke-width:1"
       d="m 172.84805,284.08225 c 4.2e-4,-0.2205 0.46824,-2.58841 1.14216,-5.78068 0.16221,-0.76835 0.35682,-1.83515 0.43247,-2.37067 l 0.13753,-0.97366 -0.0562,-1.35467 c -0.0309,-0.74507 -0.0928,-1.71373 -0.13752,-2.15258 l -0.0813,-0.79793 0.1914,-0.21747 0.1914,-0.21748 -0.17621,0.14775 c -0.20234,0.16967 -0.28946,0.11986 -0.28946,-0.16548 0,-0.46824 -0.80041,-3.9996 -1.28201,-5.65614 -0.19163,-0.65914 -0.6806,-1.50191 -1.35918,-2.34257 -0.24703,-0.30604 -0.75496,-0.93286 -1.12875,-1.39293 -1.53936,-1.89475 -1.9447,-2.69646 -1.64575,-3.25507 0.17342,-0.32403 1.24316,0.60716 2.38493,2.07602 2.05321,2.64141 4.47677,8.26853 4.19532,9.74085 l -0.0394,0.20624 0.0724,-0.0448 c 0.0398,-0.0246 0.0724,0.0496 0.0724,0.16497 0,0.11536 0.0255,0.27953 0.0567,0.36483 l 0.0567,0.15509 -0.20485,-0.16872 -0.20486,-0.16873 0.18328,0.21106 0.18327,0.21106 0.0581,0.42333 c 0.0902,0.65691 0.38766,2.02467 0.45596,2.09659 0.0337,0.0355 0.16404,-0.34548 0.28957,-0.84666 0.33732,-1.34671 1.43526,-5.01324 1.49098,-4.97908 0.0265,0.0162 0.052,-0.0715 0.0566,-0.195 0.005,-0.12348 0.23857,-0.92936 0.51974,-1.79085 0.28116,-0.86148 0.66998,-2.29023 0.86404,-3.175 l 0.35283,-1.60866 0.0754,-0.97367 c 0.0415,-0.53552 0.11704,-1.64042 0.16786,-2.45533 0.12537,-2.01025 0.18314,-2.21325 0.51578,-1.81244 l 0.11195,0.13489 -0.0204,2.25694 -0.0205,2.25694 -0.25906,2.62467 -0.25906,2.62466 -0.13958,0.16788 -0.13957,0.16787 0.16402,-0.12554 0.16402,-0.12554 -0.0499,0.13341 c -0.0274,0.0734 -0.0765,0.39723 -0.10912,0.71967 -0.0645,0.63789 -0.96153,4.21609 -1.45838,5.81723 l -0.30958,0.99764 -0.13188,-0.0502 -0.13187,-0.0502 0.0995,0.10033 0.0996,0.10033 -0.80734,2.38119 c -1.97451,5.82363 -3.23922,8.61573 -4.11192,9.0779 l -0.23284,0.1233 4.3e-4,-0.235 z m 2.25039,-14.26851 c 0.0882,-0.10478 0.1252,-0.16126 0.0822,-0.12551 l -0.0782,0.065 -0.3019,-0.27666 -0.30191,-0.27666 0.27527,0.30047 0.27527,0.30046 -0.1017,0.1017 c -0.0559,0.0559 -0.0809,0.10171 -0.0556,0.10171 0.0254,0 0.11832,-0.0857 0.20653,-0.1905 z m 3.38485,-3.38667 0.24868,-0.27517 -0.27517,0.24868 c -0.25649,0.23179 -0.31408,0.30166 -0.24867,0.30166 0.0146,0 0.13839,-0.12383 0.27516,-0.27517 z m 0.67734,-0.67733 0.24867,-0.27517 -0.27516,0.24867 c -0.2565,0.2318 -0.31409,0.30166 -0.24868,0.30166 0.0146,0 0.1384,-0.12382 0.27517,-0.27516 z m 4.64769,17.38931 c 0.0305,-0.096 0.14654,-0.69985 0.25792,-1.34186 0.11139,-0.64201 0.33953,-1.92929 0.50698,-2.86062 0.47683,-2.65198 0.63458,-3.55092 0.63519,-3.6195 0.002,-0.20641 -0.27915,0.0294 -0.76079,0.63841 -0.30232,0.3823 -0.73996,0.91478 -0.97253,1.18329 l -0.42287,0.4882 -0.10265,-0.0394 -0.10264,-0.0394 0.0511,0.13325 0.0511,0.13325 -0.84135,0.81494 -0.84136,0.81493 -0.51711,0.27517 c -0.50345,0.2679 -0.89397,0.34081 -1.10553,0.20642 l -0.10413,-0.0661 0.23722,-0.29239 c 0.58864,-0.72554 1.5709,-2.06321 1.82553,-2.48607 l 0.27961,-0.46434 0.1142,0.10135 0.1142,0.10134 -0.0937,-0.127 -0.0937,-0.127 0.49029,-0.9926 c 0.76849,-1.5558 1.6103,-4.42413 1.6103,-5.48689 v -0.43589 l -0.27517,0.2313 c -0.15134,0.12721 -0.67317,0.60699 -1.15961,1.06617 l -0.88445,0.83489 -0.0887,-0.0887 c -0.14553,-0.14552 -0.0979,-0.83964 0.10869,-1.58403 0.1066,-0.38411 0.18177,-0.79494 0.16702,-0.91293 l -0.0268,-0.21454 -0.78568,0.6882 -0.78567,0.68821 -0.12449,-0.0478 c -0.1536,-0.0589 -0.15393,-0.14662 -0.003,-0.7146 l 0.11975,-0.44986 -0.25982,0.0571 -0.25982,0.0571 0.0445,-0.3944 0.0444,-0.3944 0.67706,-1.37181 c 0.71743,-1.4536 0.79509,-1.65878 1.20714,-3.18887 0.14373,-0.53371 0.29708,-1.01347 0.34077,-1.06612 0.0437,-0.0526 0.0602,-0.11495 0.0368,-0.13844 -0.12876,-0.12875 0.72678,-1.9603 1.61335,-3.45387 1.28634,-2.16705 2.49016,-3.37935 3.36265,-3.38632 0.29118,-0.002 0.29039,0.0489 -0.008,0.51279 -2.04593,3.18139 -2.15651,3.38229 -2.32881,4.2309 -0.13813,0.68034 -0.52093,3.25515 -0.61441,4.13269 l -0.0574,0.53856 0.16819,-0.09 c 0.32765,-0.17535 0.93244,-1.06871 1.51892,-2.24365 0.4497,-0.90089 0.74792,-1.3258 0.93051,-1.3258 h 0.12967 l -0.05,3.6195 -0.05,3.6195 0.27588,-0.55879 c 0.15174,-0.30732 0.40222,-0.84552 0.55662,-1.19599 0.15441,-0.35046 0.39116,-0.743 0.52611,-0.87229 l 0.24537,-0.23508 0.13006,0.10794 0.13007,0.10794 -0.001,1.83113 c -8.5e-4,1.00713 -0.0392,2.1896 -0.0854,2.62771 -0.0461,0.43813 -0.071,0.80951 -0.0552,0.8253 0.0158,0.0158 0.38146,-0.76176 0.8126,-1.72791 1.01616,-2.27714 0.89758,-2.18553 1.32599,-1.02433 0.16065,0.43543 0.31446,0.84885 0.34182,0.9187 0.0274,0.0699 0.20392,-0.61595 0.39237,-1.524 l 0.34265,-1.651 -0.0166,-2.22146 -0.0166,-2.22145 0.0961,-0.52984 c 0.26431,-1.4576 0.67176,-1.25203 1.15208,0.58127 l 0.2189,0.83548 0.0416,2.17946 c 0.0229,1.19871 0.0699,2.16202 0.10437,2.14068 0.0345,-0.0213 0.14829,-0.31629 0.25284,-0.65546 0.39696,-1.2879 0.69902,-2.23401 0.78818,-2.46881 l 0.0925,-0.24346 0.23857,0.2858 0.23857,0.28579 0.1618,0.55033 c 0.089,0.30269 0.20665,0.80061 0.26145,1.1065 0.0548,0.3059 0.13123,0.60727 0.16984,0.66973 l 0.0702,0.11357 0.0476,-0.45807 c 0.0262,-0.25193 0.0911,-0.85811 0.14419,-1.34706 l 0.0966,-0.889 0.21542,-0.1905 c 0.27117,-0.2398 0.21656,-0.27002 0.53536,0.29633 0.15072,0.26776 0.5281,0.92499 0.83863,1.4605 0.31053,0.53552 0.71102,1.23943 0.88999,1.56424 0.42481,0.771 0.433,0.69711 0.12922,-1.16622 -0.29493,-1.80899 -0.30475,-1.98518 -0.12498,-2.24185 0.19677,-0.28092 0.18639,-0.29038 1.27208,1.159 l 1.00912,1.34717 0.0257,-0.46875 0.0257,-0.46874 -0.18161,-0.79721 c -0.0999,-0.43846 -0.16075,-0.85158 -0.13524,-0.91804 0.0255,-0.0665 0.01,-0.14336 -0.0346,-0.17088 -0.13929,-0.0861 -0.0689,-0.97266 0.0771,-0.97064 0.0295,4.2e-4 0.28223,0.22052 0.56163,0.48914 0.2794,0.26862 0.69487,0.65881 0.92326,0.86709 l 0.41526,0.37869 -0.0566,-0.67733 c -0.0731,-0.87629 -0.4273,-2.39804 -1.01758,-4.37243 -0.82038,-2.74407 -0.98611,-3.45924 -0.80162,-3.45924 0.31061,0 1.15605,1.20096 1.7881,2.54 0.23079,0.48895 0.68775,1.44145 1.01548,2.11667 l 0.59586,1.22767 0.064,-0.23133 c 0.0352,-0.12722 0.0911,-0.55641 0.12418,-0.95375 0.0873,-1.04795 0.17968,-1.0323 0.58419,0.0989 0.66219,1.85187 1.34523,5.20474 1.57297,7.72135 l 0.0948,1.04721 -0.19582,0.22218 -0.19583,0.2222 0.1905,-0.16069 0.1905,-0.16068 v 0.34023 c 0,0.43097 -0.14818,1.22273 -0.24741,1.32196 l -0.0756,0.0756 -0.0854,-0.15948 c -0.0469,-0.0877 -0.1465,-0.53948 -0.22122,-1.00392 -0.0747,-0.46445 -0.15358,-0.95111 -0.17522,-1.08148 l -0.0394,-0.23704 0.10457,0.0628 0.10455,0.0628 -0.0967,-0.12208 c -0.0532,-0.0671 -0.14258,-0.34592 -0.1987,-0.6195 -0.12939,-0.63074 -0.38553,-1.37811 -0.56743,-1.65574 l -0.1408,-0.21488 -0.32328,1.60735 c -0.89227,4.43645 -2.16233,9.41675 -2.42364,9.50385 -0.32655,0.10885 -0.63083,-0.57364 -0.82163,-1.84283 l -0.10818,-0.71967 0.0965,-0.12209 0.0965,-0.12208 -0.0974,0.0584 -0.0974,0.0584 -0.14414,-0.65595 -0.14414,-0.65593 -0.2997,-0.5745 -0.29971,-0.57451 -0.42043,-0.37799 c -0.23123,-0.20791 -0.47129,-0.378 -0.53345,-0.378 h -0.11303 l -0.61865,1.22907 -0.61865,1.22908 -0.11676,-0.0226 -0.11677,-0.0226 -0.4759,-1.26313 c -0.26175,-0.69472 -0.52022,-1.27782 -0.57439,-1.29578 l -0.0985,-0.0326 -0.12884,0.44911 c -0.0709,0.247 -0.28663,1.03965 -0.47949,1.76144 -0.19286,0.72178 -0.40596,1.51235 -0.47354,1.75683 l -0.12289,0.4445 h -0.12033 c -0.0662,0 -0.22405,-0.13599 -0.35082,-0.30219 l -0.2305,-0.3022 -0.06,0.1117 c -0.033,0.0614 -0.0864,0.37839 -0.11866,0.70436 -0.35156,3.55004 -0.93914,5.83181 -1.61595,6.27528 -0.29571,0.19375 -0.24143,0.61188 -0.59475,-4.58195 -0.076,-1.1176 -0.16627,-2.10673 -0.20053,-2.19807 l -0.0623,-0.16606 -0.23486,0.40075 c -0.21149,0.36089 -0.86712,1.77318 -1.28453,2.767 -0.56823,1.35291 -1.27798,2.61432 -1.75056,3.1112 l -0.26075,0.27415 -0.15371,-0.13911 c -0.19386,-0.17544 -0.19236,-0.34686 0.0147,-1.68858 0.0926,-0.60021 0.16884,-1.37642 0.16933,-1.72492 l 9e-4,-0.63364 -0.76933,1.35081 c -1.43675,2.5227 -2.63784,3.96067 -3.53586,4.23317 l -0.19886,0.0603 0.0554,-0.17457 z m 22.31332,-13.66931 c 0,-0.0146 -0.12383,-0.13839 -0.27517,-0.27516 l -0.27517,-0.24868 0.24868,0.27517 c 0.2318,0.2565 0.30166,0.31409 0.30166,0.24867 z m -22.89701,-7.784 0.24867,-0.27517 -0.27516,0.24867 c -0.2565,0.2318 -0.31409,0.30166 -0.24868,0.30166 0.0146,0 0.1384,-0.12382 0.27517,-0.27516 z m -10.75863,17.04571 -0.50863,-0.23146 -0.52373,-0.48488 c -0.53228,-0.4928 -1.14401,-1.33445 -1.59246,-2.19098 l -0.24807,-0.4738 0.16676,-0.19655 0.16676,-0.19654 -0.18968,0.16055 -0.18968,0.16054 -0.22168,-0.49921 c -0.5873,-1.32262 -1.19165,-3.58604 -1.39174,-5.21242 l -0.1007,-0.81854 0.0431,-1.80613 0.0431,-1.80613 0.0985,-0.33884 c 0.0542,-0.18637 0.16662,-0.42917 0.24989,-0.53957 l 0.1514,-0.20071 0.0501,1.89423 0.0501,1.89423 0.17703,0.97366 c 0.32514,1.78825 0.97488,3.42082 1.79988,4.52245 l 0.42099,0.56214 -0.1143,0.14587 -0.1143,0.14588 0.14251,-0.1115 0.1425,-0.1115 0.22455,0.14713 0.22456,0.14715 0.0771,-0.12031 c 0.43047,-0.67212 0.5435,-1.46308 0.5435,-3.80331 v -1.82033 l -0.27517,-1.06068 c -0.32729,-1.26163 -0.32655,-1.25238 -0.0847,-1.04927 l 0.1905,0.15997 -0.22421,-0.25268 -0.2242,-0.25267 -0.0576,-0.43537 -0.0576,-0.43537 0.10297,-0.0636 0.10297,-0.0636 0.15239,0.20202 c 0.14123,0.18723 0.49154,1.02411 0.63416,1.515 l 0.0613,0.211 -0.16038,-0.12377 -0.16038,-0.12378 0.18565,0.2094 0.18565,0.2094 0.16735,0.76171 c 0.14025,0.6384 0.39968,2.22434 0.5605,3.42643 l 0.0393,0.29405 -0.23058,0.25597 -0.23058,0.25597 0.22249,-0.19523 0.22248,-0.19523 0.0502,0.28021 c 0.0276,0.15411 0.0761,1.10318 0.10782,2.10906 l 0.0577,1.82885 -0.15239,1.38848 c -0.0838,0.76366 -0.17531,1.4325 -0.20331,1.48631 l -0.0509,0.0978 z m -2.11071,-4.17638 0.24868,-0.27517 -0.27517,0.24868 c -0.15134,0.13677 -0.27517,0.26059 -0.27517,0.27516 0,0.0654 0.0699,0.008 0.30166,-0.24867 z m 2.032,-2.032 0.24868,-0.27517 -0.27517,0.24868 c -0.15134,0.13677 -0.27517,0.26059 -0.27517,0.27516 0,0.0654 0.0699,0.008 0.30166,-0.24867 z m -8.37321,6.06072 c -0.14795,-0.14795 -0.0129,-0.58393 0.49372,-1.59455 l 0.55181,-1.10067 0.30431,-1.05833 0.30432,-1.05834 0.0412,-0.889 0.0412,-0.889 -0.13276,-0.87092 c -0.55594,-3.64723 -1.04626,-4.76828 -3.47909,-7.95445 l -0.76048,-0.99596 -1.67369,-1.65571 c -0.92053,-0.91064 -1.67369,-1.70619 -1.67369,-1.76791 v -0.1122 l 0.29378,0.0477 c 0.90582,0.14699 3.15063,1.83598 4.23245,3.18447 0.24607,0.30672 0.85153,0.99461 1.34546,1.52864 l 0.89806,0.97097 0.55581,1.06103 c 0.3057,0.58357 0.76374,1.44204 1.01788,1.90771 0.5526,1.01253 0.9232,2.10954 1.06002,3.13768 l 0.10046,0.75491 -0.0561,0.74325 c -0.14343,1.90005 -1.48475,4.80993 -2.86836,6.22266 -0.44338,0.45272 -0.49687,0.48752 -0.59634,0.38805 z m -1.36591,-8.72772 c -0.46977,-1.60181 -0.78933,-2.30108 -1.47114,-3.21926 l -0.20577,-0.27709 -0.66093,1.33542 -0.66093,1.33543 -0.38209,0.43265 c -0.41287,0.46752 -0.75061,0.65466 -1.10272,0.61102 l -0.22324,-0.0277 0.38658,-0.59267 c 0.21261,-0.32596 0.52606,-0.87841 0.69654,-1.22766 l 0.30998,-0.635 0.0337,-0.71967 0.0337,-0.71967 -0.18524,-0.49137 c -0.41966,-1.11323 -1.3244,-2.20142 -3.37855,-4.06362 -1.63585,-1.48299 -2.54846,-2.45418 -2.54846,-2.71202 v -0.075 l 0.23284,0.0573 c 0.63367,0.15596 1.81973,1.10205 4.13878,3.3014 0.86034,0.81593 2.03923,1.86931 2.61976,2.34084 0.58053,0.47152 1.26395,1.09113 1.5187,1.3769 l 0.4632,0.51958 0.31141,0.635 c 0.17128,0.34925 0.40297,0.92075 0.51486,1.27 l 0.20345,0.635 0.047,0.72417 0.047,0.72417 -0.13996,0.27066 c -0.21351,0.41288 -0.2576,0.3533 -0.59842,-0.80883 z m 45.13424,-6.10134 c -0.13077,-0.2116 -0.23423,-1.86155 -0.27708,-4.41849 l -0.0475,-2.83634 -0.24998,-1.35466 c -0.13749,-0.74507 -0.30634,-1.65947 -0.37522,-2.032 -0.0689,-0.37254 -0.12932,-1.02784 -0.13431,-1.45622 l -0.009,-0.77889 0.14149,-0.21595 c 0.25979,-0.39649 0.224,-0.45285 0.8307,1.30806 0.23264,0.67521 0.46204,1.26576 0.50978,1.31233 l 0.0868,0.0847 -0.0462,-1.73567 c -0.0673,-2.53079 -0.24869,-3.85032 -0.82224,-5.98227 -0.17735,-0.65924 -0.34908,-1.41171 -0.38162,-1.67217 l -0.0592,-0.47356 h 0.21492 0.21492 l 0.26542,0.22333 0.26542,0.22334 0.32642,0.64922 c 0.17953,0.35707 0.38687,0.69938 0.46075,0.7607 l 0.13432,0.11148 v -0.14065 c 0,-0.18333 -0.45122,-2.37508 -0.67541,-3.2807 -0.15749,-0.63622 -0.40833,-1.33769 -0.60053,-1.67939 -0.0393,-0.0699 -0.30551,-0.5372 -0.5916,-1.03856 l -0.52017,-0.91157 0.0499,-0.13 0.0499,-0.13 -0.0947,0.0585 -0.0947,0.0585 0.0387,-0.11762 c 0.0213,-0.0647 0.14201,-0.12982 0.26831,-0.14473 l 0.22962,-0.0271 0.35651,0.17441 c 0.19609,0.0959 0.63816,0.39944 0.98238,0.67445 0.34423,0.27502 0.77285,0.58265 0.9525,0.68362 l 0.32663,0.18357 v -0.67339 c 0,-1.3015 -0.32463,-2.50363 -1.32102,-4.89179 -0.30886,-0.74029 -0.58115,-1.48886 -0.60508,-1.66349 l -0.0435,-0.3175 0.32864,8.5e-4 0.32865,8.5e-4 0.45721,0.21283 c 0.25146,0.11706 0.7711,0.40243 1.15475,0.63417 0.38366,0.23174 0.76427,0.42134 0.84581,0.42134 h 0.14825 l -0.0469,-0.45412 c -0.0625,-0.60513 -0.39256,-1.41353 -1.05919,-2.59388 -0.55785,-0.98775 -1.01805,-1.6665 -2.66013,-3.92348 -1.05413,-1.44887 -1.03984,-1.40941 -0.512,-1.41407 l 0.40217,-0.004 -0.59967,-0.56794 c -1.44564,-1.36921 -2.48738,-1.94588 -4.64966,-2.57392 -1.31528,-0.38203 -1.41812,-0.44928 -1.0066,-0.6583 l 0.2446,-0.12423 0.508,0.01 c 0.2794,0.005 0.94615,0.11108 1.48166,0.23521 0.53552,0.12413 1.3103,0.28209 1.72174,0.35101 0.91115,0.15263 1.31125,0.28315 2.30924,0.75329 0.42422,0.19985 1.01478,0.44956 1.31234,0.55491 l 0.54102,0.19155 0.29633,0.27084 c 0.16298,0.14896 0.67733,0.5575 1.143,0.90787 1.46372,1.1013 4.36033,4.21753 4.36033,4.69093 v 0.12037 l -1.41704,-0.71642 c -1.67619,-0.84745 -1.54388,-0.88216 -1.13783,0.29846 l 0.33116,0.96292 0.51472,0.0847 0.51471,0.0847 -0.29186,0.32685 c -0.54057,0.60537 -0.0221,1.23079 4.53544,5.47073 2.81478,2.61865 3.97804,4.00795 3.97804,4.75103 0,0.55099 -0.29398,0.27599 -0.93134,-0.87123 -0.16298,-0.29336 -0.4905,-0.72603 -0.72782,-0.96148 l -0.43148,-0.4281 -0.95391,-0.41231 c -0.82215,-0.35536 -1.92194,-0.94404 -3.06248,-1.63924 l -0.30735,-0.18734 -0.13715,0.34276 -0.13714,0.34275 v 1.42028 1.42028 l 0.21171,0.81455 c 0.30906,1.18911 0.68823,2.12211 1.21147,2.98098 0.58667,0.963 0.86094,1.55204 0.86199,1.8513 l 8.5e-4,0.23581 -0.15438,-0.0826 c -0.80181,-0.42913 -1.67696,-1.88455 -2.5738,-4.28037 -1.10548,-2.95324 -1.93232,-3.93068 -2.73848,-3.23726 l -0.22675,0.19506 0.14104,1.47711 c 0.34218,3.58329 0.47557,5.12943 0.45614,5.28712 -0.0115,0.0931 0.002,0.20743 0.031,0.254 0.0286,0.0466 0.0798,0.49796 0.1139,1.00309 l 0.062,0.91843 -0.15182,-0.0294 -0.15183,-0.0294 -0.0802,-0.254 c -0.0441,-0.1397 -0.26632,-0.77846 -0.49385,-1.41947 -0.46907,-1.32153 -0.466,-1.30815 -0.26551,-1.1553 0.0815,0.0621 0.0461,9e-5 -0.0786,-0.13779 -0.12473,-0.13793 -0.25278,-0.35591 -0.28455,-0.4844 -0.0652,-0.264 -0.22262,-0.40083 -0.27618,-0.24015 l -0.0355,0.10654 -0.26581,-0.23953 -0.26582,-0.23954 0.27516,0.30018 0.27517,0.30019 8.5e-4,0.71564 c 0,0.3936 0.0963,1.49668 0.21346,2.4513 0.40161,3.27204 0.45629,3.76996 0.55228,5.02837 0.1136,1.48931 0.0419,2.25296 -0.21142,2.25296 h -0.10446 l -0.10601,-0.48683 c -0.0583,-0.26776 -0.21709,-0.96308 -0.35286,-1.54517 -0.13577,-0.58208 -0.26744,-1.14855 -0.29259,-1.25882 -0.0854,-0.37458 -0.0794,-0.40867 -0.84233,4.73016 -1.06188,7.15222 -1.25945,8.31779 -1.43457,8.46313 l -0.11618,0.0964 -0.0476,-0.0771 z m -65.57073,-2.22748 c -0.96759,-0.16087 -2.32781,-0.87442 -2.72191,-1.42789 l -0.18216,-0.25582 0.11882,-0.0456 c 0.16142,-0.0619 0.61597,0.055 1.6712,0.43012 l 0.889,0.31599 0.64635,0.0414 0.64634,0.0414 0.96232,-0.27323 c 1.20574,-0.34233 2.86231,-0.87357 6.21166,-1.99198 3.00421,-1.00317 3.49004,-1.13539 5.2819,-1.43755 3.55447,-0.59939 4.48686,-0.98129 6.44059,-2.63799 0.77124,-0.65398 0.62689,-0.078 -0.17801,0.71026 -0.68839,0.67421 -1.53014,1.1938 -2.565,1.58332 -0.28828,0.10851 -0.68371,0.27869 -0.87873,0.37819 l -0.35459,0.18089 -0.3063,0.46133 c -0.16847,0.25372 -0.37966,0.4846 -0.46931,0.51306 l -0.16301,0.0517 -0.12227,-0.10148 -0.12228,-0.10148 0.26045,-0.32885 0.26046,-0.32884 h -0.804 c -1.8489,0 -3.43156,0.5031 -7.70834,2.45034 -3.53144,1.60789 -5.19729,2.04131 -6.81318,1.77267 z m 73.95568,-0.77424 -0.14664,-0.10722 0.47599,-1.00914 c 0.61148,-1.29636 0.93009,-2.26787 1.05646,-3.22141 l 0.10098,-0.762 -0.0411,-2.159 -0.0411,-2.159 -0.1728,-0.72723 c -0.42648,-1.79488 -0.94076,-2.94063 -1.79255,-3.99359 -0.31767,-0.3927 -0.7884,-1.05327 -1.04605,-1.46793 l -0.46847,-0.75392 -0.47783,-0.44674 c -0.51132,-0.47803 -0.54244,-0.60679 -0.17784,-0.73564 l 0.23122,-0.0817 0.39687,0.20823 c 0.75459,0.39591 2.04777,1.84792 3.57701,4.01636 l 0.71452,1.01316 0.0251,-0.42736 0.0251,-0.42737 -0.43044,-1.68497 c -0.23673,-0.92673 -0.48221,-1.98334 -0.5455,-2.34802 l -0.11506,-0.66305 0.0651,-0.22744 0.0651,-0.22745 0.54229,0.55033 0.54228,0.55034 0.34698,0.67733 c 0.73767,1.44003 0.87462,2.18943 0.87549,4.79104 l 8.4e-4,1.91238 -0.12236,0.79696 c -0.11316,0.73708 -0.20414,1.16143 -0.77893,3.63329 -0.1137,0.48895 -0.2452,1.17475 -0.29224,1.524 -0.28145,2.09013 -0.44671,2.57816 -1.14036,3.36772 -0.55646,0.63339 -0.94258,0.8151 -1.25172,0.58905 z m -78.56354,-1.5089 c -0.87951,-0.20721 -3.30267,-2.16093 -4.50913,-3.63558 -0.48032,-0.5871 -0.80432,-0.80344 -1.3262,-0.88552 l -0.31213,-0.0491 -0.63226,-0.865 c -0.7933,-1.08536 -0.98069,-1.26159 -1.6772,-1.57741 l -0.56247,-0.25503 -0.26576,-0.32062 c -0.14617,-0.17634 -0.3668,-0.5261 -0.49028,-0.77725 l -0.22451,-0.45664 v -0.52956 -0.52956 l 0.26631,-0.5378 c 0.62843,-1.26909 1.58961,-2.33665 3.86916,-4.29737 5.79896,-4.98786 8.97959,-9.28384 9.53413,-12.87744 l 0.098,-0.635 -0.0436,-1.18533 -0.0436,-1.18533 -0.34736,-1.1852 -0.34736,-1.1852 v -0.71727 c 0,-0.71532 0.48667,-4.55511 0.73004,-5.76 0.20228,-1.00145 0.53175,-2.01374 0.908,-2.78982 l 0.34688,-0.71549 0.49539,-0.52957 0.49539,-0.52958 0.46266,-0.1731 c 0.85666,-0.32052 0.94991,-0.27338 0.8758,0.44266 l -0.0555,0.53592 -0.64996,1.09388 c -1.12903,1.90017 -1.1495,2.37517 -0.23586,5.47414 0.18778,0.63693 0.38641,1.46577 0.4414,1.84188 l 0.1,0.68384 -0.039,1.12145 -0.039,1.12146 -0.16128,0.46566 -0.16128,0.46567 -0.4418,0.0255 -0.4418,0.0255 -0.0443,-0.19483 c -0.0243,-0.10716 -0.15925,-0.91874 -0.29978,-1.8035 -0.14052,-0.88477 -0.27493,-1.69439 -0.29869,-1.79917 l -0.0432,-0.1905 h -0.15275 -0.15275 l -0.35363,0.43473 -0.35364,0.43473 v 0.22659 c 0,0.12463 0.11381,0.68147 0.25291,1.23744 l 0.25291,1.01084 10e-4,1.57818 0.001,1.57818 -0.1631,0.79249 c -0.25692,1.24835 -1.19734,3.54415 -1.45177,3.54415 -0.0487,0 -0.0681,0.033 -0.0432,0.0733 0.0501,0.081 -0.0672,0.27093 -1.41853,2.29741 -1.53393,2.30025 -2.07489,2.90699 -4.34386,4.87209 -1.16361,1.00778 -2.39567,2.20786 -2.39933,2.33705 -8.6e-4,0.0302 0.25562,0.0984 0.56994,0.15165 2.37691,0.40274 3.86913,1.29427 4.54352,2.71455 l 0.26132,0.55033 0.0298,1.18533 0.0298,1.18534 -0.10353,0.46566 c -0.29513,1.32748 -1.39107,2.54331 -3.17774,3.52539 l -0.57284,0.31487 0.33089,0.2827 c 1.1027,0.94211 3.13038,2.09893 4.19719,2.39455 l 0.61763,0.17116 1.22937,-7.6e-4 1.22937,-7.7e-4 0.762,-0.20062 c 0.4191,-0.11035 1.00443,-0.2657 1.30075,-0.34522 l 0.53875,-0.14459 0.0781,0.0781 0.0781,0.0781 -0.65923,0.38896 c -2.35317,1.38847 -4.49159,1.99249 -5.8887,1.66334 z m 2.37503,-2.76533 c -0.1585,-0.18193 -0.10666,-0.35988 0.10484,-0.35988 0.2225,0 0.28181,0.14041 0.14301,0.33857 l -0.11874,0.16952 z m 9.16212,-0.44239 -0.21167,-0.16341 0.127,-0.11936 c 0.14244,-0.13386 2.96078,-1.72589 4.80793,-2.71589 0.66528,-0.35657 1.7787,-0.99082 2.47427,-1.40945 1.87168,-1.12647 3.24826,-1.77471 3.76873,-1.77471 h 0.20974 l -5.1e-4,0.40217 c -0.002,1.79699 -1.89317,3.87997 -4.06349,4.47583 l -0.55034,0.1511 -1.48166,-0.0176 -1.48167,-0.0176 -0.46567,0.0913 c -0.79919,0.15674 -1.7039,0.56035 -2.45519,1.09531 -0.29433,0.20959 -0.40843,0.20997 -0.67747,0.002 z m -7.84886,-0.16269 -0.10025,-0.16053 0.15231,-0.13784 0.15231,-0.13784 0.13924,0.0534 c 0.18276,0.0701 0.17661,0.22926 -0.0156,0.40319 -0.19416,0.17572 -0.20599,0.17499 -0.32802,-0.0204 z m 3.53086,-0.34746 c 0,-0.18745 0.0636,-0.20834 0.254,-0.0834 l 0.127,0.0834 -0.127,0.0834 c -0.19036,0.12496 -0.254,0.10407 -0.254,-0.0834 z m 54.1775,-0.3175 c -0.0949,-0.2212 -0.45812,-1.16417 -0.80723,-2.0955 -1.51028,-4.02906 -1.65165,-4.29328 -3.27926,-6.12863 -0.43834,-0.49429 -0.97318,-1.11607 -1.18854,-1.38173 l -0.39157,-0.48303 0.16532,-0.0885 c 0.58709,-0.31421 1.35366,0.0671 2.64346,1.31509 0.67242,0.6506 0.70186,0.65727 0.62471,0.1416 -0.26861,-1.79544 -1.51531,-4.11234 -3.51152,-6.5259 -0.39776,-0.48091 -0.86747,-1.04912 -1.0438,-1.26267 l -0.32059,-0.38828 0.0922,-0.092 0.0922,-0.092 0.52473,0.002 0.52472,0.002 0.508,0.20326 c 0.54494,0.21803 1.42515,0.69157 1.95597,1.05227 1.29777,0.88186 -0.27896,-1.61757 -1.91363,-3.03349 -0.9407,-0.81481 -0.85901,-0.74735 -2.14547,-1.77197 -0.55135,-0.43914 -1.05723,-0.87664 -1.12418,-0.97223 l -0.12173,-0.17378 0.23146,-0.15166 0.23147,-0.15166 0.85039,0.007 0.85039,0.007 1.18533,0.22652 c 0.65194,0.12458 1.29011,0.24422 1.41817,0.26587 l 0.23283,0.0393 v -0.11036 c 0,-0.4821 -1.13252,-1.5712 -3.06644,-2.94888 -0.80477,-0.5733 -1.6823,-1.2539 -1.95006,-1.51243 l -0.48683,-0.47007 v -0.22039 -0.22039 l 0.39496,0.11886 c 0.9372,0.28206 0.28576,-2.8727 -1.08787,-5.26834 -0.62936,-1.0976 -0.8552,-1.63251 -0.89814,-2.12726 l -0.0386,-0.4445 h 0.13028 c 0.0716,0 0.27323,0.20002 0.44795,0.4445 0.71728,1.00363 0.88849,1.13171 2.99874,2.2434 0.44239,0.23305 0.97579,0.51902 1.18534,0.63548 0.96082,0.53402 2.51612,0.91338 4.41439,1.07672 l 1.07005,0.0921 0.83495,0.28122 c 0.75377,0.25389 2.34275,0.89401 3.32882,1.341 0.20747,0.094 0.87422,0.37939 1.48167,0.63409 1.49093,0.62514 2.54176,1.18694 2.93628,1.56981 l 0.32717,0.31751 v 0.21176 c 0,0.27653 0.0476,0.28876 -1.13412,-0.29139 -2.81351,-1.38125 -9.38845,-2.79885 -12.98127,-2.79885 h -0.54152 l 0.15296,0.26083 c 0.43856,0.74789 2.10969,2.33949 3.99347,3.80341 2.51032,1.95083 3.56754,2.86181 3.56775,3.07426 3e-5,0.0379 -0.70115,-0.29552 -1.55818,-0.74084 -0.85703,-0.44531 -1.58506,-0.80966 -1.61784,-0.80966 -0.25202,0 0.51965,1.37412 2.15315,3.83415 1.37442,2.06987 1.49623,2.25921 2.24499,3.48952 0.7079,1.16317 1.03624,1.84665 1.20944,2.51762 l 0.14721,0.57029 -0.14324,0.14324 -0.14325,0.14324 -0.0557,-0.14518 -0.0557,-0.14519 0.15843,-0.18735 0.15844,-0.18734 -0.19102,0.16176 c -0.10506,0.089 -0.20313,0.14611 -0.21792,0.127 -0.0148,-0.0191 -0.20197,-0.30193 -0.41594,-0.62848 -0.21397,-0.32654 -0.49693,-0.68849 -0.6288,-0.80433 -0.13186,-0.11584 -0.48641,-0.42017 -0.78788,-0.67628 -0.30148,-0.25612 -0.7015,-0.60525 -0.88895,-0.77585 -0.81745,-0.74397 -1.89661,-1.60318 -2.27591,-1.81206 l -0.4111,-0.22638 0.0594,0.20064 c 0.0327,0.11036 0.47143,1.1722 0.97498,2.35965 1.2303,2.90126 1.15499,2.71634 1.53442,3.76766 0.18487,0.51224 0.32067,1.01591 0.3018,1.11927 -0.0189,0.10337 -0.006,0.17052 0.0283,0.14922 0.15987,-0.0988 0.32376,1.15366 0.18051,1.37938 l -0.0685,0.10788 -0.45941,-0.58515 c -0.25268,-0.32183 -0.68493,-0.87511 -0.96055,-1.22951 -0.62939,-0.80927 -0.64589,-0.78455 -0.22389,0.33532 0.39559,1.04976 0.39163,1.02437 0.19586,1.25693 l -0.14817,0.176 0.18874,-0.1597 0.18873,-0.15969 0.042,0.11736 c 0.0231,0.0646 0.26791,0.72696 0.54401,1.47203 0.2761,0.74506 0.48435,1.38324 0.46277,1.41816 -0.1588,0.25698 -0.62329,-0.14576 -1.04114,-0.90273 -0.18895,-0.34229 -0.40052,-0.66962 -0.47016,-0.72742 l -0.12661,-0.10508 0.002,0.15853 c 9.2e-4,0.0872 0.0405,0.42524 0.0879,0.7512 0.10711,0.73618 0.44118,3.27713 0.71798,5.461 0.1151,0.90805 0.22885,1.73673 0.2528,1.8415 l 0.0435,0.1905 h -0.0893 c -0.0491,0 -0.16691,-0.18097 -0.26177,-0.40216 z m -55.89705,-0.14623 c 0.15852,-0.33241 0.21103,-0.35665 0.36658,-0.16923 0.12369,0.14905 0.12728,0.14402 -0.23409,0.3278 l -0.27473,0.13971 z m -3.34571,-0.15558 -0.18411,-0.19598 0.29922,-0.14269 c 0.42697,-0.20361 0.48689,-0.13532 0.27989,0.31899 -0.12077,0.26507 -0.16251,0.26715 -0.395,0.0197 z m 6.92792,-0.18503 -0.1054,-0.127 0.10718,-0.12913 0.10717,-0.12914 0.15689,0.14199 0.1569,0.14199 -0.0947,0.11414 c -0.12199,0.147 -0.1978,0.14403 -0.328,-0.0128 z m -1.63738,-0.24904 c -0.0906,-0.23613 -0.0661,-0.30129 0.11338,-0.30129 0.198,0 0.21284,0.0775 0.0559,0.29203 l -0.11338,0.15506 z m -3.72678,-0.37251 -0.14054,-0.1553 0.15424,-0.13958 0.15424,-0.13959 0.10045,0.10044 c 0.13222,0.13223 0.12717,0.27767 -0.0137,0.39458 l -0.11415,0.0947 z m 1.35111,-0.25793 -0.1397,-0.15436 0.0534,-0.13925 c 0.0701,-0.18276 0.22926,-0.1766 0.40319,0.0156 0.17847,0.19721 0.17601,0.24334 -0.0186,0.34747 l -0.15868,0.0849 z m -3.06046,-0.29985 -0.16549,-0.12265 0.14817,-0.15032 0.14817,-0.15032 0.14514,0.14515 0.14514,0.14514 -0.12783,0.12783 -0.12782,0.12782 z m 32.72525,-1.55115 -1.05607,-1.58749 -0.48304,-0.48983 -0.48304,-0.48983 -0.47416,-0.20969 c -0.63481,-0.28075 -1.42156,-0.38107 -2.50377,-0.31926 l -0.89602,0.0512 -0.13884,-0.0777 -0.13885,-0.0777 1.05906,-1.00177 1.05907,-1.00177 0.26157,0.10835 c 1.94053,0.80379 5.33823,5.18928 5.01579,6.47399 -0.082,0.32661 -0.1038,0.30198 -1.2217,-1.37846 z m -25.34552,1.11705 c -0.0755,-0.19666 -0.0697,-0.2069 0.11712,-0.2069 0.19683,0 0.21955,0.10692 0.0522,0.24579 l -0.11711,0.0972 z m -2.36577,-0.35116 -0.15456,-0.04 0.14651,-0.1619 c 0.19838,-0.2192 0.2896,-0.20352 0.2896,0.0498 0,0.21573 -0.0114,0.22189 -0.28155,0.15207 z m -3.74465,-0.23178 -0.14478,-0.22097 0.1519,-0.16785 0.1519,-0.16785 0.15559,0.14081 c 0.19841,0.17956 0.19658,0.30523 -0.007,0.48957 l -0.16271,0.14725 -0.14478,-0.22096 z m -1.57679,-0.21718 -0.22666,-0.32304 0.15861,-0.14354 0.15861,-0.14354 0.25855,0.1841 c 0.30832,0.21954 0.3224,0.33807 0.068,0.57306 l -0.1905,0.176 z m 49.34762,-1.45995 c -0.15051,-0.15134 -0.47914,-0.52281 -0.7303,-0.8255 -0.88203,-1.06297 -1.44711,-1.47669 -3.17866,-2.32726 l -1.10066,-0.54067 -0.57963,-0.13836 c -0.84541,-0.2018 -0.78651,-0.1361 0.57551,0.64195 1.24146,0.70918 1.36179,0.82411 1.07423,1.02604 l -0.15755,0.11064 -1.42995,-0.0509 -1.42995,-0.0509 -0.67733,-0.14708 c -1.97852,-0.42961 -4.953,-2.5134 -4.953,-3.46985 0,-0.24445 0.13314,-0.35378 0.28119,-0.23091 0.10622,0.0882 2.85589,1.62123 2.90778,1.62123 0.13555,0 -0.0784,-0.38755 -0.66183,-1.19906 -1.019,-1.41726 -1.50655,-2.5919 -1.50989,-3.63774 l -0.001,-0.3918 0.10583,-0.0877 0.10584,-0.0877 0.17012,0.14082 c 0.0936,0.0775 0.34992,0.39415 0.56966,0.70376 0.4591,0.64684 0.75592,0.89349 1.75788,1.46076 0.39582,0.2241 0.92841,0.60339 1.18353,0.84288 0.25513,0.23948 0.36943,0.32389 0.254,0.18756 l -0.20986,-0.24787 0.28729,0.19877 0.28729,0.19876 -0.059,-0.33189 c -0.18173,-1.02251 -0.98199,-2.14151 -2.84104,-3.97257 -0.6619,-0.65193 -1.37368,-1.36703 -1.58172,-1.5891 l -0.37827,-0.40376 0.17528,-0.22284 0.17529,-0.22285 -0.40323,-0.26817 c -0.22178,-0.14749 -0.75257,-0.46669 -1.17953,-0.70932 l -0.7763,-0.44116 -0.47254,-0.51039 -0.47253,-0.51039 v -0.16451 c 0,-0.22741 -0.0524,-0.24733 1.49001,0.5659 l 1.38537,0.7304 -0.0538,0.087 -0.0538,0.087 0.1047,-0.0647 0.10469,-0.0647 -0.23978,-0.25387 c -0.13188,-0.13963 -0.56362,-0.50541 -0.95944,-0.81283 -1.62571,-1.26266 -2.14028,-1.80562 -2.25505,-2.37946 l -0.0571,-0.28552 0.23107,0.058 c 0.12709,0.0319 0.75209,0.28057 1.38891,0.5526 1.2085,0.51624 2.2373,0.81565 3.11464,0.90645 l 0.51747,0.0536 0.0512,-0.0828 0.0512,-0.0828 -1.33067,-0.89572 c -0.73186,-0.49266 -1.88311,-1.26754 -2.55833,-1.72198 -0.67522,-0.45443 -1.24561,-0.84018 -1.26755,-0.85721 -0.0925,-0.0718 0.23326,-0.1886 0.52939,-0.1898 0.40672,-0.002 1.1339,0.24327 2.16818,0.73026 0.44751,0.2107 1.328,0.56581 1.95665,0.78913 2.20696,0.784 2.83844,1.00069 3.07511,1.0552 l 0.23878,0.055 -0.0772,-0.13796 c -0.32999,-0.58967 -3.02353,-3.19348 -4.25268,-4.11102 -2.03072,-1.5159 -2.8622,-1.99862 -4.33791,-2.51841 -1.40444,-0.4947 -1.56749,-0.68949 -0.57711,-0.68949 1.61506,0 6.12749,1.35863 8.52527,2.56684 0.70523,0.35535 2.51509,1.48219 2.5563,1.59158 0.0155,0.0412 0.0747,0.0749 0.13156,0.0749 0.18824,0 3.95978,2.55634 4.47572,3.03363 0.50209,0.46447 0.29342,0.45996 -1.12011,-0.0242 l -1.10138,-0.37726 0.1297,0.19795 c 0.12701,0.19384 0.53223,0.53092 1.72022,1.43094 0.83327,0.63129 1.42662,1.18553 1.91033,1.78442 l 0.41692,0.5162 0.78162,1.60866 c 0.85921,1.76835 1.42249,3.07638 1.51646,3.52146 l 0.0609,0.28855 -0.0826,-0.0847 c -0.0454,-0.0466 -0.42375,-0.48472 -0.84067,-0.97367 -2.40554,-2.82119 -4.76204,-4.30755 -7.51887,-4.74253 l -0.59266,-0.0935 -0.42334,0.0579 c -0.5375,0.0735 -0.77676,0.16505 -1.12461,0.43036 l -0.27869,0.21257 1.25199,0.42371 c 2.40238,0.81305 4.21616,1.7406 5.51761,2.82166 0.98419,0.81753 3.73537,3.51549 3.73537,3.66311 v 0.10543 h -0.21504 c -0.2887,0 -0.74795,-0.24344 -1.58542,-0.84041 -0.73856,-0.52646 -0.91912,-0.61586 -2.15354,-1.06632 -0.80429,-0.2935 -2.19234,-0.61116 -2.28139,-0.5221 -0.0915,0.0915 0.36718,0.7695 1.14439,1.69149 1.23719,1.46764 1.9377,2.56419 1.75489,2.747 -0.0467,0.0467 -1.47882,-0.831 -3.66287,-2.24497 -0.98062,-0.63486 -0.72027,-0.092 0.98103,2.04554 1.94237,2.44045 2.63945,3.42189 3.05636,4.30316 l 0.25212,0.53294 7e-5,0.35984 7e-5,0.35983 h -0.0889 c -0.0489,0 -0.212,-0.12383 -0.36251,-0.27517 z m -11.52363,-14.732 0.24867,-0.27517 -0.27516,0.24868 c -0.2565,0.2318 -0.31409,0.30166 -0.24868,0.30166 0.0146,0 0.1384,-0.12383 0.27517,-0.27517 z m 0.67733,-0.67733 0.24868,-0.27517 -0.27517,0.24868 c -0.2565,0.23179 -0.31409,0.30165 -0.24868,0.30165 0.0146,0 0.1384,-0.12382 0.27517,-0.27516 z m 1.35467,-1.35467 0.24867,-0.27517 -0.27516,0.24868 c -0.2565,0.2318 -0.31409,0.30166 -0.24868,0.30166 0.0146,0 0.1384,-0.12383 0.27517,-0.27517 z m 0.71434,-0.6985 c 0.15797,-0.16298 0.26817,-0.29633 0.24488,-0.29633 -0.0233,0 -0.17158,0.13335 -0.32955,0.29633 -0.15797,0.16298 -0.26817,0.29633 -0.24488,0.29633 0.0233,0 0.17158,-0.13335 0.32955,-0.29633 z m 1.99499,-2.01083 0.24868,-0.27517 -0.27517,0.24868 c -0.2565,0.23179 -0.31409,0.30165 -0.24868,0.30165 0.0146,0 0.1384,-0.12382 0.27517,-0.27516 z m 0.67733,-0.67734 0.24868,-0.27516 -0.27517,0.24867 c -0.25649,0.2318 -0.31408,0.30166 -0.24867,0.30166 0.0146,0 0.13839,-0.12382 0.27516,-0.27517 z m 38.08301,20.27767 c 0.0231,-0.0815 0.10909,-0.72761 0.19099,-1.43581 l 0.14889,-1.28765 -0.0949,-1.54868 -0.095,-1.54869 -0.13591,-0.508 c -0.17783,-0.66462 -0.5403,-1.38555 -1.06002,-2.10836 -0.2311,-0.3214 -0.67239,-1.08214 -0.98065,-1.69055 l -0.56046,-1.1062 0.17815,-0.0795 0.17816,-0.0795 0.32886,0.0985 c 0.87326,0.26164 2.185,1.89883 3.04647,3.80232 l 0.27822,0.61474 0.0854,0.61292 0.0854,0.61292 -0.0984,1.22767 c -0.20732,2.58572 -0.82018,4.572 -1.41068,4.572 h -0.12666 z m -76.34811,-0.40487 0.14046,-0.21437 0.16591,0.15014 0.16591,0.15014 -0.19859,0.0558 c -0.10922,0.0307 -0.24708,0.0596 -0.30636,0.0642 l -0.10779,0.008 z m 32.50245,-1.3531 c -3.3171,-0.63166 -6.81908,-2.15098 -8.86928,-3.84791 -0.058,-0.048 -0.41019,-0.33461 -0.78273,-0.63697 -0.37253,-0.30235 -0.8179,-0.66927 -0.98971,-0.81536 l -0.31239,-0.26562 -0.19561,0.22128 -0.19562,0.22127 -0.71967,-0.68669 c -0.39581,-0.37768 -1.10536,-1.06705 -1.57678,-1.53192 l -0.85712,-0.84522 -0.22468,0.14722 -0.22468,0.14721 -0.6962,-0.46958 c -0.78003,-0.52613 -0.99685,-0.62582 -2.26254,-1.04024 -0.90095,-0.29501 -1.00671,-0.34728 -2.66907,-1.3192 -1.30199,-0.76122 -1.64496,-1.00974 -2.13808,-1.54929 l -0.43022,-0.47074 -0.179,-0.47842 c -0.2209,-0.59041 -0.32058,-1.0865 -0.36735,-1.82818 l -0.036,-0.5715 h 0.0872 c 0.048,0 0.60492,0.53029 1.23771,1.17842 l 1.15052,1.17842 0.54926,0.27228 0.54926,0.27227 0.53024,0.0426 0.53024,0.0426 v -0.0857 c 0,-0.0471 -0.25205,-0.56993 -0.56012,-1.16174 l -0.56011,-1.07604 0.0883,-0.0883 0.0883,-0.0883 1.38196,0.68195 c 0.76007,0.37508 1.6677,0.78286 2.01695,0.90619 l 0.635,0.22422 0.74084,0.0485 c 1.00082,0.0655 0.99833,0.0584 -0.28655,-0.82172 -0.40207,-0.2754 -0.84974,-0.64473 -0.99483,-0.82075 l -0.26379,-0.32002 v -0.23471 -0.23471 h 0.20834 c 0.11458,0 0.72388,0.11527 1.354,0.25615 l 1.14566,0.25616 1.32864,-0.0233 1.32864,-0.0233 -0.7988,-0.58825 c -0.43935,-0.32353 -1.02839,-0.81997 -1.30899,-1.10319 l -0.51018,-0.51494 -0.10817,-0.36105 c -0.23765,-0.79318 -0.0205,-0.8531 0.99062,-0.2733 0.85823,0.49214 1.29312,0.61573 2.04291,0.58055 l 0.55033,-0.0258 -1.20443,-1.22922 -1.20444,-1.22921 -0.78523,-0.41275 c -0.43188,-0.22701 -0.83466,-0.45155 -0.89507,-0.49898 l -0.10984,-0.0862 0.10984,-0.0697 c 0.0604,-0.0383 0.32898,-0.0703 0.59683,-0.071 l 0.48699,-0.001 0.69834,0.24218 c 0.76145,0.26406 2.0446,0.87951 2.29473,1.10064 0.0864,0.0764 0.18163,0.13884 0.21167,0.13884 0.03,0 0.0455,0.0272 0.0345,0.0605 -0.0111,0.0332 0.0287,0.0417 0.0885,0.0188 0.11462,-0.044 2.56824,1.42962 3.36069,2.01837 0.79179,0.58826 2.45533,2.36984 2.45533,2.62954 0,0.0933 -0.51626,0.12137 -0.85162,0.0463 l -0.37604,-0.0842 -0.25268,-0.22791 -0.25267,-0.22792 0.14628,0.17539 0.14629,0.17539 -0.61328,-0.2069 c -0.3373,-0.1138 -0.8514,-0.22651 -1.14244,-0.25048 l -0.52917,-0.0436 v 0.60698 0.60698 l 0.11641,0.2786 c 0.16393,0.39234 0.56989,0.83102 1.40544,1.51871 1.4679,1.20815 1.69343,1.48843 1.34687,1.67391 l -0.17929,0.096 -0.8408,-0.103 c -1.09275,-0.13386 -1.09901,-0.1777 0.14737,1.03113 0.59256,0.57471 1.1651,1.14018 1.27232,1.25659 0.7928,0.86088 0.9883,1.11345 1.21062,1.56409 0.13845,0.28064 0.27621,0.63407 0.30613,0.78541 l 0.0544,0.27517 h -0.0983 c -0.0881,0 -2.24765,-0.82197 -2.66686,-1.01507 -0.94436,-0.43503 -0.95484,-0.41588 -0.30717,0.5613 1.01409,1.53004 2.40327,2.81994 4.69517,4.35961 3.14783,2.11468 3.36568,2.37768 1.70801,2.06202 z m -8.46135,-4.29569 0.24868,-0.27517 -0.27517,0.24867 c -0.25649,0.2318 -0.31408,0.30166 -0.24867,0.30166 0.0146,0 0.13839,-0.12382 0.27516,-0.27516 z m 0.67734,-0.67734 0.24867,-0.27516 -0.27517,0.24867 c -0.25649,0.2318 -0.31408,0.30166 -0.24867,0.30166 0.0146,0 0.1384,-0.12383 0.27517,-0.27517 z m 0.67733,-0.67733 0.24867,-0.27517 -0.27516,0.24868 c -0.2565,0.23179 -0.31409,0.30166 -0.24868,0.30166 0.0146,0 0.1384,-0.12383 0.27517,-0.27517 z m 2.032,-2.032 0.24867,-0.27517 -0.27516,0.24868 c -0.2565,0.23179 -0.31409,0.30166 -0.24868,0.30166 0.0146,0 0.1384,-0.12383 0.27517,-0.27517 z m -32.16649,6.55394 -0.14054,-0.15529 0.15424,-0.13959 0.15424,-0.13958 0.10045,0.10044 c 0.13222,0.13222 0.12717,0.27766 -0.0137,0.39458 l -0.11415,0.0947 z m 1.2649,-0.99923 c -0.0693,-0.18059 -0.0395,-0.20324 0.18891,-0.14351 l 0.18859,0.0493 -0.0968,0.11665 c -0.12805,0.15429 -0.21555,0.14729 -0.28068,-0.0225 z m -3.68535,-1.34823 c 0.0545,-0.0657 0.13248,-0.0988 0.17324,-0.0736 0.0408,0.0252 0.0529,-0.009 0.027,-0.077 -0.0259,-0.0676 -0.004,-0.14947 0.0486,-0.18202 l 0.0958,-0.0592 0.16719,0.1513 0.16719,0.15131 -0.10902,0.0606 c -0.06,0.0333 -0.23505,0.0803 -0.38907,0.10437 l -0.28005,0.0438 z m 2.8078,-8.49008 -0.10848,-0.0688 0.0661,-0.16271 c 0.12013,-0.29548 0.79949,-1.3057 0.87807,-1.3057 0.0424,0 0.0771,-0.0377 0.0771,-0.0838 0,-0.0461 0.41539,-0.63044 0.92308,-1.29859 1.99984,-2.63188 2.24007,-3.14503 3.77217,-8.05797 0.52068,-1.66962 0.78191,-2.27249 1.68759,-3.89467 1.30551,-2.33829 2.06453,-4.07214 2.20532,-5.03766 l 0.0556,-0.381 -0.10969,0.1329 c -0.0603,0.0731 -0.42628,0.53616 -0.81322,1.02904 l -0.70353,0.89614 -0.37597,0.0299 -0.37597,0.0299 v -0.6047 -0.60471 l 0.20625,-0.13514 c 0.3194,-0.20928 0.89369,-1.06933 1.70362,-2.55133 0.93377,-1.7086 1.00263,-1.80825 2.48639,-3.59834 2.02617,-2.44447 2.49482,-2.87446 4.83574,-4.43676 1.88603,-1.25873 1.87919,-1.25481 4.21567,-2.41823 3.36671,-1.67641 6.98536,-3.19435 7.73952,-3.24654 0.12823,-0.009 0.23406,-0.0542 0.23519,-0.1008 10e-4,-0.0466 0.0722,0.007 0.15799,0.11815 l 0.15594,0.20282 -0.0425,1.33057 c -0.0234,0.73181 -0.0164,1.46959 0.0155,1.63952 l 0.058,0.30896 0.16288,-0.0872 c 0.24991,-0.13375 0.7285,-0.65421 1.02163,-1.11102 l 0.26407,-0.41151 0.0891,0.0551 0.0891,0.0551 -0.0556,-0.0899 c -0.0306,-0.0494 0.0963,-0.3579 0.28191,-0.68545 0.18561,-0.32754 0.56888,-1.08355 0.85171,-1.68001 0.63752,-1.34443 0.60207,-1.26657 0.99479,-2.18513 0.90627,-2.11969 3.56151,-5.93807 4.46266,-6.41754 l 0.33866,-0.1802 0.55034,-0.002 0.55033,-0.002 0.42333,0.20421 0.42334,0.20421 0.76937,0.76864 0.76937,0.76864 0.60618,0.92278 c 1.38444,2.10756 2.92521,5.68699 3.04132,7.06543 l 0.0453,0.53754 -0.18392,-0.11421 c -0.25095,-0.15582 -0.48655,-0.67045 -0.73725,-1.61036 l -0.21067,-0.78985 -0.41394,-0.71967 c -0.22767,-0.39582 -0.59765,-1.05881 -0.82218,-1.47332 -0.69962,-1.2916 -2.44708,-3.68634 -3.15351,-4.32161 l -0.18304,-0.1646 -0.76449,-0.0366 -0.76449,-0.0366 -0.29919,0.28581 c -1.6251,1.55243 -3.24311,4.92355 -3.88612,8.09671 l -0.21866,1.07911 -0.0567,1.46869 c -0.0312,0.80778 -0.0281,1.48631 0.007,1.50783 0.0712,0.0439 0.0891,1.46848 0.0184,1.46848 -0.41047,0 -0.94267,-0.52859 -1.22988,-1.22151 -0.23778,-0.5737 -0.26763,-0.57799 -0.48427,-0.0697 -0.27919,0.65508 -0.35978,1.03182 -0.41464,1.93824 l -0.052,0.85874 0.19357,0.27185 0.19358,0.27185 -0.11783,0.0768 c -0.14515,0.0945 -0.42429,0.0349 -0.92217,-0.197 l -0.381,-0.17748 -0.762,-0.77408 -0.762,-0.77408 -0.32351,-0.58864 c -0.17794,-0.32376 -0.36335,-0.76049 -0.41203,-0.97051 l -0.0885,-0.38187 0.22513,-1.43847 c 0.12383,-0.79115 0.239,-1.50514 0.25593,-1.58663 l 0.0308,-0.14817 h -0.18995 c -0.82871,0 -3.30155,1.06085 -5.04596,2.16471 -4.31629,2.73136 -8.21344,6.53026 -10.28663,10.02729 -0.17944,0.30269 -0.34763,0.56939 -0.37376,0.59267 -0.0588,0.0524 -0.65302,1.25328 -1.11648,2.25627 -0.74855,1.61996 -1.26146,3.32312 -1.43704,4.77182 l -0.1033,0.85232 0.10662,1.59305 c 0.12957,1.93581 0.12934,1.69554 0.004,4.5164 l -0.10233,2.30847 -0.25348,0.52318 -0.25348,0.52319 -0.1227,-0.0471 -0.12269,-0.0471 0.0459,-0.2221 c 0.0253,-0.12215 0.10499,-0.71123 0.17717,-1.30907 l 0.13123,-1.08697 -0.0895,-0.64869 -0.0895,-0.6487 -0.2085,-0.42801 c -0.11467,-0.23541 -0.30358,-0.51735 -0.4198,-0.62654 l -0.21132,-0.19852 -0.35996,0.23822 c -0.74892,0.49561 -1.99128,2.14197 -3.32145,4.40152 -2.08466,3.54119 -3.10737,4.94371 -3.83441,5.25841 -0.31739,0.13737 -0.29014,0.13442 -0.4287,0.0465 z m 30.79446,-6.72307 c -0.0999,-0.10477 -0.41928,-0.55455 -0.70976,-0.99951 l -0.52814,-0.80901 -0.37304,-0.30322 c -1.12905,-0.91774 -2.59329,-1.54125 -4.60637,-1.96149 -0.79164,-0.16526 -1.59174,-0.35295 -1.778,-0.41708 l -0.33867,-0.11661 -0.14319,-0.28946 c -0.0788,-0.1592 -0.38189,-0.78249 -0.67364,-1.3851 l -0.53045,-1.09565 -0.63869,-0.64455 -0.6387,-0.64455 -0.381,-0.18234 c -0.20955,-0.10029 -0.60807,-0.24112 -0.88562,-0.31297 l -0.50462,-0.13063 -0.72304,0.001 c -0.88979,0.002 -1.66546,0.15989 -2.3847,0.48601 l -0.54796,0.24846 -0.54729,0.51196 c -0.30102,0.28158 -0.73608,0.79227 -0.96681,1.13487 -0.59522,0.8838 -0.96947,1.34256 -1.09524,1.34256 h -0.10862 l -0.10312,-1.12184 -0.10311,-1.12183 0.0928,-1.12498 c 0.19108,-2.31705 0.71896,-4.23433 1.71833,-6.24102 0.78574,-1.57774 4.29669,-6.05367 4.74854,-6.05367 0.0747,0 -0.0495,0.37888 -0.49952,1.524 -0.49402,1.25704 -0.6565,1.9393 -0.61498,2.58234 l 0.0273,0.42333 0.33866,-0.53715 c 0.18627,-0.29543 0.52917,-0.83822 0.762,-1.2062 0.23284,-0.36797 0.53764,-0.86118 0.67734,-1.096 0.1397,-0.23483 0.59307,-0.94934 1.00748,-1.5878 l 0.75349,-1.16085 0.68584,-0.6689 c 1.5884,-1.54915 3.94362,-3.18343 4.58774,-3.18343 h 0.12939 l -0.0224,1.8415 -0.0224,1.8415 0.19973,0.508 c 0.53435,1.35905 1.65475,2.4815 3.79679,3.80369 0.19963,0.12322 0.34052,0.26034 0.3131,0.3047 l -0.0498,0.0807 0.12388,-0.0475 0.12388,-0.0475 0.34619,0.22909 c 0.54928,0.3635 0.27968,0.58251 -0.46159,0.37496 -0.40308,-0.11285 -0.43805,-0.15541 -0.27173,-0.33072 l 0.10583,-0.11156 -0.17138,0.10305 -0.17138,0.10305 -0.51643,-0.26242 c -0.74651,-0.37936 -0.76673,-0.35559 -0.36693,0.43117 0.14056,0.27659 0.22992,0.54437 0.19859,0.59506 l -0.057,0.0922 0.10214,-0.0631 0.10214,-0.0631 0.44011,0.44195 c 0.45468,0.45657 1.04469,0.91166 2.42978,1.87415 0.945,0.65668 1.27,0.94439 1.27,1.12427 v 0.13105 h -0.45241 -0.45242 l -0.48045,-0.1653 c -0.26426,-0.0909 -1.11064,-0.47175 -1.88085,-0.84629 -0.77021,-0.37455 -1.49342,-0.70434 -1.60713,-0.73288 l -0.20674,-0.0519 v 0.17534 c 0,0.0964 0.078,0.38391 0.17342,0.63884 l 0.17342,0.46351 0.48677,0.44983 c 0.26772,0.24741 0.80034,0.62129 1.18361,0.83084 2.68928,1.47037 8.9504,5.35045 10.50822,6.51206 0.34637,0.25827 0.87977,0.71699 1.18533,1.01937 l 0.55556,0.54978 -0.31924,0.0286 -0.31925,0.0286 -0.46958,-0.26867 c -0.25827,-0.14777 -0.92633,-0.6273 -1.48458,-1.06563 -1.71766,-1.34869 -4.63214,-2.64803 -5.54523,-2.47219 l -0.14792,0.0285 1.07822,0.96051 1.07822,0.96051 0.28975,0.43644 c 0.63818,0.96126 0.48908,1.20797 -0.38339,0.63439 -0.34925,-0.2296 -1.0922,-0.64545 -1.651,-0.9241 l -1.016,-0.50664 -0.58652,-0.12015 c -0.81671,-0.1673 -0.83489,-0.0992 -0.14491,0.54329 l 0.60443,0.5628 v 0.26477 0.26477 l -0.31738,-0.0876 c -0.17457,-0.0482 -0.68845,-0.27384 -1.14196,-0.50142 -0.45351,-0.22759 -1.10798,-0.50893 -1.45438,-0.62521 l -0.6298,-0.21142 h -1.17845 -1.17845 l -0.14591,0.16122 -0.1459,0.16123 0.10563,0.15627 c 0.0581,0.086 0.39407,0.41994 0.74661,0.74219 0.8711,0.79624 1.50843,1.59787 1.97713,2.4868 0.94241,1.78739 1.33483,3.42638 0.64784,2.70579 z m -17.46879,-0.48855 c -0.58123,-1.45265 0.81667,-4.11119 2.63161,-5.00479 l 0.4072,-0.20049 h 0.89464 0.89465 l 0.62935,0.32863 c 2.01465,1.05198 2.29743,1.5234 1.52379,2.54021 -1.00333,1.31871 -1.73935,2.00628 -2.51296,2.34755 l -0.41347,0.1824 -0.635,0.007 c -0.34925,0.004 -1.00115,-0.0256 -1.44866,-0.0656 l -0.81366,-0.0726 -0.40792,0.13899 c -0.5638,0.1921 -0.59553,0.18358 -0.74957,-0.20139 z m 4.2398,-1.44325 c 0.3017,-0.11432 0.59871,-0.38943 0.76441,-0.70805 l 0.12899,-0.24802 0.0111,-0.54119 0.0111,-0.54119 -0.34912,-0.32569 -0.34911,-0.32568 -0.32822,-0.0911 c -1.15369,-0.32034 -1.91172,0.16893 -2.1515,1.38868 l -0.0664,0.33776 0.29694,0.40452 c 0.47813,0.65134 1.31853,0.9202 2.03172,0.64999 z m -1.00802,-1.07048 -0.39969,-0.40635 0.30106,-0.3806 c 0.16559,-0.20933 0.31767,-0.39728 0.33797,-0.41765 0.35383,-0.35524 0.81507,0.85512 0.47533,1.24733 l -0.31497,0.36361 z m 30.12988,0.2055 c -0.0267,-0.10631 -0.0712,-0.57303 -0.0989,-1.03717 -0.15819,-2.64915 -0.81403,-3.9686 -2.6664,-5.3644 -0.83461,-0.6289 -1.56604,-0.99077 -2.32688,-1.15122 l -0.59267,-0.12499 -1.143,-0.003 -1.143,-0.003 -0.5476,-0.12907 c -0.30118,-0.071 -0.90052,-0.30423 -1.33186,-0.51832 l -0.78425,-0.38925 -0.493,-0.44613 -0.49299,-0.44614 -0.087,-0.28361 -0.087,-0.28362 0.0774,-0.23234 c 0.10331,-0.30991 0.12113,-0.30502 0.8837,0.24227 0.78511,0.56346 1.09926,0.73083 1.71384,0.91304 l 0.45987,0.13634 h 0.82192 0.82192 l 0.19988,-0.16818 0.19988,-0.16818 -0.21167,-0.17028 c -0.24314,-0.1956 -3.53903,-1.87735 -4.48733,-2.28969 -0.94451,-0.41068 -1.61366,-0.86629 -2.22655,-1.51598 l -0.54853,-0.58147 -0.28463,-0.57775 -0.28463,-0.57775 -0.0289,-1.29796 -0.0289,-1.29796 0.22222,-0.45419 c 0.22895,-0.46796 0.76292,-1.06061 0.95559,-1.06061 h 0.10904 l -0.0578,0.48683 c -0.0318,0.26776 -0.0607,0.88688 -0.0642,1.37583 l -0.006,0.889 0.20072,0.48779 0.20072,0.48779 0.22262,0.0625 c 0.12243,0.0344 0.47026,0.0625 0.77294,0.0623 l 0.55034,-2.6e-4 0.508,-0.25109 0.508,-0.25108 0.63666,-0.63768 c 2.01036,-2.01357 3.37159,-5.84216 2.96339,-8.33483 l -0.0819,-0.50049 -0.20694,-0.3127 -0.20694,-0.3127 -0.85694,-0.36592 -0.85695,-0.36591 0.0255,-0.13259 c 0.0141,-0.0729 0.12452,-0.18003 0.24551,-0.23801 l 0.21996,-0.10543 0.42027,0.12481 c 0.49749,0.14773 1.25877,0.6265 1.84539,1.16056 l 0.42166,0.38387 -0.12533,0.15916 -0.12532,0.15919 0.13973,-0.10921 0.13974,-0.1092 0.30063,0.36688 c 0.16535,0.20178 0.43448,0.65098 0.59807,0.9982 l 0.29745,0.63133 0.0828,0.55033 c 0.0455,0.30268 0.10715,1.08373 0.13692,1.73567 0.0298,0.65193 0.10895,1.54728 0.17597,1.98966 l 0.12185,0.80434 0.34231,0.71966 c 0.18827,0.39582 0.51133,0.99155 0.71791,1.32385 0.20658,0.3323 0.37561,0.643 0.37561,0.69045 v 0.0863 l -0.35984,-0.0385 c -0.19791,-0.0212 -0.66116,-0.0747 -1.02946,-0.11894 -0.3683,-0.0442 -0.78316,-0.0804 -0.92193,-0.0804 h -0.25229 l 0.0442,0.48694 c 0.0894,0.98636 0.70319,2.09348 1.68405,3.03779 l 0.6271,0.60374 0.67561,0.14435 c 0.37158,0.0794 0.74228,0.16271 0.82377,0.18514 0.20726,0.0571 0.18476,0.33281 -0.04,0.49024 l -0.18818,0.1318 -0.51032,-0.004 c -0.28068,-0.002 -0.67226,-0.035 -0.87016,-0.0733 l -0.35984,-0.0696 v 0.076 c 0,0.0418 0.53465,0.66149 1.18812,1.37711 2.61521,2.86393 2.881,3.30249 3.34028,5.51162 l 0.14031,0.67487 0.002,0.97836 c 0.003,1.49374 -0.36756,2.44077 -0.95704,2.44875 l -0.13899,0.002 z m -6.57385,-24.91039 c 0.15797,-0.16298 0.26817,-0.29633 0.24489,-0.29633 -0.0233,0 -0.17159,0.13335 -0.32955,0.29633 -0.15797,0.16299 -0.26817,0.29634 -0.24489,0.29634 0.0233,0 0.17158,-0.13335 0.32955,-0.29634 z m 26.40796,16.96474 c -0.29826,-0.19227 -0.71374,-0.49053 -0.92329,-0.66278 -1.40613,-1.15587 -2.24686,-1.48337 -5.41867,-2.11079 -4.50357,-0.89087 -5.97476,-1.99778 -7.15827,-5.38583 -0.91374,-2.61576 -1.27317,-3.13246 -3.42506,-4.92366 -0.39582,-0.32947 -0.7916,-0.6797 -0.87952,-0.77827 l -0.15985,-0.17923 0.11419,-0.13759 0.11419,-0.13759 0.35944,0.0405 c 0.61669,0.0695 1.58952,0.66297 3.52301,2.14917 2.80444,2.15566 4.31012,3.10853 5.34922,3.38526 l 0.42699,0.11371 0.80433,-6.8e-4 c 1.0954,-9.1e-4 1.90477,-0.12864 2.42796,-0.38315 l 0.4383,-0.21321 0.81171,-0.76821 0.81171,-0.7682 0.12583,0.10443 0.12582,0.10443 v 0.27244 c 0,0.14984 -0.11738,0.50734 -0.26085,0.79444 l -0.26084,0.52201 -0.56641,0.58467 -0.5664,0.58466 -0.4767,0.21082 c -0.26219,0.11596 -0.56145,0.23772 -0.66502,0.27059 l -0.18832,0.0598 0.0666,-0.1149 c 0.0366,-0.0632 -0.0253,-0.0358 -0.13756,0.0609 -0.21839,0.18803 -1.51178,0.58895 -2.27849,0.70627 l -0.46566,0.0713 -0.46567,-0.0683 c -0.25612,-0.0376 -0.57997,-0.0696 -0.71967,-0.0711 l -0.254,-0.003 0.24157,0.13089 c 0.29501,0.15984 1.49846,0.66969 3.35677,1.42211 0.76835,0.3111 2.159,0.94404 3.09033,1.40653 l 1.69333,0.84088 0.75983,0.5729 c 0.83153,0.62698 1.25555,1.1185 1.41022,1.63474 l 0.10042,0.33517 -0.10147,0.33866 c -0.12484,0.41671 -0.11651,0.41683 -0.78004,-0.0109 z m -2.82296,-10.0009 0.24867,-0.27517 -0.27517,0.24867 c -0.25649,0.2318 -0.31408,0.30166 -0.24867,0.30166 0.0146,0 0.1384,-0.12382 0.27517,-0.27516 z m -14.97473,8.84818 c -0.26295,-0.38218 -0.36693,-0.64746 -0.53897,-1.3751 l -0.13042,-0.55158 -0.042,-2.43336 -0.042,-2.43337 -0.18343,0.27437 c -0.10088,0.15089 -0.34941,0.56011 -0.55227,0.90936 -0.88908,1.53062 -1.73044,2.54 -2.11721,2.54 -0.31232,0 -0.27138,-0.16281 0.22837,-0.90799 1.10831,-1.65262 1.52528,-2.70193 1.89336,-4.76468 l 0.11331,-0.635 -0.004,-1.94733 -0.004,-1.94734 -0.18947,-0.87685 c -0.40084,-1.85505 -1.32533,-4.0829 -2.30631,-5.55781 l -0.45051,-0.67734 -0.87188,-0.8731 -0.87189,-0.8731 v -0.2064 -0.2064 h 0.19283 c 1.05418,0 3.36319,3.58218 4.91173,7.62 l 0.47082,1.22767 0.17492,0.91068 0.17491,0.91068 0.0864,2.33374 c 0.0475,1.28355 0.14308,2.73775 0.2124,3.23155 l 0.12603,0.89783 v 1.44916 1.44916 l 0.13419,0.96524 0.1342,0.96525 -0.0537,0.35793 c -0.0295,0.19686 -0.10361,0.39938 -0.16465,0.45004 l -0.11098,0.0921 z m -47.34406,-4.1684 c -0.0281,-0.0455 -0.0122,-0.22646 0.0353,-0.40216 l 0.0865,-0.31946 0.39051,-0.44558 c 0.46957,-0.53579 1.23589,-1.09586 2.04985,-1.49812 l 0.5996,-0.29634 1.50885,-0.257 c 1.7293,-0.29455 2.11275,-0.42868 2.90524,-1.01617 0.67824,-0.5028 0.65625,-0.49851 0.72329,-0.14114 l 0.053,0.28265 -0.12142,0.29058 c -0.0668,0.15982 -0.31263,0.49855 -0.54634,0.75272 l -0.42494,0.46213 -0.159,-0.12111 -0.15901,-0.12112 0.10583,0.11869 c 0.0582,0.0653 0.10583,0.14575 0.10583,0.17882 0,0.0859 -1.04437,0.73397 -1.5112,0.93775 -0.6888,0.30066 -0.87455,0.33416 -2.21413,0.3994 l -1.31233,0.0639 -0.43112,0.18847 -0.43111,0.18847 -0.41237,0.41866 -0.41237,0.41867 h -0.18869 c -0.10377,0 -0.21169,-0.0372 -0.2398,-0.0827 z m 2.70482,-4.26824 c -0.68904,-0.13616 -1.41939,-0.47504 -1.02379,-0.47504 1.77763,0 4.39505,-1.26692 5.63274,-2.72643 l 0.51669,-0.60928 -0.002,-0.17365 c -0.002,-0.23255 -0.33409,-1.35013 -0.71557,-2.41087 l -0.31062,-0.86367 0.10773,-0.14289 0.10774,-0.14288 -0.117,0.10414 -0.11699,0.10414 -0.49964,-0.9508 c -0.70711,-1.34563 -1.3536,-2.19234 -3.27948,-4.29515 -0.49046,-0.53551 -1.07819,-1.19128 -1.30608,-1.45725 -0.52109,-0.60818 -0.55698,-0.58014 -0.55698,0.43516 0,2.08593 0.7561,4.25517 2.52532,7.24509 0.79486,1.3433 1.46882,2.61797 1.57801,2.9845 l 0.0568,0.1905 h -0.16191 c -2.0468,0 -4.24889,-5.81727 -4.25148,-11.23113 l -6.9e-4,-1.45214 0.2962,-0.17476 c 0.16291,-0.0961 0.47929,-0.19905 0.70306,-0.22874 l 0.40685,-0.054 0.60303,0.20971 c 0.91173,0.31707 1.90061,1.0233 3.70224,2.64403 0.95618,0.86018 1.37438,1.15643 2.64453,1.87338 l 1.13711,0.64185 -0.15334,0.18172 -0.15335,0.18172 0.176,-0.14817 c 0.2305,-0.19404 0.25619,-0.19112 0.90497,0.10306 0.30472,0.13817 1.30014,0.49764 2.21202,0.79882 0.91189,0.30119 1.87751,0.66399 2.14583,0.80624 l 0.48785,0.25862 3.36462,0.38188 c 1.85053,0.21004 3.39358,0.38269 3.429,0.38368 0.0354,9.9e-4 -0.24042,0.14276 -0.61295,0.31506 l -0.67734,0.31327 -0.67733,0.002 c -0.37253,0.001 -1.03043,-0.029 -1.462,-0.0675 l -0.78467,-0.07 0.0542,0.46076 0.0541,0.46077 -0.0866,0.0535 c -0.0476,0.0294 -0.34151,-0.10132 -0.65304,-0.29058 -0.31153,-0.18926 -0.61539,-0.3629 -0.67525,-0.38587 l -0.10884,-0.0418 -0.0585,0.2332 c -0.0322,0.12826 -0.11207,0.36133 -0.17751,0.51795 l -0.11898,0.28475 -0.38888,-0.22789 -0.38887,-0.2279 -0.0688,0.0748 c -0.0379,0.0412 -0.1168,0.2247 -0.17542,0.40786 l -0.10659,0.33304 -0.32269,-0.37537 c -0.17747,-0.20645 -0.50559,-0.6113 -0.72914,-0.89967 -0.4867,-0.62781 -0.50258,-0.63261 -0.5769,-0.1742 -0.0629,0.38787 -0.35544,1.93168 -0.42519,2.24367 -0.0234,0.10477 -0.0983,0.1905 -0.16636,0.1905 -0.14109,0 -0.13201,0.0337 -0.43268,-1.60867 -0.26651,-1.45579 -0.22406,-1.38347 -0.57835,-0.98524 l -0.28453,0.31982 -0.16054,-0.10026 c -0.1661,-0.10373 -0.22363,-0.19106 -0.84414,-1.28135 -0.43376,-0.76216 -0.93141,-1.30016 -1.5958,-1.72516 -0.60772,-0.38876 -0.59854,-0.40163 -0.33544,0.47019 0.007,0.0233 0.0417,0.11854 0.0771,0.21167 0.0354,0.0931 0.0795,0.21965 0.0982,0.28115 0.0186,0.0615 0.0371,0.72825 0.0411,1.48167 l 0.007,1.36985 -0.10068,0.42333 c -0.14547,0.61163 -0.75726,1.84149 -1.30564,2.62467 l -0.47428,0.67733 0.36193,0.0573 c 0.46007,0.0728 1.34096,0.002 1.88014,-0.15059 l 0.41753,-0.11837 h 1.17269 1.1727 l 0.072,0.1905 c 0.10198,0.26982 0.0462,0.3175 -0.37133,0.3175 -1.03113,0 -2.44774,0.44049 -4.89865,1.5232 l -1.76353,0.77905 -0.16275,-0.0426 c -0.0895,-0.0234 -0.14268,-0.0101 -0.11814,0.0296 0.14524,0.23501 -1.65355,0.32601 -2.63002,0.13306 z m 6.19203,-7.04989 c 0.0653,-0.34818 0.0829,-2.0349 0.0232,-2.23049 -0.35032,-1.14826 -1.44148,-2.36292 -3.88357,-4.3231 -0.48895,-0.39247 -1.08396,-0.88982 -1.32225,-1.10523 l -0.43325,-0.39166 -0.66742,-0.0581 c -0.36708,-0.0319 -0.80077,-0.08 -0.96375,-0.10681 l -0.29633,-0.0487 1.99166,2.02198 1.99167,2.02198 0.46367,0.65912 c 2.6622,3.78446 2.98486,4.15553 3.09639,3.56103 z"
       id="path6963"
       inkscape:connector-curvature="0" />
  </g>
</svg>
