<?xml version="1.0" encoding="UTF-8" standalone="no"?>
<!-- Created with Inkscape (http://www.inkscape.org/) -->

<svg
   xmlns:dc="http://purl.org/dc/elements/1.1/"
   xmlns:cc="http://creativecommons.org/ns#"
   xmlns:rdf="http://www.w3.org/1999/02/22-rdf-syntax-ns#"
   xmlns:svg="http://www.w3.org/2000/svg"
   xmlns="http://www.w3.org/2000/svg"
   xmlns:sodipodi="http://sodipodi.sourceforge.net/DTD/sodipodi-0.dtd"
   xmlns:inkscape="http://www.inkscape.org/namespaces/inkscape"
   width="300.05817mm"
   height="281.83774mm"
   viewBox="0 0 300.05817 281.83773"
   version="1.1"
   id="svg8"
   inkscape:version="0.92.3 (2405546, 2018-03-11)"
   sodipodi:docname="wolf2.svg">
  <defs
     id="defs2" />
  <sodipodi:namedview
     id="base"
     pagecolor="#ffffff"
     bordercolor="#666666"
     borderopacity="1.0"
     inkscape:pageopacity="0.0"
     inkscape:pageshadow="2"
     inkscape:zoom="0.35"
     inkscape:cx="1231.0679"
     inkscape:cy="292.90821"
     inkscape:document-units="mm"
     inkscape:current-layer="layer1"
     showgrid="false"
     inkscape:window-width="1920"
     inkscape:window-height="983"
     inkscape:window-x="0"
     inkscape:window-y="27"
     inkscape:window-maximized="1" />
  <metadata
     id="metadata5">
    <rdf:RDF>
      <cc:Work
         rdf:about="">
        <dc:format>image/svg+xml</dc:format>
        <dc:type
           rdf:resource="http://purl.org/dc/dcmitype/StillImage" />
        <dc:title />
      </cc:Work>
    </rdf:RDF>
  </metadata>
  <g
     inkscape:label="Layer 1"
     inkscape:groupmode="layer"
     id="layer1"
     transform="translate(694.24685,55.505802)">
    <path
       style="fill:#000000;stroke-width:1"
       d="m -645.49497,225.47761 c 0,-1.15556 0.79283,-2.20617 2.38099,-3.15514 0.72775,-0.43485 1.75974,-1.19195 2.29332,-1.68243 l 0.97014,-0.8918 0.006,-2.49164 c 0.003,-1.3704 -0.25838,-4.01498 -0.58106,-5.87684 -0.71785,-4.14197 -0.60043,-4.6542 1.61728,-7.05504 5.57181,-6.03193 8.61427,-19.0839 8.46557,-36.31685 -0.0292,-3.38777 0.0611,-6.6031 0.20073,-7.14518 l 0.25388,-0.9856 2.16274,-1.46124 c 1.1895,-0.80369 3.21787,-2.56519 4.50749,-3.91444 l 2.34475,-2.4532 1.64843,-3.1264 1.64841,-3.12641 1.04703,-4.14439 c 0.57587,-2.27941 1.10939,-4.62064 1.18562,-5.20272 0.0762,-0.58208 0.30524,-2.08546 0.50894,-3.34085 l 0.37037,-2.28251 -0.3316,-0.3316 -0.3316,-0.3316 -0.68381,0.84448 c -0.69332,0.85621 -1.2232,1.85342 -2.31798,4.3623 l -0.60639,1.38966 -0.32126,-0.50771 c -0.17669,-0.27925 -0.32368,-1.18241 -0.32665,-2.00703 -0.0111,-3.09032 -1.48612,-1.18885 -2.69842,3.47865 -0.45438,1.74941 -1.03933,3.48511 -1.29989,3.85711 l -0.47374,0.67636 0.16083,-1.93937 0.16082,-1.93937 -0.50826,0.19504 c -0.27955,0.10727 -1.99831,2.45148 -3.81948,5.20935 l -3.31122,5.01431 -0.29137,-1.3963 c -0.16025,-0.76797 -0.48543,-1.52132 -0.72261,-1.67412 l -0.43123,-0.2778 -3.07174,3.24728 c -3.20346,3.38652 -3.82599,3.72169 -2.93012,1.57755 0.60359,-1.44458 0.67475,-2.64787 0.20088,-3.39682 l -0.32211,-0.50912 -0.84458,0.38482 c -0.46452,0.21165 -1.86495,1.24325 -3.11207,2.29244 -5.68687,4.78434 -6.70703,5.31575 -5.44984,2.83888 l 0.85053,-1.67569 -0.30199,-0.30375 -0.302,-0.30374 -3.38887,1.62666 c -3.99587,1.91802 -3.78267,1.87972 -3.65464,0.65652 l 0.10155,-0.97014 -0.70556,0.12188 c -0.38806,0.067 -1.39569,0.43523 -2.2392,0.81821 -1.71048,0.77662 -2.05623,0.69385 -1.49355,-0.35752 0.72088,-1.34698 1.27818,-1.31476 -9.36397,-0.5414 -1.77042,0.12866 -3.65582,0.12427 -4.18979,-0.01 l -0.97085,-0.24367 0.75021,-0.79856 0.7502,-0.79856 v -1.33395 -1.33395 l -2.19443,0.12197 -2.19444,0.12195 -0.22913,-1.3823 -0.22913,-1.38229 -0.66325,-0.49205 -0.66324,-0.49206 -2.04302,0.11046 -2.04302,0.11046 0.10274,-1.36484 0.10274,-1.36484 -0.52916,-0.29188 c -0.29105,-0.16053 -1.08946,-0.38041 -1.77426,-0.48863 -1.30765,-0.20663 -5.76469,-2.6504 -5.43507,-2.98002 0.10526,-0.10526 0.52618,-0.19614 0.93538,-0.20197 1.84802,-0.0263 0.61086,-1.79969 -3.08598,-4.42348 -0.95927,-0.68084 -1.80122,-1.53435 -1.871,-1.89668 l -0.12687,-0.6588 3.12126,0.2327 c 3.61427,0.26944 6.75026,0.72327 11.29409,1.63442 1.77866,0.35667 4.82884,0.84753 6.77817,1.09081 l 3.54424,0.44232 3.80516,-0.46238 3.80516,-0.46237 2.94236,-1.06169 c 8.97494,-3.2384 17.68123,-10.54831 27.62804,-23.19684 0.83921,-1.06715 1.89684,-2.33715 2.35029,-2.82222 1.06725,-1.14167 1.55007,-2.38318 1.26998,-3.26564 l -0.22312,-0.703 0.47873,-0.30334 c 0.26329,-0.16683 0.97767,-0.30576 1.5875,-0.30873 l 1.10879,-0.005 0.21163,-0.551516 c 0.1164,-0.30333 -0.0301,-1.01887 -0.32543,-1.59009 l -0.53708,-1.03858 2.30346,-1.1003 2.30346,-1.1003 v -0.68096 -0.68096 l -1.85208,-0.83126 -1.85209,-0.83125 1.94028,-0.81497 c 3.05143,-1.28167 5.11578,-2.4598 7.888,-4.50169 l 2.56975,-1.89274 1.31782,-2.00413 1.31783,-2.00412 1.83177,-0.56782 c 2.73032,-0.84636 6.51682,-3.05089 8.51305,-4.95635 l 1.76769,-1.68732 3.36024,-1.69179 c 1.84813,-0.93049 4.70962,-2.63578 6.35885,-3.78954 l 2.99861,-2.09774 2.64584,-0.60398 c 2.51592,-0.57432 3.76757,-0.73663 12.87639,-1.66977 9.77213,-1.00109 15.05029,-2.67554 19.27075,-6.1135 1.07004,-0.87165 2.96624,-2.05673 4.21378,-2.63351 1.24753,-0.57678 3.22075,-1.82243 4.38491,-2.76812 1.16417,-0.94569 2.51355,-1.98324 2.99862,-2.30566 0.48506,-0.32243 2.15194,-1.7173 3.70416,-3.09973 l 2.82222,-2.51349 3.55281,-1.75564 3.5528,-1.75563 2.15668,-0.37989 2.15668,-0.37989 1.99254,-2.60143 c 1.0959,-1.43079 2.53507,-2.93674 3.19816,-3.34655 1.30803,-0.80841 1.50285,-1.41283 0.67645,-2.09868 -0.29104,-0.24154 -0.52917,-0.55346 -0.52917,-0.69314 0,-0.2948 5.87373,-2.14017 6.79097,-2.13354 0.85038,0.006 0.77611,-0.32041 -0.33719,-1.48243 l -0.95454,-0.99634 2.57123,0.0951 2.57122,0.0951 0.87472,-2.29305 0.87472,-2.29306 -0.17394,-0.89224 -0.17394,-0.89224 1.92153,-1.00605 1.92153,-1.00605 1.89976,-2.08468 c 2.64945,-2.90735 4.79171,-7.3882402 4.79171,-10.0226402 v -1.17491 l -2.55764,-0.10365 -2.55764,-0.10365 0.0542,-1.16672 0.0542,-1.16673 0.92544,-1.33541 c 0.50899,-0.73447999 2.67099,-3.11825 4.80442,-5.29727 l 3.87898,-3.96184 1.10405,-2.1790698 c 0.60722,-1.19849 1.22248,-2.65532 1.36725,-3.2374 0.88146,-3.54421 2.28908,-7.75288 3.34008,-9.98661 l 1.21312,-2.57827 2.03606,-2.01771 2.03606,-2.0177 2.46945,-1.29443 2.46944,-1.29442 0.98951,-2.66257 0.98951,-2.66258 2.98985,-4.40694 c 1.64441,-2.42381 3.73913,-5.40347 4.65493,-6.62145 0.9158,-1.21798 2.22072,-3.30068 2.89981,-4.62822 1.79348,-3.50598 7.69966,-1.77619 10.25816,3.00441 l 0.36664,0.68507 -0.90268,3.13764 c -1.63497,5.68307 -0.70985,6.52509 2.81977,2.5665 l 1.4294,-1.60311 1.30463,1.14548 1.30464,1.14549 v 0.8175 c 0,0.44962 -0.73207,3.40973 -1.62683,6.57803 l -1.62683,5.76055 -0.0489,16.40417 c -0.0269,9.0222898 0.0664,16.8135098 0.20726,17.3138198 l 0.25613,0.90966 0.87892,0.40047 c 0.48341,0.22025 1.37054,1.07912 1.97141,1.90859 l 1.09248,1.50814 -0.76731,0.62132 c -0.42202,0.34174 -0.99948,0.62133 -1.28326,0.62133 h -0.51595 l 0.11406,0.61736 0.11406,0.6173702 1.76389,0.88194 1.76389,0.88194 -1.32291,0.1095 -1.32292,0.10948 v 0.86066 c 0,0.47335 0.29353,1.13846 0.65229,1.478 0.35875,0.33955 1.31638,1.23092 2.12805,1.98082 l 1.47576,1.36345 -1.42249,1.09329 c -1.65566,1.2725 -1.7488,1.70569 -0.53741,2.49943 2.02362,1.32592 2.16333,3.19504 0.26534,3.54973 -1.61478,0.30176 -2.20876,0.75349 -2.20876,1.67978 v 0.70302 l 2.46944,2.34073 2.46945,2.34073 v 0.78686 0.78686 l -1.5875,-0.21759 -1.5875,-0.21759 v 0.86636 0.86635 l 1.05833,1.18541 c 0.58208,0.65198 1.05833,1.31557 1.05833,1.47465 0,0.15909 -3.5e-4,0.39377 -10e-4,0.52153 -7e-4,0.12775 -0.75469,0.24682 -1.67569,0.26458 l -1.67464,0.0323 -0.10974,0.77093 -0.10974,0.77094 1.25627,1.82629 c 1.4929,2.17029 1.52958,2.55518 0.37432,3.92812 l -0.88194,1.04813 v 2.76591 2.76591 l -0.70556,1.64601 c -0.9389,2.19038 -0.90983,2.49982 0.5458,5.81053 1.4915,3.39227 1.06625,4.60152 -1.0542,2.9977 -0.37663,-0.28487 -1.05132,-0.51795 -1.4993,-0.51795 h -0.81452 l -0.0556,1.14653 c -0.0306,0.63059 -0.0428,1.37746 -0.0272,1.65972 0.0156,0.28225 0.1413,2.94132 0.27926,5.90903 l 0.25085,5.39583 h -0.53496 c -0.29423,0 -1.16996,-0.635 -1.94607,-1.41111 -1.69327,-1.69326 -1.98134,-1.73157 -2.5577,-0.34011 l -0.44362,1.07101 0.19537,1.83941 c 0.10746,1.01168 0.30482,2.11723 0.43857,2.45678 l 0.24319,0.61736 h -0.88314 -0.88315 l -1.12212,1.27803 -1.12214,1.27804 0.11545,2.42404 0.11544,2.42404 -1.33193,0.53201 -1.33193,0.53201 -0.30829,0.81085 c -0.16956,0.44597 -0.23357,1.20174 -0.14224,1.67949 l 0.16605,0.86862 -1.65592,-0.13169 -1.65593,-0.13171 -0.30409,0.47994 c -0.16724,0.26397 -0.30651,1.66263 -0.30948,3.10813 l -0.005,2.6282 -0.44097,-0.43889 c -0.24254,-0.24138 -0.61031,-0.93719 -0.81728,-1.54625 -0.43641,-1.28423 -1.22322,-1.89 -2.04519,-1.57458 l -0.57712,0.22146 v 2.69465 2.694646 l -0.61736,-0.23884 c -0.33955,-0.13136 -1.0463,-0.32541 -1.57056,-0.43123 l -0.9532,-0.192386 -0.17328,0.834456 c -0.0953,0.45895 -0.2413,2.59321 -0.32444,4.7428 l -0.15116,3.90833 -1.39559,2.97812 c -0.76758,1.63797 -2.11402,4.0861 -2.9921,5.44028 -5.26549,8.12052 -6.08997,10.36034 -6.68503,18.16076 l -0.39023,5.11528 0.21318,5.29167 0.21318,5.29167 0.69309,3.52777 c 0.75764,3.85636 0.97762,4.65058 2.12514,7.67292 0.85533,2.25278 0.83297,2.23985 2.59767,1.50251 0.69235,-0.28928 2.89455,-0.77275 4.89378,-1.07438 l 3.63497,-0.54841 3.175,0.40589 c 6.30823,0.80643 13.29937,3.83211 22.40139,9.69503 1.26118,0.81237 4.91243,2.83912 8.11389,4.5039 l 5.82083,3.02688 3.33709,1.07797 c 1.8354,0.59289 3.64577,1.07797 4.02305,1.07797 1.64605,0 10.93467,6.6991 12.63264,9.11087 0.25758,0.36587 1.69836,1.98037 3.20171,3.58777 3.14464,3.36226 6.76022,8.57455 7.37786,10.63605 l 0.42352,1.4136 -0.64228,1.88955 c -0.35325,1.03926 -1.811,4.0037 -3.23943,6.58767 -1.42844,2.58396 -2.87473,5.3722 -3.21399,6.19609 l -0.61683,1.49798 -19.05,0.007 c -10.4775,0.004 -27.22563,0.15605 -37.21806,0.33808 -9.99243,0.18203 -24.12119,0.41899 -31.39723,0.52657 -7.27604,0.10759 -20.29354,0.35699 -28.92778,0.55424 -22.51532,0.51435 -62.88734,1.05051 -97.27848,1.2919 l -29.72153,0.20861 v -0.85427 z m 23.22297,-10.58645 c 8.08051,-3.03942 21.34004,-6.80051 30.27143,-8.58655 l 1.10689,-0.22135 0.2353,-2.53832 c 0.6018,-6.49191 -1.38439,-21.21677 -3.66853,-27.19725 l -0.39066,-1.02283 1.89728,-1.69102 1.89728,-1.69101 1.28103,-2.43781 c 0.70457,-1.3408 1.52041,-3.45332 1.81298,-4.69449 l 0.53194,-2.25668 -1.8e-4,-3.35139 c -1.1e-4,-1.84326 -0.14228,-3.57585 -0.31593,-3.85019 l -0.31574,-0.4988 -1.70734,1.50609 c -1.91468,1.68901 -4.08066,2.85496 -9.9976,5.38175 -4.39897,1.87854 -8.12086,3.96101 -10.51364,5.88256 l -1.5178,1.2189 -1.37182,2.32359 c -1.45556,2.46545 -2.21298,4.36508 -3.66929,9.20277 -2.84822,9.46141 -3.90368,12.45474 -6.53059,18.52098 -1.59636,3.68645 -3.28872,7.53959 -3.76079,8.56253 l -0.8583,1.8599 v 3.46117 c 0,3.0893 0.13192,3.93153 0.61579,3.93153 0.08,0 2.31572,-0.81634 4.96829,-1.81408 z m 46.56401,-18.09253 c 1.77921,-0.90904 6.30446,-1.53622 12.84337,-1.78002 9.61029,-0.35832 11.26257,-0.82415 15.08192,-4.25201 l 2.28586,-2.05157 2.47664,-1.13655 c 4.50942,-2.06941 12.73853,-4.35515 19.58635,-5.44036 1.26118,-0.19987 3.88056,-0.7214 5.82084,-1.15898 l 3.52777,-0.79557 -0.043,-1.77291 -0.043,-1.7729 -0.73163,-1.39751 c -0.40239,-0.76863 -1.26711,-1.95314 -1.92159,-2.63223 -0.65448,-0.6791 -1.73466,-1.85664 -2.4004,-2.61676 l -1.21045,-1.38203 V 151.8232 135.03718 l -0.98783,-4.57525 c -0.54331,-2.51638 -1.27726,-5.22952 -1.631,-6.0292 l -0.64315,-1.45396 -4.03413,-0.40899 c -2.21877,-0.22495 -4.78386,-0.40899 -5.70021,-0.40899 h -1.6661 l -0.21198,-0.55242 -0.21198,-0.55242 1.15166,-1.18822 1.15167,-1.18821 -0.21199,-0.55242 c -0.69777,-1.81835 -12.93412,7.5433 -12.93412,9.8955 0,12.96448 -11.57487,32.83163 -29.07489,49.90427 l -4.43901,4.3306 v 3.71145 c 0,3.50963 0.5718,11.31899 0.9027,12.32874 l 0.15273,0.46603 0.97159,-0.6832 c 0.53438,-0.37577 1.49886,-0.9526 2.14329,-1.28186 z m 76.86733,-22.38768 c 0.92882,-0.36657 3.03813,-1.29751 4.68737,-2.06874 1.64924,-0.77123 3.9908,-1.76257 5.20347,-2.20299 1.21268,-0.44041 2.20486,-0.84237 2.20486,-0.89325 0,-0.0509 -0.58415,-1.32257 -1.29812,-2.82598 l -1.29813,-2.73348 -0.10378,-1.80106 c -1.09325,-18.97244 -1.92421,-25.17171 -3.99783,-29.82523 -0.74021,-1.66114 -1.45285,-3.57589 -1.58365,-4.25499 -0.13081,-0.67909 -0.30439,-1.47284 -0.38575,-1.76388 l -0.14791,-0.52917 -4.00529,-0.0419 -4.00529,-0.0419 -0.23675,6.83689 c -0.13022,3.76029 -0.42623,8.54163 -0.65781,10.62521 l -0.42105,3.78831 -0.0133,9.34861 -0.0133,9.34861 0.79547,2.82222 c 0.97917,3.47394 2.53195,6.87917 3.13689,6.87917 0.24818,0 1.21118,-0.29993 2.13999,-0.66651 z"
       id="path7560"
       inkscape:connector-curvature="0" />
  </g>
</svg>
