<?xml version="1.0" encoding="utf-8" ?>
<svg baseProfile="full" height="200px" version="1.1" viewBox="-6.097695681717141e-10,-7.520366551716506e-10,355.49366130713287,446.08814376691254" width="160px" xmlns="http://www.w3.org/2000/svg" xmlns:ev="http://www.w3.org/2001/xml-events" xmlns:xlink="http://www.w3.org/1999/xlink">
  <defs/>
  <path d="M 2.9327525,443.14057 C 1.0960625,441.46302000000003 -0.2109574900000002,439.89476 0.028242509999999665,439.65555 C 0.2674525099999997,439.41635 1.9831824999999996,440.78889 3.8409824999999995,442.70565 C 8.0063525,447.00323 7.4523025,447.26854 2.9327524999999994,443.14056999999997 L 2.9327525,443.14057" fill="none" stroke="#000000" stroke-width="0.4460881437669125"/>
  <path d="M 84.718913,439.83647 C 77.732803,436.96264 74.366613,434.58520000000004 68.924833,428.68157 C 62.43206300000001,421.63774 59.44234300000001,414.33957000000004 58.994483,404.44067 L 58.621233000000004,396.19067 L 62.586933,396.19067 L 66.552643,396.19067 L 67.065503,402.57983 C 68.066113,415.04532 75.467703,425.7867 86.678503,431.04271 L 92.326463,433.69067 L 180.82646,433.69067 L 269.32646,433.69067 L 275.02882,430.89059000000003 C 286.0517,425.47792000000004 293.82646,413.38523000000004 293.82646,401.65316 L 293.82646,396.19067 L 298.4708,396.19067 L 303.11514,396.19067 L 302.56443,403.44067 C 301.55764,416.69502 295.86523,427.22163 285.63005000000004,434.75634 C 275.01126000000005,442.57345000000004 280.43132,442.19358 179.89496000000003,442.16693000000004 L 90.32646300000003,442.14323 L 84.718913,439.83647" fill="none" stroke="#000000" stroke-width="0.4460881437669125"/>
  <path d="M 58.826463000000004,376.19067 L 58.826463000000004,357.19067 L 42.276803,357.19067 C 24.048163000000002,357.19067 21.923793,356.66946 16.326463,350.82378 L 13.326463,347.69067 L 13.021893,325.88427 C 12.771543000000001,307.95921000000004 13.009693,303.07207 14.360093,298.42698 C 17.051423,289.16914 20.714123,283.06753000000003 27.719013,276.17266 C 35.812483,268.20631000000003 43.462973,264.30638 56.076463000000004,261.71708 C 58.033103000000004,261.31543 58.826463000000004,260.54158 58.826463000000004,259.03471 C 58.826463000000004,257.04308000000003 58.442243000000005,256.94769 52.380363,257.43428 C 44.837363,258.03976 35.03528300000001,262.2468 28.290543000000003,267.77362 C 23.080013,272.04325 16.904173000000004,280.89513999999997 14.900903000000003,286.96509 C 13.371363000000002,291.59966999999995 10.045433000000003,293.44721999999996 7.313472500000003,291.17989 C 4.997032500000003,289.25741 5.525232500000003,286.0615 9.459002500000004,278.19836 C 14.402983000000004,268.31592 23.137463000000004,259.57183 32.326463000000004,255.30572999999998 C 40.050753,251.71963 49.325773000000005,249.2282 55.036393000000004,249.20544999999998 L 58.74633300000001,249.19064999999998 L 59.036393000000004,205.90134999999998 L 59.326463000000004,162.61204999999998 L 62.40596300000001,156.40134999999998 C 64.099693,152.98546 65.374593,150.19064999999998 65.239073,150.19064999999998 C 65.10356300000001,150.19064999999998 59.96788300000001,151.99065 53.826463000000004,154.19064999999998 C 42.191283000000006,158.35863999999998 38.992243,158.88491999999997 35.771073,157.16100999999998 C 31.117983000000002,154.67074999999997 30.826463,152.34658999999996 30.826463,117.74029999999998 L 30.826463,85.190644 L 25.361643,85.190644 C 21.179583,85.190644 19.676893,84.779683 18.959843,83.43986600000001 C 18.323603,82.25104900000001 18.958842999999998,76.577076 20.937793,65.762741 C 22.541013,57.003251000000006 25.595073,40.016096000000005 27.724593,28.013509000000006 C 29.977622999999998,15.314824000000007 32.293552999999996,5.126710000000006 33.263753,3.645999000000007 C 36.816863,-1.776725999999993 36.872373,-1.7655669999999928 78.057133,12.649258000000007 C 115.59183999999999,25.786553000000005 116.36484999999999,26.007969000000006 118.32646,24.183771000000007 C 124.90482,18.066219000000007 137.68716,19.28925600000001 141.1136,26.364085000000006 C 141.98758999999998,28.168693000000005 142.85753,28.949383000000005 143.26314,28.293101000000007 C 144.27492999999998,26.655984000000007 220.98608,26.750268000000005 222.62646,28.390641000000006 C 223.55979000000002,29.323974000000007 223.82646,29.140489000000006 223.82646,27.564955000000005 C 223.82646,23.803849000000007 228.28664,20.857308000000003 234.67982,20.394867000000005 C 240.51078,19.973097000000006 246.82646,21.960073000000005 246.82646,24.216324000000004 C 246.82646,26.333219000000003 251.91792,24.709429000000004 284.6949,12.139156000000003 C 317.42078000000004,-0.41151896999999593 318.83544,-0.8560719699999968 321.56192,0.553843030000003 C 325.39927,2.538217000000003 326.61993,5.200938000000003 328.2718,15.190644000000002 C 329.04483999999997,19.865644000000003 331.5386,34.040644 333.81349,46.690644000000006 C 340.08172,81.546538 340.14063,81.92953600000001 339.49336,83.61631700000001 C 339.04443,84.786196 337.46821,85.190644 333.35784,85.190644 L 327.82646,85.190644 L 327.82646,116.72276000000001 C 327.82646,142.58751 327.55495,148.90469000000002 326.31585,151.87028 C 322.89009,160.06928000000002 319.12100000000004,160.05111 299.54193000000004,151.74121 L 295.7574,150.13495 L 297.68162,153.9128 C 302.6037,163.57638 302.82646,165.9777 302.82646,209.37215 L 302.82646,250.19065 L 307.57646,250.20255 C 314.9019,250.22085 321.80597,252.32903 334.5649,258.44353 C 339.35709,260.74011 347.95943,270.75324 351.92356,278.64902 C 356.04044,286.84904 356.54152,290.72863 353.71238,292.49897 C 350.92202,294.24503 349.14783,292.56867 345.284,284.53546 C 338.62279,270.68625 326.26079,260.92809 311.93564,258.21139 C 303.86505,256.6808 302.82646,256.83463 302.82646,259.56054 C 302.82646,261.65679 303.51284,262.06548 308.77081,263.09992 C 323.77268,266.05136 337.54638,277.11399 344.59265999999997,291.87095999999997 L 348.32645999999994,299.69064999999995 L 348.6414699999999,323.39246999999995 L 348.9564699999999,347.09428999999994 L 344.7787399999999,351.62658999999996 C 342.2418399999999,354.37881 339.1724599999999,356.55568999999997 336.9637399999999,357.16918999999996 C 334.9632299999999,357.72486 326.46395999999993,358.18200999999993 318.07645999999994,358.18506999999994 L 302.82645999999994,358.1910699999999 L 302.82645999999994,376.6910699999999 L 302.82645999999994,395.1910699999999 L 298.32645999999994,395.1910699999999 L 293.82645999999994,395.1910699999999 L 293.82566999999995,280.9410699999999 L 293.82487999999995,166.6910699999999 L 290.97641999999996,160.6910699999999 C 287.83392999999995,154.07173999999992 281.47885999999994,147.5991099999999 274.67587,144.0889899999999 C 271.28051,142.3370899999999 267.96828,141.7182999999999 259.57572999999996,141.2679499999999 L 248.82498999999996,140.6910599999999 L 248.82572999999996,173.3592799999999 C 248.82612999999998,191.3267999999999 248.54692999999997,206.7559399999999 248.20527999999996,207.6462699999999 C 246.69578999999996,211.5799199999999 235.84078999999997,214.0279799999999 235.81280999999996,210.4410699999999 C 235.80480999999995,209.4785699999999 235.52780999999996,207.67856999999992 235.19616999999997,206.4410699999999 C 234.68331999999998,204.5273699999999 234.98428999999996,204.1910699999999 237.20982999999995,204.1910699999999 L 239.82645999999994,204.1910699999999 L 239.82645999999994,116.13029 L 239.82645999999994,28.069933 L 236.07645999999994,28.380298999999997 L 232.32645999999994,28.690663999999998 L 232.07098999999994,115.82545999999999 L 231.81551999999994,202.96026999999998 L 229.57098999999994,203.56180999999998 C 223.44548999999995,205.20347999999998 223.82643999999993,207.26735999999997 223.82661999999993,172.44066999999998 L 223.82677999999993,140.69065999999998 L 182.8268,140.69065999999998 L 141.82682,140.69065999999998 L 141.82664,167.44066999999998 L 141.82646,194.19066999999998 L 137.32646,194.19066999999998 L 132.82646,194.19066999999998 L 132.82646,111.19066 L 132.82646,28.190664 L 128.82646,28.190664 L 124.82646,28.190664 L 124.82646,117.19066 C 124.82646,205.524 124.84146,206.19067 126.82646,206.19067 C 128.38202,206.19067 128.82646,206.85734000000002 128.82646,209.19067 C 128.82646,211.73958000000002 128.44308999999998,212.19067 126.2768,212.19067 C 123.01501999999999,212.19067 118.25052,209.73815000000002 117.44763999999999,207.64587 C 117.10598999999999,206.75554 116.82700999999999,191.3264 116.82768999999999,173.35888 L 116.82869,140.69066 L 105.57746,140.98664 C 92.982833,141.31796 88.010403,142.59183 81.305803,147.20471999999998 C 75.720063,151.04781999999997 71.56608299999999,156.59731999999997 68.858723,163.83335999999997 C 66.859683,169.17689999999996 66.826463,171.11214999999996 66.826463,282.22817999999995 L 66.826463,395.19066999999995 L 62.826463000000004,395.19066999999995 L 58.826463000000004,395.19066999999995 L 58.826463000000004,376.19067" fill="none" stroke="#000000" stroke-width="0.4460881437669125"/>
  <path d="M 58.826463000000004,309.57938 L 58.826463000000004,269.96809 L 55.076463000000004,270.63968 C 45.037693000000004,272.43755 33.777833,280.01946 27.845263000000003,288.976 C 22.141053000000003,297.58778 20.826463000000004,304.21238 20.826463000000004,324.34567 C 20.826463000000004,342.57022 21.626113000000004,347.1416 25.055423000000005,348.52137999999997 C 25.754493000000004,348.80264999999997 33.638963000000004,349.06829999999997 42.576463000000004,349.11172 L 58.826463000000004,349.19061999999997 L 58.826463000000004,309.57938" fill="none" stroke="#000000" stroke-width="0.4460881437669125"/>
  <path d="M 338.42147,347.08843 C 340.12284999999997,345.21089 340.35982,343.01657 340.63862,326.55818 C 340.97921,306.45203 340.15412,301.31813999999997 335.07331,291.92985 C 329.81103,282.20622 317.48886,273.26281 307.07646,271.60976999999997 L 302.82646,270.93505 L 302.82646,310.06286 L 302.82646,349.19067 L 319.67147,349.19067 C 335.51878,349.19067 336.62931,349.06616 338.42147,347.08843" fill="none" stroke="#000000" stroke-width="0.4460881437669125"/>
  <path d="M 62.785383,132.27224 C 70.96594300000001,124.25237000000001 85.144743,110.37816000000001 94.29384300000001,101.44066000000001 L 110.92856,85.190664 L 100.79702,85.190664 L 90.665473,85.190664 L 64.745963,110.4223 L 38.826463000000004,135.65393 L 38.840063,140.6723 C 38.847063,143.4324 39.111583,146.65165000000002 39.426753,147.82617000000002 C 40.571363,152.09176000000002 46.797833,147.94571000000002 62.785332999999994,132.27224 L 62.785383,132.27224" fill="none" stroke="#000000" stroke-width="0.4460881437669125"/>
  <path d="M 318.82646,140.46955 L 318.82646,131.74844 L 312.3538,138.16356 C 308.79384,141.69188 305.98271,144.68024 306.10683,144.80436 C 306.69691,145.39444 316.47716,149.08818 317.57646,149.13614 C 318.48507,149.17574000000002 318.82646,146.80886 318.82646,140.46955000000003 L 318.82646,140.46955" fill="none" stroke="#000000" stroke-width="0.4460881437669125"/>
  <path d="M 308.06013,130.45771 L 318.82646,119.72476999999999 L 318.82646,110.34082 L 318.82646,100.95687 L 300.80103,118.215 C 290.88705000000004,127.70698 283.03861,135.73614 283.36005,136.05758 C 284.07603,136.77356 294.94433,141.02234 296.31013,141.12019 C 296.85115,141.15899000000002 302.13865000000004,136.36083000000002 308.06013,130.45771000000002 L 308.06013,130.45771" fill="none" stroke="#000000" stroke-width="0.4460881437669125"/>
  <path d="M 83.32646300000002,134.70568 C 96.64711300000002,130.12569 97.62485300000002,129.60232 103.47563000000002,123.92021 C 109.07050000000002,118.48662999999999 109.94939000000002,117.9862 113.22563000000002,118.36868 L 116.82646000000003,118.78905999999999 L 116.82646000000003,105.2061 L 116.82646000000003,91.623146 L 102.57646000000003,105.5866 C 94.73896300000003,113.26650000000001 83.53697300000002,124.22392 77.68315300000003,129.93641 C 71.82933300000003,135.6489 67.55433300000003,140.14195999999998 68.18315300000003,139.921 C 68.81197300000004,139.70004 75.62646300000003,137.35314 83.32646300000003,134.70568 L 83.32646300000002,134.70568" fill="none" stroke="#000000" stroke-width="0.4460881437669125"/>
  <path d="M 116.82646000000003,132.63164 C 116.82646000000003,131.77418 116.36912000000002,131.35528 115.81015000000002,131.70074 C 115.25118000000002,132.0462 115.05273000000003,132.74776 115.36917000000003,133.25976 C 116.22640000000003,134.6468 116.82646000000003,134.38817 116.82646000000003,132.63164" fill="none" stroke="#000000" stroke-width="0.4460881437669125"/>
  <path d="M 182.82646000000003,132.19066 C 211.51535,132.19066 221.73458000000002,132.49878 222.62646,133.39066 C 223.55979000000002,134.32399 223.82646,133.85234 223.82646,131.26821999999999 C 223.82646,128.55684 223.57267,128.1564 222.44656,129.09097999999997 C 221.44867,129.91915999999998 210.09847000000002,130.16068999999996 181.44621,129.96342999999996 L 141.82575,129.69065999999995 L 141.8261,132.14065999999994 C 141.82638,134.04621999999995 142.09313,134.32398999999995 143.02646,133.39065999999994 C 143.91833999999997,132.49877999999995 154.13756999999998,132.19065999999995 182.82646,132.19065999999995 L 182.82646000000003,132.19066" fill="none" stroke="#000000" stroke-width="0.4460881437669125"/>
  <path d="M 296.60833,110.56661000000001 C 309.9854,97.54722600000001 318.82646,88.19608400000001 318.82646,87.06661400000002 C 318.82646,85.37142600000001 317.98333,85.19511300000002 310.07646,85.23683100000001 L 301.32646,85.28300100000001 L 280.11745,106.09522000000001 L 258.90845,126.90744000000001 L 265.11745,129.45232000000001 C 268.53241,130.852 272.0158,132.04073000000002 272.85833,132.09393 C 273.70085,132.14713 284.38835,122.45984 296.60833,110.56661 L 296.60833,110.56661000000001" fill="none" stroke="#000000" stroke-width="0.4460881437669125"/>
  <path d="M 116.82646000000003,124.63164 C 116.82646000000003,123.77418 116.36912000000002,123.35528000000001 115.81015000000002,123.70074000000001 C 115.25118000000002,124.04620000000001 115.05273000000003,124.74776000000001 115.36917000000003,125.25976000000001 C 116.22640000000003,126.64680000000001 116.82646000000003,126.38817000000002 116.82646000000003,124.63164000000002 L 116.82646000000003,124.63164" fill="none" stroke="#000000" stroke-width="0.4460881437669125"/>
  <path d="M 275.81257000000005,98.759968 L 289.2986700000001,85.190664 L 279.28911000000005,85.190664 L 269.27954000000005,85.190664 L 261.30300000000005,93.244085 C 255.10105000000004,99.505814 252.82589000000004,101.20523 251.07646000000005,100.88275 C 248.84539000000007,100.47149 248.82646000000005,100.56866000000001 248.82646000000005,112.43232 L 248.82646000000005,124.39663 L 255.57646000000005,118.36295 C 259.28896000000003,115.04442 268.3952100000001,106.22308 275.81257000000005,98.759968" fill="none" stroke="#000000" stroke-width="0.4460881437669125"/>
  <path d="M 64.31306300000006,99.259704 L 78.29966300000005,85.190664 L 68.33095300000005,85.190664 L 58.36224300000005,85.190664 L 48.59435300000005,94.921902 L 38.82646300000005,104.65314000000001 L 38.82646300000005,114.02084 L 38.82646300000005,123.38855000000001 L 44.57646300000005,118.35865000000001 C 47.73896300000005,115.5922 56.62043300000005,106.99768000000002 64.31306300000004,99.25970400000001 L 64.31306300000006,99.259704" fill="none" stroke="#000000" stroke-width="0.4460881437669125"/>
  <path d="M 223.82646000000005,103.72288 C 223.82646000000005,84.98267200000001 223.75516000000005,84.281937 221.91811000000004,84.97288800000001 C 220.86851000000004,85.36766500000002 211.66407000000004,93.903164 201.46379000000005,103.94066000000001 L 182.91782000000003,122.19066000000001 L 192.62214000000003,122.18966 C 203.27068000000003,122.18866 201.54504000000003,122.93989 212.28681000000003,113.62512000000001 C 216.46469000000002,110.00226 218.65188000000003,109.4163 220.62646000000004,111.39088000000001 C 222.73938000000004,113.50380000000001 221.92452000000003,115.87849000000001 218.07646000000003,118.82219 L 214.32646000000003,121.69088 L 218.82646000000003,122.29069000000001 C 221.30146000000002,122.62058000000002 223.43896000000004,122.95808000000001 223.57646000000003,123.04069000000001 C 223.71396000000001,123.12329000000001 223.82646000000003,114.43038000000001 223.82646000000003,103.72310000000002 L 223.82646000000005,103.72288" fill="none" stroke="#000000" stroke-width="0.4460881437669125"/>
  <path d="M 189.63116000000005,103.71888 L 208.32646000000005,85.24697 L 197.82646000000005,85.23927 L 187.32646000000005,85.23157 L 168.68048000000005,103.71111 L 150.03450000000004,122.19064 L 160.48518000000004,122.19064 L 170.93587000000005,122.19064 L 189.63116000000005,103.71879 L 189.63116000000005,103.71888" fill="none" stroke="#000000" stroke-width="0.4460881437669125"/>
  <path d="M 160.07646000000005,101.44668 C 168.18896000000007,93.255491 174.82646000000005,86.246945 174.82646000000005,85.872136 C 174.82646000000005,85.497326 170.48928000000006,85.190664 165.18829000000005,85.190664 L 155.55012000000005,85.190664 L 151.21063000000004,89.190664 C 146.64576000000002,93.39842 144.99796000000003,93.962169 143.02646000000004,91.990664 C 142.09313000000003,91.05733099999999 141.82646000000005,93.84292699999999 141.82646000000005,104.52583999999999 C 141.82646000000005,117.30625999999998 141.94811000000004,118.19424999999998 143.57646000000005,117.30039 C 144.53896000000006,116.77203999999999 151.96396000000004,109.63786999999999 160.07646000000005,101.44667999999999 L 160.07646000000005,101.44668" fill="none" stroke="#000000" stroke-width="0.4460881437669125"/>
  <path d="M 253.21534000000005,89.304457 L 257.01012000000003,85.41825 L 252.91829000000004,85.028031 L 248.82646000000005,84.637812 L 248.82646000000005,88.914238 C 248.82646000000005,91.266272 248.96013000000005,93.190664 249.12351000000007,93.190664 C 249.28689000000006,93.190664 251.12822000000006,91.44187099999999 253.21534000000005,89.304457" fill="none" stroke="#000000" stroke-width="0.4460881437669125"/>
  <path d="M 42.82646300000005,88.690664 L 46.21879300000005,85.190664 L 42.522623000000046,85.190664 C 38.96510300000005,85.190664 38.82646300000005,85.321949 38.82646300000005,88.690664 C 38.82646300000005,90.615664 38.96318300000004,92.190664 39.130293000000044,92.190664 C 39.297403000000045,92.190664 40.96067300000004,90.615664 42.82646300000005,88.690664" fill="none" stroke="#000000" stroke-width="0.4460881437669125"/>
  <path d="M 116.82646000000004,86.222049 C 116.82646000000004,84.909791 116.34120000000004,84.439647 115.37101000000004,84.811943 C 114.22277000000004,85.252561 114.17000000000004,85.660072 115.12101000000004,86.742521 C 116.71711000000005,88.559229 116.82646000000004,88.52585599999999 116.82646000000004,86.222049" fill="none" stroke="#000000" stroke-width="0.4460881437669125"/>
  <path d="M 116.82646000000004,55.15548 C 116.82646000000004,32.12412 116.74956000000005,31.161436999999996 114.98588000000004,32.105343 C 113.60495000000003,32.844395 110.34498000000004,32.104043 101.93180000000004,29.140527 C 95.76436300000003,26.968102 89.95512300000004,25.175275 89.02237300000004,25.156464999999997 C 88.08962300000005,25.137655 76.64627300000005,21.382395999999996 63.59270300000004,16.811442 L 39.85894300000004,8.500618 L 39.27076300000004,12.095640999999999 C 38.94727300000004,14.072904 38.048023000000036,19.065663999999998 37.272433000000035,23.190663999999998 C 35.34370300000003,33.448683 27.826463000000032,75.99896100000001 27.826463000000032,76.658211 C 27.826463000000032,76.95106 47.62646300000003,77.190664 71.82646300000003,77.190664 C 100.49313000000004,77.190664 115.82646000000003,77.539149 115.82646000000003,78.190664 C 115.82646000000003,78.740664 116.05146000000002,79.190664 116.32646000000003,79.190664 C 116.60146000000003,79.190664 116.82646000000003,68.374831 116.82646000000003,55.15548 L 116.82646000000004,55.15548" fill="none" stroke="#000000" stroke-width="0.4460881437669125"/>
  <path d="M 223.82646000000005,55.990663999999995 C 223.82646000000005,37.94622 223.55979000000005,33.05733099999999 222.62646000000007,33.990663999999995 C 220.90355000000005,35.713578 144.74937000000006,35.713578 143.02646000000007,33.990663999999995 C 142.09313000000006,33.057331 141.82638000000006,37.77955299999999 141.82610000000008,55.240663999999995 L 141.82575000000008,77.690664 L 181.5032400000001,77.417796 C 207.57529000000008,77.238495 221.5314700000001,77.49567599999999 222.20359000000008,78.167796 C 222.76617000000007,78.730374 223.36146000000008,79.190664 223.52646000000007,79.190664 C 223.69146000000006,79.190664 223.82646000000008,68.750664 223.82646000000008,55.990663999999995 L 223.82646000000005,55.990663999999995" fill="none" stroke="#000000" stroke-width="0.4460881437669125"/>
  <path d="M 324.44508,43.16916 C 321.14971,24.480987 318.06485000000004,9.190663999999998 317.58985,9.190663999999998 C 317.11485,9.190663999999998 307.32133,12.790663999999998 295.82646,17.190663999999998 C 284.33159,21.590663999999997 274.30663,25.190663999999998 273.54876,25.190663999999998 C 272.79089,25.190663999999998 268.15584,26.784568999999998 263.24864,28.732674999999997 C 258.1286,30.765275999999997 253.15456000000003,32.117517 251.57646000000003,31.905867999999998 L 248.82646000000003,31.537049999999997 L 248.82613000000003,54.613856999999996 L 248.82579000000004,77.690664 L 289.63123,77.41916 L 330.43667,77.147655 L 324.44508,43.16916" fill="none" stroke="#000000" stroke-width="0.4460881437669125"/>
  <path d="M 112.22753,359.28524 C 109.97312,358.26141 107.04812,355.90879 105.72753,354.05719999999997 L 103.32646,350.69066999999995 L 103.05458,287.93332999999996 C 102.75393,218.53646999999995 102.52784,221.17270999999994 109.12501,217.15018999999995 C 112.21798,215.26428999999996 114.64750000000001,215.19814999999994 180.82646,215.19814999999994 C 247.00542000000002,215.19814999999994 249.43493999999998,215.26424999999995 252.52791,217.15018999999995 C 259.12507999999997,221.17270999999994 258.89898999999997,218.53646999999995 258.59834,287.93332999999996 L 258.32646,350.69066999999995 L 255.92539,354.05719999999997 C 254.60479999999998,355.90878999999995 251.6798,358.26140999999996 249.42539,359.28524 C 245.56376,361.03898 241.59231,361.14675 180.82646,361.14675 C 120.06061,361.14675 116.08915999999999,361.03898 112.22753,359.28524" fill="none" stroke="#000000" stroke-width="0.4460881437669125"/>
  <path d="M 248.72193000000001,350.78568 C 250.78491000000002,348.91831 250.82646000000003,348.18988 250.82646000000003,313.89063 L 250.82646000000003,278.90056 L 245.33499000000003,284.09416 C 242.28173000000004,286.98181 236.84273000000005,290.69624999999996 233.08499000000003,292.46001 C 226.77226000000005,295.42301000000003 225.45247000000003,295.65832 213.07646000000003,296.02729 L 199.82646000000003,296.42233 L 199.82646000000003,300.85195 C 199.82646000000003,304.22168 199.23915000000002,305.86888999999996 197.37191,307.73611999999997 C 194.99811000000003,310.10992999999996 194.45384,310.19066999999995 180.82646000000003,310.19066999999995 C 167.19908000000004,310.19066999999995 166.65481000000003,310.10997 164.28101000000004,307.73611999999997 C 162.41377000000003,305.86888999999996 161.82646000000003,304.22168 161.82646000000003,300.85195 L 161.82646000000003,296.42233 L 148.57646000000003,296.02729 C 136.20045000000002,295.65832 134.88066000000003,295.42301 128.56793000000002,292.46001 C 124.81019000000002,290.69625 119.37119000000001,286.98181 116.31793000000002,284.09416 L 110.82646000000003,278.90056 L 110.82646000000003,313.89063 C 110.82646000000003,345.96707 110.97218000000002,349.00764 112.57646000000003,350.40519 C 113.53896000000003,351.24367 115.00146000000002,352.18286 115.82646000000003,352.49229 C 116.65146000000003,352.80172000000005 146.41692000000003,352.97294000000005 181.97193000000004,352.87278000000003 C 244.00055000000003,352.69804000000005 246.70259000000004,352.61356 248.72193000000004,350.78568 L 248.72193000000001,350.78568" fill="none" stroke="#000000" stroke-width="0.4460881437669125"/>
  <path d="M 191.82646,288.69067 L 191.82646,274.19067 L 180.82646,274.19067 L 169.82646,274.19067 L 169.82646,288.69067 L 169.82646,303.19067 L 180.82646,303.19067 L 191.82646,303.19067 L 191.82646,288.69067" fill="none" stroke="#000000" stroke-width="0.4460881437669125"/>
  <path d="M 161.82646,279.82553 C 161.82646,272.87694 162.17743,271.0142 163.89903999999999,268.82553 L 165.97161999999997,266.19067 L 180.82645999999997,266.19067 L 195.68129999999996,266.19067 L 197.75387999999995,268.82553 C 199.47993999999994,271.01986 199.82645999999994,272.87576 199.82645999999994,279.92595 L 199.82645999999994,288.39152 L 212.57645999999994,288.01106 C 222.93894999999995,287.70184 226.20978999999994,287.22814 230.04368999999994,285.48136 C 236.63589999999994,282.47785 244.29539999999994,274.96981999999997 247.55426999999995,268.31705999999997 C 250.18234999999996,262.95198999999997 250.32615999999996,261.89119 250.65045999999995,245.47725999999997 L 250.99054999999996,228.26384999999996 L 248.45395999999997,225.72725999999997 L 245.91736999999998,223.19066999999998 L 180.82646,223.19066999999998 L 115.73555,223.19066999999998 L 113.19896,225.72725999999997 L 110.66237,228.26384999999996 L 111.03866,245.47725999999997 C 111.46807999999999,265.12104 112.44848999999999,268.57068999999996 119.8992,276.65374999999995 C 128.19029,285.64852999999994 134.5557,288.0285099999999 150.57646,288.1237699999999 L 161.82646,288.1906699999999 L 161.82646,279.82553" fill="none" stroke="#000000" stroke-width="0.4460881437669125"/>
</svg>
