<?xml version="1.0" encoding="UTF-8" standalone="no"?>
<svg
     xmlns:dc="http://purl.org/dc/elements/1.1/"
     xmlns:cc="http://creativecommons.org/ns#"
     xmlns:rdf="http://www.w3.org/1999/02/22-rdf-syntax-ns#"
     xmlns:svg="http://www.w3.org/2000/svg"
     xmlns="http://www.w3.org/2000/svg"
     xmlns:sodipodi="http://sodipodi.sourceforge.net/DTD/sodipodi-0.dtd"
     xmlns:inkscape="http://www.inkscape.org/namespaces/inkscape"
     height="105.4"
     version="1.1"
     viewBox="0 0 38.51 19.63"
     width="206"
     id="svg61"
     sodipodi:docname="testing.svg"
     inkscape:version="1.1-dev (1:0.92.0+devel+202001141113+5079eae)">
    <metadata
         id="metadata65">
        <rdf:RDF>
            <cc:Work
                 rdf:about="">
                <dc:format>image/svg+xml</dc:format>
                <dc:type
                     rdf:resource="http://purl.org/dc/dcmitype/StillImage" />
                <dc:title></dc:title>
            </cc:Work>
        </rdf:RDF>
    </metadata>
    <sodipodi:namedview
         pagecolor="#ffffff"
         bordercolor="#666666"
         borderopacity="1"
         objecttolerance="10"
         gridtolerance="10"
         guidetolerance="10"
         inkscape:pageopacity="0"
         inkscape:pageshadow="2"
         inkscape:window-width="1920"
         inkscape:window-height="983"
         id="namedview63"
         showgrid="false"
         inkscape:zoom="2.272"
         inkscape:cx="185.3"
         inkscape:cy="112.5"
         inkscape:window-x="0"
         inkscape:window-y="27"
         inkscape:window-maximized="1"
         inkscape:current-layer="svg61" />
    <defs
         id="defs53" />
    <path
         d="m 37.57,8.768 c -0.3,-0.3 -8.3,-8.3006 -18.3,-8.3006 -10.093,0 -17.993,8.0006 -18.3933,8.3006 -0.5,0.6 -0.5,1.492 0,2.092 0.4003,0.4 8.3003,8.3 18.3933,8.3 10,0 18,-7.9 18.3,-8.3 0.6,-0.6 0.6,-1.492 0,-2.092"
         fill="black"
         stroke="#000000"
         stroke-width="1"
         id="path55"
         inkscape:connector-curvature="0" />
    <circle
         cx="19.27"
         cy="9.868"
         r="8.5"
         stroke="black"
         stroke-width="0"
         fill="darkblue"
         id="circle57" />
    <path
         inkscape:connector-curvature="0"
         id="path90"
         stroke-width="0"
         stroke="#000000"
         fill="white"
         d="m 19.31,16.73 c -2.53,0 -4.95,-1.45 -6.16,-3.91 -1.69,-3.411 -0.41,-7.512 2.82,-9.344 l 0.58,-0.314 -0.19,0.619 c -0.39,1.553 -0.22,3.188 0.46,4.598 0.75,1.562 2.08,2.731 3.67,3.251 1.6,0.57 3.33,0.43 4.82,-0.33 v 0 c 0.1,0 0.14,-0.11 0.22,-0.12 l 0.54,-0.3 -0.13,0.62 c -0.53,1.95 -1.81,3.58 -3.59,4.45 -0.97,0.52 -2.03,0.78 -3.04,0.78" />
</svg>
