<?xml version="1.0" encoding="utf-8" ?>
<svg baseProfile="full" height="147px" version="1.1" viewBox="-163.92952000000005,-64.59137500000001,94.09329600000008,68.94709500000002" width="200px" xmlns="http://www.w3.org/2000/svg" xmlns:ev="http://www.w3.org/2001/xml-events" xmlns:xlink="http://www.w3.org/1999/xlink">
  <defs/>
  <path d="M -157.95078,3.02086 L -125.41455,3.02086 C -125.34485000000001,3.14255 -125.21483,3.22917 -125.05905,3.22917 C -124.83221,3.22917 -124.6482,3.05021 -124.6482,2.83133 C -124.6482,2.61095 -124.83221,2.4325 -125.05905,2.4325 C -125.21482999999999,2.4325 -125.34552,2.5189 -125.41505,2.6417900000000003 L -157.95078,2.6417900000000003 C -160.28429,2.6417900000000003 -161.96227000000002,1.3451600000000004 -163.02082000000001,0.1486200000000002 C -163.15416000000002,-0.3508199999999998 -163.46407000000002,-1.8258799999999997 -162.96802000000002,-3.3570499999999996 L -162.95612000000003,-3.3923499999999995 L -162.96682000000004,-3.4278499999999994 L -163.92917000000003,-6.885999999999999 L -163.92917000000003,-53.349028000000004 L -162.95690000000002,-56.84358400000001 L -162.96880000000002,-56.87830400000001 C -163.46331,-58.40541900000001 -163.15751,-59.87796800000001 -163.02280000000002,-60.38094100000001 C -161.96373000000003,-61.57798100000001 -160.28417000000002,-62.87661700000001 -157.95173000000003,-62.87661700000001 L -125.41526000000002,-62.87661700000001 C -125.34556000000002,-62.75427600000001 -125.21554000000002,-62.66783300000001 -125.05979000000002,-62.66783300000001 C -124.83291000000003,-62.66783300000001 -124.64892000000002,-62.84687600000001 -124.64892000000002,-63.06617000000001 C -124.64892000000002,-63.286061000000004 -124.83291000000001,-63.465022000000005 -125.05979000000002,-63.465022000000005 C -125.21554000000002,-63.465022000000005 -125.34627000000002,-63.378542 -125.41575000000002,-63.255726 L -157.9515,-63.255726 C -160.94573,-63.255726 -162.91854,-61.256455 -163.92952,-59.866814000000005 L -163.92952,-60.822325000000006 C -162.97395,-61.825258000000005 -160.72931,-63.82755600000001 -157.52596,-64.591375 L -76.236064,-64.590419 C -73.033254,-63.82608999999999 -70.791224,-61.825815 -69.836714,-60.822883 L -69.836714,-59.866975 C -70.849244,-61.256648999999996 -72.820504,-63.255919999999996 -75.816304,-63.255919999999996 L -108.35054,-63.255919999999996 C -108.42164,-63.378781 -108.55232,-63.465216 -108.70759,-63.465216 C -108.93339999999999,-63.465216 -109.11896,-63.286173999999995 -109.11896,-63.066364 C -109.11896,-62.846933 -108.9334,-62.668029 -108.70759,-62.668029 C -108.55232,-62.668029 -108.42269,-62.754459 -108.35159999999999,-62.876787 L -75.81615399999998,-62.876787 C -73.48317399999998,-62.876787 -71.80257399999998,-61.578143 -70.74455399999998,-60.381104 C -70.61016399999998,-59.878128000000004 -70.30441399999998,-58.4056 -70.79735399999998,-56.878465 L -70.80925399999998,-56.843745 L -70.79885399999998,-56.808234999999996 L -69.83622399999997,-53.349031999999994 L -69.83622399999997,-6.88655 L -70.80955399999998,-3.39253 L -70.79765399999998,-3.35723 C -70.30365399999998,-1.8295899999999998 -70.61156399999999,-0.35653999999999986 -70.74485399999998,0.14592000000000027 C -71.80287399999997,1.3429400000000002 -73.48347399999997,2.6416000000000004 -75.81645399999998,2.6416000000000004 L -108.35057999999998,2.6416000000000004 C -108.42167999999998,2.5186800000000003 -108.55235999999998,2.43231 -108.70762999999998,2.43231 C -108.93343999999998,2.43231 -109.11899999999999,2.6106900000000004 -109.11899999999999,2.8311300000000004 C -109.11899999999999,3.0500300000000005 -108.93343999999999,3.2289800000000004 -108.70762999999998,3.2289800000000004 C -108.55235999999998,3.2289800000000004 -108.42271999999998,3.1425800000000006 -108.35163999999997,3.02064 L -75.81633399999998,3.02064 C -72.82052399999998,3.02064 -70.84927399999998,1.0208900000000003 -69.83674399999998,-0.36822 L -69.83674399999998,0.58719 C -70.79229399999998,1.5905900000000002 -73.03745399999998,3.5929100000000003 -76.24236399999998,4.35572 L -157.52861,4.35481 C -160.73194999999998,3.5914899999999994 -162.97502999999998,1.5911899999999997 -163.92952,0.5877799999999995 L -163.92952,-0.3681600000000005 C -162.91855,1.0209399999999995 -160.94574,3.0207199999999994 -157.95152,3.0207199999999994" fill="none" stroke="#000000" stroke-width="0.5"/>
</svg>
