<?xml version="1.0" encoding="UTF-8" standalone="no"?>
<svg
     xmlns:dc="http://purl.org/dc/elements/1.1/"
     xmlns:cc="http://creativecommons.org/ns#"
     xmlns:rdf="http://www.w3.org/1999/02/22-rdf-syntax-ns#"
     xmlns:svg="http://www.w3.org/2000/svg"
     xmlns="http://www.w3.org/2000/svg"
     xmlns:sodipodi="http://sodipodi.sourceforge.net/DTD/sodipodi-0.dtd"
     xmlns:inkscape="http://www.inkscape.org/namespaces/inkscape"
     inkscape:version="1.1-dev (1:0.92.0+devel+202001141113+5079eae)"
     sodipodi:docname="shield_elaborate.svg"
     id="svg1180"
     width="181px"
     viewBox="-57.270999999999994,-46.04,61.60099999999999,68.09"
     version="1.1"
     height="200px">
    <metadata
         id="metadata1184">
        <rdf:RDF>
            <cc:Work
                 rdf:about="">
                <dc:format>image/svg+xml</dc:format>
                <dc:type
                     rdf:resource="http://purl.org/dc/dcmitype/StillImage" />
            </cc:Work>
        </rdf:RDF>
    </metadata>
    <sodipodi:namedview
         inkscape:current-layer="svg1180"
         inkscape:window-maximized="1"
         inkscape:window-y="27"
         inkscape:window-x="0"
         inkscape:cy="100"
         inkscape:cx="80.8"
         inkscape:zoom="4.124"
         showgrid="false"
         id="namedview1182"
         inkscape:window-height="983"
         inkscape:window-width="1920"
         inkscape:pageshadow="2"
         inkscape:pageopacity="0"
         guidetolerance="10"
         gridtolerance="10"
         objecttolerance="10"
         borderopacity="1"
         bordercolor="#666666"
         pagecolor="#ffffff" />
    <defs
         id="defs1170" />
    <path
         id="path1172"
         stroke-width="0.06809000000000001"
         stroke="#000000"
         fill="none"
         d="M 3.62,-26.01 C -2.71,-27.3 -3.55,-38.95 -3.56,-39.05 L -3.6089999999999995,-39.66 L -26.398999999999997,-46.019999999999996 L -26.429999999999996,-46.029999999999994 L -26.469999999999995,-46.03999999999999 L -26.469999999999995,-44.15999999999999 L -26.429999999999996,-44.14999999999999 L -26.398999999999997,-44.13999999999999 L -5.2499999999999964,-38.279999999999994 C -4.949999999999997,-35.989999999999995 -3.4999999999999964,-26.189999999999994 2.5800000000000036,-24.419999999999995 L 2.5800000000000036,-11.029999999999994 C 2.0900000000000034,-9.229999999999993 -6.7499999999999964,14.710000000000004 -26.398999999999994,20.170000000000005 C -26.409999999999993,20.170000000000005 -26.419999999999995,20.180000000000007 -26.429999999999993,20.180000000000007 C -26.438999999999993,20.180000000000007 -26.459999999999994,20.19000000000001 -26.46999999999999,20.19000000000001 L -26.46999999999999,22.050000000000008 L -26.429999999999993,22.040000000000006 L -26.398999999999994,22.030000000000005 L -26.249999999999993,21.990000000000006 C -4.7,16.24 4.24,-10.42 4.311,-10.69 L 4.33,-10.91 L 4.33,-25.87 L 3.62,-26.01" />
    <path
         id="path1178"
         stroke-width="0.06809000000000001"
         stroke="#000000"
         fill="none"
         d="M -26.5,-46.03 L -26.54,-46.02 L -49.33,-39.660000000000004 L -49.379999999999995,-39.050000000000004 C -49.38999999999999,-38.95 -50.23,-27.300000000000004 -56.56099999999999,-26.010000000000005 L -57.270999999999994,-25.870000000000005 L -57.270999999999994,-10.910000000000004 L -57.24999999999999,-10.690000000000003 C -57.17999999999999,-10.420000000000003 -48.239999999999995,16.239999999999995 -26.689999999999994,21.989999999999995 L -26.539999999999996,22.029999999999994 L -26.499999999999996,22.039999999999996 L -26.469999999999995,22.049999999999997 L -26.469999999999995,20.189999999999998 C -26.479999999999997,20.189999999999998 -26.489999999999995,20.179999999999996 -26.499999999999996,20.179999999999996 C -26.509999999999998,20.179999999999996 -26.529999999999998,20.169999999999995 -26.539999999999996,20.169999999999995 C -46.19,14.709999999999994 -55.029999999999994,-9.230000000000004 -55.521,-11.030000000000005 L -55.521,-24.420000000000005 C -49.44,-26.190000000000005 -47.99,-35.99000000000001 -47.69,-38.28 L -26.54,-44.14 L -26.5,-44.15 L -26.47,-44.16 L -26.47,-46.04 L -26.5,-46.03" />
    <path
         transform="matrix(0.3405,0,0,0.3405,-57.28,-46.04)"
         inkscape:connector-curvature="0"
         id="path1755"
         d="m 90.79,186.5 v -3.8 l 0.67,0.2 c 0.36,0 0.95,0.4 1.3,0.7 l 0.64,0.6 2.15,-0.8 c 23.25,-9 44.45,-29.6 61.15,-59.5 3.7,-6.4 7.8,-15.2 9.7,-20.4 l 0.8,-2.3 V 86.86 72.46 l -0.9,-0.51 c -1,-0.59 -1.9,-2.4 -1.7,-3.28 0.1,-0.46 -0.1,-0.7 -0.9,-1.33 -7.5,-5.31 -13.6,-16.8 -17.4,-32.44 -0.5,-2.25 -1,-4.3 -1.1,-4.58 -0.1,-0.62 3.1,0.31 -26.8,-7.75 -19.43,-5.26 -24.88,-6.65 -25.17,-6.44 -1.04,0.76 -1.86,1.23 -2.14,1.24 -0.23,0 -0.3,-0.91 -0.3,-3.76 0,-2.5 0.1,-3.759 0.26,-3.759 0.95,0 2.59,1.519 2.9,2.709 0.2,0.73 0.4,0.95 1.03,1.12 0.43,0.12 12.32,3.36 26.52,7.21 l 25.7,7 0.3,1.71 c 0.9,5.15 3.2,13.03 5.3,18.17 2.9,7.2 7.1,13.41 11.4,16.64 l 1.5,1.14 1.2,-0.32 c 2.6,-0.65 4.5,0.56 5,3.08 0.2,1.26 -0.6,2.98 -1.7,3.64 l -0.8,0.51 v 14.88 14.86 l -1,2.8 c -4.2,11.1 -13.1,27.3 -21.7,39.1 -13.1,17.9 -27.8,30.9 -43.6,38.7 -2,0.9 -4.7,2.1 -6.14,2.7 -2.51,1 -2.63,1.1 -2.94,2 -0.47,1.3 -1.99,2.7 -2.97,2.7 -0.17,0 -0.26,-1.3 -0.26,-3.7 z"
         style="fill:#000000;stroke:#000000;stroke-width:1.4998;stroke-linecap:round;stroke-linejoin:round;stroke-miterlimit:4;stroke-dasharray:none;stroke-opacity:1" />
    <path
         transform="matrix(0.3405,0,0,0.3405,-57.28,-46.04)"
         inkscape:connector-curvature="0"
         id="path1759"
         d="m 88.95,189.8 c -1,-0.5 -2.04,-2 -2.04,-2.9 0,-0.3 -0.34,-0.5 -1.26,-0.9 -2.23,-0.7 -5.79,-2.3 -8.92,-3.9 -21.92,-11 -42.39,-33.3 -57.39,-62.6 -3.01,-5.8 -5.35,-11 -6.86,-15.1 L 11.5,101.7 V 86.98 c 0,-14.57 0,-14.79 -0.48,-14.94 -0.78,-0.24 -1.746,-1.72 -1.876,-2.86 -0.149,-1.33 0.601,-2.91 1.706,-3.56 0.96,-0.61 2.64,-0.63 3.58,-0.1 0.61,0.36 0.77,0.36 1.37,0 1.21,-0.6 5.5,-5.14 7.03,-7.39 4.6,-6.79 8.4,-16.88 10.62,-28.22 l 0.41,-2.07 25.36,-6.9 c 30.67,-8.33 27.69,-7.48 27.69,-7.93 0,-0.82 1.07,-2.26 2.04,-2.74 l 0.99,-0.489 0.1,3.669 c 0,2.02 0,3.72 0,3.78 -0.15,0.15 -1.48,-0.57 -1.97,-1.07 -0.41,-0.4 -0.6,-0.38 -3.73,0.45 -4,1.06 -46.34,12.49 -47.57,12.85 l -0.88,0.26 -0.55,2.58 C 34.2,37.47 32,44.55 30.05,49.28 26.87,56.94 22.37,63.44 17.76,67 c -1.24,0.95 -1.41,1.16 -1.41,1.92 0,0.48 -0.12,1.09 -0.27,1.38 -0.4,0.77 -1.47,1.86 -1.84,1.86 -0.26,0 -0.31,2.65 -0.26,15.09 l 0.1,15.15 1.57,3.8 c 1.92,4.8 6.94,14.9 9.94,20.1 13.05,22.6 29.08,40 46.44,50.5 3.54,2.1 10.3,5.5 13.51,6.7 l 2.08,0.7 0.51,-0.5 c 0.53,-0.5 1.7,-1.1 1.89,-0.9 0.1,0.1 0.1,1.7 0,3.8 l -0.1,3.6 z"
         style="fill:#000000;stroke:#000000;stroke-width:1.5;stroke-linecap:round;stroke-linejoin:round;stroke-miterlimit:4;stroke-dasharray:none;stroke-opacity:1" />
    <path
         transform="matrix(0.3405,0,0,0.3405,-57.28,-46.04)"
         inkscape:connector-curvature="0"
         id="path1761"
         d="m 85.07,182.4 c -2.79,-1.1 -10.35,-5 -13,-6.6 C 57.91,167.2 44.19,153.3 32.38,135.6 27.28,128 20.2,114.8 16.52,106 L 14.9,102.2 V 87.44 c 0,-12.39 0,-14.77 0.34,-14.86 0.59,-0.25 1.64,-1.82 1.87,-2.84 0.18,-0.8 0.75,-1.5 3.33,-4.07 5.71,-5.68 9.37,-12.2 12.88,-22.94 1.28,-3.92 3.16,-10.93 3.16,-11.77 0,-0.57 -0.75,-0.33 11.88,-3.75 27.54,-7.44 38.36,-10.33 38.7,-10.33 0.22,0 0.85,0.28 1.4,0.61 0.59,0.33 1.31,0.61 1.63,0.61 0.31,0 0.85,0 1.16,0 0.32,0 0.97,-0.26 1.46,-0.58 l 0.89,-0.59 4.61,1.16 c 8.09,2.05 45.89,12.28 46.09,12.47 0.1,0 0.6,2.19 1.3,4.77 1.4,5.62 2.3,8.41 4,12.94 3.3,8.29 7.4,14.6 12.1,18.6 1.6,1.33 2.1,1.84 2.1,2.35 0,0.87 1.2,2.98 2,3.4 l 0.6,0.33 v 14 13.95 l -0.9,2.6 c -3.8,10.1 -11.8,25 -19.3,35.6 -10.6,15.2 -21.6,26.3 -34,34.5 -6,4.1 -10.3,6.3 -16.17,8.7 -2.16,0.8 -2.43,0.9 -2.79,0.6 -1.21,-1.1 -3.76,-1.2 -5.12,-0.2 -0.38,0.3 -0.8,0.5 -0.89,0.5 -0.1,0 -1.07,-0.4 -2.16,-0.8 z"
         style="fill:#502d16;stroke:#000000;stroke-width:0.9999;stroke-linecap:round;stroke-linejoin:round;stroke-miterlimit:4;stroke-dasharray:none;stroke-opacity:1" />
</svg>
