<?xml version="1.0" encoding="UTF-8" standalone="no"?>
<svg
     xmlns:dc="http://purl.org/dc/elements/1.1/"
     xmlns:cc="http://creativecommons.org/ns#"
     xmlns:rdf="http://www.w3.org/1999/02/22-rdf-syntax-ns#"
     xmlns:svg="http://www.w3.org/2000/svg"
     xmlns="http://www.w3.org/2000/svg"
     xmlns:sodipodi="http://sodipodi.sourceforge.net/DTD/sodipodi-0.dtd"
     xmlns:inkscape="http://www.inkscape.org/namespaces/inkscape"
     sodipodi:docname="shield_3.svg"
     inkscape:version="1.1-dev (1:0.92.0+devel+202003131352+8c7fb13)"
     id="svg1482"
     version="1.1"
     viewBox="0 0 13.23 14.65"
     height="14.65mm"
     width="13.23mm">
    <defs
         id="defs1476" />
    <sodipodi:namedview
         inkscape:window-maximized="1"
         inkscape:window-y="27"
         inkscape:window-x="0"
         inkscape:window-height="983"
         inkscape:window-width="1920"
         showgrid="false"
         inkscape:current-layer="layer1"
         inkscape:document-units="mm"
         inkscape:cy="347.7"
         inkscape:cx="1242"
         inkscape:zoom="0.35"
         inkscape:pageshadow="2"
         inkscape:pageopacity="0.0"
         borderopacity="1.0"
         bordercolor="#666666"
         pagecolor="#ffffff"
         id="base" />
    <metadata
         id="metadata1479">
        <rdf:RDF>
            <cc:Work
                 rdf:about="">
                <dc:format>image/svg+xml</dc:format>
                <dc:type
                     rdf:resource="http://purl.org/dc/dcmitype/StillImage" />
                <dc:title></dc:title>
            </cc:Work>
        </rdf:RDF>
    </metadata>
    <g
         transform="translate(222.8,-56.17)"
         id="layer1"
         inkscape:groupmode="layer"
         inkscape:label="Layer 1">
        <g
             id="g1199"
             transform="matrix(0.2977,0,0,0.2982,-215.7,64.56)"
             style="stroke-width:3.3555">
            <path
                 style="fill:#000000;stroke:#000000;stroke-width:1.33162;stroke-linecap:round;stroke-linejoin:round;stroke-miterlimit:4;stroke-dasharray:none;stroke-opacity:1"
                 d="m -1.687,19.28 v -1.01 l 0.177,0.1 c 0.1,0 0.252,0.1 0.344,0.18 l 0.1696,0.16 0.5689,-0.21 C 5.724,16.08 11.33,10.63 15.75,2.714 16.73,1.02 17.82,-1.308 18.32,-2.684 l 0.21,-0.608 V -7.087 -10.9 l -0.24,-0.13 c -0.26,-0.16 -0.5,-0.64 -0.45,-0.87 0,-0.12 0,-0.19 -0.23,-0.35 -1.99,-1.41 -3.6,-4.45 -4.61,-8.59 -0.13,-0.59 -0.26,-1.13 -0.29,-1.21 0,-0.16 0.82,0.1 -7.091,-2.05 -5.1415,-1.39 -6.5836,-1.76 -6.66,-1.7 -0.276,0.2 -0.492,0.32 -0.567,0.33 -0.06,0 -0.08,-0.24 -0.08,-1 0,-0.66 0.03,-0.99 0.07,-0.99 0.251,0 0.6851,0.4 0.7672,0.71 0.053,0.2 0.1058,0.25 0.2725,0.3 0.1138,0 3.2603,0.89 7.0173,1.91 l 6.801,1.85 0.1,0.45 c 0.24,1.36 0.85,3.45 1.4,4.81 0.77,1.91 1.88,3.55 3.02,4.4 l 0.39,0.3 0.32,-0.1 c 0.69,-0.17 1.19,0.15 1.32,0.81 0.1,0.34 -0.15,0.79 -0.45,0.97 l -0.21,0.13 v 3.94 3.932 l -0.26,0.741 C 17.74,0.6501 15.38,4.937 13.11,8.059 9.641,12.8 5.751,16.23 1.57,18.3 c -0.529,0.24 -1.2434,0.55 -1.6244,0.71 -0.6641,0.27 -0.6959,0.29 -0.7779,0.53 -0.1244,0.35 -0.5267,0.72 -0.7857,0.72 -0.04,0 -0.07,-0.35 -0.07,-0.98 z"
                 id="path1755"
                 inkscape:connector-curvature="0" />
            <path
                 style="fill:#000000;stroke:#000000;stroke-width:1.3318;stroke-linecap:round;stroke-linejoin:round;stroke-miterlimit:4;stroke-dasharray:none;stroke-opacity:1"
                 d="m -2.174,20.15 c -0.264,-0.13 -0.54,-0.53 -0.54,-0.77 0,-0.1 -0.09,-0.13 -0.333,-0.23 -0.59,-0.19 -1.532,-0.61 -2.36,-1.04 C -11.21,15.2 -16.62,9.302 -20.59,1.55 c -0.8,-1.535 -1.42,-2.911 -1.82,-3.996 l -0.26,-0.714 v -3.895 c 0,-3.855 0,-3.915 -0.12,-3.955 -0.21,-0.1 -0.47,-0.45 -0.5,-0.75 0,-0.36 0.16,-0.77 0.45,-0.95 0.25,-0.16 0.7,-0.16 0.95,0 0.16,0.1 0.2,0.1 0.36,0 0.32,-0.16 1.46,-1.36 1.86,-1.96 1.22,-1.8 2.22,-4.47 2.81,-7.47 l 0.11,-0.54 6.71,-1.83 c 8.115,-2.2 7.326,-1.98 7.326,-2.1 0,-0.21 0.284,-0.6 0.54,-0.72 l 0.262,-0.13 0.03,0.97 c 0,0.53 0,0.98 0,1 -0.04,0 -0.392,-0.15 -0.522,-0.28 -0.108,-0.11 -0.158,-0.1 -0.987,0.12 -1.058,0.28 -12.269,3.3 -12.589,3.4 l -0.23,0.1 -0.15,0.69 c -0.3,1.36 -0.88,3.24 -1.4,4.49 -0.84,2.03 -2.03,3.75 -3.25,4.69 -0.33,0.25 -0.37,0.31 -0.37,0.51 0,0.12 0,0.28 -0.1,0.36 -0.1,0.21 -0.38,0.49 -0.48,0.49 -0.1,0 -0.1,0.7 -0.1,3.996 v 4.009 l 0.41,1.006 c 0.51,1.2696 1.84,3.942 2.63,5.318 3.45,5.98 7.7,10.581 12.292,13.361 0.937,0.56 2.726,1.46 3.575,1.77 l 0.55,0.19 0.135,-0.13 c 0.14,-0.14 0.45,-0.29 0.5,-0.24 0.03,0 0.03,0.45 0,1 l -0.03,0.96 z"
                 id="path1759"
                 inkscape:connector-curvature="0" />
            <path
                 style="fill:#8e4110;fill-opacity:1;stroke:#000000;stroke-width:0.8878;stroke-linecap:round;stroke-linejoin:round;stroke-miterlimit:4;stroke-dasharray:none;stroke-opacity:1"
                 d="m -3.2,18.19 c -0.739,-0.29 -2.739,-1.32 -3.44,-1.74 -3.75,-2.28 -7.38,-5.96 -10.5,-10.64 -1.35,-2.011 -3.23,-5.5039 -4.2,-7.832 l -0.43,-1.006 v -3.905 c 0,-3.277 0,-3.907 0.1,-3.937 0.16,-0.1 0.44,-0.48 0.5,-0.75 0,-0.21 0.2,-0.39 0.88,-1.07 1.51,-1.51 2.48,-3.23 3.41,-6.07 0.34,-1.04 0.83,-2.9 0.83,-3.12 0,-0.15 -0.2,-0.1 3.15,-0.99 7.283,-1.97 10.146,-2.73 10.236,-2.73 0.06,0 0.225,0.1 0.371,0.16 0.156,0.1 0.346,0.16 0.431,0.16 0.08,0 0.225,0 0.307,0 0.08,0 0.256,-0.1 0.386,-0.15 l 0.2356,-0.16 1.2198,0.31 c 2.1406,0.54 12.1436,3.25 12.1936,3.3 0,0 0.16,0.58 0.35,1.26 0.37,1.49 0.6,2.22 1.05,3.42 0.88,2.2 1.96,3.87 3.21,4.92 0.42,0.36 0.55,0.49 0.55,0.63 0,0.23 0.32,0.78 0.53,0.9 l 0.16,0.1 v 3.707 3.691 l -0.24,0.688 c -1,2.6726 -3.12,6.615 -5.11,9.42 -2.8,4.024 -5.711,6.954 -8.992,9.124 -1.587,1.09 -2.725,1.67 -4.2785,2.31 -0.5715,0.21 -0.6429,0.23 -0.7385,0.16 -0.32,-0.3 -0.995,-0.32 -1.354,-0.1 -0.101,0.1 -0.212,0.13 -0.236,0.13 -0.03,0 -0.283,-0.1 -0.571,-0.21 z"
                 id="path1761"
                 inkscape:connector-curvature="0" />
        </g>
    </g>
</svg>
