<?xml version="1.0" encoding="utf-8" ?>
<svg baseProfile="full" height="32px" version="1.1" viewBox="0.0,0.0,1238.000200000001,195.0" width="200px" xmlns="http://www.w3.org/2000/svg" xmlns:ev="http://www.w3.org/2001/xml-events" xmlns:xlink="http://www.w3.org/1999/xlink">
  <defs/>
  <path d="M 2.0,146.04772 L 2.0,97.09543 L 8.072756,96.79772 L 14.145512,96.5 L 10.437302,91.74784 C 8.397786,89.13416 5.215046,86.05996 3.364546,84.91628 L 0.0,82.83688 L 0.0,56.54734 L 0.0,30.2578 L 3.522624,27.8789 C 6.973505,25.54845 14.532954,16.70574 16.883447,12.25 L 18.070368,10.0 L 184.38021,10.0 L 350.69002,10.0 L 352.59501,7.8536 C 353.64276,6.673080000000001 356.25502,4.423080000000001 358.40004,2.8536 L 362.30008,0.0 L 398.0,0.0 L 433.69992,0.0 L 437.59996,2.8339 C 443.19178,6.89712 452.56838,17.32424 456.04167,23.34175 C 457.67919,26.17879 460.20786,32.1 461.66093,36.5 C 465.34095,47.64345 465.55025,63.97524 462.15431,75.0 C 459.42643,83.85597 455.26968,91.71336 449.89187,98.1794 C 447.75133999999997,100.75308 446.0,103.31722 446.0,103.87749 C 446.0,105.54526 455.73394,116.72943 458.72916,118.50314 L 461.5,120.14396 L 461.5,146.52971000000002 L 461.5,172.91545000000002 L 458.0,175.49608000000003 C 454.75476,177.88887000000003 450.63182,182.54965000000004 445.83328,189.25000000000003 L 443.86381,192.0 L 456.43191,192.0 L 469.0,192.0 L 469.0,104.53446 L 469.0,17.06891 L 474.79721,12.980609999999999 C 477.98568,10.732039999999998 481.69191,7.116529999999998 483.03328,4.946149999999999 C 484.77154,2.1335899999999994 486.1943,0.9704899999999994 487.98607,0.897289999999999 C 489.36872999999997,0.840789999999999 499.58141,0.6607199999999991 510.6809,0.49710999999999905 L 530.86181,0.19962999999999903 L 535.51499,6.122389999999999 C 538.07425,9.3799 541.93034,12.94413 544.0841,14.0429 C 548.56488,16.32883 548.13648,13.38298 548.1862600000001,42.25 C 548.2097600000001,55.88329 548.47424,59.0 549.60757,59.0 C 550.7532,59.0 551.0,55.28399 551.0,38.03446 L 551.0,17.06891 L 556.79721,12.980609999999999 C 559.98568,10.732039999999998 563.69191,7.116529999999998 565.03328,4.946149999999999 C 566.77154,2.1335899999999994 568.1943,0.9704899999999994 569.98608,0.897289999999999 C 571.36874,0.840789999999999 581.58141,0.6607199999999991 592.68091,0.49710999999999905 L 612.8618200000001,0.19962999999999903 L 617.5150000000001,6.122389999999999 C 620.0742500000001,9.3799 623.9303400000001,12.94413 626.0841000000001,14.0429 C 630.5648900000001,16.32883 630.1364800000001,13.38298 630.1862600000002,42.25 C 630.2097600000002,55.88329 630.4742400000001,59.0 631.6075800000002,59.0 C 632.7532100000002,59.0 633.0000100000002,55.28399 633.0000100000002,38.034459999999996 L 633.0000100000002,17.06891 L 638.7972200000002,12.980609999999999 C 641.9856900000002,10.732039999999998 645.6919200000002,7.116529999999998 647.0332900000002,4.946149999999999 C 648.7715500000002,2.1335899999999994 650.1943100000002,0.9704899999999994 651.9860800000002,0.897289999999999 C 653.3687400000002,0.840789999999999 663.5814200000002,0.6607199999999991 674.6809100000003,0.49710999999999905 L 694.8618200000003,0.19962999999999903 L 699.5150000000003,6.122389999999999 C 702.0742500000003,9.3799 705.9303400000003,12.94413 708.0841000000004,14.0429 C 712.5648900000003,16.32883 712.1364800000003,13.38298 712.1862600000004,42.25 C 712.2097600000004,55.88329 712.4742400000003,59.0 713.6075800000004,59.0 C 714.7521300000004,59.0 715.0000100000004,55.35671 715.0000100000004,38.534459999999996 L 715.0000100000004,18.06891 L 720.7972200000004,13.980609999999999 C 723.9856900000004,11.732039999999998 727.6919200000004,8.116529999999997 729.0332900000004,5.946149999999999 C 730.7715500000004,3.1335899999999994 732.1943100000004,1.9704899999999994 733.9860800000005,1.897289999999999 C 735.3687400000005,1.840789999999999 745.5814200000004,1.660719999999999 756.6809100000005,1.497109999999999 L 776.8618200000005,1.199629999999999 L 781.5150000000006,7.122389999999999 C 784.0742500000006,10.3799 787.9303400000006,13.94413 790.0841000000006,15.0429 C 794.5569700000005,17.32479 794.1214900000006,14.38988 794.1952400000006,42.75 C 794.2294400000006,55.88649 794.5021500000006,59.0 795.6187600000006,59.0 C 796.7487700000006,59.0 797.0000100000007,55.27742 797.0000100000007,38.534459999999996 L 797.0000100000007,18.06891 L 802.7972200000006,13.980609999999999 C 805.9856900000007,11.732039999999998 809.6919200000007,8.116529999999997 811.0332900000006,5.946149999999999 C 812.7715500000006,3.1335899999999994 814.1943100000007,1.9704899999999994 815.9860800000007,1.897289999999999 C 817.3687400000007,1.840789999999999 827.5814200000007,1.660719999999999 838.6809100000007,1.497109999999999 L 858.8618200000008,1.199629999999999 L 863.5150000000008,7.122389999999999 C 866.0742500000008,10.3799 869.9303400000008,13.94413 872.0841000000008,15.0429 C 876.5569700000008,17.32479 876.1214900000008,14.38988 876.1952400000008,42.75 C 876.2294400000009,55.88649 876.5021500000008,59.0 877.6187600000009,59.0 C 878.7487700000008,59.0 879.0000100000009,55.27742 879.0000100000009,38.534459999999996 L 879.0000100000009,18.06891 L 884.7972200000008,13.980609999999999 C 887.9856900000009,11.732039999999998 891.6919200000009,8.116529999999997 893.0332900000009,5.946149999999999 C 894.7715500000008,3.1335899999999994 896.1943100000009,1.9704899999999994 897.9860800000009,1.897289999999999 C 899.3687400000009,1.840789999999999 909.5814200000009,1.660719999999999 920.680910000001,1.497109999999999 L 940.861820000001,1.199629999999999 L 945.515000000001,7.122389999999999 C 948.074250000001,10.3799 951.930340000001,13.94413 954.0841000000011,15.0429 C 958.556970000001,17.32479 958.121490000001,14.38988 958.195240000001,42.75 C 958.218440000001,51.6875 958.6340700000011,59.0 959.1187600000011,59.0 C 959.6034500000011,59.0 960.0000100000011,49.5655 960.0000100000011,38.034459999999996 L 960.0000100000011,17.06891 L 965.7972200000011,12.980609999999999 C 968.9856900000011,10.732039999999998 972.6919200000011,7.116529999999998 974.0332900000011,4.946149999999999 C 975.7715500000011,2.1335899999999994 977.1943100000011,0.9704899999999994 978.9860800000012,0.897289999999999 C 980.3687400000011,0.840789999999999 990.5814200000011,0.6607199999999991 1001.6809000000012,0.49710999999999905 L 1021.8618000000012,0.19962999999999903 L 1026.5150000000012,6.122389999999999 C 1029.0742000000012,9.3799 1032.9303000000011,12.94413 1035.0841000000012,14.0429 C 1039.5649000000012,16.32883 1039.1365000000012,13.38298 1039.1863000000012,42.25 C 1039.210300000001,55.88329 1039.4742000000012,59.0 1040.6076000000012,59.0 C 1041.7532000000012,59.0 1042.0000000000011,55.28399 1042.0000000000011,38.034459999999996 L 1042.0000000000011,17.06891 L 1047.797200000001,12.980609999999999 C 1050.985700000001,10.732039999999998 1054.6919000000012,7.116529999999998 1056.0333000000012,4.946149999999999 C 1057.7715000000012,2.1335899999999994 1059.1943000000012,0.9704899999999994 1060.9861000000012,0.897289999999999 C 1062.3687000000011,0.840789999999999 1072.5814000000012,0.6607199999999991 1083.6809000000012,0.49710999999999905 L 1103.8618000000013,0.19962999999999903 L 1108.5150000000012,6.122389999999999 C 1111.0742000000012,9.3799 1114.9303000000011,12.94413 1117.0841000000012,14.0429 C 1121.5649000000012,16.32883 1121.1365000000012,13.38298 1121.1863000000012,42.25 C 1121.210300000001,55.88329 1121.4742000000012,59.0 1122.6076000000012,59.0 C 1123.7532000000012,59.0 1124.0000000000011,55.28399 1124.0000000000011,38.034459999999996 L 1124.0000000000011,17.06891 L 1129.797200000001,12.980609999999999 C 1132.985700000001,10.732039999999998 1136.6919000000012,7.116529999999998 1138.0333000000012,4.946149999999999 C 1139.7715000000012,2.1335899999999994 1141.1943000000012,0.9704899999999994 1142.9861000000012,0.897289999999999 C 1144.3687000000011,0.840789999999999 1154.5814000000012,0.6607199999999991 1165.6809000000012,0.49710999999999905 L 1185.8618000000013,0.19962999999999903 L 1190.5150000000012,6.122389999999999 C 1193.0742000000012,9.3799 1196.9303000000011,12.94413 1199.0841000000012,14.0429 C 1203.5649000000012,16.32883 1203.1365000000012,13.38298 1203.1863000000012,42.25 L 1203.2153000000012,59.0 L 1211.6078000000011,59.0 L 1220.000200000001,59.0 L 1220.000200000001,61.77749 C 1220.000200000001,63.30511 1220.6619000000012,65.49965 1221.470600000001,66.65423 C 1223.319400000001,69.29387 1231.609900000001,74.63853 1235.250200000001,75.53761 L 1238.000200000001,76.21681 L 1238.000200000001,135.60841 L 1238.000200000001,195.0 L 620.00021,195.0 L 2.0002,195.0 L 2.0002,146.04772 L 2.0,146.04772" fill="none" stroke="#000000" stroke-width="1.2380002000000012"/>
  <path d="M 58.824959,191.77504 C 59.781215,190.81878999999998 60.47166,190.81346 61.972542,191.75073999999998 C 63.42013,192.65476999999998 65.32880399999999,192.68713999999997 69.697582,191.88173999999998 C 81.02439199999999,189.79361999999998 78.682914,189.06108999999998 60.583332999999996,189.03036999999998 C 50.729167,189.01367 42.97466299999999,189.30795999999998 43.351102999999995,189.68439999999998 C 43.95580999999999,190.2891 53.783013,192.69529999999997 56.55,192.91615 C 57.1275,192.96224999999998 58.151232,192.44872999999998 58.824959,191.77499999999998 L 58.824959,191.77504" fill="none" stroke="#000000" stroke-width="1.2380002000000012"/>
  <path d="M 40.269031999999996,191.34405999999998 C 39.591998999999994,191.07013999999998 38.24199899999999,191.05346999999998 37.269031999999996,191.30695999999998 C 36.296064,191.5605 36.85,191.78462 38.5,191.805 C 40.15,191.8254 40.946064,191.61794 40.269032,191.34401 L 40.269031999999996,191.34405999999998" fill="none" stroke="#000000" stroke-width="1.2380002000000012"/>
  <path d="M 84.269032,191.34405999999998 C 83.591999,191.07013999999998 82.24199899999999,191.05346999999998 81.269032,191.30695999999998 C 80.296064,191.5605 80.85,191.78462 82.5,191.805 C 84.15,191.8254 84.946064,191.61794 84.269032,191.34401 L 84.269032,191.34405999999998" fill="none" stroke="#000000" stroke-width="1.2380002000000012"/>
  <path d="M 544.0,159.5 L 544.0,127.0 L 508.5,127.0 L 473.0,127.0 L 473.0,159.5 L 473.0,192.0 L 508.5,192.0 L 544.0,192.0 L 544.0,159.5" fill="none" stroke="#000000" stroke-width="1.2380002000000012"/>
  <path d="M 551.0,159.5 C 551.0,131.27778 550.80257,127.0 549.5,127.0 C 548.19745,127.0 548.0,131.27778 548.0,159.5 C 548.0,187.72222 548.19745,192.0 549.5,192.0 C 550.80257,192.0 551.0,187.72222 551.0,159.5" fill="none" stroke="#000000" stroke-width="1.2380002000000012"/>
  <path d="M 626.0,159.5 L 626.0,127.0 L 590.5,127.0 L 555.0,127.0 L 555.0,159.5 L 555.0,192.0 L 590.5,192.0 L 626.0,192.0 L 626.0,159.5" fill="none" stroke="#000000" stroke-width="1.2380002000000012"/>
  <path d="M 633.0,159.5 C 633.0,131.27778 632.80256,127.0 631.5,127.0 C 630.19745,127.0 630.0,131.27778 630.0,159.5 C 630.0,187.72222 630.19745,192.0 631.5,192.0 C 632.80256,192.0 633.0,187.72222 633.0,159.5" fill="none" stroke="#000000" stroke-width="1.2380002000000012"/>
  <path d="M 708.0,159.5 L 708.0,127.0 L 672.5,127.0 L 637.0,127.0 L 637.0,159.5 L 637.0,192.0 L 672.5,192.0 L 708.0,192.0 L 708.0,159.5" fill="none" stroke="#000000" stroke-width="1.2380002000000012"/>
  <path d="M 715.0,159.5 C 715.0,131.27778 714.80256,127.0 713.5,127.0 C 712.19745,127.0 712.0,131.27778 712.0,159.5 C 712.0,187.72222 712.19745,192.0 713.5,192.0 C 714.80256,192.0 715.0,187.72222 715.0,159.5" fill="none" stroke="#000000" stroke-width="1.2380002000000012"/>
  <path d="M 790.0,159.5 L 790.0,127.0 L 754.5,127.0 L 719.0,127.0 L 719.0,159.5 L 719.0,192.0 L 754.5,192.0 L 790.0,192.0 L 790.0,159.5" fill="none" stroke="#000000" stroke-width="1.2380002000000012"/>
  <path d="M 797.0,159.5 C 797.0,131.27778 796.80256,127.0 795.5,127.0 C 794.19745,127.0 794.0,131.27778 794.0,159.5 C 794.0,187.72222 794.19745,192.0 795.5,192.0 C 796.80256,192.0 797.0,187.72222 797.0,159.5" fill="none" stroke="#000000" stroke-width="1.2380002000000012"/>
  <path d="M 872.0,159.5 L 872.0,127.0 L 836.5,127.0 L 801.0,127.0 L 801.0,159.5 L 801.0,192.0 L 836.5,192.0 L 872.0,192.0 L 872.0,159.5" fill="none" stroke="#000000" stroke-width="1.2380002000000012"/>
  <path d="M 879.0,159.5 C 879.0,131.27778 878.80256,127.0 877.5,127.0 C 876.19745,127.0 876.0,131.27778 876.0,159.5 C 876.0,187.72222 876.19745,192.0 877.5,192.0 C 878.80256,192.0 879.0,187.72222 879.0,159.5" fill="none" stroke="#000000" stroke-width="1.2380002000000012"/>
  <path d="M 954.0,159.5 L 954.0,127.0 L 918.5,127.0 L 883.0,127.0 L 883.0,159.5 L 883.0,192.0 L 918.5,192.0 L 954.0,192.0 L 954.0,159.5" fill="none" stroke="#000000" stroke-width="1.2380002000000012"/>
  <path d="M 960.0,159.5 C 960.0,138.5 959.64616,127.0 959.0,127.0 C 958.35385,127.0 958.0,138.5 958.0,159.5 C 958.0,180.5 958.35385,192.0 959.0,192.0 C 959.64616,192.0 960.0,180.5 960.0,159.5" fill="none" stroke="#000000" stroke-width="1.2380002000000012"/>
  <path d="M 1035.0,159.5 L 1035.0,127.0 L 999.5,127.0 L 964.0,127.0 L 964.0,159.5 L 964.0,192.0 L 999.5,192.0 L 1035.0,192.0 L 1035.0,159.5" fill="none" stroke="#000000" stroke-width="1.2380002000000012"/>
  <path d="M 1042.0,159.5 C 1042.0,131.27778 1041.8026,127.0 1040.5,127.0 C 1039.1974,127.0 1039.0,131.27778 1039.0,159.5 C 1039.0,187.72222 1039.1974,192.0 1040.5,192.0 C 1041.8026,192.0 1042.0,187.72222 1042.0,159.5" fill="none" stroke="#000000" stroke-width="1.2380002000000012"/>
  <path d="M 1117.0,159.5 L 1117.0,127.0 L 1081.5,127.0 L 1046.0,127.0 L 1046.0,159.5 L 1046.0,192.0 L 1081.5,192.0 L 1117.0,192.0 L 1117.0,159.5" fill="none" stroke="#000000" stroke-width="1.2380002000000012"/>
  <path d="M 1124.0,159.5 C 1124.0,131.27778 1123.8026,127.0 1122.5,127.0 C 1121.1974,127.0 1121.0,131.27778 1121.0,159.5 C 1121.0,187.72222 1121.1974,192.0 1122.5,192.0 C 1123.8026,192.0 1124.0,187.72222 1124.0,159.5" fill="none" stroke="#000000" stroke-width="1.2380002000000012"/>
  <path d="M 1199.0,159.5 L 1199.0,127.0 L 1163.5,127.0 L 1128.0,127.0 L 1128.0,159.5 L 1128.0,192.0 L 1163.5,192.0 L 1199.0,192.0 L 1199.0,159.5" fill="none" stroke="#000000" stroke-width="1.2380002000000012"/>
  <path d="M 1228.0,159.5 L 1228.0,127.0 L 1215.5,127.0 L 1203.0,127.0 L 1203.0,159.5 L 1203.0,192.0 L 1215.5,192.0 L 1228.0,192.0 L 1228.0,159.5" fill="none" stroke="#000000" stroke-width="1.2380002000000012"/>
  <path d="M 1233.0,159.5 C 1233.0,131.27778 1232.8026,127.0 1231.5,127.0 C 1230.1974,127.0 1230.0,131.27778 1230.0,159.5 C 1230.0,187.72222 1230.1974,192.0 1231.5,192.0 C 1232.8026,192.0 1233.0,187.72222 1233.0,159.5" fill="none" stroke="#000000" stroke-width="1.2380002000000012"/>
  <path d="M 29.355644,188.34538 C 36.218802000000004,182.55116 38.725772,182.04392 60.5,182.04392 C 82.357754,182.04392 84.76558299999999,182.53845 91.793847,188.47117 C 94.590715,190.83207 95.709258,191.16821 99.20727,190.69902 C 104.21024,190.02799 107.68442999999999,187.57804 110.14855999999999,182.98342 C 111.83731999999999,179.83454 111.99999999999999,176.78578 111.99999999999999,148.28584 C 111.99999999999999,121.86624 111.75075999999999,116.41757000000001 110.38626,113.00734 C 108.44484,108.15525 104.72144999999999,105.29891 99.18359,104.41337 C 95.629964,103.84512 94.63537099999999,104.13021 91.788862,106.53303 C 84.766104,112.46112 82.355018,112.95608 60.49999999999999,112.95608 C 38.64224599999999,112.95608 36.23441699999999,112.46155 29.206152999999993,106.52883 C 26.409284999999993,104.16793 25.290741999999995,103.83179 21.792728999999994,104.30098 C 16.789763999999995,104.97201 13.315566999999994,107.42196 10.851443999999994,112.01657999999999 C 9.16268,115.16546 9.0,118.21422 9.0,146.71416 C 9.0,173.13376 9.249238,178.58243 10.613739,181.99266 C 13.913798,190.24032 23.330432000000002,193.43216 29.355643999999998,188.34538 L 29.355644,188.34538" fill="none" stroke="#000000" stroke-width="1.2380002000000012"/>
  <path d="M 420.47148999999996,185.55503000000002 C 423.51217999999994,184.21029000000001 425.99999999999994,182.86029000000002 425.99999999999994,182.55503000000002 C 426.0,182.24976 356.925,182.0 272.5,182.0 L 119.0,182.0 L 119.0,185.0 L 119.0,188.0 L 266.97149,188.0 L 414.94297000000006,188.0 L 420.47148999999996,185.55503000000002" fill="none" stroke="#000000" stroke-width="1.2380002000000012"/>
  <path d="M 445.30333999999993,181.51019000000002 C 447.94517999999994,177.94081000000003 451.6576799999999,173.83741000000003 453.55333999999993,172.39152 C 455.78131999999994,170.69215000000003 456.99999999999994,168.92063000000002 456.99999999999994,167.38131 C 456.99999999999994,164.33031000000003 455.65923999999995,164.34493 453.64574999999996,167.41791 C 451.28407999999996,171.02227 441.12224999999995,178.50506000000001 431.77000999999996,183.52635 L 423.49999999999994,187.96659 L 431.99999999999994,187.98328999999998 L 440.49999999999994,187.99998999999997 L 445.30333999999993,181.51020999999997 L 445.30333999999993,181.51019000000002" fill="none" stroke="#000000" stroke-width="1.2380002000000012"/>
  <path d="M 125.0,146.43358 L 125.0,113.86716000000001 L 122.25,114.18358 L 119.5,114.5 L 119.2352,145.49024 C 119.08956,162.53488 119.1879,177.04738 119.45382000000001,177.74024 C 119.71969000000001,178.43311 121.07635,179.0 122.46862,179.0 L 125.0,179.0 L 125.0,146.43358" fill="none" stroke="#000000" stroke-width="1.2380002000000012"/>
  <path d="M 439.4379,175.49744 C 445.67107,171.36010000000002 454.59296,162.20082000000002 456.00333,158.49124 C 456.55151,157.04945 457.0,151.4872 457.0,146.13068 C 457.0,137.11193 456.78804,136.06272 454.13442,131.94578 C 450.72562999999997,126.65723000000001 447.52619,123.61355000000002 439.58421999999996,118.10396000000001 L 433.66843,114.0 L 280.83422,114.0 L 128.0,114.0 L 128.0,146.5 L 128.0,179.0 L 281.08053,179.0 L 434.16106,179.0 L 439.4379,175.49744" fill="none" stroke="#000000" stroke-width="1.2380002000000012"/>
  <path d="M 144.86078,156.08608 C 141.98366000000001,153.75355000000002 143.08919,152.17459000000002 146.37008,153.93046 C 149.47522,155.59228000000002 152.50001,154.94570000000002 152.50001,152.62012000000001 C 152.50001,151.3369 151.11715,150.25806 148.00001,149.10942 C 142.90576000000001,147.23225 141.62717,144.17445 144.57463,140.91753 C 146.698,138.57125 152.23395000000002,138.3768 154.42857,140.57143 C 157.58973,143.73257999999998 155.25625,145.44687 151.91193,142.4203 C 150.53861,141.17745 149.72216,141.07833 148.0832,141.95548 C 144.91192,143.65269999999998 145.58505,145.71124 149.75001,147.05276999999998 C 154.68327,148.64177999999998 156.00001,149.78252999999998 156.00001,152.46746 C 156.00001,157.50529999999998 149.29721,159.68274 144.86078,156.08607999999998 L 144.86078,156.08608" fill="none" stroke="#000000" stroke-width="1.2380002000000012"/>
  <path d="M 159.0,148.5 L 159.0,139.0 L 163.84501,139.0 C 169.15304,139.0 172.00001,141.01506 172.00001,144.77204 C 172.00001,147.41833 168.43339,150.0 164.7775,150.0 C 162.20375,150.0 162.00001,150.29343 162.00001,154.0 C 162.00001,156.88889 161.58333,158.0 160.50001,158.0 C 159.27194,158.0 159.00001,156.27778 159.0,148.5" fill="none" stroke="#000000" stroke-width="1.2380002000000012"/>
  <path d="M 168.50001,144.5 C 168.50001,142.97454 167.72889,142.42565 165.25001,142.18664 C 162.32866,141.90497000000002 162.00001,142.13894000000002 162.00001,144.5 C 162.00001,146.86109 162.32866,147.09503 165.25001,146.81336 C 167.72889,146.57434999999998 168.50001,146.02545999999998 168.50001,144.5" fill="none" stroke="#000000" stroke-width="1.2380002000000012"/>
  <path d="M 175.00001,148.5 L 175.00001,139.0 L 181.50001,139.0 C 186.61111,139.0 188.00001,139.32051 188.00001,140.5 C 188.00001,141.63333 186.77779,142.0 183.00001,142.0 C 178.33333,142.0 178.00001,142.16667 178.00001,144.5 C 178.00001,146.83333 178.33333,147.0 183.00001,147.0 C 186.77779,147.0 188.00001,147.36667 188.00001,148.5 C 188.00001,149.63333 186.77779,150.0 183.00001,150.0 C 178.33333,150.0 178.00001,150.16667 178.00001,152.5 C 178.00001,154.83333 178.33333,155.0 183.00001,155.0 C 186.77779,155.0 188.00001,155.36667 188.00001,156.5 C 188.00001,157.67949 186.61111,158.0 181.50001,158.0 L 175.00001,158.0 L 175.00001,148.5" fill="none" stroke="#000000" stroke-width="1.2380002000000012"/>
  <path d="M 192.00001,148.5 C 192.00001,140.72222 192.27194,139.0 193.50001,139.0 C 194.70833,139.0 195.00001,140.55556 195.00001,147.0 L 195.00001,155.0 L 199.50001,155.0 C 202.83333,155.0 204.00001,155.38889 204.00001,156.5 C 204.00001,157.66667 202.66668,158.0 198.00001,158.0 L 192.00001,158.0 L 192.00001,148.5" fill="none" stroke="#000000" stroke-width="1.2380002000000012"/>
  <path d="M 206.00001,148.5 C 206.00001,140.72222 206.27194,139.0 207.50001,139.0 C 208.70833,139.0 209.00001,140.55556 209.00001,147.0 L 209.00001,155.0 L 214.00001,155.0 C 217.77779,155.0 219.00001,155.36667 219.00001,156.5 C 219.00001,157.67949 217.61111,158.0 212.50001,158.0 L 206.00001,158.0 L 206.00001,148.5" fill="none" stroke="#000000" stroke-width="1.2380002000000012"/>
  <path d="M 230.00001,157.54274 C 230.00001,157.29124000000002 231.8728,152.99726 234.16176000000002,148.00056 C 236.83478000000002,142.1655 238.82049,139.02017 239.71282000000002,139.20783 C 240.47693,139.36852 243.07765000000003,143.6625 245.49218000000002,148.75 C 249.29046000000002,156.75309 249.63694,158.0 248.06245,158.0 C 246.98326,158.0 245.73693,156.77908 245.00001,155.0 C 243.89448000000002,152.33103 243.28759,152.0 239.50001,152.0 C 235.71242,152.0 235.10553000000002,152.33103 234.00001,155.0 C 233.31656,156.65 232.13696000000002,158.0 231.37869,158.0 C 230.62041,158.0 230.00001,157.79423 230.00001,157.54274" fill="none" stroke="#000000" stroke-width="1.2380002000000012"/>
  <path d="M 242.00001,148.93426 C 242.00001,148.3481 241.49376,146.92257999999998 240.87501,145.76644 C 239.75167,143.66747999999998 239.74801,143.66795 238.41044,146.08218 C 236.52338,149.48820999999998 236.6657,150.0 239.50001,150.0 C 240.87501,150.0 242.00001,149.52042 242.00001,148.93426" fill="none" stroke="#000000" stroke-width="1.2380002000000012"/>
  <path d="M 254.00001,150.06955 C 254.00001,142.6949 253.84781,142.11670999999998 251.82833,141.81955 C 250.63391,141.6438 249.47141,140.9375 249.245,140.25 C 248.94363,139.3349 250.59712000000002,139.0 255.41668,139.0 C 260.60185,139.0 262.0,139.31857 262.0,140.5 C 262.0,141.43333 261.05556,142.0 259.5,142.0 C 257.04167,142.0 257.0,142.13333 257.0,150.0 C 257.0,156.44444 256.70833,158.0 255.50001,158.0 C 254.29276000000002,158.0 254.00001,156.45217 254.00001,150.06955" fill="none" stroke="#000000" stroke-width="1.2380002000000012"/>
  <path d="M 268.0,150.06955 C 268.0,142.6949 267.8478,142.11670999999998 265.82833,141.81955 C 264.63391,141.6438 263.47141,140.9375 263.245,140.25 C 262.94362,139.3349 264.59712,139.0 269.41667,139.0 C 274.60185,139.0 276.0,139.31857 276.0,140.5 C 276.0,141.43333 275.05556,142.0 273.5,142.0 C 271.04167,142.0 271.0,142.13333 271.0,150.0 C 271.0,156.44444 270.70833,158.0 269.5,158.0 C 268.29276,158.0 268.0,156.45217 268.0,150.06955" fill="none" stroke="#000000" stroke-width="1.2380002000000012"/>
  <path d="M 277.59265,152.38642 C 281.87822,142.69597 283.99966,138.99969 285.27033,139.00921 C 286.21296,139.01621 291.93241,149.87339 294.83333,157.16244 C 295.01667,157.6231 294.46572,158.0 293.60901,158.0 C 292.7523,158.0 291.35325,156.65 290.5,155.0 C 289.17364,152.43509 288.37596,152.0 285.0,152.0 C 281.62404,152.0 280.82636,152.43509 279.5,155.0 C 278.64675,156.65 277.30996,158.0 276.52935,158.0 C 275.42991,158.0 275.66953,156.73494 277.59265000000005,152.38642 L 277.59265,152.38642" fill="none" stroke="#000000" stroke-width="1.2380002000000012"/>
  <path d="M 287.96456,149.25 C 287.94506,148.8375 287.32634,147.41198 286.58956,146.08218 C 285.252,143.66795 285.24833,143.66747999999998 284.125,145.76644 C 282.41652,148.95874999999998 282.7547,150.0 285.5,150.0 C 286.875,150.0 287.98405,149.6625 287.96456,149.25" fill="none" stroke="#000000" stroke-width="1.2380002000000012"/>
  <path d="M 301.70393,156.40389 C 296.34544,153.49849999999998 295.4696,146.37657 299.92309,141.92308 C 302.20938,139.63678 303.74511,139.0 306.97275,139.0 C 312.10504000000003,139.0 317.74674000000005,141.65327 316.10509,143.29491 C 315.27215,144.12786 314.18871,143.95197 311.92856,142.61686999999998 C 304.4223,138.18281 296.11619,147.00271999999998 302.31445,152.82568999999998 C 304.89517,155.25014 309.90247,155.70235999999997 312.96809,153.78785 C 315.87984,151.96944 316.85545,153.88395 314.13922,156.08607999999998 C 311.30103,158.38705 305.62889,158.53200999999999 301.70393,156.40389" fill="none" stroke="#000000" stroke-width="1.2380002000000012"/>
  <path d="M 320.0,148.5 C 320.0,140.72222 320.27193,139.0 321.5,139.0 C 322.56328,139.0 323.0,140.07811 323.0,142.70295 L 323.0,146.40589999999997 L 326.79216,142.70295 C 328.95618,140.58985 331.5787,139.0 332.90032,139.0 C 334.90712,139.0 334.51512,139.63042 329.96415,143.72214 L 324.712,148.44428 L 330.04645,153.22214 C 334.46262,157.17753 335.00432,158.0 333.19333,158.0 C 331.99017,158.0 329.20447,156.37264 327.00288,154.38364 L 323.0,150.76728 L 323.0,154.38363999999999 C 323.0,156.93151999999998 322.55681,157.99999999999997 321.5,157.99999999999997 C 320.27193,157.99999999999997 320.0,156.27777999999998 320.0,148.49999999999997 L 320.0,148.5" fill="none" stroke="#000000" stroke-width="1.2380002000000012"/>
  <path d="M 348.0,148.5 L 348.0,139.0 L 352.06574,139.0 C 358.02208,139.0 360.1949,140.47966 359.88207,144.32283 C 359.73983,146.07027000000002 360.17401,148.51250000000002 360.84691,149.75 C 363.23856,154.14835 359.13892,158.0 352.06574,158.0 L 348.0,158.0 L 348.0,148.5" fill="none" stroke="#000000" stroke-width="1.2380002000000012"/>
  <path d="M 357.5,152.0 C 357.5,149.91043 356.96644,149.44855 354.25,149.18664 C 351.20947,148.89348 351.0,149.07481 351.0,152.0 C 351.0,154.92519 351.20947,155.10652 354.25,154.81336 C 356.96644,154.55145 357.5,154.08956999999998 357.5,152.0" fill="none" stroke="#000000" stroke-width="1.2380002000000012"/>
  <path d="M 357.0,144.0 C 357.0,142.44444 356.33333,142.0 354.0,142.0 C 351.66667,142.0 351.0,142.44444 351.0,144.0 C 351.0,145.55556 351.66667,146.0 354.0,146.0 C 356.33333,146.0 357.0,145.55556 357.0,144.0" fill="none" stroke="#000000" stroke-width="1.2380002000000012"/>
  <path d="M 368.88805,156.55684 C 363.01028,153.23522 362.70249,144.37184 368.34543,140.93101 C 378.8351,134.53483 391.20495,146.24958999999998 382.8177,154.63683999999998 C 379.64009,157.81444999999997 372.78537,158.75928 368.88805,156.55683999999997 L 368.88805,156.55684" fill="none" stroke="#000000" stroke-width="1.2380002000000012"/>
  <path d="M 380.17126,153.34501 C 382.51171,151.22693 382.55662,145.78802 380.24996000000004,143.80699 C 377.4976300000001,141.44315 375.29774000000003,141.00023000000002 372.00703000000004,142.14738000000003 C 366.77957000000004,143.96968000000004 365.49066000000005,148.76453000000004 369.17427000000004,152.68555000000003 C 371.78947000000005,155.46930000000003 377.44890000000004,155.80868000000004 380.17122000000006,153.34501000000003 L 380.17126,153.34501" fill="none" stroke="#000000" stroke-width="1.2380002000000012"/>
  <path d="M 389.0,148.5 C 389.0,137.07304 390.02512,136.43228 395.03871,144.72542 L 398.5,150.45084000000003 L 398.7999,144.72542000000004 C 399.05696,139.81803000000005 399.37843,139.00000000000006 401.0499,139.00000000000006 C 402.84652,139.00000000000006 403.0,139.74770000000007 403.0,148.50000000000006 C 403.0,160.13256000000007 401.98231,160.61459000000005 396.13839,151.75000000000006 L 392.01812,145.50000000000006 L 392.00912,151.75000000000006 C 392.00212,156.63486000000006 391.67243,158.00000000000006 390.50006,158.00000000000006 C 389.27199,158.00000000000006 389.00006,156.27778000000006 389.00006,148.50000000000006 L 389.0,148.5" fill="none" stroke="#000000" stroke-width="1.2380002000000012"/>
  <path d="M 408.07258,155.36514 C 405.42288,151.99659 404.96816,139.0 407.5,139.0 C 408.68793,139.0 409.0,140.43084 409.0,145.87756 C 409.0,153.38035 410.17079,155.39722999999998 414.19496,154.82675999999998 C 416.34522999999996,154.52193999999997 416.51961,153.97964 416.79206,146.74999999999997 C 417.01777,140.76070999999996 417.41535,138.99999999999997 418.54206,138.99999999999997 C 419.69695,138.99999999999997 420.0,140.65110999999996 420.0,146.94329999999997 C 420.0,154.01804999999996 419.75699,155.05680999999996 417.77749,156.44329999999997 C 414.36773,158.83158999999998 410.45759,158.39718999999997 408.07258,155.36513999999997 L 408.07258,155.36514" fill="none" stroke="#000000" stroke-width="1.2380002000000012"/>
  <path d="M 424.76148,155.76148 C 422.60857,153.60857000000001 422.59756,153.5086 424.47344,153.14734 C 425.54618999999997,152.94075 426.59103,153.27308000000002 426.79528999999997,153.88586 C 427.33597,155.5079 432.68938999999995,155.25183 433.33356999999995,153.57311 C 434.0040599999999,151.82585 432.38732999999996,150.3863 428.72108,149.46613000000002 C 426.18689,148.83009 423.0,145.66127 423.0,143.77749 C 423.0,143.34987 423.9,142.1 425.0,141.0 C 427.81365,138.18635 433.40841,138.3173 435.45891,141.2448 C 437.3911,144.00339 435.96066,144.67555 432.70188,142.54032 C 429.74639,140.60381 426.78028,141.51245 427.19713,144.22665 C 427.39288,145.50128 428.87932,146.67067 431.40003,147.53312 C 437.28145,149.5454 438.52645,152.47355 435.0,156.0 C 432.32062,158.67938 427.56868,158.56868 424.76148,155.76148" fill="none" stroke="#000000" stroke-width="1.2380002000000012"/>
  <path d="M 451.29762,118.66849 C 448.07306,115.27582000000001 444.54945,111.28697000000001 443.46739,109.80439000000001 L 441.5,107.10877 L 438.63136,109.43656 L 435.76270999999997,111.76434 L 441.63136,115.78721 C 444.85911,117.99979 449.525,121.9029 452.0,124.46079 C 456.02475,128.62034 456.53488,128.88579000000001 456.83024,126.97424000000001 C 457.06141,125.47808 455.40183,122.98664000000001 451.29762,118.66849" fill="none" stroke="#000000" stroke-width="1.2380002000000012"/>
  <path d="M 544.0,94.5 L 544.0,65.0 L 508.5,65.0 L 473.0,65.0 L 473.0,94.5 L 473.0,124.0 L 508.5,124.0 L 544.0,124.0 L 544.0,94.5" fill="none" stroke="#000000" stroke-width="1.2380002000000012"/>
  <path d="M 551.0,94.5 C 551.0,68.94444 550.79944,65.0 549.5,65.0 C 548.20056,65.0 548.0,68.94444 548.0,94.5 C 548.0,120.05556 548.20056,124.0 549.5,124.0 C 550.79944,124.0 551.0,120.05556 551.0,94.5" fill="none" stroke="#000000" stroke-width="1.2380002000000012"/>
  <path d="M 626.0,94.5 L 626.0,65.0 L 590.5,65.0 L 555.0,65.0 L 555.0,94.5 L 555.0,124.0 L 590.5,124.0 L 626.0,124.0 L 626.0,94.5" fill="none" stroke="#000000" stroke-width="1.2380002000000012"/>
  <path d="M 633.0,94.5 C 633.0,68.94444 632.79944,65.0 631.5,65.0 C 630.20056,65.0 630.0,68.94444 630.0,94.5 C 630.0,120.05556 630.20056,124.0 631.5,124.0 C 632.79944,124.0 633.0,120.05556 633.0,94.5" fill="none" stroke="#000000" stroke-width="1.2380002000000012"/>
  <path d="M 708.0,94.5 L 708.0,65.0 L 672.5,65.0 L 637.0,65.0 L 637.0,94.5 L 637.0,124.0 L 672.5,124.0 L 708.0,124.0 L 708.0,94.5" fill="none" stroke="#000000" stroke-width="1.2380002000000012"/>
  <path d="M 715.0,94.5 C 715.0,68.94444 714.79944,65.0 713.5,65.0 C 712.20056,65.0 712.0,68.94444 712.0,94.5 C 712.0,120.05556 712.20056,124.0 713.5,124.0 C 714.79944,124.0 715.0,120.05556 715.0,94.5" fill="none" stroke="#000000" stroke-width="1.2380002000000012"/>
  <path d="M 790.0,94.5 L 790.0,65.0 L 754.5,65.0 L 719.0,65.0 L 719.0,94.5 L 719.0,124.0 L 754.5,124.0 L 790.0,124.0 L 790.0,94.5" fill="none" stroke="#000000" stroke-width="1.2380002000000012"/>
  <path d="M 797.0,94.5 C 797.0,68.94444 796.79944,65.0 795.5,65.0 C 794.20056,65.0 794.0,68.94444 794.0,94.5 C 794.0,120.05556 794.20056,124.0 795.5,124.0 C 796.79944,124.0 797.0,120.05556 797.0,94.5" fill="none" stroke="#000000" stroke-width="1.2380002000000012"/>
  <path d="M 872.0,94.5 L 872.0,65.0 L 836.5,65.0 L 801.0,65.0 L 801.0,94.5 L 801.0,124.0 L 836.5,124.0 L 872.0,124.0 L 872.0,94.5" fill="none" stroke="#000000" stroke-width="1.2380002000000012"/>
  <path d="M 879.0,94.5 C 879.0,68.94444 878.79944,65.0 877.5,65.0 C 876.20056,65.0 876.0,68.94444 876.0,94.5 C 876.0,120.05556 876.20056,124.0 877.5,124.0 C 878.79944,124.0 879.0,120.05556 879.0,94.5" fill="none" stroke="#000000" stroke-width="1.2380002000000012"/>
  <path d="M 954.0,94.5 L 954.0,65.0 L 918.5,65.0 L 883.0,65.0 L 883.0,94.5 L 883.0,124.0 L 918.5,124.0 L 954.0,124.0 L 954.0,94.5" fill="none" stroke="#000000" stroke-width="1.2380002000000012"/>
  <path d="M 960.0,94.5 C 960.0,75.5 959.64408,65.0 959.0,65.0 C 958.35593,65.0 958.0,75.5 958.0,94.5 C 958.0,113.5 958.35593,124.0 959.0,124.0 C 959.64408,124.0 960.0,113.5 960.0,94.5" fill="none" stroke="#000000" stroke-width="1.2380002000000012"/>
  <path d="M 1035.0,94.5 L 1035.0,65.0 L 999.5,65.0 L 964.0,65.0 L 964.0,94.5 L 964.0,124.0 L 999.5,124.0 L 1035.0,124.0 L 1035.0,94.5" fill="none" stroke="#000000" stroke-width="1.2380002000000012"/>
  <path d="M 1042.0,94.5 C 1042.0,68.94444 1041.7994,65.0 1040.5,65.0 C 1039.2006,65.0 1039.0,68.94444 1039.0,94.5 C 1039.0,120.05556 1039.2006,124.0 1040.5,124.0 C 1041.7994,124.0 1042.0,120.05556 1042.0,94.5" fill="none" stroke="#000000" stroke-width="1.2380002000000012"/>
  <path d="M 1117.0,94.5 L 1117.0,65.0 L 1081.5,65.0 L 1046.0,65.0 L 1046.0,94.5 L 1046.0,124.0 L 1081.5,124.0 L 1117.0,124.0 L 1117.0,94.5" fill="none" stroke="#000000" stroke-width="1.2380002000000012"/>
  <path d="M 1124.0,94.5 C 1124.0,68.94444 1123.7994,65.0 1122.5,65.0 C 1121.2006,65.0 1121.0,68.94444 1121.0,94.5 C 1121.0,120.05556 1121.2006,124.0 1122.5,124.0 C 1123.7994,124.0 1124.0,120.05556 1124.0,94.5" fill="none" stroke="#000000" stroke-width="1.2380002000000012"/>
  <path d="M 1199.0,95.47525 L 1199.0,66.9505 L 1196.4349,65.97525 C 1194.9567,65.41325 1179.9141,65.0 1160.9349,65.0 L 1128.0,65.0 L 1128.0,94.5 L 1128.0,124.0 L 1163.5,124.0 L 1199.0,124.0 L 1199.0,95.47525" fill="none" stroke="#000000" stroke-width="1.2380002000000012"/>
  <path d="M 1228.0,109.37699 L 1228.0,94.75398 L 1223.6173,88.62698999999999 C 1219.01,82.18609 1209.0681,72.17572 1205.25,70.13326 L 1203.0,68.92963 L 1203.0,96.46481 L 1203.0,124.0 L 1215.5,124.0 L 1228.0,124.0 L 1228.0,109.37699" fill="none" stroke="#000000" stroke-width="1.2380002000000012"/>
  <path d="M 1232.9646,113.75 C 1232.9406000000001,106.75455 1232.4754,102.70621 1231.5,101.0 C 1230.2041,98.73298 1230.0676,99.68822 1230.0354,111.25 C 1230.0054,121.93242000000001 1230.2432,124.0 1231.5,124.0 C 1232.7381,124.0 1232.9938,122.21019 1232.9646,113.75" fill="none" stroke="#000000" stroke-width="1.2380002000000012"/>
  <path d="M 355.96224000000007,108.04064 L 352.5000100000001,105.08127999999999 L 235.7500100000001,105.04068 L 119.0,105.00008 L 119.0,108.00008 L 119.0,111.00008 L 239.21224,111.00008 L 359.42445,111.00008 L 355.96224000000007,108.04064" fill="none" stroke="#000000" stroke-width="1.2380002000000012"/>
  <path d="M 76.5,104.71959 C 75.178014,103.91345 69.753901,103.5 60.5,103.5 C 51.246099,103.5 45.821986,103.91345 44.5,104.71959 C 42.879196,105.70795 45.912766,105.93918 60.5,105.93918 C 75.087234,105.93918 78.12080399999999,105.70795 76.5,104.71959" fill="none" stroke="#000000" stroke-width="1.2380002000000012"/>
  <path d="M 379.45,104.15536999999999 C 377.34448,102.28336999999999 356.0113,95.59992999999999 355.98452,96.80389999999998 C 355.97551999999996,97.18674999999999 357.88849999999996,99.17406999999999 360.23452,101.22015999999998 C 364.38011,104.83575999999998 364.72344,104.94115999999998 372.45,104.97015999999998 C 376.85564999999997,104.98665999999997 379.97646,104.62343999999997 379.45,104.15536999999998 L 379.45,104.15536999999999" fill="none" stroke="#000000" stroke-width="1.2380002000000012"/>
  <path d="M 438.81842,98.25 C 446.29854,90.76928 450.69793,83.78026 454.08311,74.0 C 455.88588999999996,68.79151 456.33290999999997,65.31437 456.33290999999997,56.5 C 456.33290999999997,47.68563 455.88588999999996,44.20849 454.08311,39.0 C 450.63849999999996,29.04805 446.30053999999996,22.15255 438.82743,14.75 L 432.01309,8.0 L 416.10931,8.0 C 400.27255,8.0 400.15558,8.0166 388.35276,11.93574 C 381.83374,14.1004 370.875,17.0395 364.0,18.46708 C 350.37359,21.29658 350.52191,21.20109 346.00454,30.05228 C 336.89936,47.89266 337.37144,67.68662 347.32695,85.5 C 350.2575,90.74361999999999 351.17311,91.61052 354.59012,92.37671 C 372.47142,96.38621 387.47563,100.3485 392.50001000000003,102.38789 C 397.99093000000005,104.61664 399.92412,104.83077 415.28449,104.91164 L 432.06898,105.00004 L 438.81843000000003,98.25004 L 438.81842,98.25" fill="none" stroke="#000000" stroke-width="1.2380002000000012"/>
  <path d="M 40.26903199999998,103.34406 C 39.59199899999998,103.07014 38.24199899999998,103.05347 37.26903199999998,103.30705999999999 C 36.29606399999998,103.5606 36.84999999999998,103.78472 38.49999999999998,103.8051 C 40.14999999999998,103.82549999999999 40.94606399999998,103.61804 40.26903199999998,103.34411 L 40.26903199999998,103.34406" fill="none" stroke="#000000" stroke-width="1.2380002000000012"/>
  <path d="M 84.26903199999998,103.34406 C 83.59199899999999,103.07014 82.24199899999998,103.05347 81.26903199999998,103.30705999999999 C 80.29606399999999,103.5606 80.84999999999998,103.78472 82.49999999999999,103.8051 C 84.14999999999999,103.82549999999999 84.94606399999998,103.61804 84.26903199999998,103.34411 L 84.26903199999998,103.34406" fill="none" stroke="#000000" stroke-width="1.2380002000000012"/>
  <path d="M 37.916667,97.58652 C 37.6875,97.35911 34.35,95.50996 30.5,93.47731 C 21.661859,88.8111 11.989038,81.96412 8.680636,78.0323 C 5.74163,74.53949 5.0,74.28954 5.0,76.79179 C 5.0,77.77728 7.072456,80.58978 9.605457999999999,83.04179 C 12.138459999999998,85.49380000000001 15.977654999999999,89.86250000000001 18.137002,92.75 L 22.063088,98.0 L 30.198211,98.0 C 34.672528,98.0 38.145833,97.81393 37.916667000000004,97.58652 L 37.916667,97.58652" fill="none" stroke="#000000" stroke-width="1.2380002000000012"/>
  <path d="M 315.67158,94.93005 C 318.94545,93.24158 323.50866,91.60732999999999 325.81204,91.29838 C 328.11543,90.98944 330.0,90.55595 330.0,90.33509 C 330.0,90.11421999999999 328.88095,87.72515999999999 327.51321,85.02606999999999 C 319.94727,70.09537999999999 318.89234,50.08861999999999 324.82992,34.13688999999999 C 326.54203,29.537179999999985 328.46983,25.138809999999985 329.11394,24.362729999999985 C 330.59832,22.574149999999985 330.60424,22.577769999999983 323.80054,21.109309999999986 C 320.66583,20.432739999999985 316.47615,18.776479999999985 314.49013,17.428739999999987 L 310.87921,14.97829 L 178.68961,15.23915 L 46.5,15.5 L 35.0,21.17112 C 21.886746,27.63781 12.958144,34.38681 8.25,41.39105 C 5.11222,46.05908 5.0,46.57792 5.0,56.41723 C 5.0,65.89845 5.198113,66.92083000000001 7.843729,71.09253000000001 C 12.995064,79.21534000000001 24.717102,87.59255000000002 40.688821000000004,94.56541000000001 L 48.5,97.97558 L 179.10955,97.98778 L 309.71907,97.99998000000001 L 315.67158,94.93005" fill="none" stroke="#000000" stroke-width="1.2380002000000012"/>
  <path d="M 55.222506,65.44329 C 52.922527,63.83233 52.188786,61.0 54.071429,61.0 C 54.660714,61.0 55.817857000000004,61.675 56.642857,62.5 C 59.639903,65.49704 65.757358,62.82241 63.13432,59.66184 C 62.523507,58.92586 60.194583,57.775659999999995 57.958934,57.10584 C 49.124472,54.45897 52.261328,44.52345 61.5,45.89005 C 63.990904,46.25851 67.0,48.86544 67.0,50.65499 C 67.0,52.51953 64.347555,52.3481 63.613864,50.43613 C 62.672542,47.98308 56.5,48.9024 56.5,51.49564 C 56.5,52.93395 57.601003,53.851980000000005 60.442374,54.78285 C 65.739111,56.51813 67.0,57.72619 67.0,61.06574 C 67.0,64.34148 63.864034,67.0 60.0,67.0 C 58.594757,67.0 56.444885,66.29948 55.222506,65.44329" fill="none" stroke="#000000" stroke-width="1.2380002000000012"/>
  <path d="M 71.0,56.5 L 71.0,46.0 L 76.345012,46.0 C 80.253182,46.0 82.134918,46.4916 83.345012,47.82874 C 87.148926,52.03202 83.719368,58.0 77.5,58.0 C 74.018519,58.0 74.0,58.0238 74.0,62.5 C 74.0,65.83333 73.611111,67.0 72.5,67.0 C 71.261905,67.0 71.0,65.16667 71.0,56.5" fill="none" stroke="#000000" stroke-width="1.2380002000000012"/>
  <path d="M 80.894808,53.62675 C 82.841609,51.281 81.115216,49.0 77.393011,49.0 C 74.505095,49.0 74.0,49.34735 74.0,51.33333 C 74.0,52.61667 74.3,53.96666999999999 74.666667,54.33333 C 75.827782,55.49444999999999 79.710317,55.05397 80.894808,53.626749999999994 L 80.894808,53.62675" fill="none" stroke="#000000" stroke-width="1.2380002000000012"/>
  <path d="M 89.0,56.5 L 89.0,46.0 L 96.0,46.0 C 101.55556,46.0 103.0,46.30952 103.0,47.5 C 103.0,48.65368 101.71484,49.0 97.433578,49.0 C 91.951075,49.0 91.871926,49.0415 92.183578,51.75 C 92.478706,54.31493 92.85331099999999,54.52034 97.75,54.80226 C 101.52659,55.01969 103.0,55.51083 103.0,56.55226 C 103.0,57.64043 101.63398,58.0 97.5,58.0 C 92.055556,58.0 92.0,58.0303 92.0,61.0 C 92.0,63.9697 92.05556,64.0 97.5,64.0 C 101.72222,64.0 103.0,64.34848 103.0,65.5 C 103.0,66.69047 101.55556,67.0 96.0,67.0 L 89.0,67.0 L 89.0,56.5" fill="none" stroke="#000000" stroke-width="1.2380002000000012"/>
  <path d="M 107.0,56.5 C 107.0,47.833330000000004 107.2619,46.0 108.5,46.0 C 109.72222,46.0 110.0,47.66667 110.0,55.0 L 110.0,64.0 L 115.5,64.0 C 119.72222,64.0 121.0,64.34848 121.0,65.5 C 121.0,66.69047 119.55556,67.0 114.0,67.0 L 107.0,67.0 L 107.0,56.5" fill="none" stroke="#000000" stroke-width="1.2380002000000012"/>
  <path d="M 123.0,56.5 C 123.0,47.833330000000004 123.2619,46.0 124.5,46.0 C 125.72222,46.0 126.0,47.66667 126.0,55.0 L 126.0,64.0 L 131.5,64.0 C 135.72222,64.0 137.0,64.34848 137.0,65.5 C 137.0,66.69047 135.55556,67.0 130.0,67.0 L 123.0,67.0 L 123.0,56.5" fill="none" stroke="#000000" stroke-width="1.2380002000000012"/>
  <path d="M 153.22251,65.44329 C 150.92253,63.83233 150.18879,61.0 152.07143,61.0 C 152.66071,61.0 153.81786,61.675 154.64285999999998,62.5 C 157.63989999999998,65.49704 163.75736999999998,62.82241 161.13432999999998,59.66184 C 160.52351,58.92586 158.19458999999998,57.775659999999995 155.95893999999998,57.10584 C 147.12447999999998,54.45897 150.26134,44.52345 159.50000999999997,45.89005 C 161.99090999999999,46.25851 165.00000999999997,48.86544 165.00000999999997,50.654990000000005 C 165.00000999999997,52.51953 162.34756,52.3481 161.61386999999996,50.436130000000006 C 160.67254999999997,47.98308000000001 154.50000999999997,48.90240000000001 154.50000999999997,51.49564000000001 C 154.50000999999997,52.93395000000001 155.60100999999997,53.85198000000001 158.44237999999999,54.78285000000001 C 163.73911999999999,56.51813000000001 165.00000999999997,57.72619000000001 165.00000999999997,61.06574000000001 C 165.00000999999997,64.34148000000002 161.86404,67.00000000000001 158.00000999999997,67.00000000000001 C 156.59476999999998,67.00000000000001 154.44489,66.29948000000002 153.22250999999997,65.44329000000002 L 153.22251,65.44329" fill="none" stroke="#000000" stroke-width="1.2380002000000012"/>
  <path d="M 169.57147,61.43432000000001 C 174.20026,50.9678 177.03364,46.0 178.37441,46.0 C 179.42448000000002,46.0 185.45213,57.50857 188.71855000000002,65.75 C 189.77482000000003,68.41503 185.96605000000002,66.83502 184.50001000000003,64.0 C 183.09960000000004,61.2919 182.47646000000003,61.0 178.09565000000003,61.0 C 173.64624000000003,61.0 173.13930000000005,61.24949 172.00001000000003,64.0 C 171.26173000000003,65.78236 170.01718000000002,67.0 168.93371000000002,67.0 C 167.24523000000002,67.0 167.29251000000002,66.58745 169.57147,61.43432 L 169.57147,61.43432000000001" fill="none" stroke="#000000" stroke-width="1.2380002000000012"/>
  <path d="M 181.0,57.64922 C 181.0,57.45629 180.50616,55.88183 179.90259,54.15041 C 178.63892,50.52545 177.63023,50.75335 176.15049,54.99816 C 175.14178,57.89175 175.21035,58.0 178.05202,58.0 C 179.67341,58.0 181.0,57.84215 181.0,57.64922" fill="none" stroke="#000000" stroke-width="1.2380002000000012"/>
  <path d="M 192.34533,56.49167 C 188.75673,47.42947 188.42851,46.0 189.93634,46.0 C 191.16186,46.0 192.51792,48.07641 194.48735,52.96857 C 196.03028,56.80129 197.56431999999998,59.769059999999996 197.89633999999998,59.56363 C 198.22834999999998,59.35819 199.60943999999998,56.22233000000001 200.96542,52.59505 C 202.80969,47.6616 203.90741,46.0 205.32241,46.0 C 206.43706,46.0 207.00753999999998,46.51341 206.71137,47.25 C 201.08920999999998,61.23236 198.41465,66.99847 197.55436999999998,66.99167 C 196.97445999999997,66.98667 194.63039999999998,62.26209 192.34533,56.49167" fill="none" stroke="#000000" stroke-width="1.2380002000000012"/>
  <path d="M 209.0,56.49967 L 209.0,45.99967 L 216.0,45.99967 C 221.55556,45.99967 223.0,46.30919 223.0,47.49967 C 223.0,48.65335 221.71484,48.99967 217.43358,48.99967 C 211.95108000000002,48.99967 211.87193000000002,49.04117 212.18358,51.74967 C 212.47871,54.3146 212.85331,54.52001 217.75,54.80193 C 221.52659,55.01936 223.0,55.5105 223.0,56.55193 C 223.0,57.6401 221.63398,57.99967 217.5,57.99967 C 212.05556,57.99967 212.0,58.02997 212.0,60.99967 C 212.0,63.969370000000005 212.0556,63.99967 217.5,63.99967 C 221.72222,63.99967 223.0,64.34815 223.0,65.49967000000001 C 223.0,66.69014000000001 221.55556,66.99967000000001 216.0,66.99967000000001 L 209.0,66.99967000000001 L 209.0,56.49967" fill="none" stroke="#000000" stroke-width="1.2380002000000012"/>
  <path d="M 239.0,56.61986 L 239.0,45.99967 L 244.04966,45.99967 C 250.53349,45.99967 254.77795999999998,48.22401 256.59572,52.574510000000004 C 258.40155,56.89647 257.64491999999996,60.00762 253.92010999999997,63.57621 C 251.55310999999998,65.84394 249.86873999999997,66.45388 245.00101999999995,66.80598 L 239.0,67.24005 L 239.0,56.61986" fill="none" stroke="#000000" stroke-width="1.2380002000000012"/>
  <path d="M 251.54545,61.545120000000004 C 256.65015999999997,56.44041000000001 252.9846,48.99967 245.36514,48.99967 L 242.0,48.99967 L 242.0,56.49967 L 242.0,63.99967 L 245.54545,63.99967 C 247.97643,63.99967 249.86247,63.22811 251.54545,61.545120000000004" fill="none" stroke="#000000" stroke-width="1.2380002000000012"/>
  <path d="M 264.53479999999996,63.896080000000005 C 261.47292,61.20771 261.0,60.19108 261.0,56.29729 C 261.0,52.604079999999996 261.52886,51.30806 263.9643,49.03301999999999 C 265.59466,47.51002999999999 268.24210999999997,46.00124999999999 269.84749999999997,45.68016999999999 C 275.62249999999995,44.52516999999999 284.53706,48.81364999999999 280.95853999999997,51.02528999999999 C 280.05607999999995,51.58303999999999 278.96709999999996,51.37487999999999 277.9441,50.44907999999999 C 277.06323,49.65189999999999 274.49811,48.99966999999999 272.24384,48.99966999999999 C 264.93539999999996,48.99966999999999 261.45378,56.54435999999999 266.45455,61.54511999999999 C 269.3256,64.41618 274.38809,64.81698999999999 277.77925,62.44173999999999 C 279.95337,60.91892 282.0,61.20563 282.0,63.03301 C 282.0,64.67596999999999 276.1914,66.99967 272.08447,66.99967 C 269.01967,66.99967 267.23311,66.26522999999999 264.5348,63.89608 L 264.53479999999996,63.896080000000005" fill="none" stroke="#000000" stroke-width="1.2380002000000012"/>
  <path d="M 344.0,97.58146 C 344.0,94.69603000000001 342.41275,93.99967000000001 335.83583,93.99967000000001 C 328.67233999999996,93.99967000000001 320.37872999999996,95.57785000000001 319.42398,97.12266000000001 C 319.12431,97.60755 324.49717,97.99967000000001 331.44097999999997,97.99967000000001 C 338.34844,97.99967000000001 343.99999999999994,97.81147000000001 343.99999999999994,97.58146 L 344.0,97.58146" fill="none" stroke="#000000" stroke-width="1.2380002000000012"/>
  <path d="M 1233.0,87.15154000000001 L 1233.0,80.30342000000002 L 1228.75,78.40154000000001 C 1223.6627,76.12498000000001 1217.127,70.46402 1215.9197,67.28837000000001 C 1215.1898999999999,65.36886000000001 1214.3195999999998,64.99967000000001 1210.5248,64.99967000000001 C 1208.0360999999998,64.99967000000001 1206.0,65.18048 1206.0,65.40147 C 1206.0,65.62246 1207.3957,66.68695000000001 1209.1015,67.76701 C 1214.2547,71.02974999999999 1223.95,81.11379 1228.314,87.74967 C 1230.5746000000001,91.18717 1232.5537000000002,93.99967 1232.7121000000002,93.99967 C 1232.8704000000002,93.99967 1233.0000000000002,90.91801 1233.0000000000002,87.15154 L 1233.0,87.15154000000001" fill="none" stroke="#000000" stroke-width="1.2380002000000012"/>
  <path d="M 338.58763,87.74967000000001 C 337.78546,86.51217000000001 335.88084,81.89967000000001 334.35514,77.49967000000001 C 331.87565,70.34902000000001 331.58114,68.11948000000001 331.58114,56.49967000000001 C 331.58114,44.87986000000001 331.87565,42.65032000000001 334.35514,35.49967000000001 C 335.88084,31.09967000000001 337.81104,26.44812000000001 338.64448,25.162900000000008 C 340.49989999999997,22.301680000000008 340.32061999999996,22.111610000000006 336.33898,22.718630000000008 C 333.53342,23.14636000000001 332.82737,23.984610000000007 330.06041,30.172790000000006 C 321.99167,48.21817000000001 322.00579999999997,64.81276 330.10531,82.92699 C 333.12359999999995,89.67726 333.42226,89.99967000000001 336.65693,89.99967000000001 C 339.9371,89.99967000000001 339.99919,89.92727000000001 338.58762,87.74967000000001 L 338.58763,87.74967000000001" fill="none" stroke="#000000" stroke-width="1.2380002000000012"/>
  <path d="M 545.0,50.22368 C 545.0,41.61511 544.89562,41.235170000000004 539.53908,30.34702 C 533.91949,18.92417 526.41418,9.29978 520.9039,6.4503 C 517.08006,4.47292 500.91994,4.47292 497.09611,6.4503 C 491.70284000000004,9.239270000000001 484.17614000000003,18.837699999999998 478.51570000000004,30.144980000000004 C 473.06404000000003,41.035210000000006 473.00001000000003,41.26666 473.00001000000003,50.08156 L 473.00001000000003,59.0 L 509.00001000000003,59.0 L 545.00001,59.0 L 545.0,50.22368" fill="none" stroke="#000000" stroke-width="1.2380002000000012"/>
  <path d="M 495.0,42.5 C 495.0,37.38889 494.67949,36.0 493.5,36.0 C 491.4364,36.0 491.62142,34.34041 494.06809,30.90437 C 498.00069,25.38155 499.0,26.9206 499.0,38.5 C 499.0,48.333330000000004 498.87302,49.0 497.0,49.0 C 495.20513,49.0 495.0,48.33333 495.0,42.5" fill="none" stroke="#000000" stroke-width="1.2380002000000012"/>
  <path d="M 504.75,47.9199 C 503.7875,47.35929 503.0,46.24798 503.0,45.45031 C 503.0,43.80726 505.55934,43.47798 506.5,45.0 C 507.42672,46.49947 510.0,46.20378 510.0,44.59782 C 510.0,43.82663 508.68487,42.73719 507.07748,42.17685 C 503.05992,40.77632 501.65551,37.936840000000004 503.60425999999995,35.1546 C 505.53076999999996,32.40412 510.08205999999996,32.32821 512.50555,35.00613 C 514.6984,37.4292 513.67256,38.901109999999996 510.96808999999996,37.21214 C 508.37324,35.59163 506.0,35.67735 506.0,37.39159 C 506.0,38.15697 507.23498,39.09314 508.74441,39.47198 C 514.15035,40.828790000000005 515.6258300000001,44.21867 512.17126,47.34501 C 510.10727999999995,49.21288 507.33820999999995,49.42739 504.74999999999994,47.919900000000005 L 504.75,47.9199" fill="none" stroke="#000000" stroke-width="1.2380002000000012"/>
  <path d="M 519.0,42.5 C 519.0,38.833330000000004 518.56411,36.0 518.0,36.0 C 517.45001,36.0 517.0,35.325 517.0,34.5 C 517.0,33.675 517.45001,33.0 518.0,33.0 C 518.55001,33.0 519.0,31.875 519.0,30.5 C 519.0,28.66667 519.53333,28.0 521.0,28.0 C 522.46667,28.0 523.0,28.66667 523.0,30.5 C 523.0,31.875 523.45001,33.0 524.0,33.0 C 524.55001,33.0 525.0,33.675 525.0,34.5 C 525.0,35.325 524.55001,36.0 524.0,36.0 C 523.43591,36.0 523.0,38.833330000000004 523.0,42.5 C 523.0,48.333330000000004 522.79488,49.0 521.0,49.0 C 519.20514,49.0 519.0,48.33333 519.0,42.5" fill="none" stroke="#000000" stroke-width="1.2380002000000012"/>
  <path d="M 627.0,50.22368 C 627.0,41.61511 626.89562,41.235170000000004 621.53908,30.34702 C 615.91949,18.92417 608.41418,9.29978 602.9039,6.4503 C 599.08006,4.47292 582.91994,4.47292 579.0961,6.4503 C 573.70283,9.239270000000001 566.17613,18.837699999999998 560.51569,30.144980000000004 C 555.06403,41.03521 555.0,41.26666 555.0,50.08156 L 555.0,59.0 L 591.0,59.0 L 627.0,59.0 L 627.0,50.22368" fill="none" stroke="#000000" stroke-width="1.2380002000000012"/>
  <path d="M 565.0,47.71584 C 565.0,47.00955 567.49122,43.97205 570.53606,40.96584 C 576.87382,34.70845 577.53951,31.5 572.5,31.5 C 570.34804,31.5 569.22096,32.13603 568.51287,33.75 C 567.96996,34.9875 566.95745,36.0 566.26287,36.0 C 564.35265,36.0 564.7508,31.5355 566.82875,29.654989999999998 C 569.30016,27.41838 575.25269,27.51673 577.34501,29.828739999999996 C 580.18175,32.9633 579.34451,36.08154 574.28759,41.21565 L 569.57519,46.0 L 574.78759,46.0 C 578.75418,46.0 580.0,46.35852 580.0,47.5 C 580.0,48.7 578.5,49.0 572.5,49.0 C 567.06026,49.0 565.0,48.64724 565.0,47.71584" fill="none" stroke="#000000" stroke-width="1.2380002000000012"/>
  <path d="M 582.0,41.13065 L 582.0,33.26129 L 586.97827,33.14914 C 593.90518,32.99308 596.0,35.3242 596.0,43.18856 C 596.0,47.59873 595.65035,49.0 594.5499,49.0 C 593.48973,49.0 593.01918,47.481700000000004 592.7999,43.35351 C 592.58412,39.29079 592.00915,37.39893 590.75,36.60862 C 587.53915,34.593320000000006 585.53608,37.027680000000004 585.2001,43.35351 C 584.98083,47.4817 584.51027,49.0 583.4501,49.0 C 582.30615,49.0 582.0,47.3386 582.0,41.13065" fill="none" stroke="#000000" stroke-width="1.2380002000000012"/>
  <path d="M 603.22897,48.29786 C 602.52989,48.03465 601.26386,46.47712 600.41555,44.83666 C 597.26139,38.73719 601.6629800000001,32.08259 608.01169,33.35233 C 610.7937300000001,33.90874 611.0000100000001,33.744640000000004 611.0000100000001,30.975 C 611.0000100000001,28.997220000000002 611.5028100000001,28.0 612.5000100000001,28.0 C 613.7365300000001,28.0 614.0000100000001,29.81438 614.0000100000001,38.32942 L 614.0000100000001,48.65884 L 609.2500100000001,48.717639999999996 C 606.6375100000001,48.749939999999995 603.9280400000001,48.56108 603.2289700000001,48.297869999999996 L 603.22897,48.29786" fill="none" stroke="#000000" stroke-width="1.2380002000000012"/>
  <path d="M 609.80001,44.8 C 610.46001,44.14 611.0000100000001,42.43 611.0000100000001,41.0 C 611.0000100000001,37.99654 609.3514400000001,36.0 606.8714400000001,36.0 C 604.5972800000001,36.0 602.0000100000001,38.66582 602.0000100000001,41.0 C 602.0000100000001,44.93677 607.1528700000001,47.44714 609.80001,44.8" fill="none" stroke="#000000" stroke-width="1.2380002000000012"/>
  <path d="M 709.0000100000001,50.223679999999995 C 709.0000100000001,41.615109999999994 708.8956300000001,41.23517 703.5390900000001,30.347019999999993 C 697.9195,18.92417 690.41419,9.29978 684.90391,6.4503 C 681.08007,4.47292 664.91995,4.47292 661.09611,6.4503 C 655.7028399999999,9.239270000000001 648.1761399999999,18.837699999999998 642.5156999999999,30.144980000000004 C 637.06404,41.035210000000006 637.00001,41.26666 637.00001,50.08156 L 637.00001,59.0 L 673.00001,59.0 L 709.00001,59.0 L 709.0000100000001,50.223679999999995" fill="none" stroke="#000000" stroke-width="1.2380002000000012"/>
  <path d="M 654.44114,47.519 C 652.83092,46.29047 652.74046,45.87994 653.91053,45.11078 C 654.80998,44.51951 655.9888,44.60056 657.16399,45.33448 C 659.65695,46.89136 662.50001,45.05666 662.50001,41.89101 C 662.50001,40.02601 661.8950199999999,39.43039 659.75001,39.18358 C 656.42448,38.80093 656.15963,36.84295 659.25001,35.48713 C 662.70828,33.9699 662.09845,31.51832 658.23334,31.4 C 652.10325,31.212339999999998 652.76768,28.0 658.93658,28.0 C 663.65904,28.0 665.43573,29.92755 664.72877,34.28401 C 664.40449,36.282360000000004 664.74257,38.29499 665.5993000000001,39.466680000000004 C 667.5837300000001,42.180550000000004 667.3516900000001,43.739230000000006 664.54546,46.54545 C 661.7484800000001,49.34244 657.38246,49.7631 654.44114,47.519000000000005 L 654.44114,47.519" fill="none" stroke="#000000" stroke-width="1.2380002000000012"/>
  <path d="M 670.00001,41.212489999999995 L 670.00001,33.42498 L 674.00001,33.26548 C 676.89729,33.149939999999994 678.00001,33.50488 678.00001,34.55298 C 678.00001,35.348839999999996 677.3571499999999,36.0 676.5714399999999,36.0 C 673.7223499999999,36.0 672.00001,39.04101 672.00001,44.07143 C 672.00001,46.78214 671.5500099999999,49.0 671.00001,49.0 C 670.41895,49.0 670.00001,45.7375 670.00001,41.21249 L 670.00001,41.212489999999995" fill="none" stroke="#000000" stroke-width="1.2380002000000012"/>
  <path d="M 681.8124,47.04915999999999 C 680.1056,45.66708 679.54546,44.17239 679.54546,41.0 C 679.54546,35.574 682.78593,32.5413 687.7269100000001,33.34311 C 690.8020100000001,33.842130000000004 691.0000100000001,33.696580000000004 691.0000100000001,30.937130000000003 C 691.0000100000001,28.99301 691.5071500000001,28.000000000000004 692.5000100000001,28.000000000000004 C 693.7365300000001,28.000000000000004 694.0000100000001,29.814380000000003 694.0000100000001,38.329420000000006 L 694.0000100000001,48.658840000000005 L 689.0396700000001,48.77183000000001 C 685.5873700000001,48.85043000000001 683.3901500000001,48.32675000000001 681.8124000000001,47.04916000000001 L 681.8124,47.04915999999999" fill="none" stroke="#000000" stroke-width="1.2380002000000012"/>
  <path d="M 689.42858,44.42856999999999 C 692.4964,41.36075 690.25668,36.0 685.90714,36.0 C 683.11162,36.0 681.3498000000001,40.27753 682.8180600000001,43.5 C 684.11724,46.35139 687.0884000000001,46.76875 689.42858,44.42857 L 689.42858,44.42856999999999" fill="none" stroke="#000000" stroke-width="1.2380002000000012"/>
  <path d="M 791.00001,50.723679999999995 C 791.00001,42.72073999999999 790.81962,42.08069 785.53909,31.347019999999993 C 779.9195,19.924169999999993 772.41419,10.299779999999995 766.90391,7.450299999999995 C 763.08007,5.472919999999995 746.91995,5.472919999999995 743.09611,7.450299999999995 C 737.7028399999999,10.239269999999994 730.1761399999999,19.837699999999995 724.5156999999999,31.144979999999997 C 719.13745,41.88858 719.00001,42.37289 719.00001,50.581559999999996 L 719.00001,59.0 L 755.00001,59.0 L 791.00001,59.0 L 791.00001,50.723679999999995" fill="none" stroke="#000000" stroke-width="1.2380002000000012"/>
  <path d="M 744.00001,46.99999999999999 C 744.00001,45.26666999999999 743.33334,44.99999999999999 739.00001,44.99999999999999 C 732.395,44.99999999999999 732.46913,43.61590999999999 739.54311,34.860589999999995 C 746.7758399999999,25.908779999999993 748.00001,25.928959999999996 748.00001,34.99999999999999 C 748.00001,38.99999999999999 748.42858,41.99999999999999 749.00001,41.99999999999999 C 749.5500099999999,41.99999999999999 750.00001,42.67499999999999 750.00001,43.49999999999999 C 750.00001,44.324999999999996 749.5500099999999,44.99999999999999 749.00001,44.99999999999999 C 748.45001,44.99999999999999 748.00001,45.89999999999999 748.00001,46.99999999999999 C 748.00001,48.33332999999999 747.33334,48.99999999999999 746.00001,48.99999999999999 C 744.6666799999999,48.99999999999999 744.00001,48.33332999999999 744.00001,46.99999999999999" fill="none" stroke="#000000" stroke-width="1.2380002000000012"/>
  <path d="M 743.97311,37.74999999999999 L 743.9462100000001,33.49999999999999 L 741.0000100000001,36.99999999999999 C 737.2912100000001,41.405939999999994 737.2912100000001,41.99999999999999 741.0000100000001,41.99999999999999 C 743.86697,41.99999999999999 743.9988200000001,41.81152999999999 743.9731100000001,37.74999999999999 L 743.97311,37.74999999999999" fill="none" stroke="#000000" stroke-width="1.2380002000000012"/>
  <path d="M 754.00001,42.49999999999999 C 754.00001,38.83332999999999 753.56411,35.99999999999999 753.00001,35.99999999999999 C 752.45001,35.99999999999999 752.00001,35.324999999999996 752.00001,34.49999999999999 C 752.00001,33.67499999999999 752.45001,32.99999999999999 753.00001,32.99999999999999 C 753.5500099999999,32.99999999999999 754.00001,31.874999999999993 754.00001,30.499999999999993 C 754.00001,28.666669999999993 754.53334,27.999999999999993 756.00001,27.999999999999993 C 757.46668,27.999999999999993 758.00001,28.666669999999993 758.00001,30.499999999999993 C 758.00001,31.874999999999993 758.45001,32.99999999999999 759.00001,32.99999999999999 C 759.5500099999999,32.99999999999999 760.00001,33.67499999999999 760.00001,34.49999999999999 C 760.00001,35.324999999999996 759.5500099999999,35.99999999999999 759.00001,35.99999999999999 C 758.4359099999999,35.99999999999999 758.00001,38.83332999999999 758.00001,42.49999999999999 C 758.00001,48.33332999999999 757.7948799999999,48.99999999999999 756.00001,48.99999999999999 C 754.20514,48.99999999999999 754.00001,48.33332999999999 754.00001,42.49999999999999" fill="none" stroke="#000000" stroke-width="1.2380002000000012"/>
  <path d="M 763.00001,38.49999999999999 C 763.00001,29.833329999999993 763.26191,27.999999999999993 764.50001,27.999999999999993 C 765.4890899999999,27.999999999999993 766.00001,28.98942999999999 766.00001,30.904839999999993 C 766.00001,33.68377999999999 766.1625399999999,33.78800999999999 769.75001,33.30962999999999 C 772.6016,32.92936999999999 774.1588399999999,33.32892999999999 776.25001,34.97735999999999 C 778.6969,36.90621999999999 779.00001,37.79849999999999 779.00001,43.07257999999999 C 779.00001,47.67472999999999 778.66464,48.999999999999986 777.50001,48.999999999999986 C 776.3856999999999,48.999999999999986 776.00001,47.82602999999999 776.00001,44.43425999999999 C 776.00001,38.644249999999985 774.59595,35.999999999999986 771.52153,35.999999999999986 C 768.24506,35.999999999999986 766.00001,39.54656999999999 766.00001,44.72249999999998 C 766.00001,47.858049999999984 765.59956,48.999999999999986 764.50001,48.999999999999986 C 763.26191,48.999999999999986 763.00001,47.16666999999999 763.00001,38.499999999999986 L 763.00001,38.49999999999999" fill="none" stroke="#000000" stroke-width="1.2380002000000012"/>
  <path d="M 873.00001,50.723679999999995 C 873.00001,42.72073999999999 872.81962,42.08069 867.53909,31.347019999999993 C 861.9195,19.924169999999993 854.41419,10.299779999999995 848.90391,7.450299999999995 C 845.08007,5.472919999999995 828.91995,5.472919999999995 825.09611,7.450299999999995 C 819.7028399999999,10.239269999999994 812.1761399999999,19.837699999999995 806.5156999999999,31.144979999999997 C 801.13745,41.88858 801.00001,42.37289 801.00001,50.581559999999996 L 801.00001,59.0 L 837.00001,59.0 L 873.00001,59.0 L 873.00001,50.723679999999995" fill="none" stroke="#000000" stroke-width="1.2380002000000012"/>
  <path d="M 819.3057699999999,46.585069999999995 C 815.7069899999999,43.487579999999994 816.9875199999999,42.139799999999994 821.3150099999999,44.470299999999995 C 825.7067,46.835379999999994 829.28181,45.267199999999995 828.8099299999999,41.182739999999995 C 828.5201699999999,38.67446999999999 828.1748199999998,38.498749999999994 823.4999999999999,38.480819999999994 C 818.0980899999998,38.460119999999996 818.2778499999998,38.759519999999995 819.4588199999998,31.749999999999993 L 820.09063,28.0 L 825.5453100000001,28.0 C 829.72726,28.0 831.0,28.34999 831.0,29.5 C 831.0,30.58333 829.88889,31.0 827.0,31.0 C 824.8,31.0 823.0,31.45 823.0,32.0 C 823.0,32.55 822.9882,33.31315 822.9738,33.6959 C 822.9594,34.07865 824.18565,34.557610000000004 825.6988699999999,34.76025 C 833.2657599999999,35.7736 835.11618,44.803529999999995 828.3853899999999,47.87028 C 824.6545899999999,49.57014 822.4038199999999,49.25155 819.3057899999999,46.58507 L 819.3057699999999,46.585069999999995" fill="none" stroke="#000000" stroke-width="1.2380002000000012"/>
  <path d="M 837.00001,42.5 C 837.00001,38.833330000000004 836.56411,36.0 836.00001,36.0 C 835.45001,36.0 835.00001,35.325 835.00001,34.5 C 835.00001,33.675 835.45001,33.0 836.00001,33.0 C 836.5500099999999,33.0 837.00001,31.875 837.00001,30.5 C 837.00001,28.66667 837.53334,28.0 839.00001,28.0 C 840.46668,28.0 841.00001,28.66667 841.00001,30.5 C 841.00001,31.875 841.45001,33.0 842.00001,33.0 C 842.5500099999999,33.0 843.00001,33.675 843.00001,34.5 C 843.00001,35.325 842.5500099999999,36.0 842.00001,36.0 C 841.4359099999999,36.0 841.00001,38.833330000000004 841.00001,42.5 C 841.00001,48.333330000000004 840.7948799999999,49.0 839.00001,49.0 C 837.20514,49.0 837.00001,48.33333 837.00001,42.5" fill="none" stroke="#000000" stroke-width="1.2380002000000012"/>
  <path d="M 846.00001,38.5 C 846.00001,29.83333 846.26191,28.0 847.50001,28.0 C 848.4890899999999,28.0 849.00001,28.98943 849.00001,30.90484 C 849.00001,33.68378 849.1625399999999,33.78801 852.75001,33.30963 C 855.6016,32.92937 857.1588399999999,33.32893 859.25001,34.97736 C 861.6969,36.90622 862.00001,37.7985 862.00001,43.072579999999995 C 862.00001,47.67473 861.66464,48.99999999999999 860.50001,48.99999999999999 C 859.3856999999999,48.99999999999999 859.00001,47.826029999999996 859.00001,44.434259999999995 C 859.00001,38.64424999999999 857.59595,35.99999999999999 854.52153,35.99999999999999 C 851.24506,35.99999999999999 849.00001,39.546569999999996 849.00001,44.7225 C 849.00001,47.85805 848.59956,49.0 847.50001,49.0 C 846.26191,49.0 846.00001,47.16667 846.00001,38.5" fill="none" stroke="#000000" stroke-width="1.2380002000000012"/>
  <path d="M 955.00001,50.72368 C 955.00001,42.72074 954.81962,42.080690000000004 949.53909,31.34702 C 943.9195,19.92417 936.41419,10.299780000000002 930.90391,7.450300000000002 C 927.08007,5.472920000000002 910.91995,5.472920000000002 907.09611,7.450300000000002 C 901.7028399999999,10.239270000000001 894.1761399999999,19.8377 888.5156999999999,31.144980000000004 C 883.13745,41.888580000000005 883.00001,42.372890000000005 883.00001,50.58156 L 883.00001,59.0 L 919.00001,59.0 L 955.00001,59.0 L 955.00001,50.72368" fill="none" stroke="#000000" stroke-width="1.2380002000000012"/>
  <path d="M 898.45456,46.54545 C 897.10456,45.19545 896.00001,43.14576 896.00001,41.99058 C 896.00001,38.684110000000004 903.7171099999999,28.0 906.10537,28.0 L 908.1362,28.0 L 906.0693600000001,30.90261 L 904.0025200000001,33.80522 L 906.9272100000002,34.82478 C 910.8150600000001,36.18009 913.2814600000002,40.030429999999996 912.4313800000002,43.41744 C 910.9896500000002,49.16173 902.8847200000002,50.97562 898.4545600000002,46.54545 L 898.45456,46.54545" fill="none" stroke="#000000" stroke-width="1.2380002000000012"/>
  <path d="M 908.39403,43.75 C 910.1076800000001,41.01316 907.95209,38.5 903.89102,38.5 C 901.1116000000001,38.5 900.44108,38.91573 900.17325,40.80504 C 899.9935300000001,42.07281 900.4050100000001,43.78306 901.08765,44.605599999999995 C 902.67794,46.52177 906.97347,46.01875 908.39403,43.74999999999999 L 908.39403,43.75" fill="none" stroke="#000000" stroke-width="1.2380002000000012"/>
  <path d="M 916.0000100000001,42.5 C 916.0000100000001,38.833330000000004 915.5641100000001,36.0 915.0000100000001,36.0 C 914.4500100000001,36.0 914.0000100000001,35.325 914.0000100000001,34.5 C 914.0000100000001,33.675 914.4500100000001,33.0 915.0000100000001,33.0 C 915.55001,33.0 916.0000100000001,31.875 916.0000100000001,30.5 C 916.0000100000001,28.66667 916.5333400000001,28.0 918.0000100000001,28.0 C 919.4666800000001,28.0 920.0000100000001,28.66667 920.0000100000001,30.5 C 920.0000100000001,31.875 920.4500100000001,33.0 921.0000100000001,33.0 C 921.55001,33.0 922.0000100000001,33.675 922.0000100000001,34.5 C 922.0000100000001,35.325 921.55001,36.0 921.0000100000001,36.0 C 920.43591,36.0 920.0000100000001,38.833330000000004 920.0000100000001,42.5 C 920.0000100000001,48.333330000000004 919.79488,49.0 918.0000100000001,49.0 C 916.2051400000001,49.0 916.0000100000001,48.33333 916.0000100000001,42.5" fill="none" stroke="#000000" stroke-width="1.2380002000000012"/>
  <path d="M 925.0000100000001,38.5 C 925.0000100000001,29.83333 925.2619100000001,28.0 926.5000100000001,28.0 C 927.48909,28.0 928.0000100000001,28.98943 928.0000100000001,30.90484 C 928.0000100000001,33.68378 928.16254,33.78801 931.7500100000001,33.30963 C 934.6016000000001,32.92937 936.15884,33.32893 938.2500100000001,34.97736 C 940.6969000000001,36.90622 941.0000100000001,37.7985 941.0000100000001,43.072579999999995 C 941.0000100000001,47.67473 940.6646400000001,48.99999999999999 939.5000100000001,48.99999999999999 C 938.3857,48.99999999999999 938.0000100000001,47.826029999999996 938.0000100000001,44.434259999999995 C 938.0000100000001,38.64424999999999 936.5959500000001,35.99999999999999 933.5215300000001,35.99999999999999 C 930.2450600000001,35.99999999999999 928.0000100000001,39.546569999999996 928.0000100000001,44.7225 C 928.0000100000001,47.85805 927.5995600000001,49.0 926.5000100000001,49.0 C 925.2619100000001,49.0 925.0000100000001,47.16667 925.0000100000001,38.5" fill="none" stroke="#000000" stroke-width="1.2380002000000012"/>
  <path d="M 1036.0,50.22368 C 1036.0,41.61511 1035.8956,41.235170000000004 1030.5391,30.34702 C 1024.9195,18.92417 1017.4141999999999,9.299780000000002 1011.9038999999999,6.450300000000002 C 1008.0800999999999,4.472920000000002 991.9199499999999,4.472920000000002 988.09611,6.450300000000002 C 982.7028399999999,9.239270000000001 975.1761399999999,18.8377 969.5156999999999,30.144980000000004 C 964.06404,41.035210000000006 964.00001,41.26666 964.00001,50.08156 L 964.00001,59.0 L 1000.0,59.0 L 1036.0,59.0 L 1036.0,50.22368" fill="none" stroke="#000000" stroke-width="1.2380002000000012"/>
  <path d="M 982.0844,41.25 C 984.4078599999999,36.9875 986.74448,32.9375 987.27689,32.25 C 988.02752,31.2807 986.87002,31.0 982.12245,31.0 C 977.34695,31.0 976.00001,30.67 976.00001,29.5 C 976.00001,28.29167 977.55557,28.0 984.00001,28.0 C 989.43358,28.0 992.00001,28.37468 992.00001,29.16794 C 992.00001,29.81031 989.63751,34.53519 986.75001,39.667680000000004 C 983.13031,46.10164 980.93482,48.99956 979.6799599999999,48.99974 C 978.1267799999999,48.99996 978.4793299999999,47.86366 982.0844,41.25" fill="none" stroke="#000000" stroke-width="1.2380002000000012"/>
  <path d="M 996.00001,42.5 C 996.00001,38.833330000000004 995.56411,36.0 995.00001,36.0 C 994.45001,36.0 994.00001,35.325 994.00001,34.5 C 994.00001,33.675 994.45001,33.0 995.00001,33.0 C 995.5500099999999,33.0 996.00001,31.875 996.00001,30.5 C 996.00001,28.66667 996.53334,28.0 998.00001,28.0 C 999.4667099999999,28.0 1000.0,28.66667 1000.0,30.5 C 1000.0,31.875 1000.45,33.0 1001.0,33.0 C 1001.55,33.0 1002.0,33.675 1002.0,34.5 C 1002.0,35.325 1001.55,36.0 1001.0,36.0 C 1000.4359,36.0 1000.0,38.833330000000004 1000.0,42.5 C 1000.0,48.333330000000004 999.79491,49.0 998.00001,49.0 C 996.20514,49.0 996.00001,48.33333 996.00001,42.5" fill="none" stroke="#000000" stroke-width="1.2380002000000012"/>
  <path d="M 1005.0,38.5 C 1005.0,29.83333 1005.2619,28.0 1006.5,28.0 C 1007.4891,28.0 1008.0,28.98943 1008.0,30.90484 C 1008.0,33.68378 1008.1625,33.78801 1011.75,33.30963 C 1014.6016,32.92937 1016.1588,33.32893 1018.25,34.97736 C 1020.6969,36.90622 1021.0,37.7985 1021.0,43.072579999999995 C 1021.0,47.67473 1020.6646,48.99999999999999 1019.5,48.99999999999999 C 1018.3857,48.99999999999999 1018.0,47.826029999999996 1018.0,44.434259999999995 C 1018.0,38.64425 1016.5959,36.0 1013.5215,36.0 C 1010.245,36.0 1008.0,39.54657 1008.0,44.7225 C 1008.0,47.85805 1007.5996,49.0 1006.5,49.0 C 1005.2619,49.0 1005.0,47.16667 1005.0,38.5" fill="none" stroke="#000000" stroke-width="1.2380002000000012"/>
  <path d="M 1118.0,50.22368 C 1118.0,41.61511 1117.8956,41.235170000000004 1112.5391,30.34702 C 1106.9195,18.92417 1099.4142,9.299780000000002 1093.9039,6.450300000000002 C 1090.0801000000001,4.472920000000002 1073.9199,4.472920000000002 1070.0961,6.450300000000002 C 1064.7028,9.239270000000001 1057.1761,18.8377 1051.5157,30.144980000000004 C 1046.064,41.03521 1046.0,41.26666 1046.0,50.08156 L 1046.0,59.0 L 1082.0,59.0 L 1118.0,59.0 L 1118.0,50.22368" fill="none" stroke="#000000" stroke-width="1.2380002000000012"/>
  <path d="M 1062.0,47.0 C 1059.8905,44.89054 1059.2841,39.5605 1061.0307,38.481030000000004 C 1061.6086,38.12386000000001 1061.7974,36.436800000000005 1061.4604,34.64061 C 1060.6169,30.14458 1063.6564999999998,27.499340000000004 1069.2269,27.881520000000002 C 1071.8316,28.06021 1074.3654,32.44876 1073.1620999999998,34.69715 C 1072.4674999999997,35.99495 1072.5924999999997,37.08977 1073.591,38.45534 C 1078.4667,45.12321 1067.9072999999999,52.90733 1062.0,47.0" fill="none" stroke="#000000" stroke-width="1.2380002000000012"/>
  <path d="M 1070.5,42.5 C 1070.5,39.85846 1070.1546,39.5 1067.609,39.5 C 1063.9718,39.5 1062.04,42.13838 1063.9723999999999,44.46673 C 1064.7513,45.40528 1066.4296,45.97315 1067.9144,45.80056 C 1070.0538,45.55186 1070.5,44.982319999999994 1070.5,42.5" fill="none" stroke="#000000" stroke-width="1.2380002000000012"/>
  <path d="M 1068.4182,35.393010000000004 C 1071.0811,34.37117 1070.3764,31.0 1067.5,31.0 C 1065.7424,31.0 1065.0,31.54444 1065.0,32.83333 C 1065.0,35.667159999999996 1065.9161,36.353159999999995 1068.4182,35.39301 L 1068.4182,35.393010000000004" fill="none" stroke="#000000" stroke-width="1.2380002000000012"/>
  <path d="M 1079.0,42.5 C 1079.0,38.833330000000004 1078.5641,36.0 1078.0,36.0 C 1077.45,36.0 1077.0,35.325 1077.0,34.5 C 1077.0,33.675 1077.45,33.0 1078.0,33.0 C 1078.55,33.0 1079.0,31.875 1079.0,30.5 C 1079.0,28.66667 1079.5333,28.0 1081.0,28.0 C 1082.4667,28.0 1083.0,28.66667 1083.0,30.5 C 1083.0,31.875 1083.45,33.0 1084.0,33.0 C 1084.55,33.0 1085.0,33.675 1085.0,34.5 C 1085.0,35.325 1084.55,36.0 1084.0,36.0 C 1083.4359,36.0 1083.0,38.833330000000004 1083.0,42.5 C 1083.0,48.333330000000004 1082.7949,49.0 1081.0,49.0 C 1079.2051,49.0 1079.0,48.33333 1079.0,42.5" fill="none" stroke="#000000" stroke-width="1.2380002000000012"/>
  <path d="M 1088.0,38.5 C 1088.0,29.83333 1088.2619,28.0 1089.5,28.0 C 1090.4891,28.0 1091.0,28.98943 1091.0,30.90484 C 1091.0,33.68378 1091.1625,33.78801 1094.75,33.30963 C 1097.6016,32.92937 1099.1588,33.32893 1101.25,34.97736 C 1103.6969,36.90622 1104.0,37.7985 1104.0,43.072579999999995 C 1104.0,47.67473 1103.6646,48.99999999999999 1102.5,48.99999999999999 C 1101.3857,48.99999999999999 1101.0,47.826029999999996 1101.0,44.434259999999995 C 1101.0,38.64425 1099.5959,36.0 1096.5215,36.0 C 1093.245,36.0 1091.0,39.54657 1091.0,44.7225 C 1091.0,47.85805 1090.5996,49.0 1089.5,49.0 C 1088.2619,49.0 1088.0,47.16667 1088.0,38.5" fill="none" stroke="#000000" stroke-width="1.2380002000000012"/>
  <path d="M 1200.0,50.22368 C 1200.0,41.61511 1199.8956,41.235170000000004 1194.5391,30.34702 C 1188.9195,18.92417 1181.4142,9.299780000000002 1175.9039,6.450300000000002 C 1172.0801000000001,4.472920000000002 1155.9199,4.472920000000002 1152.0961,6.450300000000002 C 1146.7028,9.239270000000001 1139.1761,18.8377 1133.5157,30.144980000000004 C 1128.064,41.03521 1128.0,41.26666 1128.0,50.08156 L 1128.0,59.0 L 1164.0,59.0 L 1200.0,59.0 L 1200.0,50.22368" fill="none" stroke="#000000" stroke-width="1.2380002000000012"/>
  <path d="M 1146.0318,48.25 C 1146.0488,47.8375 1146.7243,46.62649 1147.5318,45.55887 C 1149.4146,43.06955 1149.3914,42.0 1147.4548,42.0 C 1145.0924,42.0 1141.0003,37.38442 1141.0003,34.71977 C 1141.0003,31.06854 1145.3466999999998,27.585099999999997 1149.7468999999999,27.709819999999997 C 1154.3508,27.840329999999998 1158.4707999999998,31.989289999999997 1157.5681,35.58605 C 1156.6068,39.41604 1149.6303,48.92092 1147.7503,48.96187 C 1146.7877999999998,48.98287 1146.0146,48.662499999999994 1146.0321,48.25 L 1146.0318,48.25" fill="none" stroke="#000000" stroke-width="1.2380002000000012"/>
  <path d="M 1153.394,36.75 C 1155.1077,34.01316 1152.9521,31.5 1148.891,31.5 C 1146.1116000000002,31.5 1145.4411,31.91573 1145.1732000000002,33.80504 C 1144.9935000000003,35.07281 1145.4050000000002,36.78306 1146.0876,37.605599999999995 C 1147.6779000000001,39.52177 1151.9735,39.01875 1153.394,36.74999999999999 L 1153.394,36.75" fill="none" stroke="#000000" stroke-width="1.2380002000000012"/>
  <path d="M 1161.0,42.5 C 1161.0,38.833330000000004 1160.5641,36.0 1160.0,36.0 C 1159.45,36.0 1159.0,35.325 1159.0,34.5 C 1159.0,33.675 1159.45,33.0 1160.0,33.0 C 1160.55,33.0 1161.0,31.875 1161.0,30.5 C 1161.0,28.66667 1161.5333,28.0 1163.0,28.0 C 1164.4667,28.0 1165.0,28.66667 1165.0,30.5 C 1165.0,31.875 1165.45,33.0 1166.0,33.0 C 1166.55,33.0 1167.0,33.675 1167.0,34.5 C 1167.0,35.325 1166.55,36.0 1166.0,36.0 C 1165.4359,36.0 1165.0,38.833330000000004 1165.0,42.5 C 1165.0,48.333330000000004 1164.7949,49.0 1163.0,49.0 C 1161.2051,49.0 1161.0,48.33333 1161.0,42.5" fill="none" stroke="#000000" stroke-width="1.2380002000000012"/>
  <path d="M 1170.0,38.5 C 1170.0,29.83333 1170.2619,28.0 1171.5,28.0 C 1172.4891,28.0 1173.0,28.98943 1173.0,30.90484 C 1173.0,33.68378 1173.1625,33.78801 1176.75,33.30963 C 1179.6016,32.92937 1181.1588,33.32893 1183.25,34.97736 C 1185.6969,36.90622 1186.0,37.7985 1186.0,43.072579999999995 C 1186.0,47.67473 1185.6646,48.99999999999999 1184.5,48.99999999999999 C 1183.3857,48.99999999999999 1183.0,47.826029999999996 1183.0,44.434259999999995 C 1183.0,38.64425 1181.5959,36.0 1178.5215,36.0 C 1175.245,36.0 1173.0,39.54657 1173.0,44.7225 C 1173.0,47.85805 1172.5996,49.0 1171.5,49.0 C 1170.2619,49.0 1170.0,47.16667 1170.0,38.5" fill="none" stroke="#000000" stroke-width="1.2380002000000012"/>
  <path d="M 9.145615,34.48693 C 12.688508,30.4518 26.35967,21.09919 33.588682,17.76513 L 38.5,15.5 L 30.5,15.18437 L 22.5,14.868739999999999 L 19.5,18.66641 C 17.85,20.755129999999998 13.9125,25.21038 10.75,28.566969999999998 C 7.5875,31.92356 5.0,35.41914 5.0,36.33493 C 5.0,38.73514 5.682935,38.43071 9.145615,34.48693" fill="none" stroke="#000000" stroke-width="1.2380002000000012"/>
  <path d="M 725.0,23.83859 C 726.925,20.42203 730.91097,15.01067 733.85771,11.81333 C 738.40582,6.87845 738.89231,6.0 737.07717,6.0 C 735.88846,6.0 733.58424,7.54286 731.8884,9.47433 C 730.21063,11.38521 726.6243800000001,14.573540000000001 723.9189600000001,16.5595 L 719.0000100000001,20.17034 L 719.0318100000001,26.835169999999998 C 719.06771,34.364149999999995 719.0703100000001,34.36287 725.0000000000001,23.838589999999996 L 725.0,23.83859" fill="none" stroke="#000000" stroke-width="1.2380002000000012"/>
  <path d="M 791.0,26.585169999999998 L 791.0,20.170339999999996 L 786.25,16.665229999999994 C 783.63751,14.73743 779.94922,11.5491 778.05383,9.58007 C 776.15844,7.61103 773.70036,6.0 772.59143,6.0 C 770.93832,6.0 771.4112799999999,6.85551 775.21737,10.75 C 779.94646,15.58892 789.0,29.3532 789.0,31.70401 C 789.0,32.41681 789.45001,33.0 790.0,33.0 C 790.56274,33.0 791.0,30.195050000000002 791.0,26.585169999999998" fill="none" stroke="#000000" stroke-width="1.2380002000000012"/>
  <path d="M 807.0,23.838589999999996 C 808.925,20.422029999999996 812.91097,15.010669999999996 815.85771,11.813329999999997 C 820.40582,6.87845 820.89231,6.0 819.07717,6.0 C 817.88846,6.0 815.58424,7.54286 813.8884,9.47433 C 812.21063,11.38521 808.6243800000001,14.573540000000001 805.9189600000001,16.5595 L 801.0000100000001,20.17034 L 801.0318100000001,26.835169999999998 C 801.06771,34.364149999999995 801.0703100000001,34.36287 807.0000000000001,23.838589999999996 L 807.0,23.838589999999996" fill="none" stroke="#000000" stroke-width="1.2380002000000012"/>
  <path d="M 873.0,26.585169999999998 L 873.0,20.170339999999996 L 868.25,16.665229999999994 C 865.63751,14.73743 861.94922,11.5491 860.05383,9.58007 C 858.15844,7.61103 855.70036,6.0 854.59143,6.0 C 852.93832,6.0 853.4112799999999,6.85551 857.21737,10.75 C 861.94646,15.58892 871.0,29.3532 871.0,31.70401 C 871.0,32.41681 871.45001,33.0 872.0,33.0 C 872.56274,33.0 873.0,30.195050000000002 873.0,26.585169999999998" fill="none" stroke="#000000" stroke-width="1.2380002000000012"/>
  <path d="M 889.0,23.838589999999996 C 890.925,20.422029999999996 894.91097,15.010669999999996 897.85771,11.813329999999997 C 902.40582,6.87845 902.89231,6.0 901.07717,6.0 C 899.88846,6.0 897.58424,7.54286 895.8884,9.47433 C 894.21063,11.38521 890.6243800000001,14.573540000000001 887.9189600000001,16.5595 L 883.0000100000001,20.17034 L 883.0318100000001,26.835169999999998 C 883.06771,34.364149999999995 883.0703100000001,34.36287 889.0000000000001,23.838589999999996 L 889.0,23.838589999999996" fill="none" stroke="#000000" stroke-width="1.2380002000000012"/>
  <path d="M 955.0,26.585169999999998 L 955.0,20.170339999999996 L 950.25,16.665229999999994 C 947.63751,14.73743 943.94922,11.5491 942.05383,9.58007 C 940.15844,7.61103 937.70036,6.0 936.59143,6.0 C 934.93832,6.0 935.4112799999999,6.85551 939.21737,10.75 C 943.94646,15.58892 953.0,29.3532 953.0,31.70401 C 953.0,32.41681 953.45001,33.0 954.0,33.0 C 954.56274,33.0 955.0,30.195050000000002 955.0,26.585169999999998" fill="none" stroke="#000000" stroke-width="1.2380002000000012"/>
  <path d="M 479.0,22.83859 C 480.925,19.42203 484.91097,14.01067 487.85771,10.81333 C 492.40582,5.87845 492.89231,5.0 491.07716,5.0 C 489.88845,5.0 487.58423999999997,6.54286 485.88839,8.47433 C 484.21062,10.38521 480.62437,13.573540000000001 477.91895,15.5595 L 473.0,19.17034 L 473.0318,25.835169999999998 C 473.0677,33.364149999999995 473.0703,33.36287 479.0,22.838589999999996 L 479.0,22.83859" fill="none" stroke="#000000" stroke-width="1.2380002000000012"/>
  <path d="M 545.0,25.585169999999998 L 545.0,19.170339999999996 L 540.25,15.665229999999996 C 537.63751,13.73743 533.94923,10.5491 532.05384,8.58007 C 530.15845,6.61103 527.70037,5.0 526.59144,5.0 C 524.93832,5.0 525.41129,5.85551 529.21738,9.75 C 533.94646,14.58892 543.0,28.3532 543.0,30.70401 C 543.0,31.41681 543.45001,32.0 544.0,32.0 C 544.56275,32.0 545.0,29.195050000000002 545.0,25.585169999999998" fill="none" stroke="#000000" stroke-width="1.2380002000000012"/>
  <path d="M 561.0,22.838589999999996 C 562.925,19.422029999999996 566.91097,14.010669999999996 569.85771,10.813329999999997 C 574.40582,5.87845 574.89231,5.0 573.07717,5.0 C 571.88846,5.0 569.58424,6.54286 567.8884,8.47433 C 566.21063,10.38521 562.6243800000001,13.573540000000001 559.9189600000001,15.5595 L 555.0000100000001,19.17034 L 555.0318100000001,25.835169999999998 C 555.06771,33.364149999999995 555.0703100000001,33.36287 561.0000000000001,22.838589999999996 L 561.0,22.838589999999996" fill="none" stroke="#000000" stroke-width="1.2380002000000012"/>
  <path d="M 627.0,25.585169999999998 L 627.0,19.170339999999996 L 622.25,15.665229999999996 C 619.63751,13.73743 615.94922,10.5491 614.05383,8.58007 C 612.15844,6.61103 609.70036,5.0 608.59143,5.0 C 606.93832,5.0 607.41128,5.85551 611.21737,9.75 C 615.94646,14.58892 625.0,28.3532 625.0,30.70401 C 625.0,31.41681 625.45001,32.0 626.0,32.0 C 626.56274,32.0 627.0,29.195050000000002 627.0,25.585169999999998" fill="none" stroke="#000000" stroke-width="1.2380002000000012"/>
  <path d="M 643.0,22.838589999999996 C 644.925,19.422029999999996 648.91097,14.010669999999996 651.85771,10.813329999999997 C 656.40582,5.87845 656.89231,5.0 655.07717,5.0 C 653.88846,5.0 651.58424,6.54286 649.8884,8.47433 C 648.21063,10.38521 644.6243800000001,13.573540000000001 641.9189600000001,15.5595 L 637.0000100000001,19.17034 L 637.0318100000001,25.835169999999998 C 637.06771,33.364149999999995 637.0703100000001,33.36287 643.0000000000001,22.838589999999996 L 643.0,22.838589999999996" fill="none" stroke="#000000" stroke-width="1.2380002000000012"/>
  <path d="M 709.0,25.585169999999998 L 709.0,19.170339999999996 L 704.25,15.665229999999996 C 701.63751,13.73743 697.94922,10.5491 696.05383,8.58007 C 694.15844,6.61103 691.70036,5.0 690.59143,5.0 C 688.93832,5.0 689.41128,5.85551 693.21737,9.75 C 697.94646,14.58892 707.0,28.3532 707.0,30.70401 C 707.0,31.41681 707.45001,32.0 708.0,32.0 C 708.56274,32.0 709.0,29.195050000000002 709.0,25.585169999999998" fill="none" stroke="#000000" stroke-width="1.2380002000000012"/>
  <path d="M 970.0,22.838589999999996 C 971.925,19.422029999999996 975.91097,14.010669999999996 978.85771,10.813329999999997 C 983.40582,5.87845 983.89231,5.0 982.07717,5.0 C 980.88846,5.0 978.58424,6.54286 976.8884,8.47433 C 975.21063,10.38521 971.6243800000001,13.573540000000001 968.9189600000001,15.5595 L 964.0000100000001,19.17034 L 964.0318100000001,25.835169999999998 C 964.06771,33.364149999999995 964.0703100000001,33.36287 970.0000000000001,22.838589999999996 L 970.0,22.838589999999996" fill="none" stroke="#000000" stroke-width="1.2380002000000012"/>
  <path d="M 1036.0,25.585169999999998 L 1036.0,19.170339999999996 L 1031.25,15.665229999999996 C 1028.6375,13.737429999999996 1024.9492,10.549099999999996 1023.0538,8.580069999999996 C 1021.1584,6.61103 1018.7004,5.0 1017.5914,5.0 C 1015.9383,5.0 1016.4113,5.85551 1020.2174,9.75 C 1024.9465,14.58892 1034.0,28.3532 1034.0,30.70401 C 1034.0,31.41681 1034.45,32.0 1035.0,32.0 C 1035.5627,32.0 1036.0,29.195050000000002 1036.0,25.585169999999998" fill="none" stroke="#000000" stroke-width="1.2380002000000012"/>
  <path d="M 1052.0,22.838589999999996 C 1053.925,19.422029999999996 1057.911,14.010669999999996 1060.8577,10.813329999999997 C 1065.4058,5.87845 1065.8923,5.0 1064.0772,5.0 C 1062.8884,5.0 1060.5842,6.54286 1058.8884,8.47433 C 1057.2106,10.38521 1053.6244000000002,13.573540000000001 1050.9189000000001,15.5595 L 1046.0000000000002,19.17034 L 1046.0320000000002,25.835169999999998 C 1046.0680000000002,33.364149999999995 1046.0710000000001,33.36287 1052.0002000000002,22.838589999999996 L 1052.0,22.838589999999996" fill="none" stroke="#000000" stroke-width="1.2380002000000012"/>
  <path d="M 1118.0,25.585169999999998 L 1118.0,19.170339999999996 L 1113.25,15.665229999999996 C 1110.6375,13.737429999999996 1106.9492,10.549099999999996 1105.0538,8.580069999999996 C 1103.1584,6.61103 1100.7004,5.0 1099.5914,5.0 C 1097.9383,5.0 1098.4113,5.85551 1102.2174,9.75 C 1106.9465,14.58892 1116.0,28.3532 1116.0,30.70401 C 1116.0,31.41681 1116.45,32.0 1117.0,32.0 C 1117.5627,32.0 1118.0,29.195050000000002 1118.0,25.585169999999998" fill="none" stroke="#000000" stroke-width="1.2380002000000012"/>
  <path d="M 1134.0,22.838589999999996 C 1135.925,19.422029999999996 1139.911,14.010669999999996 1142.8577,10.813329999999997 C 1147.4058,5.87845 1147.8923,5.0 1146.0772,5.0 C 1144.8884,5.0 1142.5842,6.54286 1140.8884,8.47433 C 1139.2106,10.38521 1135.6244000000002,13.573540000000001 1132.9189000000001,15.5595 L 1128.0000000000002,19.17034 L 1128.0320000000002,25.835169999999998 C 1128.0680000000002,33.364149999999995 1128.0710000000001,33.36287 1134.0002000000002,22.838589999999996 L 1134.0,22.838589999999996" fill="none" stroke="#000000" stroke-width="1.2380002000000012"/>
  <path d="M 1200.0,25.585169999999998 L 1200.0,19.170339999999996 L 1195.25,15.665229999999996 C 1192.6375,13.737429999999996 1188.9492,10.549099999999996 1187.0538,8.580069999999996 C 1185.1584,6.61103 1182.7004,5.0 1181.5914,5.0 C 1179.9383,5.0 1180.4113,5.85551 1184.2174,9.75 C 1188.9465,14.58892 1198.0,28.3532 1198.0,30.70401 C 1198.0,31.41681 1198.45,32.0 1199.0,32.0 C 1199.5627,32.0 1200.0,29.195050000000002 1200.0,25.585169999999998" fill="none" stroke="#000000" stroke-width="1.2380002000000012"/>
  <path d="M 343.00001,18.58179 C 343.00001,18.351770000000002 343.27315,17.451770000000003 343.60699999999997,16.58179 C 344.14102,15.19015 342.67445,15.0 331.407,15.0 C 318.66409999999996,15.0 316.67019,15.76223 324.00001,17.83153 C 327.41781999999995,18.79642 343.00001,19.411720000000003 343.00001,18.58179" fill="none" stroke="#000000" stroke-width="1.2380002000000012"/>
  <path d="M 368.50001,12.954350000000002 C 374.00001,11.192600000000002 378.92751,9.357160000000002 379.45000999999996,8.875580000000003 C 380.00021,8.36848 377.09766,8.0 372.553,8.0 C 365.03718,8.0 364.52227,8.15054 360.353,11.56695 C 356.1367,15.02189 354.68854,17.34625 357.25001000000003,16.54738 C 357.93751000000003,16.33297 363.00001000000003,14.7161 368.50001000000003,12.95435 L 368.50001,12.954350000000002" fill="none" stroke="#000000" stroke-width="1.2380002000000012"/>
</svg>
