<?xml version="1.0" encoding="UTF-8" standalone="no"?>
<svg
     xmlns:dc="http://purl.org/dc/elements/1.1/"
     xmlns:cc="http://creativecommons.org/ns#"
     xmlns:rdf="http://www.w3.org/1999/02/22-rdf-syntax-ns#"
     xmlns:svg="http://www.w3.org/2000/svg"
     xmlns="http://www.w3.org/2000/svg"
     xmlns:sodipodi="http://sodipodi.sourceforge.net/DTD/sodipodi-0.dtd"
     xmlns:inkscape="http://www.inkscape.org/namespaces/inkscape"
     sodipodi:docname="ability_con.svg"
     inkscape:version="1.1-dev (1:0.92.0+devel+202001221713+085aa25)"
     id="svg35"
     version="1.1"
     viewBox="0 0 215.9 279.4"
     height="11in"
     width="8.5in">
    <defs
         id="defs29">
        <path
             d="m -25.14,50.53 c -27.37,3.82 -69.72,-3.82 -97.06,0 V 37.81 c 27.34,-3.82 69.69,3.81 97.06,0 z"
             style="fill:#ebf6f7;fill-opacity:1;stroke:#000000;stroke-width:0.5332;stroke-linecap:butt;stroke-linejoin:miter;stroke-miterlimit:10;stroke-dasharray:none;stroke-opacity:1"
             id="path402-5-3-8"
             inkscape:connector-curvature="0" />
    </defs>
    <sodipodi:namedview
         inkscape:snap-nodes="false"
         inkscape:window-maximized="1"
         inkscape:window-y="27"
         inkscape:window-x="0"
         inkscape:window-height="983"
         inkscape:window-width="1920"
         borderlayer="true"
         units="in"
         showgrid="true"
         inkscape:current-layer="layer1"
         inkscape:document-units="px"
         inkscape:cy="37.78"
         inkscape:cx="78.75"
         inkscape:zoom="5.6"
         inkscape:pageshadow="2"
         inkscape:pageopacity="0.0"
         borderopacity="1.0"
         bordercolor="#666666"
         pagecolor="#ffffff"
         id="base">
        <inkscape:grid
             id="grid310"
             type="xygrid" />
    </sodipodi:namedview>
    <metadata
         id="metadata32">
        <rdf:RDF>
            <cc:Work
                 rdf:about="">
                <dc:format>image/svg+xml</dc:format>
                <dc:type
                     rdf:resource="http://purl.org/dc/dcmitype/StillImage" />
                <dc:title></dc:title>
            </cc:Work>
        </rdf:RDF>
    </metadata>
    <g
         transform="translate(0,-17.6)"
         id="layer1"
         inkscape:groupmode="layer"
         inkscape:label="Layer 1">
        <path
             inkscape:connector-curvature="0"
             id="path1108"
             style="display:inline;opacity:1;fill:none;fill-opacity:1;fill-rule:nonzero;stroke:#000000;stroke-width:0.1323;stroke-opacity:1;stroke-miterlimit:4;stroke-dasharray:none"
             d="m 43.65,23.65 c 0,0 -0.79,-0.98 -2.36,-0.98 H 1.879 v -3.92 c 0,0 38.601,0 39.411,0 1.57,0 2.36,-0.97 2.36,-0.97 0,0 0,1.95 0.8,2.93 -0.8,0.98 -0.8,2.94 -0.8,2.94" />
        <path
             inkscape:connector-curvature="0"
             id="path1116"
             style="fill:none;fill-opacity:1;stroke:#000000;stroke-width:0.132289;stroke-linecap:butt;stroke-linejoin:miter;stroke-miterlimit:4;stroke-dasharray:none;stroke-opacity:1"
             d="m 0.088,18.13 c 4.349,-0.59 8.734,-0.59 13.082,0 -0.75,3.46 -0.94,7.34 -0.31,11.12 C 11.1,31.04 9.237,32.92 6.63,34.76 4.019,32.92 2.155,31.04 0.3945,29.25 1.029,25.47 0.8433,21.59 0.088,18.13 Z" />
        <text
             xml:space="preserve"
             style="font-style:normal;font-weight:normal;font-size:9.94458px;line-height:1.25;font-family:sans-serif;letter-spacing:0px;word-spacing:0px;display:inline;fill:#1d205e;fill-opacity:1;stroke:#9bbfd4;stroke-width:0;stroke-miterlimit:4;stroke-dasharray:none;stroke-opacity:1"
             x="15.06"
             y="19.89"
             id="text8686-9"
             transform="scale(0.9117,1.097)"><tspan
                 sodipodi:role="line"
                 id="tspan8684-3"
                 x="15.06"
                 y="19.89"
                 style="font-style:normal;font-variant:normal;font-weight:bold;font-stretch:normal;font-size:2.98336px;font-family:'Century Schoolbook L';-inkscape-font-specification:'Century Schoolbook L Bold';letter-spacing:0.791094px;fill:#111337;fill-opacity:1;stroke:#9bbfd4;stroke-width:0;stroke-miterlimit:4;stroke-dasharray:none;stroke-opacity:1">  DEXTERITY</tspan></text>
        <text
             xml:space="preserve"
             style="font-style:normal;font-variant:normal;font-weight:normal;font-stretch:normal;font-size:6.18037px;line-height:1.25;font-family:'Century Schoolbook L';-inkscape-font-specification:'Century Schoolbook L';letter-spacing:0px;word-spacing:0px;display:inline;fill:#463078;fill-opacity:1;stroke:#ebf6f7;stroke-width:0.170948;stroke-miterlimit:4;stroke-dasharray:none;stroke-opacity:1"
             x="2.415"
             y="24.88"
             id="text5487-8"
             transform="scale(0.9515,1.051)"><tspan
                 sodipodi:role="line"
                 x="2.415"
                 y="24.88"
                 style="font-size:8.24046px;fill:#463078;fill-opacity:1;stroke:#ebf6f7;stroke-width:0.170934;stroke-miterlimit:4;stroke-dasharray:none;stroke-opacity:1"
                 id="tspan5581">20</tspan></text>
        <text
             transform="scale(0.8327,1.201)"
             id="text6538-4-0-6"
             y="28.96"
             x="5.023"
             style="font-style:normal;font-variant:normal;font-weight:normal;font-stretch:normal;font-size:5.5073px;line-height:1.25;font-family:'Century Schoolbook L';-inkscape-font-specification:'Century Schoolbook L';letter-spacing:0px;word-spacing:0px;display:inline;fill:#659dbd;fill-opacity:1;stroke:#05386b;stroke-width:0.223708;stroke-miterlimit:4;stroke-dasharray:none;stroke-opacity:1"
             xml:space="preserve"><tspan
                 style="font-size:5.0528px;fill:#659dbd;fill-opacity:1;stroke:#05386b;stroke-width:0.223667;stroke-miterlimit:4;stroke-dasharray:none;stroke-opacity:1"
                 y="28.96"
                 x="5.023"
                 id="tspan6536-9-2-7"
                 sodipodi:role="line">+5</tspan></text>
        <circle
             r="3.855"
             cy="32.68"
             cx="6.618"
             id="path993"
             style="fill:none;fill-opacity:1;stroke:#000000;stroke-width:0.1323;stroke-linecap:round;stroke-linejoin:round;stroke-miterlimit:4;stroke-dasharray:none;stroke-opacity:1" />
        <circle
             style="fill:none;fill-opacity:1;stroke:#000000;stroke-width:0.132366;stroke-linecap:round;stroke-linejoin:round;stroke-miterlimit:4;stroke-dasharray:none;stroke-opacity:1"
             id="path993-5"
             cx="6.628"
             cy="32.69"
             r="4.445" />
        <path
             d="m 0.6049,18.77 c 3.9981,-0.55 8.0291,-0.55 12.0251,0 -0.69,3.18 -0.86,6.74 -0.28,10.22 -1.62,1.65 -3.335,3.38 -5.732,5.06 C 4.218,32.37 2.505,30.64 0.8866,28.99 1.47,25.51 1.299,21.95 0.6049,18.77 Z"
             style="fill:none;fill-opacity:1;stroke:#000000;stroke-width:0.132292;stroke-linecap:butt;stroke-linejoin:miter;stroke-miterlimit:4;stroke-dasharray:none;stroke-opacity:1"
             id="path1116-1"
             inkscape:connector-curvature="0" />
        <path
             style="opacity:0.5;fill:none;stroke:#000000;stroke-width:0.132212;stroke-miterlimit:4;stroke-dasharray:none;stroke-opacity:1"
             inkscape:connector-curvature="0"
             id="path2294"
             fill-opacity="1"
             fill="#fff"
             d="m 2.599,20.42 c -0.32,1.47 0.397,2.41 1.281,2.95 -0.662,-0.16 -1.303,-0.39 -1.966,-0.74 0.509,1.52 1.624,1.89 2.596,1.79 -0.541,0.28 -1.105,0.49 -1.679,0.64 1.381,0.85 2.397,0.31 2.96,-0.42 A 11.7,11.47 0 0 0 5.67,24.53 C 5.56,24.42 5.46,24.38 5.372,24.29 5.25,24.18 5.129,24.09 5.007,23.98 4.333,23.39 3.649,22.69 3.627,21.77 c 0,0 0,0 0,0 C 3.24,21.34 2.898,20.89 2.599,20.42 Z m 8.021,0 c -0.28,0.47 -0.631,0.92 -1.006,1.35 0,0 0,0 0,0 0,0.9 -0.674,1.62 -1.359,2.22 -0.277,0.23 -0.564,0.46 -0.796,0.66 0.563,0.73 1.569,1.24 2.931,0.4 -0.556,-0.14 -1.13,-0.35 -1.66,-0.63 0.972,0.11 2.07,-0.27 2.59,-1.79 -0.67,0.35 -1.31,0.58 -1.961,0.73 0.871,-0.53 1.591,-1.47 1.261,-2.94 z M 8,20.53 c -0.452,0 -0.905,0.23 -1.225,0.76 L 6.62,21.54 6.466,21.28 C 6.079,20.63 5.383,20.42 4.83,20.57 v 0 c -0.485,0.15 -0.861,0.54 -0.85,1.22 0,0.76 0.618,1.39 1.27,1.96 0.332,0.28 0.663,0.55 0.95,0.81 0.166,0.15 0.31,0.3 0.42,0.47 0.111,-0.15 0.265,-0.3 0.431,-0.44 0.287,-0.27 0.63,-0.55 0.961,-0.83 0.674,-0.59 1.259,-1.23 1.237,-1.95 0,-0.72 -0.453,-1.13 -0.972,-1.26 a 1.273,1.247 0 0 0 -0.287,0 z" />
    </g>
</svg>
