<?xml version="1.0" encoding="UTF-8" standalone="no"?>
<svg
     xmlns:dc="http://purl.org/dc/elements/1.1/"
     xmlns:cc="http://creativecommons.org/ns#"
     xmlns:rdf="http://www.w3.org/1999/02/22-rdf-syntax-ns#"
     xmlns:svg="http://www.w3.org/2000/svg"
     xmlns="http://www.w3.org/2000/svg"
     xmlns:sodipodi="http://sodipodi.sourceforge.net/DTD/sodipodi-0.dtd"
     xmlns:inkscape="http://www.inkscape.org/namespaces/inkscape"
     width="8.5in"
     height="11in"
     viewBox="0 0 215.9 279.4"
     version="1.1"
     id="svg35"
     inkscape:version="1.1-dev (1:0.92.0+devel+202001221713+085aa25)"
     sodipodi:docname="ability_wis.svg">
    <defs
         id="defs29">
        <path
             inkscape:connector-curvature="0"
             id="path402-5-3-8"
             style="fill:#ebf6f7;fill-opacity:1;stroke:#000000;stroke-width:0.5332;stroke-linecap:butt;stroke-linejoin:miter;stroke-miterlimit:10;stroke-dasharray:none;stroke-opacity:1"
             d="m -25.14,50.53 c -27.37,3.82 -69.72,-3.82 -97.06,0 V 37.81 c 27.34,-3.82 69.69,3.81 97.06,0 z" />
    </defs>
    <sodipodi:namedview
         id="base"
         pagecolor="#ffffff"
         bordercolor="#666666"
         borderopacity="1.0"
         inkscape:pageopacity="0.0"
         inkscape:pageshadow="2"
         inkscape:zoom="5.6"
         inkscape:cx="69.55"
         inkscape:cy="37.78"
         inkscape:document-units="px"
         inkscape:current-layer="layer1"
         showgrid="true"
         units="in"
         borderlayer="true"
         inkscape:window-width="1920"
         inkscape:window-height="983"
         inkscape:window-x="0"
         inkscape:window-y="27"
         inkscape:window-maximized="1"
         inkscape:snap-nodes="false">
        <inkscape:grid
             type="xygrid"
             id="grid310" />
    </sodipodi:namedview>
    <metadata
         id="metadata32">
        <rdf:RDF>
            <cc:Work
                 rdf:about="">
                <dc:format>image/svg+xml</dc:format>
                <dc:type
                     rdf:resource="http://purl.org/dc/dcmitype/StillImage" />
                <dc:title></dc:title>
            </cc:Work>
        </rdf:RDF>
    </metadata>
    <g
         inkscape:label="Layer 1"
         inkscape:groupmode="layer"
         id="layer1"
         transform="translate(0,-17.6)">
        <path
             d="m 43.65,23.65 c 0,0 -0.79,-0.98 -2.36,-0.98 H 1.879 v -3.92 c 0,0 38.601,0 39.411,0 1.57,0 2.36,-0.97 2.36,-0.97 0,0 0,1.95 0.8,2.93 -0.8,0.98 -0.8,2.94 -0.8,2.94"
             style="display:inline;opacity:1;fill:none;fill-opacity:1;fill-rule:nonzero;stroke:#000000;stroke-width:0.1323;stroke-opacity:1;stroke-miterlimit:4;stroke-dasharray:none"
             id="path1108"
             inkscape:connector-curvature="0" />
        <path
             d="m 0.088,18.13 c 4.349,-0.59 8.734,-0.59 13.082,0 -0.75,3.46 -0.94,7.34 -0.31,11.12 C 11.1,31.04 9.237,32.92 6.63,34.76 4.019,32.92 2.155,31.04 0.3945,29.25 1.029,25.47 0.8433,21.59 0.088,18.13 Z"
             style="fill:none;fill-opacity:1;stroke:#000000;stroke-width:0.132289;stroke-linecap:butt;stroke-linejoin:miter;stroke-miterlimit:4;stroke-dasharray:none;stroke-opacity:1"
             id="path1116"
             inkscape:connector-curvature="0" />
        <text
             transform="scale(0.9117,1.097)"
             id="text8686-9"
             y="19.89"
             x="15.06"
             style="font-style:normal;font-weight:normal;font-size:9.94458px;line-height:1.25;font-family:sans-serif;letter-spacing:0px;word-spacing:0px;display:inline;fill:#1d205e;fill-opacity:1;stroke:#9bbfd4;stroke-width:0;stroke-miterlimit:4;stroke-dasharray:none;stroke-opacity:1"
             xml:space="preserve"><tspan
                 style="font-style:normal;font-variant:normal;font-weight:bold;font-stretch:normal;font-size:2.98336px;font-family:'Century Schoolbook L';-inkscape-font-specification:'Century Schoolbook L Bold';letter-spacing:0.791094px;fill:#111337;fill-opacity:1;stroke:#9bbfd4;stroke-width:0;stroke-miterlimit:4;stroke-dasharray:none;stroke-opacity:1"
                 y="19.89"
                 x="15.06"
                 id="tspan8684-3"
                 sodipodi:role="line">  DEXTERITY</tspan></text>
        <text
             transform="scale(0.9515,1.051)"
             id="text5487-8"
             y="24.88"
             x="2.415"
             style="font-style:normal;font-variant:normal;font-weight:normal;font-stretch:normal;font-size:6.18037px;line-height:1.25;font-family:'Century Schoolbook L';-inkscape-font-specification:'Century Schoolbook L';letter-spacing:0px;word-spacing:0px;display:inline;fill:#463078;fill-opacity:1;stroke:#ebf6f7;stroke-width:0.170948;stroke-miterlimit:4;stroke-dasharray:none;stroke-opacity:1"
             xml:space="preserve"><tspan
                 id="tspan5581"
                 style="font-size:8.24046px;fill:#463078;fill-opacity:1;stroke:#ebf6f7;stroke-width:0.170934;stroke-miterlimit:4;stroke-dasharray:none;stroke-opacity:1"
                 y="24.88"
                 x="2.415"
                 sodipodi:role="line">20</tspan></text>
        <text
             xml:space="preserve"
             style="font-style:normal;font-variant:normal;font-weight:normal;font-stretch:normal;font-size:5.5073px;line-height:1.25;font-family:'Century Schoolbook L';-inkscape-font-specification:'Century Schoolbook L';letter-spacing:0px;word-spacing:0px;display:inline;fill:#659dbd;fill-opacity:1;stroke:#05386b;stroke-width:0.223708;stroke-miterlimit:4;stroke-dasharray:none;stroke-opacity:1"
             x="5.023"
             y="28.96"
             id="text6538-4-0-6"
             transform="scale(0.8327,1.201)"><tspan
                 sodipodi:role="line"
                 id="tspan6536-9-2-7"
                 x="5.023"
                 y="28.96"
                 style="font-size:5.0528px;fill:#659dbd;fill-opacity:1;stroke:#05386b;stroke-width:0.223667;stroke-miterlimit:4;stroke-dasharray:none;stroke-opacity:1">+5</tspan></text>
        <circle
             style="fill:none;fill-opacity:1;stroke:#000000;stroke-width:0.1323;stroke-linecap:round;stroke-linejoin:round;stroke-miterlimit:4;stroke-dasharray:none;stroke-opacity:1"
             id="path993"
             cx="6.618"
             cy="32.68"
             r="3.855" />
        <circle
             r="4.445"
             cy="32.69"
             cx="6.628"
             id="path993-5"
             style="fill:none;fill-opacity:1;stroke:#000000;stroke-width:0.132366;stroke-linecap:round;stroke-linejoin:round;stroke-miterlimit:4;stroke-dasharray:none;stroke-opacity:1" />
        <path
             inkscape:connector-curvature="0"
             id="path1116-1"
             style="fill:none;fill-opacity:1;stroke:#000000;stroke-width:0.132292;stroke-linecap:butt;stroke-linejoin:miter;stroke-miterlimit:4;stroke-dasharray:none;stroke-opacity:1"
             d="m 0.6049,18.77 c 3.9981,-0.55 8.0291,-0.55 12.0251,0 -0.69,3.18 -0.86,6.74 -0.28,10.22 -1.62,1.65 -3.335,3.38 -5.732,5.06 C 4.218,32.37 2.505,30.64 0.8866,28.99 1.47,25.51 1.299,21.95 0.6049,18.77 Z" />
        <g
             style="stroke-width:7.9694;fill:none;stroke:#000000;stroke-opacity:1;stroke-miterlimit:4;stroke-dasharray:none;opacity:0.33"
             transform="matrix(0.0166,0,0,0.0166,2.363,18.92)"
             id="g22">
            <path
                 style="stroke-width:7.9694;fill:none;stroke:#000000;stroke-opacity:1;stroke-miterlimit:4;stroke-dasharray:none"
                 inkscape:connector-curvature="0"
                 id="path3"
                 d="m 328.1,287.7 c -5.8,-0.4 -10.9,3.9 -11.4,9.7 -0.1,1.2 -0.2,2.4 -0.3,3.5 -0.5,5.8 3.8,11 9.6,11.5 0.3,0 0.6,0 1,0 5.4,0 10,-4.1 10.5,-9.6 0.1,-1.2 0.2,-2.5 0.3,-3.7 0.4,-5.8 -3.9,-10.9 -9.7,-11.4 z" />
            <path
                 style="stroke-width:7.9694;fill:none;stroke:#000000;stroke-opacity:1;stroke-miterlimit:4;stroke-dasharray:none"
                 inkscape:connector-curvature="0"
                 id="path5"
                 d="m 191.1,106 c -16.7,0 -30.3,13.7 -30.3,30.4 0,16.7 13.6,30.3 30.3,30.3 16.8,0 30.4,-13.6 30.4,-30.3 0,-16.7 -13.6,-30.4 -30.4,-30.4 z m 0,39.6 c -5.1,0 -9.2,-4.1 -9.2,-9.2 0,-5.1 4.1,-9.2 9.2,-9.2 5.1,0 9.3,4.1 9.3,9.2 0,5.1 -4.2,9.2 -9.3,9.2 z" />
            <path
                 style="stroke-width:7.9694;fill:none;stroke:#000000;stroke-opacity:1;stroke-miterlimit:4;stroke-dasharray:none"
                 inkscape:connector-curvature="0"
                 id="path7"
                 d="m 320.9,106 c -16.8,0 -30.4,13.7 -30.4,30.4 0,16.7 13.6,30.3 30.4,30.3 16.7,0 30.3,-13.6 30.3,-30.3 0,-16.7 -13.6,-30.4 -30.3,-30.4 z m 0,39.6 c -5.1,0 -9.3,-4.1 -9.3,-9.2 0,-5.1 4.2,-9.2 9.3,-9.2 5.1,0 9.2,4.1 9.2,9.2 0,5.1 -4.1,9.2 -9.2,9.2 z" />
            <path
                 style="stroke-width:7.9694;fill:none;stroke:#000000;stroke-opacity:1;stroke-miterlimit:4;stroke-dasharray:none"
                 inkscape:connector-curvature="0"
                 id="path9"
                 d="m 392.8,433.1 h -75.5 c 44.1,-32.5 72.6,-98.2 72.6,-171.2 0,-21.1 -2.4,-41.9 -7,-61.7 8.9,-18.7 13.4,-38.9 13.4,-59.9 0,-10.7 -1.2,-21.4 -3.6,-31.7 -0.1,-0.7 -0.3,-1.3 -0.5,-2 0,-0.1 0,-0.2 -0.1,-0.2 C 384.8,76.62 367.4,49.69 343.3,30.48 318.3,10.54 288.1,0 256,0 c -32.1,0 -62.3,10.54 -87.3,30.47 -24.2,19.28 -41.6,46.35 -48.9,76.23 -0.1,0.2 -0.1,0.4 -0.2,0.6 -2.6,10.7 -3.9,21.8 -3.9,33 0,21 4.5,41.2 13.4,59.9 -4.6,19.8 -7,40.6 -7,61.7 0,73 28.5,138.7 72.6,171.2 h -75.5 c -5.8,0 -10.5,4.7 -10.5,10.5 0,5.8 4.7,10.6 10.5,10.6 h 79.6 l -7.1,19.8 c -3.1,8.7 -1.8,18.4 3.5,25.9 5.3,7.6 13.9,12.1 23.2,12.1 h 37.6 37.6 c 9.3,0 17.9,-4.5 23.2,-12.1 5.3,-7.5 6.6,-17.2 3.5,-25.9 l -7.1,-19.8 h 79.6 c 5.8,0 10.5,-4.8 10.5,-10.6 0,-5.8 -4.7,-10.5 -10.5,-10.5 z M 256,21.11 c 34.2,0 65.5,14.37 87.4,38.03 -7.2,-2.25 -14.7,-3.47 -22.5,-3.47 -20.2,0 -39.1,7.85 -53.4,22.09 -4.5,4.5 -8.3,9.47 -11.5,14.8 -3.2,-5.33 -7,-10.3 -11.5,-14.81 -14.3,-14.24 -33.2,-22.08 -53.4,-22.08 -7.8,0 -15.3,1.21 -22.5,3.47 C 190.5,35.48 221.8,21.11 256,21.11 Z M 140.1,112.5 c 7.8,-21.37 28.2,-35.71 51,-35.71 14.5,0 28.2,5.65 38.4,15.89 10.3,10.32 15.9,23.92 15.9,38.42 v 45.5 c 0,5.9 4.8,10.6 10.6,10.6 5.8,0 10.6,-4.7 10.6,-10.6 v -45.5 c 0,-14.5 5.6,-28.1 15.9,-38.41 10.2,-10.25 23.9,-15.9 38.4,-15.9 22.8,0 43.2,14.36 51,35.81 2.2,9 3.3,18.3 3.3,27.7 0,19 -4.4,37.1 -12.9,53.9 -9.2,18.1 -22.9,33.6 -39.7,44.9 -19.7,13.3 -42.7,20.4 -66.6,20.4 -23.9,0 -46.9,-7.1 -66.6,-20.4 -16.8,-11.3 -30.5,-26.8 -39.7,-44.8 0,-0.2 -0.1,-0.3 -0.1,-0.4 -8.5,-16.7 -12.8,-34.7 -12.8,-53.6 0,-9.4 1.1,-18.8 3.3,-27.8 z M 166,364.6 c -14.9,-29.8 -22.8,-65.4 -22.8,-102.7 0,-11.8 0.9,-23.5 2.5,-35 7.8,9.9 16.9,18.8 27.1,26.3 0,3 -0.1,5.9 -0.1,8.7 0,49.4 7.7,96.2 21.8,131.6 2.8,7.2 5.8,13.7 9.1,19.7 C 189,401.4 176,384.7 166,364.6 Z m 79.4,126.3 h -27 c -3.4,0 -5.3,-2.2 -6,-3.1 -0.6,-0.9 -2,-3.4 -0.8,-6.6 l 9.7,-27 h 24.1 z m 54.2,-3.1 c -0.7,0.9 -2.6,3.1 -6,3.1 h -27 v -36.7 h 24.1 l 9.8,27 c 1.1,3.2 -0.3,5.7 -0.9,6.6 z m 8.9,-74.6 c 11.2,-20.7 20,-48.5 25.4,-81.7 0.9,-5.8 -3,-11.2 -8.8,-12.1 -5.7,-0.9 -11.1,3 -12.1,8.7 -9.8,61.1 -33,104.2 -56.4,105 -0.2,0 -0.4,0 -0.6,0 -0.2,0 -0.4,0 -0.6,0 -28.7,-1 -60.6,-69.5 -61.5,-167 19.2,9.5 40.3,14.5 62.1,14.5 21.8,0 42.9,-5 62.1,-14.5 0,1.7 0,3.3 0,5 -0.2,5.8 4.5,10.7 10.3,10.8 0.1,0 0.1,0 0.2,0 5.7,0 10.4,-4.6 10.6,-10.4 0,-3.1 0.1,-6.4 0.1,-9.6 0,-2.8 -0.1,-5.7 -0.1,-8.7 10.2,-7.5 19.3,-16.4 27.1,-26.3 1.6,11.5 2.5,23.2 2.5,35 0,37.3 -7.9,72.9 -22.8,102.7 -10,20.1 -22.9,36.8 -37.5,48.6 z" />
        </g>
    </g>
</svg>
