<?xml version="1.0" encoding="UTF-8" standalone="no"?>
<svg
     xmlns:dc="http://purl.org/dc/elements/1.1/"
     xmlns:cc="http://creativecommons.org/ns#"
     xmlns:rdf="http://www.w3.org/1999/02/22-rdf-syntax-ns#"
     xmlns:svg="http://www.w3.org/2000/svg"
     xmlns="http://www.w3.org/2000/svg"
     xmlns:sodipodi="http://sodipodi.sourceforge.net/DTD/sodipodi-0.dtd"
     xmlns:inkscape="http://www.inkscape.org/namespaces/inkscape"
     width="8.5in"
     height="11in"
     viewBox="0 0 215.9 279.4"
     version="1.1"
     id="svg35"
     inkscape:version="1.1-dev (1:0.92.0+devel+202001221713+085aa25)"
     sodipodi:docname="ability_cha.svg">
    <defs
         id="defs29">
        <path
             inkscape:connector-curvature="0"
             id="path402-5-3-8"
             style="fill:#ebf6f7;fill-opacity:1;stroke:#000000;stroke-width:0.5332;stroke-linecap:butt;stroke-linejoin:miter;stroke-miterlimit:10;stroke-dasharray:none;stroke-opacity:1"
             d="m -25.14,50.53 c -27.37,3.82 -69.72,-3.82 -97.06,0 V 37.81 c 27.34,-3.82 69.69,3.81 97.06,0 z" />
    </defs>
    <sodipodi:namedview
         id="base"
         pagecolor="#ffffff"
         bordercolor="#666666"
         borderopacity="1.0"
         inkscape:pageopacity="0.0"
         inkscape:pageshadow="2"
         inkscape:zoom="5.6"
         inkscape:cx="69.55"
         inkscape:cy="37.78"
         inkscape:document-units="px"
         inkscape:current-layer="layer1"
         showgrid="true"
         units="in"
         borderlayer="true"
         inkscape:window-width="1920"
         inkscape:window-height="983"
         inkscape:window-x="0"
         inkscape:window-y="27"
         inkscape:window-maximized="1"
         inkscape:snap-nodes="false">
        <inkscape:grid
             type="xygrid"
             id="grid310" />
    </sodipodi:namedview>
    <metadata
         id="metadata32">
        <rdf:RDF>
            <cc:Work
                 rdf:about="">
                <dc:format>image/svg+xml</dc:format>
                <dc:type
                     rdf:resource="http://purl.org/dc/dcmitype/StillImage" />
                <dc:title></dc:title>
            </cc:Work>
        </rdf:RDF>
    </metadata>
    <g
         inkscape:label="Layer 1"
         inkscape:groupmode="layer"
         id="layer1"
         transform="translate(0,-17.6)">
        <path
             d="m 43.65,23.65 c 0,0 -0.79,-0.98 -2.36,-0.98 H 1.879 v -3.92 c 0,0 38.601,0 39.411,0 1.57,0 2.36,-0.97 2.36,-0.97 0,0 0,1.95 0.8,2.93 -0.8,0.98 -0.8,2.94 -0.8,2.94"
             style="display:inline;opacity:1;fill:none;fill-opacity:1;fill-rule:nonzero;stroke:#000000;stroke-width:0.1323;stroke-opacity:1;stroke-miterlimit:4;stroke-dasharray:none"
             id="path1108"
             inkscape:connector-curvature="0" />
        <path
             d="m 0.088,18.13 c 4.349,-0.59 8.734,-0.59 13.082,0 -0.75,3.46 -0.94,7.34 -0.31,11.12 C 11.1,31.04 9.237,32.92 6.63,34.76 4.019,32.92 2.155,31.04 0.3945,29.25 1.029,25.47 0.8433,21.59 0.088,18.13 Z"
             style="fill:none;fill-opacity:1;stroke:#000000;stroke-width:0.132289;stroke-linecap:butt;stroke-linejoin:miter;stroke-miterlimit:4;stroke-dasharray:none;stroke-opacity:1"
             id="path1116"
             inkscape:connector-curvature="0" />
        <text
             transform="scale(0.9117,1.097)"
             id="text8686-9"
             y="19.89"
             x="15.06"
             style="font-style:normal;font-weight:normal;font-size:9.94458px;line-height:1.25;font-family:sans-serif;letter-spacing:0px;word-spacing:0px;display:inline;fill:#1d205e;fill-opacity:1;stroke:#9bbfd4;stroke-width:0;stroke-miterlimit:4;stroke-dasharray:none;stroke-opacity:1"
             xml:space="preserve"><tspan
                 style="font-style:normal;font-variant:normal;font-weight:bold;font-stretch:normal;font-size:2.98336px;font-family:'Century Schoolbook L';-inkscape-font-specification:'Century Schoolbook L Bold';letter-spacing:0.791094px;fill:#111337;fill-opacity:1;stroke:#9bbfd4;stroke-width:0;stroke-miterlimit:4;stroke-dasharray:none;stroke-opacity:1"
                 y="19.89"
                 x="15.06"
                 id="tspan8684-3"
                 sodipodi:role="line">  DEXTERITY</tspan></text>
        <text
             transform="scale(0.9515,1.051)"
             id="text5487-8"
             y="24.88"
             x="2.415"
             style="font-style:normal;font-variant:normal;font-weight:normal;font-stretch:normal;font-size:6.18037px;line-height:1.25;font-family:'Century Schoolbook L';-inkscape-font-specification:'Century Schoolbook L';letter-spacing:0px;word-spacing:0px;display:inline;fill:#463078;fill-opacity:1;stroke:#ebf6f7;stroke-width:0.170948;stroke-miterlimit:4;stroke-dasharray:none;stroke-opacity:1"
             xml:space="preserve"><tspan
                 id="tspan5581"
                 style="font-size:8.24046px;fill:#463078;fill-opacity:1;stroke:#ebf6f7;stroke-width:0.170934;stroke-miterlimit:4;stroke-dasharray:none;stroke-opacity:1"
                 y="24.88"
                 x="2.415"
                 sodipodi:role="line">20</tspan></text>
        <text
             xml:space="preserve"
             style="font-style:normal;font-variant:normal;font-weight:normal;font-stretch:normal;font-size:5.5073px;line-height:1.25;font-family:'Century Schoolbook L';-inkscape-font-specification:'Century Schoolbook L';letter-spacing:0px;word-spacing:0px;display:inline;fill:#659dbd;fill-opacity:1;stroke:#05386b;stroke-width:0.223708;stroke-miterlimit:4;stroke-dasharray:none;stroke-opacity:1"
             x="5.023"
             y="28.96"
             id="text6538-4-0-6"
             transform="scale(0.8327,1.201)"><tspan
                 sodipodi:role="line"
                 id="tspan6536-9-2-7"
                 x="5.023"
                 y="28.96"
                 style="font-size:5.0528px;fill:#659dbd;fill-opacity:1;stroke:#05386b;stroke-width:0.223667;stroke-miterlimit:4;stroke-dasharray:none;stroke-opacity:1">+5</tspan></text>
        <circle
             style="fill:none;fill-opacity:1;stroke:#000000;stroke-width:0.1323;stroke-linecap:round;stroke-linejoin:round;stroke-miterlimit:4;stroke-dasharray:none;stroke-opacity:1"
             id="path993"
             cx="6.618"
             cy="32.68"
             r="3.855" />
        <circle
             r="4.445"
             cy="32.69"
             cx="6.628"
             id="path993-5"
             style="fill:none;fill-opacity:1;stroke:#000000;stroke-width:0.132366;stroke-linecap:round;stroke-linejoin:round;stroke-miterlimit:4;stroke-dasharray:none;stroke-opacity:1" />
        <path
             inkscape:connector-curvature="0"
             id="path1116-1"
             style="fill:none;fill-opacity:1;stroke:#000000;stroke-width:0.132292;stroke-linecap:butt;stroke-linejoin:miter;stroke-miterlimit:4;stroke-dasharray:none;stroke-opacity:1"
             d="m 0.6049,18.77 c 3.9981,-0.55 8.0291,-0.55 12.0251,0 -0.69,3.18 -0.86,6.74 -0.28,10.22 -1.62,1.65 -3.335,3.38 -5.732,5.06 C 4.218,32.37 2.505,30.64 0.8866,28.99 1.47,25.51 1.299,21.95 0.6049,18.77 Z" />
        <path
             style="fill:none;stroke:#000000;stroke-width:0.1323;stroke-opacity:1;stroke-miterlimit:4;stroke-dasharray:none;opacity:0.33"
             inkscape:connector-curvature="0"
             d="m 6.619,19.06 c -0.38,0 -0.71,0.36 -0.71,0.84 0,0.48 0.33,0.85 0.71,0.85 0.37,0 0.7,-0.37 0.7,-0.85 0,-0.48 -0.33,-0.84 -0.7,-0.84 z m -2.63,0.39 -0.31,0.15 c 0.27,0.4 0.58,0.85 0.9,1.24 0.35,0.45 0.72,0.81 0.95,0.93 l 0.1,0 v 0.71 c 0.49,0.1 0.84,0.1 1.23,0.1 0,0 0,0 0,0 -0.1,-0.1 -0.16,-0.15 -0.22,-0.23 -0.11,0 -0.19,-0.1 -0.24,-0.16 -0.1,-0.1 -0.1,-0.18 -0.1,-0.29 0,-0.11 0,-0.21 0.1,-0.29 0.1,-0.1 0.15,-0.16 0.27,-0.16 0.11,0 0.21,0.1 0.27,0.16 0.1,0.1 0.1,0.18 0.1,0.29 0,0.11 0,0.22 -0.1,0.29 0,0 0,0 0,0 0,0 0.1,0.1 0.13,0.12 0.11,0.1 0.26,0.18 0.44,0.23 0.1,0 0.1,0 0.15,0 v -0.76 l 0.1,-0 c 0.17,-0.13 0.54,-0.49 0.89,-0.94 0.32,-0.39 0.63,-0.84 0.9,-1.24 l -0.31,-0.15 c -0.84,0.84 -1.69,1.62 -2.62,1.62 -0.94,0 -1.79,-0.78 -2.63,-1.62 z m 0.52,3.24 0.22,1.09 c 1.82,0.17 1.95,0.17 3.77,0 l 0.22,-1.09 c -1.99,0.31 -2.22,0.31 -4.21,0 z m 0.71,1.46 0.24,1.93 h 2.31 l 0.24,-1.93 c -1.22,0.11 -1.57,0.11 -2.79,0 z m -0.75,2.25 v 0.36 h 4.29 V 26.4 Z m -2.18,0.66 v 0.33 h 8.651 v -0.33 z"
             fill="#fff"
             fill-opacity="1"
             id="path4" />
    </g>
</svg>
