<?xml version="1.0" encoding="utf-8" ?>
<svg baseProfile="full" height="185px" version="1.1" viewBox="7.209410651798365e-09,3.0589386579293887e-09,232.73293910268416,214.51657038235223" width="200px" xmlns="http://www.w3.org/2000/svg" xmlns:ev="http://www.w3.org/2001/xml-events" xmlns:xlink="http://www.w3.org/1999/xlink">
  <defs/>
  <path d="M 110.26795,211.29031 C 71.16052,186.74682 46.08036,165.48579 27.88951,141.45623 C 14.3802,123.61084 2.4597702,98.009338 1.1846802,84.102248 C 1.0333902000000001,82.452248 0.6030701900000001,77.952248 0.22841019000000007,74.102248 C -1.0340498,61.129493 3.0148802,44.231559 10.44184,31.477126 C 16.30014,21.416582 25.26199,12.609833 35.46885,6.8832397 C 38.96285,4.9229147 49.00309,1.6022476999999995 51.436240000000005,1.6022476999999995 C 52.666920000000005,1.6022476999999995 54.74844,1.1126266999999994 56.061840000000004,0.5142017099999996 C 57.846520000000005,-0.29895229000000045 61.205980000000004,-0.1655492900000004 69.3589,1.0422256999999995 C 82.84088,3.0394506999999997 94.3775,8.280415699999999 106.15193000000001,17.756923 C 110.48813000000001,21.246852 114.60791,24.523 115.307,25.037252000000002 C 116.74575,26.095588000000003 117.23179,25.791695 127.59826,17.352248000000003 C 131.48287,14.189748000000003 134.91915,11.602248000000003 135.23444,11.602248000000003 C 135.54973,11.602248000000003 137.48625,10.565126000000003 139.53782,9.297531700000004 C 149.95770000000002,2.859454700000004 169.34135,-1.4146492999999953 178.50639,0.704945710000004 C 194.76556000000002,4.4651977000000045 203.23847,8.869698700000004 212.78491000000002,18.524048000000004 C 226.18220000000002,32.07279200000001 232.66636000000003,48.573879000000005 232.73233000000002,69.286872 C 232.78243,85.024168 229.74701000000002,97.686788 221.74962000000002,115.10224 C 207.96932,145.11083 181.46669000000003,173.53301 143.00098000000003,199.55453999999997 C 129.42062,208.74145999999996 119.24445000000003,214.61777999999998 117.09312000000003,214.51524999999998 C 116.08928000000003,214.46744999999999 113.01795000000003,213.01619 110.26795000000003,211.29030999999998 L 110.26795,211.29031" fill="none" stroke="#000000" stroke-width="0.23273293910268417"/>
  <path d="M 126.76795,203.27683000000002 C 164.13259,180.54094 194.19186000000002,152.26959000000002 210.41803,124.60224000000002 C 231.00977,89.491118 233.046,56.840032 216.2221,31.533273 C 209.24746,21.041928 200.96651,14.284151 189.26795,9.5369887 C 183.9957,7.397561700000001 181.7518,7.1065467 170.76795,7.1376937 C 159.55409,7.169493699999999 157.55656000000002,7.4541847 151.35394000000002,9.904613699999999 C 143.14581,13.147345999999999 129.84584,21.813019999999998 124.31500000000003,27.521987 C 122.14088000000002,29.76613 119.74088000000003,31.602248 118.98167000000002,31.602248 C 117.24641000000003,31.602248 117.86187000000002,33.628127 120.00848000000002,34.982175 C 121.29261000000002,35.792183 122.63261000000001,35.075705 126.44896000000001,31.538535 C 138.10625000000002,20.73404 151.07256,13.738854 163.47839000000002,11.561557 C 187.46831000000003,7.351182700000001 211.62464000000003,23.538807 219.82508,49.320576 C 223.86965,62.036474 223.49176000000003,80.845499 218.90426000000002,95.15414799999999 C 207.87125000000003,129.5667 179.68063,162.61611 137.26795000000004,190.86088999999998 C 130.66795000000005,195.25617 123.62760000000004,200.41633 121.62272000000004,202.32791999999998 C 117.56911000000004,206.19289999999998 114.44624000000005,206.17117 112.65254000000004,202.26551999999998 C 112.10612000000005,201.07571 106.84899000000004,196.95224 100.97002000000005,193.10224 C 47.310940000000045,157.96214 16.127430000000047,118.29324 10.721890000000045,78.29656999999999 C 9.632780200000045,70.238047 9.626630200000044,67.11993499999998 10.687390000000045,60.79656999999999 C 13.097410000000044,46.42987199999999 18.543130000000044,34.993487999999985 27.190110000000047,26.13977899999999 C 48.366010000000045,4.45758669999999 77.75113000000005,6.019783699999991 105.44232000000005,30.29988899999999 C 111.02896000000005,35.19834699999999 111.81425000000006,35.59028499999999 113.69232000000005,34.41741299999999 C 115.93753000000005,33.01525699999999 116.43089000000005,31.60224799999999 114.67524000000006,31.60224799999999 C 114.07425000000006,31.60224799999999 110.81175000000006,29.08662099999999 107.42524000000006,26.011965999999987 C 100.44266000000006,19.672380999999987 91.25339000000005,13.917463999999987 81.75183000000006,9.933613699999988 C 75.90452000000005,7.481929699999988 74.04076000000005,7.209493699999988 62.76796000000006,7.1586386999999885 C 52.00108000000006,7.110066699999988 49.43606000000006,7.423788699999989 44.26796000000006,9.421329699999989 C 35.71339,12.727788 29.70614,16.844464 23.04539,23.964829 C 3.7233002,44.620207 0.45224019,76.808066 14.50844,107.97026 C 30.644000000000002,143.74236 62.60785,175.44938 113.68253000000001,206.34749 C 117.59282000000002,208.71304999999998 117.98532000000002,208.62095 126.76796000000002,203.27683 L 126.76795,203.27683000000002" fill="none" stroke="#000000" stroke-width="0.23273293910268417"/>
  <path d="M 134.59695,189.91317 C 150.2475,179.73077 167.38891,165.76439000000002 179.33021,153.46567000000002 C 222.21896999999998,109.29319000000001 232.88497999999998,58.96297900000002 205.66817,29.183452000000017 C 195.16699,17.693486000000014 183.80818,13.010887000000018 168.40882,13.823515000000016 C 153.57198,14.606459000000017 141.70001,20.551690000000015 125.87543,35.12332700000002 C 121.40834,39.236733000000015 117.26803,42.60224800000002 116.67474999999999,42.60224800000002 C 116.08145999999999,42.60224800000002 111.31244,38.78110500000002 106.07691999999999,34.110818000000016 C 94.5652,23.84192 87.80072,19.60618 77.26471,16.069359 C 70.2927,13.728931 68.07568,13.439575 59.77431,13.786585 C 51.32496,14.13978 49.43403,14.587823 42.76795,17.816126 C 30.29204,23.858062 20.46198,35.281635 15.57966,49.411805 C 13.58981,55.170725000000004 13.26943,58.051495 13.278580000000002,70.102248 C 13.291380000000002,86.945068 14.814500000000002,92.870578 23.817520000000002,111.10224 C 37.34087,138.48784 64.36545000000001,166.27657 100.78824,190.24939999999998 C 110.78165,196.82689 111.60799,197.17642999999998 117.28824,197.22879999999998 C 123.0651,197.28209999999999 123.65226,197.0339 134.59695,189.91316999999998 L 134.59695,189.91317" fill="none" stroke="#000000" stroke-width="0.23273293910268417"/>
  </svg>
