<?xml version="1.0" encoding="utf-8" ?>
<svg baseProfile="full" height="200px" version="1.1" viewBox="2.408299226708266e-09,2.571544754914612e-09,290.67923257072204,329.24078613225964" width="177px" xmlns="http://www.w3.org/2000/svg" xmlns:ev="http://www.w3.org/2001/xml-events" xmlns:xlink="http://www.w3.org/1999/xlink">
  <defs/>
  <path d="M 147.41284,328.301 C 142.58223999999998,327.83552 133.04103999999998,326.32304 126.21015999999999,324.93995 C 114.19184999999999,322.50651 113.55448999999999,322.47557 106.49304999999998,323.98264 C 82.03886999999997,329.20172 58.854537999999984,325.91647 39.819032999999976,314.53485 C 17.595005,301.24675 5.1042289,280.41346 0.62732289,249.16722 C -0.73278751,239.67443 0.03470689,231.24832 3.7575479,214.80137 C 12.675311,175.40404 54.300299,121.4484 94.989111,96.544098 C 98.697131,94.27454200000001 102.08303,92.41763300000001 102.51334,92.41763300000001 C 104.59573,92.41763300000001 105.4319,90.17893800000002 104.38522999999999,87.40598700000001 C 102.76024,83.10088700000001 104.68038,79.98272800000001 110.64003,77.248686 C 115.16229,75.174059 115.69573,74.595076 115.69573,71.76138300000001 C 115.69573,68.81229800000001 115.4021,68.54442800000001 111.44573,67.88419 C 106.07169999999999,66.987373 94.619891,62.895448 90.221831,60.300534000000006 C 78.904257,53.62299900000001 82.51477799999999,41.185788 96.61638099999999,38.273149000000004 C 102.54436999999999,37.048743 102.97299999999998,36.765134 104.44118999999999,33.095784 C 107.20603,26.185756 117.66113999999999,20.757896000000002 131.69573,18.946350000000002 C 135.83127,18.412546000000003 139.72395,16.752465 147.38674,12.254730000000002 C 152.9918,8.964797600000002 160.8668,4.8550131000000025 164.88674,3.121875400000002 C 171.49558,0.27257423000000225 173.15366,-0.026320729999997905 182.19573,0.001650770000002133 C 194.55616,0.03988755000000213 201.69892,2.465004800000002 207.11801,8.463282600000003 C 210.37366,12.066907000000004 210.69573,12.956865000000004 210.69573,18.349555000000002 L 210.69573,24.275716000000003 L 215.94573,25.806449000000004 C 232.31288,30.578590000000005 239.10743,42.93926400000001 230.23861,51.808089 C 226.64499,55.401711000000006 216.5006,60.903036 206.19573,64.846597 C 194.34985,69.37988800000001 184.69573,73.65418100000001 184.69573,74.365572 C 184.69573,74.738405 186.03533,76.32686700000001 187.67261,77.895487 C 190.46202,80.56791 193.09966,86.102512 192.51232,88.050726 C 192.14432,89.271374 195.7163,94.417633 196.93153999999998,94.417633 C 199.01933999999997,94.417633 221.76905,114.35020999999999 236.22633,128.84647999999999 C 253.37294,146.03933999999998 261.36284,155.8704 270.87687,171.48171 C 292.54573,207.03753 296.90297,252.50096 281.60994,283.47037 C 277.371,292.05449 268.40532,302.4458 260.8145,307.5725 C 256.66514,310.37489 246.45744000000002,314.81134 241.19573,316.09917 C 234.12269,317.83033 230.44258,318.33552000000003 224.62387,318.37408 C 218.57968,318.41418 209.71137000000002,320.52313 207.12076000000002,322.53654 C 205.28089000000003,323.96647 189.65473000000003,327.26189 179.48514000000003,328.36465 C 168.54129000000003,329.55136 160.21713000000003,329.53484 147.41284000000002,328.30105 L 147.41284,328.301" fill="none" stroke="#000000" stroke-width="0.32924078613225966"/>
  <path d="M 183.19573,316.46903 C 189.79573,315.41157 199.02073,313.18856 203.69573,311.529 C 222.53831,304.84017 228.53167,302.48778 231.78705,300.50317 C 237.10348,297.26207 237.49282,298.02976 232.90394,302.70548 C 230.58942000000002,305.0638 228.69573,307.34137000000004 228.69573,307.76675 C 228.69573,310.03221 248.34429,304.9233 255.41294,300.81988 C 265.76162999999997,294.81238 274.44635,282.25209 278.88554999999997,266.87256 C 280.87838999999997,259.96842000000004 281.17562,256.73809 281.13575,242.41763000000003 C 281.09635,228.27295000000004 280.72035999999997,224.34741000000002 278.50174999999996,214.91763000000003 C 274.09446999999994,196.18530000000004 267.57935,182.22742000000002 255.15602999999996,164.90213000000003 C 241.43664999999996,145.76938 222.32124999999996,126.25394000000003 198.75337999999996,107.31910000000002 C 172.09415999999996,85.90062200000003 163.40527999999995,85.17478800000002 174.36564999999996,105.28185000000002 L 179.03557999999995,113.84894000000003 L 174.11564999999996,110.34201000000003 C 171.40969999999996,108.41320000000003 167.84572999999995,104.65294000000003 166.19572999999997,101.98589000000003 C 164.54572999999996,99.31883200000003 161.56116999999998,95.39990600000003 159.56337999999997,93.27716400000003 C 154.15696999999997,87.53262400000003 148.22913999999997,87.90962900000002 141.19572999999997,94.44533000000003 C 138.19505999999996,97.23366000000003 126.69572999999997,103.88763000000003 126.69572999999997,102.83561000000003 C 126.69572999999997,102.52891000000002 128.04572999999996,100.31582000000003 129.69572999999997,97.91763300000004 C 135.16593999999998,89.96694900000004 133.01708999999997,88.40404900000004 121.59079999999997,92.02276500000004 C 94.78609099999997,100.51183000000003 58.19067499999997,133.46272000000005 34.52508699999997,170.41763000000003 C 8.180751899999972,211.55552000000003 2.9871528999999697,245.43997000000002 18.28953699999997,276.34277000000003 C 26.641464999999968,293.20928000000004 41.71668499999997,306.01051 60.535512999999966,312.21622 C 67.29739199999997,314.44602000000003 69.97427599999996,314.75254 83.36154899999997,314.82995 C 91.70275099999996,314.87815 98.87458099999996,314.5708 99.29894099999997,314.1469 C 99.72331099999997,313.723 98.52369099999997,312.05379 96.63313099999998,310.43754 C 94.74256099999998,308.82129000000003 93.55955099999997,307.48062 94.00422099999997,307.45827 C 94.44890099999998,307.43587 100.07389999999997,308.71638 106.50421999999998,310.30374 C 112.93454999999997,311.89109 123.82072999999997,314.17545 130.69572999999997,315.38007 C 137.57072999999997,316.5847 143.87072999999998,317.70875 144.69572999999997,317.87797 C 150.08069999999998,318.98246 172.66749999999996,318.15588 183.19572999999997,316.46903000000003 L 183.19573,316.46903" fill="none" stroke="#000000" stroke-width="0.32924078613225966"/>
  <path d="M 133.55379,84.492142 C 150.70245,81.057613 168.58593,82.17904 180.46528,87.433841 C 186.16013,89.952948 186.69573,89.923557 186.69573,87.091947 C 186.69573,82.919037 180.56749,78.786258 170.69573,76.301823 C 162.20459,74.16485 136.21571,74.4464 126.19573,76.783914 C 112.57784,79.96076699999999 108.07093,83.28892599999999 111.10865,87.925073 L 112.56694,90.150702 L 117.88133,88.358677 C 120.80425000000001,87.373063 127.85686000000001,85.633122 133.55379,84.492142" fill="none" stroke="#000000" stroke-width="0.32924078613225966"/>
  <path d="M 137.88671,70.438473 C 140.46675,70.427013 142.84766,69.98082600000001 143.17761,69.44695 C 144.06519999999998,68.010805 139.14618,67.025943 130.94573,66.997943 C 124.87077,66.977203 123.35191,67.317006 121.57437,69.09454400000001 C 118.25227,72.41665100000002 119.89895,73.24537400000001 126.90518,71.77736600000001 C 130.36498,71.05243700000001 135.30667,70.44993500000001 137.88671,70.43847300000002 L 137.88671,70.438473" fill="none" stroke="#000000" stroke-width="0.32924078613225966"/>
  <path d="M 169.04883,67.105844 C 171.92572,65.22083500000001 192.80579,39.281863 199.16209,29.696646 C 206.34548,18.864179 205.68540000000002,12.12013 197.02062,7.817111400000002 C 193.95937,6.2968632000000015 190.99958,5.918613400000002 182.19573,5.922544700000001 C 171.65924,5.927244700000001 170.92184,6.0695795000000015 164.69573,9.300316000000002 C 161.12073,11.155389000000003 155.2187,14.592483000000001 151.58011,16.938303 C 141.87655999999998,23.194232 141.25036,23.460093 131.52598999999998,25.452408000000002 C 119.94105999999998,27.825916000000003 113.99982999999997,30.712079000000003 111.98007999999999,34.947528000000005 C 110.47853999999998,38.09629 110.53598999999998,38.474504 113.44196999999998,44.57136500000001 C 115.10562999999998,48.06181300000001 118.67308999999999,53.617633000000005 121.36964999999998,56.91763300000001 L 126.27248999999998,62.91763300000001 L 132.82671999999997,63.20973500000001 C 141.41955999999996,63.59269200000001 142.03913999999997,62.85484100000001 140.72990999999996,53.79785100000001 C 139.51945999999995,45.42417000000001 139.46693999999997,43.41763300000001 140.45821999999995,43.41763300000001 C 140.87758999999994,43.41763300000001 142.07429999999997,46.39818700000001 143.11757999999995,50.04108600000001 C 145.91307999999995,59.80233100000001 149.29697999999993,66.02266800000001 152.48225999999994,67.25535400000001 C 158.84880999999993,69.71917400000001 165.14712999999995,69.662332 169.04882999999995,67.105844 L 169.04883,67.105844" fill="none" stroke="#000000" stroke-width="0.32924078613225966"/>
  <path d="M 189.49539000000001,65.029064 C 190.98058,64.26535100000001 197.09241,61.79843100000001 203.07723000000001,59.547019000000006 C 215.86809000000002,54.735271000000004 221.51568,51.608751000000005 225.09033000000002,47.36052000000001 C 228.47410000000002,43.339144000000005 228.37567,41.261635000000005 224.59751000000003,36.95854800000001 C 222.37906000000004,34.43187100000001 219.75642000000002,32.89484000000001 215.36154000000002,31.545687000000008 C 211.98578,30.50938500000001 208.76748,29.848115000000007 208.20976000000002,30.076197000000008 C 207.65204000000003,30.304279000000008 205.68842,32.708338000000005 203.84615000000002,35.41855100000001 C 202.00388,38.12876400000001 196.89988000000002,44.524781000000004 192.50393000000003,49.63192200000001 C 183.81756000000001,59.72358100000001 182.11454000000003,62.46069200000001 183.03289000000004,64.853863 C 183.77464000000003,66.78685 185.96173000000005,66.846142 189.49539000000004,65.029064 L 189.49539000000001,65.029064" fill="none" stroke="#000000" stroke-width="0.32924078613225966"/>
</svg>
