<?xml version="1.0" encoding="UTF-8" standalone="no"?>
<svg
     xmlns:dc="http://purl.org/dc/elements/1.1/"
     xmlns:cc="http://creativecommons.org/ns#"
     xmlns:rdf="http://www.w3.org/1999/02/22-rdf-syntax-ns#"
     xmlns:svg="http://www.w3.org/2000/svg"
     xmlns="http://www.w3.org/2000/svg"
     xmlns:sodipodi="http://sodipodi.sourceforge.net/DTD/sodipodi-0.dtd"
     xmlns:inkscape="http://www.inkscape.org/namespaces/inkscape"
     width="8.5in"
     height="11in"
     viewBox="0 0 215.9 279.4"
     version="1.1"
     id="svg35"
     inkscape:version="1.1-dev (1:0.92.0+devel+202001141113+5079eae)"
     sodipodi:docname="name.svg">
    <defs
         id="defs29">
        <path
             inkscape:connector-curvature="0"
             id="path402-5-3-8"
             style="fill:#ebf6f7;fill-opacity:1;stroke:#000000;stroke-width:0.5332;stroke-linecap:butt;stroke-linejoin:miter;stroke-miterlimit:10;stroke-dasharray:none;stroke-opacity:1"
             d="m -25.14,50.53 c -27.37,3.82 -69.72,-3.82 -97.06,0 V 37.81 c 27.34,-3.82 69.69,3.81 97.06,0 z" />
    </defs>
    <sodipodi:namedview
         id="base"
         pagecolor="#ffffff"
         bordercolor="#666666"
         borderopacity="1.0"
         inkscape:pageopacity="0.0"
         inkscape:pageshadow="2"
         inkscape:zoom="1.4"
         inkscape:cx="346.7"
         inkscape:cy="108.6"
         inkscape:document-units="px"
         inkscape:current-layer="layer1"
         showgrid="true"
         units="in"
         borderlayer="true"
         inkscape:window-width="1920"
         inkscape:window-height="983"
         inkscape:window-x="0"
         inkscape:window-y="27"
         inkscape:window-maximized="1">
        <inkscape:grid
             type="xygrid"
             id="grid310" />
    </sodipodi:namedview>
    <metadata
         id="metadata32">
        <rdf:RDF>
            <cc:Work
                 rdf:about="">
                <dc:format>image/svg+xml</dc:format>
                <dc:type
                     rdf:resource="http://purl.org/dc/dcmitype/StillImage" />
                <dc:title></dc:title>
            </cc:Work>
        </rdf:RDF>
    </metadata>
    <g
         inkscape:label="Layer 1"
         inkscape:groupmode="layer"
         id="layer1"
         transform="translate(0,-17.6)">
        <path
             inkscape:connector-curvature="0"
             id="path342-7-9-7"
             style="display:inline;fill:#8b959b;fill-opacity:1;stroke:#000000;stroke-width:0.533737;stroke-linecap:butt;stroke-linejoin:miter;stroke-miterlimit:10;stroke-dasharray:none;stroke-opacity:1"
             d="m 5.558,26.41 v 9.91 l 9.682,-1.24 v -9.83 z" />
        <path
             inkscape:connector-curvature="0"
             id="path378-0-7-9"
             style="display:inline;fill:#21510f;fill-opacity:1;stroke:#000000;stroke-width:0.533427;stroke-linecap:butt;stroke-linejoin:miter;stroke-miterlimit:10;stroke-dasharray:none;stroke-opacity:1"
             d="M 15.39,25.19 8.802,24.26 v 9.84 l 6.588,1.01 z" />
        <path
             inkscape:connector-curvature="0"
             id="path1301"
             style="display:inline;fill:#ebf6f7;fill-opacity:1;stroke:#000000;stroke-width:0.533238;stroke-linecap:butt;stroke-linejoin:miter;stroke-miterlimit:10;stroke-dasharray:none;stroke-opacity:1"
             d="m 107.6,58.15 c -27.31,3.8 -69.73,-3.8 -97.04,0 V 45.46 c 27.31,-3.89 69.73,3.8 97.04,0 27.3,3.81 69.8,-3.79 97.1,0 v 12.69 c -27.3,-3.81 -69.8,3.79 -97.1,0" />
        <path
             d="m 107.7,33.89 c -27.85,2.95 -71.12,-2.94 -98.898,0 v -9.84 c 27.778,-3.03 71.048,2.94 98.898,0 z"
             style="display:inline;fill:#ebf6f7;fill-opacity:1;stroke:#000000;stroke-width:0.533429;stroke-linecap:butt;stroke-linejoin:miter;stroke-miterlimit:10;stroke-dasharray:none;stroke-opacity:1"
             id="path1301-7"
             inkscape:connector-curvature="0" />
        <path
             d="m 14.27,28.27 c 0.12,1.1 0.68,2.9 2.06,4.2 1.12,1 2.11,1.1 2.11,1.5 0.12,0.5 -1.36,0.1 -1.36,0.1 1.36,1.1 3.54,0.8 3.79,1.2 0.13,0.4 -1.06,0.5 -1.06,0.5 1.75,0.6 3.92,0.2 4.86,-0.4 -2.17,0.1 -5.11,-1 -6.34,-2.5 0.55,0.4 1.11,0.8 1.79,1.1 2.31,1.1 5.05,1.1 6.67,0.9 1.88,-0.1 3.3,-0.7 3.3,-0.7 1.25,-0.3 3.56,-0.4 4.98,0.6 v 0 c 0,0 -1.98,-4.3 -4.92,-3.7 -0.25,0.1 -0.5,0.1 -0.68,0.2 -1.61,0.4 -3.3,1.3 -3.3,1.3 -0.63,0.2 -2.44,0.8 -4.48,0.9 -0.44,0.1 -0.94,0 -1.38,-0.2 -1.12,-0.5 -2.05,-1.4 -2.17,-2.3 -0.94,-0.1 -3.12,-1.4 -3.81,-2.5"
             style="display:inline;fill:#21510f;fill-opacity:1;fill-rule:nonzero;stroke:#b22222;stroke-width:0.367071;stroke-miterlimit:4;stroke-dasharray:none;stroke-opacity:1"
             id="path542-4-5-6-3"
             inkscape:connector-curvature="0" />
    </g>
</svg>
