<?xml version="1.0" encoding="utf-8" ?>
<svg baseProfile="full" height="38px" version="1.1" viewBox="0.0,0.0,1097.9254379902206,203.00002999999998" width="200px" xmlns="http://www.w3.org/2000/svg" xmlns:ev="http://www.w3.org/2001/xml-events" xmlns:xlink="http://www.w3.org/1999/xlink">
  <defs/>
  <path d="M 0.0,200.50003 L 0.0,198.00003 L 117.5,198.00003 L 235.0,198.00003 L 235.16199,131.25003 C 235.25109,94.53753 235.41435,55.275030000000015 235.52482,44.00003000000001 L 235.72567,23.50003000000001 L 241.42841,19.12949000000001 C 244.56493,16.72569000000001 248.28645,13.013190000000012 249.69847000000001,10.879490000000011 L 252.26577,7.000030000000011 L 274.88289,7.037930000000011 L 297.5,7.0758300000000105 L 301.23254,12.453330000000012 C 303.44575,15.641940000000012 306.70212999999995,18.78873000000001 309.23254,20.18411000000001 L 313.5,22.53739000000001 L 313.77009,43.83812000000001 C 314.01824999999997,63.40933000000001 314.18064,65.11184000000002 315.77009,64.80609000000001 C 317.33592,64.50488000000001 317.51653,62.53140000000001 317.67428,44.000140000000016 L 317.84856,23.526970000000016 L 320.39779000000004,21.513460000000016 C 321.79986,20.406030000000015 324.34493000000003,18.423420000000014 326.05348000000004,17.107660000000017 C 327.76204,15.791900000000016 330.30876000000006,12.979400000000016 331.71286000000003,10.857660000000017 L 334.26577000000003,6.999950000000017 L 356.88289000000003,7.053850000000017 L 379.50000000000006,7.107750000000016 L 383.57023000000004,12.803830000000016 C 385.9562,16.142890000000016 389.26659000000006,19.347380000000015 391.57023000000004,20.547930000000015 L 395.50000000000006,22.595930000000017 L 395.76989000000003,43.79793000000002 C 396.0255,63.87829000000002 396.14045000000004,64.99992000000002 397.94273000000004,64.99992000000002 C 399.75442000000004,64.99992000000002 399.84405000000004,63.985700000000016 399.81160000000006,43.85193000000002 C 399.78450000000004,27.029430000000016 400.0559400000001,22.546040000000016 401.13876000000005,21.931990000000017 C 406.15521000000007,19.087220000000016 409.96286000000003,15.807030000000017 412.99814000000003,11.715440000000017 L 416.49628,7.000030000000017 L 438.99814000000003,7.053930000000016 L 461.50000000000006,7.107830000000016 L 465.57023000000004,12.803910000000016 C 467.9562,16.142970000000016 471.26659000000006,19.347460000000016 473.57023000000004,20.548010000000016 L 477.50000000000006,22.596010000000014 L 477.76989000000003,43.79801000000002 C 477.99037,61.11878 478.29463,65.0 479.43199,65.0 C 481.45578,65.0 481.95526,59.858760000000004 481.85032,40.10749 C 481.77722,26.345889999999997 482.04413,22.55269 483.12896,21.937549999999998 C 488.15478,19.087739999999997 491.96077,15.809929999999998 494.99814000000003,11.715519999999998 L 498.49628,7.000029999999998 L 520.99814,7.053929999999998 L 543.5,7.107829999999997 L 547.57023,12.803909999999998 C 549.9562000000001,16.14297 553.2665900000001,19.347459999999998 555.57023,20.548009999999998 L 559.5,22.59601 L 559.76989,43.798010000000005 C 559.99116,61.18076 560.29208,65.0 561.44043,65.0 C 563.5129,65.0 563.90303,61.33097 563.8855599999999,42.00439 L 563.8697599999999,24.50879 L 566.4083899999999,22.50439 C 567.80464,21.401980000000002 570.34494,19.423470000000002 572.0534899999999,18.10771 C 573.7620499999999,16.79195 576.3087699999999,13.97945 577.71287,11.85771 L 580.26577,8.0 L 602.88289,8.0539 L 625.5,8.1078 L 629.57023,13.80388 C 631.95623,17.14298 635.26656,20.3474 637.57023,21.54795 L 641.5,23.59592 L 641.77029,44.29795 C 642.02344,63.687529999999995 642.15803,64.99997 643.89331,64.99997 C 645.6367,64.99997 645.7468200000001,63.78150000000001 645.75927,44.35338 C 645.76977,27.97192 646.05422,23.547430000000002 647.13625,22.935360000000003 C 651.8133300000001,20.28967 657.33041,15.457810000000002 659.61361,12.007660000000003 L 662.26577,7.999970000000003 L 684.88289,8.037870000000003 L 707.5,8.075770000000004 L 711.23254,13.453270000000003 C 713.44578,16.641920000000002 716.70209,19.788630000000005 719.23254,21.184020000000004 L 723.5,23.537260000000003 L 723.77029,44.26858 C 724.02368,63.70398 724.1566600000001,64.99989 725.89756,64.99989 C 727.64732,64.99989 727.75374,63.80846999999999 727.74073,44.36605999999999 C 727.7296299999999,27.80817999999999 728.0008,23.57731999999999 729.11345,22.94802999999999 C 733.81129,20.291079999999987 739.32588,15.464569999999988 741.61361,12.007579999999988 L 744.26577,7.999889999999988 L 766.88289,8.053789999999989 L 789.5,8.10768999999999 L 793.60711,13.872029999999988 C 796.05748,17.311129999999988 799.16656,20.32554999999999 801.3146300000001,21.344869999999986 C 803.2948600000001,22.284549999999985 805.1433000000001,23.422719999999988 805.4222900000001,23.874129999999987 C 805.7012800000001,24.325529999999986 806.0071500000001,33.76348999999999 806.1020100000001,44.847369999999984 C 806.1969100000001,55.93123999999998 806.66272,64.99985999999998 807.13724,64.99985999999998 C 807.93601,64.99985999999998 808.15162,60.01200999999998 808.4941,33.61063999999998 C 808.63564,22.699309999999983 807.86633,24.182599999999983 817.05348,17.10756999999998 C 818.7620400000001,15.79180999999998 821.30876,12.97930999999998 822.7128600000001,10.857569999999981 L 825.2657700000001,7.000029999999981 L 847.8828900000001,7.037929999999981 L 870.5000000000001,7.07582999999998 L 874.2325400000001,12.45332999999998 C 876.4457500000001,15.64193999999998 879.7021300000001,18.78872999999998 882.2325400000001,20.18410999999998 L 886.5000000000001,22.53738999999998 L 886.7698900000001,43.768669999999986 C 887.0229000000002,63.672499999999985 887.1556000000002,65.00002999999998 888.8922200000002,65.00002999999998 C 890.6375700000002,65.00002999999998 890.7436600000002,63.778579999999984 890.7273300000002,43.87092999999998 C 890.7133300000002,26.82748999999998 890.9797500000002,22.58889999999998 892.1050000000001,21.95098999999998 C 897.1537800000001,19.088799999999978 900.9556700000002,15.816819999999979 903.9981400000001,11.715549999999979 L 907.4962800000002,7.000029999999979 L 929.9981400000001,7.053929999999979 L 952.5000000000001,7.1078299999999786 L 956.5702300000002,12.803909999999979 C 958.9562000000002,16.142969999999977 962.2665900000002,19.347459999999977 964.5702300000002,20.54800999999998 L 968.5000000000001,22.59600999999998 L 968.7698900000001,43.79800999999998 C 969.0248800000002,63.829569999999975 969.1441500000002,65.00002999999998 970.9304600000002,65.00002999999998 C 972.7262500000002,65.00002999999998 972.8171400000001,63.96335999999998 972.7414200000002,44.34389999999998 L 972.6617200000002,23.687769999999976 L 975.3043700000002,21.593899999999977 C 976.7578300000001,20.442269999999976 979.3449400000002,18.423499999999976 981.0534900000001,17.10773999999998 C 982.7620500000002,15.791979999999977 985.3087700000001,12.979479999999977 986.7128700000002,10.857739999999978 L 989.2657700000002,7.000029999999978 L 1011.8829000000002,7.053929999999978 L 1034.5000000000002,7.107829999999978 L 1038.5702,12.803909999999977 C 1040.9562,16.142969999999977 1044.2666000000002,19.347459999999977 1046.5702,20.548009999999977 L 1050.5,22.59600999999998 L 1050.7699,43.79800999999998 L 1051.0398,65.0 L 1059.5199,65.0 L 1068.0,65.0 L 1068.0,68.11765 C 1068.0,70.47059 1069.0425,72.24889 1072.25,75.36765 L 1076.5,79.5 L 1076.7615,39.75 C 1076.9262,14.71387 1077.3847,0.0 1078.0001,0.0 C 1078.6158,0.0 1079.074,14.85923 1079.2386999999999,40.16688 C 1079.4406999999999,71.22346 1079.7834999999998,80.42822 1080.7499999999998,80.75022 C 1081.7362999999998,81.07882 1081.9999999999998,72.60544 1081.9999999999998,40.58333 L 1081.9999999999998,0.0 L 1084.4999999999998,0.0 L 1086.9999999999998,0.0 L 1086.9999999999998,52.5 C 1086.9999999999998,101.10772 1087.1296999999997,105.14121 1088.7499999999998,106.90474 C 1089.7124999999999,107.95234 1091.3084999999999,109.97734 1092.2966999999999,111.40474 C 1093.2848999999999,112.83213 1095.0256,114.0 1096.165,114.0 C 1098.1556,114.0 1098.2094,114.34201 1097.5409,122.75 C 1096.5701,134.96139 1094.4013,144.97111 1090.415,155.63837 C 1087.3211999999999,163.91726 1087.0,165.76951 1087.0,175.33229 L 1087.0,185.88785000000001 L 1080.9731,188.59257000000002 C 1074.2132,191.6262 1069.0,196.82601 1069.0,200.5348 L 1069.0,203.00002999999998 L 534.5,203.00002999999998 L 0.0,203.00002999999998 L 0.0,200.50003" fill="none" stroke="#000000" stroke-width="1.0979254379902206"/>
  <path d="M 310.0,165.50003 L 310.0,133.00003 L 274.5,133.00003 L 239.0,133.00003 L 239.0,165.50003 L 239.0,198.00003 L 274.5,198.00003 L 310.0,198.00003 L 310.0,165.50003" fill="none" stroke="#000000" stroke-width="1.0979254379902206"/>
  <path d="M 317.0,165.50003 C 317.0,137.27781000000002 316.80256,133.00003 315.5,133.00003 C 314.19744,133.00003 314.0,137.27781000000002 314.0,165.50003 C 314.0,193.72225 314.19744,198.00003 315.5,198.00003 C 316.80256,198.00003 317.0,193.72225 317.0,165.50003" fill="none" stroke="#000000" stroke-width="1.0979254379902206"/>
  <path d="M 392.0,165.50003 L 392.0,133.00003 L 356.5,133.00003 L 321.0,133.00003 L 321.0,165.50003 L 321.0,198.00003 L 356.5,198.00003 L 392.0,198.00003 L 392.0,165.50003" fill="none" stroke="#000000" stroke-width="1.0979254379902206"/>
  <path d="M 399.0,165.50003 C 399.0,137.27781000000002 398.80256,133.00003 397.5,133.00003 C 396.19744,133.00003 396.0,137.27781000000002 396.0,165.50003 C 396.0,193.72225 396.19744,198.00003 397.5,198.00003 C 398.80256,198.00003 399.0,193.72225 399.0,165.50003" fill="none" stroke="#000000" stroke-width="1.0979254379902206"/>
  <path d="M 474.0,165.50003 L 474.0,133.00003 L 438.5,133.00003 L 403.0,133.00003 L 403.0,165.50003 L 403.0,198.00003 L 438.5,198.00003 L 474.0,198.00003 L 474.0,165.50003" fill="none" stroke="#000000" stroke-width="1.0979254379902206"/>
  <path d="M 481.0,165.50003 C 481.0,137.27781000000002 480.80256,133.00003 479.5,133.00003 C 478.19744,133.00003 478.0,137.27781000000002 478.0,165.50003 C 478.0,193.72225 478.19744,198.00003 479.5,198.00003 C 480.80256,198.00003 481.0,193.72225 481.0,165.50003" fill="none" stroke="#000000" stroke-width="1.0979254379902206"/>
  <path d="M 556.0,165.50003 L 556.0,133.00003 L 520.5,133.00003 L 485.0,133.00003 L 485.0,165.50003 L 485.0,198.00003 L 520.5,198.00003 L 556.0,198.00003 L 556.0,165.50003" fill="none" stroke="#000000" stroke-width="1.0979254379902206"/>
  <path d="M 563.0,165.50003 C 563.0,137.27781000000002 562.80256,133.00003 561.5,133.00003 C 560.19744,133.00003 560.0,137.27781000000002 560.0,165.50003 C 560.0,193.72225 560.19744,198.00003 561.5,198.00003 C 562.80256,198.00003 563.0,193.72225 563.0,165.50003" fill="none" stroke="#000000" stroke-width="1.0979254379902206"/>
  <path d="M 638.0,165.50003 L 638.0,133.00003 L 602.5,133.00003 L 567.0,133.00003 L 567.0,165.50003 L 567.0,198.00003 L 602.5,198.00003 L 638.0,198.00003 L 638.0,165.50003" fill="none" stroke="#000000" stroke-width="1.0979254379902206"/>
  <path d="M 645.0,165.50003 C 645.0,137.27781000000002 644.80256,133.00003 643.5,133.00003 C 642.19744,133.00003 642.0,137.27781000000002 642.0,165.50003 C 642.0,193.72225 642.19744,198.00003 643.5,198.00003 C 644.80256,198.00003 645.0,193.72225 645.0,165.50003" fill="none" stroke="#000000" stroke-width="1.0979254379902206"/>
  <path d="M 720.0,165.50003 L 720.0,133.00003 L 684.5,133.00003 L 649.0,133.00003 L 649.0,165.50003 L 649.0,198.00003 L 684.5,198.00003 L 720.0,198.00003 L 720.0,165.50003" fill="none" stroke="#000000" stroke-width="1.0979254379902206"/>
  <path d="M 727.0,165.50003 C 727.0,137.27781000000002 726.80256,133.00003 725.5,133.00003 C 724.19744,133.00003 724.0,137.27781000000002 724.0,165.50003 C 724.0,193.72225 724.19744,198.00003 725.5,198.00003 C 726.80256,198.00003 727.0,193.72225 727.0,165.50003" fill="none" stroke="#000000" stroke-width="1.0979254379902206"/>
  <path d="M 802.0,165.50003 L 802.0,133.00003 L 766.5,133.00003 L 731.0,133.00003 L 731.0,165.50003 L 731.0,198.00003 L 766.5,198.00003 L 802.0,198.00003 L 802.0,165.50003" fill="none" stroke="#000000" stroke-width="1.0979254379902206"/>
  <path d="M 808.0,165.50003 C 808.0,144.50003 807.64615,133.00003 807.0,133.00003 C 806.35385,133.00003 806.0,144.50003 806.0,165.50003 C 806.0,186.50003 806.35385,198.00003 807.0,198.00003 C 807.64615,198.00003 808.0,186.50003 808.0,165.50003" fill="none" stroke="#000000" stroke-width="1.0979254379902206"/>
  <path d="M 883.0,165.50003 L 883.0,133.00003 L 847.5,133.00003 L 812.0,133.00003 L 812.0,165.50003 L 812.0,198.00003 L 847.5,198.00003 L 883.0,198.00003 L 883.0,165.50003" fill="none" stroke="#000000" stroke-width="1.0979254379902206"/>
  <path d="M 890.0,165.50003 C 890.0,137.27781000000002 889.80256,133.00003 888.5,133.00003 C 887.19744,133.00003 887.0,137.27781000000002 887.0,165.50003 C 887.0,193.72225 887.19744,198.00003 888.5,198.00003 C 889.80256,198.00003 890.0,193.72225 890.0,165.50003" fill="none" stroke="#000000" stroke-width="1.0979254379902206"/>
  <path d="M 965.0,165.50003 L 965.0,133.00003 L 929.5,133.00003 L 894.0,133.00003 L 894.0,165.50003 L 894.0,198.00003 L 929.5,198.00003 L 965.0,198.00003 L 965.0,165.50003" fill="none" stroke="#000000" stroke-width="1.0979254379902206"/>
  <path d="M 972.0,165.50003 C 972.0,137.27781000000002 971.80256,133.00003 970.5,133.00003 C 969.19744,133.00003 969.0,137.27781000000002 969.0,165.50003 C 969.0,193.72225 969.19744,198.00003 970.5,198.00003 C 971.80256,198.00003 972.0,193.72225 972.0,165.50003" fill="none" stroke="#000000" stroke-width="1.0979254379902206"/>
  <path d="M 1047.0,165.50003 L 1047.0,133.00003 L 1011.5,133.00003 L 976.0,133.00003 L 976.0,165.50003 L 976.0,198.00003 L 1011.5,198.00003 L 1047.0,198.00003 L 1047.0,165.50003" fill="none" stroke="#000000" stroke-width="1.0979254379902206"/>
  <path d="M 1064.4858,196.04492000000002 C 1065.3797,193.22844 1074.5212,185.3026 1078.5604999999998,183.842 C 1081.8685999999998,182.64578 1081.9987999999998,182.4053 1081.9682999999998,177.54914000000002 L 1081.9362999999998,172.50003 L 1079.7277,175.50003 C 1075.5209,181.21411 1069.4724999999999,187.28768000000002 1063.4996999999998,191.79539 C 1060.1997,194.28594 1057.0721999999998,196.70084 1056.5496999999998,197.16183999999998 C 1056.0181999999998,197.6308 1057.4201999999998,198.00002999999998 1059.7323,198.00002999999998 C 1062.955,198.00002999999998 1064.0014999999999,197.56956999999997 1064.4855,196.04492 L 1064.4858,196.04492000000002" fill="none" stroke="#000000" stroke-width="1.0979254379902206"/>
  <path d="M 1067.106,183.00003 C 1078.6337,171.69097000000002 1085.6168,159.73531 1082.0,157.50003 C 1081.4237,157.14384 1081.0,151.82298 1081.0,144.94101 C 1081.0,134.99347 1080.7496,133.00003 1079.5,133.00003 C 1078.227,133.00003 1077.9977,135.53461000000001 1077.9847,149.75003 C 1077.9747,158.96253000000002 1077.5332,167.17503000000002 1077.0,168.00003 C 1076.3545,168.99887 1076.0255,163.40252 1076.0153,151.25003 L 1076.0003,133.00003 L 1063.5003,133.00003 L 1051.0003,133.00003 L 1051.0003,164.06401 L 1051.0003,195.128 L 1055.2307999999998,192.81401 C 1057.5575999999999,191.54131999999998 1062.9016,187.12503 1067.1063,183.00002999999998 L 1067.106,183.00003" fill="none" stroke="#000000" stroke-width="1.0979254379902206"/>
  <path d="M 1091.4199,138.19497 C 1092.173,134.51275 1093.0786,128.57503000000003 1093.4325000000001,125.00003000000001 L 1094.0758,118.50003000000001 L 1090.5379,115.7074 L 1087.0,112.91477 L 1087.082,132.2074 C 1087.1570000000002,149.92172 1087.2817,151.22965 1088.6073000000001,148.19497 C 1089.4014000000002,146.37719 1090.6672,141.87719 1091.4203000000002,138.19497 L 1091.4199,138.19497" fill="none" stroke="#000000" stroke-width="1.0979254379902206"/>
  <path d="M 310.0,100.50003 L 310.0,71.00003 L 274.5,71.00003 L 239.0,71.00003 L 239.0,100.50003 L 239.0,130.00002999999998 L 274.5,130.00002999999998 L 310.0,130.00002999999998 L 310.0,100.50003" fill="none" stroke="#000000" stroke-width="1.0979254379902206"/>
  <path d="M 317.0,100.50003 C 317.0,74.94447 316.79944,71.00003 315.5,71.00003 C 314.20056,71.00003 314.0,74.94447 314.0,100.50003 C 314.0,126.05559 314.20056,130.00002999999998 315.5,130.00002999999998 C 316.79944,130.00002999999998 317.0,126.05558999999998 317.0,100.50002999999998 L 317.0,100.50003" fill="none" stroke="#000000" stroke-width="1.0979254379902206"/>
  <path d="M 392.0,100.50003 L 392.0,71.00003 L 356.5,71.00003 L 321.0,71.00003 L 321.0,100.50003 L 321.0,130.00002999999998 L 356.5,130.00002999999998 L 392.0,130.00002999999998 L 392.0,100.50003" fill="none" stroke="#000000" stroke-width="1.0979254379902206"/>
  <path d="M 399.0,100.50003 C 399.0,74.94447 398.79944,71.00003 397.5,71.00003 C 396.20056,71.00003 396.0,74.94447 396.0,100.50003 C 396.0,126.05559 396.20056,130.00002999999998 397.5,130.00002999999998 C 398.79944,130.00002999999998 399.0,126.05558999999998 399.0,100.50002999999998 L 399.0,100.50003" fill="none" stroke="#000000" stroke-width="1.0979254379902206"/>
  <path d="M 474.0,100.50003 L 474.0,71.00003 L 438.5,71.00003 L 403.0,71.00003 L 403.0,100.50003 L 403.0,130.00002999999998 L 438.5,130.00002999999998 L 474.0,130.00002999999998 L 474.0,100.50003" fill="none" stroke="#000000" stroke-width="1.0979254379902206"/>
  <path d="M 481.0,100.50003 C 481.0,74.94447 480.79944,71.00003 479.5,71.00003 C 478.20056,71.00003 478.0,74.94447 478.0,100.50003 C 478.0,126.05559 478.20056,130.00002999999998 479.5,130.00002999999998 C 480.79944,130.00002999999998 481.0,126.05558999999998 481.0,100.50002999999998 L 481.0,100.50003" fill="none" stroke="#000000" stroke-width="1.0979254379902206"/>
  <path d="M 556.0,100.50003 L 556.0,71.00003 L 520.5,71.00003 L 485.0,71.00003 L 485.0,100.50003 L 485.0,130.00002999999998 L 520.5,130.00002999999998 L 556.0,130.00002999999998 L 556.0,100.50003" fill="none" stroke="#000000" stroke-width="1.0979254379902206"/>
  <path d="M 563.0,100.50003 C 563.0,74.94447 562.79944,71.00003 561.5,71.00003 C 560.20056,71.00003 560.0,74.94447 560.0,100.50003 C 560.0,126.05559 560.20056,130.00002999999998 561.5,130.00002999999998 C 562.79944,130.00002999999998 563.0,126.05558999999998 563.0,100.50002999999998 L 563.0,100.50003" fill="none" stroke="#000000" stroke-width="1.0979254379902206"/>
  <path d="M 638.0,100.50003 L 638.0,71.00003 L 602.5,71.00003 L 567.0,71.00003 L 567.0,100.50003 L 567.0,130.00002999999998 L 602.5,130.00002999999998 L 638.0,130.00002999999998 L 638.0,100.50003" fill="none" stroke="#000000" stroke-width="1.0979254379902206"/>
  <path d="M 645.0,100.50003 C 645.0,74.94447 644.79944,71.00003 643.5,71.00003 C 642.20056,71.00003 642.0,74.94447 642.0,100.50003 C 642.0,126.05559 642.20056,130.00002999999998 643.5,130.00002999999998 C 644.79944,130.00002999999998 645.0,126.05558999999998 645.0,100.50002999999998 L 645.0,100.50003" fill="none" stroke="#000000" stroke-width="1.0979254379902206"/>
  <path d="M 720.0,100.50003 L 720.0,71.00003 L 684.5,71.00003 L 649.0,71.00003 L 649.0,100.50003 L 649.0,130.00002999999998 L 684.5,130.00002999999998 L 720.0,130.00002999999998 L 720.0,100.50003" fill="none" stroke="#000000" stroke-width="1.0979254379902206"/>
  <path d="M 727.0,100.50003 C 727.0,74.94447 726.79944,71.00003 725.5,71.00003 C 724.20056,71.00003 724.0,74.94447 724.0,100.50003 C 724.0,126.05559 724.20056,130.00002999999998 725.5,130.00002999999998 C 726.79944,130.00002999999998 727.0,126.05558999999998 727.0,100.50002999999998 L 727.0,100.50003" fill="none" stroke="#000000" stroke-width="1.0979254379902206"/>
  <path d="M 802.0,100.50003 L 802.0,71.00003 L 766.5,71.00003 L 731.0,71.00003 L 731.0,100.50003 L 731.0,130.00002999999998 L 766.5,130.00002999999998 L 802.0,130.00002999999998 L 802.0,100.50003" fill="none" stroke="#000000" stroke-width="1.0979254379902206"/>
  <path d="M 808.0,100.50003 C 808.0,81.50003 807.64407,71.00003 807.0,71.00003 C 806.35593,71.00003 806.0,81.50003 806.0,100.50003 C 806.0,119.50003 806.35593,130.00002999999998 807.0,130.00002999999998 C 807.64407,130.00002999999998 808.0,119.50002999999998 808.0,100.50002999999998 L 808.0,100.50003" fill="none" stroke="#000000" stroke-width="1.0979254379902206"/>
  <path d="M 883.0,100.50003 L 883.0,71.00003 L 847.5,71.00003 L 812.0,71.00003 L 812.0,100.50003 L 812.0,130.00002999999998 L 847.5,130.00002999999998 L 883.0,130.00002999999998 L 883.0,100.50003" fill="none" stroke="#000000" stroke-width="1.0979254379902206"/>
  <path d="M 890.0,100.50003 C 890.0,74.94447 889.79944,71.00003 888.5,71.00003 C 887.20056,71.00003 887.0,74.94447 887.0,100.50003 C 887.0,126.05559 887.20056,130.00002999999998 888.5,130.00002999999998 C 889.79944,130.00002999999998 890.0,126.05558999999998 890.0,100.50002999999998 L 890.0,100.50003" fill="none" stroke="#000000" stroke-width="1.0979254379902206"/>
  <path d="M 965.0,100.50003 L 965.0,71.00003 L 929.5,71.00003 L 894.0,71.00003 L 894.0,100.50003 L 894.0,130.00002999999998 L 929.5,130.00002999999998 L 965.0,130.00002999999998 L 965.0,100.50003" fill="none" stroke="#000000" stroke-width="1.0979254379902206"/>
  <path d="M 972.0,100.50003 C 972.0,74.94447 971.79944,71.00003 970.5,71.00003 C 969.20056,71.00003 969.0,74.94447 969.0,100.50003 C 969.0,126.05559 969.20056,130.00002999999998 970.5,130.00002999999998 C 971.79944,130.00002999999998 972.0,126.05558999999998 972.0,100.50002999999998 L 972.0,100.50003" fill="none" stroke="#000000" stroke-width="1.0979254379902206"/>
  <path d="M 1047.0,101.11666 L 1047.0,72.23329 L 1044.75,71.63032 C 1043.5125,71.29868 1027.5375,71.02119 1009.25,71.01368 L 976.0,71.00003 L 976.0,100.50003 L 976.0,130.00002999999998 L 1011.5,130.00002999999998 L 1047.0,130.00002999999998 L 1047.0,101.11666" fill="none" stroke="#000000" stroke-width="1.0979254379902206"/>
  <path d="M 1076.0,115.22254 C 1076.0,98.79854999999999 1076.4719,100.26424 1067.6258,89.21500999999999 C 1063.1763,83.65731 1053.4512,75.00003 1051.6576,75.00003 C 1051.2959,75.00003 1051.0,87.37503 1051.0,102.50003 L 1051.0,130.00002999999998 L 1063.5,130.00002999999998 L 1076.0,130.00002999999998 L 1076.0,115.22254" fill="none" stroke="#000000" stroke-width="1.0979254379902206"/>
  <path d="M 1080.9646,119.75003 C 1080.9406000000001,112.75457999999999 1080.4754,108.70624 1079.5,107.00003 C 1078.2041,104.73302 1078.0676,105.68825 1078.0354,117.25003 C 1078.0054,127.93244999999999 1078.2432,130.00002999999998 1079.5,130.00002999999998 C 1080.7381,130.00002999999998 1080.9938,128.21022 1080.9646,119.75002999999998 L 1080.9646,119.75003" fill="none" stroke="#000000" stroke-width="1.0979254379902206"/>
  <path d="M 1080.9996,93.1519 L 1080.9996,86.30378 L 1076.7496,84.4019 C 1071.6623000000002,82.12534 1065.1266,76.46439 1063.9193,73.28873 C 1063.1757,71.33295 1062.3546000000001,71.00766 1058.2744,71.05248 L 1053.4996,71.10488000000001 L 1055.9429,72.80243000000002 C 1064.1731,78.52057000000002 1073.7969,88.76971000000002 1078.6492,96.98402000000002 C 1079.6291,98.64280000000001 1080.5588,99.99998000000002 1080.7152,99.99998000000002 C 1080.8716000000002,99.99998000000002 1080.9996,96.91832000000002 1080.9996,93.15185000000002 L 1080.9996,93.1519" fill="none" stroke="#000000" stroke-width="1.0979254379902206"/>
  <path d="M 311.0,55.74301 C 311.0,46.64694 310.9135,46.312239999999996 306.02576,36.49301 C 300.05379,24.49565 295.39765,18.02503 289.83907,13.99842 C 285.85442,11.11194 285.30055,11.00003 275.0,11.00003 C 264.72863,11.00003 264.1363,11.11867 260.21109,13.96208 C 254.48827,18.10766 248.83174000000002,25.97642 243.53209,37.164100000000005 C 239.18502,46.34086 239.0,47.10433 239.0,55.86573 L 239.0,65.00003 L 275.0,65.00003 L 311.0,65.00003 L 311.0,55.74301" fill="none" stroke="#000000" stroke-width="1.0979254379902206"/>
  <path d="M 280.51714,60.37431 C 279.6225,59.47967 279.02826,57.57866 279.19570999999996,56.147 C 279.43648999999994,54.08836 280.42438,53.205149999999996 283.92918,51.91507 C 290.53633,49.48304 293.0,46.08243 293.0,39.39461 C 293.0,33.68123 290.4048,26.72701 289.07539,28.87804 C 288.56644,29.701539999999998 287.82082,29.459519999999998 286.55391000000003,28.0596 C 281.68564000000003,22.68022 270.13141,21.63408 263.9782,26.01555 C 254.59039,32.70026 256.76111000000003,49.98642 267.89682,57.220780000000005 L 272.5,60.21125000000001 L 268.53456,59.51991000000001 C 266.35356,59.13967000000001 263.39579,58.22182000000001 261.96172,57.48024000000001 C 258.90372,55.898880000000005 256.22810000000004,53.00003000000001 257.82653,53.00003000000001 C 258.51583999999997,53.00003000000001 258.38119,51.763250000000006 257.44897,49.53215000000001 C 256.65204,47.62481000000001 255.99310999999997,43.46231000000001 255.98468999999997,40.28215000000001 C 255.97378999999998,36.18001000000001 255.68772999999996,34.93585000000001 254.99999999999997,36.00003000000001 C 253.71217999999996,37.99279000000001 253.75504999999998,37.03007000000001 255.13809999999998,32.89925000000001 C 256.84369999999996,27.80508000000001 260.64722,23.22065000000001 265.01809,20.990800000000007 C 270.01829999999995,18.439880000000006 271.89086,18.437200000000008 268.86078,20.98580000000001 L 266.5,22.97106000000001 L 269.72789,21.89568000000001 C 273.45124,20.65524000000001 284.72697,21.248860000000008 287.70388,22.84206000000001 C 291.28232,24.757180000000012 295.88171,30.85309000000001 296.58773,34.61648000000001 C 296.96524,36.62877000000001 296.82807,40.22438000000001 296.28291,42.60673000000001 C 295.65767,45.33902000000001 295.64662000000004,46.718930000000015 296.25301,46.344180000000016 C 297.66483,45.47163000000002 296.07957,50.014800000000015 293.88395,53.13366000000001 C 291.32182,56.77311000000002 285.22162000000003,62.00053000000001 283.53663,62.00053000000001 C 282.77006,62.00053000000001 281.41128,61.268960000000014 280.51714,60.37481000000001 L 280.51714,60.37431" fill="none" stroke="#000000" stroke-width="1.0979254379902206"/>
  <path d="M 271.77558,49.25003 C 269.44015,46.58644 266.76955,40.89715 267.50802,40.15867 C 267.86854999999997,39.79815 268.79708,40.36962 269.57142999999996,41.4286 C 271.36355,43.87948 272.03391,43.16613 272.71574999999996,38.082620000000006 C 273.02863999999994,35.749810000000004 273.80465999999996,34.00003000000001 274.52635999999995,34.00003000000001 C 275.45386999999994,34.00003000000001 275.5793699999999,34.93119000000001 274.99879999999996,37.50536000000001 C 273.9333,42.22963000000001 275.28880999999996,42.73583000000001 277.58540999999997,38.47129000000001 C 278.61357999999996,36.56210000000001 279.80247999999995,35.00003000000001 280.2274,35.00003000000001 C 281.33702999999997,35.00003000000001 281.19876999999997,35.71498000000001 279.42626,39.14262000000001 C 277.30298,43.24860000000001 278.40405000000004,43.94516000000001 281.82976,40.66313000000001 C 283.37466,39.183020000000006 284.94754,38.28091000000001 285.32506,38.65842000000001 C 285.70258,39.035940000000004 284.54638,40.57334000000001 282.75573,42.07488000000001 C 279.07945,45.157590000000006 279.60529,47.14390000000001 283.43361000000004,44.635490000000004 C 286.29154,42.7629 287.0,42.62209 287.0,43.92664 C 287.0,45.08464 276.7833,51.000029999999995 274.78326,51.000029999999995 C 273.97294999999997,51.000029999999995 272.61949999999996,50.212529999999994 271.77558,49.250029999999995 L 271.77558,49.25003" fill="none" stroke="#000000" stroke-width="1.0979254379902206"/>
  <path d="M 393.0,55.74301 C 393.0,46.64694 392.9135,46.312239999999996 388.02576,36.49301 C 382.05379,24.49565 377.39765,18.02503 371.83907,13.99842 C 367.85442,11.11194 367.30055,11.00003 357.0,11.00003 C 346.72863,11.00003 346.1363,11.11867 342.21109,13.96208 C 336.48827,18.10766 330.83174,25.97642 325.53209000000004,37.164100000000005 C 321.18502,46.34086 321.0,47.10433 321.0,55.86573 L 321.0,65.00003 L 357.0,65.00003 L 393.0,65.00003 L 393.0,55.74301" fill="none" stroke="#000000" stroke-width="1.0979254379902206"/>
  <path d="M 344.0,48.616659999999996 C 344.0,42.93964999999999 343.76374,42.17151 341.86489,41.674949999999995 L 339.72979,41.116609999999994 L 341.81784,37.808319999999995 C 342.96627,35.98875999999999 344.60206999999997,34.35453 345.45295,34.17670999999999 C 346.77186,33.901059999999994 347.0,35.412609999999994 347.0,44.42670999999999 C 347.0,53.15854999999999 346.73876,55.000029999999995 345.5,55.000029999999995 C 344.32332,55.000029999999995 344.0,53.6241 344.0,48.616659999999996" fill="none" stroke="#000000" stroke-width="1.0979254379902206"/>
  <path d="M 352.75,53.919929999999994 C 349.88632,52.25198999999999 350.75105,51.044779999999996 354.64105,51.27992999999999 C 359.67193000000003,51.584039999999995 359.88402,49.650659999999995 355.02898,47.74354999999999 C 351.76151,46.46005 351.0,45.66915 351.0,43.55904 C 351.0,40.1049 354.88093,38.16912000000001 358.5,39.81808 C 362.27459,41.5379 361.63545,43.20987 357.5,42.43405 C 352.72059,41.53743 352.64904,44.39907 357.4116,45.97085 C 361.23818,47.23373 362.46411,49.26437 361.02422,51.95482 C 359.43409,54.92601 355.91309,55.762249999999995 352.75003000000004,53.91993 L 352.75,53.919929999999994" fill="none" stroke="#000000" stroke-width="1.0979254379902206"/>
  <path d="M 367.0,48.50003 C 367.0,44.83336 366.5641,42.00003 366.0,42.00003 C 365.45,42.00003 365.0,41.325030000000005 365.0,40.50003 C 365.0,39.67503 365.45,39.00003 366.0,39.00003 C 366.55,39.00003 367.0,37.87503 367.0,36.50003 C 367.0,34.94447 367.56667,34.00003 368.5,34.00003 C 369.43333,34.00003 370.0,34.94447 370.0,36.50003 C 370.0,38.05559 370.56667,39.00003 371.5,39.00003 C 372.325,39.00003 373.0,39.67503 373.0,40.50003 C 373.0,41.325030000000005 372.325,42.00003 371.5,42.00003 C 370.32051,42.00003 370.0,43.38892 370.0,48.50003 C 370.0,53.611140000000006 369.67949,55.00003 368.5,55.00003 C 367.32051,55.00003 367.0,53.611140000000006 367.0,48.50003" fill="none" stroke="#000000" stroke-width="1.0979254379902206"/>
  <path d="M 475.0,55.743010000000005 C 475.0,46.64694000000001 474.9135,46.31224 470.02576,36.493010000000005 C 464.05379,24.49565 459.39765,18.02503 453.83907,13.99842 C 449.85442,11.11194 449.30055,11.00003 439.0,11.00003 C 428.72863,11.00003 428.1363,11.11867 424.21109,13.96208 C 418.48827,18.10766 412.83174,25.97642 407.53209000000004,37.164100000000005 C 403.18502,46.34086 403.0,47.10433 403.0,55.86573 L 403.0,65.00003 L 439.0,65.00003 L 475.0,65.00003 L 475.0,55.743010000000005" fill="none" stroke="#000000" stroke-width="1.0979254379902206"/>
  <path d="M 413.0,53.71587 C 413.0,53.00958 415.475,49.98745 418.5,47.00003 C 424.35318,41.21956 425.22578,38.72641 422.0,37.00003 C 419.61521,35.72373 416.0,37.251270000000005 416.0,39.53521 C 416.0,40.34086 415.325,41.00003 414.5,41.00003 C 412.37636,41.00003 412.6404,38.35963 415.0,36.00003 C 418.96943,32.0306 427.0,34.55512 427.0,39.772380000000005 C 427.0,41.597970000000004 425.52305,43.93083000000001 422.28759,47.215680000000006 L 417.57518000000005,52.00003000000001 L 422.78759,52.00003000000001 C 426.75418,52.00003000000001 428.0,52.35855000000001 428.0,53.50003000000001 C 428.0,54.70003000000001 426.5,55.00003000000001 420.5,55.00003000000001 C 415.06026,55.00003000000001 413.0,54.647270000000006 413.0,53.71587000000001 L 413.0,53.71587" fill="none" stroke="#000000" stroke-width="1.0979254379902206"/>
  <path d="M 430.0,47.17061 L 430.0,39.341190000000005 L 434.9725,39.227920000000005 C 441.58689,39.07726 444.0,41.85911 444.0,49.63489 C 444.0,56.736779999999996 442.3744,56.52838 441.77913,49.35017 C 441.21922,42.59843 438.99417,40.09974 435.56241,42.36893 C 433.96053,43.428129999999996 433.43303,44.99064 433.2001,49.36634 C 432.98093,53.48335 432.50980000000004,55.00003 431.4501,55.00003 C 430.30678,55.00003 430.0,53.34367 430.0,47.17061" fill="none" stroke="#000000" stroke-width="1.0979254379902206"/>
  <path d="M 450.30174,52.58315 C 444.49363999999997,47.58724 449.11065,38.0478 456.652,39.46257 C 459.8539,40.06325 460.0,39.95777 460.0,37.045339999999996 C 460.0,35.370419999999996 460.45,34.000029999999995 461.0,34.000029999999995 C 461.60163,34.000029999999995 461.99999,38.083349999999996 461.99998,44.250029999999995 L 461.99996,54.500029999999995 L 457.46839,54.67489 C 454.03252,54.807469999999995 452.29968,54.3017 450.30174,52.583149999999996 L 450.30174,52.58315" fill="none" stroke="#000000" stroke-width="1.0979254379902206"/>
  <path d="M 457.8,50.80003 C 458.46000000000004,50.14003 459.0,48.43003 459.0,47.00003 C 459.0,43.996570000000006 457.35143,42.00003 454.87143,42.00003 C 452.59727,42.00003 450.0,44.665850000000006 450.0,47.00003 C 450.0,50.936800000000005 455.15286,53.44717 457.8,50.80003" fill="none" stroke="#000000" stroke-width="1.0979254379902206"/>
  <path d="M 557.0,55.89738 C 557.0,47.37495 556.74638,46.253519999999995 553.02104,38.30386 C 548.0217299999999,27.63561 541.0153399999999,17.74808 535.75464,13.937249999999999 C 531.87004,11.123259999999998 531.25101,11.000029999999999 521.0,11.000029999999999 C 510.74899,11.000029999999999 510.12996,11.123259999999998 506.24536,13.937249999999999 C 500.98466,17.748079999999998 493.97827,27.63561 488.97896000000003,38.30386 C 485.25362,46.25352 485.0,47.37495 485.0,55.89738 L 485.0,65.00003 L 521.0,65.00003 L 557.0,65.00003 L 557.0,55.89738" fill="none" stroke="#000000" stroke-width="1.0979254379902206"/>
  <path d="M 502.44113,53.53183 C 500.32581,51.93188 500.56869,51.81796 506.5,51.62808 C 510.24932,51.50805 510.5,51.31202 510.5,48.500029999999995 C 510.5,46.15026999999999 510.01232,45.430769999999995 508.25,45.180479999999996 C 505.46166,44.78447 505.29122,42.418639999999996 508.0,41.71028 C 510.41851,41.07783 510.6811,37.47537 508.37325,36.589769999999994 C 507.47854,36.24643 506.22595,36.397549999999995 505.58970999999997,36.92556999999999 C 504.86235,37.52922999999999 503.88854,37.53562999999999 502.96646,36.942769999999996 C 501.68194,36.116949999999996 501.6861,35.87781 502.99996,35.01528999999999 C 505.14315999999997,33.608369999999994 509.30737,33.773059999999994 511.46401,35.35002999999999 C 512.90198,36.40149999999999 513.17997,37.50324999999999 512.7209799999999,40.33169999999999 C 512.39685,42.32909999999999 512.55202,44.22312999999999 513.0658,44.54066999999999 C 513.5795899999999,44.85820999999999 513.99996,46.64093999999999 513.99996,48.50228999999999 C 513.99996,54.09500999999999 507.13500999999997,57.08207999999999 502.44109,53.53177999999999 L 502.44113,53.53183" fill="none" stroke="#000000" stroke-width="1.0979254379902206"/>
  <path d="M 518.0,47.20003 L 518.0,39.40003 L 521.5,39.40003 C 523.70513,39.40003 525.0,39.88098 525.0,40.70003 C 525.0,41.41503 524.34083,42.000029999999995 523.53518,42.000029999999995 C 521.37108,42.000029999999995 520.0,45.271159999999995 520.0,50.43429 C 520.0,52.945449999999994 519.55,55.000029999999995 519.0,55.000029999999995 C 518.4188,55.000029999999995 518.0,51.73336 518.0,47.20003" fill="none" stroke="#000000" stroke-width="1.0979254379902206"/>
  <path d="M 530.82501,53.94343 C 529.90376,53.41607 528.64045,51.44063 528.01766,49.55355 C 525.96838,43.34416 530.55295,37.91806 536.57217,39.42879 C 538.74105,39.97314 539.0,39.71613 539.0,37.01908 C 539.0,35.3586 539.45,34.00003 540.0,34.00003 C 540.60183,34.00003 541.0,38.0942 541.0,44.28255 L 541.0,54.56506 L 536.75,54.73366 C 534.4125,54.82636 531.74625,54.47079 530.82501,53.94343" fill="none" stroke="#000000" stroke-width="1.0979254379902206"/>
  <path d="M 537.42857,50.4286 C 540.49639,47.36079 538.25667,42.00003 533.90713,42.00003 C 531.11161,42.00003 529.3497900000001,46.27756 530.8180500000001,49.50003 C 532.1172300000001,52.351420000000005 535.0883900000001,52.76878 537.42857,50.4286" fill="none" stroke="#000000" stroke-width="1.0979254379902206"/>
  <path d="M 639.0,56.24301 C 639.0,47.74659 638.85197,47.188599999999994 634.02576,37.49301 C 628.05379,25.49565 623.39765,19.02503 617.83907,14.99842 C 613.85442,12.11194 613.30055,12.00003 603.0,12.00003 C 592.74687,12.00003 592.13062,12.12279 588.24182,14.939810000000001 C 582.5505999999999,19.062510000000003 577.61866,25.873070000000002 571.9096599999999,37.49301 C 567.16464,47.15088 567.0,47.77965 567.0,56.24301 L 567.0,65.00003 L 603.0,65.00003 L 639.0,65.00003 L 639.0,56.24301" fill="none" stroke="#000000" stroke-width="1.0979254379902206"/>
  <path d="M 592.0,52.500029999999995 C 592.0,50.16669999999999 591.66667,50.000029999999995 587.0,50.000029999999995 C 584.25,50.000029999999995 582.0,49.596039999999995 582.0,49.10227 C 582.0,47.7459 592.97424,34.000029999999995 594.05712,34.000029999999995 C 594.5757000000001,34.000029999999995 595.0,37.150029999999994 595.0,41.000029999999995 C 595.0,46.555589999999995 595.30952,48.000029999999995 596.5,48.000029999999995 C 597.325,48.000029999999995 598.0,48.40188 598.0,48.89303999999999 C 598.0,49.38419999999999 597.325,50.045069999999996 596.5,50.36165999999999 C 595.675,50.678239999999995 595.0,51.85137999999999 595.0,52.96863999999999 C 595.0,54.10764999999999 594.34106,55.000029999999995 593.5,55.000029999999995 C 592.56667,55.000029999999995 592.0,54.055589999999995 592.0,52.500029999999995" fill="none" stroke="#000000" stroke-width="1.0979254379902206"/>
  <path d="M 591.9731,43.750029999999995 L 591.9462000000001,39.500029999999995 L 589.0000000000001,43.000029999999995 C 585.2912000000001,47.405969999999996 585.2912000000001,48.000029999999995 589.0000000000001,48.000029999999995 C 591.8669600000001,48.000029999999995 591.9988100000002,47.81155999999999 591.9731000000002,43.750029999999995 L 591.9731,43.750029999999995" fill="none" stroke="#000000" stroke-width="1.0979254379902206"/>
  <path d="M 602.0,48.500029999999995 C 602.0,44.83336 601.5641,42.000029999999995 601.0,42.000029999999995 C 600.45,42.000029999999995 600.0,41.32503 600.0,40.500029999999995 C 600.0,39.67502999999999 600.45,39.000029999999995 601.0,39.000029999999995 C 601.55,39.000029999999995 602.0,37.875029999999995 602.0,36.500029999999995 C 602.0,34.944469999999995 602.56667,34.000029999999995 603.5,34.000029999999995 C 604.43333,34.000029999999995 605.0,34.944469999999995 605.0,36.500029999999995 C 605.0,38.055589999999995 605.56667,39.000029999999995 606.5,39.000029999999995 C 607.325,39.000029999999995 608.0,39.67502999999999 608.0,40.500029999999995 C 608.0,41.32503 607.325,42.000029999999995 606.5,42.000029999999995 C 605.32051,42.000029999999995 605.0,43.38892 605.0,48.500029999999995 C 605.0,53.61113999999999 604.67949,55.000029999999995 603.5,55.000029999999995 C 602.32051,55.000029999999995 602.0,53.61113999999999 602.0,48.500029999999995" fill="none" stroke="#000000" stroke-width="1.0979254379902206"/>
  <path d="M 611.0,44.500029999999995 C 611.0,35.83336 611.2619,34.000029999999995 612.5,34.000029999999995 C 613.50131,34.000029999999995 614.0,35.00133999999999 614.0,37.011849999999995 C 614.0,39.9565 614.0876,40.00964999999999 617.929,39.39538999999999 C 621.28026,38.85949999999999 622.23606,39.14517999999999 624.429,41.33811999999999 C 626.57217,43.48128999999999 627.0,44.83191999999999 627.0,49.45456999999999 C 627.0,53.71719999999999 626.65301,55.00002999999999 625.5,55.00002999999999 C 624.35535,55.00002999999999 624.0,53.744469999999986 624.0,49.70002999999999 C 624.0,43.726989999999994 622.84163,42.00002999999999 618.83518,42.00002999999999 C 615.3768200000001,42.00002999999999 614.0,44.401679999999985 614.0,50.43428999999999 C 614.0,53.82605999999999 613.61431,55.00002999999999 612.5,55.00002999999999 C 611.2619,55.00002999999999 611.0,53.16669999999999 611.0,44.50002999999999 L 611.0,44.500029999999995" fill="none" stroke="#000000" stroke-width="1.0979254379902206"/>
  <path d="M 721.0,56.24301 C 721.0,47.74659 720.85197,47.188599999999994 716.02576,37.49301 C 710.05379,25.49565 705.39765,19.02503 699.83907,14.99842 C 695.85442,12.11194 695.30055,12.00003 685.0,12.00003 C 674.72678,12.00003 674.13689,12.11824 670.20793,14.96437 C 664.64566,18.993650000000002 658.63044,27.401380000000003 653.37959,38.48602 C 649.25881,47.18508 649.0,48.24167 649.0,56.36573 L 649.0,65.00003 L 685.0,65.00003 L 721.0,65.00003 L 721.0,56.24301" fill="none" stroke="#000000" stroke-width="1.0979254379902206"/>
  <path d="M 669.46528,54.07004 C 668.34619,53.60458 666.86184,52.53848 666.16672,51.700919999999996 C 664.3295400000001,49.487249999999996 666.65574,48.378499999999995 668.89175,50.402069999999995 C 672.38016,53.55902999999999 677.0,51.77936999999999 677.0,47.278589999999994 C 677.0,44.24535999999999 673.13173,42.32397999999999 670.19223,43.897149999999996 C 669.05882,44.50373 667.8769,45.000029999999995 667.56574,45.000029999999995 C 666.8164400000001,45.000029999999995 666.8464,41.01801 667.62504,37.125029999999995 C 668.23202,34.090149999999994 668.40504,34.000029999999995 673.62504,34.000029999999995 C 677.64093,34.000029999999995 679.00004,34.364779999999996 679.00004,35.44253 C 679.00004,36.42413 677.64486,36.98328 674.75867,37.19253 C 671.66475,37.41684 670.42749,37.97347 670.18534,39.250029999999995 C 669.9321,40.58508 670.52935,41.000029999999995 672.70421,41.000029999999995 C 677.09331,41.000029999999995 680.00004,43.550529999999995 680.00004,47.40174999999999 C 680.00004,52.537699999999994 674.36181,56.10659999999999 669.46532,54.07003999999999 L 669.46528,54.07004" fill="none" stroke="#000000" stroke-width="1.0979254379902206"/>
  <path d="M 685.0,48.50003 C 685.0,44.83336 684.5641,42.00003 684.0,42.00003 C 683.45,42.00003 683.0,41.325030000000005 683.0,40.50003 C 683.0,39.67503 683.45,39.00003 684.0,39.00003 C 684.55,39.00003 685.0,37.87503 685.0,36.50003 C 685.0,34.94447 685.56667,34.00003 686.5,34.00003 C 687.43333,34.00003 688.0,34.94447 688.0,36.50003 C 688.0,38.05559 688.56667,39.00003 689.5,39.00003 C 690.325,39.00003 691.0,39.67503 691.0,40.50003 C 691.0,41.325030000000005 690.325,42.00003 689.5,42.00003 C 688.32051,42.00003 688.0,43.38892 688.0,48.50003 C 688.0,53.611140000000006 687.67949,55.00003 686.5,55.00003 C 685.32051,55.00003 685.0,53.611140000000006 685.0,48.50003" fill="none" stroke="#000000" stroke-width="1.0979254379902206"/>
  <path d="M 694.0,44.50003 C 694.0,35.83336 694.2619,34.00003 695.5,34.00003 C 696.50131,34.00003 697.0,35.00134 697.0,37.01185 C 697.0,39.956500000000005 697.0876,40.00965 700.929,39.395390000000006 C 704.28026,38.859500000000004 705.23606,39.14518 707.429,41.33812 C 709.57217,43.48129 710.0,44.831920000000004 710.0,49.454570000000004 C 710.0,53.717200000000005 709.65301,55.00003 708.5,55.00003 C 707.35535,55.00003 707.0,53.74447 707.0,49.700030000000005 C 707.0,43.72699000000001 705.84163,42.00003 701.83518,42.00003 C 698.3768200000001,42.00003 697.0,44.40168 697.0,50.434290000000004 C 697.0,53.826060000000005 696.61431,55.00003 695.5,55.00003 C 694.2619,55.00003 694.0,53.166700000000006 694.0,44.50003" fill="none" stroke="#000000" stroke-width="1.0979254379902206"/>
  <path d="M 803.0,56.24301 C 803.0,47.74659 802.85197,47.188599999999994 798.02576,37.49301 C 792.05379,25.49565 787.39765,19.02503 781.83907,14.99842 C 777.85442,12.11194 777.30055,12.00003 767.0,12.00003 C 756.72678,12.00003 756.13689,12.11824 752.20793,14.96437 C 746.64566,18.993650000000002 740.63044,27.401380000000003 735.37959,38.48602 C 731.25881,47.18508 731.0,48.24167 731.0,56.36573 L 731.0,65.00003 L 767.0,65.00003 L 803.0,65.00003 L 803.0,56.24301" fill="none" stroke="#000000" stroke-width="1.0979254379902206"/>
  <path d="M 748.31537,53.99305 C 746.02888,53.0718 744.0,50.12348 744.0,47.72205 C 744.0,45.0114 752.18664,34.00003 754.20194,34.00003 C 756.0835500000001,34.00003 756.07991,34.07903 754.06809,36.9044 C 751.54221,40.45168 751.5033,41.00003 753.77749,41.00003 C 759.88473,41.00003 762.30387,49.04265 757.36514,52.92745 C 754.57603,55.12136 751.89833,55.43666 748.31537,53.993050000000004 L 748.31537,53.99305" fill="none" stroke="#000000" stroke-width="1.0979254379902206"/>
  <path d="M 756.3940200000001,49.750029999999995 C 758.1076700000001,47.0132 755.95208,44.500029999999995 751.89101,44.500029999999995 C 749.1115900000001,44.500029999999995 748.4410700000001,44.91576 748.1732400000001,46.80506999999999 C 747.9935200000001,48.07283999999999 748.4050000000001,49.78309999999999 749.0876400000001,50.60562999999999 C 750.6779300000001,52.52180999999999 754.97346,52.01878999999999 756.3940200000001,49.75002999999999 L 756.3940200000001,49.750029999999995" fill="none" stroke="#000000" stroke-width="1.0979254379902206"/>
  <path d="M 764.0,48.50003 C 764.0,44.83336 763.5641,42.00003 763.0,42.00003 C 762.45,42.00003 762.0,41.325030000000005 762.0,40.50003 C 762.0,39.67503 762.45,39.00003 763.0,39.00003 C 763.55,39.00003 764.0,37.87503 764.0,36.50003 C 764.0,34.94447 764.56667,34.00003 765.5,34.00003 C 766.43333,34.00003 767.0,34.94447 767.0,36.50003 C 767.0,38.05559 767.56667,39.00003 768.5,39.00003 C 769.325,39.00003 770.0,39.67503 770.0,40.50003 C 770.0,41.325030000000005 769.325,42.00003 768.5,42.00003 C 767.32051,42.00003 767.0,43.38892 767.0,48.50003 C 767.0,53.611140000000006 766.67949,55.00003 765.5,55.00003 C 764.32051,55.00003 764.0,53.611140000000006 764.0,48.50003" fill="none" stroke="#000000" stroke-width="1.0979254379902206"/>
  <path d="M 773.0,44.50003 C 773.0,35.83336 773.2619,34.00003 774.5,34.00003 C 775.50131,34.00003 776.0,35.00134 776.0,37.01185 C 776.0,39.956500000000005 776.0876,40.00965 779.929,39.395390000000006 C 783.28026,38.859500000000004 784.23606,39.14518 786.429,41.33812 C 788.57217,43.48129 789.0,44.831920000000004 789.0,49.454570000000004 C 789.0,53.717200000000005 788.65301,55.00003 787.5,55.00003 C 786.35535,55.00003 786.0,53.74447 786.0,49.700030000000005 C 786.0,43.72699000000001 784.84163,42.00003 780.83518,42.00003 C 777.3768200000001,42.00003 776.0,44.40168 776.0,50.434290000000004 C 776.0,53.826060000000005 775.61431,55.00003 774.5,55.00003 C 773.2619,55.00003 773.0,53.166700000000006 773.0,44.50003" fill="none" stroke="#000000" stroke-width="1.0979254379902206"/>
  <path d="M 884.0,55.74301 C 884.0,46.64694 883.9135,46.312239999999996 879.02576,36.49301 C 873.05379,24.49565 868.39765,18.02503 862.83907,13.99842 C 858.85442,11.11194 858.30055,11.00003 848.0,11.00003 C 837.74687,11.00003 837.13062,11.12279 833.24182,13.939810000000001 C 827.5505999999999,18.062510000000003 822.61866,24.873070000000002 816.9096599999999,36.49301 C 812.10336,46.2756 812.0,46.68088 812.0,55.74301 L 812.0,65.00003 L 848.0,65.00003 L 884.0,65.00003 L 884.0,55.74301" fill="none" stroke="#000000" stroke-width="1.0979254379902206"/>
  <path d="M 827.77231,51.750029999999995 C 828.83679,49.962529999999994 831.15652,45.91253 832.9272599999999,42.750029999999995 L 836.1467799999999,37.000029999999995 L 830.0733899999999,37.000029999999995 C 825.3414899999999,37.000029999999995 823.9999999999999,36.66871 823.9999999999999,35.500029999999995 C 823.9999999999999,34.2917 825.5555599999999,34.000029999999995 831.9999999999999,34.000029999999995 C 836.4687499999999,34.000029999999995 839.9999999999999,34.425639999999994 839.9999999999999,34.96424999999999 C 839.9999999999999,35.494569999999996 837.6374999999999,40.20499999999999 834.7499999999999,45.43187999999999 C 831.1243499999999,51.99492999999999 828.9333199999999,54.94529999999999 827.6684399999999,54.967659999999995 C 825.9149399999999,54.998659999999994 825.91937,54.86151999999999 827.77231,51.750029999999995" fill="none" stroke="#000000" stroke-width="1.0979254379902206"/>
  <path d="M 844.0,48.50003 C 844.0,44.83336 843.5641,42.00003 843.0,42.00003 C 842.45,42.00003 842.0,41.325030000000005 842.0,40.50003 C 842.0,39.67503 842.45,39.00003 843.0,39.00003 C 843.55,39.00003 844.0,37.87503 844.0,36.50003 C 844.0,34.94447 844.56667,34.00003 845.5,34.00003 C 846.43333,34.00003 847.0,34.94447 847.0,36.50003 C 847.0,38.05559 847.56667,39.00003 848.5,39.00003 C 849.325,39.00003 850.0,39.67503 850.0,40.50003 C 850.0,41.325030000000005 849.325,42.00003 848.5,42.00003 C 847.32051,42.00003 847.0,43.38892 847.0,48.50003 C 847.0,53.611140000000006 846.67949,55.00003 845.5,55.00003 C 844.32051,55.00003 844.0,53.611140000000006 844.0,48.50003" fill="none" stroke="#000000" stroke-width="1.0979254379902206"/>
  <path d="M 853.0,44.50003 C 853.0,35.83336 853.2619,34.00003 854.5,34.00003 C 855.50131,34.00003 856.0,35.00134 856.0,37.01185 C 856.0,39.956500000000005 856.0876,40.00965 859.929,39.395390000000006 C 863.28026,38.859500000000004 864.23606,39.14518 866.429,41.33812 C 868.57217,43.48129 869.0,44.831920000000004 869.0,49.454570000000004 C 869.0,53.717200000000005 868.65301,55.00003 867.5,55.00003 C 866.35535,55.00003 866.0,53.74447 866.0,49.700030000000005 C 866.0,43.72699000000001 864.84163,42.00003 860.83518,42.00003 C 857.3768200000001,42.00003 856.0,44.40168 856.0,50.434290000000004 C 856.0,53.826060000000005 855.61431,55.00003 854.5,55.00003 C 853.2619,55.00003 853.0,53.166700000000006 853.0,44.50003" fill="none" stroke="#000000" stroke-width="1.0979254379902206"/>
  <path d="M 966.0,55.74301 C 966.0,46.64694 965.9135,46.312239999999996 961.02576,36.49301 C 955.05379,24.49565 950.39765,18.02503 944.83907,13.99842 C 940.85442,11.11194 940.30055,11.00003 930.0,11.00003 C 919.72863,11.00003 919.1363,11.11867 915.21109,13.96208 C 909.48827,18.10766 903.83174,25.97642 898.53209,37.164100000000005 C 894.18502,46.34086 894.0,47.10433 894.0,55.86573 L 894.0,65.00003 L 930.0,65.00003 L 966.0,65.00003 L 966.0,55.74301" fill="none" stroke="#000000" stroke-width="1.0979254379902206"/>
  <path d="M 910.63486,52.92745 C 907.67197,50.59684 907.26777,47.49045 909.51072,44.28818 C 910.46698,42.922929999999994 910.65049,41.90206 910.01072,41.50666 C 906.69904,39.45992 910.84167,34.000029999999995 915.7062999999999,34.000029999999995 C 919.6711499999999,34.000029999999995 921.3979199999999,36.160529999999994 920.72876,40.28404 C 920.4044799999999,42.28239 920.7425599999999,44.295019999999994 921.59929,45.46671 C 923.58372,48.18058 923.35168,49.73926 920.54545,52.54548 C 917.54576,55.545179999999995 914.1301199999999,55.67682 910.63486,52.92745" fill="none" stroke="#000000" stroke-width="1.0979254379902206"/>
  <path d="M 918.5,48.50003 C 918.5,45.8585 918.15456,45.50003 915.60899,45.50003 C 911.97183,45.50003 910.04003,48.13841 911.9723899999999,50.466770000000004 C 912.7513199999999,51.40531000000001 914.4296199999999,51.973180000000006 915.9143999999999,51.80059000000001 C 918.0538299999998,51.55189000000001 918.4999999999999,50.982350000000004 918.4999999999999,48.50003000000001 L 918.5,48.50003" fill="none" stroke="#000000" stroke-width="1.0979254379902206"/>
  <path d="M 916.41821,41.39304 C 919.0810700000001,40.3712 918.37644,37.000029999999995 915.5,37.000029999999995 C 913.74242,37.000029999999995 913.0,37.54447 913.0,38.83335999999999 C 913.0,41.66718999999999 913.9161,42.35318999999999 916.41821,41.39303999999999 L 916.41821,41.39304" fill="none" stroke="#000000" stroke-width="1.0979254379902206"/>
  <path d="M 927.0,48.50003 C 927.0,44.83336 926.5641,42.00003 926.0,42.00003 C 925.45,42.00003 925.0,41.325030000000005 925.0,40.50003 C 925.0,39.67503 925.45,39.00003 926.0,39.00003 C 926.55,39.00003 927.0,37.87503 927.0,36.50003 C 927.0,34.94447 927.56667,34.00003 928.5,34.00003 C 929.43333,34.00003 930.0,34.94447 930.0,36.50003 C 930.0,38.05559 930.56667,39.00003 931.5,39.00003 C 932.325,39.00003 933.0,39.67503 933.0,40.50003 C 933.0,41.325030000000005 932.325,42.00003 931.5,42.00003 C 930.32051,42.00003 930.0,43.38892 930.0,48.50003 C 930.0,53.611140000000006 929.67949,55.00003 928.5,55.00003 C 927.32051,55.00003 927.0,53.611140000000006 927.0,48.50003" fill="none" stroke="#000000" stroke-width="1.0979254379902206"/>
  <path d="M 936.0,44.50003 C 936.0,35.83336 936.2619,34.00003 937.5,34.00003 C 938.50131,34.00003 939.0,35.00134 939.0,37.01185 C 939.0,39.956500000000005 939.0876,40.00965 942.929,39.395390000000006 C 946.28026,38.859500000000004 947.23606,39.14518 949.429,41.33812 C 951.57217,43.48129 952.0,44.831920000000004 952.0,49.454570000000004 C 952.0,53.717200000000005 951.65301,55.00003 950.5,55.00003 C 949.35535,55.00003 949.0,53.74447 949.0,49.700030000000005 C 949.0,43.72699000000001 947.84163,42.00003 943.83518,42.00003 C 940.3768200000001,42.00003 939.0,44.40168 939.0,50.434290000000004 C 939.0,53.826060000000005 938.61431,55.00003 937.5,55.00003 C 936.2619,55.00003 936.0,53.166700000000006 936.0,44.50003" fill="none" stroke="#000000" stroke-width="1.0979254379902206"/>
  <path d="M 1048.0,55.74301 C 1048.0,46.68088 1047.8966,46.2756 1043.0903,36.49301 C 1037.3813,24.87307 1032.4494,18.06251 1026.7582,13.939809999999998 C 1022.8694,11.122789999999998 1022.2531,11.000029999999999 1012.0,11.000029999999999 C 1001.6995,11.000029999999999 1001.1456,11.111939999999999 997.16093,13.99841 C 991.60235,18.02503 986.9462100000001,24.495649999999998 980.97424,36.49301 C 976.08649,46.31224 976.0,46.64694 976.0,55.74301 L 976.0,65.00003 L 1012.0,65.00003 L 1048.0,65.00003 L 1048.0,55.74301" fill="none" stroke="#000000" stroke-width="1.0979254379902206"/>
  <path d="M 995.3134,52.64447 C 997.41134,49.44262 997.45518,48.000029999999995 995.45455,48.000029999999995 C 993.2067000000001,48.000029999999995 989.0,43.43783 989.0,41.000029999999995 C 989.0,39.85003 990.10455,37.80457 991.45455,36.45457 C 996.1942300000001,31.714889999999997 1005.25,34.316179999999996 1005.25,40.41735 C 1005.25,43.78017 998.08436,54.34039 995.45042,54.85929 C 993.71831,55.200520000000004 993.71144,55.08938 995.3134,52.64447" fill="none" stroke="#000000" stroke-width="1.0979254379902206"/>
  <path d="M 1001.394,42.750029999999995 C 1003.1077,40.0132 1000.9521,37.500029999999995 996.89101,37.500029999999995 C 994.1115900000001,37.500029999999995 993.4410700000001,37.91576 993.1732400000001,39.80506999999999 C 992.9935200000001,41.07283999999999 993.4050000000001,42.78309999999999 994.0876400000001,43.60562999999999 C 995.6779300000001,45.52180999999999 999.97346,45.01878999999999 1001.3940000000001,42.75002999999999 L 1001.394,42.750029999999995" fill="none" stroke="#000000" stroke-width="1.0979254379902206"/>
  <path d="M 1009.0,48.500029999999995 C 1009.0,44.83336 1008.5641,42.000029999999995 1008.0,42.000029999999995 C 1007.45,42.000029999999995 1007.0,41.32503 1007.0,40.500029999999995 C 1007.0,39.67502999999999 1007.45,39.000029999999995 1008.0,39.000029999999995 C 1008.55,39.000029999999995 1009.0,37.875029999999995 1009.0,36.500029999999995 C 1009.0,34.944469999999995 1009.5667,34.000029999999995 1010.5,34.000029999999995 C 1011.4333,34.000029999999995 1012.0,34.944469999999995 1012.0,36.500029999999995 C 1012.0,38.055589999999995 1012.5667,39.000029999999995 1013.5,39.000029999999995 C 1014.325,39.000029999999995 1015.0,39.67502999999999 1015.0,40.500029999999995 C 1015.0,41.32503 1014.325,42.000029999999995 1013.5,42.000029999999995 C 1012.3205,42.000029999999995 1012.0,43.38892 1012.0,48.500029999999995 C 1012.0,53.61113999999999 1011.6795,55.000029999999995 1010.5,55.000029999999995 C 1009.3205,55.000029999999995 1009.0,53.61113999999999 1009.0,48.500029999999995" fill="none" stroke="#000000" stroke-width="1.0979254379902206"/>
  <path d="M 1018.0,44.500029999999995 C 1018.0,35.83336 1018.2619,34.000029999999995 1019.5,34.000029999999995 C 1020.5013,34.000029999999995 1021.0,35.00133999999999 1021.0,37.011849999999995 C 1021.0,39.9565 1021.088,40.00964999999999 1024.929,39.39538999999999 C 1028.2803000000001,38.85949999999999 1029.2361,39.14517999999999 1031.429,41.33811999999999 C 1033.5722,43.48128999999999 1034.0,44.83191999999999 1034.0,49.45456999999999 C 1034.0,53.71719999999999 1033.653,55.00002999999999 1032.5,55.00002999999999 C 1031.3553,55.00002999999999 1031.0,53.744469999999986 1031.0,49.70002999999999 C 1031.0,43.726989999999994 1029.8416,42.00002999999999 1025.8352,42.00002999999999 C 1022.3768,42.00002999999999 1021.0,44.401679999999985 1021.0,50.43428999999999 C 1021.0,53.82605999999999 1020.6143,55.00002999999999 1019.5,55.00002999999999 C 1018.2619,55.00002999999999 1018.0,53.16669999999999 1018.0,44.50002999999999 L 1018.0,44.500029999999995" fill="none" stroke="#000000" stroke-width="1.0979254379902206"/>
  <path d="M 573.0,29.83862 C 574.925,26.42206 578.91097,21.0107 581.85771,17.81336 C 586.40582,12.87849 586.89231,12.000029999999999 585.07716,12.000029999999999 C 583.88845,12.000029999999999 581.58424,13.542889999999998 579.8883900000001,15.474359999999999 C 578.2106200000001,17.38524 574.6243700000001,20.57357 571.9189500000001,22.55953 L 567.0,26.17037 L 567.0318,32.8352 C 567.0677,40.36418 567.0703,40.3629 573.0,29.83862" fill="none" stroke="#000000" stroke-width="1.0979254379902206"/>
  <path d="M 639.0,32.548069999999996 L 639.0,26.096109999999996 L 634.75,23.140329999999995 C 632.4125,21.514659999999996 628.72117,18.343039999999995 626.54705,16.092289999999995 C 624.37293,13.841549999999994 621.68985,12.000029999999995 620.58464,12.000029999999995 C 618.94154,12.000029999999995 619.42152,12.866019999999995 623.2173700000001,16.750029999999995 C 627.94646,21.58895 637.0,35.35323 637.0,37.70404 C 637.0,38.41684 637.45,39.00003 638.0,39.00003 C 638.56334,39.00003 639.0,36.18271 639.0,32.54807 L 639.0,32.548069999999996" fill="none" stroke="#000000" stroke-width="1.0979254379902206"/>
  <path d="M 655.0,29.838619999999995 C 656.925,26.422059999999995 660.91097,21.010699999999993 663.85771,17.813359999999996 C 668.02511,13.291569999999997 668.79074,12.000029999999995 667.30388,12.000029999999995 C 666.2525300000001,12.000029999999995 663.8415600000001,13.611059999999995 661.94617,15.580099999999995 C 660.05078,17.549129999999995 656.3625000000001,20.737459999999995 653.75,22.665269999999992 L 649.0,26.17036999999999 L 649.0318,32.83519999999999 C 649.0677,40.36417999999999 649.0703,40.362899999999996 655.0,29.83861999999999 L 655.0,29.838619999999995" fill="none" stroke="#000000" stroke-width="1.0979254379902206"/>
  <path d="M 718.34421,24.500029999999995 C 716.80904,23.400029999999994 713.0253799999999,20.137529999999995 709.93608,17.250029999999995 C 702.56549,10.360899999999996 698.5988299999999,9.946749999999994 705.14722,16.750029999999995 C 710.07085,21.865299999999994 714.3146899999999,27.838669999999993 718.1131499999999,35.000029999999995 L 720.4999999999999,39.500029999999995 L 720.8177199999999,33.000029999999995 C 721.1175699999999,26.865619999999996 720.9784499999998,26.387539999999994 718.3442099999999,24.500029999999995 L 718.34421,24.500029999999995" fill="none" stroke="#000000" stroke-width="1.0979254379902206"/>
  <path d="M 737.0,29.85173 C 738.925,26.44239 742.6375,21.305439999999997 745.25,18.43627 C 747.8625,15.56711 750.0,12.94521 750.0,12.60982 C 750.0,10.824019999999999 746.55285,12.43972 743.88839,15.474359999999999 C 742.21062,17.38524 738.62437,20.57357 735.91895,22.55953 L 731.0,26.17037 L 731.0318,32.8352 C 731.0677,40.36171 731.0651,40.36305 737.0,29.85173" fill="none" stroke="#000000" stroke-width="1.0979254379902206"/>
  <path d="M 799.81225,24.00003 C 797.99051,22.62503 794.20652,19.36253 791.40338,16.75003 C 784.1106199999999,9.953259999999998 781.1933799999999,10.396549999999998 787.7301299999999,17.3082 C 790.4912699999999,20.2277 794.94405,26.3981 797.62519,31.02021 L 802.5,39.42404 L 802.81225,32.96203 C 803.1163399999999,26.66894 803.03793,26.43468 799.81225,24.00003" fill="none" stroke="#000000" stroke-width="1.0979254379902206"/>
  <path d="M 245.0,28.83862 C 246.925,25.42206 250.91097,20.0107 253.85771,16.81336 C 258.40582,11.87849 258.89231,11.000029999999999 257.07716,11.000029999999999 C 255.88845,11.000029999999999 253.58424,12.542889999999998 251.88839,14.474359999999999 C 250.21061999999998,16.38524 246.62437,19.57357 243.91895,21.55953 L 239.0,25.17037 L 239.0318,31.8352 C 239.0677,39.36418 239.0703,39.3629 245.0,28.83862" fill="none" stroke="#000000" stroke-width="1.0979254379902206"/>
  <path d="M 311.0,31.54807 L 311.0,25.09611 L 306.75,22.14033 C 304.4125,20.51466 300.72117,17.34304 298.54705,15.092289999999998 C 296.37293,12.841549999999998 293.68985000000004,11.000029999999999 292.58464000000004,11.000029999999999 C 290.94154000000003,11.000029999999999 291.42152000000004,11.866019999999999 295.21737,15.750029999999999 C 299.94646,20.58895 309.0,34.35323 309.0,36.70404 C 309.0,37.41684 309.45,38.00003 310.0,38.00003 C 310.56334,38.00003 311.0,35.18271 311.0,31.548070000000003 L 311.0,31.54807" fill="none" stroke="#000000" stroke-width="1.0979254379902206"/>
  <path d="M 327.0,28.83862 C 328.925,25.42206 332.91097,20.0107 335.85771,16.81336 C 340.40582,11.87849 340.89231,11.000029999999999 339.07716,11.000029999999999 C 337.88845,11.000029999999999 335.58423999999997,12.542889999999998 333.88839,14.474359999999999 C 332.21062,16.38524 328.62437,19.57357 325.91895,21.55953 L 321.0,25.17037 L 321.0318,31.8352 C 321.0677,39.36418 321.0703,39.3629 327.0,28.83862" fill="none" stroke="#000000" stroke-width="1.0979254379902206"/>
  <path d="M 393.0,31.54807 L 393.0,25.09611 L 388.75,22.14033 C 386.4125,20.51466 382.72117,17.34304 380.54705,15.092289999999998 C 378.37293,12.841549999999998 375.68985000000004,11.000029999999999 374.58464000000004,11.000029999999999 C 372.94154000000003,11.000029999999999 373.42152000000004,11.866019999999999 377.21737,15.750029999999999 C 381.94646,20.58895 391.0,34.35323 391.0,36.70404 C 391.0,37.41684 391.45,38.00003 392.0,38.00003 C 392.56334,38.00003 393.0,35.18271 393.0,31.548070000000003 L 393.0,31.54807" fill="none" stroke="#000000" stroke-width="1.0979254379902206"/>
  <path d="M 407.89628,30.57144 C 410.13865,26.485709999999997 414.5028,20.41071 417.59438,17.07144 C 422.33127,11.955029999999999 422.87909,11.000029999999999 421.07716,11.000029999999999 C 419.88845,11.000029999999999 417.58423999999997,12.542889999999998 415.88839,14.474359999999999 C 414.21062,16.38524 410.62437,19.57357 407.91895,21.55953 L 403.0,25.17037 L 403.0,31.5852 C 403.0,35.11336 403.18433,38.00003 403.40961,38.00003 C 403.63489999999996,38.00003 405.65389999999996,34.657160000000005 407.89628,30.571440000000003 L 407.89628,30.57144" fill="none" stroke="#000000" stroke-width="1.0979254379902206"/>
  <path d="M 471.81225,23.00003 C 469.99051000000003,21.62503 466.20652,18.36253 463.40338,15.750029999999999 C 456.40793,9.230339999999998 452.8718,9.230339999999998 459.14722,15.750029999999999 C 464.07085,20.865299999999998 468.31469,26.83867 472.11315,34.000029999999995 L 474.5,38.500029999999995 L 474.81225,32.000029999999995 C 475.11662,25.664129999999997 475.04088,25.436909999999997 471.81225,23.000029999999995 L 471.81225,23.00003" fill="none" stroke="#000000" stroke-width="1.0979254379902206"/>
  <path d="M 491.0,28.83862 C 492.925,25.42206 496.91097,20.0107 499.85771,16.81336 C 504.40582,11.87849 504.89231,11.000029999999999 503.07716,11.000029999999999 C 501.88845,11.000029999999999 499.58423999999997,12.542889999999998 497.88839,14.474359999999999 C 496.21062,16.38524 492.62437,19.57357 489.91895,21.55953 L 485.0,25.17037 L 485.0318,31.8352 C 485.0677,39.36418 485.0703,39.3629 491.0,28.83862" fill="none" stroke="#000000" stroke-width="1.0979254379902206"/>
  <path d="M 557.0,31.54807 L 557.0,25.09611 L 552.6928,22.13268 C 550.32385,20.5028 546.7250200000001,17.33118 544.69541,15.08464 C 542.49152,12.6452 540.11306,11.00003 538.79019,11.00003 C 536.8441700000001,11.00003 537.1389200000001,11.57686 541.2173700000001,15.75003 C 545.94646,20.58895 555.0,34.35323 555.0,36.70404 C 555.0,37.41684 555.45,38.00003 556.0,38.00003 C 556.56334,38.00003 557.0,35.18271 557.0,31.548070000000003 L 557.0,31.54807" fill="none" stroke="#000000" stroke-width="1.0979254379902206"/>
  <path d="M 816.8962799999999,30.57144 C 819.13865,26.485709999999997 823.5028,20.41071 826.5943799999999,17.07144 C 831.3312699999999,11.955029999999999 831.8790899999999,11.000029999999999 830.0771599999999,11.000029999999999 C 828.8884499999999,11.000029999999999 826.5842399999999,12.542889999999998 824.88839,14.474359999999999 C 823.21062,16.38524 819.62437,19.57357 816.91895,21.55953 L 812.0,25.17037 L 812.0,31.5852 C 812.0,35.11336 812.18433,38.00003 812.40961,38.00003 C 812.6349,38.00003 814.6539,34.657160000000005 816.89628,30.571440000000003 L 816.8962799999999,30.57144" fill="none" stroke="#000000" stroke-width="1.0979254379902206"/>
  <path d="M 884.0,31.54807 L 884.0,25.09611 L 879.75,22.14033 C 877.4125,20.51466 873.72117,17.34304 871.54705,15.092289999999998 C 869.37293,12.841549999999998 866.68985,11.000029999999999 865.58464,11.000029999999999 C 863.94154,11.000029999999999 864.42152,11.866019999999999 868.2173700000001,15.750029999999999 C 872.94646,20.58895 882.0,34.35323 882.0,36.70404 C 882.0,37.41684 882.45,38.00003 883.0,38.00003 C 883.56334,38.00003 884.0,35.18271 884.0,31.548070000000003 L 884.0,31.54807" fill="none" stroke="#000000" stroke-width="1.0979254379902206"/>
  <path d="M 900.0,28.83862 C 901.925,25.42206 905.91097,20.0107 908.85771,16.81336 C 913.40582,11.87849 913.89231,11.000029999999999 912.07716,11.000029999999999 C 910.88845,11.000029999999999 908.58424,12.542889999999998 906.8883900000001,14.474359999999999 C 905.2106200000001,16.38524 901.6243700000001,19.57357 898.9189500000001,21.55953 L 894.0,25.17037 L 894.0318,31.8352 C 894.0677,39.36418 894.0703,39.3629 900.0,28.83862" fill="none" stroke="#000000" stroke-width="1.0979254379902206"/>
  <path d="M 962.81225,23.00003 C 960.99051,21.62503 957.20652,18.36253 954.40338,15.750029999999999 C 947.40793,9.230339999999998 943.8718,9.230339999999998 950.14722,15.750029999999999 C 955.07085,20.865299999999998 959.3146899999999,26.83867 963.1131499999999,34.000029999999995 L 965.4999999999999,38.500029999999995 L 965.8122499999998,32.000029999999995 C 966.1166199999998,25.664129999999997 966.0408799999998,25.436909999999997 962.8122499999998,23.000029999999995 L 962.81225,23.00003" fill="none" stroke="#000000" stroke-width="1.0979254379902206"/>
  <path d="M 982.0,28.83862 C 983.925,25.42206 987.91097,20.0107 990.85771,16.81336 C 995.02511,12.29157 995.79074,11.000029999999999 994.30388,11.000029999999999 C 993.2525300000001,11.000029999999999 990.8415600000001,12.611059999999998 988.94617,14.580099999999998 C 987.05078,16.549129999999998 983.3625000000001,19.73746 980.75,21.66527 L 976.0,25.17037 L 976.0318,31.8352 C 976.0677,39.36418 976.0703,39.3629 982.0,28.83862" fill="none" stroke="#000000" stroke-width="1.0979254379902206"/>
  <path d="M 1048.0,31.5852 L 1048.0,25.17037 L 1043.0811,21.55953 C 1040.3756,19.57357 1036.7894000000001,16.38524 1035.1116000000002,14.474359999999999 C 1033.3324000000002,12.44794 1031.1264,11.000029999999999 1029.8181000000002,11.000029999999999 C 1027.8274000000001,11.000029999999999 1028.0943000000002,11.534139999999999 1032.1922000000002,15.750029999999999 C 1037.2286000000001,20.931649999999998 1044.7244000000003,32.05394 1045.6409,35.705299999999994 C 1046.7501000000002,40.124849999999995 1048.0,37.941979999999994 1048.0,31.585199999999993 L 1048.0,31.5852" fill="none" stroke="#000000" stroke-width="1.0979254379902206"/>
  <path d="M 185.12184,184.52505 C 181.20483,179.31381 178.0,174.81381 178.0,174.52505 C 178.0,174.23629 184.98262,174.00002999999998 193.51694,174.00002999999998 L 209.03388,174.00002999999998 L 201.35266000000001,184.00002999999998 C 197.12798,189.50002999999998 193.35019000000003,194.00002999999998 192.95756,194.00002999999998 C 192.56493,194.00002999999998 189.03886,189.73628999999997 185.12184,184.52505" fill="none" stroke="#000000" stroke-width="1.0979254379902206"/>
  <path d="M 177.63332,185.61714 L 166.76664,179.25916 L 170.80467,176.98966000000001 C 173.02559,175.74143 175.13609,174.75824 175.49466999999999,174.80479000000003 C 176.11489999999998,174.88529000000003 189.35457,192.01362000000003 188.77644999999998,191.98758000000004 C 188.62439999999998,191.98058000000003 183.60998999999998,189.11403000000004 177.63331999999997,185.61714000000003 L 177.63332,185.61714" fill="none" stroke="#000000" stroke-width="1.0979254379902206"/>
  <path d="M 198.0,191.27714 C 198.0,190.93271000000001 200.80497,186.94887 204.23326,182.42415 L 210.46652,174.19738999999998 L 214.16541,176.08442 C 216.1998,177.12229 218.07273,178.31538 218.32748,178.73574 C 218.58223,179.15609999999998 214.11276,182.29077999999998 208.39533,185.7017 C 202.6779,189.11261 198.0,191.62156 198.0,191.27714" fill="none" stroke="#000000" stroke-width="1.0979254379902206"/>
  <path d="M 166.0,165.36855 C 166.0,158.38253 166.2246,152.8913 166.49912,153.16581 C 166.77363,153.44033 168.7581,157.99013 170.90904,163.27649 L 174.81986,172.88805 L 172.65993,174.28843 C 171.47197,175.05864 169.4875,176.22467 168.25,176.8796 L 166.0,178.0704 L 166.0,165.36855" fill="none" stroke="#000000" stroke-width="1.0979254379902206"/>
  <path d="M 215.3332,175.36056 L 211.1664,172.89522 L 215.3332,162.75772 L 219.5,152.62022000000002 L 219.79664,158.76853000000003 C 219.95979,162.15011000000004 219.95979,167.82139000000004 219.79664,171.37138000000002 L 219.5,177.82591 L 215.3332,175.36056" fill="none" stroke="#000000" stroke-width="1.0979254379902206"/>
  <path d="M 178.0,171.57494 C 178.0,171.09691 189.37983,150.79085 191.69093,147.14496 C 193.1552,144.835 193.31762,145.02405 200.16858000000002,157.01299 C 204.01021000000003,163.7357 207.39200000000002,169.85798 207.68367,170.61806 C 208.1205,171.75644000000003 205.55112,172.00003 193.10699,172.00003 C 184.79814,172.00003 178.0,171.80874 178.0,171.57494" fill="none" stroke="#000000" stroke-width="1.0979254379902206"/>
  <path d="M 192.0,169.00003 C 192.0,168.45003 191.325,168.00003 190.5,168.00003 C 188.63363,168.00003 188.64235,167.05699 190.5318,164.55890000000002 C 191.33931,163.49128000000002 192.0,161.56466000000003 192.0,160.27752 C 192.0,157.20468 189.12364,156.11045000000001 187.36572,158.51455 C 185.70691000000002,160.78312000000003 186.40905,161.73536000000001 188.47583,160.02009 C 189.75764,158.95628000000002 190.0,159.08325000000002 190.0,160.81857000000002 C 190.0,161.95345000000003 189.51847,163.17960000000002 188.92992,163.54334000000003 C 187.60602,164.36156000000003 186.07739,168.23264000000003 186.67643,169.25003000000004 C 187.33780000000002,170.37328000000005 192.0,170.15434000000005 192.0,169.00003000000004 L 192.0,169.00003" fill="none" stroke="#000000" stroke-width="1.0979254379902206"/>
  <path d="M 198.8,168.80003000000002 C 200.51599000000002,167.08404000000002 200.31422,159.50570000000002 198.51273,158.0106 C 195.64828,155.63331 194.0,157.56599 194.0,163.30198 C 194.0,166.25257 194.3,168.96669999999997 194.66667,169.33336 C 195.69091,170.35761 197.47227,170.12776 198.8,168.80003 L 198.8,168.80003000000002" fill="none" stroke="#000000" stroke-width="1.0979254379902206"/>
  <path d="M 196.0,163.50003 C 196.0,160.67598 196.38847,159.12209000000001 197.0,159.50003 C 197.55,159.83995000000002 198.0,161.63995 198.0,163.50003 C 198.0,165.36011000000002 197.55,167.16011 197.0,167.50003 C 196.38847,167.87797 196.0,166.32408 196.0,163.50003" fill="none" stroke="#000000" stroke-width="1.0979254379902206"/>
  <path d="M 170.88342,159.46004000000002 C 168.30428,153.03152000000003 166.68374,147.69549 167.21148,147.36933000000002 C 168.54608,146.54450000000003 190.13402,143.80072 190.71534,144.38204000000002 C 191.2369,144.9036 176.81911,170.94151000000002 176.0,170.95730000000003 C 175.725,170.96230000000003 173.42254,165.78884000000002 170.88342,159.46004000000002" fill="none" stroke="#000000" stroke-width="1.0979254379902206"/>
  <path d="M 208.76327,168.96551000000002 C 204.72467,162.60399 194.97991000000002,144.68678000000003 195.35476,144.31194000000002 C 195.98459,143.68211000000002 218.34386,146.93872000000002 219.14437,147.77687000000003 C 219.71711000000002,148.37655000000004 217.47074,154.47585000000004 211.15643,169.46551000000002 C 210.36454,171.34539 210.26031,171.32361000000003 208.76327,168.96551000000002" fill="none" stroke="#000000" stroke-width="1.0979254379902206"/>
  <path d="M 171.19358,144.47311000000002 C 171.55510999999998,144.11159 176.40706,141.18351 181.97569,137.96627 L 192.10046999999997,132.11674000000002 L 191.80023999999997,137.30838000000003 L 191.49999999999997,142.50003000000004 L 185.99999999999997,143.16282000000004 C 182.97499999999997,143.52735000000004 178.25815999999998,144.11919000000003 175.51812999999999,144.47802000000004 C 172.7781,144.83685000000006 170.83205999999998,144.83464000000004 171.19358,144.47302000000005 L 171.19358,144.47311000000002" fill="none" stroke="#000000" stroke-width="1.0979254379902206"/>
  <path d="M 203.0,143.61476 L 194.5,142.50002999999998 L 194.19244,137.09731 L 193.88489,131.69459 L 196.19244,133.19086000000001 C 197.4616,134.01382 202.2125,136.82193 206.75,139.43111000000002 C 211.2875,142.04029000000003 215.0,144.36069 215.0,144.58755000000002 C 215.0,145.11094000000003 213.45122,144.98539000000002 203.0,143.61476000000002 L 203.0,143.61476" fill="none" stroke="#000000" stroke-width="1.0979254379902206"/>
  <path d="M 156.20188000000002,126.39629 C 155.61924000000002,125.35516 156.25198,120.18064 158.00543000000002,111.64629 C 161.17774000000003,96.20636999999999 161.81303000000003,94.00003 163.08644,94.00003 C 163.60986,94.00003 163.79957000000002,95.01253 163.50803000000002,96.25003 C 162.83808,99.09373 158.0,123.15007 158.0,123.63755 C 158.0,123.83691 173.77039,124.00003000000001 193.04531,124.00003000000001 L 228.09063,124.00003000000001 L 227.42574,120.25003000000001 C 227.06006,118.18753000000001 225.74600999999998,111.41881000000001 224.50563,105.20843 C 223.02615,97.80091 222.6373,94.04513 223.3752,94.28982 C 223.99384,94.49496 225.97119,101.5446 227.76931000000002,109.95569 C 230.26274,121.61919 230.76766,125.57505 229.89687,126.62429 C 228.96669,127.74510000000001 222.11599,128.00003 192.92725000000002,128.00003 C 161.08993,128.00003 156.99942000000001,127.82140000000001 156.20188000000002,126.39629000000001 L 156.20188000000002,126.39629" fill="none" stroke="#000000" stroke-width="1.0979254379902206"/>
  <path d="M 186.5,118.91516 C 180.38549,116.7627 171.85954,116.59802 166.5,118.52887 C 164.3,119.32144 162.22390000000001,119.97668999999999 161.88643,119.98497 C 161.54897,119.99297 162.55875999999998,113.63912 164.13039999999998,105.86468 C 167.31324999999998,90.12012000000001 167.54497999999998,89.76049 175.71157999999997,87.89161000000001 C 180.16823999999997,86.87173000000001 181.56915999999998,86.94568000000001 185.38280999999998,88.40212000000001 C 187.83561999999998,89.33886000000001 190.34056999999999,90.70547 190.94938,91.43904 C 191.67333,92.31135 191.96007,97.59958 191.77814999999998,106.72404 L 191.5,120.67529 L 186.5,118.91516" fill="none" stroke="#000000" stroke-width="1.0979254379902206"/>
  <path d="M 194.22259,106.42211 L 194.5,91.60917 L 197.95929,89.59032 C 202.47660000000002,86.95400000000001 210.18152,86.93246 215.47177000000002,89.54132 L 219.44353,91.5 L 222.1078,105.5 C 223.57314,113.2 224.64102,119.64483 224.48085,119.82185 C 224.32069,119.99886 222.10624,119.43636 219.55987,118.57185 C 212.29936999999998,116.10683999999999 204.85128,116.70846 195.72259,120.4973 C 194.05918,121.18769999999999 193.96298,120.28496 194.22259,106.42208 L 194.22259,106.42211" fill="none" stroke="#000000" stroke-width="1.0979254379902206"/>
  <path d="M 207.98355,96.63595000000001 C 206.98808,96.1607 205.88656,94.81070000000001 205.53574,93.63595000000001 L 204.89788000000001,91.50003000000001 L 203.97246,93.77355000000001 C 203.46348,95.02399000000001 202.09971000000002,96.39752000000001 200.94187000000002,96.82583000000001 C 198.89553000000004,97.58282000000001 198.90885000000003,97.63747000000001 201.41834000000003,98.78087000000001 C 202.83825000000002,99.42783 204.00000000000003,100.67008000000001 204.00000000000003,101.54144000000001 C 204.00000000000003,102.70442000000001 204.77034000000003,102.37771000000001 206.89675000000003,100.31288 C 209.54770000000002,97.73872 209.63992000000002,97.42670000000001 207.98355000000004,96.63595000000001 L 207.98355,96.63595000000001" fill="none" stroke="#000000" stroke-width="1.0979254379902206"/>
  <path d="M 173.60851,82.57635 C 173.20882,80.98386 172.03904,79.79695000000001 170.48477,79.40685 C 167.48633999999998,78.65429 167.18633,77.00003000000001 170.04827,77.00003000000001 C 171.41062,77.00003000000001 172.5567,75.91166000000001 173.47063,73.75003000000001 L 174.8447,70.50003000000001 L 175.93438999999998,73.34680000000002 C 176.53372,74.91252000000001 177.91866,76.42751000000001 179.01203999999998,76.71343000000002 C 181.34135999999998,77.32256000000001 181.68855,79.00003000000001 179.4853,79.00003000000001 C 178.65222,79.00003000000001 177.1329,80.37752 176.10904,82.06112000000002 L 174.24748,85.12221000000002 L 173.60851,82.57635" fill="none" stroke="#000000" stroke-width="1.0979254379902206"/>
  <path d="M 212.06768,77.872 C 212.03047999999998,76.97659 210.98749999999998,75.53769 209.75,74.67445 C 207.88291,73.37204 207.79457,73.09600999999999 209.23095,73.05247999999999 C 210.25354000000002,73.02147999999998 211.23844,71.89817999999998 211.63767,70.30753999999999 C 212.29889,67.67302 212.33109000000002,67.66275999999999 213.13320000000002,69.83106 C 213.58406000000002,71.04987 214.96865000000003,72.4228 216.21005000000002,72.88203 C 218.44701000000003,73.70954 218.44850000000002,73.72291 216.37657000000002,74.38051 C 215.22675,74.74545 213.80210000000002,76.04663000000001 213.21068000000002,77.27203 C 212.43405,78.88115 212.11656000000002,79.04781 212.06768000000002,77.872 L 212.06768,77.872" fill="none" stroke="#000000" stroke-width="1.0979254379902206"/>
  <path d="M 195.0521,72.50003 C 194.44081,70.85002999999999 193.76171,68.98593 193.54299,68.35758 C 193.32427,67.72924 191.20012,66.56475999999999 188.82266,65.76986 L 184.5,64.32459 L 188.22126,63.62239 C 192.06329,62.8974 195.0,59.93204 195.0,56.77752 C 195.0,55.7999 195.45,55.00003 196.0,55.00003 C 196.55,55.00003 197.0,55.7999 197.0,56.77752 C 197.0,59.92851 199.93615,62.89743 203.76222,63.6152 L 207.46695000000003,64.31021 L 203.55862000000002,65.66331 C 198.80139000000003,67.3103 199.10851000000002,67.00605999999999 197.48951000000002,71.67562 L 196.16354,75.50003 L 195.0521,72.50003" fill="none" stroke="#000000" stroke-width="1.0979254379902206"/>
</svg>
