<?xml version="1.0" encoding="utf-8" ?>
<svg baseProfile="full" height="55px" version="1.1" viewBox="0.0,0.0,413.0000000000005,112.98513999999999" width="200px" xmlns="http://www.w3.org/2000/svg" xmlns:ev="http://www.w3.org/2001/xml-events" xmlns:xlink="http://www.w3.org/1999/xlink">
  <defs/>
  <path d="M 307.97251,111.30846 C 306.61263,110.38629 303.8112,108.13629 301.74712,106.30846 L 297.99424,102.98514 L 158.16334,102.98514 L 18.332435,102.98514 L 14.524078,97.455571 C 12.429481,94.41431 8.3046832,89.722453 5.3578601,87.029223 L 0.0,82.132441 L 0.0,56.485136 L 0.0,30.837831 L 5.3578601,25.941049 C 8.3046832,23.247819 12.429481,18.555962 14.524078,15.514701 L 18.332435,9.9851361 L 157.93427,9.9851361 L 297.5361,9.9851361 L 303.51805,5.0105295 L 309.5,0.03592294 L 346.0,0.01796147 L 382.5,0.0 L 388.19089,4.5266904 C 402.78466,16.13499 413.0,37.529263 413.0,56.485136 C 413.0,75.588629 402.85671,96.73187899999999 388.14827,108.28748999999999 L 382.16891000000004,112.98513999999999 L 346.30696000000006,112.98513999999999 C 314.3999400000001,112.98513999999999 310.1723400000001,112.80022999999998 307.97251000000006,111.30845999999998 L 307.97251,111.30846" fill="none" stroke="#000000" stroke-width="0.41300000000000053"/>
  <path d="M 327.45,104.14051 C 325.34448,102.26851 304.0113,95.585069 303.98452,96.78903600000001 C 303.97551999999996,97.17189100000002 305.88849999999996,99.15920700000001 308.23452,101.20530000000001 C 312.38011,104.82090000000001 312.72344,104.92630000000001 320.45,104.95530000000001 C 324.85564999999997,104.9718 327.97646,104.60858 327.45,104.14051" fill="none" stroke="#000000" stroke-width="0.41300000000000053"/>
  <path d="M 386.81842,98.23513600000001 C 394.29853,90.754416 398.69793,83.76539400000001 402.08311,73.98513600000001 C 403.88588999999996,68.77664600000001 404.33290999999997,65.29950400000001 404.33290999999997,56.48513600000001 C 404.33290999999997,47.67076800000001 403.88588999999996,44.19362600000001 402.08311,38.98513600000001 C 398.63849999999996,29.033190000000012 394.30053999999996,22.13768400000001 386.82743,14.735136000000011 L 380.01309,7.985136100000012 L 364.10931,7.985136100000012 C 348.27254999999997,7.985136100000012 348.15558,8.001723100000012 336.35276,11.920879000000012 C 329.83374,14.085538 318.875,17.024641 312.0,18.45222 C 298.37359,21.281715000000002 298.52191,21.186224 294.00454,30.037416 C 284.89936,47.877793 285.37144,67.671762 295.32695,85.485136 C 298.2575,90.728759 299.17311,91.595657 302.59011000000004,92.361846 C 320.47141000000005,96.371347 335.47562000000005,100.33364 340.50000000000006,102.37303 C 345.9909200000001,104.60178 347.92411000000004,104.81591 363.28448000000003,104.89678 L 380.06897000000004,104.98518 L 386.81842,98.23513600000001" fill="none" stroke="#000000" stroke-width="0.41300000000000053"/>
  <path d="M 37.916667,97.571659 C 37.6875,97.344247 34.35,95.4951 30.5,93.462443 C 21.661859,88.796233 11.989038,81.949253 8.6806357,78.01744 C 5.7416296,74.52463 5.0,74.274673 5.0,76.776928 C 5.0,77.76241399999999 7.0724561999999995,80.57491399999999 9.605458200000001,83.026928 C 12.138460000000002,85.478942 15.977655000000002,89.847636 18.137002000000003,92.735136 L 22.063088000000004,97.985136 L 30.198211000000004,97.985136 C 34.67252800000001,97.985136 38.145833,97.799071 37.916667000000004,97.571659 L 37.916667,97.571659" fill="none" stroke="#000000" stroke-width="0.41300000000000053"/>
  <path d="M 263.67158,94.91519 C 266.94545,93.22672 271.50866,91.592469 273.81204,91.283521 C 276.11542,90.974573 278.0,90.541089 278.0,90.320223 C 278.0,90.099357 276.88095,87.710301 275.51321,85.011209 C 267.94726,70.08051599999999 266.89234,50.073752999999996 272.82992,34.122029999999995 C 274.54203,29.522321999999996 276.46983,25.123946999999994 277.11393000000004,24.347863999999994 C 278.59831,22.559284999999996 278.60423000000003,22.562904999999994 271.80053000000004,21.094448999999994 C 268.66582000000005,20.417877999999995 264.47448,18.760489999999994 262.48643000000004,17.411364999999993 L 258.8718,14.958409 L 152.6859,15.221773 L 46.5,15.485136 L 35.0,21.15626 C 21.886746,27.622947 12.958144,34.371943 8.25,41.376184 C 5.1122195,46.044218 5.0,46.563058 5.0,56.40237 C 5.0,65.88358699999999 5.1981131,66.905967 7.843729,71.07767 C 12.995064,79.200482 24.717102,87.577683 40.688821000000004,94.550547 L 48.50000000000001,97.96071699999999 L 153.10954,97.97292699999998 L 257.71907,97.98513699999998 L 263.67158,94.91519" fill="none" stroke="#000000" stroke-width="0.41300000000000053"/>
  <path d="M 292.0,97.566923 C 292.0,94.68149700000001 290.41275,93.985136 283.83583,93.985136 C 276.67233999999996,93.985136 268.37872999999996,95.563318 267.42398,97.108131 C 267.12431,97.593022 272.49717,97.985136 279.44097999999997,97.985136 C 286.34844,97.985136 291.99999999999994,97.79693999999999 291.99999999999994,97.566923 L 292.0,97.566923" fill="none" stroke="#000000" stroke-width="0.41300000000000053"/>
  <path d="M 286.58763,87.735136 C 285.78546,86.497636 283.88084,81.885136 282.35514,77.485136 C 279.87565,70.33448299999999 279.58114,68.104947 279.58114,56.485136 C 279.58114,44.865325 279.87565,42.635788999999995 282.35514,35.485136 C 283.88084,31.085136 285.81104,26.433591999999997 286.64448,25.148371999999995 C 288.49989999999997,22.287148999999996 288.32061999999996,22.097077999999996 284.33898,22.704101999999995 C 281.53342,23.131822999999997 280.82737,23.970072999999996 278.06041,30.158255999999994 C 269.99167,48.203641999999995 270.00579999999997,64.798225 278.10531,82.91245599999999 C 281.12359999999995,89.66272599999999 281.42226,89.985136 284.65693,89.985136 C 287.9371,89.985136 287.99919,89.912776 286.58762,87.735136 L 286.58763,87.735136" fill="none" stroke="#000000" stroke-width="0.41300000000000053"/>
  <path d="M 9.1456145,34.472071 C 12.688508,30.436938 26.35967,21.084326 33.588682,17.750264 L 38.5,15.485136 L 30.5,15.169508 L 22.5,14.853879000000001 L 19.5,18.651548000000002 C 17.85,20.740266000000002 13.9125,25.195518 10.75,28.552108000000004 C 7.5875,31.908697 5.0,35.404279 5.0,36.320067 C 5.0,38.720278 5.6829348,38.415846 9.1456145,34.472071" fill="none" stroke="#000000" stroke-width="0.41300000000000053"/>
  <path d="M 291.0,18.566923 C 291.0,18.336907 291.27314,17.436906999999998 291.60699,16.566923 C 292.14101,15.175282999999999 290.67444,14.985135999999999 279.40699,14.985135999999999 C 266.66409,14.985135999999999 264.67018,15.747364 272.0,17.816665 C 275.41781,18.781556000000002 291.0,19.396854 291.0,18.566923" fill="none" stroke="#000000" stroke-width="0.41300000000000053"/>
  <path d="M 316.5,12.939488999999998 C 322.0,11.177738999999999 326.9275,9.342293599999998 327.45,8.860721599999998 C 328.0002,8.353618799999998 325.09765,7.985136099999998 320.55298999999997,7.985136099999998 C 313.03716999999995,7.985136099999998 312.52225999999996,8.135682499999998 308.35299,11.552086 C 304.13669,15.007024999999999 302.68852999999996,17.331384 305.25,16.532519 C 305.9375,16.318103 311.0,14.70124 316.5,12.939489 L 316.5,12.939488999999998" fill="none" stroke="#000000" stroke-width="0.41300000000000053"/>
</svg>
