<?xml version="1.0" encoding="UTF-8" standalone="no"?>
<svg
     xmlns:dc="http://purl.org/dc/elements/1.1/"
     xmlns:cc="http://creativecommons.org/ns#"
     xmlns:rdf="http://www.w3.org/1999/02/22-rdf-syntax-ns#"
     xmlns:svg="http://www.w3.org/2000/svg"
     xmlns="http://www.w3.org/2000/svg"
     xmlns:sodipodi="http://sodipodi.sourceforge.net/DTD/sodipodi-0.dtd"
     xmlns:inkscape="http://www.inkscape.org/namespaces/inkscape"
     width="8.1in"
     height="10.6in"
     viewBox="0 0 205.7 269.2"
     version="1.1"
     id="svg35"
     inkscape:version="1.1-dev (1:0.92.0+devel+202003201342+8e19d19)"
     sodipodi:docname="background_sheet.svg">
    <defs
         id="defs29">
        <path
             inkscape:connector-curvature="0"
             id="path402-5-3-8"
             style="fill:#ebf6f7;fill-opacity:1;stroke:#000000;stroke-width:0.5332;stroke-linecap:butt;stroke-linejoin:miter;stroke-miterlimit:10;stroke-dasharray:none;stroke-opacity:1"
             d="m -25.14,50.53 c -27.37,3.82 -69.72,-3.82 -97.06,0 V 37.81 c 27.34,-3.82 69.69,3.81 97.06,0 z" />
        <linearGradient
             id="gradient-4"
             gradientTransform="matrix(0.0364,0,0,0.0194,75.7,7.903)"
             x1="58.59"
             y1="92.73"
             x2="315.3"
             y2="92.73"
             gradientUnits="userSpaceOnUse">
            <stop
                 offset="0%"
                 stop-color="#ffffff"
                 stop-opacity="1"
                 id="stop2252" />
            <stop
                 offset="100%"
                 stop-color="#c9c9c9"
                 stop-opacity="1"
                 id="stop2254" />
        </linearGradient>
        <linearGradient
             x1="967.1"
             x2="967.1"
             y1="107.1"
             y2="198"
             id="gradient-10"
             gradientTransform="matrix(0.0108,0,0,0.0652,75.7,7.903)"
             gradientUnits="userSpaceOnUse">
            <stop
                 offset="0%"
                 stop-color="#fff"
                 stop-opacity="1"
                 id="stop2257" />
            <stop
                 offset="100%"
                 stop-color="#9b9b9b"
                 stop-opacity="1"
                 id="stop2259" />
        </linearGradient>
        <linearGradient
             x1="195.3"
             x2="195.3"
             y1="109"
             y2="202.7"
             id="gradient-11"
             gradientTransform="matrix(0.011,0,0,0.0638,75.7,7.903)"
             gradientUnits="userSpaceOnUse">
            <stop
                 offset="0%"
                 stop-color="#000000"
                 stop-opacity="1"
                 id="stop2262" />
            <stop
                 offset="100%"
                 stop-color="#000000"
                 stop-opacity="1"
                 id="stop2264" />
        </linearGradient>
        <linearGradient
             id="gradient-4-6"
             gradientTransform="matrix(0.0232,0,0,0.029,89.73,-11.82)"
             x1="333.2"
             y1="18.32"
             x2="502"
             y2="18.32"
             gradientUnits="userSpaceOnUse">
            <stop
                 offset="0%"
                 stop-color="#ffffff"
                 stop-opacity="1"
                 id="stop2402" />
            <stop
                 offset="100%"
                 stop-color="#c9c9c9"
                 stop-opacity="1"
                 id="stop2404" />
        </linearGradient>
        <linearGradient
             x1="0"
             x2="0"
             y1="0"
             y2="1"
             id="gradient-10-7">
            <stop
                 offset="0%"
                 stop-color="#fff"
                 stop-opacity="1"
                 id="stop2407" />
            <stop
                 offset="100%"
                 stop-color="#9b9b9b"
                 stop-opacity="1"
                 id="stop2409" />
        </linearGradient>
        <linearGradient
             x1="0"
             x2="0"
             y1="0"
             y2="1"
             id="gradient-11-5">
            <stop
                 offset="0%"
                 stop-color="#000000"
                 stop-opacity="1"
                 id="stop2412" />
            <stop
                 offset="100%"
                 stop-color="#000000"
                 stop-opacity="1"
                 id="stop2414" />
        </linearGradient>
        <linearGradient
             id="gradient-4-3"
             gradientTransform="matrix(0.0274,0,0,0.0257,90.95,12.3)"
             x1="99.17"
             y1="221.6"
             x2="389.3"
             y2="221.6"
             gradientUnits="userSpaceOnUse">
            <stop
                 offset="0%"
                 stop-color="#ffffff"
                 stop-opacity="1"
                 id="stop2472" />
            <stop
                 offset="100%"
                 stop-color="#c9c9c9"
                 stop-opacity="1"
                 id="stop2474" />
        </linearGradient>
        <linearGradient
             x1="86.51"
             x2="86.51"
             y1="688.5"
             y2="736.3"
             id="gradient-10-5"
             gradientTransform="matrix(0.0426,0,0,0.0165,90.95,12.3)"
             gradientUnits="userSpaceOnUse">
            <stop
                 offset="0%"
                 stop-color="#fff"
                 stop-opacity="1"
                 id="stop2477" />
            <stop
                 offset="100%"
                 stop-color="#9b9b9b"
                 stop-opacity="1"
                 id="stop2479" />
        </linearGradient>
        <linearGradient
             x1="186.9"
             x2="186.9"
             y1="655.7"
             y2="706.9"
             id="gradient-11-6"
             gradientTransform="matrix(0.0408,0,0,0.0172,90.95,12.3)"
             gradientUnits="userSpaceOnUse">
            <stop
                 offset="0%"
                 stop-color="#000000"
                 stop-opacity="1"
                 id="stop2482" />
            <stop
                 offset="100%"
                 stop-color="#000000"
                 stop-opacity="1"
                 id="stop2484" />
        </linearGradient>
    </defs>
    <sodipodi:namedview
         id="base"
         pagecolor="#ffffff"
         bordercolor="#666666"
         borderopacity="1.0"
         inkscape:pageopacity="0.0"
         inkscape:pageshadow="2"
         inkscape:zoom="2"
         inkscape:cx="256.6"
         inkscape:cy="67.73"
         inkscape:document-units="px"
         inkscape:current-layer="svg35"
         showgrid="true"
         units="in"
         borderlayer="true"
         inkscape:window-width="1920"
         inkscape:window-height="983"
         inkscape:window-x="0"
         inkscape:window-y="27"
         inkscape:window-maximized="1"
         fit-margin-top="20"
         fit-margin-left="20"
         fit-margin-right="20"
         fit-margin-bottom="20"
         lock-margins="false"
         showborder="true"
         inkscape:showpageshadow="false">
        <inkscape:grid
             type="xygrid"
             id="grid310"
             originx="0"
             originy="0" />
    </sodipodi:namedview>
    <metadata
         id="metadata32">
        <rdf:RDF>
            <cc:Work
                 rdf:about="">
                <dc:format>image/svg+xml</dc:format>
                <dc:type
                     rdf:resource="http://purl.org/dc/dcmitype/StillImage" />
                <dc:title />
            </cc:Work>
        </rdf:RDF>
    </metadata>
    <text
         xml:space="preserve"
         style="font-size:2.4687px;line-height:1;font-family:'Cascadia Code';-inkscape-font-specification:'Cascadia Code';letter-spacing:0px;word-spacing:0px;stroke-width:0.2645"
         x="6.343"
         y="6.348"
         id="text10"><tspan
             sodipodi:role="line"
             id="tspan8"
             x="6.343"
             y="6.348"
             style="stroke-width:0.2645">history</tspan><tspan
             id="tspan19"
             sodipodi:role="line"
             x="6.343"
             y="8.817"
             style="stroke-width:0.2645">NPCs</tspan><tspan
             sodipodi:role="line"
             x="6.343"
             y="11.29"
             style="stroke-width:0.2645"
             id="tspan14">allies / enemies</tspan><tspan
             sodipodi:role="line"
             x="6.343"
             y="13.75"
             style="stroke-width:0.2645"
             id="tspan16">motivation</tspan><tspan
             sodipodi:role="line"
             x="6.343"
             y="16.22"
             style="stroke-width:0.2645"
             id="tspan18">personality traits</tspan><tspan
             sodipodi:role="line"
             x="6.343"
             y="18.69"
             style="stroke-width:0.2645"
             id="tspan20">tensions / quests / arcs</tspan><tspan
             sodipodi:role="line"
             x="6.343"
             y="21.16"
             style="stroke-width:0.2645"
             id="tspan24">quirks</tspan><tspan
             sodipodi:role="line"
             x="6.343"
             y="23.63"
             style="stroke-width:0.2645"
             id="tspan28">character background traits</tspan></text>
    <text
         id="text52"
         y="-5.718"
         x="-38.23"
         style="font-size:2.46864px;line-height:1;font-family:'Cascadia Code';-inkscape-font-specification:'Cascadia Code';letter-spacing:0px;word-spacing:0px;stroke-width:0.264494"
         xml:space="preserve"><tspan
             style="stroke-width:0.264494"
             y="-5.718"
             x="-38.23"
             id="tspan50"
             sodipodi:role="line">Oath / Faith</tspan></text>
    <path
         style="fill:none;stroke:#000000;stroke-width:0.264494;stroke-opacity:1"
         d="m -51.25,-13.21 -1.08,0.8 c -0.72,-0.21 -1.41,-0.29 -2.12,-0.11 -0.18,0 -0.29,0.11 -0.4,0.11 l -1.11,-0.69 v 1.3 c -1.08,0.68 -1.58,1.982 -1.19,3.702 0.11,0.29 0.21,0.48 0.4,0.69 l -0.4,1.4 1.4,-0.72 c 1.01,0.22 2.09,-0.29 1.8,-1.37 0,-0.11 0,-0.21 -0.1,-0.32 -0.19,-0.39 -0.58,-0.5 -0.8,-0.29 -0.18,0.19 -0.29,0.69 -0.1,1.01 -0.5,-0.11 -0.9,-0.51 -1.01,-1.22 0,-0.19 0,-0.29 0,-0.5 l 1.22,-0.29 -0.9,-0.802 c 0.29,-0.61 0.9,-1 1.69,-1.11 l 0.51,1.11 0.5,-1 c 0.29,0.1 0.69,0.1 1,0.29 0.19,0.1 0.29,0.32 0.51,0.39 l -0.22,0.902 0.8,-0.182 c 0.32,0.402 0.5,0.902 0.71,1.402 -0.21,0 -0.31,0 -0.39,0 -2.31,-0.1 -3.6,1.98 -3.42,4.21 l -1.19,0.68 1.4,0.22 c 0.19,0.5 0.51,0.98 0.9,1.4 0.19,0.18 0.51,0.4 0.8,0.58 l -0.21,1.1099 1.11,-0.7099 c 1.58,0.4999 3.49,0.4999 4.79,-0.29 l 1.32,0.39 -0.5,-1.08 c 0.68,-0.9 0.79,-1.83 0.39,-2.41 l 0.4,-1.22 -1.22,0.51 c -0.1,-0.1 -0.39,-0.19 -0.58,-0.19 -1.3,-0.1 -2.59,1.09 -1.61,2.41 -0.1,-1.01 0.71,-1.72 1.29,-1.32 0.61,0.39 0.61,1.4 -0.18,1.9 -0.4,0.21 -0.9,0.4 -1.4,0.4 l -0.61,-1.19 -0.29,1.29 c -0.9,0 -1.8,-0.29 -2.41,-0.79 l 0.61,-1.3 -1.3,0.69 c -0.32,-0.4 -0.4,-0.69 -0.5,-1.19 0,-0.32 0,-0.61 0,-0.9 h 1.29 l -1,-0.9 c 0.21,-0.71 0.61,-1.21 1.11,-1.61 0.11,0.1 0.11,0.1 0.19,0.21 0.39,1.01 1.32,1.51 2.4,1.69 l 0.11,0.72 0.79,-0.61 c 1.11,0 2.3,-0.61 2.81,-1.51 0.61,-1 0.79,-2.592 0.21,-3.892 l 0.58,-1.29 -1.19,0.39 c 0,0 0,0 0,0 -0.71,-0.79 -1.9,-0.5 -2.59,0.29 l -1.33,-0.18 0.72,0.98 c -0.11,0.32 -0.21,0.61 -0.21,0.9 0,0.1 0.1,0.31 0.1,0.502 0.21,0.61 0.72,1.11 1.19,0.9 0.51,-0.11 0.72,-0.69 0.51,-1.402 0,-0.19 -0.1,-0.4 -0.19,-0.51 -0.4,0.22 -0.5,0.51 -0.61,1.012 -0.1,-0.692 0,-1.082 0.51,-1.402 v 0 c 0.29,-0.19 0.68,-0.29 0.89,-0.1 0.9,0.58 0.9,1.882 0.4,2.992 l -1.08,-0.11 0.39,0.9 c -0.31,0.32 -0.71,0.5 -1.11,0.61 -0.61,0.11 -1.4,0 -2.09,-0.29 0.11,-0.11 0.19,-0.42 0.29,-0.61 0.61,-1.69 -0.18,-3.412 -1.58,-4.312 l 0.18,-1.3 z"
         fill="#fff"
         fill-opacity="1"
         id="path4-9"
         inkscape:connector-curvature="0" />
    <path
         d="m -46.65,2.192 c 0,0.11 0,0.11 0,0.19 -0.1,0.6 -0.21,1.32 -0.29,2.22 -0.21,0.79 -0.39,1.58 -0.6,2.38 -0.22,0.71 -0.51,1.4 -1.01,1.8 -0.58,0.61 -1.8,0.9 -2.7,0.82 -0.5,-0.11 -0.9,-0.43 -1.29,-0.72 -0.51,-0.39 -0.9,-0.79 -1.41,-1.19 -0.9,-1 -1.08,-2.11 -0.68,-3.09 0.29,-0.82 0.89,-1.4 1.69,-1.8 -0.4,-0.21 -0.9,-0.32 -1.4,-0.21 -0.11,0 -0.22,0.1 -0.29,0.1 v 0 c -0.32,0.11 -0.61,0.29 -0.9,0.58 v 0 c -0.32,0.32 -0.43,0.72 -0.61,1.33 -0.11,0.39 -0.29,0.9 -0.4,1.29 0.5,0.29 0.9,0.69 1.09,1.3 0.21,0.61 0.31,1.4 0.1,2.2 -0.18,0.788 -0.61,1.398 -1.19,1.898 -0.4,0.29 -1,0.5 -1.51,0.5 -0.1,0.4 -0.18,0.8 -0.18,1.3 0.1,0 0.1,-0.11 0.18,-0.11 0.51,-0.29 1.19,-0.6 2.01,-0.9 0.8,-0.18 1.59,-0.5 2.38,-0.68 0.82,-0.11 1.51,-0.22 2.01,0 1.01,0.29 1.7,1.08 2.09,1.98 0.32,0.9 0.11,2.12 -0.29,3.31 -0.39,1.19 -1.29,2.01 -2.3,2.19 -0.79,0.11 -1.69,-0.1 -2.48,-0.61 0,0.9 0.79,1.72 1.69,2.01 0.5,0.11 0.9,0 1.4,-0.1 0.5,-0.11 1.01,-0.29 1.59,-0.4 0,-0.5 0.1,-1 0.5,-1.51 0.4,-0.47 1.11,-0.9 1.8,-1.08 0.4,-0.11 0.79,-0.21 1.22,-0.21 0.39,0 0.68,0.1 0.98,0.21 0.6,0.18 1,0.61 1.21,1.01 0.4,-0.11 0.8,-0.22 1.19,-0.4 -0.5,-0.32 -1.08,-0.82 -1.9,-1.51 -0.58,-0.5 -1.3,-1.11 -1.8,-1.69 -0.5,-0.61 -1.01,-1.11 -1.09,-1.72 -0.21,-0.9 0.1,-2.09 0.69,-2.81 0.61,-0.678 1.7,-1.078 3.02,-1.368 1.19,-0.32 2.27,0.1 2.99,0.9 0.5,0.578 0.79,1.478 0.68,2.378 0.83,-0.5 1.22,-1.48 0.9,-2.488 -0.1,-0.4 -0.39,-0.71 -0.79,-1.11 -0.29,-0.4 -0.69,-0.79 -1,-1.08 -0.4,0.18 -0.9,0.29 -1.41,0.18 -0.68,-0.1 -1.37,-0.5 -1.87,-1.08 -0.61,-0.51 -0.9,-1.22 -1.12,-1.91 -0.1,-0.5 0,-1 0.22,-1.4 -0.32,-0.29 -0.72,-0.61 -1.12,-0.9 z m -2.69,0.61 c -0.69,0 -1.41,0.1 -1.7,0.18 l -1,0.29 c -0.9,0.22 -1.62,0.9 -1.91,1.62 -0.29,0.69 -0.18,1.51 0.61,2.19 v 0 0 c 0.19,0.3 0.5,0.51 0.69,0.72 0.61,-0.61 1.4,-1.01 2.2,-1.32 0.42,-0.1 0.89,-0.1 1.32,-0.1 0.1,0 0.1,0 0.1,0 0.31,0 0.5,0.1 0.82,0.1 0.18,-0.69 0.29,-1.41 0.47,-2.09 0.11,-0.51 0.11,-1.01 0.22,-1.41 -0.51,-0.1 -1.01,-0.18 -1.51,-0.18 -0.1,0 -0.19,0 -0.29,0 z m 5.5,0 c 0,0 -0.11,0 -0.11,0 -0.29,0 -0.61,0.1 -0.79,0.29 -0.21,0.29 -0.29,0.69 -0.29,1.19 0.1,0.5 0.4,1.11 0.79,1.51 0.5,0.5 1.09,0.79 1.48,0.79 0.51,0.11 0.9,0 1.22,-0.29 0.29,-0.21 0.4,-0.61 0.29,-1.11 -0.1,-0.5 -0.4,-1.09 -0.79,-1.48 -0.5,-0.5 -1.01,-0.82 -1.51,-0.9 -0.11,0 -0.19,0 -0.29,0 z m -13.49,3.68 c -0.32,0 -0.61,0.21 -0.9,0.42 -0.43,0.29 -0.72,0.79 -0.9,1.48 -0.11,0.61 -0.11,1.22 0.1,1.688 0.21,0.43 0.5,0.72 0.9,0.82 0.31,0.1 0.71,0 1.11,-0.31 0.39,-0.29 0.79,-0.798 0.9,-1.408 0.18,-0.68 0.18,-1.29 0,-1.79 -0.21,-0.4 -0.4,-0.69 -0.8,-0.8 -0.1,0 -0.21,0 -0.31,0 z m 13.99,2.8 c -0.21,0 -0.4,0 -0.71,0.11 v 0 0 c -0.19,0.1 -0.51,0.1 -0.69,0.21 0,0.1 0.11,0.18 0.11,0.29 0.5,1.688 -0.11,3.378 -1.22,4.498 0.4,0.5 0.9,0.9 1.29,1.29 0.43,0.29 0.82,0.61 1.12,0.8 0.9,-0.9 1.5,-2.09 1.9,-3.28 v 0 l 0.11,-0.4 c 0.1,-0.42 0.18,-0.82 0.18,-1.32 0,-0.59 -0.18,-1.09 -0.5,-1.488 -0.4,-0.39 -0.9,-0.71 -1.59,-0.71 z m -10.4,2.908 c -0.71,0.19 -1.4,0.4 -2.11,0.69 -0.5,0.1 -0.9,0.32 -1.3,0.5 0.4,1.3 1.01,2.41 1.91,3.31 v 0 l 0.5,0.39 c 0.18,0.22 0.4,0.4 0.69,0.61 0.5,0.29 1.11,0.4 1.72,0.29 0.68,-0.1 1.37,-0.61 1.58,-1.58 v 0 0 c 0.11,-0.22 0.22,-0.51 0.22,-0.82 -1.51,-0.4 -2.81,-1.59 -3.21,-3.28 0,0 0,-0.11 0,-0.11 z m 7.09,5.61 c -0.29,0 -0.5,0 -0.79,0.1 -0.61,0.1 -1.22,0.5 -1.51,0.9 -0.29,0.31 -0.39,0.82 -0.29,1.11 0.11,0.39 0.4,0.69 0.9,0.9 0.4,0.1 1.09,0.18 1.69,0 0.61,-0.21 1.12,-0.51 1.41,-0.9 0.39,-0.4 0.5,-0.8 0.39,-1.19 -0.1,-0.43 -0.39,-0.72 -0.9,-0.82 -0.21,-0.1 -0.5,-0.19 -0.79,-0.19 0,0 -0.11,0 -0.11,0 z"
         fill="#ffffff"
         fill-opacity="1"
         stroke="#000000"
         stroke-opacity="1"
         stroke-width="0.132286"
         id="path4790" />
    <text
         id="text684"
         y="-45.81"
         x="-103.8"
         style="font-size:2.46864px;line-height:1;font-family:'Cascadia Code';-inkscape-font-specification:'Cascadia Code';letter-spacing:0px;word-spacing:0px;stroke-width:0.264494"
         xml:space="preserve"><tspan
             style="stroke-width:0.264494"
             y="-45.81"
             x="-103.8"
             id="tspan682"
             sodipodi:role="line">Longtooth shifters are fierce and aggressive, but they form deep bonds with their friends. Many longtooth shifters </tspan><tspan
             id="tspan696"
             style="stroke-width:0.264494"
             y="-43.34"
             x="-103.8"
             sodipodi:role="line">have canine traits that become more pronounced as they shift, but they might instead draw on tigers, hyenas, or other predators.. </tspan></text>
    <text
         id="text700"
         y="-36.71"
         x="-104.7"
         style="font-size:2.46864px;line-height:1;font-family:'Cascadia Code';-inkscape-font-specification:'Cascadia Code';letter-spacing:0px;word-spacing:0px;stroke-width:0.264494"
         xml:space="preserve"><tspan
             style="stroke-width:0.264494"
             y="-36.71"
             x="-104.7"
             id="tspan698"
             sodipodi:role="line">Fight the Greater Evil. Faced with a choice of fighting my sworn foes or combating a lesser evil, I choose the greater evil.</tspan><tspan
             id="tspan702"
             style="stroke-width:0.264494"
             y="-34.24"
             x="-104.7"
             sodipodi:role="line" /><tspan
             id="tspan704"
             style="stroke-width:0.264494"
             y="-31.77"
             x="-104.7"
             sodipodi:role="line">No Mercy for the Wicked. Ordinary foes might win my mercy, but my sworn enemies do not.</tspan><tspan
             id="tspan706"
             style="stroke-width:0.264494"
             y="-29.3"
             x="-104.7"
             sodipodi:role="line" /><tspan
             id="tspan708"
             style="stroke-width:0.264494"
             y="-26.83"
             x="-104.7"
             sodipodi:role="line">By Any Means Necessary. My qualms can't get in the way of exterminating my foes.</tspan><tspan
             id="tspan710"
             style="stroke-width:0.264494"
             y="-24.36"
             x="-104.7"
             sodipodi:role="line" /><tspan
             id="tspan712"
             style="stroke-width:0.264494"
             y="-21.9"
             x="-104.7"
             sodipodi:role="line">Restitution. If my foes wreak ruin on the world, it is because I failed to stop them. I must help those harmed by their misdeeds.</tspan></text>
    <g
         style="stroke:#000000;stroke-width:4.81853;stroke-miterlimit:4;stroke-dasharray:none;stroke-opacity:1"
         transform="matrix(0.0275,0,0,0.0274,0.0615,52.96)"
         id="g920">
        <path
             style="stroke:#000000;stroke-width:4.81853;stroke-miterlimit:4;stroke-dasharray:none;stroke-opacity:1"
             d="M 191.4,0 C 139.6,0 92.7,12.2 57.9,32.7 23.2,53.2 0,82.7 0,116.6 c 0,33.5 22.7,62.8 56.8,83.2 L 28.3,306 125.2,226.1 c 20.7,4.6 43,7.1 66.2,7.1 51.8,0 98.8,-12.2 133.5,-32.7 34.8,-20.5 58,-50 58,-83.9 0,-33.9 -23.2,-63.4 -58,-83.9 C 290.2,12.2 243.2,0 191.4,0 v 0"
             fill="none"
             stroke="#000000"
             stroke-width="1.50822"
             id="path878" />
        <path
             style="stroke:#000000;stroke-width:4.81853;stroke-miterlimit:4;stroke-dasharray:none;stroke-opacity:1"
             d="m 191.4,18.7 c 48.8,0 92.9,11.8 124,30.1 31.2,18.4 48.8,42.5 48.8,67.8 0,25.3 -17.6,49.4 -48.8,67.8 -31.1,18.4 -75.2,30.1 -124,30.1 -48.8,0 -92.9,-11.7 -124,-30.1 C 36.2,166 18.7,141.9 18.7,116.6 18.7,91.3 36.2,67.2 67.4,48.8 98.5,30.4 142.6,18.7 191.4,18.7 v 0"
             fill="none"
             stroke="#000000"
             stroke-width="1.50822"
             id="path880" />
        <path
             style="stroke:#000000;stroke-width:4.81853;stroke-miterlimit:4;stroke-dasharray:none;stroke-opacity:1"
             d="m 76.6,68.8 v 18.7 h 93.2 V 68.8 H 76.6 v 0"
             fill="none"
             stroke="#000000"
             stroke-width="1.50822"
             id="path882" />
        <path
             style="stroke:#000000;stroke-width:4.81853;stroke-miterlimit:4;stroke-dasharray:none;stroke-opacity:1"
             d="m 188.4,68.8 v 18.7 h 28.1 V 68.8 h -28.1 v 0"
             fill="none"
             stroke="#000000"
             stroke-width="1.50822"
             id="path884" />
        <path
             style="stroke:#000000;stroke-width:4.81853;stroke-miterlimit:4;stroke-dasharray:none;stroke-opacity:1"
             d="m 235.2,68.8 v 18.7 h 72 V 68.8 h -72 v 0"
             fill="none"
             stroke="#000000"
             stroke-width="1.50822"
             id="path886" />
        <path
             style="stroke:#000000;stroke-width:4.81853;stroke-miterlimit:4;stroke-dasharray:none;stroke-opacity:1"
             d="m 76.6,108.7 v 18.8 h 29.7 V 108.7 H 76.6 v 0"
             fill="none"
             stroke="#000000"
             stroke-width="1.50822"
             id="path888" />
        <path
             style="stroke:#000000;stroke-width:4.81853;stroke-miterlimit:4;stroke-dasharray:none;stroke-opacity:1"
             d="m 125,108.7 v 18.8 h 65.9 V 108.7 H 125"
             fill="none"
             stroke="#000000"
             stroke-width="1.50822"
             id="path890" />
        <path
             style="stroke:#000000;stroke-width:4.81853;stroke-miterlimit:4;stroke-dasharray:none;stroke-opacity:1"
             d="m 209.6,108.7 v 18.8 h 38.1 v -18.8 h -38.1 v 0"
             fill="none"
             stroke="#000000"
             stroke-width="1.50822"
             id="path892" />
        <path
             style="stroke:#000000;stroke-width:4.81853;stroke-miterlimit:4;stroke-dasharray:none;stroke-opacity:1"
             d="m 266.4,108.7 v 18.8 h 40.8 v -18.8 h -40.8 v 0"
             fill="none"
             stroke="#000000"
             stroke-width="1.50822"
             id="path894" />
        <path
             style="stroke:#000000;stroke-width:4.81853;stroke-miterlimit:4;stroke-dasharray:none;stroke-opacity:1"
             d="m 76.6,145.7 v 18.7 h 70.9 V 145.7 H 76.6 v 0"
             fill="none"
             stroke="#000000"
             stroke-width="1.50822"
             id="path896" />
        <path
             style="stroke:#000000;stroke-width:4.81853;stroke-miterlimit:4;stroke-dasharray:none;stroke-opacity:1"
             d="m 166.2,145.7 v 18.7 h 57 v -18.7 h -57"
             fill="none"
             stroke="#000000"
             stroke-width="1.50822"
             id="path898" />
        <path
             style="stroke:#000000;stroke-width:4.81853;stroke-miterlimit:4;stroke-dasharray:none;stroke-opacity:1"
             d="m 241.9,145.7 v 18.7 h 65.3 v -18.7 h -65.3"
             fill="none"
             stroke="#000000"
             stroke-width="1.50822"
             id="path900" />
    </g>
    <text
         id="text924"
         y="56.38"
         x="12.01"
         style="font-size:3.5272px;line-height:1;font-family:'Cascadia Code';-inkscape-font-specification:'Cascadia Code';letter-spacing:0px;word-spacing:0px;stroke-width:0.2645"
         xml:space="preserve"><tspan
             style="stroke-width:0.2645"
             y="56.38"
             x="12.01"
             id="tspan922"
             sodipodi:role="line">Common, Dwarvish,</tspan><tspan
             id="tspan926"
             style="stroke-width:0.2645"
             y="59.91"
             x="12.01"
             sodipodi:role="line">Elvish, Primordial</tspan></text>
    <path
         id="path989"
         stroke-width="0.446088"
         stroke="#000000"
         fill="none"
         d="m 80.9,19.52 c -0.2,-0.1 -0.29,-0.15 -0.45,-0.31 -0.18,-0.2 -0.26,-0.41 -0.28,-0.69 v -0.23 h 0.12 0.11 v 0.18 c 0,0.35 0.24,0.66 0.55,0.8 l 0.16,0.1 h 2.5 2.49 l 0.16,-0.1 c 0.32,-0.15 0.54,-0.49 0.54,-0.82 v -0.16 h 0.13 0.13 v 0.21 c 0,0.37 -0.19,0.67 -0.48,0.88 -0.3,0.22 -0.14,0.21 -2.98,0.21 h -2.52 l -0.16,-0.1"
         style="fill:#000000;fill-opacity:1;stroke:none;stroke-width:0.0265;stroke-miterlimit:4;stroke-dasharray:none;stroke-opacity:1" />
    <g
         style="stroke-width:2.09035"
         transform="matrix(0.1589,0,0,0.1588,0.0379,69.89)"
         id="g1195">
        <path
             id="path4"
             stroke-width="0.332997"
             stroke="#000000"
             fill="#000000"
             d="m 24.34,41.56 c -0.83,-0.52 0.4,-1.19 3.5,-1.9 l 4.77,-1.09 -2.36,1.92 c -2.56,2.08 -3.94,2.33 -5.91,1.07" />
        <path
             id="path6"
             stroke-width="0.332997"
             stroke="#000000"
             fill="#000000"
             d="m 33.56,38.15 c -1.1,-2.39 0,-8.77 1.72,-9.84 1.03,-0.65 1.14,-2.65 0.41,-7.91 -0.36,-2.6 -0.3,-2.81 0.22,-0.81 0.39,1.48 1.72,3.84 2.95,5.26 2.88,3.28 2.84,4.33 -0.25,5.73 -2.6,1.19 -3.58,6.03 -1.48,7.33 0.56,0.35 0.76,1.05 0.44,1.56 -1.01,1.64 -2.95,1 -4.01,-1.32" />
        <path
             id="path8"
             stroke-width="0.332997"
             stroke="#000000"
             fill="#000000"
             d="m 18.64,36.78 c -2.33,-2.32 -1.66,-2.47 5.4,-1.16 4.48,0.84 5.76,1.39 4.44,1.91 -3.29,1.29 -8.17,0.92 -9.84,-0.75 v 0" />
        <path
             id="path10"
             stroke-width="0.332997"
             stroke="#000000"
             fill="#000000"
             d="m 22.67,33.28 c -4.24,-1 -7.56,-3.39 -7.56,-5.46 0,-0.84 1.96,-0.29 5.75,1.64 3.17,1.6 6.52,2.92 7.45,2.93 0.93,0 1.97,0.46 2.3,1.01 0.75,1.2 -2.5,1.15 -7.94,-0.12" />
        <path
             id="path12"
             stroke-width="0.332997"
             stroke="#000000"
             fill="#000000"
             d="m 26.05,29.52 c -6.7,-2.62 -10.62,-5.16 -12.02,-7.79 -2.02,-3.75 -0.5,-3.66 4.2,0.27 2.41,2.02 6.3,4.6 8.63,5.73 2.34,1.14 4.25,2.43 4.25,2.87 0,0.98 0.43,1.07 -5.06,-1.08 v 0" />
        <path
             id="path14"
             stroke-width="0.332997"
             stroke="#000000"
             fill="#000000"
             d="M 26.61,25.48 C 18.83,20.95 15.18,17.32 14.45,13.4 L 13.8,9.902 18.45,15.05 c 2.57,2.83 6.91,6.58 9.66,8.35 8,5.14 6.75,6.87 -1.5,2.08" />
        <path
             id="path16"
             stroke-width="0.332997"
             stroke="#000000"
             fill="#000000"
             d="m 26.11,19.56 c -6.82,-5.06 -11,-10.983 -11,-15.611 0,-3.1309 15.44,12.211 17.71,17.601 1.62,3.84 0.87,3.62 -6.71,-1.99" />
        <path
             id="path18"
             stroke-width="0.332997"
             stroke="#000000"
             fill="none"
             d="m 126.3,44.04 c -1,-0.55 -1.5,-1.46 -1.2,-2.01 1.2,-1.84 -2.6,-4.92 -4.6,-3.83 -1.5,0.77 -2.1,0.54 -2.9,-1.05 -0.9,-1.6 -0.8,-2.15 0.4,-2.62 2.3,-0.87 2,-5.11 -0.4,-5.87 -2.2,-0.7 -2.4,-1.32 -1.1,-3.38 0.4,-0.76 1.4,-1.06 2,-0.67 2,1.25 4.2,-1.52 3.6,-4.49 -0.7,-3.16 1.6,-4.73 3.5,-2.4 1.7,2.04 4.7,1.78 5.9,-0.53 1.3,-2.31 4.1,-1.66 4.1,0.95 0,2.45 2.5,4.3 4.8,3.57 2.5,-0.79 3.8,2.24 1.7,3.82 -1.8,1.35 -1,5.63 1.1,5.63 0.7,0 1.4,0.9 1.4,2 0,1.44 -0.7,2 -2.4,2 -3,0 -4.7,1.99 -4,4.69 0.7,2.7 -1.3,3.9 -3.4,2.08 -2.2,-1.79 -4.7,-1.25 -5.9,1.22 -0.6,1.48 -1.2,1.67 -2.6,0.89 v 0" />
        <path
             id="path20"
             stroke-width="0.332997"
             stroke="#000000"
             fill="none"
             d="m 134.1,33.7 c 5.6,-5.6 -1.8,-13.21 -7.7,-7.89 -3.8,3.46 -1.1,9.71 4.5,10.27 0.4,0 1.9,-1.03 3.2,-2.38 v 0" />
        <path
             id="path22"
             stroke-width="0.332997"
             stroke="#000000"
             fill="none"
             d="m 144.3,21.08 c -0.5,-1.61 -1.2,-2.01 -3.4,-1.75 -2.6,0.3 -2.8,0.1 -2.5,-2.5 0.2,-2.16 -0.2,-2.96 -1.8,-3.37 -2.3,-0.6 -2.8,-3.3 -0.6,-3.3 1.8,0 2.6,-2.217 1.8,-5.065 -0.5,-1.949 -0.2,-2.175 1.7,-1.665 2.9,0.745 5.1,-0.08 5.1,-1.881 0,-2.1728 2.7,-1.6347 3.3,0.658 0.4,1.561 1.2,1.978 3.3,1.75 2.6,-0.273 2.8,-0.04 2.5,2.522 -0.2,2.173 0.2,2.947 1.8,3.366 2.7,0.695 2.7,2.915 0,3.615 -1.5,0.41 -2,1.21 -1.7,3.37 0.2,2.57 0,2.8 -2.6,2.5 -2.1,-0.26 -2.9,0.14 -3.3,1.75 -0.3,1.14 -1.1,2.08 -1.8,2.08 -0.7,0 -1.5,-0.94 -1.8,-2.08" />
        <path
             id="path24"
             stroke-width="0.332997"
             stroke="#000000"
             fill="none"
             d="m 148.6,15.12 c 3.8,-2 1.9,-7.964 -2.5,-7.964 -2.7,0 -4.5,1.82 -4.5,4.504 0,3.95 3.2,5.52 7,3.46" />
        <path
             id="path26"
             stroke-width="0.332997"
             stroke="#000000"
             fill="#000000"
             d="m 19.98,157 c -1.94,-2.1 -2.06,-2.5 -0.67,-2.5 1.39,0 1.67,-1.1 1.67,-6.7 V 141 l -4.5,4.5 c -3.22,3.1 -4.33,4.9 -3.91,6.2 0.51,1.6 0.12,1.9 -2.751,1.6 -2.978,-0.3 -3.374,-0.7 -3.659,-3.7 -0.275,-2.8 -0.06,-3.2 1.54,-2.7 1.331,0.4 3.12,-0.7 6.28,-3.9 l 4.42,-4.5 h -6.64 c -5.257,0 -6.701,0.3 -6.957,1.6 -0.263,1.2 -0.744,1.1 -2.579,-0.9 l -2.2555,-2.4 2.5055,-2.3 c 2.073,-2 2.506,-2.1 2.506,-0.7 0,1.4 1.101,1.7 6.71,1.7 H 18.4 L 13.98,131 c -3.16,-3.3 -4.949,-4.4 -6.28,-3.9 -1.597,0.5 -1.815,0.1 -1.54,-2.8 0.285,-3 0.681,-3.4 3.659,-3.7 2.871,-0.2 3.261,0 2.751,1.6 -0.42,1.3 0.69,3.1 3.91,6.3 l 4.5,4.4 v -6.7 c 0,-5.2 -0.33,-6.7 -1.59,-6.9 -1.29,-0.3 -1.14,-0.8 0.82,-2.6 l 2.41,-2.2 2.35,2.5 c 1.95,2 2.07,2.5 0.68,2.5 -1.4,0 -1.67,1.1 -1.67,6.7 v 6.7 l 4.5,-4.4 c 3.22,-3.2 4.33,-5 3.91,-6.3 -0.51,-1.6 -0.12,-1.8 2.75,-1.6 2.98,0.3 3.37,0.7 3.66,3.7 0.27,2.9 0.1,3.3 -1.54,2.8 -1.33,-0.5 -3.12,0.6 -6.28,3.9 l -4.42,4.5 h 6.71 c 5.61,0 6.71,-0.3 6.71,-1.7 0,-1.4 0.43,-1.3 2.51,0.7 l 2.5,2.3 -2.25,2.4 c -1.84,2 -2.32,2.1 -2.58,0.9 -0.26,-1.3 -1.7,-1.6 -6.96,-1.6 h -6.64 l 4.42,4.5 c 3.16,3.2 4.95,4.3 6.28,3.9 1.6,-0.5 1.81,-0.1 1.54,2.7 -0.29,3 -0.68,3.4 -3.66,3.7 -2.87,0.3 -3.26,0 -2.75,-1.6 0.42,-1.3 -0.69,-3.1 -3.91,-6.2 l -4.5,-4.5 v 6.7 c 0,5.2 0.33,6.7 1.59,6.9 1.29,0.3 1.14,0.8 -0.82,2.6 l -2.41,2.3 -2.36,-2.5" />
        <path
             id="path28"
             stroke-width="0.332997"
             stroke="#000000"
             fill="none"
             d="m 133.2,155.3 c -2.6,-1.6 -3.2,-2.7 -3.2,-5.3 0,-2 -0.6,-3.5 -1.5,-3.9 -0.9,-0.3 -1.5,-1.8 -1.5,-3.5 0,-1.7 -0.5,-3.3 -1.1,-3.7 -0.7,-0.4 -1,-2.6 -0.7,-5.4 0.4,-3.6 0,-5.4 -1.4,-7.2 -2.2,-2.8 -2.4,-8.7 -0.4,-11.4 1.4,-1.8 1.5,-1.7 1.5,2.2 0.1,6.1 3.1,9.6 7.2,8.2 1.7,-0.6 5.5,-0.8 8.4,-0.5 l 5.4,0.5 1.1,-3.5 c 0.7,-1.9 0.9,-4.7 0.6,-6.1 -0.6,-2.6 -0.6,-2.6 0.9,-0.8 1.7,2.3 2,10.6 0.4,12.3 -0.8,0.8 -0.8,2.1 0.1,4.7 0.9,2.9 0.9,4.3 -0.1,6.8 -0.7,1.7 -1.2,4.2 -1.1,5.4 0.1,1.4 -0.6,2.7 -1.8,3.4 -1.3,0.7 -2,2.1 -2,4 0,2.2 -0.7,3.3 -3,4.4 -3.7,2 -3.9,2 -7.8,-0.6 v 0" />
        <path
             id="path30"
             stroke-width="0.332997"
             stroke="#000000"
             fill="none"
             d="m 141.1,151.4 c 1.1,-0.6 1.9,-1.5 1.9,-2.2 0,-0.8 -0.3,-0.8 -1.2,0.1 -1.7,1.6 -6,1.5 -8.6,-0.4 -1.2,-0.8 -2.2,-1.1 -2.2,-0.5 0,2.8 6.7,4.8 10.1,3 v 0" />
        <path
             id="path32"
             stroke-width="0.332997"
             stroke="#000000"
             fill="none"
             d="m 138.8,144.2 c 1.5,0.6 1.5,0.4 0.3,-1 -1.6,-2 -3.2,-1.4 -3,1.1 0,0.9 0.3,1.1 0.5,0.5 0.3,-0.7 1.3,-0.9 2.2,-0.6" />
        <path
             id="path34"
             stroke-width="0.332997"
             stroke="#000000"
             fill="none"
             d="m 144.8,140.3 c 0.3,-1.9 -1.9,-3 -3.8,-1.8 -1.8,1.1 -0.4,4.2 1.7,3.8 1,-0.2 1.9,-1.1 2.1,-2" />
        <path
             id="path36"
             stroke-width="0.332997"
             stroke="#000000"
             fill="none"
             d="m 135.5,139.5 c 0,-1 -1.2,-1.6 -3.3,-1.8 -3.4,-0.4 -3.6,-0.3 -2.6,2.2 0.8,2.1 5.9,1.7 5.9,-0.4 v 0" />
        <path
             id="path38"
             stroke-width="0.332997"
             stroke="#000000"
             fill="none"
             d="m 69.97,147 -8.46,-8.6 8.73,-8.7 8.74,-8.7 8.74,8.7 8.73,8.7 -8.46,8.6 c -4.66,4.6 -8.71,8.5 -9.01,8.5 -0.3,0 -4.35,-3.9 -9.01,-8.5 v 0" />
        <path
             id="path40"
             stroke-width="0.332997"
             stroke="#000000"
             fill="none"
             d="m 86.99,146 7.46,-7.6 -7.74,-7.7 -7.73,-7.7 -7.73,7.7 -7.74,7.7 7.46,7.6 c 4.1,4.1 7.71,7.5 8.01,7.5 0.3,0 3.91,-3.4 8.01,-7.5" />
        <path
             id="path42"
             stroke-width="0.332997"
             stroke="#000000"
             fill="none"
             d="m 39.97,118 -8.46,-8.6 8.73,-8.7 8.74,-8.72 8.74,8.72 8.73,8.7 -8.46,8.6 c -4.66,4.6 -8.71,8.5 -9.01,8.5 -0.3,0 -4.35,-3.9 -9.01,-8.5 v 0" />
        <path
             id="path44"
             stroke-width="0.332997"
             stroke="#000000"
             fill="none"
             d="m 56.99,117 7.46,-7.6 -7.74,-7.7 -7.73,-7.72 -7.73,7.72 -7.74,7.7 7.46,7.6 c 4.1,4.1 7.71,7.5 8.01,7.5 0.3,0 3.91,-3.4 8.01,-7.5 v 0" />
        <path
             id="path46"
             stroke-width="0.332997"
             stroke="#000000"
             fill="none"
             d="m 99.97,118 -8.46,-8.6 8.69,-8.7 8.8,-8.72 8.7,8.72 8.8,8.7 -8.5,8.6 c -4.7,4.6 -8.7,8.5 -9,8.5 -0.3,0 -4.4,-3.9 -9.03,-8.5 v 0" />
        <path
             id="path48"
             stroke-width="0.332997"
             stroke="#000000"
             fill="none"
             d="m 117,117 7.4,-7.6 -7.7,-7.7 -7.7,-7.72 -7.8,7.72 -7.69,7.7 7.49,7.6 c 4.1,4.1 7.7,7.5 8,7.5 0.3,0 3.9,-3.4 8,-7.5 v 0" />
        <path
             id="path50"
             stroke-width="0.332997"
             stroke="#000000"
             fill="none"
             d="m 10.97,87.96 -8.461,-8.51 8.731,-8.74 8.74,-8.73 8.74,8.73 8.73,8.74 -8.46,8.51 c -4.66,4.68 -8.71,8.5 -9.01,8.5 -0.3,0 -4.35,-3.82 -9.01,-8.5 v 0" />
        <path
             id="path52"
             stroke-width="0.332997"
             stroke="#000000"
             fill="none"
             d="m 27.99,86.96 7.46,-7.51 -7.74,-7.74 -7.73,-7.73 -7.73,7.73 -7.737,7.74 7.457,7.51 c 4.1,4.13 7.71,7.5 8.01,7.5 0.3,0 3.91,-3.37 8.01,-7.5 v 0" />
        <path
             id="path54"
             stroke-width="0.332997"
             stroke="#000000"
             fill="none"
             d="m 69.97,87.96 -8.46,-8.51 8.73,-8.74 8.74,-8.73 8.74,8.73 8.73,8.74 -8.46,8.51 c -4.66,4.68 -8.71,8.5 -9.01,8.5 -0.3,0 -4.35,-3.82 -9.01,-8.5 v 0" />
        <path
             id="path56"
             stroke-width="0.332997"
             stroke="#000000"
             fill="none"
             d="m 86.99,86.96 7.46,-7.51 -7.74,-7.74 -7.73,-7.73 -7.73,7.73 -7.74,7.74 7.46,7.51 c 4.1,4.13 7.71,7.5 8.01,7.5 0.3,0 3.91,-3.37 8.01,-7.5" />
        <path
             id="path58"
             stroke-width="0.332997"
             stroke="#000000"
             fill="none"
             d="m 129,87.96 -8.5,-8.51 8.7,-8.74 8.8,-8.73 8.7,8.73 8.8,8.74 -8.5,8.51 c -4.7,4.68 -8.7,8.5 -9,8.5 -0.3,0 -4.4,-3.82 -9,-8.5 v 0" />
        <path
             id="path60"
             stroke-width="0.332997"
             stroke="#000000"
             fill="none"
             d="m 146,86.96 7.4,-7.51 -7.7,-7.74 -7.7,-7.73 -7.8,7.73 -7.7,7.74 7.5,7.51 c 4.1,4.13 7.7,7.5 8,7.5 0.3,0 3.9,-3.37 8,-7.5 v 0" />
        <path
             id="path62"
             stroke-width="0.332997"
             stroke="#000000"
             fill="none"
             d="m 39.97,57.96 -8.46,-8.51 8.73,-8.74 8.74,-8.73 8.74,8.73 8.73,8.74 -8.46,8.51 c -4.66,4.68 -8.71,8.5 -9.01,8.5 -0.3,0 -4.35,-3.82 -9.01,-8.5 v 0" />
        <path
             style="fill:#00000f;fill-opacity:1"
             id="path64"
             stroke-width="0.332997"
             stroke="#000000"
             fill="none"
             d="m 56.99,56.96 7.46,-7.51 -7.74,-7.74 -7.73,-7.73 -7.73,7.73 -7.74,7.74 7.46,7.51 c 4.1,4.13 7.71,7.5 8.01,7.5 0.3,0 3.91,-3.37 8.01,-7.5 v 0" />
        <path
             id="path66"
             stroke-width="0.332997"
             stroke="#000000"
             fill="none"
             d="m 99.97,57.96 -8.46,-8.51 8.69,-8.74 8.8,-8.73 8.7,8.73 8.8,8.74 -8.5,8.51 c -10.2,10.21 -7.9,10.21 -18.03,0 v 0" />
        <path
             id="path68"
             stroke-width="0.332997"
             stroke="#000000"
             fill="none"
             d="m 117,56.96 7.4,-7.51 -7.7,-7.74 -7.7,-7.73 -7.8,7.73 -7.69,7.74 7.49,7.51 c 4.1,4.13 7.7,7.5 8,7.5 0.3,0 3.9,-3.37 8,-7.5 v 0" />
        <path
             id="path70"
             stroke-width="0.332997"
             stroke="#000000"
             fill="none"
             d="m 69.97,28.96 -8.46,-8.51 8.73,-8.74 8.74,-8.731 8.74,8.731 8.73,8.74 -8.46,8.51 c -10.16,10.21 -7.86,10.21 -18.02,0 v 0" />
        <path
             id="path72"
             stroke-width="0.332997"
             stroke="#000000"
             fill="none"
             d="m 86.99,27.96 7.46,-7.51 -7.74,-7.74 -7.73,-7.729 -7.73,7.729 -7.74,7.74 7.46,7.51 c 4.1,4.13 7.71,7.5 8.01,7.5 0.3,0 3.91,-3.37 8.01,-7.5" />
        <path
             transform="matrix(0.7965,0,0,0.7965,-0.1222,0.1737)"
             inkscape:connector-curvature="0"
             id="path80"
             d="m 158.8,54.83 c -1.2,-0.76 -1.4,-1.09 -1.2,-2.55 0.2,-1.48 -0.1,-2.22 -1.3,-3.36 -1.8,-1.62 -3.4,-1.99 -5.2,-1.25 -1.3,0.53 -1.3,0.53 -2,0.1 -0.7,-0.53 -1.8,-2.53 -1.8,-3.24 0,-0.37 0.2,-0.65 0.8,-0.98 2,-1.02 2.8,-2.89 2.1,-5.19 -0.3,-1.25 -1.3,-2.21 -3,-3.04 -1.3,-0.62 -1.5,-0.81 -1.5,-1.41 -0.1,-0.95 1.1,-2.83 1.9,-3.04 0.4,-0.1 1,0 1.4,0.11 1.4,0.53 2.2,0.35 3.2,-0.74 1.3,-1.32 1.6,-2.54 1.4,-5.35 -0.2,-2.41 0.2,-3.45 1.2,-3.85 0.9,-0.33 1.6,-0.1 2.8,1.09 1.8,1.72 3.2,2.18 5,1.7 1,-0.27 1.2,-0.49 3.6,-3.11 0.6,-0.67 0.9,-0.83 1.6,-0.83 1.4,0 2.1,0.87 2.4,2.89 0.5,3.56 2.9,5.13 6.8,4.44 1,-0.19 1.1,-0.17 1.9,0.62 1.2,1.19 1,2.49 -0.5,3.87 -0.9,0.8 -1.3,1.84 -1.3,3.3 0.1,2.08 1.4,4.12 2.7,4.12 1.1,0 1.9,1.69 1.5,3.14 -0.3,0.98 -1.2,1.49 -2.8,1.49 -2.4,0 -4.5,1.37 -5.1,3.34 -0.2,0.88 -0.2,1.39 0,2.78 0.3,1.46 0.3,1.78 -0.1,2.39 -0.6,1.29 -1.9,1.34 -3.6,0.16 -2.3,-1.55 -3.6,-1.83 -5.2,-1.14 -1.2,0.49 -1.9,1.16 -2.5,2.32 -0.9,1.88 -1.7,2.16 -3.2,1.25 z M 166,44.52 c 1.7,-1.11 3.8,-3.44 4.4,-4.84 1.8,-3.57 0.2,-7.67 -3.4,-9.33 -1.1,-0.51 -1.5,-0.57 -3.1,-0.48 -2.3,0.13 -3.7,0.76 -5.3,2.32 -3.7,3.61 -2.5,9.58 2.6,12.12 1.3,0.67 2.8,1.04 3.5,0.86 0.3,-0.1 0.9,-0.35 1.3,-0.65 z"
             style="opacity:1;vector-effect:none;fill:#00000f;fill-opacity:1;fill-rule:nonzero;stroke:#010000;stroke-width:1.56776;stroke-linecap:round;stroke-linejoin:round;stroke-miterlimit:4;stroke-dasharray:none;stroke-dashoffset:0;stroke-opacity:1" />
        <path
             transform="matrix(0.7965,0,0,0.7965,-0.1222,0.1737)"
             inkscape:connector-curvature="0"
             id="path905"
             d="m 182.5,28.02 c -0.3,-0.35 -0.8,-1.21 -1.1,-1.92 -0.7,-2.07 -0.9,-2.18 -4.1,-2.18 -1.5,0 -2.8,-0.1 -3,-0.19 -0.2,-0.14 -0.3,-0.9 -0.3,-2.67 0.1,-3.32 0,-3.58 -2.1,-4.53 -1.8,-0.8 -2.5,-1.55 -2.5,-2.56 0,-0.65 0.7,-1.29 1.5,-1.29 2.3,0 3.3,-2.64 2.6,-6.261 -0.6,-2.468 -0.6,-2.387 0.7,-2.229 3.6,0.45 4.8,0.438 5.9,-0.05 1.2,-0.501 1.8,-1.458 1.8,-2.659 0,-0.5956 0.6,-1.3183 1.2,-1.3168 0.7,0 1.9,0.9698 2.3,2.0328 0.8,1.966 1,2.205 1.8,2.55 0.6,0.257 1.3,0.302 2.9,0.188 3,-0.225 2.9,-0.232 2.9,2.957 -0.1,3.218 0.1,3.598 2.1,4.338 3.4,1.23 3.4,3.14 0,4.37 -1.9,0.68 -2.1,1.12 -2.1,4.39 0,1.79 -0.1,2.6 -0.3,2.74 -0.1,0.1 -1.5,0.19 -3,0.19 -3.1,0 -3.4,0.14 -4,2.01 -0.4,1.3 -1.6,2.74 -2.2,2.74 -0.2,0 -0.6,-0.28 -1,-0.65 z m 2.8,-8.44 c 3.1,-1.01 4.6,-3.39 4,-6.16 -0.5,-2.4 -2.2,-4.152 -4.4,-4.685 -2.6,-0.631 -5.5,0.605 -6.7,2.895 -0.4,0.94 -0.6,3.58 -0.2,4.84 0.5,2.13 2.5,3.61 4.6,3.62 0.6,0 1.8,-0.23 2.7,-0.51 z"
             style="opacity:1;vector-effect:none;fill:#00000f;fill-opacity:1;fill-rule:nonzero;stroke:#010000;stroke-width:1.56776;stroke-linecap:round;stroke-linejoin:round;stroke-miterlimit:4;stroke-dasharray:none;stroke-dashoffset:0;stroke-opacity:1" />
        <path
             transform="matrix(0.7965,0,0,0.7965,-0.1222,0.1737)"
             inkscape:connector-curvature="0"
             id="path909"
             d="m 20.01,115.8 c -2.8,-2.6 -7.64,-7.4 -10.767,-10.5 L 3.568,99.58 14.4,88.75 25.23,77.91 36.06,88.75 46.9,99.58 41.11,105.4 c -6.05,6.1 -15.61,15.3 -15.87,15.3 -0.1,0 -2.44,-2.2 -5.23,-4.9 z m 7.36,1.1 c 1.06,-0.9 5.44,-5.2 9.78,-9.5 l 7.85,-7.87 -9.89,-9.88 -9.88,-9.88 -9.86,9.86 -9.867,9.87 7.607,7.6 c 7.37,7.5 11.64,11.5 12.12,11.5 0.13,0 1.09,-0.8 2.14,-1.7 z"
             style="opacity:1;vector-effect:none;fill:#00000f;fill-opacity:1;fill-rule:nonzero;stroke:#010000;stroke-width:1.56776;stroke-linecap:round;stroke-linejoin:round;stroke-miterlimit:4;stroke-dasharray:none;stroke-dashoffset:0;stroke-opacity:1" />
        <path
             transform="matrix(0.7965,0,0,0.7965,-0.1222,0.1737)"
             inkscape:connector-curvature="0"
             id="path911"
             d="M 58.09,79.79 C 56.27,78.08 51.47,73.35 47.42,69.29 L 40.07,61.92 50.9,51.09 61.74,40.25 72.51,51.03 83.29,61.81 75.06,70.06 C 66.58,78.54 62.04,82.9 61.63,82.9 c -0.13,0 -1.72,-1.39 -3.54,-3.11 z m 6.59,-1.39 c 1.43,-1.32 5.79,-5.61 9.69,-9.5 l 7.06,-7.09 -9.73,-9.74 c -5.35,-5.35 -9.84,-9.73 -9.97,-9.73 -0.12,0 -4.63,4.41 -10.02,9.79 l -9.79,9.8 7.59,7.55 c 9.17,9.11 11.54,11.33 12.11,11.33 0.24,0 1.62,-1.09 3.06,-2.41 z"
             style="opacity:1;vector-effect:none;fill:#00000f;fill-opacity:1;fill-rule:nonzero;stroke:#010000;stroke-width:1.56776;stroke-linecap:round;stroke-linejoin:round;stroke-miterlimit:4;stroke-dasharray:none;stroke-dashoffset:0;stroke-opacity:1" />
        <path
             transform="matrix(0.7965,0,0,0.7965,-0.1222,0.1737)"
             inkscape:connector-curvature="0"
             id="path913"
             d="M 97.77,45.1 C 97,44.73 94.25,42.11 87.29,35.06 82.1,29.83 77.85,25.49 77.85,25.42 c 0,-0.1 4.81,-4.94 10.71,-10.83 l 10.72,-10.72 10.82,10.84 10.8,10.84 -9.5,9.54 C 100.3,46.19 100.2,46.23 97.77,45.1 Z m 3.73,-2.34 c 2.2,-1.9 17.4,-17.01 17.4,-17.28 0,-0.1 -4.4,-4.58 -9.8,-9.96 l -9.82,-9.796 -9.85,9.846 -9.85,9.85 7.3,7.33 c 7.88,7.9 11.89,11.68 12.41,11.68 0.19,0 1.21,-0.75 2.21,-1.67 z"
             style="opacity:1;vector-effect:none;fill:#00000f;fill-opacity:1;fill-rule:nonzero;stroke:#010000;stroke-width:1.56776;stroke-linecap:round;stroke-linejoin:round;stroke-miterlimit:4;stroke-dasharray:none;stroke-dashoffset:0;stroke-opacity:1" />
        <path
             transform="matrix(0.7965,0,0,0.7965,-0.1222,0.1737)"
             inkscape:connector-curvature="0"
             id="path917"
             d="M 96,117.7 C 94.23,116 89.4,111.3 85.26,107.1 L 77.73,99.58 88.56,88.75 99.39,77.92 110.2,88.69 121,99.47 110.6,109.8 c -5.7,5.7 -10.62,10.5 -10.9,10.6 -0.45,0.2 -0.78,0 -3.7,-2.7 z m 5.1,-0.4 c 2.4,-2.3 17.8,-17.59 17.8,-17.83 0,-0.13 -4.4,-4.62 -9.8,-9.97 l -9.71,-9.73 -9.9,9.91 -9.91,9.9 6.14,6.12 c 7.09,7.2 13.14,12.9 13.58,12.9 0.16,0 1,-0.6 1.8,-1.3 z"
             style="opacity:1;vector-effect:none;fill:#00000f;fill-opacity:1;fill-rule:nonzero;stroke:#010000;stroke-width:1.56776;stroke-linecap:round;stroke-linejoin:round;stroke-miterlimit:4;stroke-dasharray:none;stroke-dashoffset:0;stroke-opacity:1" />
        <path
             transform="matrix(0.7965,0,0,0.7965,-0.1222,0.1737)"
             inkscape:connector-curvature="0"
             id="path919"
             d="M 135.7,81.62 C 134.4,80.97 132.6,79.35 124,70.59 l -8.6,-8.7 10.8,-10.82 10.9,-10.82 10.7,10.76 10.8,10.76 -8.8,8.96 c -4.8,4.91 -9.3,9.36 -10,9.85 -1.8,1.44 -2.8,1.67 -4.1,1.04 z M 140,78.4 c 1.4,-1.32 5.8,-5.61 9.7,-9.5 l 7.1,-7.09 -9.8,-9.74 c -5.3,-5.35 -9.8,-9.73 -9.9,-9.73 -0.2,0 -4.7,4.41 -10.1,9.79 l -9.8,9.8 7.5,7.43 c 8.9,8.88 11.7,11.45 12.3,11.45 0.2,0 1.6,-1.09 3,-2.41 z"
             style="opacity:1;vector-effect:none;fill:#00000f;fill-opacity:1;fill-rule:nonzero;stroke:#010000;stroke-width:1.56776;stroke-linecap:round;stroke-linejoin:round;stroke-miterlimit:4;stroke-dasharray:none;stroke-dashoffset:0;stroke-opacity:1" />
        <path
             transform="matrix(0.7965,0,0,0.7965,-0.1222,0.1737)"
             inkscape:connector-curvature="0"
             id="path927"
             d="m 171.1,118.6 c -1.3,-1.1 -6.1,-5.9 -10.8,-10.6 l -8.5,-8.52 10.7,-10.78 10.8,-10.79 10.9,10.85 10.8,10.85 -9.9,9.79 c -5.4,5.4 -10.2,10.1 -10.8,10.5 l -1,0.8 z m 6.8,-3.9 c 2.2,-2.2 6.6,-6.4 9.7,-9.5 l 5.5,-5.62 -9.9,-9.9 -9.9,-9.91 -9.7,9.73 c -5.4,5.35 -9.7,9.84 -9.7,9.97 0,0.25 15.6,15.93 17.9,17.93 0.7,0.7 1.5,1.2 1.6,1.2 0.2,0 2.2,-1.8 4.5,-3.9 z"
             style="opacity:1;vector-effect:none;fill:#00000f;fill-opacity:1;fill-rule:nonzero;stroke:#010000;stroke-width:1.56776;stroke-linecap:round;stroke-linejoin:round;stroke-miterlimit:4;stroke-dasharray:none;stroke-dashoffset:0;stroke-opacity:1" />
        <path
             transform="matrix(0.7965,0,0,0.7965,-0.1222,0.1737)"
             inkscape:connector-curvature="0"
             id="path931"
             d="M 133.6,155.3 C 132,153.8 127.1,149 123,144.8 l -7.6,-7.6 10.8,-10.8 10.9,-10.8 10.7,10.7 10.8,10.8 -5.2,5.2 c -12.4,12.5 -16,15.9 -16.5,15.9 -0.1,0 -1.6,-1.3 -3.3,-2.9 z m 6.2,-1.3 c 1.3,-1.3 5.6,-5.5 9.7,-9.6 l 7.3,-7.3 -9.8,-9.7 c -5.3,-5.4 -9.8,-9.7 -9.9,-9.7 -0.2,0 -4.7,4.4 -10.1,9.8 l -9.8,9.7 7.6,7.6 c 9.2,9.1 11.6,11.3 12.1,11.3 0.3,0 1.5,-0.9 2.9,-2.1 z"
             style="opacity:1;vector-effect:none;fill:#00000f;fill-opacity:1;fill-rule:nonzero;stroke:#010000;stroke-width:1.56776;stroke-linecap:round;stroke-linejoin:round;stroke-miterlimit:4;stroke-dasharray:none;stroke-dashoffset:0;stroke-opacity:1" />
        <path
             transform="matrix(0.7965,0,0,0.7965,-0.1222,0.1737)"
             inkscape:connector-curvature="0"
             id="path933"
             d="M 58.32,155.3 C 56.63,153.8 51.83,149 47.66,144.8 l -7.59,-7.6 10.83,-10.8 10.84,-10.8 10.77,10.7 10.78,10.8 -8.23,8.3 c -8.46,8.5 -13.02,12.8 -13.43,12.8 -0.12,0 -1.61,-1.3 -3.31,-2.9 z m 6.36,-1.6 c 1.43,-1.3 5.77,-5.6 9.62,-9.4 l 7.02,-7.1 -9.85,-9.8 -9.85,-9.9 -9.85,9.9 -9.85,9.8 6.2,6.3 c 7.86,7.9 12.95,12.6 13.51,12.6 0.23,0 1.61,-1.1 3.05,-2.4 z"
             style="opacity:1;vector-effect:none;fill:#00000f;fill-opacity:1;fill-rule:nonzero;stroke:#010000;stroke-width:1.56776;stroke-linecap:round;stroke-linejoin:round;stroke-miterlimit:4;stroke-dasharray:none;stroke-dashoffset:0;stroke-opacity:1" />
        <path
             transform="matrix(0.7965,0,0,0.7965,-0.1222,0.1737)"
             inkscape:connector-curvature="0"
             id="path935"
             d="m 96.02,191.8 c -1.65,-1.6 -6.47,-6.3 -10.7,-10.5 l -7.71,-7.7 10.83,-10.8 10.84,-10.8 10.82,10.8 10.8,10.8 -7,7 c -7.9,8.1 -14.17,14 -14.59,14 -0.16,0 -1.64,-1.3 -3.29,-2.8 z m 6.18,-1.5 c 3.7,-3.5 16.7,-16.4 16.7,-16.7 0,-0.3 -19.32,-19.6 -19.62,-19.6 -0.13,0 -4.61,4.4 -9.95,9.8 l -9.72,9.7 4.6,4.8 c 4.04,4.2 10.59,10.5 13.85,13.5 1.34,1.2 1.23,1.2 4.14,-1.5 z"
             style="opacity:1;vector-effect:none;fill:#00000f;fill-opacity:1;fill-rule:nonzero;stroke:#010000;stroke-width:1.56776;stroke-linecap:round;stroke-linejoin:round;stroke-miterlimit:4;stroke-dasharray:none;stroke-dashoffset:0;stroke-opacity:1" />
        <path
             transform="matrix(0.7965,0,0,0.7965,-0.1222,0.1737)"
             inkscape:connector-curvature="0"
             id="path937"
             d="m 171.4,196.8 c -1.1,-0.4 -4.5,-2.5 -5.8,-3.6 -1.3,-1.1 -1.8,-2.3 -2,-4.9 -0.3,-3.5 -0.7,-4.5 -2.1,-5.3 -1,-0.6 -1.4,-1.6 -1.7,-4.5 -0.3,-2.6 -0.7,-3.7 -1.6,-4.7 -0.7,-0.7 -0.9,-3.1 -0.6,-6.5 0.3,-4.6 0,-6.4 -2,-9.4 -2.5,-3.8 -2.6,-10.1 -0.3,-13.6 0.5,-0.8 1,-1.4 1.1,-1.4 0.2,0 0.4,1.5 0.6,5 0.1,4.1 1.3,6.9 3.5,8.6 1.5,1.2 2.9,1.4 5.4,0.8 4,-1 8.3,-1.1 15,-0.2 1,0.1 2,0.2 2.2,0.2 0.3,0 0.6,-0.7 1.3,-2.9 1.3,-3.8 1.6,-6.7 1.2,-9.2 -0.1,-1 -0.2,-1.9 -0.1,-2 0.2,-0.2 1.5,1.9 1.8,3 0.6,2.1 0.9,4.8 0.8,7.8 -0.1,3.1 -0.4,4.3 -1.4,5.6 -0.7,1.1 -0.7,2.8 0.3,5.9 1.1,3.6 1.1,5 -0.2,8.6 -0.7,1.9 -1,3.5 -1.2,5.1 -0.4,3.8 -0.4,3.8 -1.4,4.7 -0.4,0.5 -1.2,1.1 -1.6,1.4 -1.1,0.8 -1.7,2.1 -1.9,4.6 -0.1,1.2 -0.3,2.5 -0.5,2.8 -0.6,1.1 -1.9,2.1 -4.2,3.2 -2.5,1.2 -3.4,1.4 -4.6,0.9 z m 5.6,-6.6 c 1.6,-0.7 2.8,-2 2.8,-3.1 0,-1.1 -0.5,-1.2 -1.8,-0.1 -1.3,1.1 -2.6,1.4 -5,1.3 -2.2,-0.1 -3.4,-0.5 -5.6,-1.8 -1.6,-0.9 -2.9,-1.2 -2.9,-0.6 -0.1,0.6 0.1,1.2 0.4,1.7 0.7,1.2 3.3,2.6 5.8,3.1 1.6,0.3 4.9,0.1 6.3,-0.5 z m -3.4,-9.2 c 0.5,0.1 1.3,0.2 1.7,0.3 1,0.2 1,-0.1 0.2,-1.2 -1.4,-1.8 -2.3,-2.4 -3.5,-2.1 -0.7,0.2 -1.2,1.4 -1.2,2.8 0,1.4 0.4,1.7 1.1,0.8 0.6,-0.7 0.7,-0.7 1.7,-0.6 z m 6.9,-2.9 c 0.9,-0.5 1.6,-1.7 1.6,-2.6 0,-2 -2.3,-3.3 -4.4,-2.4 -1.2,0.6 -1.7,1.2 -1.7,2.5 0,2.4 2.4,3.8 4.5,2.5 z m -11.6,-1.2 c 1.4,-0.7 1.9,-2.1 1.2,-3.1 -0.6,-0.7 -2.3,-1.2 -4.6,-1.4 -3.4,-0.3 -3.9,0 -3.2,2.1 0.5,1.5 1.1,2.1 2.4,2.6 1,0.4 3.2,0.3 4.2,-0.2 z"
             style="opacity:1;vector-effect:none;fill:#00000f;fill-opacity:1;fill-rule:nonzero;stroke:#010000;stroke-width:1.56776;stroke-linecap:round;stroke-linejoin:round;stroke-miterlimit:4;stroke-dasharray:none;stroke-dashoffset:0;stroke-opacity:1" />
    </g>
    <g
         style="stroke:#000000;stroke-width:3.46939;stroke-miterlimit:4;stroke-dasharray:none;stroke-opacity:1"
         transform="matrix(0.0382,0,0,0.0381,0.0614,39.08)"
         id="g1223">
        <path
             style="stroke:#000000;stroke-width:3.46939;stroke-miterlimit:4;stroke-dasharray:none;stroke-opacity:1"
             d="m 147.4,328.3 c -4.8,-0.5 -14.4,-2 -21.2,-3.4 -12,-2.4 -12.6,-2.4 -19.7,-0.9 -24.46,5.2 -47.65,1.9 -66.68,-9.5 C 17.6,301.2 5.104,280.4 0.6273,249.2 -0.7328,239.7 0.0347,231.2 3.758,214.8 12.68,175.4 54.3,121.4 94.99,96.54 c 3.71,-2.27 7.11,-4.12 7.51,-4.12 2.1,0 2.9,-2.24 1.9,-5.01 -1.6,-4.31 0.3,-7.43 6.2,-10.16 4.6,-2.08 5.1,-2.65 5.1,-5.49 0,-2.95 -0.3,-3.22 -4.3,-3.88 C 106.1,66.99 94.62,62.9 90.22,60.3 78.9,53.62 82.51,41.19 96.62,38.27 c 5.88,-1.22 6.38,-1.5 7.78,-5.17 2.8,-6.91 13.3,-12.34 27.3,-14.15 4.1,-0.54 8,-2.2 15.7,-6.7 5.6,-3.285 13.5,-7.395 17.5,-9.128 6.6,-2.8494 8.3,-3.1483 17.3,-3.1203 12.4,0.0382 19.5,2.4633 24.9,8.4613 3.3,3.607 3.6,4.497 3.6,9.887 v 5.93 l 5.2,1.53 c 16.4,4.77 23.2,17.13 14.3,26 -3.6,3.59 -13.7,9.09 -24,13.04 -11.9,4.53 -21.5,8.8 -21.5,9.52 0,0.37 1.3,1.96 3,3.53 2.8,2.67 5.4,8.2 4.8,10.15 -0.4,1.22 3.2,6.37 4.4,6.37 2.1,0 24.9,19.98 39.3,34.38 17.2,17.2 25.2,27.1 34.7,42.7 21.6,35.5 26,81 10.7,112 -4.2,8.6 -13.2,18.9 -20.8,24.1 -4.1,2.8 -14.3,7.2 -19.6,8.5 -7.1,1.7 -10.8,2.2 -16.6,2.3 -6,0 -14.9,2.1 -17.5,4.1 -1.8,1.5 -17.4,4.8 -27.6,5.9 -11,1.2 -19.3,1.1 -32.1,-0.1 v 0"
             fill="none"
             stroke="#000000"
             stroke-width="0.329241"
             id="path1199" />
        <path
             style="stroke:#000000;stroke-width:3.46939;stroke-miterlimit:4;stroke-dasharray:none;stroke-opacity:1"
             d="m 183.2,316.5 c 6.6,-1.1 15.8,-3.3 20.5,-5 18.8,-6.7 24.8,-9 28.1,-11 5.3,-3.2 5.7,-2.5 1.1,2.2 -2.3,2.4 -4.2,4.6 -4.2,5.1 0,2.2 19.6,-2.9 26.7,-7 10.4,-6 19,-18.5 23.5,-33.9 2,-6.9 2.3,-10.2 2.2,-24.5 0,-14.1 -0.4,-18.1 -2.6,-27.5 -4.4,-18.7 -10.9,-32.7 -23.3,-50 -13.8,-19.1 -32.9,-38.6 -56.4,-57.6 -26.7,-21.4 -35.4,-22.13 -24.4,-2 l 4.6,8.5 -4.9,-3.5 c -2.7,-1.9 -6.3,-5.6 -7.9,-8.3 -1.7,-2.68 -4.6,-6.6 -6.6,-8.72 -5.4,-5.75 -11.4,-5.37 -18.4,1.17 -3,2.78 -14.5,9.45 -14.5,8.35 0,-0.3 1.3,-2.5 3,-4.88 5.5,-7.95 3.3,-9.52 -8.1,-5.9 -26.81,8.48 -63.41,41.48 -87.07,78.38 -26.349,41.2 -31.543,75 -16.24,105.9 8.35,16.9 23.43,29.7 42.25,35.9 6.76,2.2 9.43,2.6 22.82,2.6 8.34,0.1 15.51,-0.2 15.94,-0.7 0.42,-0.4 -0.78,-2 -2.67,-3.7 -1.89,-1.6 -3.07,-2.9 -2.63,-2.9 0.45,-0.1 6.1,1.2 12.5,2.8 6.4,1.6 17.3,3.9 24.2,5.1 6.9,1.2 13.2,2.3 14,2.5 5.4,1.1 28,0.3 38.5,-1.4 v 0"
             fill="none"
             stroke="#000000"
             stroke-width="0.329241"
             id="path1201" />
        <path
             style="stroke:#000000;stroke-width:3.46939;stroke-miterlimit:4;stroke-dasharray:none;stroke-opacity:1"
             d="m 133.6,84.49 c 17.1,-3.43 35,-2.31 46.9,2.94 5.7,2.52 6.2,2.49 6.2,-0.34 0,-4.17 -6.1,-8.3 -16,-10.79 -8.5,-2.14 -34.5,-1.85 -44.5,0.48 -13.6,3.18 -18.1,6.51 -15.1,11.15 l 1.5,2.22 5.3,-1.79 c 2.9,-0.99 10,-2.73 15.7,-3.87"
             fill="none"
             stroke="#000000"
             stroke-width="0.329241"
             id="path1203" />
        <path
             style="stroke:#000000;stroke-width:3.46939;stroke-miterlimit:4;stroke-dasharray:none;stroke-opacity:1"
             d="m 137.9,70.44 c 2.6,0 4.9,-0.46 5.3,-0.99 0.9,-1.44 -4.1,-2.42 -12.3,-2.45 -6,0 -7.5,0.32 -9.3,2.09 -3.3,3.33 -1.7,4.16 5.3,2.69 3.5,-0.73 8.4,-1.33 11,-1.34 v 0"
             fill="none"
             stroke="#000000"
             stroke-width="0.329241"
             id="path1205" />
        <path
             style="stroke:#000000;stroke-width:3.46939;stroke-miterlimit:4;stroke-dasharray:none;stroke-opacity:1"
             d="m 169,67.11 c 2.9,-1.89 23.8,-27.83 30.2,-37.41 7.1,-10.84 6.5,-17.58 -2.2,-21.883 -3,-1.52 -6,-1.898 -14.8,-1.894 -10.5,0 -11.3,0.147 -17.5,3.377 -3.6,1.86 -9.5,5.29 -13.1,7.64 -9.7,6.25 -10.3,6.52 -20.1,8.51 -11.6,2.38 -17.5,5.26 -19.5,9.5 -1.5,3.15 -1.5,3.52 1.4,9.62 1.7,3.49 5.3,9.05 8,12.35 l 4.9,6 6.5,0.29 c 8.6,0.38 9.2,-0.36 7.9,-9.41 -1.2,-8.38 -1.2,-10.38 -0.2,-10.38 0.4,0 1.6,2.98 2.6,6.62 2.8,9.76 6.2,15.98 9.4,17.22 6.3,2.46 12.6,2.4 16.5,-0.15 v 0"
             fill="none"
             stroke="#000000"
             stroke-width="0.329241"
             id="path1207" />
        <path
             style="stroke:#000000;stroke-width:3.46939;stroke-miterlimit:4;stroke-dasharray:none;stroke-opacity:1"
             d="m 189.5,65.03 c 1.5,-0.76 7.6,-3.23 13.6,-5.48 12.8,-4.81 18.4,-7.94 22,-12.19 3.4,-4.02 3.3,-6.1 -0.5,-10.4 -2.2,-2.53 -4.8,-4.07 -9.2,-5.41 -3.4,-1.04 -6.6,-1.7 -7.2,-1.47 -0.5,0.22 -2.5,2.63 -4.4,5.34 -1.8,2.71 -6.9,9.1 -11.3,14.21 -8.7,10.09 -10.4,12.83 -9.5,15.22 0.8,1.94 3,2 6.5,0.18 v 0"
             fill="none"
             stroke="#000000"
             stroke-width="0.329241"
             id="path1209" />
    </g>
    <text
         id="text2228"
         y="46.4"
         x="5.612"
         style="font-size:3.5272px;line-height:1;font-family:'Cascadia Code';-inkscape-font-specification:'Cascadia Code';text-align:center;letter-spacing:0px;word-spacing:0px;text-anchor:middle;stroke-width:0.2645"
         xml:space="preserve"><tspan
             style="text-align:center;text-anchor:middle;stroke-width:0.2645"
             y="46.4"
             x="5.612"
             id="tspan2226"
             sodipodi:role="line">GP</tspan><tspan
             id="tspan2230"
             style="text-align:center;text-anchor:middle;stroke-width:0.2645"
             y="49.93"
             x="5.612"
             sodipodi:role="line">90.2</tspan></text>
    <g
         id="g4988">
        <path
             id="path2489"
             stroke-width="0.264782"
             stroke-opacity="1"
             stroke="#000000"
             fill-opacity="1"
             fill="#ffffff"
             class="selected"
             d="m 96.85,4.899 c -0.52,0 -1.03,0.11 -1.48,0.297 -0.39,0.132 -0.73,0.506 -1.01,0.813 -0.14,0.165 -0.27,0.341 -0.4,0.484 h 0.64 c 0.27,-0.264 0.62,-0.692 0.97,-0.846 0.77,-0.33 1.77,-0.33 2.55,0 0.4,0.23 0.69,0.538 0.96,0.846 h 0.69 C 99.55,6.35 99.44,6.174 99.33,6.009 99.06,5.702 98.71,5.328 98.32,5.196 97.86,4.998 97.35,4.899 96.85,4.899 Z"
             style="fill:#000000;fill-opacity:1;stroke:none;stroke-width:0.105773;stroke-miterlimit:4;stroke-dasharray:none;stroke-opacity:1" />
        <path
             style="fill:#bf9259;stroke:#000000;stroke-width:0.3175;stroke-miterlimit:4;stroke-dasharray:none;stroke-opacity:1;fill-opacity:1"
             id="path2491"
             fill-opacity="1"
             fill="#ffffff"
             class=""
             d="m 93.62,6.636 c -0.47,0.121 -1.1,0.703 -1.11,1.176 v 0 c 0,1.593 0.73,2.568 1.64,3.198 0.62,0.41 1.32,0.64 1.91,0.76 v -1.35 h 1.54 v 1.35 c 0.59,-0.12 1.29,-0.35 1.95,-0.76 0.85,-0.63 1.65,-1.605 1.65,-3.198 0,-0.473 -0.8,-1.121 -1.1,-1.176 z" />
        <path
             style="fill:#bf9259;stroke:#000000;stroke-width:0.3174;stroke-miterlimit:4;stroke-dasharray:none;stroke-opacity:1;fill-opacity:1"
             id="path2493"
             stroke-width="0.529566"
             stroke-opacity="1"
             stroke="#000000"
             fill="url(#gradient-4)"
             class=""
             d="m 92.51,9.218 v 9.822 h 8.69 v -9.8 c -0.3,0.77 -0.9,1.36 -1.43,1.79 -0.7,0.6 -1.49,0.91 -2.17,1.05 v 1.25 H 96.06 V 12.08 C 95.4,11.94 94.6,11.63 93.88,11.03 93.34,10.6 92.85,9.999 92.49,9.218 Z" />
        <path
             id="path2495"
             stroke-width="0.529566"
             stroke-opacity="1"
             stroke="#000000"
             fill-opacity="1"
             fill="#000000"
             class=""
             d="m 96.56,10.93 v 1.84 h 0.52 v -1.84 z"
             style="fill:#ffd42a;stroke:#000000;stroke-width:0.31741;stroke-miterlimit:4;stroke-dasharray:none;stroke-opacity:1" />
        <g
             style="stroke-width:0.909658"
             id="g4943"
             transform="matrix(1.099,0,0,1.099,-10.46,-8.917)">
            <path
                 style="fill:#000000;fill-opacity:1;stroke:none;stroke-width:0.0962419;stroke-miterlimit:4;stroke-dasharray:none;stroke-opacity:1"
                 d="m 94.17,21.85 h 2.97 v 3.07 h -2.97 z"
                 class=""
                 fill="#000000"
                 fill-opacity="1"
                 stroke="#000000"
                 stroke-opacity="1"
                 stroke-width="0.529566"
                 id="path2497" />
            <path
                 d="m 94.64,22.33 v 0.55 c 0.38,0.57 0.72,0.8 1.01,0.8 0.29,0 0.64,-0.23 1.02,-0.8 v -0.55 z"
                 class=""
                 fill="#ffffff"
                 fill-opacity="1"
                 id="path2501"
                 style="fill:#654321;fill-opacity:1;stroke:#654321;stroke-width:0.1204;stroke-miterlimit:4;stroke-dasharray:none;stroke-opacity:1" />
            <path
                 d="m 94.64,23.64 v 0.79 h 2.03 v -0.79 c -0.31,0.34 -0.65,0.52 -1.02,0.52 -0.36,0 -0.7,-0.18 -1.01,-0.52 z"
                 class=""
                 fill="url(#gradient-10)"
                 id="path2505"
                 style="fill:#654321;fill-opacity:1;stroke:#654321;stroke-width:0.1204;stroke-miterlimit:4;stroke-dasharray:none;stroke-opacity:1" />
        </g>
        <g
             id="g4948"
             style="fill:#000000;fill-opacity:1;stroke-width:0.909658"
             transform="matrix(1.099,0,0,1.099,-10.46,-8.917)">
            <path
                 style="fill:#000000;fill-opacity:1;stroke:#000000;stroke-width:0.0962419;stroke-miterlimit:4;stroke-dasharray:none;stroke-opacity:1"
                 d="m 98.13,21.85 h 2.97 v 3.07 h -2.97 z"
                 class=""
                 fill="#000000"
                 fill-opacity="1"
                 stroke="#000000"
                 stroke-opacity="1"
                 stroke-width="4.2365"
                 id="path2499" />
            <path
                 d="m 98.6,22.33 v 0.55 c 0.39,0.57 0.73,0.8 1.02,0.8 0.29,0 0.68,-0.23 0.98,-0.8 v -0.55 z"
                 class=""
                 fill="#ffffff"
                 fill-opacity="1"
                 id="path2503"
                 style="fill:#654321;fill-opacity:1;stroke:#654321;stroke-width:0.1204;stroke-miterlimit:4;stroke-dasharray:none;stroke-opacity:1" />
            <path
                 d="m 98.6,23.64 v 0.79 h 2 v -0.79 c -0.3,0.34 -0.61,0.52 -0.98,0.52 -0.36,0 -0.7,-0.18 -1.02,-0.52 z"
                 class=""
                 fill="url(#gradient-11)"
                 stroke="#000000"
                 stroke-opacity="1"
                 stroke-width="0.529566"
                 id="path2507"
                 style="fill:#654321;fill-opacity:1;stroke:#654321;stroke-width:0.1204;stroke-miterlimit:4;stroke-dasharray:none;stroke-opacity:1" />
        </g>
    </g>
    <text
         id="text4822"
         y="6.348"
         x="101.6"
         style="font-size:2.6454px;line-height:1;font-family:'Cascadia Code';-inkscape-font-specification:'Cascadia Code';letter-spacing:0px;word-spacing:0px;stroke-width:0.2645"
         xml:space="preserve"><tspan
             style="stroke-width:0.2645;"
             y="6.348"
             x="101.6"
             id="tspan4820"
             sodipodi:role="line">Disguise Kit<tspan
     id="tspan4838"
     style="baseline-shift:super;">*</tspan></tspan><tspan
             id="tspan4836"
             style="stroke-width:0.2645;"
             y="8.817"
             x="101.6"
             sodipodi:role="line">  cosmetics, hair dye, small visual props</tspan><tspan
             id="tspan4824"
             style="stroke-width:0.2645;"
             y="11.29"
             x="101.6"
             sodipodi:role="line">Explorer's Pack</tspan><tspan
             id="tspan4921"
             style="stroke-width:0.2645;"
             y="13.75"
             x="101.6"
             sodipodi:role="line">  pack, bedroll, mess kit, 10 days of rations </tspan><tspan
             id="tspan4923"
             style="stroke-width:0.2645;"
             y="16.22"
             x="101.6"
             sodipodi:role="line">  10 torches, tinderbox, waterskin, 50' hemp rope</tspan><tspan
             id="tspan4925"
             style="stroke-width:0.2645;"
             y="18.69"
             x="101.6"
             sodipodi:role="line">Forgery Kit</tspan><tspan
             id="tspan4840"
             style="stroke-width:0.2645;"
             y="21.16"
             x="101.6"
             sodipodi:role="line">  papers, parchments, pens, inks, seals &amp; wax, </tspan><tspan
             id="tspan4842"
             style="stroke-width:0.2645;"
             y="23.63"
             x="101.6"
             sodipodi:role="line">  gold &amp; silver leaf, &amp; other supplies</tspan><tspan
             id="tspan4834"
             style="stroke-width:0.2645;"
             y="26.1"
             x="101.6"
             sodipodi:role="line">Piton (10)</tspan><tspan
             id="tspan4932"
             style="stroke-width:0.2645;"
             y="28.57"
             x="101.6"
             sodipodi:role="line">Potions</tspan><tspan
             id="tspan4936"
             style="stroke-width:0.2645;"
             y="31.03"
             x="101.6"
             sodipodi:role="line">  Greater Healing (1): 4d4+4</tspan></text>
    <path
         transform="matrix(0.2645,0,0,0.2645,-0.0047,0)"
         id="path5000"
         d="m 312.4,65.48 c -1.8,0 -3.2,0 -3.3,-0.1 -0.3,-0.1 -0.7,-0.37 -0.9,-0.7 l -0.1,-0.19 v -6.2 c 0,-6.22 0,-6.99 0.1,-7.32 0.1,-0.18 0.2,-0.24 0.4,-0.37 0.2,-0.1 0.3,-0.1 1,-0.14 1.2,-0.1 13.6,0 13.8,0 0.3,0.1 0.6,0.3 0.7,0.5 0.1,0.42 0.1,1.35 0.1,7.44 v 6.05 l -0.2,0.22 c 0,0.11 -0.2,0.28 -0.3,0.38 -0.4,0.28 -0.5,0.32 -1.8,0.34 -2.1,0 -6.4,0 -9.5,0 z m 8.3,-0.44 c 1.2,0 2.4,-0.1 2.5,-0.1 0.2,0 0.3,-0.16 0.4,-0.32 0.2,-0.2 0.2,-0.73 0.2,-4.49 V 56.5 l -0.6,0.54 c -0.8,0.79 -1.6,1.25 -2.2,1.42 -0.2,0.1 -1.8,0.15 -2.8,0.15 h -0.3 v 0.5 c 0,0.41 0,0.52 -0.1,0.64 -0.1,0.3 -0.1,0.3 -1.7,0.3 -1.2,0 -1.3,0 -1.4,-0.1 -0.3,-0.15 -0.3,-0.27 -0.3,-0.82 l -0.1,-0.51 h -0.9 c -1.7,-0.1 -2,-0.1 -2.5,-0.26 -0.5,-0.23 -1.1,-0.65 -1.8,-1.3 l -0.6,-0.56 v 3.93 c 0,4.28 0,4.1 0.2,4.34 0.3,0.23 0.4,0.25 1.2,0.27 1.4,0 8.3,0 10.8,0 z m -3.2,-7 v -1.75 h -1.4 -1.3 v 1.75 1.74 h 1.3 1.4 z m 2.7,0.1 c 0.7,0 0.9,-0.1 1.3,-0.28 0.8,-0.38 1.7,-1.3 2.1,-2.12 0.1,-0.41 0.2,-0.79 0.2,-2.57 l 0.1,-1.63 -0.4,-0.34 -0.3,-0.35 h -7.1 -7 l -0.3,0.35 -0.4,0.34 0.1,1.55 c 0,1.51 0.1,2 0.2,2.44 0.1,0.8 1.1,1.85 1.9,2.27 0.6,0.29 1,0.35 2.5,0.38 h 1.3 v -0.97 -0.97 l 0.1,-0.2 0.2,-0.19 h 1.4 1.5 l 0.2,0.19 0.1,0.2 v 0.99 0.99 h 0.8 c 0.5,0 1.1,0 1.5,-0.1 z"
         style="opacity:1;fill:#000000;fill-opacity:1;stroke:#000000;stroke-width:0.1;stroke-miterlimit:4;stroke-dasharray:none;stroke-opacity:1;stop-color:#000000" />
    <path
         transform="matrix(0.2645,0,0,0.2645,-0.0047,0)"
         id="path5006"
         d="m 303.2,67.25 v -2 h -1.4 c -1.5,0 -2.3,-0.1 -2.6,-0.24 -0.1,-0.1 -0.4,-0.27 -0.5,-0.44 l -0.3,-0.31 v -2.37 c -0.1,-2.59 0,-2.65 0.4,-3.56 0.6,-1.39 2,-2.56 3.6,-2.96 0.7,-0.18 0.8,-0.26 0.8,-0.52 0,-0.19 -0.1,-0.2 -0.3,-0.21 -1.1,-0.1 -2.5,0.55 -3.4,1.4 -0.3,0.38 -0.9,1.2 -1.1,1.65 -0.2,0.58 -0.5,0.78 -0.7,0.5 -0.2,-0.17 -0.1,-0.41 0.2,-1.1 0.4,-0.83 0.9,-1.45 1.6,-2 0.8,-0.64 2.3,-1.16 3.3,-1.16 h 0.4 v -1.6 c 0,-0.88 0.1,-2.96 0.1,-4.63 v -3.02 l 0.3,-0.63 c 0.1,-0.35 0.3,-0.67 0.3,-0.72 -0.1,-0.1 -0.4,0 -1.3,0.32 -1.3,0.45 -1.6,0.5 -2,0.28 -0.3,-0.2 -0.3,-0.26 -0.3,-4.07 l -0.1,-3.47 h -0.5 c -0.3,0 -0.6,-0.1 -0.7,-0.11 -0.1,-0.11 -0.1,-0.49 0.5,-3.86 0.7,-3.6 0.9,-4.49 1.1,-4.72 0.3,-0.32 0.5,-0.25 5.1,1.31 1.5,0.53 2.9,1.01 3.2,1.07 l 0.4,0.11 0.3,-0.17 c 0.1,-0.1 0.3,-0.2 0.4,-0.25 0.3,-0.14 1,-0.13 1.3,0 0.2,0.1 0.3,0.19 0.6,0.62 0.1,0.13 0.2,0.14 0.4,0.1 0.5,-0.1 4.2,-0.14 6.3,-0.1 1,0 1.9,0.1 2,0.1 0.2,0 0.2,0 0.2,-0.18 0.1,-0.27 0.1,-0.32 0.4,-0.47 0.3,-0.17 1,-0.23 1.4,-0.12 0.2,0 0.4,0.15 0.5,0.26 0.1,0.1 0.2,0.18 0.2,0.18 0.2,0 1.6,-0.51 4,-1.39 3.5,-1.35 3.6,-1.37 3.9,-1.17 0.3,0.17 0.4,0.55 0.6,1.52 1.2,6.59 1.3,7.08 1.2,7.16 -0.1,0 -0.3,0.1 -0.7,0.1 h -0.5 v 2.16 c -0.1,3.08 -0.1,4.66 -0.3,5 -0.2,0.5 -0.5,0.62 -1.2,0.41 -0.3,-0.1 -1.2,-0.43 -2,-0.76 0,0 0.1,0.25 0.2,0.58 0.5,1.04 0.5,0.94 0.6,5.85 v 4.34 l 0.7,0.1 c 1.2,0.11 2.6,0.66 3.2,1.24 0.9,0.8 1.8,2.45 1.7,2.9 -0.1,0.17 -0.3,0.26 -0.4,0.19 -0.1,0 -0.3,-0.3 -0.4,-0.58 -0.7,-1.34 -1.4,-2.11 -2.6,-2.67 -0.7,-0.36 -1.9,-0.61 -2.1,-0.44 -0.2,0.1 -0.2,0.39 0,0.51 0,0 0.3,0.15 0.7,0.22 1,0.25 1.8,0.76 2.6,1.55 0.5,0.51 0.8,0.97 1.2,1.74 l 0.2,0.57 0.1,2.48 v 2.48 l -0.4,0.35 c -0.2,0.2 -0.4,0.43 -0.6,0.52 l -0.3,0.17 h -1.8 -1.8 v 1.97 1.96 h -0.4 -0.4 V 57.15 45.06 l -0.2,-0.41 c -0.6,-1.23 -1.6,-2.11 -2.7,-2.27 -0.2,0 -0.8,-0.1 -1.2,-0.1 l -0.9,-0.1 v 3.57 c 0,3.95 0,3.68 -0.4,3.89 -0.3,0.12 -0.7,0.16 -0.8,0.1 0,0 0,-0.19 -0.1,-0.35 v -0.3 h 0.3 0.2 V 39.7 30.28 h -0.4 -0.5 v 3.28 c -0.1,1.81 -0.1,5.98 -0.1,9.26 v 5.99 l -0.2,0.1 c -0.2,0.1 -0.3,0.1 -0.4,0 0,0 -0.1,-1.03 -0.1,-3.37 v -3.31 h -4.4 -4.5 v 2.84 2.84 h -0.4 -0.4 V 39.1 30.29 h -0.5 -0.5 v 9.29 c 0,5.31 0,9.38 0.1,9.49 0,0.1 0.1,0.21 0.2,0.25 0.1,0 0.1,0.11 0.1,0.26 0,0.2 0,0.21 -0.2,0.21 -0.2,0 -0.7,-0.18 -0.8,-0.34 -0.1,-0.1 -0.1,-0.74 -0.1,-3.67 v -3.57 h -1.1 c -0.6,0 -1.3,0.1 -1.6,0.13 -1.2,0.25 -2.2,1.23 -2.6,2.47 -0.1,0.33 -0.1,0.91 -0.1,12.37 l -0.1,12.01 h -0.3 -0.4 z m 0,-6.98 v -4.29 h -0.3 c -1.1,0.13 -2.5,1.01 -3.2,2.08 -0.6,0.93 -0.7,1.99 -0.7,4.3 0.1,1.36 0.1,1.67 0.3,1.92 0.1,0.14 0.2,0.15 1,0.19 0.5,0 1.4,0 1.9,0 h 1 z m 29.6,4.15 c 0.4,-0.24 0.4,-0.38 0.4,-2.58 0,-2.23 0,-2.4 -0.4,-3.25 -0.7,-1.32 -2,-2.27 -3.5,-2.5 h -0.2 v 4.26 4.26 h 1.8 c 1.6,0 1.8,0 1.9,-0.14 z M 301.6,43.21 c 0.5,-0.26 1,-0.72 6,-5.66 l 1.2,-1.17 h -1.1 -1.2 L 305,37.8 c -0.8,0.78 -2.1,1.99 -2.8,2.69 l -1.3,1.28 0.1,0.67 c 0,0.88 0.1,1.03 0.6,0.78 z m 29.3,-1.03 c 0.1,-0.52 0,-0.93 0,-0.93 -0.1,0 -1.5,1.39 -1.5,1.48 0,0.1 0.3,0.22 0.9,0.42 0.6,0.21 0.6,0.21 0.6,-0.97 z m -1.1,-0.92 1.1,-1.16 v -1.05 c 0,-0.58 0,-1.05 0,-1.05 -0.1,0 -3,2.78 -3.5,3.36 -0.4,0.4 -0.4,0.45 -0.3,0.56 0.1,0.1 1.2,0.51 1.4,0.51 0,0 0.6,-0.5 1.3,-1.17 z m -24.4,0.61 c 1.7,-0.56 1.9,-0.67 2.5,-1.2 0.6,-0.62 0.7,-0.68 1.1,-0.63 h 0.4 v -1.55 c 0,-0.9 0,-1.54 -0.1,-1.52 -0.1,0 -5.2,5.13 -5.2,5.21 0,0.1 0,0.1 0,0.1 0,0 0.6,-0.2 1.3,-0.44 z m 4,-0.37 c 0,-0.15 0,-0.19 -0.1,-0.19 -0.2,0 -0.3,0.15 -0.2,0.28 0.2,0.16 0.3,0.11 0.3,-0.1 z m 2.8,0.11 c 0.1,-0.13 8.2,-0.12 8.4,0 0.1,0.1 0.2,0 0.2,-0.31 0,-0.29 -0.1,-0.39 -0.3,-0.29 -0.1,0.1 -1.1,0.1 -4.3,0.1 h -4.3 v 0.16 c 0,0.4 0.1,0.55 0.3,0.38 z m 14.5,-0.69 c 0.9,-0.78 4.2,-4.04 4.2,-4.23 0.1,-0.28 0,-0.32 -1,-0.32 h -1 l -2.3,2.23 c -1.2,1.24 -2.2,2.26 -2.2,2.28 0,0 0.3,0.14 0.6,0.28 0.6,0.22 0.8,0.29 1,0.32 0,0 0.3,-0.26 0.7,-0.57 z m -17.3,-0.29 c 0,-0.18 0,-0.2 -0.2,-0.18 -0.1,0 -0.2,0.2 -0.1,0.33 0.1,0.14 0.2,0.1 0.3,-0.15 z m 14.7,-0.55 c 0.3,-0.32 1.3,-1.28 2.2,-2.14 l 1.6,-1.57 h -1.2 -1.2 l -0.2,0.19 c -0.1,0.11 -0.4,0.48 -0.8,0.82 -0.5,0.49 -0.7,0.62 -0.9,0.62 -0.1,0 -0.2,0 -0.2,0.11 -0.1,0.16 -0.1,2.59 0,2.56 0,0 0.3,-0.27 0.7,-0.59 z m -20.7,-1.75 c 1,-0.97 1.9,-1.8 1.9,-1.86 0.1,-0.1 0,-0.1 -1.1,-0.1 H 303 l -1,1.04 -1.1,1.05 v 1.09 1.08 l 0.4,-0.27 c 0.2,-0.15 1.1,-1.06 2.1,-2.03 z m 17.4,2.03 c 0,-0.2 0,-3.39 0,-3.74 -0.1,-0.44 -0.2,-0.41 -0.9,0.21 -1,0.89 -3.6,3.49 -3.6,3.55 0,0 0.4,0 1,0 1.3,0 1.2,0 1.9,-0.64 0.8,-0.65 0.9,-0.72 1.1,-0.48 0.2,0.17 0.1,0.38 -0.4,0.74 -0.2,0.16 -0.3,0.3 -0.3,0.31 0.1,0 0.8,0.13 0.9,0.14 0.2,0 0.3,0 0.3,-0.13 z m -3.6,-1.96 2,-2.02 h -1.2 -1.2 l -2.1,2.03 -2,2.03 h 1.2 1.2 z m -4.2,0.78 c 1.1,-1.01 2.6,-2.61 2.6,-2.7 -0.1,-0.1 -0.4,-0.1 -1.1,-0.1 h -1.1 l -0.4,0.31 c -0.5,0.48 -0.6,0.53 -0.8,0.44 -0.3,-0.16 -0.3,0 -0.3,1.33 0,0.7 0,1.31 0.1,1.38 0,0.1 0,0.1 0.1,0.1 0,0 0.4,-0.33 0.9,-0.75 z m 11,-2.34 c 0.2,-0.22 0.4,-0.42 0.4,-0.43 0,0 -0.3,0 -0.6,-0.1 h -0.5 v 0.4 c 0,0.22 0,0.46 0.1,0.54 0,0.18 0.1,0.13 0.6,-0.39 z m -22.4,-0.1 0.4,-0.38 h -0.5 -0.5 v 0.34 c -0.1,0.62 0,0.62 0.6,0 z m 7.7,-0.19 c 0,-0.17 0,-0.22 -0.1,-0.23 -0.2,0 -0.2,0.14 -0.1,0.34 0.1,0.2 0.2,0.16 0.2,-0.11 z m 0,-0.78 c 0.1,-0.16 0.1,-4.86 0,-4.96 0,-0.1 -0.2,-0.1 -0.3,-0.1 -0.2,0 -0.7,-0.12 -1.1,-0.27 -0.4,-0.14 -1.1,-0.35 -1.5,-0.47 -0.8,-0.22 -2.7,-0.87 -4.4,-1.47 -0.5,-0.18 -0.9,-0.31 -0.9,-0.29 -0.1,0.1 -1.4,7.28 -1.3,7.35 0,0 2.1,0.1 4.6,0.1 3.5,0 4.5,0.1 4.7,0.14 0.2,0.1 0.2,0.1 0.2,0 z m 11.5,-0.38 c 0.1,-0.76 0,-4.31 -0.1,-4.41 -0.1,-0.1 -0.1,-0.1 -0.4,0 -0.4,0.1 -7.5,0.1 -7.9,0 -0.3,-0.1 -0.3,-0.1 -0.4,0 -0.1,0.1 -0.1,0.79 -0.1,2.4 v 2.31 h 4.3 c 3.3,0 4.3,0 4.4,0.1 0.1,0.14 0.1,0.1 0.2,-0.4 z m 10.8,0.24 h 0.6 l -0.3,-1.69 c -0.5,-2.45 -0.8,-4.42 -1,-5.05 -0.1,-0.46 -0.1,-0.54 -0.2,-0.54 -0.1,0 -1,0.32 -2.1,0.71 -2.9,1.11 -4.7,1.68 -5,1.64 h -0.3 v 2.53 2.52 h 3.9 c 2.2,0 4.1,0 4.4,0 z"
         style="opacity:1;fill:#000000;fill-opacity:1;stroke:#000000;stroke-width:0.1;stroke-miterlimit:4;stroke-dasharray:none;stroke-opacity:1;stop-color:#000000" />
</svg>
