<?xml version="1.0" encoding="UTF-8" standalone="no"?>
<svg
   xmlns:osb="http://www.openswatchbook.org/uri/2009/osb"
   xmlns:dc="http://purl.org/dc/elements/1.1/"
   xmlns:cc="http://creativecommons.org/ns#"
   xmlns:rdf="http://www.w3.org/1999/02/22-rdf-syntax-ns#"
   xmlns:svg="http://www.w3.org/2000/svg"
   xmlns="http://www.w3.org/2000/svg"
   xmlns:sodipodi="http://sodipodi.sourceforge.net/DTD/sodipodi-0.dtd"
   xmlns:inkscape="http://www.inkscape.org/namespaces/inkscape"
   width="8.1000004in"
   height="10.6in"
   viewBox="0 0 205.73999 269.24001"
   version="1.1"
   id="svg1254"
   inkscape:version="1.0beta2 (2b71d25, 2019-12-03)"
   sodipodi:docname="faith.svg">
  <defs
     id="defs1248">
    <linearGradient
       osb:paint="solid"
       id="linearGradient3850">
      <stop
         id="stop3848"
         offset="0"
         style="stop-color:#3771c8;stop-opacity:1;" />
    </linearGradient>
    <linearGradient
       osb:paint="solid"
       id="linearGradient1753">
      <stop
         id="stop1751"
         offset="0"
         style="stop-color:yellow;stop-opacity:1;" />
    </linearGradient>
    <linearGradient
       id="gradient-4">
      <stop
         id="stop958"
         stop-opacity="1"
         stop-color="#ffffff"
         offset="0%" />
      <stop
         id="stop960"
         stop-opacity="1"
         stop-color="#c9c9c9"
         offset="100%" />
    </linearGradient>
    <linearGradient
       id="gradient-10"
       y2="1"
       y1="0"
       x2="0"
       x1="0">
      <stop
         id="stop963"
         stop-opacity="1"
         stop-color="#fff"
         offset="0%" />
      <stop
         id="stop965"
         stop-opacity="1"
         stop-color="#9b9b9b"
         offset="100%" />
    </linearGradient>
    <linearGradient
       id="gradient-11"
       y2="1"
       y1="0"
       x2="0"
       x1="0">
      <stop
         id="stop968"
         stop-opacity="1"
         stop-color="#000000"
         offset="0%" />
      <stop
         id="stop970"
         stop-opacity="1"
         stop-color="#000000"
         offset="100%" />
    </linearGradient>
    <linearGradient
       gradientUnits="userSpaceOnUse"
       y2="270.10001"
       x2="207.5"
       y1="270.10001"
       x1="149.5"
       gradientTransform="scale(1.384,0.7228)"
       id="gradient-4-3">
      <stop
         id="stop1004"
         stop-opacity="1"
         stop-color="#ffffff"
         offset="0%" />
      <stop
         id="stop1006"
         stop-opacity="1"
         stop-color="#c9c9c9"
         offset="100%" />
    </linearGradient>
    <linearGradient
       gradientUnits="userSpaceOnUse"
       id="gradient-10-6"
       y2="278.60001"
       y1="254.60001"
       x2="407.10001"
       x1="407.10001">
      <stop
         id="stop1009"
         stop-opacity="1"
         stop-color="#fff"
         offset="0%" />
      <stop
         id="stop1011"
         stop-opacity="1"
         stop-color="#9b9b9b"
         offset="100%" />
    </linearGradient>
    <linearGradient
       id="gradient-4-36"
       gradientTransform="scale(1.1576206,0.8638409)"
       x1="24.186476"
       y1="73.173103"
       x2="186.58963"
       y2="73.173103"
       gradientUnits="userSpaceOnUse">
      <stop
         offset="0%"
         stop-color="#ffffff"
         stop-opacity="1"
         id="stop1316" />
      <stop
         offset="100%"
         stop-color="#c9c9c9"
         stop-opacity="1"
         id="stop1318" />
    </linearGradient>
    <linearGradient
       x1="172.15742"
       x2="172.15742"
       y1="349.17343"
       y2="454.43872"
       id="gradient-10-7"
       gradientTransform="scale(1.7251651,0.57965465)"
       gradientUnits="userSpaceOnUse">
      <stop
         offset="0%"
         stop-color="#fff"
         stop-opacity="1"
         id="stop1321" />
      <stop
         offset="100%"
         stop-color="#9b9b9b"
         stop-opacity="1"
         id="stop1323" />
    </linearGradient>
    <linearGradient
       x1="42.664104"
       x2="42.664104"
       y1="302.28009"
       y2="447.76804"
       id="gradient-11-5"
       gradientTransform="scale(1.1480076,0.87107438)"
       gradientUnits="userSpaceOnUse">
      <stop
         offset="0%"
         stop-color="#000000"
         stop-opacity="1"
         id="stop1326" />
      <stop
         offset="100%"
         stop-color="#000000"
         stop-opacity="1"
         id="stop1328" />
    </linearGradient>
    <linearGradient
       id="gradient-4-7"
       gradientTransform="scale(1.9776529,0.5056499)"
       x1="40.451992"
       y1="237.31834"
       x2="218.44077"
       y2="237.31834"
       gradientUnits="userSpaceOnUse">
      <stop
         offset="0%"
         stop-color="#ffffff"
         stop-opacity="1"
         id="stop1663" />
      <stop
         offset="100%"
         stop-color="#c9c9c9"
         stop-opacity="1"
         id="stop1665" />
    </linearGradient>
    <linearGradient
       x1="68.710846"
       x2="68.710846"
       y1="483.01035"
       y2="555.23987"
       id="gradient-10-0"
       gradientTransform="scale(1.1788532,0.84828201)"
       gradientUnits="userSpaceOnUse">
      <stop
         offset="0%"
         stop-color="#fff"
         stop-opacity="1"
         id="stop1668" />
      <stop
         offset="100%"
         stop-color="#9b9b9b"
         stop-opacity="1"
         id="stop1670" />
    </linearGradient>
    <linearGradient
       x1="299.23218"
       x2="299.23218"
       y1="469.97366"
       y2="544.92725"
       id="gradient-11-9"
       gradientTransform="scale(1.1545068,0.86617071)"
       gradientUnits="userSpaceOnUse">
      <stop
         offset="0%"
         stop-color="#000000"
         stop-opacity="1"
         id="stop1673" />
      <stop
         offset="100%"
         stop-color="#000000"
         stop-opacity="1"
         id="stop1675" />
    </linearGradient>
  </defs>
  <sodipodi:namedview
     showguides="false"
     lock-margins="true"
     fit-margin-bottom="0.2"
     fit-margin-right="0.2"
     fit-margin-left="0.2"
     fit-margin-top="0.2"
     units="in"
     inkscape:document-rotation="0"
     inkscape:snap-global="false"
     id="base"
     pagecolor="#ffffff"
     bordercolor="#666666"
     borderopacity="1.0"
     inkscape:pageopacity="0.0"
     inkscape:pageshadow="2"
     inkscape:zoom="0.78813922"
     inkscape:cx="494.96889"
     inkscape:cy="481.67448"
     inkscape:document-units="in"
     inkscape:current-layer="layer1"
     showgrid="false"
     inkscape:window-width="1280"
     inkscape:window-height="713"
     inkscape:window-x="0"
     inkscape:window-y="23"
     inkscape:window-maximized="0" />
  <metadata
     id="metadata1251">
    <rdf:RDF>
      <cc:Work
         rdf:about="">
        <dc:format>image/svg+xml</dc:format>
        <dc:type
           rdf:resource="http://purl.org/dc/dcmitype/StillImage" />
        <dc:title></dc:title>
      </cc:Work>
    </rdf:RDF>
  </metadata>
  <g
     inkscape:label="Layer 1"
     inkscape:groupmode="layer"
     id="layer1"
     transform="translate(91.978311,-13.051125)">
    <path
       inkscape:connector-curvature="0"
       id="path4-9"
       fill-opacity="1"
       fill="#fff"
       d="m -36.245102,22.405821 -1.08,0.8 c -0.719,-0.21 -1.41,-0.29 -2.122,-0.11 -0.179,0 -0.288,0.11 -0.399,0.11 l -1.109,-0.69 v 1.3 c -1.082,0.68 -1.582,1.98 -1.19,3.7 0.108,0.29 0.209,0.48 0.399,0.69 l -0.399,1.4 1.399,-0.72 c 1.011,0.22 2.091,-0.29 1.8,-1.37 0,-0.11 0,-0.21 -0.1,-0.32 -0.189,-0.39 -0.58,-0.5 -0.8,-0.29 -0.18,0.19 -0.291,0.69 -0.101,1.01 -0.5,-0.11 -0.899,-0.51 -1.008,-1.22 0,-0.19 0,-0.29 0,-0.5 l 1.22,-0.29 -0.902,-0.81 c 0.291,-0.6 0.902,-0.99 1.691,-1.1 l 0.51,1.1 0.5,-0.99 c 0.291,0.1 0.691,0.1 1.001,0.29 0.19,0.1 0.29,0.32 0.51,0.39 l -0.22,0.9 0.8,-0.18 c 0.32,0.4 0.5,0.9 0.71,1.4 -0.21,0 -0.31,0 -0.39,0 -2.31,-0.1 -3.601,1.98 -3.421,4.21 l -1.191,0.68 1.402,0.22 c 0.191,0.5 0.508,0.98 0.9,1.4 0.19,0.18 0.51,0.4 0.8,0.58 l -0.21,1.11 1.11,-0.71 c 1.58,0.5 3.491,0.5 4.791,-0.29 l 1.32,0.39 -0.5,-1.08 c 0.68,-0.9 0.79,-1.83 0.39,-2.41 l 0.4,-1.22 -1.22,0.51 c -0.1,-0.1 -0.39,-0.19 -0.58,-0.19 -1.3,-0.1 -2.591,1.09 -1.61,2.41 -0.1,-1.01 0.71,-1.72 1.29,-1.32 0.61,0.39 0.61,1.4 -0.18,1.9 -0.4,0.21 -0.9,0.4 -1.4,0.4 l -0.611,-1.19 -0.29,1.29 c -0.9,0 -1.8,-0.29 -2.41,-0.79 l 0.61,-1.3 -1.301,0.69 c -0.32,-0.4 -0.399,-0.69 -0.5,-1.19 0,-0.32 0,-0.61 0,-0.9 h 1.291 l -1,-0.9 c 0.209,-0.71 0.61,-1.21 1.11,-1.61 0.11,0.1 0.11,0.1 0.19,0.21 0.39,1.01 1.32,1.51 2.401,1.69 l 0.11,0.72 0.79,-0.61 c 1.11,0 2.3,-0.61 2.81,-1.51 0.61,-1 0.79,-2.59 0.21,-3.89 l 0.58,-1.29 -1.19,0.39 c 0,0 0,0 0,0 -0.71,-0.79 -1.9,-0.5 -2.59,0.29 l -1.331,-0.18 0.721,0.98 c -0.11,0.32 -0.211,0.61 -0.211,0.9 0,0.1 0.101,0.31 0.101,0.5 0.21,0.61 0.72,1.11 1.19,0.9 0.51,-0.11 0.72,-0.69 0.51,-1.4 0,-0.2 -0.1,-0.4 -0.19,-0.51 -0.4,0.22 -0.5,0.51 -0.61,1.01 -0.1,-0.7 0,-1.08 0.51,-1.4 v 0 c 0.29,-0.19 0.68,-0.29 0.89,-0.1 0.9,0.57 0.9,1.88 0.4,2.99 l -1.08,-0.11 0.39,0.9 c -0.31,0.32 -0.71,0.5 -1.11,0.61 -0.61,0.11 -1.401,0 -2.091,-0.29 0.11,-0.11 0.19,-0.42 0.29,-0.61 0.61,-1.69 -0.18,-3.41 -1.58,-4.31 l 0.18,-1.3 z"
       style="fill:#4400aa;stroke:#ffcc00;stroke-width:0.264533;stroke-opacity:1" />
    <path
       inkscape:connector-curvature="0"
       id="path5242"
       stroke-width="0.264593"
       stroke-opacity="1"
       stroke="#000000"
       fill-opacity="1"
       fill="#ffffff"
       class="selected"
       d="m 9.5909367,62.517793 c -0.23,0.39 -0.46,0.75 -0.738,1.05 0.159,0.34 0.188,0.75 0.1,1.17 -0.108,0.41 -0.349,0.85 -0.77,1.13 -0.249,0.18 -0.558,0.29 -0.929,0.31 0,0 0,0 0,0 0.76,0.73 2.149,1.36 3.1490003,1.33 0.291,-0.55 0.381,-1.19 0.341,-1.85 -0.1,-1.15 -0.561,-2.36 -1.1510003,-3.14 z"
       style="fill:#37abc8;fill-opacity:1;stroke:#800033;stroke-width:0.396875;stroke-miterlimit:4;stroke-dasharray:none;stroke-opacity:1" />
    <path
       inkscape:connector-curvature="0"
       style="fill:#4400aa;fill-opacity:1;stroke:#ffcc00;stroke-width:0.330729;stroke-miterlimit:4;stroke-dasharray:none;stroke-opacity:1"
       id="path5244"
       fill-opacity="1"
       fill="#ffffff"
       class=""
       d="m 10.241937,62.557793 c 0.54,0.84 0.95,1.95 1.022,3.07 0.1,1.26 -0.321,2.54 -1.5110003,3.34 0,0.24 0.1,0.48 0.19,0.69 0.6300003,-0.95 1.8100003,-1.74 2.8680003,-2.06 0.292,-0.1 0.582,-0.14 0.852,-0.14 0.27,0 0.52,0.1 0.74,0.19 0.22,0.13 0.38,0.35 0.46,0.62 0.1,0.26 0.1,0.59 0,0.97 l -0.5,-0.11 c 0.1,-0.32 0.1,-0.56 0,-0.72 -0.1,-0.16 -0.12,-0.25 -0.24,-0.32 -0.11,-0.1 -0.27,-0.1 -0.47,-0.1 -0.33,0.36 -0.42,0.7 -0.39,1.03 0,0.35 0.22,0.69 0.44,0.9 0.31,0.3 0.65,0.4 0.96,0.37 0.31,0 0.6,-0.26 0.81,-0.63 0.671,-1.25 0.52,-2.54 -0.19,-3.7 -0.26,0.19 -0.6,0.22 -0.92,0.15 -0.37,-0.1 -0.75,-0.29 -1.07,-0.61 -0.32,-0.32 -0.529,-0.7 -0.611,-1.07 -0.1,-0.28 0,-0.58 0.1,-0.82 -0.759,-0.46 -1.619,-0.82 -2.54,-1.05 z" />
    <path
       inkscape:connector-curvature="0"
       style="fill:#4400aa;fill-opacity:1;stroke:#ffcc00;stroke-width:0.330729;stroke-miterlimit:4;stroke-dasharray:none;stroke-opacity:1"
       id="path5246"
       stroke-width="0.529185"
       stroke-opacity="1"
       stroke="#000000"
       fill="url(#gradient-4)"
       class=""
       d="m 7.4109367,63.207793 c 0,0 -0.1,0 -0.1,0 -1.339,0 -2.339,0.73 -2.99,1.83 0.261,0.14 0.431,0.4 0.531,0.69 0.12,0.36 0.12,0.79 0,1.23 -0.11,0.44 -0.331,0.81 -0.61,1.07 -0.231,0.2 -0.511,0.33 -0.801,0.33 0,0.96 0.1,1.96 0.361,2.94 0.459,-0.87 1.209,-1.8 2.149,-2.41 0.672,-0.45 1.46,-0.73 2.28,-0.7 0.421,0 0.852,0.11 1.281,0.31 0.209,-0.15 0.381,-0.31 0.5290003,-0.48 -1.1300003,-0.1 -2.3780003,-0.71 -3.1700003,-1.46 -0.449,-0.43 -0.759,-0.9 -0.748,-1.41 0,-0.25 0.1,-0.5 0.299,-0.71 0.19,-0.2 0.46,-0.36 0.83,-0.48 l 0.159,0.49 c -0.309,0.1 -0.51,0.23 -0.619,0.35 -0.119,0.12 -0.161,0.23 -0.161,0.36 0,0.13 0,0.29 0.14,0.47 0.481,0.1 0.831,0 1.09,-0.18 0.291,-0.2 0.482,-0.53 0.561,-0.83 0.1,-0.42 0,-0.77 -0.169,-1.02 -0.18,-0.23 -0.471,-0.38 -0.86,-0.39 z" />
    <path
       inkscape:connector-curvature="0"
       id="path5248"
       stroke-width="0.529185"
       stroke-opacity="1"
       stroke="#000000"
       fill-opacity="1"
       fill="#000000"
       class=""
       d="m 13.672937,63.647793 c -0.17,0 -0.29,0 -0.37,0.12 -0.11,0.11 -0.16,0.3 -0.11,0.55 0.1,0.26 0.22,0.56 0.47,0.82 0.26,0.25 0.56,0.42 0.81,0.47 0.26,0.1 0.44,0 0.55,-0.1 0.11,-0.12 0.16,-0.3 0.11,-0.55 -0.1,-0.26 -0.22,-0.56 -0.48,-0.82 -0.25,-0.25 -0.55,-0.41 -0.81,-0.47 -0.1,0 -0.12,0 -0.17,0 z"
       style="fill:#000000;stroke:#000000;stroke-width:0.396875;stroke-miterlimit:4;stroke-dasharray:none;stroke-opacity:1" />
    <path
       inkscape:connector-curvature="0"
       id="path5250"
       stroke-width="0.529185"
       stroke-opacity="1"
       stroke="#000000"
       fill-opacity="1"
       fill="#000000"
       class=""
       d="m 3.9309367,65.447793 c 0,0 0,0 0,0 -0.129,0 -0.27,0.1 -0.41,0.2 -0.19,0.17 -0.37,0.46 -0.46,0.81 -0.1,0.36 -0.1,0.7 0,0.94 0.1,0.25 0.21,0.39 0.36,0.43 0.16,0 0.34,0 0.531,-0.19 0.19,-0.17 0.369,-0.46 0.469,-0.81 0.1,-0.36 0.1,-0.7 0,-0.94 -0.1,-0.25 -0.21,-0.39 -0.36,-0.43 0,0 -0.1,0 -0.1,0 z"
       style="fill:#000000;stroke:#000000;stroke-width:0.396875;stroke-miterlimit:4;stroke-dasharray:none;stroke-opacity:1" />
    <path
       inkscape:connector-curvature="0"
       id="path5252"
       stroke-width="4.23349"
       stroke-opacity="1"
       stroke="#000000"
       fill-opacity="1"
       fill="#000000"
       class=""
       d="m 12.962937,68.097793 c 0,0 0,0 0,0 -1.019,0.3 -2.271,1.19 -2.731,2.09 0.33,0.48 0.801,0.85 1.352,1.11 1.029,0.53 2.319,0.71 3.289,0.58 -0.2,-0.37 -0.39,-0.71 -0.51,-1.08 -0.36,0 -0.71,-0.21 -1.01,-0.51 -0.3,-0.29 -0.55,-0.74 -0.589,-1.24 0,-0.3 0,-0.63 0.199,-0.95 z"
       style="fill:#37abc8;fill-opacity:1;stroke:#800033;stroke-width:0.396875;stroke-miterlimit:4;stroke-dasharray:none;stroke-opacity:1" />
    <path
       inkscape:connector-curvature="0"
       style="fill:#37abc8;fill-opacity:1;stroke:#800033;stroke-width:0.396875;stroke-miterlimit:4;stroke-dasharray:none;stroke-opacity:1"
       id="path5254"
       fill-opacity="1"
       fill="#ffffff"
       class=""
       d="m 7.9909367,68.697793 c -0.609,0 -1.199,0.27 -1.739,0.62 -0.97,0.63 -1.76,1.69 -2.141,2.59 0.41,0 0.8,0 1.171,0.1 0.21,-0.34 0.56,-0.6 0.999,-0.74 0.411,-0.1 0.9,-0.1 1.36,0.11 0.281,0.13 0.54,0.34 0.731,0.66 0,0 0,0 0,0 0.24,-1 0.111,-2.46 -0.381,-3.33 z" />
    <path
       inkscape:connector-curvature="0"
       style="fill:#4400aa;fill-opacity:1;stroke:#ffcc00;stroke-width:0.330729;stroke-miterlimit:4;stroke-dasharray:none;stroke-opacity:1"
       id="path5256"
       fill-opacity="1"
       fill="#ffffff"
       class=""
       d="m 8.5829367,68.727793 c 0.469,1.01 0.54,2.36 0.289,3.42 -0.141,0.58 -0.389,1.11 -0.831,1.35 -0.22,0.13 -0.49,0.15 -0.759,0.1 -0.281,-0.1 -0.551,-0.24 -0.839,-0.5 l 0.339,-0.37 c 0.251,0.21 0.449,0.32 0.619,0.37 0.161,0 0.272,0 0.391,-0.11 0.109,-0.1 0.23,-0.18 0.331,-0.34 -0.151,-0.48 -0.41,-0.74 -0.701,-0.87 -0.32,-0.14 -0.701,-0.14 -0.99,-0.11 -0.42,0.13 -0.68,0.37 -0.801,0.66 -0.109,0.29 -0.1,0.66 0.14,1.03 0.78,1.27 2.061,1.78 3.532,1.67 0,0 0,-0.11 0,-0.11 -0.101,-0.37 0,-0.74 0.31,-1 0.248,-0.29 0.6190003,-0.5 1.0610003,-0.64 0.219,-0.1 0.428,-0.1 0.637,-0.1 0.212,0 0.41,0 0.59,0.1 0.302,0.11 0.572,0.32 0.701,0.59 0.691,-0.43 1.351,-0.93 1.941,-1.54 -0.99,0 -2.16,-0.16 -3.16,-0.66 -1.09,-0.56 -1.9720003,-1.51 -2.1200003,-2.85 -0.222,-0.1 -0.431,-0.16 -0.651,-0.2 z" />
    <path
       inkscape:connector-curvature="0"
       style="fill:#000000;stroke:#000000;stroke-width:0.396875;stroke-miterlimit:4;stroke-dasharray:none;stroke-opacity:1"
       id="path5258"
       fill="url(#gradient-10)"
       class=""
       d="m 11.315627,73.641091 c -0.159,0 -0.331,0 -0.511,0.1 -0.349,0.11 -0.64,0.29 -0.8090003,0.48 -0.18,0.18 -0.23,0.37 -0.191,0.52 0,0.16 0.18,0.3 0.4320003,0.38 0.24,0.1 0.579,0.1 0.928,0 0.352,-0.11 0.641,-0.27 0.82,-0.48 0.172,-0.19 0.223,-0.37 0.18,-0.53 0,-0.13 -0.169,-0.29 -0.418,-0.37 -0.129,0 -0.27,-0.1 -0.431,-0.1 z" />
    <path
       inkscape:connector-curvature="0"
       id="path5321"
       stroke-width="0.528262"
       stroke-opacity="1"
       stroke="#000000"
       fill-opacity="1"
       fill="#000000"
       class=""
       d="m 40.363937,75.397793 -0.16,-0.45 c -0.13,-0.37 -0.29,-0.71 -0.5,-1.06 -0.9,-1.56 -2.38,-2.62 -4.02,-3.04 0.16,-0.53 0.24,-1.11 0.24,-1.72 0,-1.59 -0.58,-3.06 -1.56,-4.19 l -0.32,-0.34 -0.32,0.34 c -0.98,1.13 -1.56,2.6 -1.56,4.19 0,0.61 0.1,1.19 0.24,1.72 -0.56,0.16 -1.11,0.37 -1.64,0.66 -1.4,0.82 -2.39,2.04 -2.89,3.44 l -0.14,0.45 0.46,0.11 c 0.38,0.1 0.78,0.1 1.18,0.1 1.81,0 3.48,-0.74 4.67,-1.93 1.19,1.19 2.83,1.93 4.66,1.93 0.39,0 0.82,0 1.19,-0.1"
       style="fill:#999999;stroke:none;stroke-width:0.0661083;stroke-miterlimit:4;stroke-dasharray:none;stroke-opacity:1" />
    <path
       inkscape:connector-curvature="0"
       id="path5313"
       stroke-width="0.264132"
       stroke-opacity="1"
       stroke="#000000"
       fill-opacity="1"
       fill="#ffffff"
       class="selected"
       d="m 34.043937,65.297793 c 0.87,1.04 1.4,2.38 1.4,3.83 0,0.58 -0.11,1.11 -0.24,1.64 -0.76,-0.16 -1.56,-0.16 -2.33,0 -0.15,-0.53 -0.23,-1.06 -0.23,-1.64 0,-1.45 0.53,-2.79 1.4,-3.83 z"
       style="fill:#000080;stroke:#000000;stroke-width:0.0661083;stroke-miterlimit:4;stroke-dasharray:none;stroke-opacity:1" />
    <path
       inkscape:connector-curvature="0"
       style="fill:#ffcc00;stroke:#000000;stroke-width:0.0661083;stroke-miterlimit:4;stroke-dasharray:none;stroke-opacity:1"
       id="path5315"
       fill-opacity="1"
       fill="#ffffff"
       class=""
       d="m 34.013937,71.107793 c 0.37,0 0.72,0 1.06,0.11 -0.24,0.66 -0.61,1.24 -1.03,1.77 -0.42,-0.53 -0.8,-1.11 -1.03,-1.77 0.34,-0.11 0.68,-0.11 1,-0.11 z" />
    <path
       inkscape:connector-curvature="0"
       style="fill:#800000;stroke:#000000;stroke-width:0.0661083;stroke-miterlimit:4;stroke-dasharray:none;stroke-opacity:1"
       id="path5317"
       stroke-width="0.528262"
       stroke-opacity="1"
       stroke="#000000"
       fill="url(#gradient-4)"
       class=""
       d="m 32.533937,71.297793 c 0.26,0.77 0.66,1.43 1.19,2.01 -1.11,1.14 -2.64,1.83 -4.35,1.83 -0.35,0 -0.69,0 -1.03,-0.11 0.48,-1.27 1.39,-2.38 2.66,-3.12 0.5,-0.27 1,-0.48 1.53,-0.61 z" />
    <path
       inkscape:connector-curvature="0"
       id="path5319"
       stroke-width="0.528262"
       stroke-opacity="1"
       stroke="#000000"
       fill-opacity="1"
       fill="#000000"
       class=""
       d="m 35.553937,71.297793 c 1.5,0.4 2.88,1.38 3.75,2.83 0.16,0.29 0.32,0.61 0.43,0.93 -0.35,0.1 -0.66,0.1 -1.03,0.1 -1.7,0 -3.23,-0.68 -4.34,-1.82 0.53,-0.58 0.92,-1.25 1.19,-2.01 z"
       style="fill:#800080;stroke:#000000;stroke-width:0.0661083;stroke-miterlimit:4;stroke-dasharray:none;stroke-opacity:1" />
    <text
       id="text863"
       y="114.38342"
       x="-90.550224"
       style="font-size:2.82241px;line-height:1;font-family:'Cascadia Code';-inkscape-font-specification:'Cascadia Code';letter-spacing:0px;word-spacing:0px;inline-size:129.211;stroke-width:0.2646"
       xml:space="preserve"><tspan
         sodipodi:role="line"
         x="-90.550224"
         y="114.38342"><tspan
           style="stroke-width:0.2646">Trithereon's clerics are rugged individualists, never afraid to question authority. Those in </tspan></tspan><tspan
         sodipodi:role="line"
         x="-90.550224"
         y="117.20583"><tspan
           style="stroke-width:0.2646">cities instruct commoners in self-defense and recruit like-minded rogues and rangers for </tspan></tspan><tspan
         sodipodi:role="line"
         x="-90.550224"
         y="120.02825"><tspan
           style="stroke-width:0.2646">the cause of individual liberty. Those in rural areas act as scouts or spies against despotic </tspan></tspan><tspan
         sodipodi:role="line"
         x="-90.550224"
         y="122.85066"><tspan
           style="stroke-width:0.2646">lords or murderous non-humans. Both sorts keep close watch on Lawful religions lest they </tspan></tspan><tspan
         sodipodi:role="line"
         x="-90.550224"
         y="125.67307"><tspan
           style="stroke-width:0.2646">become too powerful. </tspan><tspan
           dx="0.99225426"
           style="stroke-width:0.2646" /></tspan><tspan
         sodipodi:role="line"
         x="-90.550224"
         y="128.49548"><tspan
           style="stroke-width:0.2646" /></tspan><tspan
         sodipodi:role="line"
         x="-90.550224"
         y="131.31789"><tspan
           style="stroke-width:0.2646">Those who venerate Trithereon strive for liberty for themselves and others. His clerics </tspan></tspan><tspan
         sodipodi:role="line"
         x="-90.550224"
         y="134.14029"><tspan
           style="stroke-width:0.2646">work fervently to end tyrannical regimes or free those in slavery. Followers of Trithereon </tspan></tspan><tspan
         sodipodi:role="line"
         x="-90.550224"
         y="136.96269"><tspan
           style="stroke-width:0.2646">must often travel in secrecy to avoid harassment from those in positions of power. It is </tspan></tspan><tspan
         sodipodi:role="line"
         x="-90.550224"
         y="139.7851"><tspan
           style="stroke-width:0.2646">said by some that no ruler ever feels entirely secure when a shrine to Trithereon lies </tspan></tspan><tspan
         sodipodi:role="line"
         x="-90.550224"
         y="142.6075"><tspan
           style="stroke-width:0.2646">within his borders.</tspan><tspan
           dx="1.0253277"
           style="stroke-width:0.2646" /></tspan></text>
    <path
       inkscape:connector-curvature="0"
       style="fill:#000000;stroke-width:1.00017"
       d="m 45.377569,121.12016 c 0,-0.3 0.07,-0.53 0.153,-0.53 0.08,0 0.147,0.23 0.147,0.53 0,0.28 -0.07,0.51 -0.147,0.51 -0.08,0 -0.153,-0.23 -0.153,-0.51 z m 23.762,0 c 0,-0.3 0.1,-0.53 0.15,-0.53 0.1,0 0.15,0.23 0.15,0.53 0,0.28 -0.1,0.51 -0.15,0.51 -0.1,0 -0.15,-0.23 -0.15,-0.51 z m 19.96,-0.35 c -0.1,-0.18 -0.1,-0.44 0,-0.58 0.13,-0.23 0.16,-0.22 0.3,0.1 0.13,0.22 0.12,0.37 -0.1,0.57 -0.19,0.26 -0.21,0.26 -0.3,-0.1 z m -36.98,-0.16 c -0.18,-0.34 -0.1,-0.92 0.13,-0.92 0.18,0 0.29,0.6 0.17,0.94 -0.12,0.32 -0.12,0.32 -0.3,0 z m 11.95,0 c -0.18,-0.34 -0.1,-0.92 0.14,-0.92 0.17,0 0.28,0.6 0.16,0.94 -0.12,0.32 -0.12,0.32 -0.3,0 z m 42.270001,0 c -0.17,-0.34 -0.11,-0.92 0.11,-0.92 0.17,0 0.29,0.6 0.17,0.94 -0.11,0.32 -0.11,0.32 -0.28,0 z m 18.69,0 c -0.22,-0.34 -0.17,-0.92 0.12,-0.92 0.16,0 0.28,0.6 0.16,0.94 -0.11,0.32 -0.11,0.32 -0.28,0 z m 23.61,0 c -0.2,-0.34 -0.1,-0.92 0.1,-0.92 0.2,0 0.3,0.6 0.2,0.94 -0.1,0.32 -0.1,0.32 -0.3,0 z m -98.983001,-0.6 c -0.1,-0.1 0,-1.02 0.1,-2.12 0.1,-1.27 0.1,-2.1 0,-2.27 -0.1,-0.15 -0.11,-0.33 -0.1,-0.4 0.1,-0.1 0.1,-1.02 0.1,-2.09 0,-1.85 0,-1.97 0.33,-2.14 0.43,-0.24 1.963,-0.23 2.753,0 0.51,0.15 0.64,0.27 0.72,0.63 0.15,0.68 -0.1,1.28 -0.46,1.47 -0.2,0.1 -0.36,0.25 -0.36,0.35 0,0.34 -0.33,-0.13 -0.43,-0.61 -0.1,-0.46 -0.1,-0.46 -0.52,-0.12 -0.32,0.26 -0.46,0.53 -0.54,1.05 -0.11,0.7 -0.11,0.7 0.38,0.7 0.77,0 0.96,0.13 0.95,0.65 0,0.7 -0.18,0.92 -0.58,0.7 -0.48,-0.26 -0.69,-0.12 -0.9,0.64 -0.253,0.91 -0.14,1.04 0.83,0.95 0.8,-0.1 0.8,-0.1 1.02,0.55 0.13,0.34 0.24,0.79 0.27,0.99 0,0.36 0,0.38 -0.97,0.46 -0.56,0.1 -1.09,0.17 -1.19,0.26 -0.1,0.1 -0.333,0.18 -0.523,0.18 -0.19,0 -0.34,0.1 -0.34,0.15 0,0.18 -0.4,0.2 -0.51,0 z m 11.953,0 c -0.1,-0.1 0,-1.02 0.1,-2.12 0.1,-1.27 0.1,-2.1 0,-2.27 -0.1,-0.15 -0.11,-0.33 -0.1,-0.4 0.1,-0.1 0.1,-1.02 0.11,-2.09 0,-1.85 0.1,-1.97 0.32,-2.14 0.44,-0.24 1.96,-0.23 2.75,0 0.51,0.15 0.65,0.27 0.72,0.63 0.15,0.68 -0.1,1.28 -0.45,1.47 -0.2,0.1 -0.37,0.25 -0.37,0.35 0,0.34 -0.33,-0.13 -0.43,-0.61 -0.1,-0.46 -0.1,-0.46 -0.53,-0.12 -0.31,0.26 -0.44,0.53 -0.54,1.05 -0.1,0.7 -0.1,0.7 0.39,0.7 0.77,0 0.96,0.13 0.96,0.65 0,0.7 -0.18,0.91 -0.6,0.7 -0.47,-0.26 -0.67,-0.12 -0.89,0.64 -0.26,0.91 -0.14,1.03 0.83,0.95 0.79,-0.1 0.79,-0.1 1.02,0.55 0.14,0.34 0.25,0.79 0.27,0.99 0.1,0.36 0,0.37 -0.98,0.46 -0.54,0.1 -1.09,0.17 -1.18,0.26 -0.1,0.1 -0.32,0.18 -0.52,0.18 -0.19,0 -0.34,0.1 -0.34,0.15 0,0.18 -0.4,0.19 -0.51,0 z m 42.250001,0 c -0.1,-0.1 0,-1.02 0,-2.12 0.12,-1.27 0.12,-2.1 0,-2.27 -0.11,-0.15 -0.11,-0.33 0,-0.4 0,-0.1 0,-1.02 0.11,-2.09 0,-1.85 0.1,-1.97 0.28,-2.14 0.45,-0.24 1.98,-0.23 2.77,0 0.51,0.15 0.68,0.27 0.73,0.63 0.12,0.68 -0.1,1.28 -0.45,1.47 -0.23,0.1 -0.39,0.25 -0.39,0.35 0,0.34 -0.34,-0.13 -0.4,-0.61 -0.11,-0.46 -0.11,-0.46 -0.56,-0.12 -0.29,0.26 -0.46,0.53 -0.51,1.05 -0.12,0.7 -0.12,0.7 0.39,0.7 0.74,0 0.96,0.13 0.96,0.65 0,0.7 -0.22,0.91 -0.62,0.7 -0.45,-0.26 -0.68,-0.12 -0.9,0.64 -0.23,0.91 -0.12,1.03 0.84,0.95 0.8,-0.1 0.8,-0.1 1.02,0.55 0.11,0.34 0.28,0.79 0.28,0.99 0.1,0.36 0,0.37 -1.01,0.46 -0.51,0.1 -1.08,0.17 -1.13,0.26 -0.12,0.1 -0.34,0.18 -0.51,0.18 -0.23,0 -0.4,0.1 -0.4,0.15 0,0.18 -0.39,0.19 -0.5,0 z m 18.69,0 c -0.1,-0.1 0,-1.02 0,-2.12 0.1,-1.27 0.1,-2.1 0,-2.27 -0.11,-0.15 -0.11,-0.33 0,-0.4 0,-0.1 0,-1.02 0.11,-2.09 0,-1.85 0,-1.97 0.28,-2.14 0.45,-0.24 1.98,-0.23 2.77,0 0.51,0.15 0.62,0.27 0.73,0.63 0.12,0.68 0,1.28 -0.45,1.47 -0.22,0.1 -0.39,0.25 -0.39,0.35 0,0.34 -0.34,-0.13 -0.45,-0.61 -0.1,-0.46 -0.1,-0.46 -0.51,-0.12 -0.29,0.26 -0.45,0.53 -0.51,1.05 -0.11,0.7 -0.11,0.7 0.39,0.7 0.74,0 0.96,0.13 0.96,0.65 0,0.7 -0.22,0.91 -0.62,0.7 -0.51,-0.26 -0.67,-0.12 -0.9,0.64 -0.23,0.91 -0.11,1.03 0.85,0.95 0.79,-0.1 0.79,-0.1 1.01,0.55 0.12,0.34 0.23,0.79 0.29,0.99 0,0.36 0,0.37 -1.02,0.46 -0.51,0.1 -1.07,0.17 -1.13,0.26 -0.11,0.1 -0.34,0.18 -0.57,0.18 -0.16,0 -0.33,0.1 -0.33,0.15 0,0.18 -0.4,0.19 -0.51,0 z m 23.59,0 c 0,-0.1 0,-1.02 0.1,-2.12 0.1,-1.27 0.1,-2.1 0,-2.27 -0.1,-0.15 -0.1,-0.33 -0.1,-0.4 0.1,-0.1 0.1,-1.02 0.1,-2.09 0,-1.85 0,-1.97 0.3,-2.14 0.5,-0.24 2,-0.23 2.8,0 0.5,0.15 0.6,0.27 0.7,0.63 0.1,0.68 -0.1,1.28 -0.4,1.47 -0.3,0.1 -0.5,0.25 -0.5,0.35 0,0.34 -0.3,-0.13 -0.3,-0.61 -0.2,-0.46 -0.2,-0.46 -0.6,-0.12 -0.3,0.26 -0.4,0.53 -0.5,1.05 -0.1,0.7 -0.1,0.7 0.4,0.7 0.7,0 1,0.13 1,0.65 0,0.7 -0.3,0.91 -0.7,0.7 -0.4,-0.26 -0.6,-0.12 -0.9,0.64 -0.2,0.91 -0.1,1.03 0.9,0.95 0.7,-0.1 0.7,-0.1 1,0.55 0.1,0.34 0.2,0.79 0.2,0.99 0.1,0.36 0,0.37 -0.9,0.46 -0.6,0.1 -1.1,0.17 -1.2,0.26 -0.1,0.1 -0.4,0.18 -0.5,0.18 -0.2,0 -0.4,0.1 -0.4,0.15 0,0.18 -0.4,0.19 -0.5,0 z m -100.833001,-0.28 c -0.06,-0.14 -0.136,-1.32 -0.187,-2.61 -0.07,-1.88 -0.124,-2.32 -0.282,-2.26 -0.158,0.1 -0.203,-0.16 -0.203,-1.02 0,-0.61 -0.06,-1.25 -0.1,-1.44 -0.113,-0.42 -0.503,-0.44 -0.503,0 0,0.17 -0.119,0.35 -0.26,0.4 -0.147,0 -0.384,0.2 -0.531,0.32 -0.418,0.36 -0.581,0 -0.508,-1.21 0.07,-1.16 0.271,-1.5 0.751,-1.32 0.356,0.14 1.83,0.11 3.494,-0.1 0.799,-0.1 1.149,-0.1 1.309,0.1 0.42,0.35 0.23,2.26 -0.27,2.58 -0.34,0.21 -0.55,0.1 -0.943,-0.49 -0.22,-0.33 -0.418,-0.58 -0.446,-0.55 0,0 -0.119,0.82 -0.203,1.75 -0.192,2.22 -0.774,6.12 -0.915,6.12 -0.06,0 -0.153,-0.11 -0.207,-0.25 z m 10.383,-0.1 c 0,-0.19 -0.1,-1.32 -0.16,-2.51 -0.14,-1.99 -0.18,-2.2 -0.52,-2.55 -0.46,-0.47 -0.46,-0.84 -0.1,-1.3 0.34,-0.36 0.34,-0.36 -0.1,-0.66 -0.33,-0.24 -0.4,-0.41 -0.4,-0.93 0,-0.35 0.1,-0.76 0.2,-0.91 0.2,-0.28 0.23,-0.28 1.31,0.1 0.62,0.18 1.22,0.46 1.37,0.64 0.13,0.17 0.46,0.98 0.71,1.79 0.26,0.81 0.53,1.51 0.6,1.56 0.1,0.1 0.14,-0.49 0.14,-1.32 0,-1.2 -0.1,-1.47 -0.32,-1.8 -0.21,-0.28 -0.28,-0.56 -0.25,-0.95 0.1,-0.53 0.1,-0.57 0.6,-0.61 0.3,0 0.74,0.1 1,0.18 0.76,0.4 0.97,1.69 0.36,2.36 -0.19,0.21 -0.27,0.87 -0.38,3.14 -0.1,1.58 -0.1,3.06 -0.1,3.29 0.1,0.3 0,0.43 -0.16,0.51 -0.3,0.12 -0.37,0 -0.97,-1.52 -0.27,-0.66 -0.57,-1.29 -0.67,-1.42 -0.1,-0.12 -0.21,-0.48 -0.26,-0.8 -0.11,-0.62 -0.68,-1.59 -0.95,-1.59 -0.1,0 -0.21,0.65 -0.27,1.76 -0.13,2.16 -0.4,3.8 -0.65,3.88 -0.11,0.1 -0.18,-0.1 -0.18,-0.28 z m 13.38,0.1 c -0.1,-0.14 -0.14,-1.32 -0.18,-2.61 -0.1,-1.88 -0.14,-2.32 -0.28,-2.26 -0.17,0.1 -0.21,-0.16 -0.21,-1.02 0,-0.61 -0.1,-1.25 -0.1,-1.44 -0.13,-0.42 -0.51,-0.44 -0.51,0 0,0.17 -0.12,0.35 -0.25,0.4 -0.16,0 -0.39,0.2 -0.55,0.32 -0.41,0.36 -0.58,0 -0.5,-1.21 0.1,-1.16 0.27,-1.5 0.75,-1.32 0.35,0.14 1.83,0.11 3.49,-0.1 0.79,-0.1 1.15,-0.1 1.32,0.1 0.42,0.35 0.22,2.26 -0.27,2.58 -0.35,0.21 -0.56,0.1 -0.95,-0.49 -0.22,-0.33 -0.41,-0.58 -0.44,-0.55 -0.1,0 -0.12,0.82 -0.21,1.75 -0.19,2.22 -0.78,6.12 -0.91,6.12 -0.1,0 -0.15,-0.11 -0.21,-0.25 z m 5.03,0.11 c -0.67,-0.16 -0.7,-0.21 -0.7,-1.07 0,-1.06 0.66,-1.39 1.3,-0.65 0.34,0.4 0.72,0.47 1.18,0.22 0.39,-0.21 0.39,-1.05 0,-1.41 -0.16,-0.16 -0.29,-0.37 -0.29,-0.47 0,-0.11 -0.2,-0.3 -0.45,-0.43 -0.24,-0.13 -0.45,-0.29 -0.45,-0.35 0,-0.1 -0.24,-0.4 -0.53,-0.73 -0.46,-0.54 -0.52,-0.71 -0.52,-1.41 0,-1.31 0.22,-2.1 0.68,-2.48 0.32,-0.29 0.55,-0.33 1.53,-0.33 1.32,0 1.44,0.1 1.6,1.24 0.1,0.64 0.1,0.71 -0.39,1.14 -0.5,0.46 -0.5,0.46 -0.64,0.12 -0.1,-0.19 -0.18,-0.49 -0.25,-0.67 -0.18,-0.47 -0.69,-0.44 -0.92,0.1 -0.25,0.56 0.27,1.53 1.38,2.57 0.79,0.76 0.88,0.9 0.97,1.6 0.1,0.42 0.1,1.16 -0.1,1.65 -0.11,0.89 -0.11,0.89 -1.08,1.23 -1.02,0.35 -1.53,0.39 -2.36,0.2 z m 9.74,-0.14 c -0.93,-0.56 -1.49,-2.54 -1.42,-5.02 0.1,-1.98 0.1,-2.25 0.61,-2.98 0.55,-0.81 0.84,-0.97 1.64,-0.97 1.13,0 2.1,0.8 2.77,2.28 0.45,0.97 0.46,1.92 0.1,3.04 -0.14,0.33 -0.32,1.2 -0.42,1.94 -0.18,1.38 -0.32,1.73 -0.65,1.61 -0.11,-0.1 -0.41,0.1 -0.67,0.16 -0.6,0.31 -1.32,0.29 -1.89,-0.1 z m 1.42,-0.85 c 0.19,-0.13 0.43,-0.46 0.55,-0.73 0.26,-0.62 0.43,-2.36 0.29,-2.72 -0.1,-0.15 -0.14,-0.69 -0.17,-1.21 -0.1,-0.88 -0.33,-1.67 -0.64,-1.67 -0.1,0 -0.11,0.27 -0.1,0.59 0.1,0.49 0,0.6 -0.17,0.6 -0.17,0 -0.23,-0.14 -0.23,-0.55 0,-0.44 -0.1,-0.51 -0.19,-0.37 -0.1,0.1 -0.22,0.73 -0.28,1.4 -0.1,0.95 -0.15,1.25 -0.37,1.41 -0.23,0.17 -0.27,0.39 -0.27,1.29 0,1.79 0.64,2.58 1.54,1.96 z m -0.36,-2.9 c -0.15,-0.23 0.1,-0.92 0.22,-0.81 0.2,0.11 0.2,0.77 0,0.88 -0.1,0.1 -0.19,0 -0.24,-0.1 z m 15.170001,3.85 c 0,-0.1 -0.170001,-0.59 -0.170001,-1.08 -0.17,-1.17 -0.39,-2.07 -0.79,-2.99 -0.22,-0.41 -0.39,-0.98 -0.45,-1.27 -0.1,-0.29 -0.34,-1.04 -0.56,-1.68 -0.79,-2.19 -0.46,-2.89 1.13,-2.27 0.62,0.24 0.62,0.24 0.56,2.06 -0.11,1.83 -0.11,1.83 0.340001,2.09 0.68,0.45 0.68,0.26 0.62,-2.14 -0.17,-2.62 -0.11,-2.77 1.07,-2.61 0.79,0.11 1.08,0.38 1.08,1.01 0,0.69 -0.34,1.6 -0.63,1.76 -0.22,0.11 -0.28,0.32 -0.28,0.75 0,0.33 -0.22,1.55 -0.51,2.72 -0.28,1.17 -0.56,2.39 -0.62,2.72 0,0.33 -0.11,0.72 -0.17,0.86 -0.1,0.3 -0.45,0.34 -0.62,0.1 z m 9.83,-0.14 c 0,-0.19 -0.1,-1.32 -0.17,-2.51 -0.11,-1.99 -0.17,-2.2 -0.51,-2.55 -0.45,-0.47 -0.45,-0.84 -0.1,-1.3 0.34,-0.36 0.34,-0.36 0,-0.66 -0.34,-0.24 -0.4,-0.41 -0.4,-0.93 0,-0.35 0.1,-0.76 0.17,-0.91 0.23,-0.28 0.23,-0.28 1.3,0.1 0.62,0.18 1.24,0.46 1.41,0.64 0.12,0.17 0.45,0.98 0.68,1.79 0.28,0.81 0.56,1.51 0.62,1.56 0.1,0.1 0.11,-0.49 0.11,-1.32 0,-1.2 -0.1,-1.47 -0.28,-1.8 -0.22,-0.28 -0.28,-0.56 -0.28,-0.95 0.1,-0.53 0.11,-0.57 0.62,-0.61 0.28,0 0.73,0.1 1.02,0.18 0.73,0.4 0.96,1.69 0.34,2.36 -0.17,0.21 -0.29,0.87 -0.4,3.14 -0.1,1.58 -0.1,3.06 -0.1,3.29 0.1,0.3 0,0.43 -0.17,0.51 -0.28,0.12 -0.33,0 -0.96,-1.52 -0.28,-0.66 -0.56,-1.29 -0.67,-1.42 -0.12,-0.12 -0.23,-0.48 -0.23,-0.8 -0.11,-0.62 -0.68,-1.59 -0.96,-1.59 -0.11,0 -0.22,0.65 -0.28,1.76 -0.11,2.16 -0.4,3.8 -0.68,3.88 -0.1,0.1 -0.17,-0.1 -0.17,-0.28 z m 24.56,0 c 0,-0.19 0,-1.32 -0.17,-2.51 -0.11,-1.99 -0.17,-2.2 -0.5,-2.55 -0.46,-0.47 -0.51,-0.84 -0.1,-1.3 0.34,-0.36 0.34,-0.36 -0.1,-0.66 -0.34,-0.24 -0.39,-0.41 -0.39,-0.93 0,-0.35 0,-0.76 0.17,-0.91 0.22,-0.28 0.22,-0.28 1.3,0.1 0.62,0.18 1.24,0.46 1.41,0.64 0.11,0.17 0.45,0.98 0.73,1.79 0.23,0.81 0.49,1.51 0.49,1.56 0.18,0.1 0.18,-0.49 0.18,-1.32 0,-1.2 0,-1.47 -0.33,-1.8 -0.11,-0.28 -0.28,-0.56 -0.17,-0.95 0.1,-0.53 0.1,-0.57 0.5,-0.61 0.3,0 0.8,0.1 1.1,0.18 0.8,0.4 0.9,1.69 0.3,2.36 -0.2,0.21 -0.3,0.87 -0.3,3.14 -0.1,1.58 -0.2,3.06 -0.1,3.29 0.1,0.3 0.1,0.43 -0.2,0.51 -0.2,0.12 -0.3,0 -0.98,-1.52 -0.21,-0.66 -0.49,-1.29 -0.66,-1.42 -0.11,-0.12 -0.17,-0.48 -0.28,-0.8 -0.1,-0.62 -0.62,-1.59 -0.9,-1.59 -0.12,0 -0.17,0.65 -0.23,1.76 -0.17,2.16 -0.45,3.8 -0.68,3.88 -0.11,0.1 -0.17,-0.1 -0.17,-0.28 z m 7.08,0 c -0.1,-0.16 -0.3,-0.29 -0.3,-0.29 -0.3,0 -0.46,-0.76 -0.76,-2.09 -0.1,-1.52 -0.1,-1.77 0,-3.54 0.1,-2.04 0.76,-3.04 2.06,-3.04 0.2,0 1.9,0.61 2.2,0.84 0.2,0.22 0.5,4.04 0.3,4.18 -0.3,0.16 -0.3,-0.1 -0.3,-1.12 -0.2,-0.93 -0.2,-1.11 -0.5,-1.49 -0.4,-0.38 -0.5,-0.43 -1,-0.36 -0.7,0.11 -0.9,0.26 -1,1 -0.2,0.34 -0.3,0.73 -0.5,0.87 -0.2,0.21 -0.2,0.55 -0.1,1.79 0.1,1.86 0.3,2.51 1,2.51 0.4,0 1,-0.58 1,-1.06 0,-0.3 0.9,-1.07 1.2,-0.99 0,0.1 0.1,0.37 0.2,0.76 0,0.62 -0.1,0.77 -0.5,1.33 -0.7,0.83 -1,0.99 -2,1 -0.6,0 -0.8,-0.1 -1,-0.3 z m -24.58,-0.42 c -0.74,-0.73 -0.85,-1.15 -0.96,-4.13 -0.1,-1.56 -0.12,-3.02 -0.23,-3.25 0,-0.23 0,-0.63 0,-0.9 0.17,-0.7 0.62,-0.86 2.54,-0.86 2.09,0 2.2,0.1 2.2,1.72 0,0.62 0,1.12 -0.11,1.12 -0.11,0 -0.34,-0.15 -0.56,-0.35 -0.23,-0.19 -0.57,-0.38 -0.74,-0.43 -0.17,-0.1 -0.39,-0.12 -0.56,-0.18 -0.85,-0.37 -1.75,3.92 -1.02,5.3 0.23,0.5 0.28,0.52 1.13,0.52 0.62,0 0.9,-0.1 1.02,-0.24 0.22,-0.42 0,-0.73 -0.57,-0.73 -0.45,0 -0.56,-0.1 -0.67,-0.37 -0.23,-0.46 -0.1,-1.07 0.28,-1.16 0.34,-0.1 2.03,0.14 2.43,0.34 0.22,0.12 0.28,0.25 0.22,0.49 -0.11,0.18 -0.17,0.73 -0.22,1.22 -0.23,1.47 -0.29,1.6 -1.3,1.83 -0.51,0.12 -1.25,0.25 -1.75,0.29 -0.68,0.1 -0.91,0 -1.13,-0.23 z m 14.85,0.16 c -0.28,-0.22 -0.74,-1.16 -0.9,-1.94 -0.23,-0.88 -0.46,-0.99 -1.13,-0.48 -0.4,0.31 -0.4,0.31 -0.57,0 -0.17,-0.31 -0.17,-0.31 -0.39,0.24 -0.1,0.32 -0.23,0.62 -0.34,0.67 -0.1,0.1 -0.29,0.39 -0.4,0.75 -0.51,1.7 -0.9,-0.1 -0.51,-2.21 0.12,-0.71 0.29,-2.02 0.46,-2.9 0.16,-1.45 0.11,-1.63 -0.12,-1.88 -0.11,-0.15 -0.22,-0.48 -0.22,-0.72 0,-0.37 0,-0.48 0.5,-0.63 0.85,-0.29 2.21,-0.1 2.94,0.48 0.85,0.59 0.96,1.07 0.4,1.53 -0.4,0.33 -0.4,0.33 -0.29,1.87 0.1,1.53 0.29,2.5 0.85,4.2 0.17,0.47 0.28,0.92 0.28,1.01 0,0.17 -0.28,0.2 -0.56,0 z m -1.75,-4.63 c -0.28,-2.06 -0.28,-2.07 -0.51,-1.73 -0.11,0.18 -0.23,0.7 -0.28,1.15 -0.1,0.79 -0.1,0.85 0.28,0.98 0.56,0.23 0.62,0.2 0.51,-0.4 z m -40.980001,3.73 c -0.1,-0.31 -0.12,-1.27 -0.16,-2.13 -0.1,-0.86 -0.1,-1.66 -0.1,-1.78 0,-0.13 0,-1.11 0,-2.2 0,-1.98 0,-1.98 0.56,-2.15 0.57,-0.2 2.38,-0.1 2.86,0.15 0.33,0.18 0.53,0.89 0.38,1.39 -0.1,0.32 -0.77,1 -1,1.01 -0.1,0 -0.14,-0.23 -0.21,-0.52 -0.1,-0.29 -0.13,-0.52 -0.19,-0.52 -0.29,0 -0.9,0.87 -0.94,1.34 -0.1,0.51 -0.1,0.53 0.63,0.67 0.59,0.14 0.67,0.2 0.71,0.6 0.1,0.69 -0.16,0.92 -0.64,0.7 -0.22,-0.1 -0.45,-0.15 -0.51,-0.11 -0.1,0.1 -0.28,0.79 -0.94,3.56 -0.16,0.72 -0.36,0.71 -0.5,0 z m -31.67,-1.37 c -0.11,-0.31 0,-0.6 0.21,-0.6 0.22,0 0.28,0.58 0.1,0.75 -0.15,0.12 -0.23,0.1 -0.3,-0.15 z m 54.240001,0 c -0.11,-0.31 0,-0.6 0.17,-0.6 0.22,0 0.28,0.58 0.11,0.75 -0.17,0.12 -0.22,0.1 -0.28,-0.15 z m 24.51,0 c -0.12,-0.31 0,-0.6 0.22,-0.6 0.23,0 0.28,0.58 0.1,0.75 -0.11,0.12 -0.23,0.1 -0.28,-0.15 z m -92.051001,-0.6 c -0.06,-0.1 0,-0.41 0.09,-0.71 0.169,-0.52 0.192,-0.54 0.327,-0.23 0.254,0.57 -0.124,1.42 -0.418,0.94 z m 23.761,0 c -0.1,-0.1 0,-0.41 0.1,-0.71 0.17,-0.52 0.2,-0.54 0.33,-0.23 0.26,0.57 -0.12,1.42 -0.42,0.94 z m 74.870001,-0.52 c 0,-0.13 0,-0.41 0,-0.63 0.3,-0.5 0.5,-0.27 0.5,0.33 -0.1,0.48 -0.3,0.65 -0.5,0.3 z m -89.940001,-1.38 c -0.15,-0.15 -0.12,-0.63 0.1,-0.99 0.18,-0.32 0.18,-0.32 0.29,0.1 0.18,0.65 0,1.22 -0.36,0.91 z m 11.96,0 c -0.17,-0.15 -0.12,-0.63 0.1,-0.99 0.16,-0.32 0.18,-0.32 0.28,0.1 0.16,0.65 -0.1,1.22 -0.36,0.91 z m 37.630001,-0.13 c -0.12,-0.32 0,-0.6 0.22,-0.34 0.17,0.26 0.17,0.57 0,0.57 -0.11,0 -0.17,-0.1 -0.22,-0.23 z m 4.63,0.13 c -0.17,-0.15 -0.11,-0.63 0,-0.99 0.17,-0.32 0.23,-0.32 0.29,0.1 0.17,0.65 -0.1,1.22 -0.34,0.91 z m 18.69,0 c -0.17,-0.15 -0.17,-0.63 0.1,-0.99 0.17,-0.32 0.17,-0.32 0.28,0.1 0.17,0.65 -0.1,1.22 -0.34,0.91 z m 23.63,0 c -0.2,-0.15 -0.2,-0.63 0,-0.99 0.2,-0.32 0.3,-0.32 0.3,0.1 0.2,0.65 0,1.22 -0.3,0.91 z m -102.217001,-0.14 c -0.152,-0.16 -0.124,-1.13 0.06,-1.04 0.194,0.13 0.344,0.86 0.194,1.01 -0.07,0.1 -0.172,0.1 -0.228,0 z m 23.767,0 c -0.15,-0.16 -0.12,-1.13 0.1,-1.04 0.19,0.13 0.35,0.86 0.19,1.01 0,0.1 -0.16,0.1 -0.22,0 z m -27.232,-0.21 c -0.125,-0.2 0.07,-1.04 0.242,-1.04 0.07,0 0.136,0.27 0.136,0.6 0,0.57 -0.169,0.77 -0.378,0.44 z m 23.772,0 c -0.14,-0.2 0.1,-1.04 0.23,-1.04 0.1,0 0.14,0.27 0.14,0.6 0,0.57 -0.18,0.77 -0.37,0.44 z m 75.510001,-0.15 c -0.2,-0.21 0,-1.19 0.1,-1.19 0.2,0 0.2,0.56 0.2,1.01 0,0.36 -0.2,0.44 -0.3,0.18 z m -65.880001,-0.36 c 0,-0.49 0.49,-0.44 0.57,0.1 0,0.26 -0.1,0.33 -0.25,0.33 -0.25,0 -0.32,-0.1 -0.32,-0.38 z m 20.58,0 c -0.17,-0.53 0.12,-0.79 0.34,-0.36 0.17,0.34 0.12,0.75 -0.17,0.75 0,0 -0.17,-0.17 -0.17,-0.39 z m -5.69,0.15 c -0.14,-0.15 -0.13,-0.42 0.1,-0.9 0.18,-0.42 0.18,-0.42 0.29,0 0.19,0.64 -0.1,1.22 -0.35,0.91 z m 39.750001,-0.41 c -0.12,-0.25 0.1,-0.54 0.22,-0.54 0.17,0 0.17,0.56 0,0.68 -0.1,0 -0.17,0 -0.22,-0.14 z"
       id="path1055" />
    <text
       id="text1074"
       y="-21.940002"
       x="-115.91864"
       style="font-size:2.82241px;line-height:1;font-family:'Cascadia Code';-inkscape-font-specification:'Cascadia Code';letter-spacing:0px;word-spacing:0px;stroke-width:0.2646"
       xml:space="preserve"><tspan
         style="stroke-width:0.2646"
         y="-21.940002"
         x="-115.91864"
         id="tspan1072"
         sodipodi:role="line" /><tspan
         id="tspan1078"
         style="stroke-width:0.2646"
         y="-19.117592"
         x="-115.91864"
         sodipodi:role="line" /><tspan
         id="tspan1076"
         style="stroke-width:0.2646"
         y="-16.295181"
         x="-115.91864"
         sodipodi:role="line" /></text>
    <text
       xml:space="preserve"
       style="font-size:2.82241px;line-height:1;font-family:'Cascadia Code';-inkscape-font-specification:'Cascadia Code';letter-spacing:0px;word-spacing:0px;inline-size:130.117;stroke-width:0.2646"
       x="-90.402786"
       y="82.744675"
       id="text1116"><tspan
         sodipodi:role="line"
         x="-90.402786"
         y="82.744675"><tspan
           style="stroke-width:0.2646">Trithereon (CG) is a foe of evil and oppression </tspan><tspan
           dx="0.99225616"
           style="stroke-width:0.2646" /></tspan><tspan
         sodipodi:role="line"
         x="-90.402786"
         y="85.567086"><tspan
           style="stroke-width:0.2646" /></tspan><tspan
         sodipodi:role="line"
         x="-90.402786"
         y="88.389497"><tspan
           style="stroke-width:0.2646">&quot;All deserve life and the ability to choose their own place in the world. Whomever would </tspan></tspan><tspan
         sodipodi:role="line"
         x="-90.402786"
         y="91.211908"><tspan
           style="stroke-width:0.2646">place others in shackles, or control them with oppressive laws, must be toppled.&quot;</tspan><tspan
           dx="1.2954407"
           style="stroke-width:0.2646" /></tspan><tspan
         sodipodi:role="line"
         x="-90.402786"
         y="94.034318"><tspan
           style="stroke-width:0.2646" /></tspan><tspan
         sodipodi:role="line"
         x="-90.402786"
         y="96.856729"><tspan
           style="stroke-width:0.2646">&quot;Train the common folk to defend themselves and their property should another wish to </tspan></tspan><tspan
         sodipodi:role="line"
         x="-90.402786"
         y="99.679139"><tspan
           style="stroke-width:0.2646">take their freedoms.&quot;</tspan><tspan
           dx="1.2954426"
           style="stroke-width:0.2646" /></tspan><tspan
         sodipodi:role="line"
         x="-90.402786"
         y="102.50155"><tspan
           style="stroke-width:0.2646" /></tspan><tspan
         sodipodi:role="line"
         x="-90.402786"
         y="105.32396"><tspan
           style="stroke-width:0.2646">&quot;If you are wronged, you have the right to exact vengeance yourself, especially if none will </tspan></tspan><tspan
         sodipodi:role="line"
         x="-90.402786"
         y="108.14637"><tspan
           style="stroke-width:0.2646">help you.&quot;</tspan></tspan></text>
    <text
       xml:space="preserve"
       style="font-size:2.82241px;line-height:1;font-family:'Cascadia Code';-inkscape-font-specification:'Cascadia Code';letter-spacing:0px;word-spacing:0px;stroke-width:0.2646"
       x="-83.080078"
       y="82.034782"
       id="text1287"><tspan
         sodipodi:role="line"
         x="-83.080078"
         y="82.034782"
         style="stroke-width:0.2646"
         id="tspan1305" /></text>
    <g
       transform="translate(-160.15464,21.456339)"
       id="g1083">
      <g
         id="g1058"
         transform="translate(0.31424322)">
        <g
           transform="translate(-0.41569966,-4.2986257)"
           id="g994">
          <path
             d="m 137.8,17.28 -15.4,78.78 20.4,56.84 h 45.9 z"
             class="selected"
             fill="#ffffff"
             fill-opacity="1"
             stroke="#000000"
             stroke-opacity="1"
             stroke-width="9.85896"
             id="path1021"
             style="fill:#ff8080;stroke:#000000;stroke-width:1.9709;stroke-miterlimit:4;stroke-dasharray:none;stroke-opacity:1"
             transform="matrix(0.027,0,0,0.0267,117.1,43.2)"
             inkscape:connector-curvature="0" />
          <path
             d="M 74.5,19 20,378.2 V 494.3 H 228 L 210.1,386.5 h -96.8 l -2.2,-6.2 -25.82,-71.5 17.52,-6.4 23.6,65.4 h 90.4 l 230.6,-3 9.9,-33.4 H 278.5 v -18.6 h 184.2 l 7.4,-25.2 -54.6,-78.1 h -124 l -20.4,-37.6 h -75.3 v -0.3 h -46.4 l 10.2,28.4 -17.6,6.3 -26.6,-74.3 -0.1,0.8 z"
             class=""
             fill="#ffffff"
             fill-opacity="1"
             id="path1023"
             style="fill:#ac9d93;stroke:#000000;stroke-width:1.9709;stroke-miterlimit:4;stroke-dasharray:none;stroke-opacity:1"
             transform="matrix(0.027,0,0,0.0267,117.1,43.2)"
             inkscape:connector-curvature="0" />
          <path
             d="M 207.9,197.2 H 264 l 21.4,38.9 -26.1,-0.4 z"
             class=""
             fill="url(#gradient-4)"
             stroke="#000000"
             stroke-opacity="1"
             stroke-width="19.7179"
             id="path1025"
             style="fill:#d38d5f;stroke:#000000;stroke-width:1.9709;stroke-miterlimit:4;stroke-dasharray:none;stroke-opacity:1"
             transform="matrix(0.027,0,0,0.0267,117.1,43.2)"
             inkscape:connector-curvature="0" />
          <path
             d="m 438.3,209.5 38.6,55.1 16.1,-55.1 z"
             class=""
             fill="#000000"
             fill-opacity="1"
             stroke="#000000"
             stroke-opacity="1"
             stroke-width="19.7179"
             id="path1027"
             style="fill:#000000;stroke:#000000;stroke-width:1.9709;stroke-miterlimit:4;stroke-dasharray:none;stroke-opacity:1"
             transform="matrix(0.027,0,0,0.0267,117.1,43.2)"
             inkscape:connector-curvature="0" />
          <path
             d="m 355.5,225.4 c 6.6,0 12,5.4 12,12 0,6.6 -5.4,12 -12,12 -6.6,0 -11.9,-5.4 -11.9,-12 0,-6.6 5.3,-12 11.9,-12 z"
             class=""
             fill="#000000"
             fill-opacity="1"
             stroke="#000000"
             stroke-opacity="1"
             stroke-width="19.7179"
             id="path1029"
             style="fill:#ffffff;stroke:#000000;stroke-width:1.9709;stroke-miterlimit:4;stroke-dasharray:none;stroke-opacity:1"
             transform="matrix(0.027,0,0,0.0267,117.1,43.2)"
             inkscape:connector-curvature="0" />
          <path
             d="m 400.1,225.4 c 6.6,0 12,5.4 12,12 0,6.6 -5.4,12 -12,12 -6.6,0 -11.9,-5.4 -11.9,-12 0,-6.6 5.3,-12 11.9,-12 z"
             class=""
             fill="#000000"
             fill-opacity="1"
             stroke="#000000"
             stroke-opacity="1"
             stroke-width="157.743"
             id="path1031"
             style="fill:#ffffff;stroke:#000000;stroke-width:1.9709;stroke-miterlimit:4;stroke-dasharray:none;stroke-opacity:1"
             transform="matrix(0.027,0,0,0.0267,117.1,43.2)"
             inkscape:connector-curvature="0" />
          <path
             d="m 333.9,254.6 c 6.7,0 12,5.4 12,12 0,6.6 -5.3,12 -12,12 -6.6,0 -11.9,-5.4 -11.9,-12 0,-6.6 5.3,-12 11.9,-12 z"
             class=""
             fill="#ffffff"
             fill-opacity="1"
             id="path1033"
             style="fill:#ffffff;stroke:#000000;stroke-width:1.9709;stroke-miterlimit:4;stroke-dasharray:none;stroke-opacity:1"
             transform="matrix(0.027,0,0,0.0267,117.1,43.2)"
             inkscape:connector-curvature="0" />
          <path
             d="m 377.1,254.6 c 6.6,0 12,5.4 12,12 0,6.6 -5.4,12 -12,12 -6.6,0 -12,-5.4 -12,-12 0,-6.6 5.4,-12 12,-12 z"
             class=""
             fill="#ffffff"
             fill-opacity="1"
             id="path1035"
             style="fill:#ffffff;stroke:#000000;stroke-width:1.9709;stroke-miterlimit:4;stroke-dasharray:none;stroke-opacity:1"
             transform="matrix(0.027,0,0,0.0267,117.1,43.2)"
             inkscape:connector-curvature="0" />
          <path
             d="m 419.1,254.6 c 6.6,0 12,5.4 12,12 0,6.6 -5.4,12 -12,12 -6.6,0 -11.9,-5.4 -11.9,-12 0,-6.6 5.3,-12 11.9,-12 z"
             class=""
             fill="url(#gradient-10)"
             id="path1037"
             style="fill:#ffffff;stroke:#000000;stroke-width:1.9709;stroke-miterlimit:4;stroke-dasharray:none;stroke-opacity:1"
             transform="matrix(0.027,0,0,0.0267,117.1,43.2)"
             inkscape:connector-curvature="0" />
        </g>
        <text
           transform="matrix(0.26458333,0,0,0.26458333,-113.27557,-65.799057)"
           id="text998"
           y="458.31061"
           x="856.13153"
           style="font-size:9.33333px;line-height:1;font-family:'Cascadia Code';-inkscape-font-specification:'Cascadia Code';letter-spacing:0px;word-spacing:0px"
           xml:space="preserve"><tspan
             y="458.31061"
             x="856.13153"
             id="tspan996"
             sodipodi:role="line">Nemoud (Hound)</tspan></text>
      </g>
      <g
         id="g1032"
         transform="translate(8.2862663)">
        <path
           transform="translate(-6.3459124,-2.9151227)"
           style="fill:#a05a2c;stroke:#000000;stroke-width:0.0529165;stroke-miterlimit:4;stroke-dasharray:none;stroke-opacity:1"
           id="path977"
           fill-opacity="1"
           fill="#ffffff"
           class=""
           d="m 98.86,45.69 c -0.42,0 -1.03,0.12 -1.61,0.34 -0.55,0.2 -1.07,0.47 -1.44,0.71 0.31,0.12 0.62,0.24 0.92,0.38 0.38,-0.14 0.79,-0.23 1.22,-0.29 -0.25,0.16 -0.53,0.32 -0.76,0.51 0.21,0.11 0.43,0.22 0.64,0.34 0.34,-0.2 0.73,-0.37 1.13,-0.52 -0.25,0.25 -0.53,0.48 -0.74,0.76 0.7,0.44 1.4,0.98 2.18,1.64 -0.63,0.72 -1.08,1.48 -1.91,2.47 -0.36,0.44 -1.04,0.69 -1.68,0.95 -0.32,0.13 -0.64,0.26 -0.88,0.39 0,0 0,0 0,0 0.1,0 0.15,0 0.25,0 0.46,0.11 0.99,0.27 1.32,0.6 0.34,0.33 0.49,0.86 0.6,1.32 0,0.1 0,0.16 0,0.25 0,0 0,0 0,0 0.13,-0.24 0.26,-0.56 0.39,-0.88 0.26,-0.64 0.5,-1.32 0.94,-1.69 1.07,-0.82 1.77,-1.27 2.47,-1.86 0.7,0.73 1.2,1.44 1.7,2.14 0.3,-0.21 0.5,-0.49 0.7,-0.74 -0.1,0.4 -0.3,0.79 -0.5,1.13 0.1,0.22 0.3,0.43 0.4,0.64 0.2,-0.23 0.3,-0.51 0.5,-0.76 -0.1,0.42 -0.2,0.84 -0.3,1.22 0.1,0.3 0.2,0.61 0.4,0.92 0.2,-0.37 0.5,-0.89 0.7,-1.44 0.3,-0.77 0.4,-1.59 0.3,-1.96 -0.2,-0.39 -0.7,-0.98 -1.4,-1.51 -0.4,-0.3 -0.8,-0.6 -1.3,-0.85 0.7,-0.82 1.4,-1.83 1.4,-1.83 v 0 h 0.1 c 0,0 0,-0.1 0,-0.11 0.4,-0.11 0.5,0.1 0.8,0.39 0,-0.71 -0.3,-1.12 -0.7,-1.34 0,-0.1 -0.1,-0.1 -0.1,-0.13 -0.1,-0.12 -0.3,-0.21 -0.5,-0.22 -0.2,0 -0.4,0.1 -0.7,0.28 v 0 0 c 0,0 -1,0.73 -1.8,1.41 -0.3,-0.42 -0.6,-0.86 -0.9,-1.26 -0.5,-0.69 -1.13,-1.25 -1.52,-1.37 -0.1,0 -0.21,-0.1 -0.35,-0.1 z"
           inkscape:connector-curvature="0" />
        <text
           transform="matrix(0.26458333,0,0,0.26458333,-120.5148,-81.669612)"
           id="text1002"
           y="464.46436"
           x="771.7832"
           style="font-size:9.33333px;line-height:1;font-family:'Cascadia Code';-inkscape-font-specification:'Cascadia Code';letter-spacing:0px;word-spacing:0px"
           xml:space="preserve"><tspan
             y="464.46436"
             x="771.7832"
             id="tspan1000"
             sodipodi:role="line">Harrus (Falcon)</tspan></text>
      </g>
      <g
         id="g1013"
         transform="translate(-6.8503838)">
        <g
           transform="translate(9.9422192,-1.2299145)"
           id="g983">
          <path
             d="m 297.7,21.06 c -15.6,0.14 -31.5,4.08 -46.7,12.35 35,-2.55 65.8,8.18 74.4,33.93 C 196.5,50.49 65.13,180.7 293.7,312.5 355.7,348.3 313,440.3 189.3,387.6 24.49,317.4 36.47,186.9 95.84,118.6 c 7.36,12.3 13.46,26.2 18.96,40.7 19,-48.6 56.4,-68.61 93.6,-88.8 -52.2,-24.58 -102,-14.78 -150.93,8.41 10.36,5.74 19.1,13.5 26.65,22.69 C -29.43,169.5 6.351,382 155.5,468.2 345.4,577.8 570.3,335.9 363.7,257.1 212.2,199.3 252,117.2 325.7,130.9 l 2.6,42.7 141.3,39.3 20.9,-60.6 c -28.9,-12.5 -52.2,-26.6 -71.1,-43.9 1.3,-28.21 -10.6,-56.47 -33.9,-84.71 0.8,13.79 0.6,27.58 -1.6,41.37 -22.2,-28.08 -53.7,-44.28 -86.2,-44 z"
             class="selected"
             fill="#ffffff"
             fill-opacity="1"
             stroke="#000000"
             stroke-opacity="1"
             stroke-width="9.70916"
             id="path1092"
             style="fill:#668000;stroke:#000000;stroke-width:1.9419;stroke-miterlimit:4;stroke-dasharray:none;stroke-opacity:1"
             transform="matrix(0.0272,0,0,0.0273,137.4,43.36)"
             inkscape:connector-curvature="0" />
          <path
             d="m 341.1,86.44 c 23,7.26 44.7,20.86 62,44.06 -33.7,15.9 -69.1,-5.3 -62,-44.06 z"
             class=""
             fill="#ffffff"
             fill-opacity="1"
             id="path1094"
             style="fill:#1a1a1a;stroke:#000000;stroke-width:1.9419;stroke-miterlimit:4;stroke-dasharray:none;stroke-opacity:1"
             transform="matrix(0.0272,0,0,0.0273,137.4,43.36)"
             inkscape:connector-curvature="0" />
        </g>
        <text
           transform="matrix(0.26458333,0,0,0.26458333,-113.88683,-82.279103)"
           id="text1006"
           y="466.76794"
           x="961.86768"
           style="font-size:9.33333px;line-height:1;font-family:'Cascadia Code';-inkscape-font-specification:'Cascadia Code';letter-spacing:0px;word-spacing:0px"
           xml:space="preserve"><tspan
             y="466.76794"
             x="961.86768"
             id="tspan1004"
             sodipodi:role="line">Carolk (Sea Lizard)</tspan></text>
      </g>
    </g>
    <g
       transform="translate(-148.83302,-29.848301)"
       id="g1545">
      <g
         id="g1508"
         transform="translate(11.62776,-5.5238213)">
        <path
           inkscape:connector-curvature="0"
           transform="matrix(0.02276246,0,0,0.02276246,99.532242,72.178021)"
           style="fill:#d38d5f"
           d="m 10.001,439.322 c -2.559,0 -5.119,-0.976 -7.071,-2.929 -3.905,-3.905 -3.905,-10.237 0,-14.143 L 369.662,55.519 c 3.905,-3.904 10.237,-3.904 14.143,0 3.905,3.905 3.905,10.237 0,14.143 L 17.072,436.393 c -1.952,1.953 -4.512,2.929 -7.071,2.929 z"
           id="path1103" />
        <path
           inkscape:connector-curvature="0"
           transform="matrix(0.02276246,0,0,0.02276246,99.532242,72.178021)"
           style="fill:#672178"
           d="m 291.932,170.698 c -2.559,0 -5.118,-0.976 -7.071,-2.929 l -13.307,-13.307 c -3.905,-3.905 -3.906,-10.237 0,-14.142 3.906,-3.905 10.237,-3.906 14.142,0 l 13.307,13.307 c 3.905,3.905 3.906,10.237 0,14.142 -1.953,1.953 -4.512,2.929 -7.071,2.929 z"
           id="path1105" />
        <path
           inkscape:connector-curvature="0"
           transform="matrix(0.02276246,0,0,0.02276246,99.532242,72.178021)"
           style="fill:#f9e17a"
           d="m 274.31,188.32 c -2.559,0 -5.119,-0.976 -7.071,-2.929 l -13.307,-13.307 c -3.905,-3.905 -3.905,-10.237 0,-14.143 3.905,-3.905 10.237,-3.905 14.143,0 l 13.307,13.307 c 3.905,3.905 3.905,10.237 0,14.143 -1.953,1.953 -4.513,2.929 -7.072,2.929 z"
           id="path1107" />
        <path
           inkscape:connector-curvature="0"
           transform="matrix(0.02276246,0,0,0.02276246,99.532242,72.178021)"
           style="fill:#672178"
           d="m 256.689,205.941 c -2.56,0 -5.118,-0.976 -7.071,-2.929 l -13.307,-13.307 c -3.905,-3.905 -3.905,-10.237 0,-14.142 3.905,-3.904 10.237,-3.905 14.142,0 l 13.307,13.307 c 3.905,3.905 3.905,10.237 0,14.142 -1.953,1.953 -4.512,2.929 -7.071,2.929 z"
           id="path1109" />
        <path
           inkscape:connector-curvature="0"
           transform="matrix(0.02276246,0,0,0.02276246,99.532242,72.178021)"
           style="fill:#f9e17a"
           d="m 60.571,402.059 c -2.559,0 -5.119,-0.976 -7.071,-2.929 L 40.193,385.823 c -3.905,-3.905 -3.905,-10.237 0,-14.143 3.905,-3.905 10.237,-3.905 14.143,0 l 13.307,13.307 c 3.905,3.905 3.905,10.237 0,14.143 -1.953,1.953 -4.513,2.929 -7.072,2.929 z"
           id="path1111" />
        <path
           inkscape:connector-curvature="0"
           transform="matrix(0.02276246,0,0,0.02276246,99.532242,72.178021)"
           style="fill:#672178"
           d="m 42.949,419.681 c -2.559,0 -5.119,-0.976 -7.071,-2.929 L 22.571,403.445 c -3.905,-3.905 -3.905,-10.237 0,-14.143 3.905,-3.905 10.237,-3.905 14.143,0 l 13.307,13.307 c 3.905,3.905 3.905,10.237 0,14.143 -1.953,1.952 -4.513,2.929 -7.072,2.929 z"
           id="path1113" />
        <path
           inkscape:connector-curvature="0"
           transform="matrix(0.02276246,0,0,0.02276246,99.532242,72.178021)"
           style="fill:#3771c8"
           d="m 386.761,165.385 c 0,7.2 -1.15,14.52 -3.56,21.72 -17.9,-6 -31.66,-18.67 -39.47,-34.32 3.45,-7.17 5.23,-15.03 5.23,-22.96 0,-10.06 -2.87,-20.23 -8.86,-29.23 h 0.01 c 28.59,9.58 46.65,36.22 46.65,64.79 z"
           id="path1115" />
        <path
           inkscape:connector-curvature="0"
           transform="matrix(0.02276246,0,0,0.02276246,99.532242,72.178021)"
           style="fill:#66c5e2"
           d="m 343.731,152.785 c -3.97,8.28 -10.15,15.63 -18.35,21.08 -16.17,-24.3 -9.57,-57.1 14.72,-73.27 5.99,9 8.86,19.17 8.86,29.23 0,7.93 -1.78,15.79 -5.23,22.96 z"
           id="path1117" />
        <path
           inkscape:connector-curvature="0"
           transform="matrix(0.02276246,0,0,0.02276246,99.532242,72.178021)"
           style="fill:#999999"
           d="M 391.436,77.287 376.735,62.586 439.321,0 c 0,0 -15.62,36.975 -47.885,77.287 z"
           id="path1119" />
        <path
           inkscape:connector-curvature="0"
           transform="matrix(0.02276246,0,0,0.02276246,99.532242,72.178021)"
           style="fill:#666666"
           d="M 439.321,0 376.735,62.586 362.041,47.892 C 402.353,15.627 439.321,0 439.321,0 Z"
           id="path1121" />
      </g>
      <text
         transform="matrix(0.26458333,0,0,0.26458333,-124.57067,-41.768544)"
         id="text998-3"
         y="458.31061"
         x="909.84833"
         style="font-size:9.33333px;line-height:1;font-family:'Cascadia Code';-inkscape-font-specification:'Cascadia Code';letter-spacing:0px;word-spacing:0px"
         xml:space="preserve"><tspan
           y="458.31061"
           x="909.84833"
           id="tspan996-5"
           sodipodi:role="line"
           style="text-align:center;text-anchor:middle">Krelestro</tspan><tspan
           y="467.64395"
           x="909.84833"
           sodipodi:role="line"
           id="tspan1427"
           style="text-align:center;text-anchor:middle">(Harbringer of Doom)</tspan></text>
    </g>
    <g
       transform="translate(-150.42261,-28.174005)"
       id="g1529">
      <path
         inkscape:connector-curvature="0"
         id="path1256"
         d="m 433.146,393.616 c -6.767,-6.765 -16.137,-9.325 -24.881,-7.7 -7.023,-12.564 -18.734,-27.695 -33.549,-42.502 -12.826,-12.826 -25.886,-23.321 -37.319,-30.473 13.363,-15.257 22.938,-29.971 26.973,-40.97 5.58,2.017 11.053,1.527 14.424,-1.844 5.449,-5.455 3.37,-16.377 -4.641,-24.398 -8.027,-8.028 -18.953,-10.107 -24.403,-4.652 -3.384,3.383 -3.854,8.843 -1.839,14.43 -10.201,3.731 -23.597,12.252 -37.66,24.117 L 53.098,8.783 0,0.046 9.728,52.15 278.93,311.085 c -11.48,13.74 -19.732,26.796 -23.388,36.788 -5.581,-2.019 -11.053,-1.537 -14.424,1.833 -5.461,5.455 -3.376,16.384 4.651,24.4 8.017,8.027 18.943,10.106 24.396,4.651 3.381,-3.376 3.853,-8.849 1.845,-14.431 10.996,-4.026 25.717,-13.608 40.967,-26.966 7.157,11.437 17.646,24.499 30.476,37.319 14.811,14.808 29.935,26.518 42.499,33.554 -1.625,8.745 0.935,18.107 7.699,24.872 10.907,10.904 28.593,10.904 39.502,0 10.906,-10.899 10.906,-28.578 -0.007,-39.489 z M 20.036,54.561 14.26,25.765 29.092,45.5 276.796,293.215 Z"
         transform="matrix(-0.0226587,0,0,0.0226587,102.86881,72.539712)"
         style="fill:#808080" />
      <text
         xml:space="preserve"
         style="font-size:9.33333px;line-height:1;font-family:'Cascadia Code';-inkscape-font-specification:'Cascadia Code';letter-spacing:0px;word-spacing:0px"
         x="909.84833"
         y="458.31061"
         id="text998-3-6"
         transform="matrix(0.26458333,0,0,0.26458333,-142.23488,-52.798473)"><tspan
           style="text-align:center;text-anchor:middle"
           id="tspan1427-9"
           sodipodi:role="line"
           x="909.84833"
           y="458.31061">Freedom's</tspan><tspan
           style="text-align:center;text-anchor:middle"
           sodipodi:role="line"
           x="909.84833"
           y="467.64395"
           id="tspan1523">Tongue</tspan></text>
    </g>
    <g
       transform="translate(-149.04756,-28.462715)"
       id="g1560">
      <g
         id="g1519"
         transform="matrix(0.42872527,0,0,0.42872527,74.394872,42.029252)">
        <path
           inkscape:connector-curvature="0"
           style="fill:#c83737;stroke:#000000;stroke-width:4.14484;stroke-miterlimit:4;stroke-dasharray:none;stroke-opacity:1"
           transform="matrix(0.02114486,0,0,0.04817765,133.31258,70.491961)"
           d="m 256,16 c -40.2,0 -73,32.79 -73,73 0,32.2 21,59.6 50,69.3 V 496 h 46 V 158.3 c 29,-9.7 50,-37.1 50,-69.3 0,-40.21 -32.8,-73 -73,-73 z"
           class="selected"
           fill="white"
           fill-opacity="1"
           stroke="black"
           stroke-opacity="1"
           stroke-width="1"
           id="path1333" />
        <path
           inkscape:connector-curvature="0"
           style="fill:#ffcc00;stroke:#000000;stroke-width:6.25645;stroke-miterlimit:4;stroke-dasharray:none;stroke-opacity:1"
           transform="matrix(0.02114486,0,0,0.02114486,133.31258,73.027637)"
           d="m 256,34 c 30.5,0 55,24.52 55,55 0,30.5 -24.5,55 -55,55 -30.5,0 -55,-24.5 -55,-55 0,-3.55 0.3,-7.02 1,-10.38 C 207.2,90.01 218.7,98 232,98 250.1,98 265,83.12 265,65 265,51.73 257,40.21 245.6,34.98 249,34.35 252.4,34 256,34 Z"
           class=""
           fill="white"
           fill-opacity="1"
           id="path1335" />
        <path
           inkscape:connector-curvature="0"
           transform="matrix(0.02114486,0,0,0.02114486,133.51229,74.615138)"
           d="m 29.51,65.88 c 4.35,23.5 9.23,45.72 14.87,66.82 46.3,25.2 114.92,54.7 170.62,69.5 V 192 C 149.6,159 75.7,106.7 29.51,65.88 Z"
           class=""
           fill="url(#gradient-4)"
           stroke="black"
           stroke-opacity="1"
           stroke-width="2"
           id="path1337"
           style="fill:#0055d4;stroke:#000000;stroke-width:6.25645;stroke-miterlimit:4;stroke-dasharray:none;stroke-opacity:1" />
        <path
           inkscape:connector-curvature="0"
           style="fill:#0055d4;stroke:#000000;stroke-width:6.25645;stroke-miterlimit:4;stroke-dasharray:none;stroke-opacity:1"
           transform="matrix(0.02114486,0,0,0.02114486,133.11237,74.615138)"
           d="M 482.5,65.88 C 436.3,106.7 362.4,159 297,192 v 10.2 c 55.7,-14.8 124.3,-44.3 170.6,-69.5 5.7,-21.1 10.6,-43.33 14.9,-66.82 z"
           class=""
           fill="black"
           fill-opacity="1"
           stroke="black"
           stroke-opacity="1"
           stroke-width="2"
           id="path1339" />
        <path
           inkscape:connector-curvature="0"
           style="fill:#672178;fill-opacity:1;stroke:#000000;stroke-width:6.25645;stroke-miterlimit:4;stroke-dasharray:none;stroke-opacity:1"
           transform="matrix(0.02114486,0,0,0.02114486,133.51229,74.615138)"
           d="m 28.58,144.6 c 6.32,15.5 12.81,30.2 19.55,44.1 C 94.15,206 159.6,224.2 215,232.4 V 220.8 C 153,205.2 77.67,172.5 28.58,144.6 Z"
           class=""
           fill="black"
           fill-opacity="1"
           stroke="black"
           stroke-opacity="1"
           stroke-width="2"
           id="path1341" />
        <path
           inkscape:connector-curvature="0"
           style="fill:#672178;fill-opacity:1;stroke:#000000;stroke-width:6.25645;stroke-miterlimit:4;stroke-dasharray:none;stroke-opacity:1"
           transform="matrix(0.02114486,0,0,0.02114486,133.11237,74.615138)"
           d="M 483.4,144.6 C 434.3,172.5 359,205.2 297,220.8 v 11.6 c 55.4,-8.2 120.9,-26.4 166.9,-43.7 6.7,-13.9 13.2,-28.6 19.5,-44.1 z"
           class=""
           fill="black"
           fill-opacity="1"
           stroke="black"
           stroke-opacity="1"
           stroke-width="16"
           id="path1343" />
        <path
           inkscape:connector-curvature="0"
           style="fill:#ffd42a;stroke:#000000;stroke-width:6.25645;stroke-miterlimit:4;stroke-dasharray:none;stroke-opacity:1"
           transform="matrix(0.02114486,0,0,0.02114486,133.31258,75.144305)"
           d="m 247,161.4 c 3,0.4 6,0.6 9,0.6 3,0 6,-0.2 9,-0.6 V 425 h -18 z"
           class=""
           fill="white"
           fill-opacity="1"
           id="path1345" />
        <path
           inkscape:connector-curvature="0"
           style="fill:#0055d4;stroke:#000000;stroke-width:6.25645;stroke-miterlimit:4;stroke-dasharray:none;stroke-opacity:1"
           transform="matrix(0.02114486,0,0,0.02114486,133.51229,74.615138)"
           d="m 33.37,202.4 c 9.56,16.5 19.21,31.9 29.08,46.4 43.15,8.5 102.75,15 152.55,14.6 V 250.7 C 153.7,242.1 82.05,221.7 33.37,202.4 Z"
           class=""
           fill="white"
           fill-opacity="1"
           id="path1347" />
        <path
           inkscape:connector-curvature="0"
           transform="matrix(0.02114486,0,0,0.02114486,133.11237,74.615138)"
           d="M 478.6,202.4 C 430,221.7 358.3,242.1 297,250.7 v 12.7 c 49.8,0.4 109.5,-6.1 152.5,-14.6 9.9,-14.5 19.6,-29.9 29.1,-46.4 z"
           class=""
           fill="url(#gradient-10)"
           id="path1349"
           style="fill:#0055d4;stroke:#000000;stroke-width:6.25645;stroke-miterlimit:4;stroke-dasharray:none;stroke-opacity:1" />
      </g>
      <text
         transform="matrix(0.26458333,0,0,0.26458333,-106.84401,-52.774357)"
         id="text998-3-6-1"
         y="458.31061"
         x="909.84833"
         style="font-size:9.33333px;line-height:1;font-family:'Cascadia Code';-inkscape-font-specification:'Cascadia Code';letter-spacing:0px;word-spacing:0px"
         xml:space="preserve"><tspan
           y="458.31061"
           x="909.84833"
           sodipodi:role="line"
           id="tspan1427-9-2"
           style="text-align:center;text-anchor:middle">Baton of</tspan><tspan
           y="467.64395"
           x="909.84833"
           sodipodi:role="line"
           style="text-align:center;text-anchor:middle"
           id="tspan1521">Retribution</tspan></text>
    </g>
    <path
       sodipodi:nodetypes="cc"
       id="path1795"
       d="m -29.911814,41.160634 6.174709,-3.61432"
       style="mix-blend-mode:color-burn;fill:none;stroke:#ffff00;stroke-width:1.85208;stroke-linecap:butt;stroke-linejoin:miter;stroke-miterlimit:4;stroke-dasharray:none;stroke-opacity:1"
       inkscape:connector-curvature="0" />
    <path
       id="path1797"
       d="M -23.374129,36.722658 V 39.94428"
       style="mix-blend-mode:color-burn;fill:none;fill-opacity:1;stroke:#ffff00;stroke-width:2.11667;stroke-linecap:butt;stroke-linejoin:miter;stroke-miterlimit:4;stroke-dasharray:none;stroke-opacity:1"
       inkscape:connector-curvature="0" />
    <path
       style="mix-blend-mode:color-burn;fill:none;stroke:#ffff00;stroke-width:1.85208;stroke-linecap:butt;stroke-linejoin:miter;stroke-miterlimit:4;stroke-dasharray:none;stroke-opacity:1"
       d="m -37.330056,41.144208 -6.174709,-3.61432"
       id="path1795-6"
       sodipodi:nodetypes="cc"
       inkscape:connector-curvature="0" />
    <path
       style="mix-blend-mode:color-burn;fill:none;fill-opacity:1;stroke:#ffff00;stroke-width:2.11667;stroke-linecap:butt;stroke-linejoin:miter;stroke-miterlimit:4;stroke-dasharray:none;stroke-opacity:1"
       d="m -43.867741,36.706232 v 3.221622"
       id="path1797-0"
       inkscape:connector-curvature="0" />
    <path
       inkscape:connector-curvature="0"
       d="m -43.425043,36.780624 h 9.327688 c -0.178202,0.09893 -0.348951,0.255868 -0.504861,0.475118 -0.291521,0.409979 -0.495097,1.021863 -0.495097,1.709037 0,0.687173 0.203641,1.299057 0.495097,1.709036 0.29152,0.40985 0.634432,0.603598 0.982419,0.603598 0.347988,0 0.6909,-0.193684 0.98242,-0.603598 0.291521,-0.409979 0.495097,-1.021863 0.495097,-1.709036 0,-0.687174 -0.203641,-1.299058 -0.495097,-1.709037 -0.15591,-0.21925 -0.326659,-0.376124 -0.504925,-0.475118 h 9.327752 l -6.451992,3.98287 h 2.336724 l 5.508437,-3.400728 c 0.01445,0.02004 0.02923,0.03983 0.04356,0.05987 v 4.497174 h -9.856831 c -0.392634,0.316317 -0.866403,0.513918 -1.38514,0.513918 -0.518736,0 -0.992505,-0.197601 -1.385203,-0.513918 h -9.856767 v -4.497174 c 0.01433,-0.02004 0.0291,-0.03983 0.04355,-0.05981 l 5.508437,3.400664 h 2.336659 l -6.451991,-3.98287 z"
       class=""
       fill="url(#gradient-4)"
       stroke="black"
       stroke-opacity="1"
       stroke-width="2"
       id="path1684"
       style="fill:#ffffff;stroke:#4d4d4d;stroke-width:0.132292;stroke-miterlimit:4;stroke-dasharray:none;stroke-opacity:1" />
    <path
       inkscape:connector-curvature="0"
       style="mix-blend-mode:normal;fill:#ffffff;fill-opacity:1;fill-rule:nonzero;stroke:#4d4d4d;stroke-width:0.132292;stroke-miterlimit:4;stroke-dasharray:none;stroke-opacity:1"
       d="m -44.861767,43.333087 h 8.736617 v 15.704711 c -1.280107,-0.234025 -2.520385,-0.64895 -3.683512,-1.232441 l 2.527195,-3.790792 v -2.574733 l -3.829657,5.621499 c -1.464026,-0.946252 -2.736489,-2.160128 -3.750643,-3.577965 z"
       class=""
       fill="black"
       fill-opacity="1"
       stroke="black"
       stroke-opacity="1"
       stroke-width="16"
       id="path1690" />
    <path
       inkscape:connector-curvature="0"
       style="fill:#ffffff;stroke:#4d4d4d;stroke-width:0.132292;stroke-miterlimit:4;stroke-dasharray:none;stroke-opacity:1"
       d="m -31.114443,43.333087 h 8.736617 v 10.150279 c -1.014154,1.417837 -2.286617,2.631713 -3.750643,3.577965 l -3.829657,-5.621499 v 2.574733 l 2.527195,3.790792 c -1.163127,0.583491 -2.403405,0.99848 -3.683512,1.232506 z"
       class=""
       fill="white"
       fill-opacity="1"
       id="path1692" />
    <path
       inkscape:connector-curvature="0"
       style="fill:#ffffff;stroke:#666666;stroke-width:0.132292;stroke-miterlimit:4;stroke-dasharray:none;stroke-opacity:1"
       d="m -34.197955,49.564351 h 1.156317 v 9.687302 c -0.192591,0.0083 -0.385375,0.01259 -0.578159,0.01291 -0.193747,0 -0.386338,-0.0051 -0.578158,-0.01291 z"
       class=""
       fill="white"
       fill-opacity="1"
       id="path1694" />
    <path
       inkscape:connector-curvature="0"
       sodipodi:nodetypes="cc"
       id="path1834"
       d="m -26.750523,57.486577 -3.342165,-5.771863"
       style="mix-blend-mode:color-burn;fill:none;stroke:#ffff00;stroke-width:1.93146;stroke-linecap:butt;stroke-linejoin:miter;stroke-miterlimit:4;stroke-dasharray:none;stroke-opacity:1" />
    <path
       inkscape:connector-curvature="0"
       style="mix-blend-mode:color-burn;fill:none;stroke:#ffff00;stroke-width:1.93146;stroke-linecap:butt;stroke-linejoin:miter;stroke-miterlimit:4;stroke-dasharray:none;stroke-opacity:1"
       d="m -40.501534,57.504482 3.342165,-5.771862"
       id="path1834-1"
       sodipodi:nodetypes="cc" />
    <text
       id="text4138"
       y="33.418858"
       x="-68.198311"
       style="font-size:8.42943px;line-height:1;font-family:'Cascadia Code';-inkscape-font-specification:'Cascadia Code';letter-spacing:1.38179px;word-spacing:0px;mix-blend-mode:multiply;stroke-width:0.276358"
       xml:space="preserve"><tspan
         style="stroke-width:0.276358"
         y="33.418858"
         x="-68.198311"
         id="tspan4136"
         sodipodi:role="line">Trith</tspan></text>
    <text
       xml:space="preserve"
       style="font-size:8.42944px;line-height:1;font-family:'Cascadia Code';-inkscape-font-specification:'Cascadia Code';letter-spacing:1.33954px;word-spacing:0px;mix-blend-mode:multiply;stroke-width:0.267908"
       x="-28.444536"
       y="33.418858"
       id="text4138-2"><tspan
         style="stroke-width:0.267908"
         sodipodi:role="line"
         id="tspan4136-0"
         x="-28.444536"
         y="33.418858">ereon</tspan></text>
    <text
       xml:space="preserve"
       style="font-size:2.82223px;line-height:1;font-family:'Cascadia Code';-inkscape-font-specification:'Cascadia Code';letter-spacing:0px;word-spacing:0px;inline-size:146.405;stroke-width:0.264583"
       x="-91.145561"
       y="149.40041"
       id="text1585"><tspan
         sodipodi:role="line"
         x="-91.145561"
         y="149.40041"><tspan
           style="stroke-width:0.264583">Trithereon clearly has a different outlook from Ul; Libertarianism versus quasi-communism. Because </tspan></tspan><tspan
         sodipodi:role="line"
         x="-91.145561"
         y="152.22264"><tspan
           style="stroke-width:0.264583">of this, worship is considered subversive and kept very private and this is the only real secret that </tspan></tspan><tspan
         sodipodi:role="line"
         x="-91.145561"
         y="155.04487"><tspan
           style="stroke-width:0.264583">Kaliska was keeping in Ul before her leave.</tspan><tspan
           dx="1.0252647"
           style="stroke-width:0.264583" /></tspan><tspan
         sodipodi:role="line"
         x="-91.145561"
         y="157.86711"><tspan
           style="stroke-width:0.264583" /></tspan><tspan
         sodipodi:role="line"
         x="-91.145561"
         y="160.68934"><tspan
           style="stroke-width:0.264583">Where the two intersect, in Kaliska, is in taking action. Kaliska was driven batty by Ul's isolationism &amp; </tspan></tspan><tspan
         sodipodi:role="line"
         x="-91.145561"
         y="163.51158"><tspan
           style="stroke-width:0.264583">the decision to sacrifice unknowing &quot;good&quot; citizens. She is not a cleric; not a prophet or full devotee. </tspan></tspan><tspan
         sodipodi:role="line"
         x="-91.145561"
         y="166.33381"><tspan
           style="stroke-width:0.264583">She is a vessel. Her blend of worship doesn't accept the view of calling for total liberty from the state. </tspan></tspan><tspan
         sodipodi:role="line"
         x="-91.145561"
         y="169.15605"><tspan
           style="stroke-width:0.264583">But rather, liberty of thought, of agency. To allow each a choice of accepting or rejecting, at least </tspan></tspan><tspan
         sodipodi:role="line"
         x="-91.145561"
         y="171.97828"><tspan
           style="stroke-width:0.264583">once, that which the state asks of you. [Kind of a </tspan><tspan
           style="font-style:italic;stroke-width:0.264583">Rumspinga </tspan><tspan
           style="stroke-width:0.264583">myth]</tspan><tspan
           dx="1.2843399"
           style="stroke-width:0.264583" /></tspan><tspan
         sodipodi:role="line"
         x="-91.145561"
         y="174.80052"><tspan
           style="stroke-width:0.264583" /></tspan><tspan
         sodipodi:role="line"
         x="-91.145561"
         y="177.62275"><tspan
           style="stroke-width:0.264583">To that end, her morals are to fiercely reject foreign power, support self-determination, punish </tspan></tspan><tspan
         sodipodi:role="line"
         x="-91.145561"
         y="180.44499"><tspan
           style="stroke-width:0.264583">deceivers, and yet maintain absolute fealty to one's (chosen) community. It's a balance of the two </tspan></tspan><tspan
         sodipodi:role="line"
         x="-91.145561"
         y="183.26722"><tspan
           style="stroke-width:0.264583">competing dogmas, but a razor-thin delicate one. Time and events may tell if she tips one way or </tspan></tspan><tspan
         sodipodi:role="line"
         x="-91.145561"
         y="186.08946"><tspan
           style="stroke-width:0.264583">another.</tspan></tspan></text>
    <text
       id="text901"
       y="127.33781"
       x="56.02523"
       style="font-style:normal;font-weight:normal;font-size:4.23333px;line-height:1.25;font-family:sans-serif;inline-size:112.025;fill:#000000;fill-opacity:1;stroke:none;stroke-width:0.264583"
       xml:space="preserve"><tspan
         sodipodi:role="line"
         x="56.02523"
         y="127.33781"><tspan
           style="stroke-width:0.264583">All deserve life and the ability to choose their own </tspan><tspan
           dx="1.4882812"
           style="stroke-width:0.264583" /></tspan><tspan
         sodipodi:role="line"
         x="56.02523"
         y="132.62947"><tspan
           style="stroke-width:0.264583">place in the world. Whomever would place others in </tspan><tspan
           dx="1.4882736"
           style="stroke-width:0.264583" /></tspan><tspan
         sodipodi:role="line"
         x="56.02523"
         y="137.92112"><tspan
           style="stroke-width:0.264583">shackles, or rule them with unjust laws, must be </tspan></tspan><tspan
         sodipodi:role="line"
         x="56.02523"
         y="143.21278"><tspan
           style="stroke-width:0.264583">toppled.</tspan><tspan
           dx="1.5378885"
           style="stroke-width:0.264583" /></tspan><tspan
         sodipodi:role="line"
         x="56.02523"
         y="148.50444"><tspan
           style="stroke-width:0.264583" /></tspan><tspan
         sodipodi:role="line"
         x="56.02523"
         y="153.79609"><tspan
           style="stroke-width:0.264583">All other concerns are distractions from this </tspan></tspan><tspan
         sodipodi:role="line"
         x="56.02523"
         y="159.08775"><tspan
           style="stroke-width:0.264583">struggle. I swear I will never deviate or cease </tspan></tspan><tspan
         sodipodi:role="line"
         x="56.02523"
         y="164.37941"><tspan
           style="stroke-width:0.264583">pursuing those who seek to rob others of agency; </tspan><tspan
           dx="1.4882812"
           style="stroke-width:0.264583" /></tspan><tspan
         sodipodi:role="line"
         x="56.02523"
         y="169.67106"><tspan
           style="stroke-width:0.264583" /></tspan><tspan
         sodipodi:role="line"
         x="56.02523"
         y="174.96272"><tspan
           style="stroke-width:0.264583">that I must make amends to all who have been so </tspan></tspan><tspan
         sodipodi:role="line"
         x="56.02523"
         y="180.25438"><tspan
           style="stroke-width:0.264583">wronged, and that without qualm, oppression </tspan></tspan><tspan
         sodipodi:role="line"
         x="56.02523"
         y="185.54603"><tspan
           style="stroke-width:0.264583">begats no clemency. They shall reap what they </tspan></tspan><tspan
         sodipodi:role="line"
         x="56.02523"
         y="190.83769"><tspan
           style="stroke-width:0.264583">have sown. This shall be so, until the end of my </tspan></tspan><tspan
         sodipodi:role="line"
         x="56.02523"
         y="196.12935"><tspan
           style="stroke-width:0.264583">days</tspan></tspan></text>
    <text
       id="text1179"
       y="29.864805"
       x="58.005466"
       style="font-size:3.52777px;line-height:1.25;font-family:sans-serif;stroke-width:0.264583"
       xml:space="preserve"><tspan
         id="tspan1217"
         style="stroke-width:0.264583"
         y="29.864805"
         x="58.005466"
         sodipodi:role="line">To discern if a party is oppressed:</tspan><tspan
         id="tspan1429"
         style="stroke-width:0.264583"
         y="34.274521"
         x="58.005466"
         sodipodi:role="line">When confronted with a painful request,</tspan><tspan
         id="tspan1431"
         style="stroke-width:0.264583"
         y="38.684235"
         x="58.005466"
         sodipodi:role="line">the Right to say 'No'</tspan><tspan
         id="tspan1433"
         style="stroke-width:0.264583"
         y="43.093948"
         x="58.005466"
         sodipodi:role="line">is Freedom's hallow;</tspan><tspan
         id="tspan1435"
         style="stroke-width:0.264583"
         y="47.503654"
         x="58.005466"
         sodipodi:role="line">while Sacrifice, is choosing to say 'Yes'</tspan><tspan
         id="tspan1437"
         style="stroke-width:0.264583"
         y="51.913368"
         x="58.005466"
         sodipodi:role="line"></tspan><tspan
         id="tspan1439"
         style="stroke-width:0.264583"
         y="56.323082"
         x="58.005466"
         sodipodi:role="line">All merit life, and a chance to decide</tspan><tspan
         id="tspan1441"
         style="stroke-width:0.264583"
         y="60.732796"
         x="58.005466"
         sodipodi:role="line">what community they'd like to provide.</tspan><tspan
         id="tspan1443"
         style="stroke-width:0.264583"
         y="65.142509"
         x="58.005466"
         sodipodi:role="line">But given no choice?</tspan><tspan
         id="tspan1445"
         style="stroke-width:0.264583"
         y="69.552223"
         x="58.005466"
         sodipodi:role="line">Cry loud -- with one voice</tspan><tspan
         id="tspan1447"
         style="stroke-width:0.264583"
         y="73.961929"
         x="58.005466"
         sodipodi:role="line">that these subjugators will be Defied!</tspan><tspan
         id="tspan1449"
         style="stroke-width:0.264583"
         y="78.371651"
         x="58.005466"
         sodipodi:role="line"></tspan><tspan
         id="tspan1451"
         style="stroke-width:0.264583"
         y="82.781364"
         x="58.005466"
         sodipodi:role="line">All despots shall fall, slashed via Sword</tspan><tspan
         id="tspan1453"
         style="stroke-width:0.264583"
         y="87.191063"
         x="58.005466"
         sodipodi:role="line">withal what I privately abhor</tspan><tspan
         id="tspan1455"
         style="stroke-width:0.264583"
         y="91.600777"
         x="58.005466"
         sodipodi:role="line">though amends be made</tspan><tspan
         id="tspan1457"
         style="stroke-width:0.264583"
         y="96.01049"
         x="58.005466"
         sodipodi:role="line">to those needing aid;</tspan><tspan
         id="tspan1459"
         style="stroke-width:0.264583"
         y="100.4202"
         x="58.005466"
         sodipodi:role="line">for tyrants: 'No Mercy' their reward</tspan></text>
  </g>
</svg>
