<?xml version="1.0" encoding="UTF-8" standalone="no"?>
<svg
     xmlns:dc="http://purl.org/dc/elements/1.1/"
     xmlns:cc="http://creativecommons.org/ns#"
     xmlns:rdf="http://www.w3.org/1999/02/22-rdf-syntax-ns#"
     xmlns:svg="http://www.w3.org/2000/svg"
     xmlns="http://www.w3.org/2000/svg"
     xmlns:sodipodi="http://sodipodi.sourceforge.net/DTD/sodipodi-0.dtd"
     xmlns:inkscape="http://www.inkscape.org/namespaces/inkscape"
     width="210mm"
     height="297mm"
     viewBox="0 0 210 297"
     version="1.1"
     id="svg1254"
     inkscape:version="1.1-dev (1:0.92.0+devel+202003221343+10fd40f)"
     sodipodi:docname="faith.svg">
    <defs
         id="defs1248" />
    <sodipodi:namedview
         id="base"
         pagecolor="#ffffff"
         bordercolor="#666666"
         borderopacity="1.0"
         inkscape:pageopacity="0.0"
         inkscape:pageshadow="2"
         inkscape:zoom="1.833"
         inkscape:cx="375.1"
         inkscape:cy="22.19"
         inkscape:document-units="mm"
         inkscape:current-layer="layer1"
         showgrid="false"
         inkscape:window-width="1920"
         inkscape:window-height="983"
         inkscape:window-x="1820"
         inkscape:window-y="1467"
         inkscape:window-maximized="1" />
    <metadata
         id="metadata1251">
        <rdf:RDF>
            <cc:Work
                 rdf:about="">
                <dc:format>image/svg+xml</dc:format>
                <dc:type
                     rdf:resource="http://purl.org/dc/dcmitype/StillImage" />
                <dc:title />
            </cc:Work>
        </rdf:RDF>
    </metadata>
    <g
         inkscape:label="Layer 1"
         inkscape:groupmode="layer"
         id="layer1">
        <text
             xml:space="preserve"
             style="font-size:2.82241px;line-height:1;font-family:'Cascadia Code';-inkscape-font-specification:'Cascadia Code';letter-spacing:0px;word-spacing:0px;stroke-width:0.2646"
             x="18.48"
             y="18.73"
             id="text1321"><tspan
                 sodipodi:role="line"
                 x="18.48"
                 y="18.73"
                 style="stroke-width:0.2646"
                 id="tspan1323">- Cunning/Death: RavenQ (F magic and death, knowledge, LN)</tspan><tspan
                 sodipodi:role="line"
                 x="18.48"
                 y="21.55"
                 style="stroke-width:0.2646"
                 id="tspan1329" /></text>
        <text
             xml:space="preserve"
             style="font-size:2.46891px;line-height:1;font-family:'Cascadia Code';-inkscape-font-specification:'Cascadia Code';letter-spacing:0px;word-spacing:0px;stroke-width:0.264533"
             x="20.77"
             y="44.11"
             id="text52"><tspan
                 sodipodi:role="line"
                 id="tspan50"
                 x="20.77"
                 y="44.11"
                 style="stroke-width:0.264527">Oath / Faith</tspan></text>
        <path
             inkscape:connector-curvature="0"
             id="path4-9"
             fill-opacity="1"
             fill="#fff"
             d="m 7.749,36.62 -1.08,0.8 C 5.95,37.21 5.259,37.13 4.547,37.31 c -0.179,0 -0.288,0.11 -0.399,0.11 L 3.039,36.73 v 1.3 c -1.082,0.68 -1.582,1.98 -1.19,3.7 0.108,0.29 0.209,0.48 0.399,0.69 l -0.399,1.4 1.399,-0.72 c 1.011,0.22 2.091,-0.29 1.8,-1.37 0,-0.11 0,-0.21 -0.1,-0.32 -0.189,-0.39 -0.58,-0.5 -0.8,-0.29 -0.18,0.19 -0.291,0.69 -0.101,1.01 -0.5,-0.11 -0.899,-0.51 -1.008,-1.22 0,-0.19 0,-0.29 0,-0.5 l 1.22,-0.29 -0.902,-0.81 c 0.291,-0.6 0.902,-0.99 1.691,-1.1 l 0.51,1.1 0.5,-0.99 c 0.291,0.1 0.691,0.1 1.001,0.29 0.19,0.1 0.29,0.32 0.51,0.39 l -0.22,0.9 0.8,-0.18 c 0.32,0.4 0.5,0.9 0.71,1.4 -0.21,0 -0.31,0 -0.39,0 -2.31,-0.1 -3.601,1.98 -3.421,4.21 l -1.191,0.68 1.402,0.22 c 0.191,0.5 0.508,0.98 0.9,1.4 0.19,0.18 0.51,0.4 0.8,0.58 l -0.21,1.11 1.11,-0.71 c 1.58,0.5 3.491,0.5 4.791,-0.29 l 1.32,0.39 -0.5,-1.08 c 0.68,-0.9 0.79,-1.83 0.39,-2.41 l 0.4,-1.22 -1.22,0.51 c -0.1,-0.1 -0.39,-0.19 -0.58,-0.19 -1.3,-0.1 -2.591,1.09 -1.61,2.41 -0.1,-1.01 0.71,-1.72 1.29,-1.32 0.61,0.39 0.61,1.4 -0.18,1.9 -0.4,0.21 -0.9,0.4 -1.4,0.4 l -0.611,-1.19 -0.29,1.29 c -0.9,0 -1.8,-0.29 -2.41,-0.79 l 0.61,-1.3 -1.301,0.69 c -0.32,-0.4 -0.399,-0.69 -0.5,-1.19 0,-0.32 0,-0.61 0,-0.9 h 1.291 l -1,-0.9 c 0.209,-0.71 0.61,-1.21 1.11,-1.61 0.11,0.1 0.11,0.1 0.19,0.21 0.39,1.01 1.32,1.51 2.401,1.69 l 0.11,0.72 0.79,-0.61 c 1.11,0 2.3,-0.61 2.81,-1.51 0.61,-1 0.79,-2.59 0.21,-3.89 l 0.58,-1.29 -1.19,0.39 c 0,0 0,0 0,0 -0.71,-0.79 -1.9,-0.5 -2.59,0.29 l -1.331,-0.18 0.721,0.98 c -0.11,0.32 -0.211,0.61 -0.211,0.9 0,0.1 0.101,0.31 0.101,0.5 0.21,0.61 0.72,1.11 1.19,0.9 0.51,-0.11 0.72,-0.69 0.51,-1.4 0,-0.2 -0.1,-0.4 -0.19,-0.51 -0.4,0.22 -0.5,0.51 -0.61,1.01 -0.1,-0.7 0,-1.08 0.51,-1.4 v 0 c 0.29,-0.19 0.68,-0.29 0.89,-0.1 0.9,0.57 0.9,1.88 0.4,2.99 l -1.08,-0.11 0.39,0.9 c -0.31,0.32 -0.71,0.5 -1.11,0.61 -0.61,0.11 -1.401,0 -2.091,-0.29 0.11,-0.11 0.19,-0.42 0.29,-0.61 0.61,-1.69 -0.18,-3.41 -1.58,-4.31 l 0.18,-1.3 z"
             style="fill:none;stroke:#000000;stroke-width:0.264533;stroke-opacity:1" />
        <path
             id="path5242"
             stroke-width="0.264593"
             stroke-opacity="1"
             stroke="#000000"
             fill-opacity="1"
             fill="#ffffff"
             class="selected"
             d="m 3.457,56.35 c -0.23,0.39 -0.46,0.75 -0.738,1.05 0.159,0.34 0.188,0.75 0.1,1.17 -0.108,0.41 -0.349,0.85 -0.77,1.13 -0.249,0.18 -0.558,0.29 -0.929,0.31 0,0 0,0 0,0 0.76,0.73 2.149,1.36 3.149,1.33 C 4.56,60.79 4.65,60.15 4.61,59.49 4.51,58.34 4.049,57.13 3.459,56.35 Z"
             style="fill:none;stroke:#000000;stroke-width:0.0661083;stroke-miterlimit:4;stroke-dasharray:none;stroke-opacity:1" />
        <path
             style="fill:none;stroke:#000000;stroke-width:0.0661083;stroke-miterlimit:4;stroke-dasharray:none;stroke-opacity:1"
             id="path5244"
             fill-opacity="1"
             fill="#ffffff"
             class=""
             d="m 4.108,56.39 c 0.54,0.84 0.95,1.95 1.022,3.07 0.1,1.26 -0.321,2.54 -1.511,3.34 0,0.24 0.1,0.48 0.19,0.69 0.63,-0.95 1.81,-1.74 2.868,-2.06 0.292,-0.1 0.582,-0.14 0.852,-0.14 0.27,0 0.52,0.1 0.74,0.19 0.22,0.13 0.38,0.35 0.46,0.62 0.1,0.26 0.1,0.59 0,0.97 l -0.5,-0.11 c 0.1,-0.32 0.1,-0.56 0,-0.72 -0.1,-0.16 -0.12,-0.25 -0.24,-0.32 -0.11,-0.1 -0.27,-0.1 -0.47,-0.1 -0.33,0.36 -0.42,0.7 -0.39,1.03 0,0.35 0.22,0.69 0.44,0.9 0.31,0.3 0.65,0.4 0.96,0.37 0.31,0 0.6,-0.26 0.81,-0.63 0.671,-1.25 0.52,-2.54 -0.19,-3.7 -0.26,0.19 -0.6,0.22 -0.92,0.15 -0.37,-0.1 -0.75,-0.29 -1.07,-0.61 -0.32,-0.32 -0.529,-0.7 -0.611,-1.07 -0.1,-0.28 0,-0.58 0.1,-0.82 -0.759,-0.46 -1.619,-0.82 -2.54,-1.05 z" />
        <path
             style="fill:none;stroke:#000000;stroke-width:0.0661083;stroke-miterlimit:4;stroke-dasharray:none;stroke-opacity:1"
             id="path5246"
             stroke-width="0.529185"
             stroke-opacity="1"
             stroke="#000000"
             fill="url(#gradient-4)"
             class=""
             d="m 1.277,57.04 c 0,0 -0.1,0 -0.1,0 -1.339,0 -2.339,0.73 -2.99,1.83 0.261,0.14 0.431,0.4 0.531,0.69 0.12,0.36 0.12,0.79 0,1.23 -0.11,0.44 -0.331,0.81 -0.61,1.07 -0.231,0.2 -0.511,0.33 -0.801,0.33 0,0.96 0.1,1.96 0.361,2.94 0.459,-0.87 1.209,-1.8 2.149,-2.41 0.672,-0.45 1.46,-0.73 2.28,-0.7 0.421,0 0.852,0.11 1.281,0.31 0.209,-0.15 0.381,-0.31 0.529,-0.48 -1.13,-0.1 -2.378,-0.71 -3.17,-1.46 -0.449,-0.43 -0.759,-0.9 -0.748,-1.41 0,-0.25 0.1,-0.5 0.299,-0.71 0.19,-0.2 0.46,-0.36 0.83,-0.48 l 0.159,0.49 c -0.309,0.1 -0.51,0.23 -0.619,0.35 -0.119,0.12 -0.161,0.23 -0.161,0.36 0,0.13 0,0.29 0.14,0.47 0.481,0.1 0.831,0 1.09,-0.18 0.291,-0.2 0.482,-0.53 0.561,-0.83 0.1,-0.42 0,-0.77 -0.169,-1.02 -0.18,-0.23 -0.471,-0.38 -0.86,-0.39 z" />
        <path
             id="path5248"
             stroke-width="0.529185"
             stroke-opacity="1"
             stroke="#000000"
             fill-opacity="1"
             fill="#000000"
             class=""
             d="m 7.539,57.48 c -0.17,0 -0.29,0 -0.37,0.12 -0.11,0.11 -0.16,0.3 -0.11,0.55 0.1,0.26 0.22,0.56 0.47,0.82 0.26,0.25 0.56,0.42 0.81,0.47 0.26,0.1 0.44,0 0.55,-0.1 0.11,-0.12 0.16,-0.3 0.11,-0.55 -0.1,-0.26 -0.22,-0.56 -0.48,-0.82 -0.25,-0.25 -0.55,-0.41 -0.81,-0.47 -0.1,0 -0.12,0 -0.17,0 z"
             style="fill:none;stroke:#000000;stroke-width:0.0661083;stroke-miterlimit:4;stroke-dasharray:none;stroke-opacity:1" />
        <path
             id="path5250"
             stroke-width="0.529185"
             stroke-opacity="1"
             stroke="#000000"
             fill-opacity="1"
             fill="#000000"
             class=""
             d="m -2.203,59.28 c 0,0 0,0 0,0 -0.129,0 -0.27,0.1 -0.41,0.2 -0.19,0.17 -0.37,0.46 -0.46,0.81 -0.1,0.36 -0.1,0.7 0,0.94 0.1,0.25 0.21,0.39 0.36,0.43 0.16,0 0.34,0 0.531,-0.19 0.19,-0.17 0.369,-0.46 0.469,-0.81 0.1,-0.36 0.1,-0.7 0,-0.94 -0.1,-0.25 -0.21,-0.39 -0.36,-0.43 0,0 -0.1,0 -0.1,0 z"
             style="fill:none;stroke:#000000;stroke-width:0.0661083;stroke-miterlimit:4;stroke-dasharray:none;stroke-opacity:1" />
        <path
             id="path5252"
             stroke-width="4.23349"
             stroke-opacity="1"
             stroke="#000000"
             fill-opacity="1"
             fill="#000000"
             class=""
             d="m 6.829,61.93 c 0,0 0,0 0,0 -1.019,0.3 -2.271,1.19 -2.731,2.09 0.33,0.48 0.801,0.85 1.352,1.11 1.029,0.53 2.319,0.71 3.289,0.58 -0.2,-0.37 -0.39,-0.71 -0.51,-1.08 -0.36,0 -0.71,-0.21 -1.01,-0.51 -0.3,-0.29 -0.55,-0.74 -0.589,-1.24 0,-0.3 0,-0.63 0.199,-0.95 z"
             style="fill:none;stroke:#000000;stroke-width:0.0661083;stroke-miterlimit:4;stroke-dasharray:none;stroke-opacity:1" />
        <path
             style="fill:none;stroke:#000000;stroke-width:0.0661083;stroke-miterlimit:4;stroke-dasharray:none;stroke-opacity:1"
             id="path5254"
             fill-opacity="1"
             fill="#ffffff"
             class=""
             d="m 1.857,62.53 c -0.609,0 -1.199,0.27 -1.739,0.62 -0.97,0.63 -1.76,1.69 -2.141,2.59 0.41,0 0.8,0 1.171,0.1 0.21,-0.34 0.56,-0.6 0.999,-0.74 0.411,-0.1 0.9,-0.1 1.36,0.11 0.281,0.13 0.54,0.34 0.731,0.66 0,0 0,0 0,0 0.24,-1 0.111,-2.46 -0.381,-3.33 z" />
        <path
             style="fill:none;stroke:#000000;stroke-width:0.0661083;stroke-miterlimit:4;stroke-dasharray:none;stroke-opacity:1"
             id="path5256"
             fill-opacity="1"
             fill="#ffffff"
             class=""
             d="m 2.449,62.56 c 0.469,1.01 0.54,2.36 0.289,3.42 -0.141,0.58 -0.389,1.11 -0.831,1.35 -0.22,0.13 -0.49,0.15 -0.759,0.1 -0.281,-0.1 -0.551,-0.24 -0.839,-0.5 l 0.339,-0.37 c 0.251,0.21 0.449,0.32 0.619,0.37 0.161,0 0.272,0 0.391,-0.11 0.109,-0.1 0.23,-0.18 0.331,-0.34 C 1.838,66 1.579,65.74 1.288,65.61 0.968,65.47 0.587,65.47 0.298,65.5 c -0.42,0.13 -0.68,0.37 -0.801,0.66 -0.109,0.29 -0.1,0.66 0.14,1.03 0.78,1.27 2.061,1.78 3.532,1.67 0,0 0,-0.11 0,-0.11 -0.101,-0.37 0,-0.74 0.31,-1 0.248,-0.29 0.619,-0.5 1.061,-0.64 0.219,-0.1 0.428,-0.1 0.637,-0.1 0.212,0 0.41,0 0.59,0.1 0.302,0.11 0.572,0.32 0.701,0.59 0.691,-0.43 1.351,-0.93 1.941,-1.54 -0.99,0 -2.16,-0.16 -3.16,-0.66 -1.09,-0.56 -1.972,-1.51 -2.12,-2.85 -0.222,-0.1 -0.431,-0.16 -0.651,-0.2 z" />
        <path
             style="fill:none;stroke:#000000;stroke-width:0.0661083;stroke-miterlimit:4;stroke-dasharray:none;stroke-opacity:1"
             id="path5258"
             fill="url(#gradient-10)"
             class=""
             d="m 5.148,67.67 c -0.159,0 -0.331,0 -0.511,0.1 -0.349,0.11 -0.64,0.29 -0.809,0.48 -0.18,0.18 -0.23,0.37 -0.191,0.52 0,0.16 0.18,0.3 0.432,0.38 0.24,0.1 0.579,0.1 0.928,0 0.352,-0.11 0.641,-0.27 0.82,-0.48 0.172,-0.19 0.223,-0.37 0.18,-0.53 0,-0.13 -0.169,-0.29 -0.418,-0.37 -0.129,0 -0.27,-0.1 -0.431,-0.1 z" />
        <path
             id="path5313"
             stroke-width="0.264132"
             stroke-opacity="1"
             stroke="#000000"
             fill-opacity="1"
             fill="#ffffff"
             class="selected"
             d="m 27.91,59.13 c 0.87,1.04 1.4,2.38 1.4,3.83 0,0.58 -0.11,1.11 -0.24,1.64 -0.76,-0.16 -1.56,-0.16 -2.33,0 -0.15,-0.53 -0.23,-1.06 -0.23,-1.64 0,-1.45 0.53,-2.79 1.4,-3.83 z"
             style="fill:none;stroke:#000000;stroke-width:0.0661083;stroke-miterlimit:4;stroke-dasharray:none;stroke-opacity:1" />
        <path
             style="fill:none;stroke:#000000;stroke-width:0.0661083;stroke-miterlimit:4;stroke-dasharray:none;stroke-opacity:1"
             id="path5315"
             fill-opacity="1"
             fill="#ffffff"
             class=""
             d="m 27.88,64.94 c 0.37,0 0.72,0 1.06,0.11 -0.24,0.66 -0.61,1.24 -1.03,1.77 -0.42,-0.53 -0.8,-1.11 -1.03,-1.77 0.34,-0.11 0.68,-0.11 1,-0.11 z" />
        <path
             style="fill:none;stroke:#000000;stroke-width:0.0661083;stroke-miterlimit:4;stroke-dasharray:none;stroke-opacity:1"
             id="path5317"
             stroke-width="0.528262"
             stroke-opacity="1"
             stroke="#000000"
             fill="url(#gradient-4)"
             class=""
             d="m 26.4,65.13 c 0.26,0.77 0.66,1.43 1.19,2.01 -1.11,1.14 -2.64,1.83 -4.35,1.83 -0.35,0 -0.69,0 -1.03,-0.11 0.48,-1.27 1.39,-2.38 2.66,-3.12 0.5,-0.27 1,-0.48 1.53,-0.61 z" />
        <path
             id="path5319"
             stroke-width="0.528262"
             stroke-opacity="1"
             stroke="#000000"
             fill-opacity="1"
             fill="#000000"
             class=""
             d="m 29.42,65.13 c 1.5,0.4 2.88,1.38 3.75,2.83 0.16,0.29 0.32,0.61 0.43,0.93 -0.35,0.1 -0.66,0.1 -1.03,0.1 -1.7,0 -3.23,-0.68 -4.34,-1.82 0.53,-0.58 0.92,-1.25 1.19,-2.01 z"
             style="fill:none;stroke:#000000;stroke-width:0.0661083;stroke-miterlimit:4;stroke-dasharray:none;stroke-opacity:1" />
        <path
             id="path5321"
             stroke-width="0.528262"
             stroke-opacity="1"
             stroke="#000000"
             fill-opacity="1"
             fill="#000000"
             class=""
             d="m 34.23,69.23 -0.16,-0.45 c -0.13,-0.37 -0.29,-0.71 -0.5,-1.06 -0.9,-1.56 -2.38,-2.62 -4.02,-3.04 0.16,-0.53 0.24,-1.11 0.24,-1.72 0,-1.59 -0.58,-3.06 -1.56,-4.19 l -0.32,-0.34 -0.32,0.34 c -0.98,1.13 -1.56,2.6 -1.56,4.19 0,0.61 0.1,1.19 0.24,1.72 -0.56,0.16 -1.11,0.37 -1.64,0.66 -1.4,0.82 -2.39,2.04 -2.89,3.44 l -0.14,0.45 0.46,0.11 c 0.38,0.1 0.78,0.1 1.18,0.1 1.81,0 3.48,-0.74 4.67,-1.93 1.19,1.19 2.83,1.93 4.66,1.93 0.39,0 0.82,0 1.19,-0.1"
             style="fill:none;stroke:#000000;stroke-width:0.0661083;stroke-miterlimit:4;stroke-dasharray:none;stroke-opacity:1" />
        <text
             xml:space="preserve"
             style="font-size:2.46891px;line-height:1;font-family:'Cascadia Code';-inkscape-font-specification:'Cascadia Code';letter-spacing:0px;word-spacing:0px;stroke-width:0.264533"
             x="-0.2413"
             y="-16.6"
             id="text700"><tspan
                 id="tspan1086"
                 sodipodi:role="line"
                 x="-0.2413"
                 y="-16.6"
                 style="stroke-width:0.2645">Fight against my sworn enemies, by any means necessary, without mercy, and aid all harmed by them.</tspan><tspan
                 id="tspan1080"
                 sodipodi:role="line"
                 x="-0.2413"
                 y="-14.13"
                 style="stroke-width:0.264527">sworn foes are always MY greater evil and faced with an evil that could cause even more destruction and suffering, I will still choose to fight my sworn foes</tspan><tspan
                 id="tspan1090"
                 sodipodi:role="line"
                 x="-0.2413"
                 y="-11.66"
                 style="stroke-width:0.264527" /><tspan
                 id="tspan1094"
                 sodipodi:role="line"
                 x="-0.2413"
                 y="-9.193"
                 style="stroke-width:0.264527">My Oath: TBD</tspan><tspan
                 id="tspan1096"
                 sodipodi:role="line"
                 x="-0.2413"
                 y="-6.724"
                 style="stroke-width:0.264527" /><tspan
                 id="tspan1098"
                 sodipodi:role="line"
                 x="-0.2413"
                 y="-4.255"
                 style="stroke-width:0.264527" /><tspan
                 id="tspan1082"
                 sodipodi:role="line"
                 x="-0.2413"
                 y="-1.787"
                 style="stroke-width:0.264527">Fight the Greater Evil. Faced with a choice of fighting my sworn foes or combating a lesser evil, I choose the greater evil.</tspan><tspan
                 sodipodi:role="line"
                 x="-0.2413"
                 y="0.6824"
                 style="stroke-width:0.264527"
                 id="tspan702" /><tspan
                 sodipodi:role="line"
                 x="-0.2413"
                 y="3.151"
                 style="stroke-width:0.264527"
                 id="tspan704">No Mercy for the Wicked. Ordinary foes might win my mercy, but my sworn enemies do not.</tspan><tspan
                 sodipodi:role="line"
                 x="-0.2413"
                 y="5.62"
                 style="stroke-width:0.264527"
                 id="tspan706" /><tspan
                 sodipodi:role="line"
                 x="-0.2413"
                 y="8.089"
                 style="stroke-width:0.264527"
                 id="tspan708">By Any Means Necessary. My qualms can't get in the way of exterminating my foes.</tspan><tspan
                 sodipodi:role="line"
                 x="-0.2413"
                 y="10.56"
                 style="stroke-width:0.264527"
                 id="tspan710" /><tspan
                 sodipodi:role="line"
                 x="-0.2413"
                 y="13.03"
                 style="stroke-width:0.264527"
                 id="tspan712">Restitution. If my foes wreak ruin on the world, it is because I failed to stop them. I must help those harmed by their misdeeds.</tspan></text>
        <text
             id="text863"
             y="83.9"
             x="6.102"
             style="font-size:2.82241px;line-height:1;font-family:'Cascadia Code';-inkscape-font-specification:'Cascadia Code';letter-spacing:0px;word-spacing:0px;stroke-width:0.2646"
             xml:space="preserve"><tspan
                 style="stroke-width:0.2646"
                 y="83.9"
                 x="6.102"
                 id="tspan861"
                 sodipodi:role="line">- Keeps a small alter to Tritheron (or Drew to suggest another), god of liberty and retribution, triskelion symbol </tspan><tspan
                 id="tspan865"
                 style="stroke-width:0.2646"
                 y="86.72"
                 x="6.102"
                 sodipodi:role="line">	- ^^ closest thing to a secret that she keeps since it's sometimes viewed as subversive given the realm of liberty as well; though she doesn't view it as liberty from the state, per se</tspan><tspan
                 id="tspan867"
                 style="stroke-width:0.2646"
                 y="89.54"
                 x="6.102"
                 sodipodi:role="line">	- Trithereon is a foe of evil and oppression. His love of freedom sometimes causes him to come into conflict with other good deities, such as Pholtus and Heironeous. Bralm hates Trithereon for </tspan><tspan
                 id="tspan869"
                 style="stroke-width:0.2646"
                 y="92.37"
                 x="6.102"
                 sodipodi:role="line">his promotion of individualism. He is a strong ally of the quasi-deity Krovis, and he is allied with Kurell[11] and Pelor as well. Trithereon is pleased with Lydia's philosophy of individual empowerment </tspan><tspan
                 id="tspan871"
                 style="stroke-width:0.2646"
                 y="95.19"
                 x="6.102"
                 sodipodi:role="line">through learning.; Tritheron is CG, and suspect of Lawful zealots, of which the Raven Queen is definitely (LN). K is NG and will develop into either LG or CG depending on the Ul/internal rift</tspan><tspan
                 id="tspan873"
                 style="stroke-width:0.2646"
                 y="98.01"
                 x="6.102"
                 sodipodi:role="line">	- Trithereon is depicted as a young man with red-gold hair, tall and well-built, wearing a chainmail shirt with clothes of blue or violet. He is armed with three magic weapons: a sword named Freedom's </tspan><tspan
                 id="tspan875"
                 style="stroke-width:0.2646"
                 y="100.8"
                 x="6.102"
                 sodipodi:role="line">Tongue; a spear called Krelestro, the Harbinger of Doom; and a scepter known as the Baton of Retribution.</tspan><tspan
                 id="tspan877"
                 style="stroke-width:0.2646"
                 y="103.7"
                 x="6.102"
                 sodipodi:role="line">	- </tspan><tspan
                 id="tspan879"
                 style="stroke-width:0.2646"
                 y="106.5"
                 x="6.102"
                 sodipodi:role="line">	- Trithereon often appears with three summoned animals which serve him without question: Nemoud the Hound, Harrus the Falcon, and Carolk the Sea Lizard</tspan><tspan
                 id="tspan881"
                 style="stroke-width:0.2646"
                 y="109.3"
                 x="6.102"
                 sodipodi:role="line">	- Trithereon's dogma is described as follows:</tspan><tspan
                 id="tspan883"
                 style="stroke-width:0.2646"
                 y="112.1"
                 x="6.102"
                 sodipodi:role="line">	- </tspan><tspan
                 id="tspan885"
                 style="stroke-width:0.2646"
                 y="114.9"
                 x="6.102"
                 sodipodi:role="line">	- &quot;All deserve life and the ability to choose their own place in the world, and those who would place others in shackles or control them with oppressive laws must be toppled. </tspan><tspan
                 id="tspan903"
                 style="stroke-width:0.2646"
                 y="117.8"
                 x="6.102"
                 sodipodi:role="line">Train the common folk to defend themselves and their property should another wish to take their freedoms. If you are wronged, you have the right to exact vengeance yourself, especially if none will help you.&quot;</tspan><tspan
                 id="tspan887"
                 style="stroke-width:0.2646"
                 y="120.6"
                 x="6.102"
                 sodipodi:role="line">	- </tspan><tspan
                 id="tspan889"
                 style="stroke-width:0.2646"
                 y="123.4"
                 x="6.102"
                 sodipodi:role="line">	- Clergy and worshippers</tspan><tspan
                 id="tspan891"
                 style="stroke-width:0.2646"
                 y="126.2"
                 x="6.102"
                 sodipodi:role="line">	- Trithereon's clerics are rugged individualists, never afraid to question authority. Those in cities instruct commoners in self-defense and recruit like-minded rogues and rangers for the </tspan><tspan
                 id="tspan905"
                 style="stroke-width:0.2646"
                 y="129.1"
                 x="6.102"
                 sodipodi:role="line">cause of individual liberty. Those in rural areas act as scouts or spies against despotic lords or murderous nonhumans. Both sorts keep close watch on Lawful religions lest they become too powerful. </tspan><tspan
                 id="tspan907"
                 style="stroke-width:0.2646"
                 y="131.9"
                 x="6.102"
                 sodipodi:role="line">The Summoner's clerics travel far and wide in search of those in need of their help.</tspan><tspan
                 id="tspan893"
                 style="stroke-width:0.2646"
                 y="134.7"
                 x="6.102"
                 sodipodi:role="line">	- </tspan><tspan
                 id="tspan895"
                 style="stroke-width:0.2646"
                 y="137.5"
                 x="6.102"
                 sodipodi:role="line">	- Those who venerate Trithereon strive for liberty for themselves and others. His clerics work fervently to end tyrannical regimes or free those in slavery. Followers of Trithereon must often </tspan><tspan
                 id="tspan909"
                 style="stroke-width:0.2646"
                 y="140.3"
                 x="6.102"
                 sodipodi:role="line">travel in secrecy to avoid harassment from those in positions of power. It is said by some that no ruler ever feels entirely secure when a shrine to Trithereon lies within his borders.</tspan><tspan
                 id="tspan897"
                 style="stroke-width:0.2646"
                 y="143.2"
                 x="6.102"
                 sodipodi:role="line" /></text>
        <text
             id="text901"
             y="154.9"
             x="0.07976"
             style="font-size:2.82241px;line-height:1;font-family:'Cascadia Code';-inkscape-font-specification:'Cascadia Code';letter-spacing:0px;word-spacing:0px;stroke-width:0.2646"
             xml:space="preserve"><tspan
                 style="stroke-width:0.2646"
                 y="154.9"
                 x="0.07976"
                 id="tspan899"
                 sodipodi:role="line">Oath: foreign Independence/soverignty (nameless hero), use the vengeance traits — disregard? Have it something intrinsic in her? Or she </tspan><tspan
                 id="tspan911"
                 style="stroke-width:0.2646"
                 y="157.7"
                 x="0.07976"
                 sodipodi:role="line">discovered the religion and that's what led her to the questioning of her place in Ul</tspan></text>
        <path
             style="fill:#000000;stroke-width:1.00017"
             d="m 4.438,-24.09 c 0,-0.3 0.07,-0.53 0.153,-0.53 0.08,0 0.147,0.23 0.147,0.53 0,0.28 -0.07,0.51 -0.147,0.51 -0.08,0 -0.153,-0.23 -0.153,-0.51 z m 23.762,0 c 0,-0.3 0.1,-0.53 0.15,-0.53 0.1,0 0.15,0.23 0.15,0.53 0,0.28 -0.1,0.51 -0.15,0.51 -0.1,0 -0.15,-0.23 -0.15,-0.51 z m 19.96,-0.35 c -0.1,-0.18 -0.1,-0.44 0,-0.58 0.13,-0.23 0.16,-0.22 0.3,0.1 0.13,0.22 0.12,0.37 -0.1,0.57 -0.19,0.26 -0.21,0.26 -0.3,-0.1 z M 11.18,-24.6 c -0.18,-0.34 -0.1,-0.92 0.13,-0.92 0.18,0 0.29,0.6 0.17,0.94 -0.12,0.32 -0.12,0.32 -0.3,0 z m 11.95,0 c -0.18,-0.34 -0.1,-0.92 0.14,-0.92 0.17,0 0.28,0.6 0.16,0.94 -0.12,0.32 -0.12,0.32 -0.3,0 z m 42.27,0 c -0.17,-0.34 -0.11,-0.92 0.11,-0.92 0.17,0 0.29,0.6 0.17,0.94 -0.11,0.32 -0.11,0.32 -0.28,0 z m 18.69,0 c -0.22,-0.34 -0.17,-0.92 0.12,-0.92 0.16,0 0.28,0.6 0.16,0.94 -0.11,0.32 -0.11,0.32 -0.28,0 z m 23.61,0 c -0.2,-0.34 -0.1,-0.92 0.1,-0.92 0.2,0 0.3,0.6 0.2,0.94 -0.1,0.32 -0.1,0.32 -0.3,0 z M 8.717,-25.2 c -0.1,-0.1 0,-1.02 0.1,-2.12 0.1,-1.27 0.1,-2.1 0,-2.27 -0.1,-0.15 -0.11,-0.33 -0.1,-0.4 0.1,-0.1 0.1,-1.02 0.1,-2.09 0,-1.85 0,-1.97 0.33,-2.14 0.43,-0.24 1.963,-0.23 2.753,0 0.51,0.15 0.64,0.27 0.72,0.63 0.15,0.68 -0.1,1.28 -0.46,1.47 -0.2,0.1 -0.36,0.25 -0.36,0.35 0,0.34 -0.33,-0.13 -0.43,-0.61 -0.1,-0.46 -0.1,-0.46 -0.52,-0.12 -0.32,0.26 -0.46,0.53 -0.54,1.05 -0.11,0.7 -0.11,0.7 0.38,0.7 0.77,0 0.96,0.13 0.95,0.65 0,0.7 -0.18,0.92 -0.58,0.7 -0.48,-0.26 -0.69,-0.12 -0.9,0.64 -0.253,0.91 -0.14,1.04 0.83,0.95 0.8,-0.1 0.8,-0.1 1.02,0.55 0.13,0.34 0.24,0.79 0.27,0.99 0,0.36 0,0.38 -0.97,0.46 -0.56,0.1 -1.09,0.17 -1.19,0.26 -0.1,0.1 -0.333,0.18 -0.523,0.18 -0.19,0 -0.34,0.1 -0.34,0.15 0,0.18 -0.4,0.2 -0.51,0 z m 11.953,0 c -0.1,-0.1 0,-1.02 0.1,-2.12 0.1,-1.27 0.1,-2.1 0,-2.27 -0.1,-0.15 -0.11,-0.33 -0.1,-0.4 0.1,-0.1 0.1,-1.02 0.11,-2.09 0,-1.85 0.1,-1.97 0.32,-2.14 0.44,-0.24 1.96,-0.23 2.75,0 0.51,0.15 0.65,0.27 0.72,0.63 0.15,0.68 -0.1,1.28 -0.45,1.47 -0.2,0.1 -0.37,0.25 -0.37,0.35 0,0.34 -0.33,-0.13 -0.43,-0.61 -0.1,-0.46 -0.1,-0.46 -0.53,-0.12 -0.31,0.26 -0.44,0.53 -0.54,1.05 -0.1,0.7 -0.1,0.7 0.39,0.7 0.77,0 0.96,0.13 0.96,0.65 0,0.7 -0.18,0.91 -0.6,0.7 -0.47,-0.26 -0.67,-0.12 -0.89,0.64 -0.26,0.91 -0.14,1.03 0.83,0.95 0.79,-0.1 0.79,-0.1 1.02,0.55 0.14,0.34 0.25,0.79 0.27,0.99 0.1,0.36 0,0.37 -0.98,0.46 -0.54,0.1 -1.09,0.17 -1.18,0.26 -0.1,0.1 -0.32,0.18 -0.52,0.18 -0.19,0 -0.34,0.1 -0.34,0.15 0,0.18 -0.4,0.19 -0.51,0 z m 42.25,0 c -0.1,-0.1 0,-1.02 0,-2.12 0.12,-1.27 0.12,-2.1 0,-2.27 -0.11,-0.15 -0.11,-0.33 0,-0.4 0,-0.1 0,-1.02 0.11,-2.09 0,-1.85 0.1,-1.97 0.28,-2.14 0.45,-0.24 1.98,-0.23 2.77,0 0.51,0.15 0.68,0.27 0.73,0.63 0.12,0.68 -0.1,1.28 -0.45,1.47 -0.23,0.1 -0.39,0.25 -0.39,0.35 0,0.34 -0.34,-0.13 -0.4,-0.61 -0.11,-0.46 -0.11,-0.46 -0.56,-0.12 -0.29,0.26 -0.46,0.53 -0.51,1.05 -0.12,0.7 -0.12,0.7 0.39,0.7 0.74,0 0.96,0.13 0.96,0.65 0,0.7 -0.22,0.91 -0.62,0.7 -0.45,-0.26 -0.68,-0.12 -0.9,0.64 -0.23,0.91 -0.12,1.03 0.84,0.95 0.8,-0.1 0.8,-0.1 1.02,0.55 0.11,0.34 0.28,0.79 0.28,0.99 0.1,0.36 0,0.37 -1.01,0.46 -0.51,0.1 -1.08,0.17 -1.13,0.26 -0.12,0.1 -0.34,0.18 -0.51,0.18 -0.23,0 -0.4,0.1 -0.4,0.15 0,0.18 -0.39,0.19 -0.5,0 z m 18.69,0 c -0.1,-0.1 0,-1.02 0,-2.12 0.1,-1.27 0.1,-2.1 0,-2.27 -0.11,-0.15 -0.11,-0.33 0,-0.4 0,-0.1 0,-1.02 0.11,-2.09 0,-1.85 0,-1.97 0.28,-2.14 0.45,-0.24 1.98,-0.23 2.77,0 0.51,0.15 0.62,0.27 0.73,0.63 0.12,0.68 0,1.28 -0.45,1.47 -0.22,0.1 -0.39,0.25 -0.39,0.35 0,0.34 -0.34,-0.13 -0.45,-0.61 -0.1,-0.46 -0.1,-0.46 -0.51,-0.12 -0.29,0.26 -0.45,0.53 -0.51,1.05 -0.11,0.7 -0.11,0.7 0.39,0.7 0.74,0 0.96,0.13 0.96,0.65 0,0.7 -0.22,0.91 -0.62,0.7 -0.51,-0.26 -0.67,-0.12 -0.9,0.64 -0.23,0.91 -0.11,1.03 0.85,0.95 0.79,-0.1 0.79,-0.1 1.01,0.55 0.12,0.34 0.23,0.79 0.29,0.99 0,0.36 0,0.37 -1.02,0.46 -0.51,0.1 -1.07,0.17 -1.13,0.26 -0.11,0.1 -0.34,0.18 -0.57,0.18 -0.16,0 -0.33,0.1 -0.33,0.15 0,0.18 -0.4,0.19 -0.51,0 z m 23.59,0 c 0,-0.1 0,-1.02 0.1,-2.12 0.1,-1.27 0.1,-2.1 0,-2.27 -0.1,-0.15 -0.1,-0.33 -0.1,-0.4 0.1,-0.1 0.1,-1.02 0.1,-2.09 0,-1.85 0,-1.97 0.3,-2.14 0.5,-0.24 2,-0.23 2.8,0 0.5,0.15 0.6,0.27 0.7,0.63 0.1,0.68 -0.1,1.28 -0.4,1.47 -0.3,0.1 -0.5,0.25 -0.5,0.35 0,0.34 -0.3,-0.13 -0.3,-0.61 -0.2,-0.46 -0.2,-0.46 -0.6,-0.12 -0.3,0.26 -0.4,0.53 -0.5,1.05 -0.1,0.7 -0.1,0.7 0.4,0.7 0.7,0 1,0.13 1,0.65 0,0.7 -0.3,0.91 -0.7,0.7 -0.4,-0.26 -0.6,-0.12 -0.9,0.64 -0.2,0.91 -0.1,1.03 0.9,0.95 0.7,-0.1 0.7,-0.1 1,0.55 0.1,0.34 0.2,0.79 0.2,0.99 0.1,0.36 0,0.37 -0.9,0.46 -0.6,0.1 -1.1,0.17 -1.2,0.26 -0.1,0.1 -0.4,0.18 -0.5,0.18 -0.2,0 -0.4,0.1 -0.4,0.15 0,0.18 -0.4,0.19 -0.5,0 z M 4.367,-25.48 c -0.06,-0.14 -0.136,-1.32 -0.187,-2.61 -0.07,-1.88 -0.124,-2.32 -0.282,-2.26 -0.158,0.1 -0.203,-0.16 -0.203,-1.02 0,-0.61 -0.06,-1.25 -0.1,-1.44 -0.113,-0.42 -0.503,-0.44 -0.503,0 0,0.17 -0.119,0.35 -0.26,0.4 -0.147,0 -0.384,0.2 -0.531,0.32 -0.418,0.36 -0.581,0 -0.508,-1.21 0.07,-1.16 0.271,-1.5 0.751,-1.32 0.356,0.14 1.83,0.11 3.494,-0.1 0.799,-0.1 1.149,-0.1 1.309,0.1 0.42,0.35 0.23,2.26 -0.27,2.58 -0.34,0.21 -0.55,0.1 -0.943,-0.49 -0.22,-0.33 -0.418,-0.58 -0.446,-0.55 0,0 -0.119,0.82 -0.203,1.75 -0.192,2.22 -0.774,6.12 -0.915,6.12 -0.06,0 -0.153,-0.11 -0.207,-0.25 z m 10.383,-0.1 c 0,-0.19 -0.1,-1.32 -0.16,-2.51 -0.14,-1.99 -0.18,-2.2 -0.52,-2.55 -0.46,-0.47 -0.46,-0.84 -0.1,-1.3 0.34,-0.36 0.34,-0.36 -0.1,-0.66 -0.33,-0.24 -0.4,-0.41 -0.4,-0.93 0,-0.35 0.1,-0.76 0.2,-0.91 0.2,-0.28 0.23,-0.28 1.31,0.1 0.62,0.18 1.22,0.46 1.37,0.64 0.13,0.17 0.46,0.98 0.71,1.79 0.26,0.81 0.53,1.51 0.6,1.56 0.1,0.1 0.14,-0.49 0.14,-1.32 0,-1.2 -0.1,-1.47 -0.32,-1.8 -0.21,-0.28 -0.28,-0.56 -0.25,-0.95 0.1,-0.53 0.1,-0.57 0.6,-0.61 0.3,0 0.74,0.1 1,0.18 0.76,0.4 0.97,1.69 0.36,2.36 -0.19,0.21 -0.27,0.87 -0.38,3.14 -0.1,1.58 -0.1,3.06 -0.1,3.29 0.1,0.3 0,0.43 -0.16,0.51 -0.3,0.12 -0.37,0 -0.97,-1.52 -0.27,-0.66 -0.57,-1.29 -0.67,-1.42 -0.1,-0.12 -0.21,-0.48 -0.26,-0.8 -0.11,-0.62 -0.68,-1.59 -0.95,-1.59 -0.1,0 -0.21,0.65 -0.27,1.76 -0.13,2.16 -0.4,3.8 -0.65,3.88 -0.11,0.1 -0.18,-0.1 -0.18,-0.28 z m 13.38,0.1 c -0.1,-0.14 -0.14,-1.32 -0.18,-2.61 -0.1,-1.88 -0.14,-2.32 -0.28,-2.26 -0.17,0.1 -0.21,-0.16 -0.21,-1.02 0,-0.61 -0.1,-1.25 -0.1,-1.44 -0.13,-0.42 -0.51,-0.44 -0.51,0 0,0.17 -0.12,0.35 -0.25,0.4 -0.16,0 -0.39,0.2 -0.55,0.32 -0.41,0.36 -0.58,0 -0.5,-1.21 0.1,-1.16 0.27,-1.5 0.75,-1.32 0.35,0.14 1.83,0.11 3.49,-0.1 0.79,-0.1 1.15,-0.1 1.32,0.1 0.42,0.35 0.22,2.26 -0.27,2.58 -0.35,0.21 -0.56,0.1 -0.95,-0.49 -0.22,-0.33 -0.41,-0.58 -0.44,-0.55 -0.1,0 -0.12,0.82 -0.21,1.75 -0.19,2.22 -0.78,6.12 -0.91,6.12 -0.1,0 -0.15,-0.11 -0.21,-0.25 z m 5.03,0.11 c -0.67,-0.16 -0.7,-0.21 -0.7,-1.07 0,-1.06 0.66,-1.39 1.3,-0.65 0.34,0.4 0.72,0.47 1.18,0.22 0.39,-0.21 0.39,-1.05 0,-1.41 -0.16,-0.16 -0.29,-0.37 -0.29,-0.47 0,-0.11 -0.2,-0.3 -0.45,-0.43 -0.24,-0.13 -0.45,-0.29 -0.45,-0.35 0,-0.1 -0.24,-0.4 -0.53,-0.73 -0.46,-0.54 -0.52,-0.71 -0.52,-1.41 0,-1.31 0.22,-2.1 0.68,-2.48 0.32,-0.29 0.55,-0.33 1.53,-0.33 1.32,0 1.44,0.1 1.6,1.24 0.1,0.64 0.1,0.71 -0.39,1.14 -0.5,0.46 -0.5,0.46 -0.64,0.12 -0.1,-0.19 -0.18,-0.49 -0.25,-0.67 -0.18,-0.47 -0.69,-0.44 -0.92,0.1 -0.25,0.56 0.27,1.53 1.38,2.57 0.79,0.76 0.88,0.9 0.97,1.6 0.1,0.42 0.1,1.16 -0.1,1.65 -0.11,0.89 -0.11,0.89 -1.08,1.23 -1.02,0.35 -1.53,0.39 -2.36,0.2 z m 9.74,-0.14 c -0.93,-0.56 -1.49,-2.54 -1.42,-5.02 0.1,-1.98 0.1,-2.25 0.61,-2.98 0.55,-0.81 0.84,-0.97 1.64,-0.97 1.13,0 2.1,0.8 2.77,2.28 0.45,0.97 0.46,1.92 0.1,3.04 -0.14,0.33 -0.32,1.2 -0.42,1.94 -0.18,1.38 -0.32,1.73 -0.65,1.61 -0.11,-0.1 -0.41,0.1 -0.67,0.16 -0.6,0.31 -1.32,0.29 -1.89,-0.1 z m 1.42,-0.85 c 0.19,-0.13 0.43,-0.46 0.55,-0.73 0.26,-0.62 0.43,-2.36 0.29,-2.72 -0.1,-0.15 -0.14,-0.69 -0.17,-1.21 -0.1,-0.88 -0.33,-1.67 -0.64,-1.67 -0.1,0 -0.11,0.27 -0.1,0.59 0.1,0.49 0,0.6 -0.17,0.6 -0.17,0 -0.23,-0.14 -0.23,-0.55 0,-0.44 -0.1,-0.51 -0.19,-0.37 -0.1,0.1 -0.22,0.73 -0.28,1.4 -0.1,0.95 -0.15,1.25 -0.37,1.41 -0.23,0.17 -0.27,0.39 -0.27,1.29 0,1.79 0.64,2.58 1.54,1.96 z m -0.36,-2.9 c -0.15,-0.23 0.1,-0.92 0.22,-0.81 0.2,0.11 0.2,0.77 0,0.88 -0.1,0.1 -0.19,0 -0.24,-0.1 z m 15.17,3.85 c 0,-0.1 -0.17,-0.59 -0.17,-1.08 -0.17,-1.17 -0.39,-2.07 -0.79,-2.99 -0.22,-0.41 -0.39,-0.98 -0.45,-1.27 -0.1,-0.29 -0.34,-1.04 -0.56,-1.68 -0.79,-2.19 -0.46,-2.89 1.13,-2.27 0.62,0.24 0.62,0.24 0.56,2.06 -0.11,1.83 -0.11,1.83 0.34,2.09 0.68,0.45 0.68,0.26 0.62,-2.14 -0.17,-2.62 -0.11,-2.77 1.07,-2.61 0.79,0.11 1.08,0.38 1.08,1.01 0,0.69 -0.34,1.6 -0.63,1.76 -0.22,0.11 -0.28,0.32 -0.28,0.75 0,0.33 -0.22,1.55 -0.51,2.72 -0.28,1.17 -0.56,2.39 -0.62,2.72 0,0.33 -0.11,0.72 -0.17,0.86 -0.1,0.3 -0.45,0.34 -0.62,0.1 z m 9.83,-0.14 c 0,-0.19 -0.1,-1.32 -0.17,-2.51 -0.11,-1.99 -0.17,-2.2 -0.51,-2.55 -0.45,-0.47 -0.45,-0.84 -0.1,-1.3 0.34,-0.36 0.34,-0.36 0,-0.66 -0.34,-0.24 -0.4,-0.41 -0.4,-0.93 0,-0.35 0.1,-0.76 0.17,-0.91 0.23,-0.28 0.23,-0.28 1.3,0.1 0.62,0.18 1.24,0.46 1.41,0.64 0.12,0.17 0.45,0.98 0.68,1.79 0.28,0.81 0.56,1.51 0.62,1.56 0.1,0.1 0.11,-0.49 0.11,-1.32 0,-1.2 -0.1,-1.47 -0.28,-1.8 -0.22,-0.28 -0.28,-0.56 -0.28,-0.95 0.1,-0.53 0.11,-0.57 0.62,-0.61 0.28,0 0.73,0.1 1.02,0.18 0.73,0.4 0.96,1.69 0.34,2.36 -0.17,0.21 -0.29,0.87 -0.4,3.14 -0.1,1.58 -0.1,3.06 -0.1,3.29 0.1,0.3 0,0.43 -0.17,0.51 -0.28,0.12 -0.33,0 -0.96,-1.52 -0.28,-0.66 -0.56,-1.29 -0.67,-1.42 -0.12,-0.12 -0.23,-0.48 -0.23,-0.8 -0.11,-0.62 -0.68,-1.59 -0.96,-1.59 -0.11,0 -0.22,0.65 -0.28,1.76 -0.11,2.16 -0.4,3.8 -0.68,3.88 -0.1,0.1 -0.17,-0.1 -0.17,-0.28 z m 24.56,0 c 0,-0.19 0,-1.32 -0.17,-2.51 -0.11,-1.99 -0.17,-2.2 -0.5,-2.55 -0.46,-0.47 -0.51,-0.84 -0.1,-1.3 0.34,-0.36 0.34,-0.36 -0.1,-0.66 -0.34,-0.24 -0.39,-0.41 -0.39,-0.93 0,-0.35 0,-0.76 0.17,-0.91 0.22,-0.28 0.22,-0.28 1.3,0.1 0.62,0.18 1.24,0.46 1.41,0.64 0.11,0.17 0.45,0.98 0.73,1.79 0.23,0.81 0.49,1.51 0.49,1.56 0.18,0.1 0.18,-0.49 0.18,-1.32 0,-1.2 0,-1.47 -0.33,-1.8 -0.11,-0.28 -0.28,-0.56 -0.17,-0.95 0.1,-0.53 0.1,-0.57 0.5,-0.61 0.3,0 0.8,0.1 1.1,0.18 0.8,0.4 0.9,1.69 0.3,2.36 -0.2,0.21 -0.3,0.87 -0.3,3.14 -0.1,1.58 -0.2,3.06 -0.1,3.29 0.1,0.3 0.1,0.43 -0.2,0.51 -0.2,0.12 -0.3,0 -0.98,-1.52 -0.21,-0.66 -0.49,-1.29 -0.66,-1.42 -0.11,-0.12 -0.17,-0.48 -0.28,-0.8 -0.1,-0.62 -0.62,-1.59 -0.9,-1.59 -0.12,0 -0.17,0.65 -0.23,1.76 -0.17,2.16 -0.45,3.8 -0.68,3.88 -0.11,0.1 -0.17,-0.1 -0.17,-0.28 z m 7.08,0 c -0.1,-0.16 -0.3,-0.29 -0.3,-0.29 -0.3,0 -0.46,-0.76 -0.76,-2.09 -0.1,-1.52 -0.1,-1.77 0,-3.54 0.1,-2.04 0.76,-3.04 2.06,-3.04 0.2,0 1.9,0.61 2.2,0.84 0.2,0.22 0.5,4.04 0.3,4.18 -0.3,0.16 -0.3,-0.1 -0.3,-1.12 -0.2,-0.93 -0.2,-1.11 -0.5,-1.49 -0.4,-0.38 -0.5,-0.43 -1,-0.36 -0.7,0.11 -0.9,0.26 -1,1 -0.2,0.34 -0.3,0.73 -0.5,0.87 -0.2,0.21 -0.2,0.55 -0.1,1.79 0.1,1.86 0.3,2.51 1,2.51 0.4,0 1,-0.58 1,-1.06 0,-0.3 0.9,-1.07 1.2,-0.99 0,0.1 0.1,0.37 0.2,0.76 0,0.62 -0.1,0.77 -0.5,1.33 -0.7,0.83 -1,0.99 -2,1 -0.6,0 -0.8,-0.1 -1,-0.3 z m -24.58,-0.42 c -0.74,-0.73 -0.85,-1.15 -0.96,-4.13 -0.1,-1.56 -0.12,-3.02 -0.23,-3.25 0,-0.23 0,-0.63 0,-0.9 0.17,-0.7 0.62,-0.86 2.54,-0.86 2.09,0 2.2,0.1 2.2,1.72 0,0.62 0,1.12 -0.11,1.12 -0.11,0 -0.34,-0.15 -0.56,-0.35 -0.23,-0.19 -0.57,-0.38 -0.74,-0.43 -0.17,-0.1 -0.39,-0.12 -0.56,-0.18 -0.85,-0.37 -1.75,3.92 -1.02,5.3 0.23,0.5 0.28,0.52 1.13,0.52 0.62,0 0.9,-0.1 1.02,-0.24 0.22,-0.42 0,-0.73 -0.57,-0.73 -0.45,0 -0.56,-0.1 -0.67,-0.37 -0.23,-0.46 -0.1,-1.07 0.28,-1.16 0.34,-0.1 2.03,0.14 2.43,0.34 0.22,0.12 0.28,0.25 0.22,0.49 -0.11,0.18 -0.17,0.73 -0.22,1.22 -0.23,1.47 -0.29,1.6 -1.3,1.83 -0.51,0.12 -1.25,0.25 -1.75,0.29 -0.68,0.1 -0.91,0 -1.13,-0.23 z m 14.85,0.16 c -0.28,-0.22 -0.74,-1.16 -0.9,-1.94 -0.23,-0.88 -0.46,-0.99 -1.13,-0.48 -0.4,0.31 -0.4,0.31 -0.57,0 -0.17,-0.31 -0.17,-0.31 -0.39,0.24 -0.1,0.32 -0.23,0.62 -0.34,0.67 -0.1,0.1 -0.29,0.39 -0.4,0.75 -0.51,1.7 -0.9,-0.1 -0.51,-2.21 0.12,-0.71 0.29,-2.02 0.46,-2.9 0.16,-1.45 0.11,-1.63 -0.12,-1.88 -0.11,-0.15 -0.22,-0.48 -0.22,-0.72 0,-0.37 0,-0.48 0.5,-0.63 0.85,-0.29 2.21,-0.1 2.94,0.48 0.85,0.59 0.96,1.07 0.4,1.53 -0.4,0.33 -0.4,0.33 -0.29,1.87 0.1,1.53 0.29,2.5 0.85,4.2 0.17,0.47 0.28,0.92 0.28,1.01 0,0.17 -0.28,0.2 -0.56,0 z m -1.75,-4.63 c -0.28,-2.06 -0.28,-2.07 -0.51,-1.73 -0.11,0.18 -0.23,0.7 -0.28,1.15 -0.1,0.79 -0.1,0.85 0.28,0.98 0.56,0.23 0.62,0.2 0.51,-0.4 z m -40.98,3.73 c -0.1,-0.31 -0.12,-1.27 -0.16,-2.13 -0.1,-0.86 -0.1,-1.66 -0.1,-1.78 0,-0.13 0,-1.11 0,-2.2 0,-1.98 0,-1.98 0.56,-2.15 0.57,-0.2 2.38,-0.1 2.86,0.15 0.33,0.18 0.53,0.89 0.38,1.39 -0.1,0.32 -0.77,1 -1,1.01 -0.1,0 -0.14,-0.23 -0.21,-0.52 -0.1,-0.29 -0.13,-0.52 -0.19,-0.52 -0.29,0 -0.9,0.87 -0.94,1.34 -0.1,0.51 -0.1,0.53 0.63,0.67 0.59,0.14 0.67,0.2 0.71,0.6 0.1,0.69 -0.16,0.92 -0.64,0.7 -0.22,-0.1 -0.45,-0.15 -0.51,-0.11 -0.1,0.1 -0.28,0.79 -0.94,3.56 -0.16,0.72 -0.36,0.71 -0.5,0 z m -31.67,-1.37 c -0.11,-0.31 0,-0.6 0.21,-0.6 0.22,0 0.28,0.58 0.1,0.75 -0.15,0.12 -0.23,0.1 -0.3,-0.15 z m 54.24,0 c -0.11,-0.31 0,-0.6 0.17,-0.6 0.22,0 0.28,0.58 0.11,0.75 -0.17,0.12 -0.22,0.1 -0.28,-0.15 z m 24.51,0 c -0.12,-0.31 0,-0.6 0.22,-0.6 0.23,0 0.28,0.58 0.1,0.75 -0.11,0.12 -0.23,0.1 -0.28,-0.15 z m -92.051,-0.6 c -0.06,-0.1 0,-0.41 0.09,-0.71 0.169,-0.52 0.192,-0.54 0.327,-0.23 0.254,0.57 -0.124,1.42 -0.418,0.94 z m 23.761,0 c -0.1,-0.1 0,-0.41 0.1,-0.71 0.17,-0.52 0.2,-0.54 0.33,-0.23 0.26,0.57 -0.12,1.42 -0.42,0.94 z m 74.87,-0.52 c 0,-0.13 0,-0.41 0,-0.63 0.3,-0.5 0.5,-0.27 0.5,0.33 -0.1,0.48 -0.3,0.65 -0.5,0.3 z m -89.94,-1.38 c -0.15,-0.15 -0.12,-0.63 0.1,-0.99 0.18,-0.32 0.18,-0.32 0.29,0.1 0.18,0.65 0,1.22 -0.36,0.91 z m 11.96,0 c -0.17,-0.15 -0.12,-0.63 0.1,-0.99 0.16,-0.32 0.18,-0.32 0.28,0.1 0.16,0.65 -0.1,1.22 -0.36,0.91 z m 37.63,-0.13 c -0.12,-0.32 0,-0.6 0.22,-0.34 0.17,0.26 0.17,0.57 0,0.57 -0.11,0 -0.17,-0.1 -0.22,-0.23 z m 4.63,0.13 c -0.17,-0.15 -0.11,-0.63 0,-0.99 0.17,-0.32 0.23,-0.32 0.29,0.1 0.17,0.65 -0.1,1.22 -0.34,0.91 z m 18.69,0 c -0.17,-0.15 -0.17,-0.63 0.1,-0.99 0.17,-0.32 0.17,-0.32 0.28,0.1 0.17,0.65 -0.1,1.22 -0.34,0.91 z m 23.63,0 c -0.2,-0.15 -0.2,-0.63 0,-0.99 0.2,-0.32 0.3,-0.32 0.3,0.1 0.2,0.65 0,1.22 -0.3,0.91 z M 6.183,-30.72 c -0.152,-0.16 -0.124,-1.13 0.06,-1.04 0.194,0.13 0.344,0.86 0.194,1.01 -0.07,0.1 -0.172,0.1 -0.228,0 z m 23.767,0 c -0.15,-0.16 -0.12,-1.13 0.1,-1.04 0.19,0.13 0.35,0.86 0.19,1.01 0,0.1 -0.16,0.1 -0.22,0 z M 2.718,-30.93 c -0.125,-0.2 0.07,-1.04 0.242,-1.04 0.07,0 0.136,0.27 0.136,0.6 0,0.57 -0.169,0.77 -0.378,0.44 z m 23.772,0 c -0.14,-0.2 0.1,-1.04 0.23,-1.04 0.1,0 0.14,0.27 0.14,0.6 0,0.57 -0.18,0.77 -0.37,0.44 z M 102,-31.08 c -0.2,-0.21 0,-1.19 0.1,-1.19 0.2,0 0.2,0.56 0.2,1.01 0,0.36 -0.2,0.44 -0.3,0.18 z m -65.88,-0.36 c 0,-0.49 0.49,-0.44 0.57,0.1 0,0.26 -0.1,0.33 -0.25,0.33 -0.25,0 -0.32,-0.1 -0.32,-0.38 z m 20.58,0 c -0.17,-0.53 0.12,-0.79 0.34,-0.36 0.17,0.34 0.12,0.75 -0.17,0.75 0,0 -0.17,-0.17 -0.17,-0.39 z m -5.69,0.15 c -0.14,-0.15 -0.13,-0.42 0.1,-0.9 0.18,-0.42 0.18,-0.42 0.29,0 0.19,0.64 -0.1,1.22 -0.35,0.91 z m 39.75,-0.41 c -0.12,-0.25 0.1,-0.54 0.22,-0.54 0.17,0 0.17,0.56 0,0.68 -0.1,0 -0.17,0 -0.22,-0.14 z"
             id="path1055" />
        <text
             id="text1074"
             y="-16.86"
             x="0.2183"
             style="font-size:2.82241px;line-height:1;font-family:'Cascadia Code';-inkscape-font-specification:'Cascadia Code';letter-spacing:0px;word-spacing:0px;stroke-width:0.2646"
             xml:space="preserve"><tspan
                 style="stroke-width:0.2646"
                 y="-16.86"
                 x="0.2183"
                 id="tspan1072"
                 sodipodi:role="line"></tspan><tspan
                 id="tspan1078"
                 style="stroke-width:0.2646"
                 y="-14.04"
                 x="0.2183"
                 sodipodi:role="line" /><tspan
                 id="tspan1076"
                 style="stroke-width:0.2646"
                 y="-11.22"
                 x="0.2183"
                 sodipodi:role="line" /></text>
    </g>
</svg>
