<?xml version="1.0" encoding="UTF-8" standalone="no"?>
<svg xmlns:dc="http://purl.org/dc/elements/1.1/" xmlns:cc="http://creativecommons.org/ns#" xmlns:rdf="http://www.w3.org/1999/02/22-rdf-syntax-ns#" xmlns:svg="http://www.w3.org/2000/svg" xmlns="http://www.w3.org/2000/svg" xmlns:sodipodi="http://sodipodi.sourceforge.net/DTD/sodipodi-0.dtd" xmlns:inkscape="http://www.inkscape.org/namespaces/inkscape" sodipodi:docname="Kaliska_Palette.svg" inkscape:version="1.1-dev (1:0.92.0+devel+202004220039+7cd2eb6)" id="svg8" version="1.1" viewBox="0 0 168.60525 102.80954" height="102.80952mm" width="168.60526mm">
    <defs id="defs2" />
    <sodipodi:namedview inkscape:window-maximized="1" inkscape:window-y="1467" inkscape:window-x="1820" inkscape:window-height="983" inkscape:window-width="1920" showgrid="false" inkscape:document-rotation="0" inkscape:current-layer="layer1" inkscape:document-units="mm" inkscape:cy="180.0563" inkscape:cx="248.66163" inkscape:zoom="1.164131" inkscape:pageshadow="2" inkscape:pageopacity="0.0" borderopacity="1.0" bordercolor="#666666" pagecolor="#ffffff" id="base" />
    <metadata id="metadata5">
        <rdf:RDF>
            <cc:Work rdf:about="">
                <dc:format>image/svg+xml</dc:format>
                <dc:type rdf:resource="http://purl.org/dc/dcmitype/StillImage" />
                <dc:title />
            </cc:Work>
        </rdf:RDF>
    </metadata>
    <g transform="translate(6.0476208,-76.351188)" id="layer1" inkscape:groupmode="layer" inkscape:label="Layer 1">
        <rect style="fill:#036;fill-opacity:1;stroke:none;stroke-width:0.264583;stop-color:black" id="rect10-2" width="29.482143" height="25.702381" x="82.398811" y="76.351189" />
        <rect y="76.351189" x="52.916672" height="25.702381" width="29.482143" id="rect10-2-0" style="fill:#006aa7;fill-opacity:1;stroke:none;stroke-width:0.264583;stop-color:black" />
        <rect style="fill:#fddb6d;fill-opacity:1;stroke:none;stroke-width:0.264583;stop-color:black" id="rect10-8" width="29.482143" height="25.702381" x="23.434523" y="102.05357" />
        <rect y="102.05357" x="52.916664" height="25.702381" width="29.482143" id="rect10-8-9" style="fill:#fecc00;fill-opacity:1;stroke:none;stroke-width:0.264583;stop-color:black" />
        <rect y="102.05357" x="-6.0476246" height="25.702381" width="29.482143" id="rect10-8-1" style="fill:#78ccdb;fill-opacity:1;stroke:none;stroke-width:0.264583;stop-color:black" transform="translate(3.8146973e-6,-25.702377)" />
        <rect y="127.75595" x="23.434521" height="25.702381" width="29.482143" id="rect10-8-4" style="fill:#fdfd96;fill-opacity:1;stroke:none;stroke-width:0.264583;stop-color:black" transform="translate(-29.482141,-25.702377)" />
        <rect style="fill:#32174d;fill-opacity:1;stroke:none;stroke-width:0.264583;stop-color:black" id="rect10-8-9-6" width="29.482143" height="25.702381" x="82.398804" y="127.75595" />
        <rect style="fill:#34b233;fill-opacity:1;stroke:none;stroke-width:0.264583;stop-color:black" id="rect10-8-1-0" width="29.482143" height="25.702381" x="52.91666" y="153.45833" />
        <rect style="fill:#512888;fill-opacity:1;stroke:none;stroke-width:0.264583;stop-color:black" id="rect10-8-4-4" width="29.482143" height="25.702381" x="52.916664" y="127.75595" />
        <rect style="fill:#a57c00;fill-opacity:1;stroke:none;stroke-width:2.23037;stroke-linecap:round;stroke-linejoin:round;stroke-opacity:1;paint-order:markers stroke fill;stop-color:black" id="rect1565-7" width="29.482143" height="25.702381" x="82.398804" y="102.05357" />
        <rect style="fill:#7d7;fill-opacity:1;stroke:none;stroke-width:2.23037;stroke-linecap:round;stroke-linejoin:round;stroke-opacity:1;paint-order:markers stroke fill;stop-color:black" id="rect1565-5" width="29.482143" height="25.702381" x="23.434521" y="153.45833" />
        <rect style="fill:#3e8ede;fill-opacity:1;stroke:none;stroke-width:2.23037;stroke-linecap:round;stroke-linejoin:round;stroke-opacity:1;paint-order:markers stroke fill;stop-color:black" id="rect1565-62" width="29.482143" height="25.702381" x="23.434523" y="76.351196" />
        <rect style="fill:#046307;fill-opacity:1;stroke:none;stroke-width:2.23037;stroke-linecap:round;stroke-linejoin:round;stroke-opacity:1;paint-order:markers stroke fill;stop-color:black" id="rect1565-9" width="29.482143" height="25.702381" x="82.398804" y="153.45833" />
        <rect y="153.45833" x="111.88095" height="25.702381" width="29.482143" id="rect1565-9-2" style="fill:#111e2d;fill-opacity:1;stroke:none;stroke-width:2.23037;stroke-linecap:round;stroke-linejoin:round;stroke-opacity:1;paint-order:markers stroke fill;stop-color:black" transform="translate(0,-77.10714)" />
        <rect y="127.75595" x="52.916664" height="25.702381" width="29.482143" id="rect10-8-4-4-3" style="fill:#7e39da;fill-opacity:1;stroke:none;stroke-width:0.264583;stop-color:black" transform="translate(-29.482141)" />
        <rect y="153.45833" x="23.434521" height="25.702381" width="29.482143" id="rect1565-5-6" style="fill:#96c;fill-opacity:1;stroke:none;stroke-width:2.23037;stroke-linecap:round;stroke-linejoin:round;stroke-opacity:1;paint-order:markers stroke fill;stop-color:black" transform="translate(-29.482141,-25.702377)" />
        <g transform="matrix(1.0001486,0,0,1.0001486,171.58688,47.391972)" id="g7047">
            <path transform="matrix(0.2839581,0,0,0.16787293,-69.467384,47.45588)" id="path2587-9-2" stroke-width="0.698174" stroke="#000000" fill="none" d="m 111.5,190.3 c -2.2,-0.4 -7.6,-3 -7.6,-3.6 0,-0.2 0.6,0 1.2,0.4 0.6,0.3 3.3,0.7 5.9,0.8 4,0.2 4.5,0.1 2.9,-0.4 -4.8,-1.6 -6.2,-2.3 -8.2,-4.4 l -2,-2.3 2.6,1.4 c 3.6,1.9 6.5,2.3 9.5,1.5 3.5,-1.1 5.6,-3.5 7.3,-8.7 2.3,-6.7 5.8,-9.5 10.1,-8.3 l 1.4,0.5 -1.7,0.4 c -3.6,0.8 -5.5,4 -6.9,11.9 -0.7,3.7 -2,6.7 -3.5,8.2 -2.4,2.2 -7.3,3.4 -11,2.6 v 0" style="fill:#f55;fill-opacity:1;stroke:black;stroke-width:0.349081;stroke-miterlimit:4;stroke-dasharray:none;stroke-opacity:1" inkscape:connector-curvature="0" />
            <path transform="matrix(0.33295678,0.01373639,-0.10316233,0.24555444,-58.352254,32.0037)" id="path2589-0-0" stroke-width="0.698174" stroke="#000000" fill="none" d="m 132.5,179.9 c -0.7,-0.5 -1.8,-2.6 -1.8,-3.4 0,-0.3 0.7,0.2 1.5,1.1 1.3,1.3 1.8,1.5 2.8,1.1 1,-0.4 1.2,-0.8 1.2,-2.8 0,-1.9 0.1,-2.1 0.7,-1.3 0.9,1.3 0.8,3.8 -0.2,4.9 -0.9,0.9 -3.2,1.1 -4.2,0.4 v 0" style="fill:#f4eed7;fill-opacity:1;stroke:#4d4d4d;stroke-width:0.252646;stroke-miterlimit:4;stroke-dasharray:none;stroke-opacity:1" inkscape:connector-curvature="0" />
            <path sodipodi:nodetypes="cscccccssccsc" transform="matrix(0.33072784,0.01784342,-0.13724411,0.23815706,-51.203704,34.74115)" id="path2591-5-2" stroke-width="0.698174" stroke="#000000" fill="none" d="m 115.7,162.9 c -1,-1.1 -1.8,-2.3 -1.8,-2.8 0,-1.4 2.95823,-4.1894 4.45823,-4.2894 3.1,-0.1 5.34177,-0.4106 8.04177,0.8894 3,1.5 3.8,2.4 0.9,1.1 -2.2,-1 -5.3,-1.1 -5.7,-0.1 -0.1,0.4 0,1.2 0.2,1.9 0.3,0.7 0.3,1.3 0.1,1.3 -0.7,0 -2.2,-1.9 -2.2,-2.7 0,-1.6 -2.3,-1.3 -3.2,0.5 -0.4,0.9 -0.3,1.7 0.8,3.6 1.6,2.9 0.9,3.2 -1.6,0.6 v 0" style="fill:#f4eed7;fill-opacity:1;stroke:#4d4d4d;stroke-width:0.255679;stroke-miterlimit:4;stroke-dasharray:none;stroke-opacity:1" inkscape:connector-curvature="0" />
            <path sodipodi:nodetypes="cccscccssscccccccccccc" transform="matrix(-0.06080225,0,0,0.0583863,-7.2563198,69.42631)" d="m 301.563,20.22 c -8.64,-0.033 -17.075,0.304 -25.22,0.968 -200.737,0 -184.708,197.468 0,226 184.71,28.53 137.485,190.906 9.907,190.906 -84.162,0 -140.85,-19.887 -181.03,-64.156 -42.064,-46.34 -12.496,-99.594 44.28,-51.938 57.026,47.867 100.32,83.576 171.813,28 -89.54,29.698 -124.626,-42.73 -188.313,-81.875 -60.388,-37.117 -138.036,38.746 -86,121.25 43.402,68.815 152.713,107.78 243.344,107.78 220.645,0 259.324,-271.296 63.094,-301.936 -69.28,-10.818 -119.376,-23.398 -143.688,-61.907 -17.817,-28.226 32.672,-85.843 97.656,-59.688 9.406,15.75 13.877,35.578 15.375,65.47 19.9513,5.12067 78.29331,48.32316 86.72,34.092 11.77427,-8.40294 16.93453,-18.25903 20.969,-25.905 -10.923,4.674 -23.103,4.475 -34.69,1.468 -2.788,-1.817 -5.497,-3.827 -8.092,-6 -23.392,-19.585 -28.737,-45.978 -11.938,-58.97 101.28861,-27.362118 83.20711,32.47445 84.7222,-16.992685 -47.915,-36.658 -103.1652,-46.363315 -158.9122,-46.566315 z" class="selected" fill="white" fill-opacity="1" stroke="black" stroke-opacity="1" stroke-width="1" id="path1943" style="fill:#046307;fill-opacity:1;stroke:#a57c00;stroke-width:1.52864;stroke-miterlimit:4;stroke-dasharray:none;stroke-opacity:1" />
            <path transform="matrix(0.31557684,-0.03599372,0.27031811,0.2327368,-113.00227,42.05692)" id="path2581-4-8" stroke-width="0.698174" stroke="#000000" fill="none" d="m 142.2,154.2 c 1.4,-1.5 1.4,-2 -0.1,-0.9 -1.9,1.4 -4.9,1.1 -6.4,-0.6 -1.6,-1.8 -1.8,-0.9 -0.2,1.1 1.4,1.9 4.9,2.1 6.7,0.4 v 0" style="fill:black;fill-opacity:1;stroke:#fddb6d;stroke-width:0.510062;stroke-miterlimit:4;stroke-dasharray:none;stroke-opacity:1" inkscape:connector-curvature="0" />
            <path transform="matrix(0.31557684,-0.03599372,0.27031811,0.2327368,-113.00227,42.05692)" id="path2583-3-7" stroke-width="0.698174" stroke="#000000" fill="none" d="m 139.6,151.1 c 0,-1.4 0.4,-1.4 7.2,0.8 2.3,0.8 4.7,1.2 6.3,1.1 l 2.5,-0.2 -2.6,-0.5 c -1.4,-0.2 -4.3,-1.1 -6.3,-1.9 -4.2,-1.7 -10.2,-2.2 -13.1,-1.2 -2.5,0.8 -2.4,1.7 0.1,1.1 3.8,-1 4.4,-0.8 4.4,1.5 0,1.7 0.1,1.9 0.7,1.3 0.5,-0.4 0.8,-1.3 0.8,-2 v 0" style="fill:black;fill-opacity:1;stroke:#fddb6d;stroke-width:0.510062;stroke-miterlimit:4;stroke-dasharray:none;stroke-opacity:1" inkscape:connector-curvature="0" />
            <path transform="matrix(2.7596696,0,0,1.7003528,-134.00552,94.77136)" sodipodi:nodetypes="ccsccccccccc" id="path2623" stroke-width="0.746965" stroke="#000000" fill="none" d="m 36.4706,-0.90181773 c -0.134019,-0.18594077 -0.0877,-0.64191597 0.227251,-0.51059187 0.323122,0.1405629 0.350047,0.5301558 0.532607,0.79010773 0.271401,0.44061116 0.636236,0.82777209 1.063842,1.1187263 0.566791,0.3038238 1.23238,0.2258212 1.849128,0.19092112 0.903592,-0.0729331 1.853765,-0.26132426 2.568325,-0.85702532 0.244894,-0.18386339 0.336703,-0.52502653 0.616809,-0.65990316 0.187622,-0.14888421 0.637155,-0.0191742 0.405023,0.24367762 -0.1563,0.2339265 -0.390489,0.4010048 -0.595849,0.588418 -0.753278,0.57528287 -1.70455,0.76688432 -2.607236,0.97815487 -0.68027,0.12427024 -1.382729,0.12580084 -2.066269,0.0263623 -0.278715,-0.0351543 -0.540586,-0.14677678 -0.761904,-0.31932387 -0.48788,-0.35529929 -0.885614,-0.83535133 -1.157234,-1.3729553 -0.03032,-0.0701368 -0.05582,-0.1424457 -0.07449,-0.21657026 z" style="fill:#fddb6d;fill-opacity:1;stroke:black;stroke-width:0.0383602;stroke-miterlimit:4;stroke-dasharray:none;stroke-opacity:1" />
            <path transform="matrix(1.854189,0,0,1.6810565,-98.599404,91.57966)" sodipodi:nodetypes="cccccccsccsc" id="path2625" stroke-width="0.746965" stroke="#000000" fill="none" d="m 34.61,-1.304 c -8.93e-4,-1.2213928 0.721519,-2.365908 1.741571,-3.0077005 0.561416,-0.4139649 1.12205,-0.8504403 1.786484,-1.0856237 0.629398,-0.3122841 1.266148,-0.6151374 1.949438,-0.7906421 0.754786,-0.2289147 1.59157,-0.3939295 2.142653,-1.0086752 0.240128,-0.3858482 1.24509,-0.64129 1.066341,0.074899 -0.258989,0.5134981 -0.804506,0.7830305 -1.261713,1.0949747 -0.379493,0.2184978 -0.724076,0.5090652 -1.162592,0.600176 -1.124178,0.3352713 -2.298146,0.5423834 -3.345348,1.095737 -1.139408,0.5289538 -2.225778,1.3808504 -2.637266,2.6112409 -0.03113,0.1204174 -0.316594,1.00479862 -0.279568,0.4156139 z" style="fill:#fddb6d;fill-opacity:1;stroke:black;stroke-width:0.0383602;stroke-miterlimit:4;stroke-dasharray:none;stroke-opacity:1" />
        </g>
    </g>
</svg>
