<?xml version="1.0" encoding="UTF-8" standalone="no"?>
<svg xmlns:dc="http://purl.org/dc/elements/1.1/" xmlns:cc="http://creativecommons.org/ns#" xmlns:rdf="http://www.w3.org/1999/02/22-rdf-syntax-ns#" xmlns:svg="http://www.w3.org/2000/svg" xmlns="http://www.w3.org/2000/svg" xmlns:sodipodi="http://sodipodi.sourceforge.net/DTD/sodipodi-0.dtd" xmlns:inkscape="http://www.inkscape.org/namespaces/inkscape" sodipodi:docname="Dehoni_Palette.svg" inkscape:version="1.1-dev (1:0.92.0+devel+202004230041+b09211e)" id="svg6096" version="1.1" viewBox="0 0 57.569675 50.254879" height="50.254879mm" width="57.569675mm">
    <defs id="defs6090" />
    <sodipodi:namedview inkscape:window-maximized="1" inkscape:window-y="0" inkscape:window-x="2560" inkscape:window-height="1403" inkscape:window-width="2560" showgrid="false" inkscape:current-layer="layer1" inkscape:document-units="mm" inkscape:cy="-1359.3158" inkscape:cx="231.65022" inkscape:zoom="0.35" inkscape:pageshadow="2" inkscape:pageopacity="0.0" borderopacity="1.0" bordercolor="#666666" pagecolor="#ffffff" id="base" />
    <metadata id="metadata6093">
        <rdf:RDF>
            <cc:Work rdf:about="">
                <dc:format>image/svg+xml</dc:format>
                <dc:type rdf:resource="http://purl.org/dc/dcmitype/StillImage" />
                <dc:title></dc:title>
            </cc:Work>
        </rdf:RDF>
    </metadata>
    <g transform="translate(-44.542546,-507.81899)" id="layer1" inkscape:groupmode="layer" inkscape:label="Layer 1">
        <g transform="matrix(1.0001486,0,0,1.0001486,-229.43579,354.62416)" id="g6066">
            <rect style="fill:#737d84;fill-opacity:1;stroke:none;stroke-width:0.264583;stop-color:black" id="rect10-2-8-6" width="29.482143" height="25.702381" x="82.398811" y="76.351189" transform="matrix(0.4887428,0,0,0.4887428,276.81774,115.85597)" />
            <rect y="76.351189" x="52.916672" height="25.702381" width="29.482143" id="rect10-2-0-6-0" style="fill:#a5acaf;fill-opacity:1;stroke:none;stroke-width:0.264583;stop-color:black" transform="matrix(0.4887428,0,0,0.4887428,276.81774,115.85597)" />
            <rect style="fill:#100c08;fill-opacity:1;stroke:none;stroke-width:0.264583;stop-color:black" id="rect10-8-7-6" width="29.482143" height="25.702381" x="23.434523" y="102.05357" transform="matrix(0.4887428,0,0,0.4887428,291.22212,115.85597)" />
            <rect y="102.05357" x="52.916664" height="25.702381" width="29.482143" id="rect10-8-9-0-4" style="fill:#010203;fill-opacity:1;stroke:none;stroke-width:0.264583;stop-color:black" transform="matrix(0.4887428,0,0,0.4887428,291.22212,115.85597)" />
            <rect y="102.05357" x="-6.0476246" height="25.702381" width="29.482143" id="rect10-8-1-4-9" style="fill:#1b1811;fill-opacity:1;stroke:none;stroke-width:0.264583;stop-color:black" transform="matrix(0.4887428,0,0,0.4887428,291.22212,115.85597)" />
            <rect y="127.75595" x="23.434521" height="25.702381" width="29.482143" id="rect10-8-4-8-9" style="fill:#bddeec;fill-opacity:1;stroke:none;stroke-width:0.264583;stop-color:black" transform="matrix(0.4887428,0,0,0.4887428,276.81774,115.85597)" />
            <rect style="fill:#126180;fill-opacity:1;stroke:none;stroke-width:0.264583;stop-color:black" id="rect10-8-9-6-4-0" width="29.482143" height="25.702381" x="82.398804" y="127.75595" transform="matrix(0.4887428,0,0,0.4887428,276.81774,115.85597)" />
            <rect style="fill:#947867;fill-opacity:1;stroke:none;stroke-width:0.264583;stop-color:black" id="rect10-8-1-0-8-8" width="29.482143" height="25.702381" x="52.91666" y="153.45833" transform="matrix(0.4887428,0,0,0.4887428,276.81774,115.85597)" />
            <rect style="fill:#1ca9c9;fill-opacity:1;stroke:none;stroke-width:0.264583;stop-color:black" id="rect10-8-4-4-1-9" width="29.482143" height="25.702381" x="52.916664" y="127.75595" transform="matrix(0.4887428,0,0,0.4887428,276.81774,115.85597)" />
            <rect style="fill:#d1bea8;fill-opacity:1;stroke:none;stroke-width:2.23037;stroke-linecap:round;stroke-linejoin:round;stroke-opacity:0;paint-order:markers stroke fill;stop-color:black" id="rect1565-5-8-1" width="29.482143" height="25.702381" x="23.434521" y="153.45833" transform="matrix(0.4887428,0,0,0.4887428,276.81774,115.85597)" />
            <rect style="fill:#d6d6d6;fill-opacity:1;stroke:none;stroke-width:2.23037;stroke-linecap:round;stroke-linejoin:round;stroke-opacity:1;paint-order:markers stroke fill;stop-color:black" id="rect1565-62-5-4" width="29.482143" height="25.702381" x="23.434523" y="76.351196" transform="matrix(0.4887428,0,0,0.4887428,276.81774,115.85597)" />
            <rect style="fill:#5e4d42;fill-opacity:1;stroke:none;stroke-width:2.23037;stroke-linecap:round;stroke-linejoin:round;stroke-opacity:1;paint-order:markers stroke fill;stop-color:black" id="rect1565-9-21-8" width="29.482143" height="25.702381" x="82.398804" y="153.45833" transform="matrix(0.4887428,0,0,0.4887428,276.81774,115.85597)" />
            <rect y="153.45833" x="111.88095" height="25.702381" width="29.482143" id="rect1565-9-2-9-9" style="fill:#dfc8c3;fill-opacity:1;stroke:none;stroke-width:2.23037;stroke-linecap:round;stroke-linejoin:round;stroke-opacity:1;paint-order:markers stroke fill;stop-color:black" transform="matrix(0.4887428,0,0,0.4887428,219.25662,115.6063)" />
        </g>
    </g>
</svg>
