<?xml version="1.0" encoding="utf-8" ?>
<svg baseProfile="full" height="449px" version="1.1" viewBox="1.5294154999999998,104.43782277098589,205.934308643307,154.06419722901418" width="600px" xmlns="http://www.w3.org/2000/svg" xmlns:ev="http://www.w3.org/2001/xml-events" xmlns:xlink="http://www.w3.org/1999/xlink">
  <defs/>
  <path d="M 8.7375235,257.84001 C 7.9823885,257.52377 6.051645499999999,256.12914 4.4469825,254.74084000000002 L 1.5294154999999998,252.21665000000002 L 1.5604354999999999,242.83096 C 1.5995854999999999,230.985 2.1125255,229.87367 11.261092,221.81368 L 17.903581,215.96158 L 18.36428,212.00342 C 19.055512,206.0646 21.862275,197.37198 24.198913,193.93341 C 25.33895,192.25574 27.94009,188.75267000000002 29.979225,186.14881 C 32.517241999999996,182.90789999999998 34.16879,179.91535 35.214914,176.66189 C 38.892738,165.22384 49.835163,154.7733 62.513089,150.59083 C 64.648998,149.88619 69.950439,149.01784 74.29406900000001,148.66116000000002 C 85.57189500000001,147.73509 92.89632700000001,145.19307000000003 101.21615,139.31757000000002 C 105.32832,136.41354 111.788,133.68900000000002 117.29085,132.53766000000002 C 120.4676,131.87299000000002 122.94508,130.69896000000003 126.81202,128.02575000000002 C 132.98788000000002,123.75637000000002 134.70213,121.77501000000001 134.72383,118.88106000000002 C 134.73282999999998,117.70489000000002 135.58218,115.19797000000003 136.61167,113.31013000000002 C 139.01766,108.89812000000002 140.74668,108.54316000000001 143.33056,111.93078000000001 C 147.25311,117.07352000000002 149.92211,116.44452000000001 152.56,109.75568000000001 C 153.42695,107.55738000000001 154.52703,105.33251000000001 155.00462,104.81151000000001 C 156.37068,103.32131000000001 158.96107999999998,106.42838000000002 160.69392,111.63558000000002 C 162.02979,115.64986000000002 162.45829,116.21282000000002 165.34246,117.74288000000001 C 167.08982999999998,118.66986000000001 170.47663,121.20193000000002 172.8687,123.36971000000001 C 175.96936,126.17965000000001 177.96437999999998,127.43613 179.81824999999998,127.74657 C 181.24844,127.98607000000001 183.65427999999997,128.56707 185.16455,129.03768 C 188.47687,130.06983 189.08311999999998,132.10242 186.94231,134.99803 C 186.15502999999998,136.06288 184.87259,138.64015 184.09242999999998,140.7253 C 182.83753,144.07933 182.38219999999998,144.59675000000001 180.14359,145.21261 C 178.75187,145.59548 176.68833999999998,145.98811 175.55796999999998,146.08511000000001 C 173.86263,146.2306 172.92656999999997,147.10295000000002 170.21233999999998,151.06688000000003 C 168.40260999999998,153.70986000000002 165.08915,157.72580000000002 162.84909,159.99121000000002 C 159.78553,163.08943000000002 158.41861999999998,165.13083000000003 157.33307,168.22905000000003 C 155.25367,174.16379000000003 155.86311999999998,178.32914000000002 160.09528,187.10743000000002 C 160.36833000000001,187.67378000000002 163.69173,189.99067000000002 167.48063,192.25607000000002 C 171.26952,194.52148000000003 175.90885,197.68315 177.79026,199.28202000000002 C 180.58118,201.65382000000002 182.39646,202.50664 187.64991999999998,203.91407 C 191.59490999999997,204.97095000000002 195.93558,205.63977 198.85671,205.64083000000002 C 203.09435,205.64183000000003 203.83866999999998,205.84769000000003 205.54996,207.48721000000003 C 206.84823,208.73104000000004 207.47155,210.01672000000002 207.46365,211.43451000000005 C 207.45225,213.47893000000005 207.23842,213.61851000000004 199.74068,216.47495000000004 C 189.26846,220.46459000000004 187.61556,220.67245000000003 183.59267,218.50564000000003 C 178.97009,216.01582000000002 171.08896,214.05499000000003 163.54022,213.51655000000002 C 154.89937,212.90023000000002 151.04717,211.45107000000002 144.20568,206.24309000000002 C 137.16476,200.88329000000002 135.40973,200.67112000000003 130.07401,204.53467000000003 C 128.09178,205.96998000000002 126.46994999999998,207.47435000000004 126.46994999999998,207.87770000000003 C 126.46994999999998,208.28106000000002 126.98627999999998,210.24906000000004 127.61735999999998,212.25105000000002 C 128.88635999999997,216.27679000000003 131.10016,218.74453000000003 138.13757999999999,223.97806000000003 C 143.31116999999998,227.82550000000003 144.35325999999998,229.60741000000002 144.41422,234.71081000000004 C 144.46902,239.29700000000003 143.13572,241.52653000000004 139.45849,242.99787000000003 C 135.86983,244.43376000000004 133.75799,244.37051000000002 128.74300000000002,242.67692000000002 C 125.10772000000003,241.44927 124.30942000000002,240.84713000000002 122.53694000000003,237.99580000000003 C 121.41816000000003,236.19607000000002 120.30700000000003,233.94338000000002 120.06767000000004,232.98983000000004 C 119.82834000000004,232.03628000000003 118.03882000000003,229.76537000000005 116.09094000000003,227.94336000000004 C 112.75370000000004,224.82176000000004 112.49544000000003,224.70435000000003 111.61505000000002,225.90834000000004 C 111.10120000000002,226.61108000000004 110.68077000000002,227.70601000000005 110.68077000000002,228.34151000000003 C 110.68077000000002,230.56792000000002 108.61868000000003,235.31046000000003 106.47226000000002,238.02053000000004 C 104.94009000000003,239.95506000000003 102.67716000000001,241.52029000000005 98.74070700000001,243.36832000000004 C 95.67976700000001,244.80533000000003 92.57519700000002,246.44356000000005 91.84166700000002,247.00884000000005 C 90.55088700000002,248.00353000000004 90.60156700000002,248.14291000000006 93.41679700000002,251.34119000000004 C 98.77264700000002,257.42575000000005 96.46545700000001,258.77815000000004 81.50508700000002,258.32346000000007 C 70.16188600000001,257.97873000000004 65.93453400000001,256.0271400000001 60.47884900000002,248.61659000000006 C 59.394767000000016,247.14406000000005 58.50779100000002,245.53982000000005 58.50779100000002,245.05160000000006 C 58.50779100000002,244.56339000000006 60.13885000000002,242.21562000000006 62.132367000000016,239.83433000000005 C 67.06468000000001,233.94262000000006 68.11860100000001,232.14353000000006 68.11860100000001,229.61559000000005 C 68.11860100000001,226.82017000000005 65.43833700000002,222.00547000000006 64.03171300000001,222.27410000000006 C 63.44774500000001,222.38562000000007 61.42535800000001,224.63584000000006 59.53752000000001,227.27458000000007 C 54.880784000000006,233.78357000000008 49.05563600000001,239.51606000000007 45.027224000000004,241.55407000000008 C 39.482657,244.35911000000007 32.680837000000004,246.1452600000001 27.543589000000004,246.1452600000001 C 22.042729000000005,246.1452600000001 21.491757000000003,246.9819800000001 25.041575000000005,249.9448600000001 C 27.805745000000005,252.2520000000001 28.933032000000004,254.1684600000001 28.964547000000007,256.6141800000001 L 28.988877000000006,258.5020200000001 L 19.549688000000003,258.4585200000001 C 14.358134000000003,258.4345200000001 9.492661500000004,258.15627000000006 8.737526500000003,257.84003000000007 L 8.7375235,257.84001" id="path1135" style="fill:#000000;stroke-width:1"/>
</svg>
