<?xml version="1.0" encoding="utf-8" ?>
<svg baseProfile="full" height="75px" version="1.1" viewBox="-163.19542000000004,-64.35772461054492,68.65801400000005,25.63769801986451" width="200px" xmlns="http://www.w3.org/2000/svg" xmlns:ev="http://www.w3.org/2001/xml-events" xmlns:xlink="http://www.w3.org/1999/xlink">
  <defs/>
  <path d="M -94.537406,-58.287734 C -95.806426,-51.899752 -100.35102,-45.690044 -106.97748,-44.274437 C -108.54922,-44.44181 -111.22982,-42.57593 -108.352,-42.01032 C -107.19963,-41.692605 -103.89421,-42.297408 -106.73688,-41.347021 C -110.17517,-40.132906 -113.74676,-41.513664999999996 -117.23382,-41.389030999999996 C -119.95407999999999,-39.939325999999994 -111.87822,-38.348352 -116.34212,-38.797340999999996 C -121.26874,-39.228398999999996 -126.27332,-40.937718 -130.02042,-44.241735999999996 C -123.87528,-42.354789 -116.92522,-42.75394299999999 -111.13953000000001,-45.610485999999995 C -110.22856,-46.04803499999999 -107.95703,-47.698161999999996 -110.04793000000001,-46.507189 C -117.6243,-43.018567 -126.40807000000001,-44.251678 -134.07305000000002,-46.796529 C -138.90585000000002,-48.45321 -143.62708000000003,-50.472183 -147.96079000000003,-53.197385 C -152.58851000000004,-55.456827999999994 -158.20314000000002,-56.944772 -163.19542000000004,-55.099736 C -160.33112000000006,-59.415382 -156.24650000000005,-63.789461 -150.80072000000004,-64.329615 C -146.80361000000005,-64.671268 -143.60493000000005,-61.82259500000001 -140.38751000000005,-59.90972000000001 C -136.66235000000006,-57.47306400000001 -133.59261000000004,-54.138875000000006 -129.57159000000004,-52.146511000000004 C -125.80570000000004,-50.164568 -121.88667000000004,-48.137978000000004 -117.62855000000005,-47.530861 C -113.52771000000004,-47.265213 -109.02474000000005,-49.415060000000004 -107.41642000000004,-53.346736 C -103.40091000000004,-53.130698 -99.44928600000004,-54.795025 -96.11743600000004,-56.919168 C -95.54859600000005,-57.322784 -95.00585600000004,-57.769189 -94.53740600000005,-58.287736 L -94.537406,-58.287734" fill="none" stroke="#000000" stroke-width="0.1"/>
</svg>
