<?xml version="1.0" encoding="utf-8" ?>
<svg baseProfile="full" height="427px" version="1.1" viewBox="103.67334000000001,144.47612325551273,81.02383978900137,57.58518674448726" width="600px" xmlns="http://www.w3.org/2000/svg" xmlns:ev="http://www.w3.org/2001/xml-events" xmlns:xlink="http://www.w3.org/1999/xlink">
  <defs/>
  <path d="M 154.6177,200.71555 C 166.88246,197.24408 175.12720000000002,191.4503 178.75096000000002,183.75652000000002 C 183.48929,173.69633000000002 178.33613000000003,163.10768000000002 166.77864000000002,159.15591000000003 C 160.09239000000002,156.86973000000003 154.09662000000003,158.33405000000005 148.41968000000003,163.63966000000002 L 145.92648000000003,165.96977 L 145.92648000000003,164.29003 C 145.92648000000003,163.36617 146.15683,161.96824 146.43837000000002,161.18351 C 147.22907,158.97962 146.23741,159.49784000000002 145.18386,161.83909 C 144.64243000000002,163.04227 144.04774,166.2713 143.77529,169.48721 C 142.92513000000002,179.52248 142.0978,182.01572000000002 139.23397,183.17292 C 137.16896,184.00734 133.83102,183.31937 132.0084,181.68369 C 130.91848,180.70557000000002 130.79094999999998,180.45636000000002 131.5889,180.86396000000002 C 134.59467,182.39932000000002 138.48293999999999,180.89846000000003 139.94223,177.63962 C 141.01099,175.25289 140.55879,168.89923000000002 139.10529,165.88 C 136.61854,160.71448 127.18735,154.71296 120.88875999999999,154.28795 L 117.56787999999999,154.06386 L 115.20129999999999,156.57176 C 113.06576999999999,158.83481 112.78464,158.98052 112.32188,158.0642 C 111.58643,156.60794 111.68929,154.38461 112.5762,152.5671 C 113.76325,150.13453 116.89409,149.06735 123.75015,148.75835 C 126.99786,148.61197 129.65509,148.2734 129.65509,148.00597000000002 C 129.65509,147.73854000000003 128.94649,147.51974 128.08044,147.51974 C 125.92154000000001,147.51974 126.10445000000001,146.54142000000002 128.47410000000002,145.41426 C 129.99228000000002,144.69212000000002 132.00287000000003,144.47758000000002 137.26590000000002,144.47614000000002 C 143.51215000000002,144.47414 144.68883000000002,144.64846000000003 151.17532000000003,146.53344 C 155.07258000000002,147.66598000000002 160.10649000000004,148.99751 162.36179000000004,149.49239 C 164.76783000000003,150.02035 168.37847000000005,151.40867 171.09921000000003,152.85201 C 180.50487000000004,157.84166000000002 185.40735000000004,166.39141 184.61387000000002,176.42111 C 183.50607000000002,190.42405 171.54178000000002,200.39468 154.25167000000002,201.72392 L 149.86311,202.06131 L 154.6177,200.71555" fill="none" stroke="#000000" stroke-width="0.08102383978900138"/>
  <path d="M 142.15332,154.17279000000002 C 143.64062,152.70443000000003 143.63037,152.21901000000003 142.13552,153.32858000000002 C 140.24343000000002,154.73299000000003 137.17281000000003,154.4454 135.6662,152.72268000000003 C 134.10257000000001,150.93474000000003 133.94906,151.79646000000002 135.46692000000002,153.84134000000003 C 136.87384000000003,155.73675000000003 140.39254000000003,155.91118000000003 142.15334000000001,154.17279000000002 L 142.15332,154.17279000000002" fill="none" stroke="#000000" stroke-width="0.08102383978900138"/>
  <path d="M 139.62788,151.12569000000002 C 139.62788,149.68053000000003 140.02573,149.72518000000002 146.78012,151.92844000000002 C 149.1147,152.68997000000002 151.48213,153.07986000000002 153.07873,152.96574 L 155.63683,152.7829 L 153.01241000000002,152.34734 C 151.56898,152.10778 148.73461,151.24475 146.71381000000002,150.4295 C 142.49672,148.7282 136.54300000000003,148.15624 133.63551,149.17310999999998 C 131.14741,150.04328999999998 131.21442000000002,150.87288999999998 133.72291,150.25556999999998 C 137.50843,149.32398999999998 138.0532,149.51319999999998 138.0532,151.75955 C 138.0532,153.48749999999998 138.16532,153.67584 138.84052,153.08201 C 139.27355,152.70117 139.62785,151.82082 139.62785,151.12569 L 139.62788,151.12569000000002" fill="none" stroke="#000000" stroke-width="0.08102383978900138"/>
  <path d="M 142.51474000000002,199.29334000000003 C 157.84856000000002,193.58557000000002 164.92163000000002,186.86087000000003 164.18112000000002,178.69405000000003 C 163.65528000000003,172.89475000000004 159.53468,167.73039000000003 153.63998,165.48278000000002 L 151.11824000000001,164.52127000000002 L 153.11509,163.73561 C 154.25353,163.2877 157.25551000000002,162.92116000000001 160.09834,162.88297 C 166.62779,162.79527 169.85483,163.98449 173.50066,167.82202 C 177.76260000000002,172.30806 178.56737,177.48593 175.92323000000002,183.40882000000002 C 172.41599000000002,191.26507 162.64755000000002,196.89791000000002 147.54056000000003,199.77534000000003 C 138.95414000000002,201.41079000000002 137.26216000000002,201.24851000000004 142.51474000000002,199.29334000000003" fill="none" stroke="#000000" stroke-width="0.08102383978900138"/>
  <path d="M 111.47052,190.33909 C 109.33950999999999,189.88055 103.93579,187.27412999999999 103.93579,186.7048 C 103.93579,186.54623 104.45282,186.7098 105.08475,187.06811000000002 C 105.71667,187.42651 108.3739,187.80504000000002 110.98969,187.90929000000003 C 114.9827,188.06844000000004 115.45096,188.00349000000003 113.90858,187.50437000000002 C 109.0989,185.94798000000003 107.66351,185.16915000000003 105.74393,183.07439000000002 L 103.67334000000001,180.81482000000003 L 106.33018000000001,182.22134000000003 C 109.87538,184.09815000000003 112.82034000000002,184.54245000000003 115.81868000000001,183.65283000000002 C 119.26012000000001,182.63175 121.35205000000002,180.16398 123.11267000000001,175.04839 C 125.42951000000001,168.31671 128.87478000000002,165.47395 133.1946,166.72958 L 134.64148,167.15015 L 132.89326,167.56407 C 129.27985999999999,168.41960999999998 127.41636,171.62572 125.95406,179.50278999999998 C 125.26458,183.21685999999997 123.97619999999999,186.24689999999998 122.47458,187.68592999999998 C 120.12725,189.9354 115.16015,191.13299999999998 111.47052000000001,190.33909 L 111.47052,190.33909" fill="none" stroke="#000000" stroke-width="0.08102383978900138"/>
  <path d="M 132.4893,179.91145 C 131.81745999999998,179.43606 130.70485,177.32329000000001 130.70485,176.52289 C 130.70485,176.22038999999998 131.39463,176.70385 132.23769,177.59725 C 133.48328999999998,178.91724 133.99964999999997,179.13088 134.99333,178.73738 C 136.00387999999998,178.33718 136.21613,177.85259 136.21613,175.94555 C 136.21613,173.96211 136.30832999999998,173.77182 136.87224,174.59084 C 137.78016,175.90943 137.69343,178.41404 136.70352,179.46305999999998 C 135.84662,180.37114999999997 133.49289,180.62158 132.4893,179.91144999999997 L 132.4893,179.91145" fill="none" stroke="#000000" stroke-width="0.08102383978900138"/>
  <path d="M 115.69318,162.8716 C 114.71164999999999,161.83146 113.90858,160.58829 113.90858,160.10901 C 113.90858,158.67370000000003 117.45822,155.31351 119.04369,155.24798 C 122.12004,155.12082 123.72633,155.44071000000002 126.37456,156.70791000000003 C 129.41987,158.16512000000003 130.20094,159.06161000000003 127.30997,157.78155000000004 C 125.07462000000001,156.79179000000005 121.95057000000001,156.73083000000003 121.63849,157.67088000000004 C 121.51154000000001,158.05329000000003 121.60409,158.92935000000003 121.8442,159.61768000000004 C 122.0843,160.30601000000004 122.08699,160.86919000000003 121.8502,160.86919000000003 C 121.2433,160.86919000000003 119.68231,158.95886000000004 119.68231,158.21614000000002 C 119.68231,156.56158000000002 117.39585,156.93577000000002 116.48496,158.73940000000002 C 116.05866,159.58354000000003 116.23664,160.35034000000002 117.309,162.28944 C 118.93907,165.23704 118.18254,165.50961 115.69319,162.8716 L 115.69318,162.8716" fill="none" stroke="#000000" stroke-width="0.08102383978900138"/>
</svg>
