<?xml version="1.0" encoding="utf-8" ?>
<svg baseProfile="full" height="600px" version="1.1" viewBox="-6.273078923517018,150.910044799695,46.99859971952409,61.370746143042" width="460px" xmlns="http://www.w3.org/2000/svg" xmlns:ev="http://www.w3.org/2001/xml-events" xmlns:xlink="http://www.w3.org/1999/xlink">
  <defs/>
  <path d="M 6.569862,212.03852 C -0.20851798000000077,210.98334 -4.200054300000001,207.22386 -4.185126000000001,201.90879 C -4.178466000000001,199.54017000000002 -2.143499600000001,195.10894000000002 0.22939720999999835,192.29601000000002 L 2.10626,190.0711 L 0.29300157,193.33564 C -1.5825968000000001,196.71241 -2.4445661,200.46023000000002 -1.8870194000000002,202.81433 C -1.4187691000000002,204.7914 0.8957060799999996,207.48159 3.2003270999999995,208.72753 C 7.3306793,210.9605 17.231244,211.22691 23.593818,209.27629 C 24.585098,208.97238 25.488355,208.82145 25.601053,208.94088 C 25.713751000000002,209.06029999999998 24.548409,209.53086 23.011398,209.98655 C 16.138414,212.02427 10.776815,212.69341 6.5698620000000005,212.03852 L 6.569862,212.03852" fill="none" stroke="#000000" stroke-width="0.061370746143042"/>
  <path d="M 10.748636999999999,207.59793000000002 C 5.547362299999999,206.78813000000002 2.627375599999999,204.10466000000002 2.641271899999998,200.14723 C 2.645681899999998,198.88831000000002 2.8228406999999978,197.56931 3.034934599999998,197.21611000000001 C 3.247028599999998,196.86292 3.420559899999998,197.65013000000002 3.420559899999998,198.96545 C 3.420559899999998,201.86031 4.5599295999999985,203.39963 7.882071199999998,204.99308 C 9.847224199999998,205.93565999999998 11.258152999999998,206.11699 16.280209999999997,206.07238999999998 C 26.281989999999997,205.98359 35.494118,203.08647 36.22760099999999,199.79919999999998 C 36.49649399999999,198.59409 36.58423899999999,198.54596999999998 36.90417599999999,199.42819999999998 C 37.10636699999999,199.98573 37.04393699999999,200.89305999999996 36.765449999999994,201.44449999999998 C 35.666695,203.62013999999996 27.413990999999996,206.53954 19.443281999999993,207.57223 C 14.602893999999992,208.19934999999998 14.611336999999992,208.19933 10.748636999999993,207.59793 L 10.748636999999999,207.59793000000002" fill="none" stroke="#000000" stroke-width="0.061370746143042"/>
  <path d="M -6.272653,198.09829 C -6.301716,194.73192 -4.8408748,190.65635999999998 -2.6768665,188.06649 C 0.026456699999999778,184.83118 3.849373,182.46796999999998 10.548506,179.89096999999998 C 17.187155,177.33722999999998 20.514255,175.0245 22.365693999999998,171.67660999999998 C 23.550273999999998,169.53456999999997 23.715334999999996,168.70806 23.500743999999997,165.99301999999997 C 23.362636,164.24564999999998 23.062972,162.34906999999998 22.834825999999996,161.77839999999998 C 21.957921999999996,159.58495999999997 26.546635999999996,162.08727999999996 28.509039999999995,164.87265999999997 C 31.074796999999997,168.51441999999997 29.689397999999997,175.13545999999997 25.795747999999996,177.83994999999996 C 24.748147999999997,178.56759999999997 20.029421999999997,180.31075999999996 15.309685999999996,181.71362999999997 C 10.589949999999995,183.11649999999997 5.8659965999999955,184.73445999999996 4.812011799999995,185.30908999999997 C -0.4199253800000049,188.16152999999997 -3.576030500000005,191.86541999999997 -5.312398300000005,197.19071999999997 C -6.239251500000005,200.03329999999997 -6.255813200000005,200.04894999999996 -6.272653000000005,198.09828999999996 L -6.272653,198.09829" fill="none" stroke="#000000" stroke-width="0.061370746143042"/>
  <path d="M 7.8820712,186.08906 C 7.8820712,185.69033 10.711496,184.68883 17.265563,182.76767999999998 C 25.684929,180.29978 28.289721999999998,179.07503999999997 30.713493,176.44465 C 32.350947,174.6676 32.744226,173.79378 32.955571,171.46294 C 33.396132,166.60410000000002 31.236005,162.46306 27.040326,160.1232 L 25.465675,159.24505 L 28.390253,159.22285 C 34.627924,159.17534999999998 39.254312,162.37322 40.424178,167.54098 C 41.716473,173.24954 38.779906,178.4844 33.005523999999994,180.76579999999998 C 31.456780999999992,181.37768999999997 26.764761999999994,182.40447999999998 22.57881499999999,183.04755999999998 C 18.392866999999992,183.69063999999997 13.373666999999992,184.68693 11.425035999999992,185.26154999999997 C 9.476405399999992,185.83617999999998 7.8820711999999915,186.20857999999998 7.8820711999999915,186.08912999999998 L 7.8820712,186.08906" fill="none" stroke="#000000" stroke-width="0.061370746143042"/>
  <path d="M 9.7753209,166.10785 C 9.6000916,165.62394 9.456722300000001,164.81734 9.456722300000001,164.31541 C 9.456722300000001,163.60799 9.6404437,163.68076000000002 10.273811,164.63901 C 11.573551,166.60546000000002 12.870439000000001,166.12452000000002 16.934137,162.16909 C 21.834067,157.39970000000002 24.275337999999998,156.22716 28.685814999999998,156.52477000000002 C 30.871105,156.67223 31.845746,156.56127 31.508187999999997,156.20361000000003 C 30.681669999999997,155.32774000000003 24.789142,155.10362000000003 21.720561999999997,155.83134000000004 C 19.779246999999998,156.29173000000003 18.707034999999998,156.87737000000004 18.278783999999998,157.71122000000003 L 17.656751999999997,158.92239000000004 L 17.340228999999997,157.53968000000003 C 17.079714999999997,156.40164000000004 16.516747999999996,156.03315000000003 14.158760999999997,155.45726000000002 C 10.756133999999996,154.62623000000002 8.948895199999995,155.19157 8.898568299999997,157.10273 L 8.865296299999997,158.36617 L 8.362456699999997,157.03404 C 7.7166634999999975,155.3232 8.183923799999997,153.78822 9.483569999999997,153.35109 C 10.046176999999997,153.16187 10.506489999999996,152.79302 10.506489999999996,152.53143 C 10.506489999999996,151.43341 14.483874999999996,150.74282 19.642412999999998,150.94518 C 24.379627,151.13101 25.394563999999995,151.36042999999998 28.387922999999997,152.92204999999998 C 30.250414999999997,153.89371 32.410269,155.39097999999998 33.187596,156.24931999999998 L 34.600918,157.80993999999998 L 30.687454,157.62687 C 25.218386,157.37102 22.708475,158.40923999999998 17.438682999999997,163.10721 C 12.955526999999996,167.10389 10.486128999999998,168.07080000000002 9.775320899999997,166.10785 L 9.7753209,166.10785" fill="none" stroke="#000000" stroke-width="0.061370746143042"/>
  <path d="M 12.343582999999999,164.36272 C 12.920955,164.21366 13.865744999999999,163.67951 14.443116999999999,163.17573 C 15.484267999999998,162.26727 15.484677,162.27003 14.492987,163.51127 C 13.943043,164.1996 12.998253,164.73373999999998 12.393452,164.69825 C 11.335868,164.63625 11.333961,164.62335 12.343582,164.36272 L 12.343582999999999,164.36272" fill="none" stroke="#000000" stroke-width="0.061370746143042"/>
  <path d="M 21.676953,153.08201 C 22.083827,153.08201 22.069507,152.87603 21.630273000000003,152.41057 C 21.135382000000003,151.88612 20.796382,151.9643 20.081866,152.76765 C 19.210601,153.74723 19.212822000000003,153.77918 20.128546,153.43909 C 20.657358,153.24269999999999 21.354141,153.08201 21.676953,153.08201" fill="none" stroke="#000000" stroke-width="0.061370746143042"/>
  <path d="M 7.0448754,164.29452 C 7.594818699999999,163.63429 7.8310163,163.09302 7.5697591,163.09171 C 7.3085014,163.09071 8.1576352,162.34057 9.4567223,161.42541 C 12.821691999999999,159.05492 13.170836999999999,159.3644 10.24114,162.1207 C 7.2354156,164.94852 5.539231399999999,166.10212 7.0448754,164.29452" fill="none" stroke="#000000" stroke-width="0.061370746143042"/>

</svg>
