<?xml version="1.0" encoding="utf-8" ?>
<svg baseProfile="full" height="160px" version="1.1" viewBox="-0.1500000000000142 -0.15 383.2 306.3" width="200px" xmlns="http://www.w3.org/2000/svg" xmlns:ev="http://www.w3.org/2001/xml-events" xmlns:xlink="http://www.w3.org/1999/xlink">
  <defs/>
  <path d="M 191.4,0.0 C 139.6,0.0 92.7,12.2 57.9,32.7 C 23.2,53.2 0.0,82.7 0.0,116.6 C 0.0,150.1 22.7,179.4 56.8,199.8 L 28.3,306.0 L 125.2,226.1 C 145.9,230.7 168.2,233.2 191.4,233.2 C 243.2,233.2 290.2,221.0 324.9,200.5 C 359.7,180.0 382.9,150.5 382.9,116.6 C 382.9,82.7 359.7,53.2 324.9,32.7 C 290.2,12.2 243.2,0.0 191.4,0.0 L 191.4,0.0" fill="none" stroke="#000000" stroke-width="0.3"/>
  <path d="M 191.4,18.7 C 240.2,18.7 284.3,30.5 315.4,48.8 C 346.6,67.2 364.2,91.3 364.2,116.6 C 364.2,141.9 346.6,166.0 315.4,184.4 C 284.3,202.8 240.2,214.5 191.4,214.5 C 142.6,214.5 98.5,202.8 67.4,184.4 C 36.2,166.0 18.7,141.9 18.7,116.6 C 18.7,91.3 36.2,67.2 67.4,48.8 C 98.5,30.4 142.6,18.7 191.4,18.7 L 191.4,18.7" fill="none" stroke="#000000" stroke-width="0.3"/>
  <path d="M 76.6,68.8 L 76.6,87.5 L 169.8,87.5 L 169.8,68.8 L 76.6,68.8 L 76.6,68.8" fill="none" stroke="#000000" stroke-width="0.3"/>
  <path d="M 188.4,68.8 L 188.4,87.5 L 216.5,87.5 L 216.5,68.8 L 188.4,68.8 L 188.4,68.8" fill="none" stroke="#000000" stroke-width="0.3"/>
  <path d="M 235.2,68.8 L 235.2,87.5 L 307.2,87.5 L 307.2,68.8 L 235.2,68.8 L 235.2,68.8" fill="none" stroke="#000000" stroke-width="0.3"/>
  <path d="M 76.6,108.7 L 76.6,127.5 L 106.3,127.5 L 106.3,108.7 L 76.6,108.7 L 76.6,108.7" fill="none" stroke="#000000" stroke-width="0.3"/>
  <path d="M 125.0,108.7 L 125.0,127.5 L 190.9,127.5 L 190.9,108.7 L 125.0,108.7" fill="none" stroke="#000000" stroke-width="0.3"/>
  <path d="M 209.6,108.7 L 209.6,127.5 L 247.7,127.5 L 247.7,108.7 L 209.6,108.7 L 209.6,108.7" fill="none" stroke="#000000" stroke-width="0.3"/>
  <path d="M 266.4,108.7 L 266.4,127.5 L 307.2,127.5 L 307.2,108.7 L 266.4,108.7 L 266.4,108.7" fill="none" stroke="#000000" stroke-width="0.3"/>
  <path d="M 76.6,145.7 L 76.6,164.4 L 147.5,164.4 L 147.5,145.7 L 76.6,145.7 L 76.6,145.7" fill="none" stroke="#000000" stroke-width="0.3"/>
  <path d="M 166.2,145.7 L 166.2,164.4 L 223.2,164.4 L 223.2,145.7 L 166.2,145.7" fill="none" stroke="#000000" stroke-width="0.3"/>
  <path d="M 241.9,145.7 L 241.9,164.4 L 307.2,164.4 L 307.2,145.7 L 241.9,145.7" fill="none" stroke="#000000" stroke-width="0.3"/>
</svg>
