<?xml version="1.0" encoding="utf-8" ?>
<svg baseProfile="full" height="200px" version="1.1" viewBox="-0.850000000000002 -0.04999999999999999 270.3 388.80036629176595" width="140px" xmlns="http://www.w3.org/2000/svg" xmlns:ev="http://www.w3.org/2001/xml-events" xmlns:xlink="http://www.w3.org/1999/xlink">
  <defs/>
  <path d="M 134.3,69.0 C 141.0,69.0 146.4,63.6 146.4,56.9 L 146.4,12.2 C 146.4,5.5 141.0,0.1 134.3,0.1 C 127.6,0.1 122.2,5.5 122.2,12.2 L 122.2,56.9 C 122.2,63.6 127.6,69.0 134.3,69.0" fill="none" stroke="#000000" stroke-width="0.3"/>
  <path d="M 263.5,268.1 L 228.9,268.1 L 175.7,114.4 C 182.7,105.4 187.0,94.1 187.0,81.9 C 187.0,61.6 175.4,43.9 158.5,35.1 L 158.5,60.2 C 158.5,62.2 158.3,64.2 157.9,66.0 C 160.9,70.5 162.7,76.0 162.7,81.9 C 162.7,97.5 150.0,110.3 134.3,110.3 C 118.6,110.3 105.9,97.5 105.9,81.9 C 105.9,76.0 107.7,70.5 110.7,66.0 C 110.3,64.2 110.0,62.2 110.0,60.2 L 110.0,35.1 C 93.2,43.9 81.6,61.6 81.6,81.9 C 81.6,94.1 85.9,105.4 92.9,114.4 L 39.7,268.1 L 5.0,268.1 C 1.9,268.1 -0.7,270.7 -0.7,273.9 L -0.7,283.4 C -0.7,286.6 1.9,289.2 5.0,289.2 L 32.4,289.2 L 19.2,327.4 C 18.5,329.2 19.5,331.1 21.2,331.7 L 22.6,332.1 L 5.7,381.0 C 5.1,382.7 6.0,384.7 7.7,385.3 L 16.8,388.4 C 18.4,389.0 20.2,388.2 20.9,386.7 L 43.5,339.4 L 48.4,341.1 C 50.1,341.7 52.0,340.8 52.6,339.0 L 69.9,289.2 L 122.9,289.2 L 122.9,292.2 C 122.9,298.4 128.0,303.5 134.3,303.5 C 140.6,303.5 145.7,298.4 145.7,292.2 L 145.7,289.2 L 198.7,289.2 L 216.0,339.0 C 216.6,340.8 218.5,341.7 220.2,341.1 L 225.1,339.4 L 247.7,386.7 C 248.4,388.2 250.2,389.0 251.8,388.4 L 260.9,385.3 C 262.6,384.7 263.5,382.8 262.9,381.0 L 246.0,332.1 L 247.4,331.7 C 249.1,331.1 250.0,329.2 249.4,327.4 L 236.2,289.2 L 263.5,289.2 C 266.7,289.2 269.3,286.6 269.3,283.4 L 269.3,273.9 C 269.3,270.7 266.7,268.1 263.5,268.1" fill="none" stroke="#000000" stroke-width="0.3"/>
  <path d="M 145.7,268.1 L 145.7,265.1 C 145.7,258.9 140.6,253.8 134.3,253.8 C 128.0,253.8 122.9,258.9 122.9,265.1 L 122.9,268.1 L 77.2,268.1 L 123.8,133.5 C 127.2,134.2 130.7,134.5 134.3,134.5 C 137.9,134.5 141.4,134.2 144.8,133.5 L 191.4,268.1 L 145.7,268.1" fill="none" stroke="#000000" stroke-width="0.3"/>
</svg>
