<?xml version="1.0" encoding="UTF-8" standalone="no"?>
<svg
     xmlns:dc="http://purl.org/dc/elements/1.1/"
     xmlns:cc="http://creativecommons.org/ns#"
     xmlns:rdf="http://www.w3.org/1999/02/22-rdf-syntax-ns#"
     xmlns:svg="http://www.w3.org/2000/svg"
     xmlns="http://www.w3.org/2000/svg"
     xmlns:sodipodi="http://sodipodi.sourceforge.net/DTD/sodipodi-0.dtd"
     xmlns:inkscape="http://www.inkscape.org/namespaces/inkscape"
     inkscape:version="1.1-dev (1:0.92.0+devel+202001221713+085aa25)"
     height="477.8"
     width="475"
     sodipodi:docname="triskelion.svg"
     id="svg8"
     version="1.1"
     viewBox="0 0 475 477.8">
    <metadata
         id="metadata14">
        <rdf:RDF>
            <cc:Work
                 rdf:about="">
                <dc:format>image/svg+xml</dc:format>
                <dc:type
                     rdf:resource="http://purl.org/dc/dcmitype/StillImage" />
            </cc:Work>
        </rdf:RDF>
    </metadata>
    <defs
         id="defs12" />
    <sodipodi:namedview
         inkscape:current-layer="svg8"
         inkscape:window-maximized="1"
         inkscape:window-y="27"
         inkscape:window-x="0"
         inkscape:cy="242.3"
         inkscape:cx="219.2"
         inkscape:zoom="1.686"
         showgrid="false"
         id="namedview10"
         inkscape:window-height="983"
         inkscape:window-width="1920"
         inkscape:pageshadow="2"
         inkscape:pageopacity="0"
         guidetolerance="10"
         gridtolerance="10"
         objecttolerance="10"
         borderopacity="1"
         bordercolor="#666666"
         pagecolor="#ffffff" />
    <path
         style="fill:none;stroke:#000000;stroke-opacity:1"
         d="m 221.2,0 -40.8,29.52 c -23.9,-7.69 -50.3,-9.09 -77,-1.93 -5.41,1.45 -10.71,3.11 -15.71,4.97 L 48.4,4.07 48.71,53.18 C 8.977,82.55 -10.84,130.7 6.057,193.8 c 2.52,9.3 6.413,17.3 11.283,24.1 L 4.207,270.6 56.49,243.8 c 36.8,9.1 77.41,-11.2 67.51,-49.6 -0.6,-4.9 -2.2,-9.8 -4.7,-14.2 -7.6,-12.9 -20.91,-16.7 -29.81,-8.3 -8.58,8.1 -9.9,24.4 -3.2,37.2 -18.51,-2.8 -33.85,-20.5 -37.8,-46 -0.98,-6.4 -1.37,-12.5 -1.27,-18.3 l 46.07,-12 -35.3,-28.4 C 71.07,81.6 94.59,67.52 121,63.26 L 139.5,102 159.4,63.93 c 12.3,2.39 24.5,6.9 35.8,13.66 7.2,4.31 13.9,9.29 20.2,14.79 l -8.8,35.12 30.5,-10.7 c 11.1,15.5 19.3,33.4 24.3,52.7 -4.9,0.4 -9.9,1.1 -14.9,2.1 C 162.9,166.8 114.8,249 123,326.4 l -44.79,27.5 52.69,7.5 c 6.7,18.8 17.1,36.3 31.8,51.1 8.3,8.4 18.8,16 30.8,22.6 l -8.4,42.7 41.8,-28.1 c 56.9,19.3 130,20.1 178.2,-10.5 l 47.1,16.8 -17.9,-42.9 c 26.2,-32.1 26.4,-64.5 12.9,-87.7 l 15.7,-43.8 -42.9,17.9 c -7.2,-3.8 -15.2,-6.3 -23.5,-7.2 -49.5,-5.6 -96.4,39.2 -57.7,86.6 -6.4,-35.2 24.6,-61.4 47,-45.5 21.6,15.3 20.7,52.7 -9.7,69.5 -14.8,8.2 -32.2,13.5 -50.6,15.9 L 303.4,372.4 291.3,420 c -32.2,-1.6 -64.4,-11.2 -88.9,-28 l 24.2,-49.9 -50.2,25.4 c -8.9,-11.9 -14.7,-25.7 -16.3,-41.3 -1.3,-12.2 -1.1,-23.8 0.4,-34.9 l 48.3,1.1 -40,-33.4 c 9.3,-23.9 25,-44.3 44.1,-60.7 1.7,3.5 3.4,6.8 5.2,9.9 14.5,36.4 50.2,57 89.6,63.1 l 5.1,27.3 26.5,-25.5 c 43.3,-1.7 85.6,-19.8 104.6,-52.9 21.7,-37.7 28.9,-98.7 9,-146.55 L 475,23.9 430,37.78 c -0.1,-0.1 -0.2,-0.14 -0.2,-0.21 C 402.3,8.72 359.1,19.75 331.5,48.28 l -46.1,-6.61 25.1,39.64 c -3.6,9.67 -5.5,20.09 -5.1,30.79 -0.1,5.9 0.6,12.2 2.3,18.5 6.7,25.1 26.3,41.7 43.7,37 17.4,-4.6 26,-28.8 19.3,-53.9 -1.9,-7.2 -4.9,-13.72 -8.6,-19.22 -13.6,8.32 -19.3,20.62 -20.8,36.32 -5.2,-25 -1.3,-39.42 18.1,-50.6 v 0 c 12.2,-7.95 24.7,-10.52 33.9,-3.84 31.6,23.22 33,72.34 12.9,111.14 l -38.9,-3 12.6,36.3 c -11,9.3 -24.2,16.2 -39.1,19.3 -24.1,5.1 -52.6,1.9 -78.1,-8.3 5.4,-6.9 9.2,-15.1 11.6,-23.7 22.5,-63 -7.4,-128 -58.7,-161.69 l 5.6,-46.4 z"
         fill="#fff"
         fill-opacity="1"
         id="path4"
         inkscape:connector-curvature="0" />
</svg>
