<?xml version="1.0" encoding="utf-8" ?>
<svg baseProfile="full" height="200px" version="1.1" viewBox="-0.0315104500000043,0.17367038572142812,157.52792709827693,159.30224961427854" width="198px" xmlns="http://www.w3.org/2000/svg" xmlns:ev="http://www.w3.org/2001/xml-events" xmlns:xlink="http://www.w3.org/1999/xlink">
  <defs/>
  <path d="M 24.33836,41.561108 C 23.509780000000003,41.035278 24.73805,40.368328 27.83836,39.660598 L 32.614940000000004,38.570208 L 30.254160000000006,40.486038 C 27.692120000000006,42.565178 26.314930000000007,42.815448 24.338360000000005,41.561108" fill="none" stroke="#000000" stroke-width="0.15930224961427855"/>
  <path d="M 33.55819,38.151858 C 32.46060000000001,35.756558 33.573690000000006,29.381937999999998 35.276360000000004,28.311877999999997 C 36.314490000000006,27.659457999999997 36.418890000000005,25.658868 35.68916,20.401857999999997 C 35.32855,17.804057999999998 35.38526,17.594537999999996 35.909130000000005,19.589067999999997 C 36.297320000000006,21.067027999999997 37.62744000000001,23.432947999999996 38.864940000000004,24.846667999999998 C 41.742670000000004,28.134187999999998 41.697120000000005,29.179477999999996 38.614940000000004,30.583807999999998 C 36.01073,31.770367999999998 35.030190000000005,36.613408 37.13125,37.911938 C 37.690220000000004,38.257408 37.888670000000005,38.958958 37.572230000000005,39.470957999999996 C 36.56018,41.108487999999994 34.62098,40.471227999999996 33.55819,38.151858" fill="none" stroke="#000000" stroke-width="0.15930224961427855"/>
  <path d="M 18.63875,36.782808 C 16.31247,34.456528000000006 16.982670000000002,34.312668 24.035780000000003,35.624328000000006 C 28.519050000000004,36.45807800000001 29.802030000000002,37.00824800000001 28.477490000000003,37.529008000000005 C 25.192110000000003,38.820688000000004 20.306050000000003,38.450118 18.63875,36.782808 L 18.63875,36.782808" fill="none" stroke="#000000" stroke-width="0.15930224961427855"/>
  <path d="M 22.66506,33.275508 C 18.43093,32.283458 15.11494,29.886518000000002 15.11494,27.817948 C 15.11494,26.976458 17.06678,27.533948000000002 20.86494,29.460278000000002 C 24.027440000000002,31.064208 27.375880000000002,32.382228000000005 28.30592,32.389188000000004 C 29.23596,32.396188 30.27502,32.85185800000001 30.61494,33.401858000000004 C 31.356840000000002,34.602278000000005 28.10738,34.550628 22.66506,33.275508" fill="none" stroke="#000000" stroke-width="0.15930224961427855"/>
  <path d="M 26.05492,29.523838 C 19.35186,26.900748 15.431719999999999,24.362288 14.025129999999999,21.734048 C 12.014769999999999,17.977658 13.53385,18.074278 18.23107,22.001568000000002 C 20.6422,24.017478000000004 24.52744,26.596908000000003 26.864939999999997,27.733628000000003 C 29.202439999999996,28.870348000000003 31.114939999999997,30.160718000000003 31.114939999999997,30.601128000000003 C 31.114939999999997,31.579338000000003 31.537339999999997,31.669268000000002 26.054919999999996,29.523838 L 26.054919999999996,29.523838" fill="none" stroke="#000000" stroke-width="0.15930224961427855"/>
  <path d="M 26.61494,25.475098 C 18.82929,20.946978 15.17961,17.324718 14.4503,13.401858 L 13.7996,9.901857600000001 L 18.45477,15.046008 C 21.01512,17.875298 25.361069999999998,21.634708 28.11244,23.400258 C 36.11431,28.535038 34.86128,30.271158 26.61494,25.475098000000003" fill="none" stroke="#000000" stroke-width="0.15930224961427855"/>
  <path d="M 26.11494,19.556158 C 19.2893,14.499398 15.11494,8.5767676 15.11494,3.9492575999999993 C 15.11494,0.8181475899999993 30.54696,16.161458 32.81667,21.549238 C 34.43506,25.390947999999998 33.69278,25.170188 26.11494,19.556158" fill="none" stroke="#000000" stroke-width="0.15930224961427855"/>
  <path d="M 126.292,44.041168 C 125.31793,43.486827999999996 124.7995,42.582588 125.13996,42.031738 C 126.27867,40.189268 122.52647,37.105408 120.47915,38.201097999999995 C 119.04954000000001,38.96619799999999 118.4086,38.73616799999999 117.56189,37.154087999999994 C 116.70544000000001,35.553788 116.80196000000001,35.001757999999995 118.01991000000001,34.534378 C 120.29544000000001,33.661178 119.96569000000001,29.418787999999996 117.56302000000001,28.656207999999996 C 115.36152000000001,27.957477999999995 115.16091000000002,27.339427999999995 116.46653,25.278087999999997 C 116.94663,24.520127999999996 117.85944,24.221368 118.49503,24.614177999999995 C 120.51299,25.861347999999996 122.70809,23.093147999999996 122.05588,20.123657999999995 C 121.36208,16.964857999999996 123.68434,15.392517999999995 125.61235,17.715647999999995 C 127.31107,19.762467999999995 130.30949,19.498447999999996 131.5431,17.193447999999993 C 132.7826,14.877417999999993 135.56302000000002,15.532637999999993 135.56302000000002,18.14074799999999 C 135.56302000000002,20.588537999999993 138.07778000000002,22.44499799999999 140.39661,21.709027999999993 C 142.87619,20.922037999999993 144.21965,23.945297999999994 142.096,25.533257999999993 C 140.29435,26.880447999999994 141.11837,31.156207999999992 143.17965,31.156207999999992 C 143.94050000000001,31.156207999999992 144.56302000000002,32.05620799999999 144.56302000000002,33.15620799999999 C 144.56302000000002,34.59540799999999 143.89635,35.15620799999999 142.18547,35.15620799999999 C 139.18305,35.15620799999999 137.48664000000002,37.14813799999999 138.192,39.84538799999999 C 138.8985,42.54704799999999 136.91067,43.75127799999999 134.75002,41.930547999999995 C 132.63061000000002,40.144577999999996 130.09241,40.67800799999999 128.94442,43.150648 C 128.25902000000002,44.626917999999996 127.66921,44.824928 126.292,44.041168 L 126.292,44.041168" fill="none" stroke="#000000" stroke-width="0.15930224961427855"/>
  <path d="M 134.10848,33.701658 C 139.71131,28.098838 132.27077999999997,20.490768000000003 126.39176999999998,25.811198 C 122.56573999999998,29.273708 125.28526999999998,35.524128000000005 130.85848,36.077258 C 131.29598,36.120658 132.75848,35.051658 134.10848,33.701658 L 134.10848,33.701658" fill="none" stroke="#000000" stroke-width="0.15930224961427855"/>
  <path d="M 144.25208,21.075148 C 143.83311,19.473008 143.05835000000002,19.070278 140.88545000000002,19.325148 C 138.31984000000003,19.626088 138.09037,19.398647999999998 138.36349,16.825778 C 138.59227,14.670528 138.17483000000001,13.867448 136.61349,13.459147999999999 C 134.3211,12.859677999999999 133.78298,10.156208 135.95604,10.156208 C 137.75945000000002,10.156208 138.58164,7.943417499999999 137.8367,5.094727499999999 C 137.32705,3.1458174999999997 137.55263,2.9202274999999993 139.50155,3.4298774999999995 C 142.35023,4.174827499999999 144.56302,3.3526774999999995 144.56302,1.5492174999999995 C 144.56302,-0.6238425100000005 147.2665,-0.08572251000000053 147.86597,2.2066674999999996 C 148.27427,3.7680074999999995 149.07734,4.1854474999999995 151.2326,3.9566674999999996 C 153.80548,3.6835474999999995 154.03289999999998,3.9129674999999997 153.73196,6.4786275 C 153.47708999999998,8.6515276 153.87982,9.4262876 155.48196,9.8452576 C 158.15335,10.543848 158.17213999999998,12.763658 155.51255999999998,13.459147999999999 C 153.95121999999998,13.867448 153.53377999999998,14.670528 153.76255999999998,16.825778 C 154.03567999999999,19.398668 153.80615999999998,19.626088 151.24059999999997,19.325148 C 149.06769999999997,19.070278 148.29293999999996,19.473008 147.87396999999999,21.075148 C 147.57465,22.219728 146.75973,23.156208 146.06302,23.156208 C 145.36632,23.156208 144.5514,22.219728 144.25208,21.075148" fill="none" stroke="#000000" stroke-width="0.15930224961427855"/>
  <path d="M 148.62877,15.121028 C 152.37555,13.115808000000001 150.45575,7.156207500000001 146.06302,7.156207500000001 C 143.38255999999998,7.156207500000001 141.56302,8.9757476 141.56302,11.656208 C 141.56302,15.609437999999999 144.77402999999998,17.184018 148.62877,15.121027999999999" fill="none" stroke="#000000" stroke-width="0.15930224961427855"/>
  <path d="M 19.98497,156.97032 C 18.0379,154.89775999999998 17.920450000000002,154.46471 19.30539,154.46471 C 20.70474,154.46471 20.979699999999998,153.36309 20.979699999999998,147.7565 L 20.979699999999998,141.04828999999998 L 16.478699999999996,145.46568999999997 C 13.260589999999997,148.62402999999998 12.146049999999995,150.41345999999996 12.568319999999996,151.74393999999995 C 13.075489999999997,153.34186999999994 12.687069999999997,153.55957999999995 9.819319499999995,153.28474999999995 C 6.841149499999995,152.99934999999994 6.445059499999996,152.60325999999995 6.159659499999995,149.62508999999994 C 5.884839499999995,146.75733999999994 6.102559499999995,146.36891999999995 7.700469499999995,146.87608999999995 C 9.030949499999995,147.29835999999995 10.820379999999995,146.18381999999994 13.978719999999996,142.96570999999994 L 18.396119999999996,138.46470999999994 L 11.761229999999996,138.46470999999994 C 6.503409499999996,138.46470999999994 5.059239499999996,138.79419999999993 4.803019499999996,140.05223999999993 C 4.540009499999996,141.34366999999992 4.058989499999996,141.19064999999992 2.224089499999996,139.2318199999999 L -0.0315104500000043,136.8238699999999 L 2.474089499999996,134.4699799999999 C 4.546649499999996,132.5229099999999 4.979699499999995,132.40545999999992 4.979699499999995,133.79039999999992 C 4.979699499999995,135.18974999999992 6.081319499999996,135.4647099999999 11.687909999999995,135.4647099999999 L 18.396119999999996,135.4647099999999 L 13.978719999999996,130.9637099999999 C 10.820379999999997,127.74559999999991 9.030949499999995,126.6310599999999 7.700469499999995,127.0533299999999 C 6.102539499999995,127.5604999999999 5.884839499999995,127.17207999999991 6.159659499999995,124.30432999999991 C 6.445059499999995,121.3261599999999 6.841149499999995,120.9300699999999 9.819319499999995,120.6446699999999 C 12.687069999999995,120.36983999999991 13.075489999999995,120.5875699999999 12.568319999999996,122.1854799999999 C 12.146049999999997,123.5159599999999 13.260589999999997,125.3053899999999 16.478699999999996,128.46372999999988 L 20.979699999999998,132.88112999999987 L 20.979699999999998,126.24623999999987 C 20.979699999999998,120.98841999999988 20.650209999999998,119.54424999999988 19.392169999999997,119.28802999999988 C 18.100739999999995,119.02501999999988 18.253759999999996,118.54399999999988 20.212589999999995,116.70909999999988 L 22.620539999999995,114.45349999999988 L 24.974429999999995,116.95909999999988 C 26.921489999999995,119.03165999999987 27.038949999999993,119.46470999999988 25.654009999999996,119.46470999999988 C 24.254659999999994,119.46470999999988 23.979699999999998,120.56632999999988 23.979699999999998,126.17291999999988 L 23.979699999999998,132.88112999999987 L 28.480689999999996,128.46372999999988 C 31.698809999999995,125.30538999999989 32.81334999999999,123.51595999999988 32.391079999999995,122.18547999999988 C 31.883909999999997,120.58754999999988 32.27233,120.36983999999988 35.14008,120.64466999999989 C 38.118249999999996,120.93006999999989 38.51434,121.32615999999989 38.79974,124.3043299999999 C 39.07456,127.1720799999999 38.85684,127.56049999999989 37.25893,127.05332999999989 C 35.92845,126.63105999999989 34.13902,127.74559999999988 30.98068,130.96370999999988 L 26.56328,135.46470999999988 L 33.27149,135.46470999999988 C 38.87807,135.46470999999988 39.9797,135.1897499999999 39.9797,133.7903999999999 C 39.9797,132.4054599999999 40.41275,132.52290999999988 42.48531,134.46997999999988 L 44.99091,136.82386999999989 L 42.73531,139.23181999999989 C 40.90041,141.1906499999999 40.41939,141.3436699999999 40.15638,140.0522399999999 C 39.90016,138.7941999999999 38.45599,138.4647099999999 33.19817,138.4647099999999 L 26.56328,138.4647099999999 L 30.98068,142.96570999999992 C 34.13902,146.1838199999999 35.92845,147.29835999999992 37.25893,146.87608999999992 C 38.85686,146.36891999999992 39.07456,146.7573399999999 38.79974,149.62508999999991 C 38.51434,152.60325999999992 38.11825,152.9993499999999 35.14008,153.28474999999992 C 32.27233,153.55957999999993 31.883909999999997,153.3418499999999 32.391079999999995,151.74393999999992 C 32.81334999999999,150.41345999999993 31.698809999999995,148.62402999999992 28.480689999999996,145.46568999999994 L 23.979699999999994,141.04828999999995 L 23.979699999999994,147.68317999999996 C 23.979699999999994,152.94099999999997 24.309189999999994,154.38516999999996 25.567229999999995,154.64138999999997 C 26.858659999999993,154.90439999999998 26.705639999999995,155.38541999999998 24.746809999999996,157.22032 L 22.338859999999997,159.47591999999997 L 19.984969999999997,156.97032" fill="none" stroke="#000000" stroke-width="0.15930224961427855"/>
  <path d="M 133.2297,155.34966 C 130.64177,153.69231 129.9797,152.59711 129.9797,149.9735 C 129.9797,147.96727 129.39306000000002,146.45357 128.4797,146.10308 C 127.6119,145.77008 126.97970000000001,144.27473 126.97970000000001,142.55511 C 126.97970000000001,140.92031 126.47807,139.27272000000002 125.86496000000001,138.89379000000002 C 125.18623000000001,138.47432000000003 124.92887000000002,136.34547000000003 125.20699,133.45108000000002 C 125.55058000000001,129.87528000000003 125.21299,128.11097 123.84397,126.33102000000002 C 121.64111,123.46660000000003 121.43652,117.56512000000002 123.4479,114.90584000000003 C 124.81631,113.09664000000002 124.91825,113.24439000000002 124.9479,117.07985000000002 C 124.99520000000001,123.20559000000003 128.03549,126.68982000000003 132.09768,125.27374000000002 C 133.78522999999998,124.68545000000002 137.57568,124.45283000000002 140.52089,124.75681000000002 L 145.87583,125.30948000000002 L 147.02284,121.83399000000003 C 147.65370000000001,119.92247000000003 147.89517,117.14489000000003 147.55944,115.66160000000002 C 146.97844,113.09469000000001 147.02205999999998,113.05826000000002 148.46436,114.90584000000003 C 150.22795,117.16498000000003 150.50605,125.53836000000003 148.87176,127.17265000000003 C 148.06118,127.98323000000003 148.08721,129.26043000000004 148.96876,131.93146000000004 C 149.92663000000002,134.83380000000005 149.90734,136.22528000000005 148.87466,138.71827000000005 C 148.16024000000002,140.44304000000005 147.66052000000002,142.87900000000005 147.76419,144.13151000000005 C 147.87882000000002,145.51658000000006 147.17437,146.82534000000004 145.96618,147.47194000000005 C 144.67592000000002,148.16247000000004 143.97969,149.56520000000003 143.97969,151.47421000000006 C 143.97969,153.71751000000006 143.2812,154.77455000000006 141.02935,155.93903000000006 C 137.30087,157.86710000000005 137.14186999999998,157.85509000000005 133.22969,155.34966000000006 L 133.2297,155.34966000000006" fill="none" stroke="#000000" stroke-width="0.15930224961427855"/>
  <path d="M 141.13913,151.37939 C 142.15144,150.83761 142.9797,149.87018 142.9797,149.22953 C 142.9797,148.36265 142.67276,148.37165000000002 141.77970000000002,149.26473000000001 C 140.10593000000003,150.9385 135.84833000000003,150.76144000000002 133.20221,148.90803000000002 C 131.97983000000002,148.05182000000002 130.9797,147.80130000000003 130.9797,148.35130000000004 C 130.9797,151.17690000000005 137.74803,153.19425000000004 141.13913000000002,151.37939000000003 L 141.13913000000002,151.37939000000003" fill="none" stroke="#000000" stroke-width="0.15930224961427855"/>
  <path d="M 138.79431,144.20812 C 140.25961,144.75676 140.30167,144.62027 139.11639,143.16295 C 137.54314,141.22859 135.94361,141.80965 136.05865,144.27373 C 136.10285,145.22093 136.35121,145.4396 136.62326,144.77089 C 136.89037,144.11428 137.86733999999998,143.86104 138.79431,144.20812" fill="none" stroke="#000000" stroke-width="0.15930224961427855"/>
  <path d="M 144.76731,140.32905 C 145.1329,138.43071 142.85979,137.30275 140.9933,138.45631 C 139.17825,139.57806 140.57993000000002,142.68835 142.71519,142.27713 C 143.67304000000001,142.09267 144.59649000000002,141.21603 144.76731,140.32905" fill="none" stroke="#000000" stroke-width="0.15930224961427855"/>
  <path d="M 135.4797,139.46471 C 135.4797,138.50334999999998 134.31265000000002,137.85219 132.2297,137.65135 C 128.75750000000002,137.31657 128.64089,137.41821000000002 129.60745,139.93702000000002 C 130.40808,142.02343000000002 135.4797,141.61551000000003 135.4797,139.46471000000003 L 135.4797,139.46471000000003" fill="none" stroke="#000000" stroke-width="0.15930224961427855"/>
  <path d="M 69.97225,146.95722 L 61.50896,138.44974000000002 L 70.24433,129.71437000000003 L 78.97970000000001,120.97900000000003 L 87.71507000000001,129.71437000000003 L 96.45044000000001,138.44974000000002 L 87.98715000000001,146.95722 C 83.33234000000002,151.63634000000002 79.27899000000002,155.46471 78.97970000000001,155.46471 C 78.68041000000001,155.46471 74.62706000000001,151.63634 69.97225,146.95722 L 69.97225,146.95722" fill="none" stroke="#000000" stroke-width="0.15930224961427855"/>
  <path d="M 86.98815,145.9562 L 94.44655,138.44769 L 86.71313,130.71426 L 78.97970000000001,122.98084 L 71.24627000000001,130.71426 L 63.51285000000001,138.44769 L 70.97125000000001,145.9562 C 75.07337000000001,150.08588 78.67717000000002,153.46471 78.97970000000001,153.46471 C 79.28223000000001,153.46471 82.88603,150.08588 86.98815,145.9562" fill="none" stroke="#000000" stroke-width="0.15930224961427855"/>
  <path d="M 39.97225,117.95722 L 31.508960000000002,109.44974 L 40.244330000000005,100.71437 L 48.97970000000001,91.97901 L 57.71507000000001,100.71437 L 66.45044000000001,109.44974 L 57.987150000000014,117.95722 C 53.332340000000016,122.63634 49.278990000000015,126.46471000000001 48.979700000000015,126.46471000000001 C 48.680410000000016,126.46471000000001 44.627060000000014,122.63634 39.97225000000002,117.95722 L 39.97225000000002,117.95722" fill="none" stroke="#000000" stroke-width="0.15930224961427855"/>
  <path d="M 56.98815,116.9562 L 64.44655,109.44769 L 56.71313,101.71426 L 48.9797,93.980853 L 41.24627,101.71426 L 33.51285,109.44769 L 40.97125,116.9562 C 45.07337,121.08587999999999 48.67717,124.46471 48.979699999999994,124.46471 C 49.28222999999999,124.46471 52.88602999999999,121.08588 56.98814999999999,116.9562 L 56.98814999999999,116.9562" fill="none" stroke="#000000" stroke-width="0.15930224961427855"/>
  <path d="M 99.97225,117.95722 L 91.50896,109.44974 L 100.24433,100.71437 L 108.97970000000001,91.97901 L 117.71507000000001,100.71437 L 126.45044000000001,109.44974 L 117.98715000000001,117.95722 C 113.33234000000002,122.63634 109.27899000000002,126.46471000000001 108.97970000000001,126.46471000000001 C 108.68041000000001,126.46471000000001 104.62706000000001,122.63634 99.97225,117.95722 L 99.97225,117.95722" fill="none" stroke="#000000" stroke-width="0.15930224961427855"/>
  <path d="M 116.98815,116.9562 L 124.44655,109.44769 L 116.71313,101.71426 L 108.97970000000001,93.980853 L 101.24627000000001,101.71426 L 93.51285000000001,109.44769 L 100.97125000000001,116.9562 C 105.07337000000001,121.08587999999999 108.67717000000002,124.46471 108.97970000000001,124.46471 C 109.28223000000001,124.46471 112.88603,121.08588 116.98815,116.9562 L 116.98815,116.9562" fill="none" stroke="#000000" stroke-width="0.15930224961427855"/>
  <path d="M 10.97225,87.957237 L 2.5089595,79.44975 L 11.24433,70.71438 L 19.9797,61.97901 L 28.71507,70.71438 L 37.45044,79.44975000000001 L 28.98715,87.957237 C 24.33234,92.63635500000001 20.27899,96.464724 19.9797,96.464724 C 19.680410000000002,96.464724 15.62706,92.63635500000001 10.97225,87.957237 L 10.97225,87.957237" fill="none" stroke="#000000" stroke-width="0.15930224961427855"/>
  <path d="M 27.98815,86.956214 L 35.44655,79.447704 L 27.713130000000003,71.714279 L 19.9797,63.980853 L 12.24627,71.714279 L 4.512849500000001,79.447704 L 11.971250000000001,86.956214 C 16.07337,91.08589500000001 19.67717,94.464724 19.9797,94.464724 C 20.282230000000002,94.464724 23.88603,91.08589500000001 27.98815,86.956214 L 27.98815,86.956214" fill="none" stroke="#000000" stroke-width="0.15930224961427855"/>
  <path d="M 69.97225,87.957237 L 61.50896,79.44975000000001 L 70.24433,70.71438 L 78.97970000000001,61.97901 L 87.71507000000001,70.71438 L 96.45044000000001,79.44975000000001 L 87.98715000000001,87.957237 C 83.33234000000002,92.63635500000001 79.27899000000002,96.464724 78.97970000000001,96.464724 C 78.68041000000001,96.464724 74.62706000000001,92.63635500000001 69.97225,87.957237 L 69.97225,87.957237" fill="none" stroke="#000000" stroke-width="0.15930224961427855"/>
  <path d="M 86.98815,86.956214 L 94.44655,79.447704 L 86.71313,71.714279 L 78.97970000000001,63.980853 L 71.24627000000001,71.714279 L 63.51285000000001,79.447704 L 70.97125000000001,86.956214 C 75.07337000000001,91.08589500000001 78.67717000000002,94.464724 78.97970000000001,94.464724 C 79.28223000000001,94.464724 82.88603,91.08589500000001 86.98815,86.956214" fill="none" stroke="#000000" stroke-width="0.15930224961427855"/>
  <path d="M 128.97225,87.957237 L 120.50896,79.44975000000001 L 129.24433,70.71438 L 137.97969999999998,61.97901 L 146.71506999999997,70.71438 L 155.45043999999996,79.44975000000001 L 146.98714999999996,87.957237 C 142.33233999999996,92.63635500000001 138.27898999999996,96.464724 137.97969999999995,96.464724 C 137.68040999999994,96.464724 133.62705999999994,92.63635500000001 128.97224999999995,87.957237 L 128.97224999999995,87.957237" fill="none" stroke="#000000" stroke-width="0.15930224961427855"/>
  <path d="M 145.98815,86.956214 L 153.44655,79.447704 L 145.71313,71.714279 L 137.9797,63.980853 L 130.24627,71.714279 L 122.51285000000001,79.447704 L 129.97125000000003,86.956214 C 134.07337000000004,91.08589500000001 137.67717000000002,94.464724 137.97970000000004,94.464724 C 138.28223000000003,94.464724 141.88603000000003,91.08589500000001 145.98815000000005,86.956214 L 145.98815000000005,86.956214" fill="none" stroke="#000000" stroke-width="0.15930224961427855"/>
  <path d="M 39.97225,57.957237 L 31.508960000000002,49.44975 L 40.244330000000005,40.714380000000006 L 48.97970000000001,31.979010000000006 L 57.71507000000001,40.714380000000006 L 66.45044000000001,49.44975000000001 L 57.987150000000014,57.957237000000006 C 53.332340000000016,62.63635500000001 49.278990000000015,66.464724 48.979700000000015,66.464724 C 48.680410000000016,66.464724 44.627060000000014,62.636355 39.97225000000002,57.957237000000006 L 39.97225000000002,57.957237000000006" fill="none" stroke="#000000" stroke-width="0.15930224961427855"/>
  <path d="M 56.98815,56.956214 L 64.44655,49.447704 L 56.71313,41.714279000000005 L 48.9797,33.980853 L 41.24627,41.714279000000005 L 33.51285,49.447704 L 40.97125,56.956214 C 45.07337,61.085895 48.67717,64.464724 48.979699999999994,64.464724 C 49.28222999999999,64.464724 52.88602999999999,61.085895 56.98814999999999,56.956214 L 56.98814999999999,56.956214" fill="none" stroke="#000000" stroke-width="0.15930224961427855"/>
  <path d="M 99.97225,57.957237 L 91.50896,49.44975 L 100.24433,40.714380000000006 L 108.97970000000001,31.979010000000006 L 117.71507000000001,40.714380000000006 L 126.45044000000001,49.44975000000001 L 117.98715000000001,57.957237000000006 C 107.82648000000002,68.17096000000001 110.13292000000001,68.17096000000001 99.97225000000002,57.957237000000006 L 99.97225000000002,57.957237000000006" fill="none" stroke="#000000" stroke-width="0.15930224961427855"/>
  <path d="M 116.98815,56.956214 L 124.44655,49.447704 L 116.71313,41.714279000000005 L 108.97970000000001,33.980853 L 101.24627000000001,41.714279000000005 L 93.51285000000001,49.447704 L 100.97125000000001,56.956214 C 105.07337000000001,61.085895 108.67717000000002,64.464724 108.97970000000001,64.464724 C 109.28223000000001,64.464724 112.88603,61.085895 116.98815,56.956214 L 116.98815,56.956214" fill="none" stroke="#000000" stroke-width="0.15930224961427855"/>
  <path d="M 69.97225,28.957237 L 61.50896,20.44975 L 70.24433,11.714380000000002 L 78.97970000000001,2.9790084000000014 L 87.71507000000001,11.714380000000002 L 96.45044000000001,20.44975 L 87.98715000000001,28.957237 C 77.82648000000002,39.17096 80.13292000000001,39.17096 69.97225000000002,28.957237 L 69.97225000000002,28.957237" fill="none" stroke="#000000" stroke-width="0.15930224961427855"/>
  <path d="M 86.98815,27.956214 L 94.44655,20.447703999999998 L 86.71313,12.714278999999998 L 78.97970000000001,4.980851699999998 L 71.24627000000001,12.714278999999998 L 63.51285000000001,20.447703999999998 L 70.97125000000001,27.956214 C 75.07337000000001,32.085895 78.67717000000002,35.464724 78.97970000000001,35.464724 C 79.28223000000001,35.464724 82.88603,32.085894999999994 86.98815,27.956213999999996" fill="none" stroke="#000000" stroke-width="0.15930224961427855"/>
</svg>
