<?xml version="1.0" encoding="utf-8" ?>
<svg baseProfile="full" height="223px" version="1.1" viewBox="-164.40999999999997,-64.82000000000001,960.9669100000001,356.6556500000003" width="600px" xmlns="http://www.w3.org/2000/svg" xmlns:ev="http://www.w3.org/2001/xml-events" xmlns:xlink="http://www.w3.org/1999/xlink">
  <defs/>
  <path d="M 764.52122,80.568911 C 748.6366899999999,78.960161 735.52387,77.715848 735.38161,77.803771 C 735.23934,77.891691 735.1229500000001,76.103236 735.1229500000001,73.829419 L 735.1229500000001,69.695209 L 733.8776600000001,69.505919 C 733.1927600000001,69.40181000000001 723.8904900000001,69.21584100000001 713.2059700000001,69.092651 C 681.3651000000001,68.725542 659.5030500000001,69.484271 583.4552500000001,73.59568800000001 C 542.13111,75.82981900000001 533.8750600000001,76.14232500000001 530.4156700000001,75.60332000000001 C 526.4074300000001,74.97880500000001 527.4509700000001,74.763192 535.8776600000001,74.47477500000001 C 544.2099600000001,74.18958800000001 560.8780200000001,73.35898800000001 593.1606800000001,71.620254 C 656.023,68.234515 672.8599200000001,67.623613 703.2437000000001,67.626067 C 724.0992400000001,67.627767 734.7067300000001,67.90396700000001 748.2399300000001,68.797762 C 755.8794600000001,69.302311 767.5866500000001,70.38501600000001 771.6512500000001,70.96289 C 775.5163800000001,71.512406 775.6361600000001,71.482104 775.6361600000001,69.954623 C 775.6361600000001,69.224057 775.5240800000001,68.623362 775.3871000000001,68.61974599999999 C 775.2501200000002,68.61614599999999 773.2981800000001,68.39525599999999 771.0494600000002,68.12891499999999 C 754.2370500000002,66.137621 727.2132100000002,64.98383799999999 697.2663400000001,64.978748 C 665.4921100000001,64.973348 640.1568300000001,65.90211699999999 597.8097400000001,68.62474399999999 C 571.5144000000001,70.31535299999999 552.5956200000002,71.323275 535.7116200000002,71.933099 C 530.5976600000001,72.117806 524.6950200000001,72.339028 522.5946400000001,72.424697 C 520.4942700000001,72.51036699999999 518.4769100000001,72.448437 518.1116200000001,72.28710799999999 L 517.4474700000002,71.99375599999999 L 518.1116200000001,71.96884599999998 C 518.4769100000001,71.95516599999999 522.8104900000002,71.79426399999998 527.7418100000001,71.61131999999998 C 550.5149500000001,70.76647699999998 570.6240500000001,69.72030299999997 597.8097400000001,67.96604499999998 C 621.4409200000001,66.44115399999998 633.8800800000001,65.78956899999999 655.2588000000002,64.95675999999997 C 669.8364400000002,64.38888499999997 709.7709600000002,64.18450199999998 723.9984200000001,64.60494899999998 C 745.3160400000002,65.23492699999997 765.1019200000001,66.50633699999997 774.2248300000001,67.83242799999998 L 775.6361600000001,68.03757399999998 L 775.6361600000001,48.1123 L 775.6361600000001,28.187024 L 774.5569100000001,27.994483000000002 C 772.6752000000001,27.658786000000003 763.7581500000001,26.814513 756.7078500000001,26.304530000000003 C 739.1120500000001,25.031736000000002 720.9080600000001,24.465119000000005 697.5984200000001,24.464689000000003 C 666.3107100000002,24.464113000000005 640.1839000000001,25.424373000000003 598.4738900000002,28.107895000000003 C 565.9880600000002,30.197955000000004 548.0792100000002,31.118468000000004 519.6059600000002,32.161698 C 504.4339700000002,32.717584 455.6914800000002,32.723437000000004 445.55313000000024,32.170598 C 427.96395000000024,31.211454999999997 412.67766000000023,29.617790999999997 412.67766000000023,28.743183 C 412.67766000000023,28.370654 412.1778000000002,28.333841 417.54916000000026,29.10195 C 443.4222400000003,32.80182 493.73229000000026,33.100006 556.4663400000003,29.925306 C 568.6912500000003,29.306656 578.9693100000003,28.700172 598.4738900000003,27.44654 C 638.2678600000004,24.888832999999998 656.1967400000003,24.179623 687.9682300000003,23.906425 C 716.3309000000003,23.662539 736.0823600000003,24.159145 756.5418200000003,25.630550999999997 C 763.7072100000003,26.145873999999996 772.6442200000002,26.989114999999998 774.5569100000002,27.330342999999996 C 775.6252300000002,27.520935999999995 775.6361600000002,27.509577999999994 775.6361600000002,26.207947999999995 L 775.6361600000002,24.893011999999995 L 772.8965300000002,24.517540999999994 C 746.6216900000002,20.916519999999995 705.5449800000002,19.952571999999996 657.7493600000003,21.815378999999993 C 644.2943000000002,22.339782999999994 623.7319900000002,23.354764999999993 590.6701200000002,25.126497999999994 C 534.7113200000002,28.125238999999993 519.3205400000002,28.723765999999994 491.0474700000002,29.000685999999995 C 460.3761000000002,29.301096999999995 436.8963000000002,28.330338999999995 417.1065000000002,25.943640999999996 C 414.8850000000002,25.675722999999994 412.9797200000002,25.456516999999995 412.8725400000002,25.456516999999995 C 412.7653500000002,25.456516999999995 412.6776600000002,25.112911999999994 412.6776600000002,24.692949999999996 L 412.6776600000002,23.929381999999997 L 417.40974000000017,24.506112999999996 C 438.1354400000002,27.032093999999994 468.59518000000014,28.135552999999994 499.7835000000002,27.490251999999995 C 526.8134400000001,26.930988999999993 538.8218900000002,26.428973999999993 588.1795500000002,23.794840999999995 C 657.3202800000001,20.104919999999993 674.0446000000002,19.482541999999995 704.0738900000001,19.481949999999994 C 732.4220600000001,19.481391999999992 750.4085800000001,20.383070999999994 771.4021900000001,22.857175999999995 L 777.6286100000001,23.590960999999997 L 777.6286100000001,27.948525999999998 L 777.6286100000001,32.30609 L 781.8625700000001,32.701792 C 784.1912500000001,32.919427999999996 788.4501200000001,33.343973999999996 791.3267200000001,33.645227999999996 L 796.5569100000001,34.192961999999994 L 796.5569100000001,58.881344999999996 L 796.5569100000001,83.56972499999999 L 794.9795500000001,83.531825 C 794.1120000000001,83.510975 780.4057600000001,82.177671 764.5212200000001,80.568918 L 764.52122,80.568911" fill="none" stroke="#000000" stroke-width="0.9609669100000001"/>
  <path d="M 794.5644599999999,58.664057 C 794.5644599999999,45.879151 794.45238,35.418648000000005 794.3154,35.418493999999995 C 794.17842,35.418341 790.4052099999999,35.044881 785.9304999999999,34.588584999999995 C 781.4557799999999,34.132287999999996 777.7572899999999,33.75882899999999 777.7116299999999,33.758675 C 777.6659299999999,33.758522 777.6286299999999,34.281414999999996 777.6286299999999,34.92066 C 777.6286299999999,35.559906 777.7196299999999,36.082924 777.8307599999999,36.082924 C 778.46191,36.082924 792.25987,37.448508 793.19643,37.603663999999995 C 793.8137899999999,37.705943 794.18737,37.91326899999999 794.02662,38.064389999999996 C 793.86582,38.215511 790.22259,37.985859999999995 785.93052,37.554047 C 781.63844,37.122237999999996 778.01467,36.764019999999995 777.87769,36.758007 C 777.7407000000001,36.752007 777.62863,44.965942999999996 777.62863,55.011227 L 777.62863,73.27537799999999 L 776.3833500000001,73.26967799999998 C 774.7799500000001,73.26237799999998 758.7048400000001,75.06030199999998 759.3644800000001,75.17317499999999 C 760.0364300000001,75.28815299999998 793.66303,78.92064599999999 794.0554400000001,78.92064599999999 C 794.2262600000001,78.92064599999999 794.2118100000001,79.074079 794.0232400000001,79.262644 C 793.7886300000001,79.497256 787.7155300000001,78.957836 774.6818300000001,77.544715 L 755.6824000000001,75.484788 L 749.8933600000001,76.103461 C 746.7093900000001,76.443732 744.1731900000001,76.790987 744.2573400000001,76.87513799999999 C 744.4343400000001,77.052144 791.0361900000001,81.81368499999999 793.1531700000002,81.87107099999999 L 794.5644900000002,81.90932099999999 L 794.5644599999999,58.664057" fill="none" stroke="#000000" stroke-width="0.9609669100000001"/>
  <path d="M 755.14554,74.049505 C 763.44586,73.11833899999999 769.03981,72.358693 768.5945899999999,72.223143 C 767.13645,71.779169 755.47655,70.784808 740.0210599999999,69.78639 L 737.1153999999999,69.598685 L 737.1153999999999,72.81179 L 737.1153999999999,76.0249 L 739.02483,75.83434100000001 C 740.07502,75.72953500000001 747.32934,74.92635700000001 755.14554,74.04950500000001 L 755.14554,74.049505" fill="none" stroke="#000000" stroke-width="0.9609669100000001"/>
  <path d="M 769.49046,79.381552 C 755.91388,78.018053 744.87181,76.88612499999999 744.9525199999999,76.86615499999999 C 745.0332199999999,76.84618499999999 747.4767599999999,76.563373 750.38257,76.237681 L 755.66586,75.645513 L 770.01879,77.204911 C 777.91291,78.062579 784.84722,78.81653899999999 785.42838,78.880377 C 790.54419,79.442324 794.1060799999999,79.81988199999999 794.1238599999999,79.802095 C 794.1356599999999,79.79031499999999 794.1823599999999,79.611059 794.2276999999999,79.40373799999999 C 794.3069999999999,79.04117099999999 794.3102999999999,79.08109799999998 794.3159999999999,80.45034299999999 C 794.3209999999999,81.55643199999999 794.3054999999999,81.872418 794.2484999999999,81.867269 C 794.2081,81.86366899999999 783.0670099999999,80.74505199999999 769.49042,79.381552 L 769.49046,79.381552" fill="none" stroke="#000000" stroke-width="0.9609669100000001"/>
  <path d="M 522.74404,73.875444 C 519.6348800000001,73.00567600000001 520.13774,72.628523 524.4156,72.621762 C 531.4912800000001,72.61058200000001 566.19361,70.943522 587.1153,69.609746 C 592.86851,69.242974 602.13342,68.653085 607.70398,68.29888 C 640.85158,66.191189 667.1,65.313349 696.86625,65.31697799999999 C 726.98713,65.32067799999999 749.58387,66.211879 768.4285100000001,68.13943199999999 C 775.6037400000001,68.87335999999999 775.4021,68.82028199999999 775.4021,69.97512099999999 C 775.4021,70.66041399999999 775.23898,70.95629999999998 774.86117,70.95629999999998 C 774.56366,70.95629999999998 771.0146,70.58737899999998 766.97438,70.13647599999999 C 746.96742,67.90363099999999 736.3225,67.46763899999999 702.17946,67.48262499999998 C 666.37824,67.49833499999998 660.0767699999999,67.72220099999998 590.43606,71.45235299999999 C 552.40763,73.489263 528.15806,74.66409799999998 525.84738,74.58152399999999 C 525.4821000000001,74.56847399999998 524.08559,74.250734 522.74404,73.87544399999999 L 522.74404,73.875444" fill="none" stroke="#000000" stroke-width="0.9609669100000001"/>
  <path d="M 437.60225,30.618848 C 426.34107,29.900308 412.55592,28.164785 411.75599,27.364854 C 410.36444,25.973299 412.4667,25.887387 422.48539,26.926384000000002 C 443.04499,29.058533000000004 459.06386,29.550757 495.05131,29.156170000000003 C 514.22867,28.945898000000003 535.8966,28.458758000000003 543.20226,28.073636000000004 C 550.50792,27.688513000000004 567.69282,26.780515000000005 581.39094,26.055862000000005 C 663.71428,21.700819000000003 681.30582,21.114278000000006 714.88528,21.604865000000004 C 740.94767,21.985629000000003 750.44953,22.482875000000003 766.87587,24.325605000000003 C 774.31653,25.160308000000004 776.00657,25.585167000000002 775.17885,26.412888000000002 C 774.9778,26.613938 769.77252,26.325468 763.61155,25.771851 C 723.3848899999999,22.157108 666.2711999999999,22.676484000000002 592.2796699999999,27.329895 C 540.1729999999999,30.606943 518.2424099999998,31.366024 478.7796099999999,31.258457 C 460.88074999999986,31.209667 442.3509299999999,30.921845 437.60224999999986,30.618848 L 437.60225,30.618848" fill="none" stroke="#000000" stroke-width="0.9609669100000001"/>
  <path d="M 785.69216,36.671724 L 777.79658,35.893648999999996 L 777.79658,34.926916 L 777.79658,33.960183 L 778.2955499999999,34.020423 C 779.0714899999999,34.114103 794.03405,35.599378 794.20184,35.599378 C 794.3098699999999,35.599378 794.35088,35.85784 794.35088,36.538629 L 794.35088,37.477881000000004 L 793.96931,37.463841 C 793.7594499999999,37.456141 790.03473,37.099664000000004 785.69216,36.671724000000005 L 785.69216,36.671724" fill="none" stroke="#000000" stroke-width="0.9609669100000001"/>
  </svg>
