<?xml version="1.0" encoding="utf-8" ?>
<svg baseProfile="full" height="223px" version="1.1" viewBox="-164.40999999999997,-64.82000000000001,960.9669100000001,356.6556500000003" width="600px" xmlns="http://www.w3.org/2000/svg" xmlns:ev="http://www.w3.org/2001/xml-events" xmlns:xlink="http://www.w3.org/1999/xlink">
    <defs/>
    <path d="M 60.85384,114.55606 L 93.390069,114.55606 C 93.459769,114.67775 93.58979699999999,114.76437 93.745573,114.76437 C 93.972411,114.76437 94.15642799999999,114.58541 94.15642799999999,114.36653 C 94.15642799999999,114.14614999999999 93.972411,113.9677 93.745573,113.9677 C 93.58979699999999,113.9677 93.45910099999999,114.05409999999999 93.389569,114.17698999999999 L 60.85384,114.17698999999999 C 58.520329,114.17698999999999 56.842352999999996,112.88036 55.783801999999994,111.68381999999998 C 55.65046699999999,111.18437999999998 55.340554999999995,109.70931999999998 55.83660199999999,108.17814999999999 L 55.84850199999999,108.14284999999998 L 55.83780199999999,108.10734999999998 L 54.87545399999999,104.64919999999998 L 54.87545399999999,58.186172 L 55.84772199999999,54.691615999999996 L 55.83582199999999,54.656895999999996 C 55.34131299999999,53.129780999999994 55.64711499999999,51.65723199999999 55.78182199999999,51.154258999999996 C 56.840892999999994,49.957218999999995 58.52044899999999,48.65858299999999 60.85288999999999,48.65858299999999 L 93.38935899999998,48.65858299999999 C 93.45905899999998,48.78092399999999 93.58908599999998,48.867366999999994 93.74483299999999,48.867366999999994 C 93.97171099999998,48.867366999999994 94.15570799999999,48.688323999999994 94.15570799999999,48.46903 C 94.15570799999999,48.249139 93.97171099999998,48.070178 93.74483299999999,48.070178 C 93.58908599999998,48.070178 93.45835099999998,48.156658 93.38886899999999,48.279474 L 60.85312,48.279474 C 57.858892999999995,48.279474 55.886086999999996,50.278745 54.875107,51.668386 L 54.875107,50.712875 C 55.830674,49.709942 58.075312,47.707643999999995 61.278667,46.943825 L 142.56856,46.944781 C 145.77137,47.709109999999995 148.0134,49.709385 148.96791,50.712317 L 148.96791,51.668225 C 147.95538,50.278551 145.98412,48.27928 142.98832,48.27928 L 110.45407999999999,48.27928 C 110.38297999999999,48.156419 110.25229999999999,48.069984 110.09702999999999,48.069984 C 109.87122,48.069984 109.68565999999998,48.249026 109.68565999999998,48.468835999999996 C 109.68565999999998,48.688266999999996 109.87121999999998,48.867171 110.09702999999999,48.867171 C 110.25229999999999,48.867171 110.38192999999998,48.780741 110.45302,48.658412999999996 L 142.98847,48.658412999999996 C 145.32145,48.658412999999996 147.00205,49.957057 148.06007,51.154095999999996 C 148.19446,51.65707199999999 148.50021,53.129599999999996 148.00727,54.656735 L 147.99537,54.691455 L 148.00577,54.726965 L 148.9684,58.186168 L 148.9684,104.64865 L 147.99507,108.14267000000001 L 148.00697,108.17797000000002 C 148.50097,109.70561000000002 148.19306,111.17866000000002 148.05977,111.68112000000002 C 147.00175,112.87814000000002 145.32115,114.17680000000001 142.98817,114.17680000000001 L 110.45403999999999,114.17680000000001 C 110.38293999999999,114.05388000000002 110.25225999999999,113.96751000000002 110.09698999999999,113.96751000000002 C 109.87118,113.96751000000002 109.68561999999999,114.14589000000002 109.68561999999999,114.36633000000002 C 109.68561999999999,114.58523000000002 109.87117999999998,114.76418000000002 110.09698999999999,114.76418000000002 C 110.25225999999999,114.76418000000002 110.38189999999999,114.67778000000003 110.45298,114.55584000000002 L 142.98829,114.55584000000002 C 145.9841,114.55584000000002 147.95535,112.55609000000001 148.96788,111.16698000000002 L 148.96788,112.12239000000002 C 148.01233000000002,113.12579000000002 145.76717000000002,115.12811000000002 142.56226,115.89092000000002 L 61.27601700000001,115.89001000000002 C 58.07267200000001,115.12669000000002 55.82959400000001,113.12639000000001 54.875107000000014,112.12298000000001 L 54.875107000000014,111.16704000000001 C 55.886077000000014,112.55614000000001 57.85888300000001,114.55592000000001 60.85310000000001,114.55592000000001" fill="none" stroke="#000000" stroke-width="0.9609669100000001"/>
</svg>
