<?xml version="1.0" encoding="utf-8" ?>
<svg baseProfile="full" height="223px" version="1.1" viewBox="-164.40999999999997,-64.82000000000001,960.9669100000001,356.6556500000003" width="600px" xmlns="http://www.w3.org/2000/svg" xmlns:ev="http://www.w3.org/2001/xml-events" xmlns:xlink="http://www.w3.org/1999/xlink">
    <defs/>
    <path d="M 0.0,0.0 C -0.64,3.468 -3.087,9.124 -7.827,12.106 C -11.744,14.565 -15.166,14.033 -15.182,15.254999999999999 C -15.211,16.808999999999997 -10.82,16.328 -10.82,16.328 C -15.555,19.04 -22.347,15.721 -23.317999999999998,17.274 C -23.891,18.205000000000002 -20.156999999999996,19.512 -20.156999999999996,19.512 C -25.932999999999996,19.724 -32.748999999999995,16.747 -35.483,14.046 C -28.592999999999996,16.358999999999998 -18.889999999999997,15.029 -14.432999999999996,11.221 C -16.319999999999997,12.281 -18.365999999999996,12.989 -20.465999999999998,13.409 C -28.284999999999997,14.981000000000002 -36.989,12.654 -42.229,10.474 C -48.143,8.471 -52.654,5.513 -52.654,5.513 C -56.558,3.244 -63.768,1.129 -68.657,3.198 L -68.658,3.188 C -68.658,3.188 -61.004000000000005,-9.561 -51.599000000000004,-5.1259999999999994 C -50.908,-4.741999999999999 -50.24700000000001,-4.345999999999999 -49.626000000000005,-3.9579999999999993 C -44.492000000000004,-1.1729999999999992 -39.322,3.4730000000000008 -39.322,3.4730000000000008 C -37.524,4.73 -31.988000000000003,8.335 -25.323,10.349 C -23.838,10.792 -22.331,10.884 -20.899,10.678 C -17.182000000000002,10.173 -13.942,7.790000000000001 -12.879000000000001,4.941000000000001 C -10.009,5.441 -2.734,3.037 0.0,0.0" fill="none" stroke="#000000" stroke-width="0.9609669100000001"/>
</svg>
