<?xml version="1.0" encoding="utf-8" ?>
<svg baseProfile="full" height="400px" version="1.1" viewBox="-194.40999999999997,-4.82000000000001,260.9669100000001,6.6556500000003" width="600px" xmlns="http://www.w3.org/2000/svg" xmlns:ev="http://www.w3.org/2001/xml-events" xmlns:xlink="http://www.w3.org/1999/xlink">
  <defs/>
  <path d="M 3.638,-5.583 L 3.638,-9.458 C 3.23,-8.236 2.651,-6.933 1.839,-5.702 L 1.839,-5.631 L 1.793,-5.631 C 0.6379999999999999,-3.904 -0.9890000000000001,-2.337 -3.276,-1.375 L -0.5699999999999998,-1.375 L 3.638,-5.583" fill="none" stroke="#000000" stroke-width="0.9609669100000001"/>
  <path d="M -5.214,-47.945 L -63.811,-47.945 C -66.424,-47.313 -68.517,-45.874 -70.088,-43.667 L -70.088,-5.677 C -68.722,-3.7619999999999996 -66.71799999999999,-2.0979999999999994 -63.785999999999994,-1.375 L -5.187999999999995,-1.375 C -2.5749999999999953,-2.007 -0.4819999999999949,-3.446 1.0890000000000049,-5.653 L 1.0890000000000049,-43.643 C -0.27599999999999514,-45.558 -2.2809999999999953,-47.222 -5.213999999999995,-47.945" fill="none" stroke="#000000" stroke-width="0.9609669100000001"/>
  <path d="M -72.637,-11.729 C -72.334,-10.312999999999999 -71.794,-8.547999999999998 -70.838,-6.855999999999999 L -70.838,-42.479 C -71.005,-42.182 -71.18199999999999,-41.9 -71.333,-41.580999999999996 C -71.991,-40.196 -72.391,-38.80499999999999 -72.637,-37.641 L -72.637,-11.729" fill="none" stroke="#000000" stroke-width="0.9609669100000001"/>
  <path d="M 1.8389999999999986,-6.840999999999999 C 2.0059999999999985,-7.137999999999999 2.1839999999999984,-7.419999999999999 2.3339999999999987,-7.738999999999999 C 2.9909999999999988,-9.123999999999999 3.392999999999999,-10.514999999999999 3.637999999999999,-11.678999999999998 L 3.637999999999999,-37.59 C 3.334999999999999,-39.008 2.794999999999999,-40.772000000000006 1.838999999999999,-42.464000000000006 L 1.8389999999999986,-6.840999999999999" fill="none" stroke="#000000" stroke-width="0.9609669100000001"/>
  <path d="M -68.429,-1.3749999999999991 L -65.72200000000001,-1.3749999999999991 C -68.01,-2.336999999999999 -69.63700000000001,-3.903999999999999 -70.792,-5.630999999999999 L -70.83800000000001,-5.630999999999999 L -70.83800000000001,-5.701999999999999 C -71.65,-6.932999999999999 -72.22900000000001,-8.235999999999999 -72.63700000000001,-9.457999999999998 L -72.63700000000001,-5.582999999999998 L -68.429,-1.3749999999999991" fill="none" stroke="#000000" stroke-width="0.9609669100000001"/>
  <path d="M -72.637,-43.738 L -72.637,-39.862 C -72.229,-41.084 -71.65,-42.387 -70.838,-43.618 L -70.838,-43.689 L -70.79199999999999,-43.689 C -69.63699999999999,-45.416 -68.00999999999999,-46.983 -65.72199999999998,-47.945 L -68.42899999999997,-47.945 L -72.637,-43.738" fill="none" stroke="#000000" stroke-width="0.9609669100000001"/>
  <path d="M -0.5700000000000074,-47.945 L -3.2760000000000074,-47.945 C -0.9890000000000074,-46.983 0.6379999999999928,-45.416 1.7929999999999926,-43.689 L 1.8389999999999926,-43.689 L 1.8389999999999926,-43.618 C 2.6509999999999927,-42.387 3.2299999999999924,-41.084 3.637999999999993,-39.862 L 3.637999999999993,-43.738 L -0.5700000000000074,-47.945" fill="none" stroke="#000000" stroke-width="0.9609669100000001"/>
  <path d="M 0.0,0.0 L -69.0,0.0 L -74.012,-5.013 L -74.012,-44.308 L -69.0,-49.32 L 0.0,-49.32 L 5.013,-44.308 L 5.013,-5.013 L 0.0,0.0" fill="none" stroke="#000000" stroke-width="0.9609669100000001"/>
</svg>
