<?xml version="1.0" encoding="utf-8" ?>
<svg baseProfile="full" height="223px" version="1.1" viewBox="-164.40999999999997,-64.82000000000001,960.9669100000001,356.6556500000003" width="600px" xmlns="http://www.w3.org/2000/svg" xmlns:ev="http://www.w3.org/2001/xml-events" xmlns:xlink="http://www.w3.org/1999/xlink">
    <defs/>
    <path d="M 0.0,0.0 C -0.299,-7.051 -9.72,-9.158 -15.278,-9.247 C -20.832,-9.336 -30.264000000000003,-6.923 -30.558,0.0 C -30.855,7.017 -20.363999999999997,9.164 -15.278,9.245 C -9.726,9.334 -0.294,6.923 0.0,0.0 C 0.021,-0.482 0.771,-0.484 0.75,0.0 C 0.431,7.519 -9.262,9.898 -15.278,9.995 C -21.29,10.091 -30.994,7.389 -31.308,0.0 C -31.625,-7.487 -20.772,-9.909 -15.278,-9.997 C -9.266,-10.094 0.436,-7.389 0.75,0.0 C 0.771,0.484 0.021,0.482 0.0,0.0" fill="none" stroke="#000000" stroke-width="0.9609669100000001"/>
</svg>
