<?xml version="1.0" encoding="utf-8" ?>
<svg baseProfile="full" height="600px" version="1.1" viewBox="-142.48942,30.103558000000024,162.05274,166.43951679521027" width="585px" xmlns="http://www.w3.org/2000/svg" xmlns:ev="http://www.w3.org/2001/xml-events" xmlns:xlink="http://www.w3.org/1999/xlink">
  <defs/>
  <path d="M -125.25956,196.44151 C -125.42248,196.39891 -125.60013,196.18738 -125.65433999999999,195.97138999999999 L -125.75294,195.57869 L -125.46925999999999,195.01012 C -125.31322999999999,194.69741 -123.7174,192.99375 -121.92294999999999,191.22422 C -118.15521999999999,187.50878 -117.20879999999998,186.42472 -116.05084999999998,184.49806 L -115.21181999999999,183.10206000000002 L -115.26162,182.67706 L -115.31142,182.25205000000003 L -115.75726,182.03940000000003 L -116.20309,181.82675000000003 L -116.73566000000001,181.93327000000002 L -117.26823000000002,182.03978 L -118.49116000000002,183.66867000000002 C -120.51902000000003,186.36968000000002 -124.54915000000003,190.17351000000002 -127.75742000000002,192.4146 C -129.77565,193.8244 -131.60906000000003,195.00929000000002 -132.46038000000001,195.45403000000002 L -133.35334,195.92053 L -134.41257000000002,196.00553000000002 L -135.47180000000003,196.09053000000003 L -135.69169000000002,195.82557000000003 L -135.91157,195.56064000000003 L -134.95374,194.83174000000002 C -134.42693,194.43084000000002 -132.65726,193.03605000000002 -131.02115,191.73218000000003 C -129.38504,190.42831000000004 -127.84244000000001,189.20911000000004 -127.59316000000001,189.02285000000003 C -126.08060000000002,187.89264000000003 -120.62947000000001,183.12367000000003 -118.57211000000001,181.13070000000005 L -117.76676,180.35056000000006 L -117.76676,179.85224000000005 C -117.76676,179.23039000000006 -118.03862000000001,178.94751000000005 -118.63627000000001,178.94751000000005 C -119.46314000000001,178.94751000000005 -119.94855000000001,179.25535000000005 -121.53751000000001,180.78744000000006 C -122.95891000000002,182.15797000000006 -123.59319,182.69930000000005 -125.64705000000001,184.29479000000006 C -131.2552,188.65134000000006 -140.2294,192.83857000000006 -141.7987,191.83091000000007 L -142.03931,191.67642000000006 L -141.75552,191.24329000000006 C -141.5108,190.86980000000005 -140.314,189.98830000000007 -139.18742,189.35178000000005 C -139.00116,189.24653000000004 -138.46776,188.93384000000006 -138.00209,188.65691000000004 C -137.53642000000002,188.37997000000004 -136.62202000000002,187.86153000000004 -135.97009,187.50480000000005 C -135.31816,187.14808000000005 -134.09896,186.47296000000006 -133.26076,186.00453000000005 C -132.42256,185.53610000000003 -130.87783000000002,184.71505000000005 -129.82802,184.17997000000005 C -125.78748000000002,182.12053000000006 -122.82438,179.69736000000006 -120.17976000000002,176.28980000000004 L -119.62942000000001,175.58070000000004 L -119.62942000000001,175.14198000000005 L -119.62942000000001,174.70327000000006 L -120.01042000000001,174.56100000000006 L -120.39142000000001,174.41874000000007 L -120.81056000000001,174.57677000000007 C -121.04109000000001,174.66367000000008 -121.80309000000001,175.25146000000007 -122.50390000000002,175.88294000000008 C -126.53718000000002,179.51724000000007 -135.70279000000002,185.55151000000006 -137.18975,185.55151000000006 C -137.36645000000001,185.55151000000006 -137.58341000000001,185.62321000000006 -137.67189,185.71091000000007 C -137.88569999999999,185.92278000000007 -141.09753999999998,186.13595000000007 -141.87584999999999,185.98994000000008 L -142.48942,185.87487000000007 L -142.48942,185.65602000000007 C -142.48942,185.46942000000007 -140.86226,184.53555000000006 -140.53713,184.53555000000006 C -140.35922,184.53555000000006 -134.05316,181.41735000000006 -132.75275,180.68636000000006 C -132.10082,180.31989000000007 -131.18642,179.80608000000007 -130.72074999999998,179.54457000000008 C -124.96753999999999,176.3135800000001 -118.84830999999998,171.8536200000001 -117.32926999999998,169.78428000000008 C -115.82602999999997,167.73645000000008 -118.11704999999998,168.64339000000007 -122.08474999999999,171.66681000000008 C -124.27419999999998,173.33520000000007 -126.38607999999999,174.4117200000001 -127.79193999999998,174.5760400000001 C -128.90784,174.70647000000008 -128.38797,174.30021000000008 -122.16941999999999,170.1823400000001 C -120.26019,168.91806000000008 -118.39329,167.6491200000001 -118.02074999999999,167.3624700000001 C -116.80409999999999,166.4263100000001 -115.32499999999999,165.16171000000008 -114.63408999999999,164.46692000000007 C -114.02073999999999,163.85013000000006 -112.46041999999998,162.69155000000006 -112.24310999999999,162.69155000000006 C -112.19470999999999,162.69155000000006 -111.83657999999998,162.47357000000005 -111.44725999999999,162.20716000000007 C -110.76854999999999,161.74269000000007 -107.02084999999998,159.47297000000006 -105.70587999999998,158.73000000000008 C -104.28355999999998,157.92638000000008 -101.96722999999997,156.15578000000008 -100.39173999999998,154.66787000000008 L -98.71675499999998,153.08601000000007 L -97.91379399999998,151.49645000000007 C -96.24748799999998,148.19779000000005 -93.08369099999999,144.62146000000007 -87.37142199999998,139.57942000000006 C -82.46290799999998,135.24683000000005 -79.33004199999998,131.63068000000007 -75.85365199999998,126.28489000000006 C -74.37380599999999,124.00926000000005 -72.33265699999998,120.49877000000006 -72.15059699999998,119.91615000000006 L -72.03891599999997,119.55875000000006 L -72.33916999999997,119.22366000000007 L -72.63942299999997,118.88856000000007 L -73.87053699999997,118.69201000000007 L -75.10165099999998,118.49545000000006 L -75.76346899999997,118.07766000000007 C -76.12746799999998,117.84788000000006 -76.90696499999997,117.21782000000006 -77.49568799999997,116.67753000000006 C -81.05570699999997,113.41035000000007 -85.07296799999997,111.90094000000006 -90.24564699999998,111.88696000000006 C -93.76302899999997,111.87696000000005 -96.00742199999998,111.48259000000006 -96.00742199999998,110.87327000000006 L -96.00742199999998,110.62155000000006 L -94.99142199999997,110.08022000000005 C -94.04880799999997,109.57799000000006 -90.80128199999997,108.30565000000006 -89.23408899999997,107.82457000000005 C -88.86155599999996,107.71021000000005 -88.42443999999998,107.54980000000005 -88.26271999999997,107.46810000000005 C -88.10099999999997,107.38640000000005 -87.81421699999997,107.31955000000005 -87.62542199999997,107.31955000000005 C -87.43662799999997,107.31955000000005 -87.14984499999997,107.24715000000005 -86.98812399999997,107.15871000000006 C -86.61332199999997,106.95368000000006 -84.49554599999998,106.41115000000005 -82.39288499999996,105.98151000000006 C -81.40725899999997,105.78011000000005 -81.28591799999997,105.71120000000006 -80.25942299999997,104.76987000000005 C -78.98255099999997,103.59894000000006 -77.14669299999997,102.90196000000006 -74.50208899999997,102.58412000000006 L -72.97808999999997,102.40095000000005 L -70.60742299999997,102.65686000000005 C -68.21883799999996,102.91470000000005 -66.95654999999996,103.08580000000005 -64.93475999999997,103.42579000000005 C -63.12957999999997,103.72936000000004 -61.84939999999997,103.92965000000005 -61.01744999999997,104.03869000000005 L -60.23279999999997,104.14152000000004 L -59.23944999999997,103.59735000000005 C -56.69207999999997,102.20185000000005 -53.87207999999997,99.51922300000005 -52.234759999999966,96.93387300000005 C -51.72251999999997,96.12505300000005 -50.57018999999997,94.34000300000005 -49.67400999999997,92.96709300000005 L -48.04459999999997,90.47089300000005 L -46.14549999999997,88.60822300000005 C -38.95145999999997,81.55223400000006 -33.75277999999997,74.46112500000005 -31.74493999999997,68.96555700000005 C -30.26046999999997,64.90246800000004 -27.789969999999972,60.60752300000004 -25.20293999999997,57.59233700000004 C -24.47060999999997,56.73880000000004 -23.41421999999997,55.41189600000004 -22.85541999999997,54.643664000000044 C -20.85522999999997,51.893818000000046 -17.75881999999997,48.919563000000046 -14.74736999999997,46.85546900000004 C -14.01326999999997,46.35230800000004 -13.29965999999997,45.76819000000004 -13.16155999999997,45.55742700000004 C -12.63157999999997,44.74858000000004 -12.10275999999997,45.15373300000004 -12.10275999999997,46.36862000000004 L -12.10275999999997,47.02731700000004 L -13.20169999999997,48.59843700000004 C -15.85344999999997,52.38954500000004 -16.35032999999997,53.16174500000004 -16.44609999999997,53.64060600000004 L -16.54775999999997,54.14889100000004 L -16.227229999999967,54.14889100000004 C -13.526389999999967,54.14889100000004 -5.821729699999967,41.79296300000004 -3.186939699999966,33.23622500000004 L -2.874089699999966,32.22022500000004 L -2.366089699999966,32.22022500000004 L -1.858089699999966,32.22022500000004 L -1.342799699999966,32.99123500000004 C -1.0593896999999661,33.41529100000004 -0.7243397299999661,34.19227700000004 -0.5982497299999661,34.717872000000035 L -0.36899972999996605,35.673499000000035 L -1.307839699999966,37.587528000000034 C -1.824189699999966,38.64024400000003 -2.7540496999999657,40.40752400000004 -3.374179699999966,41.514815000000034 C -3.994319699999966,42.622107000000035 -4.735789699999966,43.993707000000036 -5.021889699999965,44.56281600000003 C -5.773939699999965,46.05877200000003 -7.036039699999965,47.829510000000035 -8.113179699999964,48.89993300000003 L -9.049979699999964,49.83089100000003 L -9.051979699999965,50.27844100000003 L -9.053979699999966,50.72599000000003 L -8.786129699999966,50.82877400000003 C -8.638809699999966,50.88530400000003 -8.324639699999967,50.93155800000003 -8.087969699999967,50.93155800000003 L -7.657649699999967,50.93155800000003 L -6.543659699999966,50.13663100000003 C -2.9051596999999663,47.54024900000003 -0.7064997299999662,44.51864700000003 0.7636702700000333,40.094224000000025 C 1.1505103000000334,38.930058000000024 1.6143803000000334,37.654538000000024 1.7945103000000333,37.259736000000025 C 1.9746403000000332,36.864935000000024 2.1220203000000333,36.47659100000003 2.1220203000000333,36.39675100000002 C 2.1220203000000333,36.316911000000026 2.4268203000000335,35.62785900000002 2.7993503000000333,34.86552500000003 C 3.171890300000033,34.103191000000024 3.4766903000000333,33.450478000000025 3.4766903000000333,33.415052000000024 C 3.4766903000000333,33.137812000000025 4.9598403000000335,30.872212000000026 5.363920300000033,30.532204000000025 L 5.873340300000033,30.103558000000024 L 6.339730300000032,30.103558000000024 L 6.806130300000032,30.103558000000024 L 7.014490300000032,30.492889000000023 L 7.222850300000032,30.882221000000023 L 7.254750300000032,32.39788900000002 L 7.286650300000033,33.91355800000002 L 6.310570300000033,35.860891000000024 C 4.095560300000033,40.27997200000002 2.0625103000000333,43.18719800000002 -1.4157196999999666,46.909342000000024 C -3.0905096999999664,48.70157100000002 -3.1500796999999663,48.829421000000025 -2.5661096999999664,49.378041000000024 C -2.0798696999999664,49.83483100000002 -1.7960096999999664,49.838519000000026 -0.8634497299999664,49.400161000000026 L -0.12723972999996636,49.05410200000003 L 1.3818103000000337,47.49516100000003 C 3.4509503000000334,45.35761900000003 6.736050300000033,41.57685400000003 9.434760300000033,38.227145000000036 C 10.67476,36.68802 11.99023,35.069931 12.35801,34.631393 C 12.7258,34.192854 13.3354,33.242339 13.71268,32.519136 L 14.39865,31.204222 L 14.68356,31.151672 L 14.96846,31.099122 L 15.17221,31.479817 L 15.37595,31.860513 L 15.345749999999999,33.055447 L 15.31565,34.250382 L 14.222999999999999,36.132009000000004 C 11.569499999999998,40.701551 7.978730299999999,44.643765 3.434330299999999,47.97661600000001 C 1.966480299999999,49.05313400000001 1.9248402999999992,49.74622000000001 3.328020299999999,49.74622000000001 L 3.958320299999999,49.74622000000001 L 5.293590299999999,49.061597000000006 C 7.365240299999999,47.999418000000006 9.390280299999999,46.375139000000004 12.70532,43.116665000000005 C 16.21143,39.670391 16.31405,39.583522 17.67926,38.90616800000001 L 18.69913,38.40016000000001 L 19.13123,38.597038000000005 L 19.563319999999997,38.793915000000005 L 19.563319999999997,39.12159400000001 C 19.563319999999997,40.377736000000006 12.735959999999999,47.25099700000001 9.460200299999997,49.29263400000001 C 7.920810299999997,50.25207 7.755950299999997,51.524784000000004 9.225660299999996,51.10327600000001 C 9.804590299999996,50.93724100000001 11.142289999999996,50.15795800000001 13.297989999999995,48.73092600000001 C 14.792129999999995,47.74183700000001 15.911519999999996,47.17007300000001 16.750529999999994,46.96743800000001 L 17.239729999999994,46.84928800000001 L 17.724189999999993,47.313435000000005 L 18.208659999999995,47.777581000000005 L 18.208659999999995,48.66404000000001 L 18.208659999999995,49.55049600000001 L 17.547359999999994,50.11654200000001 C 17.183649999999993,50.42786800000001 16.593099999999993,50.78752400000001 16.235029999999995,50.91577800000001 C 14.053679999999995,51.69710100000001 12.622809999999994,52.64090600000001 12.117259999999995,53.63187100000001 L 11.773989999999994,54.30472800000001 L 11.773989999999994,55.12046400000001 L 11.773989999999994,55.93619800000001 L 12.025959999999994,56.295932000000015 C 12.282869999999994,56.662728000000016 13.582429999999995,57.19688700000002 14.217889999999993,57.19688700000002 C 14.542839999999993,57.19688700000002 16.649089999999994,57.896931000000016 17.027149999999992,58.130586000000015 C 17.118149999999993,58.18684600000002 17.192659999999993,58.483266000000015 17.192659999999993,58.78930200000001 L 17.192659999999993,59.34573000000001 L 16.896319999999992,59.60914500000001 C 16.513019999999994,59.94987200000001 15.431279999999992,60.24274500000001 14.551669999999993,60.24394200000001 C 13.626419999999992,60.24514200000001 12.943359999999993,60.61135100000001 12.118849999999993,61.54803900000001 L 11.435319999999994,62.32456800000001 L 11.435319999999994,62.724060000000016 L 11.435319999999994,63.123553000000015 L 12.324319999999993,63.126353000000016 L 13.213319999999992,63.12915300000002 L 13.890659999999993,63.51161600000002 L 14.567989999999993,63.89408100000002 L 14.620489999999993,64.34425500000002 C 14.730629999999993,65.28881400000002 13.681589999999993,66.63116100000002 11.869059999999994,67.86496600000002 C 9.558260299999993,69.43794800000002 7.146290299999994,72.52303800000003 7.977840299999993,72.84213200000002 C 8.470060299999993,73.03101600000002 8.840860299999994,72.94854100000002 9.799620299999994,72.43691500000003 C 10.950349999999993,71.82285200000003 11.096659999999993,71.81149600000003 11.096659999999993,72.33624700000003 C 11.096659999999993,73.61062200000003 6.798210299999993,78.32128100000003 4.5349902999999925,79.52716100000004 C 4.063700299999993,79.77827600000003 4.048350299999992,80.07881000000003 4.4926902999999925,80.35628500000003 C 4.942050299999993,80.63691600000003 4.9205002999999925,80.79536800000002 4.365690299999993,81.29018200000003 C 2.616460299999993,82.85024000000003 2.0651002999999926,83.40114900000003 1.8642402999999925,83.78956000000002 L 1.6360302999999925,84.23086700000002 L 1.9625802999999924,84.72622400000002 C 2.3851802999999925,85.36730200000001 2.3773202999999925,85.49066400000001 1.8445502999999923,86.57872300000001 L 1.3977402999999924,87.491223 L -0.1478197300000077,88.98107300000001 C -2.0430697000000078,90.80799300000001 -4.050659700000008,92.58414300000001 -5.4556497000000075,93.67699300000001 C -6.932359700000007,94.82563300000001 -6.929129700000008,94.83138300000002 -4.4396497000000075,95.486213 C -4.043829700000008,95.59032300000001 -3.6211897000000075,95.70359300000001 -3.5004397000000074,95.737913 L -3.2809097000000076,95.800313 L -3.9459397000000074,96.776273 C -4.610519700000007,97.75157300000001 -6.148059700000007,99.34752300000001 -7.106649700000007,100.05706 C -9.170469700000007,101.58469000000001 -10.703220000000007,103.64886000000001 -10.126410000000007,104.12383000000001 C -9.648209700000008,104.51760000000002 -8.884649700000008,105.66041000000001 -8.884649700000008,105.98236000000001 L -8.884649700000008,106.28767000000002 L -9.434979700000008,106.53149000000002 C -10.632000000000009,107.06181000000002 -11.853690000000007,107.37648000000002 -13.795310000000008,107.65457000000002 C -14.586950000000007,107.76796000000002 -15.396180000000008,107.92331000000001 -15.593610000000007,107.99981000000002 L -15.952570000000007,108.13889000000003 L -17.930760000000006,110.88610000000003 L -19.908960000000008,113.63332000000003 L -19.820760000000007,113.86311000000002 C -19.772260000000006,113.98949000000002 -19.558750000000007,114.09232000000002 -19.346270000000008,114.09161000000002 C -18.763580000000008,114.08961000000002 -16.16915000000001,113.77807000000001 -15.824230000000007,113.66859000000002 L -15.521800000000008,113.57259000000002 L -15.042220000000007,113.98511000000002 L -14.562640000000007,114.39763000000002 L -14.778270000000006,115.20382000000002 L -14.993890000000006,116.01002000000003 L -14.820130000000006,116.18378000000003 C -14.724530000000007,116.27938000000003 -13.330930000000006,116.45935000000003 -11.723160000000007,116.58379000000002 L -8.799959700000008,116.81004000000001 L -3.2966297000000075,116.61492000000001 C 2.088750299999992,116.42399000000002 7.792480299999992,116.48564000000002 9.835260299999993,116.75687 L 10.859819999999992,116.89290000000001 L 11.725209999999992,117.44822 C 12.201179999999992,117.75365000000001 12.640139999999992,118.13263 12.700689999999991,118.2904 L 12.810759999999991,118.57725 L 12.41939999999999,118.87111 C 11.46731999999999,119.586 11.262849999999991,119.79221 11.08677999999999,120.21514 C 10.98382999999999,120.46242000000001 10.92489999999999,120.84270000000001 10.95581999999999,121.06022 L 11.01201999999999,121.45571 L 11.47041999999999,121.67472 C 12.83559999999999,122.32696 13.20268999999999,123.16820999999999 12.42453999999999,123.86124 C 12.13039999999999,124.12321 11.40649999999999,124.80996999999999 10.81587999999999,125.38736 L 9.74202029999999,126.43717 L 9.74202029999999,127.35629 L 9.74202029999999,128.27542 L 10.007189999999989,128.49549 C 10.455209999999989,128.86731 10.75801999999999,129.62041 10.75801999999999,130.36282 L 10.75801999999999,131.0709 L 10.19100999999999,131.60565 C 9.87916029999999,131.89977 9.32671029999999,132.23198 8.96335029999999,132.34389 C 8.59998029999999,132.45580999999999 7.783320299999989,132.70863999999997 7.1485502999999895,132.90574999999998 L 5.99440029999999,133.26412 L 5.83662029999999,133.67910999999998 C 5.74982029999999,133.90735999999998 5.63051029999999,134.41348 5.57144029999999,134.80382999999998 C 5.20073029999999,137.25343999999998 3.49912029999999,138.93475999999998 0.8339902699999904,139.48477999999997 L -0.2000497300000097,139.69817999999998 L -1.1133497000000097,139.60078 C -1.6156597000000097,139.54718 -2.6171997000000093,139.45315 -3.33897970000001,139.39171 L -4.65130970000001,139.28000999999998 L -4.65130970000001,139.58211999999997 C -4.65130970000001,139.74827999999997 -4.45201970000001,140.14550999999997 -4.20843970000001,140.46486 L -3.76555970000001,141.04549999999998 L -3.94729970000001,141.22723999999997 L -4.1290397000000105,141.40897999999996 L -6.37983970000001,141.39007999999995 C -11.00972000000001,141.35107999999997 -13.932610000000011,140.55273999999994 -16.701710000000013,138.57069999999996 C -17.229200000000013,138.19313999999997 -18.214360000000013,137.50322999999997 -18.89095000000001,137.03755999999996 C -19.56754000000001,136.57189999999994 -20.469460000000012,135.86919999999995 -20.89522000000001,135.47602999999995 C -21.656990000000008,134.77252999999996 -22.14063000000001,134.58755999999994 -22.346640000000008,134.92089999999996 C -22.40424000000001,135.01399999999995 -22.86406000000001,135.09022999999996 -23.368550000000006,135.09022999999996 L -24.285790000000006,135.09022999999996 L -24.840220000000006,134.76194999999996 C -25.145150000000005,134.58139999999995 -25.894910000000007,133.80064999999996 -26.506350000000005,133.02695999999995 C -27.670750000000005,131.55356999999995 -29.149170000000005,130.27618999999996 -29.902530000000006,130.09260999999995 L -30.346420000000006,129.98444999999995 L -30.723450000000007,130.59449999999995 C -30.930820000000008,130.93001999999996 -31.215390000000006,131.31944999999996 -31.355840000000008,131.45989999999995 L -31.611190000000008,131.71524999999994 L -31.81969000000001,131.54220999999995 C -31.93437000000001,131.44700999999995 -32.13076000000001,130.94162999999995 -32.25612000000001,130.41908999999995 C -32.75905000000001,128.32261999999994 -34.00070000000001,128.17109999999997 -34.62874000000001,130.12955999999994 C -34.742090000000005,130.48302999999993 -35.11974000000001,131.34372999999994 -35.467960000000005,132.04222999999993 C -35.81618,132.74072999999993 -36.18769,133.58433999999994 -36.293530000000004,133.91691999999992 L -36.485980000000005,134.52160999999992 L -36.485980000000005,136.42132999999993 L -36.485980000000005,138.32105999999993 L -36.831480000000006,138.99828999999994 C -37.0215,139.37075999999993 -37.42155,139.82463999999993 -37.72048000000001,140.00690999999995 L -38.26398000000001,140.33829999999995 L -38.94978000000001,140.33896999999996 C -39.83073000000001,140.33981999999997 -40.04198000000001,140.56798999999995 -40.04198000000001,141.51885999999996 C -40.04198000000001,143.82826999999997 -41.37814000000001,145.38613999999995 -43.69526000000001,145.77829999999997 L -44.86798000000001,145.97673999999998 L -46.61790000000001,145.69696999999996 C -48.57715000000001,145.38372999999996 -48.59527000000001,145.38701999999998 -48.73405000000001,146.08090999999996 C -48.97624000000001,147.29188999999997 -50.07829000000001,149.16586999999996 -51.351270000000014,150.53136999999995 L -52.091290000000015,151.32516999999996 L -52.58597000000002,151.43381999999997 L -53.08064000000002,151.54246999999998 L -53.08064000000002,151.86997999999997 C -53.08064000000002,153.07476999999997 -56.31811000000002,156.51306999999997 -58.01501000000002,157.11045999999996 L -58.63138000000002,157.32745999999997 L -58.814950000000024,157.94014999999996 C -59.358510000000024,159.75437999999997 -63.26215000000003,162.91374999999996 -66.03464000000002,163.78332999999995 C -66.50031000000003,163.92937999999995 -67.14801000000003,164.13385999999994 -67.47397600000002,164.23770999999994 C -68.34386000000002,164.51486999999995 -68.62831200000002,164.83042999999995 -69.36199900000003,166.33222999999992 C -70.93828400000002,169.55875999999992 -71.88376000000002,170.14715999999993 -73.85151500000002,169.12622999999994 C -75.09016800000002,168.48357999999993 -74.99620800000002,168.46163999999993 -75.48325100000002,169.50722999999994 C -77.16898500000002,173.12617999999995 -79.28500000000003,175.37300999999994 -81.50016400000003,175.89611999999994 L -82.40301700000002,176.10931999999994 L -83.19349700000002,176.01701999999995 C -83.62826100000002,175.96621999999994 -84.16185200000002,175.87037999999995 -84.37925700000002,175.80398999999994 L -84.77454100000003,175.68328999999994 L -87.34259100000003,178.29062999999994 C -88.75501800000002,179.72465999999994 -90.10114200000002,180.98561999999993 -90.33397600000002,181.09275999999994 C -91.06483300000002,181.42904999999993 -91.40762800000002,181.54013999999995 -92.36597500000002,181.75125999999995 L -93.29730900000003,181.95642999999995 L -93.93583800000003,181.65100999999996 L -94.57436500000003,181.34557999999996 L -94.91188800000003,182.00717999999995 C -95.09752700000003,182.37105999999994 -95.57813400000003,182.99750999999995 -95.97990800000004,183.39927999999995 L -96.71040300000004,184.12976999999995 L -97.88252200000004,184.70168999999996 C -99.76242600000003,185.61894999999996 -100.24367000000004,185.75394999999995 -101.74441000000003,185.78497999999996 L -102.74085000000004,185.80557999999996 L -102.91622000000004,185.52930999999995 L -103.09160000000004,185.25303999999994 L -102.78645000000004,184.60997999999995 L -102.48130000000005,183.96692999999996 L -102.64772000000005,183.70091999999997 C -102.73922000000005,183.55461999999997 -103.04620000000006,183.41162999999997 -103.32985000000005,183.38315999999998 L -103.84558000000006,183.33145999999996 L -105.13574000000006,183.95214999999996 L -106.42591000000006,184.57284999999996 L -107.34257000000005,185.58579999999995 L -108.25923000000004,186.59873999999994 L -108.98366000000004,188.31884999999994 L -109.70809000000004,190.03896999999995 L -110.44097000000004,190.82486999999995 L -111.17385000000003,191.61077999999995 L -112.18398000000003,191.98854999999995 L -113.19412000000004,192.36630999999994 L -113.44805000000004,192.15556999999995 L -113.70197000000003,191.94482999999997 L -113.70197000000003,191.27436999999998 L -113.70197000000003,190.60389999999998 L -112.59355000000004,188.38942999999998 C -111.98392000000004,187.17145999999997 -111.52595000000004,186.06859999999998 -111.57583000000004,185.93860999999998 L -111.66653000000004,185.70226999999997 L -112.46804000000003,185.75396999999998 L -113.26954000000003,185.80567 L -114.53333000000003,187.49901 C -116.15568000000003,189.67276999999999 -118.99723000000003,192.5215 -121.57598000000003,194.55946 C -124.19437000000003,196.62875 -124.31230000000004,196.68903 -125.25887000000003,196.44163 L -125.25956,196.44151" id="path2119" style="fill:#000000;stroke-width:1"/>
</svg>
