<?xml version="1.0" encoding="utf-8" ?>
<svg baseProfile="full" height="223px" version="1.1" viewBox="-164.40999999999997,-64.82000000000001,960.9669100000001,356.6556500000003" width="600px" xmlns="http://www.w3.org/2000/svg" xmlns:ev="http://www.w3.org/2001/xml-events" xmlns:xlink="http://www.w3.org/1999/xlink">
    <defs/>
    <path d="M 3.62,2.02 C -2.71,3.31 -3.55,14.959999999999999 -3.5599999999999996,15.059999999999999 L -3.6089999999999995,15.669999999999998 L -26.398999999999997,22.029999999999998 L -26.429999999999996,22.04 L -26.469999999999995,22.05 L -26.469999999999995,20.17 L -26.429999999999996,20.16 L -26.398999999999997,20.15 L -5.2499999999999964,14.29 C -4.95,12.0 -3.5,2.2 2.58,0.43 L 2.58,-12.96 C 2.09,-14.760000000000002 -6.75,-38.7 -26.399,-44.16 C -26.41,-44.16 -26.42,-44.169999999999995 -26.43,-44.169999999999995 C -26.439,-44.169999999999995 -26.46,-44.17999999999999 -26.47,-44.17999999999999 L -26.47,-46.03999999999999 L -26.43,-46.029999999999994 L -26.399,-46.019999999999996 L -26.25,-45.98 C -4.699999999999999,-40.23 4.239999999999998,-13.57 4.311,-13.299999999999997 L 4.33,-13.079999999999997 L 4.33,1.88 L 3.62,2.02" fill="none" stroke="#000000" stroke-width="0.9609669100000001"/>
    <path d="M 0.0,0.0 C -0.31,0.0 -0.59,-0.13 -0.819,-0.32 C -5.08,2.52 -6.6,9.99 -7.06,12.33 L -7.119999999999999,12.62 L -25.159999999999997,17.53 C -25.219999999999995,18.21 -25.728999999999996,18.740000000000002 -26.398999999999997,18.77 C -26.409999999999997,18.78 -26.419999999999998,18.78 -26.429999999999996,18.78 L -26.469999999999995,18.78 L -26.469999999999995,16.05 L -26.429999999999996,16.05 C -26.419999999999995,16.05 -26.409999999999997,16.05 -26.398999999999997,16.060000000000002 C -25.999999999999996,16.070000000000004 -25.669999999999998,16.28 -25.429999999999996,16.580000000000002 L -7.939,11.85 C -7.38,9.23 -5.72,1.74 -1.29,-1.17 C -1.3,-1.24 -1.33,-1.3 -1.33,-1.37 C -1.33,-1.9500000000000002 -0.9790000000000001,-2.4400000000000004 -0.4790000000000001,-2.64 L -0.4790000000000001,-12.51 C -1.24,-15.13 -9.5,-34.9 -25.46,-40.57 C -25.689,-40.29 -26.01,-40.09 -26.399,-40.08 C -26.41,-40.07 -26.42,-40.07 -26.43,-40.07 L -26.47,-40.07 L -26.47,-42.8 L -26.43,-42.8 C -26.419999999999998,-42.8 -26.41,-42.8 -26.399,-42.79 C -25.720000000000002,-42.76 -25.189,-42.21 -25.149,-41.51 C -8.59,-35.629999999999995 -0.22000000000000242,-15.099999999999998 0.46000000000000085,-12.719999999999999 L 0.48000000000000087,-12.589999999999998 L 0.48000000000000087,-2.639999999999999 C 0.9800000000000009,-2.4399999999999986 1.330000000000001,-1.9499999999999988 1.330000000000001,-1.3699999999999988 C 1.33,-0.61 0.74,0.0 0.0,0.0" fill="none" stroke="#000000" stroke-width="0.9609669100000001"/>
    <path d="M 0.0,0.0 C -0.021,0.0 -0.03,0.0 -0.04,-0.01 C -0.7100000000000001,-0.04 -1.22,-0.5700000000000001 -1.28,-1.25 L -19.32,-6.16 L -19.38,-6.45 C -19.84,-8.79 -21.36,-16.26 -25.619999999999997,-19.1 C -25.851,-18.91 -26.13,-18.78 -26.439999999999998,-18.78 C -27.179999999999996,-18.78 -27.770999999999997,-19.39 -27.770999999999997,-20.150000000000002 C -27.770999999999997,-20.73 -27.419999999999998,-21.220000000000002 -26.919999999999998,-21.42 L -26.919999999999998,-31.37 L -26.9,-31.5 C -26.22,-33.88 -17.851,-54.41 -1.2899999999999991,-60.29 C -1.2499999999999991,-60.99 -0.7199999999999992,-61.54 -0.03999999999999915,-61.57 C -0.029999999999999145,-61.58 -0.009999999999999148,-61.58 8.534839501805891e-16,-61.58 L 0.030000000000000852,-61.58 L 0.030000000000000852,-58.85 L 0.0,-58.85 C -0.021,-58.85 -0.03,-58.85 -0.04,-58.86 C -0.43,-58.87 -0.75,-59.07 -0.98,-59.35 C -16.94,-53.68 -25.2,-33.91 -25.96,-31.290000000000003 L -25.96,-21.42 C -25.46,-21.220000000000002 -25.11,-20.73 -25.11,-20.150000000000002 C -25.11,-20.080000000000002 -25.14,-20.020000000000003 -25.15,-19.950000000000003 C -20.72,-17.040000000000003 -19.061,-9.550000000000002 -18.5,-6.930000000000003 L -1.0100000000000016,-2.200000000000003 C -0.7710000000000016,-2.5000000000000027 -0.4400000000000016,-2.7100000000000026 -0.04000000000000159,-2.720000000000003 C -0.030000000000001588,-2.7300000000000026 -0.010000000000001591,-2.7300000000000026 -1.5890067039947553e-15,-2.7300000000000026 L 0.03,-2.7300000000000026 L 0.03,0.0 L 0.0,0.0 C -0.021,0.0 -0.03,0.0 -0.04,-0.01 C -0.7100000000000001,-0.04 -1.22,-0.5700000000000001 -1.28,-1.25 L -19.32,-6.16 L -19.38,-6.45 C -19.84,-8.79 -21.36,-16.26 -25.619999999999997,-19.1 C -25.851,-18.91 -26.13,-18.78 -26.439999999999998,-18.78 C -27.179999999999996,-18.78 -27.770999999999997,-19.39 -27.770999999999997,-20.150000000000002 C -27.770999999999997,-20.73 -27.419999999999998,-21.220000000000002 -26.919999999999998,-21.42 L -26.919999999999998,-31.37 L -26.9,-31.5 C -26.22,-33.88 -17.851,-54.41 -1.2899999999999991,-60.29 C -1.2499999999999991,-60.99 -0.7199999999999992,-61.54 -0.03999999999999915,-61.57 C -0.029999999999999145,-61.58 -0.009999999999999148,-61.58 8.534839501805891e-16,-61.58 L 0.030000000000000852,-61.58 L 0.030000000000000852,-58.85 L 0.0,-58.85 C -0.021,-58.85 -0.03,-58.85 -0.04,-58.86 C -0.43,-58.87 -0.75,-59.07 -0.98,-59.35 C -16.94,-53.68 -25.2,-33.91 -25.96,-31.290000000000003 L -25.96,-21.42 C -25.46,-21.220000000000002 -25.11,-20.73 -25.11,-20.150000000000002 C -25.11,-20.080000000000002 -25.14,-20.020000000000003 -25.15,-19.950000000000003 C -20.72,-17.040000000000003 -19.061,-9.550000000000002 -18.5,-6.930000000000003 L -1.0100000000000016,-2.200000000000003 C -0.7710000000000016,-2.5000000000000027 -0.4400000000000016,-2.7100000000000026 -0.04000000000000159,-2.720000000000003 C -0.030000000000001588,-2.7300000000000026 -0.010000000000001591,-2.7300000000000026 -1.5890067039947553e-15,-2.7300000000000026 L 0.03,-2.7300000000000026 L 0.03,0.0 L 0.0,0.0 C -0.021,0.0 -0.03,0.0 -0.04,-0.01 C -0.7100000000000001,-0.04 -1.22,-0.5700000000000001 -1.28,-1.25 L -19.32,-6.16 L -19.38,-6.45 C -19.84,-8.79 -21.36,-16.26 -25.619999999999997,-19.1 C -25.851,-18.91 -26.13,-18.78 -26.439999999999998,-18.78 C -27.179999999999996,-18.78 -27.770999999999997,-19.39 -27.770999999999997,-20.150000000000002 C -27.770999999999997,-20.73 -27.419999999999998,-21.220000000000002 -26.919999999999998,-21.42 L -26.919999999999998,-31.37 L -26.9,-31.5 C -26.22,-33.88 -17.851,-54.41 -1.2899999999999991,-60.29 C -1.2499999999999991,-60.99 -0.7199999999999992,-61.54 -0.03999999999999915,-61.57 C -0.029999999999999145,-61.58 -0.009999999999999148,-61.58 8.534839501805891e-16,-61.58 L 0.030000000000000852,-61.58 L 0.030000000000000852,-58.85 L 0.0,-58.85 C -0.021,-58.85 -0.03,-58.85 -0.04,-58.86 C -0.43,-58.87 -0.75,-59.07 -0.98,-59.35 C -16.94,-53.68 -25.2,-33.91 -25.96,-31.290000000000003 L -25.96,-21.42 C -25.46,-21.220000000000002 -25.11,-20.73 -25.11,-20.150000000000002 C -25.11,-20.080000000000002 -25.14,-20.020000000000003 -25.15,-19.950000000000003 C -20.72,-17.040000000000003 -19.061,-9.550000000000002 -18.5,-6.930000000000003 L -1.0100000000000016,-2.200000000000003 C -0.7710000000000016,-2.5000000000000027 -0.4400000000000016,-2.7100000000000026 -0.04000000000000159,-2.720000000000003 C -0.030000000000001588,-2.7300000000000026 -0.010000000000001591,-2.7300000000000026 -1.5890067039947553e-15,-2.7300000000000026 L 0.03,-2.7300000000000026 L 0.03,0.0 L 0.0,0.0" fill="none" stroke="#000000" stroke-width="0.9609669100000001"/>
    <path d="M 0.0,3.26 L -0.04,3.25 L -22.83,-3.11 L -22.88,-3.72 C -22.89,-3.8200000000000003 -23.73,-15.47 -30.061,-16.759999999999998 L -30.771,-16.9 L -30.771,-31.86 L -30.75,-32.08 C -30.68,-32.35 -21.740000000000002,-59.01 -0.19000000000000128,-64.75999999999999 L -0.040000000000001285,-64.8 L -1.2836953722228372e-15,-64.81 L 0.029999999999998715,-64.82000000000001 L 0.029999999999998715,-62.96000000000001 C 0.019999999999998713,-62.96000000000001 0.009999999999998715,-62.95000000000001 -1.2836953722228372e-15,-62.95000000000001 C -0.010000000000001284,-62.95000000000001 -0.030000000000001283,-62.94000000000001 -0.040000000000001285,-62.94000000000001 C -19.69,-57.48000000000001 -28.53,-33.54000000000001 -29.021000000000004,-31.740000000000013 L -29.021000000000004,-18.350000000000012 C -22.940000000000005,-16.580000000000013 -21.490000000000006,-6.780000000000012 -21.190000000000005,-4.490000000000013 L -0.04,1.37 L 0.0,1.38 L 0.03,1.39 L 0.03,3.27 L 0.0,3.26" fill="none" stroke="#000000" stroke-width="0.9609669100000001"/>
</svg>
