<?xml version="1.0" encoding="utf-8" ?>
<svg baseProfile="full" height="223px" version="1.1" viewBox="-164.40999999999997,-64.82000000000001,960.9669100000001,356.6556500000003" width="600px" xmlns="http://www.w3.org/2000/svg" xmlns:ev="http://www.w3.org/2001/xml-events" xmlns:xlink="http://www.w3.org/1999/xlink">
    <defs/>
    <path d="M 0.0,0.0 L 0.0,-9.87 C -0.761,-12.489999999999998 -9.021,-32.26 -24.98,-37.93 C -25.21,-37.65 -25.53,-37.45 -25.92,-37.44 L -25.92,-37.43 L -25.990000000000002,-37.43 L -25.990000000000002,-37.44 C -26.380000000000003,-37.449999999999996 -26.700000000000003,-37.65 -26.931,-37.93 C -42.891000000000005,-32.26 -51.150000000000006,-12.489999999999998 -51.91,-9.870000000000001 L -51.91,0.0 C -51.41,0.2 -51.061,0.69 -51.061,1.27 C -51.061,1.34 -51.09,1.4 -51.101,1.47 C -46.67,4.38 -45.010999999999996,11.870000000000001 -44.45,14.49 L -26.960000000000004,19.22 C -26.721000000000004,18.919999999999998 -26.391000000000005,18.709999999999997 -25.990000000000006,18.7 L -25.990000000000006,18.689999999999998 L -25.920000000000005,18.689999999999998 L -25.920000000000005,18.7 C -25.521000000000004,18.71 -25.190000000000005,18.919999999999998 -24.950000000000006,19.22 L -7.46,14.49 C -6.9,11.87 -5.24,4.38 -0.811,1.47 C -0.82,1.4 -0.851,1.34 -0.851,1.27 C -0.851,0.69 -0.5,0.2 0.0,0.0" fill="none" stroke="#000000" stroke-width="0.9609669100000001"/>
</svg>
