<?xml version="1.0" encoding="utf-8" ?>
<svg baseProfile="full" height="600px" version="1.1" viewBox="-62.18909900000001,71.33519900000006,69.18852140000001,113.88991099999991" width="365px" xmlns="http://www.w3.org/2000/svg" xmlns:ev="http://www.w3.org/2001/xml-events" xmlns:xlink="http://www.w3.org/1999/xlink">
  <defs/>
  <path d="M -28.140548,184.85794 C -28.840828,184.65613000000002 -30.090988,184.15727 -30.918668,183.74936000000002 L -32.423558,183.00770000000003 L -34.546078,180.88188000000002 L -36.668608,178.75605000000002 L -37.644259999999996,176.77168 C -38.18086399999999,175.68027 -38.827878999999996,174.0134 -39.082069,173.06751 L -39.54423,171.34772 L -39.54533,168.17272 L -39.54643,164.99772 L -38.958857,162.93419 C -38.256229000000005,160.46658 -37.142918,158.17599 -35.564308000000004,155.95003 L -34.401698,154.31065999999998 L -34.572478000000004,152.47319 L -34.743248,150.63571 L -35.700128,150.47744 C -36.226418,150.39034 -37.044157999999996,150.31786 -37.517348,150.31626 L -38.377686,150.31326 L -39.328106,148.99034 C -39.850837999999996,148.26274 -40.448899999999995,147.66742 -40.657132,147.66742 C -41.51933,147.66742 -41.864484,144.12435 -41.271595,141.35981999999998 L -40.991386,140.05324 L -40.052335,138.95617 L -39.113281,137.85909999999998 L -39.280939000000004,136.74107999999998 L -39.448598000000004,135.62305999999998 L -40.613852,134.88586999999998 C -44.862326,132.19812 -50.022738000000004,123.37390999999998 -48.468502,121.45450999999998 L -47.976951,120.84746999999999 L -46.153398,120.88266999999999 L -44.329847,120.91787 L -42.610055,121.45214 C -41.664170000000006,121.74599 -39.835333000000006,122.59215 -38.545973000000004,123.33249 C -35.793318000000006,124.91304000000001 -35.575918,124.86563000000001 -36.881778000000004,122.96958000000001 C -39.857822000000006,118.64849000000001 -44.969019,115.13127 -51.71688400000001,112.76095000000001 C -57.640828000000006,110.68002000000001 -60.606323,107.9201 -61.82898800000001,103.34978000000001 L -62.182899000000006,102.02687000000002 L -62.18599900000001,99.14968900000002 L -62.18909900000001,96.27251900000002 L -61.51451100000001,92.93197900000001 C -60.297950000000014,86.90760900000001 -57.85412800000001,80.87221900000002 -55.391368000000014,77.80993500000001 L -54.43991600000001,76.62686500000001 L -54.58704500000001,77.15603200000001 C -54.66796500000001,77.44707400000001 -55.27244600000001,79.186259 -55.93033200000001,81.02088900000001 C -57.29722000000001,84.83268900000002 -58.326018000000005,89.38644900000001 -58.739059000000005,93.45315900000001 L -59.023788,96.25653900000002 L -58.759779,98.11802900000002 C -58.453023,100.28094000000002 -58.172353,101.12086000000002 -57.596694,101.59862000000003 L -57.182494,101.94237000000003 L -56.180067,101.61734000000003 C -55.628734,101.43858000000003 -54.373968,100.89055000000003 -53.391703,100.39949000000003 L -51.605765,99.50666900000003 L -51.604972,97.98863900000003 C -51.602672,93.26169900000004 -49.240708,83.37373900000003 -48.113876999999995,83.37373900000003 L -47.835452999999994,83.37373900000003 L -48.00897499999999,84.23363900000003 C -48.610893999999995,87.21647900000002 -49.48611699999999,94.89735900000002 -49.48819399999999,97.21511900000003 L -49.48898799999999,98.22420900000003 L -47.85950299999999,97.08282900000003 C -46.96328599999999,96.45506900000004 -45.22861899999999,95.06666900000003 -44.004682999999986,93.99747900000003 C -42.78074999999998,92.92829900000002 -41.713613999999986,92.11924900000002 -41.63327299999999,92.19958900000003 C -41.09941999999999,92.73344900000004 -45.24848699999999,97.80700900000004 -47.72249199999999,99.64561900000004 L -49.502594999999985,100.96853000000004 L -49.389966999999984,103.21749000000004 C -49.21367799999999,106.73764000000004 -48.29919299999998,108.67702000000004 -46.34085899999999,109.68382000000004 C -45.499951999999986,110.11613000000004 -40.27196799999999,112.12746000000004 -38.66215799999999,112.63798000000004 L -37.49261799999999,113.00889000000004 L -36.899837999999995,112.62048000000004 C -36.573798,112.40685000000005 -36.163698,111.78137000000004 -35.988488,111.23051000000004 C -35.268978,108.96830000000004 -32.21839799999999,101.46992000000003 -31.871267999999997,101.11027000000004 L -31.497427999999996,100.72285000000004 L -31.497697999999996,101.50715000000004 C -31.497887999999996,101.93851000000004 -31.809507999999997,103.54161000000003 -32.190188,105.06957000000004 L -32.882328,107.84770000000005 L -33.016598,110.66816000000004 L -33.150868,113.48861000000004 L -32.577188,115.37733000000004 L -32.003508,117.26604000000005 L -30.720797999999995,118.59683000000004 L -29.438087999999993,119.92761000000004 L -27.226577999999993,119.75309000000004 C -24.260077999999993,119.51898000000004 -23.496447999999994,119.24701000000005 -22.400917999999994,118.03439000000004 L -21.471657999999994,117.00582000000004 L -21.173117999999995,115.89712000000004 L -20.874577999999996,114.78842000000004 L -21.423467999999996,110.84650000000005 C -21.725357999999996,108.67845000000005 -21.962327999999996,106.04522000000004 -21.950057999999995,104.99489000000005 L -21.927757999999994,103.08520000000006 L -21.409807999999995,104.21213000000006 C -21.124927999999993,104.83194000000006 -20.469477999999995,107.03459000000007 -19.953237999999995,109.10692000000006 C -18.677447999999995,114.22826000000006 -18.703807999999995,114.21025000000006 -14.883757999999995,112.56951000000007 C -10.568547999999995,110.71609000000007 -8.788547599999994,109.41025000000006 -7.599567599999995,107.22570000000006 L -6.869677599999995,105.88466000000005 L -6.4835175999999946,103.86634000000005 C -6.271207599999995,102.75627000000006 -6.097437599999995,101.32443000000005 -6.097437599999995,100.68448000000005 L -6.097437599999995,99.52093900000006 L -7.620547599999995,98.75207900000005 C -12.198267999999995,96.44124900000006 -15.502017999999996,92.60232900000005 -17.739667999999995,86.99375900000005 C -18.883407999999996,84.12700900000006 -18.633957999999996,83.98293900000006 -16.768777999999994,86.43302900000005 C -13.936047999999994,90.15406900000005 -6.362017599999994,96.58141900000004 -6.362017599999994,95.26423900000005 C -6.362017599999994,94.65809900000005 -7.694247599999994,89.12983900000005 -8.590727599999994,86.01593900000005 C -11.270937999999994,76.70622800000004 -7.489327599999994,82.54833900000004 -3.9769075999999943,93.14367900000005 L -2.7116075999999945,96.96049900000006 L -1.5044975999999946,97.43465900000005 L -0.29738759999999465,97.90881900000005 L -0.08855759999999466,96.92512900000006 C 0.026302400000005347,96.38410900000005 0.10747240000000535,94.39363900000005 0.09182240000000536,92.50186900000006 L 0.06332240000000536,89.06227900000006 L -0.6374275999999947,84.96257900000006 L -1.3381775999999945,80.86287900000006 L -2.5271975999999947,78.93617900000007 C -3.831877599999995,76.82208300000006 -3.9049275999999944,76.63012800000007 -3.3193475999999946,76.85483700000006 C -2.7935775999999946,77.05659500000006 -2.7831175999999944,77.10200100000006 -3.863717599999995,74.49153300000006 C -4.381407599999995,73.24093100000006 -4.765797599999995,72.01914700000006 -4.7179175999999945,71.77645500000006 L -4.630817599999994,71.33519900000006 L -3.2774675999999943,73.58415700000006 C -2.5331175999999944,74.82108400000006 -1.5366875999999943,76.60702200000006 -1.063167599999994,77.55290700000006 C -0.5896375999999941,78.49878900000006 0.5015024000000059,80.04068900000006 1.361592400000006,80.97933900000007 C 4.612332400000006,84.52698900000007 5.810622400000005,86.94902900000007 6.529492400000006,91.42493900000007 L 6.957422400000006,94.08936900000006 L 6.978422400000006,99.69103900000006 L 6.999422400000006,105.29271000000006 L 6.444862400000005,106.04104000000005 C 5.720302400000005,107.01877000000005 2.0116024000000055,109.20632000000005 -5.028817599999995,112.80871000000005 C -12.442107999999994,116.60189000000005 -14.576757999999995,117.84446000000005 -15.826097999999995,119.09381000000005 L -16.852407999999993,120.12012000000004 L -17.163477999999994,121.15836000000004 C -17.807607999999995,123.30832000000004 -17.466507999999994,124.11957000000004 -15.918407999999994,124.11957000000004 L -14.997277999999994,124.11957000000004 L -12.291517999999995,121.36084000000004 C -8.691417599999994,117.69027000000004 -7.685437599999995,117.21219000000004 -3.5376175999999955,117.20063000000003 L -1.2911075999999957,117.19463000000003 L -0.5159075999999957,117.51572000000003 L 0.2592924000000043,117.83682000000003 L 0.4264724000000043,118.50293000000003 C 0.7900224000000042,119.95145000000004 -1.2219875999999958,126.48006000000004 -3.0169175999999958,129.67608000000004 C -4.542487599999996,132.39248000000003 -7.2007875999999955,134.48612000000003 -9.623397599999997,134.87926000000004 L -10.546827999999998,135.02911000000003 L -11.757077999999998,134.42468000000002 L -12.967337999999998,133.82025000000002 L -13.620707999999999,134.11795 C -13.980057999999998,134.28168 -14.485677999999998,134.80776 -14.744307999999998,135.28701 L -15.214547999999999,136.15838000000002 L -15.197347999999998,138.01046000000002 C -15.188347999999998,139.02910000000003 -14.803377999999999,141.82707000000002 -14.342847999999998,144.22817000000003 C -13.882327999999998,146.62926000000004 -13.275827999999999,150.32020000000003 -12.995067999999998,152.43025000000003 L -12.484607999999998,156.26671000000002 L -11.568717999999999,158.64796 C -10.383178,161.73034 -9.995317599999998,164.16851000000003 -9.990397599999998,168.56983000000002 L -9.986397599999998,172.14171000000002 L -10.546907999999998,173.86554 C -12.088557999999999,178.60689000000002 -16.193018,182.84188 -20.851338,184.49766 L -22.369307999999997,185.03721 L -24.618267999999997,185.13110999999998 L -26.867217999999998,185.22510999999997 L -28.140458,184.85818999999998 L -28.140548,184.85794 M -51.434402,106.32637000000001 C -51.526171999999995,105.56238 -51.602281999999995,104.37261000000001 -51.603547,103.68242000000001 L -51.605947,102.42753 L -53.391885,103.57183 C -55.444419,104.887 -54.188596000000004,107.71543000000001 -51.552046000000004,107.71543000000001 L -51.267574,107.71543000000001 L -51.434402,106.32637000000001 M -1.409597599999998,102.98015000000001 C -1.086827599999998,102.34027 -0.8866075999999979,101.71339 -0.9646775999999979,101.58707000000001 C -1.0863175999999979,101.39025000000001 -2.797347599999998,100.57168000000001 -3.0871175999999982,100.57168000000001 C -3.254797599999998,100.57168000000001 -3.1983575999999982,103.40946000000001 -3.0215175999999984,103.87032000000002 C -2.7422175999999983,104.59817000000002 -2.0263975999999984,104.20285000000003 -1.4096075999999984,102.98015000000002 L -1.409597599999998,102.98015000000001 M 3.956652400000002,93.84350900000001 L 3.956652400000002,90.878139 L 3.547622400000002,89.500759 C 2.415912400000002,85.689879 1.670712400000002,84.838159 2.246592400000002,88.013749 C 2.456742400000002,89.172539 2.708632400000002,91.89574900000001 2.8063524000000024,94.065319 L 2.9840424000000025,98.010009 L 3.4703524000000026,97.409449 L 3.9566524000000025,96.808889 L 3.956652400000002,93.84350900000001" id="path3329" style="fill:#000000;stroke-width:1"/>
</svg>
