<?xml version="1.0" encoding="utf-8" ?>
<svg baseProfile="full" height="600px" version="1.1" viewBox="-303.30750999999975,13.473900000000008,128.85173999999998,190.57498999999996" width="406px" xmlns="http://www.w3.org/2000/svg" xmlns:ev="http://www.w3.org/2001/xml-events" xmlns:xlink="http://www.w3.org/1999/xlink">
  <defs/>
  <path d="M -303.307,202.75162 C -303.307,202.03812 -303.2312,200.21494 -303.13848,198.70012 L -302.96996,195.9459 L -301.28114,194.78982 C -299.23258,193.38748999999999 -298.70252999999997,192.67901 -297.9998,190.40384 L -297.45790999999997,188.6494 L -297.21912999999995,185.15499000000003 L -296.98033999999996,181.66057000000004 L -297.25973999999997,177.03036000000003 C -297.41342,174.48374000000004 -297.48810999999995,171.78043000000002 -297.42573,171.02299000000002 L -297.31230999999997,169.64584000000002 L -296.32471999999996,168.15842000000004 C -295.78153999999995,167.34034000000003 -294.36214999999993,165.59142000000003 -293.17049999999995,164.27192000000002 C -291.97884999999997,162.95243000000002 -290.02588999999995,160.73441000000003 -288.83056999999997,159.34298 L -286.65727,156.81311000000002 L -285.88092,155.21392000000003 C -284.11313,151.57250000000002 -284.09869,148.84180000000003 -285.80672,141.17932000000002 C -286.09864999999996,139.86963000000003 -286.53945,137.30979000000002 -286.78627,135.49078000000003 L -287.23503,132.18348000000003 L -287.08082,129.93453000000002 C -286.99602000000004,128.69760000000002 -286.69976,126.88417000000003 -286.4225,125.90469000000002 L -285.91839,124.12381000000002 L -286.87363999999997,123.97204000000002 C -290.07248,123.46381000000002 -293.89655999999997,121.36208000000002 -296.73454,118.55247000000003 L -298.49644,116.80818000000002 L -298.81879,115.63229000000003 L -299.14113,114.45640000000003 L -298.82284,112.88848000000003 C -298.41111,110.86032000000003 -297.22159,108.44127000000003 -295.67519999999996,106.48733000000003 L -294.44379999999995,104.93140000000002 L -294.26217999999994,107.12040000000002 C -293.71191999999996,113.75243000000002 -290.4507699999999,118.23206000000002 -285.23611999999997,119.51890000000002 L -283.48303999999996,119.95152000000002 L -281.95179999999993,118.54756000000002 C -277.11758999999995,114.11517000000002 -274.30294999999995,112.89095000000002 -265.83152999999993,111.53614000000002 C -260.2994999999999,110.65141000000001 -259.1577299999999,110.25226000000002 -255.68875999999992,107.99031000000002 C -254.14345999999992,106.98270000000002 -251.39641999999992,105.35590000000002 -249.5842299999999,104.37521000000002 C -240.15330999999992,99.27153000000003 -238.75887999999992,98.13060000000003 -233.4456999999999,91.17053000000003 C -229.73065999999992,86.30396000000003 -228.1766299999999,82.74623400000003 -227.6636799999999,77.93338300000002 C -227.5091899999999,76.48395900000003 -227.1905899999999,73.49413000000003 -226.9556599999999,71.28931800000002 L -226.5285199999999,67.28057100000002 L -227.0823599999999,64.38577200000002 L -227.6361899999999,61.490971000000016 L -227.6198899999999,58.075769000000015 C -227.61088999999993,56.19740800000002 -227.51756999999992,53.80370900000001 -227.4124999999999,52.75644000000001 L -227.2214699999999,50.852311000000014 L -228.33845999999988,50.42573400000001 C -229.97946999999988,49.79902600000001 -231.4449699999999,48.31874600000001 -232.78451999999987,45.93483100000001 L -233.9708099999999,43.823676000000006 L -233.70071999999988,43.55358100000001 C -233.55215999999987,43.40502800000001 -232.57336999999987,43.28348400000001 -231.5256199999999,43.28348400000001 L -229.6206199999999,43.28348400000001 L -228.46435999999989,43.891115000000006 C -225.7945099999999,45.29415900000001 -227.4156799999999,40.65369200000001 -232.16972999999987,33.284780000000005 C -233.50376999999986,31.216984000000004 -235.08329999999987,28.513119000000003 -235.67980999999986,27.276192000000005 L -236.76436999999987,25.027234000000007 L -236.75836999999987,22.381401000000007 L -236.75236999999987,19.735567000000007 L -236.05477999999988,18.402029000000006 C -235.20583999999988,16.779132000000004 -233.44863999999987,15.113216000000005 -231.59496999999988,14.173890000000007 L -230.21359999999987,13.473900000000008 L -231.60371999999987,14.864016000000007 L -232.99382999999986,16.254132000000006 L -233.74048999999985,17.832930000000005 C -234.15114999999986,18.701270000000005 -234.56491999999986,20.034269000000005 -234.65998999999985,20.795152000000005 L -234.83283999999986,22.178575000000006 L -234.51631999999987,23.735196000000006 C -234.34222999999986,24.591338000000004 -233.85390999999987,26.023919000000006 -233.43114999999986,26.918711000000005 L -232.66251999999986,28.545605000000005 L -231.72801999999984,29.366107000000007 L -230.79350999999986,30.186609000000008 L -229.88277999999985,30.186609000000008 L -228.97203999999985,30.186609000000008 L -228.59710999999984,29.591296000000007 C -228.39089999999985,29.263875000000006 -227.78602999999984,27.626765000000006 -227.25294999999986,25.953276000000006 C -225.80681999999985,21.413440000000005 -224.83142999999987,19.990223000000007 -222.63518999999985,19.215344000000005 C -220.89007999999984,18.599631000000006 -220.82901999999984,18.704881000000004 -222.16639999999984,20.023377000000004 L -223.39764999999983,21.237229000000003 L -224.34881999999982,23.161797000000004 L -225.2999899999998,25.086365000000004 L -225.7318099999998,27.624657000000006 L -226.16362999999978,30.162948000000007 L -225.8472099999998,31.696133000000007 L -225.5307799999998,33.22931700000001 L -224.6910699999998,33.98956100000001 L -223.8513499999998,34.74980400000001 L -222.0597699999998,34.621617000000015 L -220.26818999999978,34.49343000000002 L -219.0466099999998,33.77753700000002 C -218.37473999999978,33.38379600000002 -217.47422999999978,32.57738000000002 -217.0454799999998,31.985500000000016 L -216.2659199999998,30.909357000000014 L -215.9374799999998,29.319187000000014 L -215.6090399999998,27.729017000000013 L -215.4316499999998,28.36250000000001 C -215.3340499999998,28.71091600000001 -215.2423899999998,29.49928200000001 -215.2278799999998,30.114423000000013 L -215.2014799999998,31.23286200000001 L -215.8671799999998,33.001483000000015 C -216.2333199999998,33.97422500000001 -216.4657599999998,34.98161800000001 -216.38370999999978,35.240135000000016 L -216.23452999999978,35.71016500000002 L -215.29027999999977,36.02179500000002 C -212.69350999999978,36.87881200000002 -209.09223999999978,34.89799100000002 -206.12461999999977,30.980359000000018 L -205.42313999999976,30.05431700000002 L -205.91986999999978,31.699475000000017 C -206.78077999999977,34.550829000000014 -208.23819999999978,36.32788100000002 -210.55508999999978,37.351283000000016 L -211.86181999999977,37.928480000000015 L -213.56914999999978,38.065528000000015 C -214.5081899999998,38.14090800000002 -216.78626999999977,38.04863800000002 -218.63156999999978,37.860495000000014 C -222.32953999999978,37.48345300000001 -223.55222999999978,37.59798600000001 -224.41555999999977,38.40229200000002 L -224.99107999999978,38.938473000000016 L -224.99107999999978,39.997835000000016 L -224.99107999999978,41.057195000000014 L -223.7672599999998,42.36555700000002 L -222.5434399999998,43.67392200000002 L -221.1254599999998,44.36767200000002 L -219.7074799999998,45.06142600000002 L -215.48894999999982,45.414166000000016 C -206.18084999999982,46.19248300000002 -195.13259999999983,49.45108000000002 -193.39609999999982,51.930287000000014 L -192.9764899999998,52.52935100000001 L -192.9764899999998,53.60223400000001 L -192.9764899999998,54.67511700000001 L -193.3830599999998,55.255565000000004 L -193.78961999999981,55.836013 L -194.9044099999998,56.131566 C -195.5175499999998,56.294121 -196.7931099999998,56.940895 -197.7389899999998,57.568844 L -199.4587899999998,58.710566 L -201.0110599999998,58.874324 C -202.93385999999978,59.077172000000004 -204.8534699999998,59.881138 -205.8174699999998,60.887335 L -206.54981999999978,61.651745 L -206.24544999999978,64.65395099999999 C -205.86007999999978,68.45506699999999 -205.85975999999977,72.07855599999999 -206.24444999999977,76.923159 L -206.54770999999977,80.743372 L -206.22348999999977,81.85717799999999 C -206.04515999999978,82.469771 -204.95599999999976,84.47299 -203.80312999999978,86.30877 C -200.68293999999977,91.27721 -199.54076999999978,94.09886999999999 -198.2463099999998,100.03661 C -197.9131999999998,101.56457999999999 -197.5714699999998,102.90012 -197.4869099999998,103.00447 C -197.4023099999998,103.10883 -195.84691999999978,102.72116 -194.0304099999998,102.14299 C -184.27670999999978,99.03853 -178.6533699999998,97.70645999999999 -177.50683999999978,98.22886 L -176.8288499999998,98.53777 L -175.64230999999978,100.39233999999999 L -174.45576999999977,102.24691999999999 L -174.45576999999977,103.10031999999998 L -174.45576999999977,103.95371999999998 L -176.44782999999978,107.88662999999998 C -177.54345999999978,110.04972999999998 -178.6136099999998,112.47235999999998 -178.82592999999977,113.27025999999998 L -179.21198999999976,114.72097999999998 L -179.21498999999974,119.98356999999999 L -179.21798999999973,125.24614999999999 L -181.69553999999974,127.78877999999999 C -183.05818999999974,129.18722 -185.20719999999974,131.67085 -186.47111999999973,133.30795999999998 C -189.53185999999974,137.27242999999999 -189.41087999999974,137.31348999999997 -189.66197999999972,132.22511999999998 L -189.8296499999997,128.82717999999997 L -187.7268399999997,126.80116999999997 L -185.6240199999997,124.77514999999997 L -185.4690399999997,123.98139999999997 C -185.3838399999997,123.54483999999997 -185.18784999999968,121.04452999999997 -185.0335999999997,118.42514999999996 C -184.8793399999997,115.80577999999996 -184.59794999999968,112.85897999999996 -184.4082799999997,111.87670999999996 L -184.0634299999997,110.09077999999997 L -184.2940899999997,110.09077999999997 C -185.4286699999997,110.09077999999997 -189.99479999999969,113.15287999999997 -193.3731999999997,116.17934999999997 C -194.39184999999972,117.09187999999997 -195.9229699999997,118.35743999999997 -196.77570999999972,118.99168999999998 L -198.32611999999972,120.14487999999997 L -201.40590999999972,121.09922999999998 L -204.48569999999972,122.05357999999998 L -206.78023999999974,123.36923999999998 C -212.65986999999973,126.74057999999998 -219.37943999999973,128.84115999999997 -231.60542999999973,131.12976999999998 C -242.98504999999972,133.25994999999998 -247.96859999999973,134.88860999999997 -252.66113999999973,138.01090999999997 L -254.89163999999974,139.49503999999996 L -255.75009999999975,140.62578999999997 C -256.22224999999975,141.24770999999996 -257.56105999999977,143.51379999999997 -258.72521999999975,145.66154999999998 L -260.84188999999975,149.56655999999998 L -262.2509199999997,151.12516 C -263.6225499999997,152.64239 -265.0720299999997,153.75624 -272.74813999999975,159.19173 C -278.3532499999998,163.16074 -282.51234999999974,166.58682000000002 -285.48408999999975,169.68303 L -288.16587999999973,172.47714 L -289.01914999999974,174.21038 L -289.87241999999975,175.94360999999998 L -289.97478999999976,177.61145999999997 C -290.0310899999998,178.52877999999995 -290.19968999999975,181.29408999999995 -290.34942999999976,183.75657999999996 C -290.89933999999977,192.79956999999996 -291.53039999999976,194.28855999999996 -296.99079999999975,199.42698999999996 L -300.0667999999998,202.32160999999996 L -301.6871599999998,203.18524999999997 L -303.30750999999975,204.04888999999997 L -303.307,202.75162" id="path2732" style="fill:#000000;stroke-width:1"/>
</svg>
