<?xml version="1.0" encoding="utf-8" ?>
<svg baseProfile="full" height="223px" version="1.1" viewBox="-164.40999999999997,-64.82000000000001,960.9669100000001,356.6556500000003" width="600px" xmlns="http://www.w3.org/2000/svg" xmlns:ev="http://www.w3.org/2001/xml-events" xmlns:xlink="http://www.w3.org/1999/xlink">
    <defs/>
    <path d="M 148.78459,157.19075 C 148.91594,157.08450000000002 149.01475000000002,156.90995 148.62384,156.72596000000001 L 149.32803,156.34949 L 149.32803,157.07709 C 149.18142,157.11069 149.0028,157.14949 148.78472000000002,157.19075" fill="none" stroke="#000000" stroke-width="0.9609669100000001"/>
    <path d="M 149.32803,149.1074 L 149.32803,148.37985 C 149.18224,148.34625 149.0028,148.30775 148.78522,148.26649 C 148.91658,148.37283 149.01434,148.54715000000002 148.62398000000002,148.73084 L 149.32803,149.1074" fill="none" stroke="#000000" stroke-width="0.9609669100000001"/>
    <path d="M 54.73545800000001,148.37985 L 54.73545800000001,149.1074 L 55.43961600000001,148.73084 C 55.049738000000005,148.54715 55.146955000000005,148.2972 55.278318000000006,148.19087 C 55.06074600000001,148.23217 54.882082000000004,148.34620999999999 54.73545500000001,148.37984999999998" fill="none" stroke="#000000" stroke-width="0.9609669100000001"/>
    <path d="M 143.31824,157.68618999999998 L 110.60904,157.68618999999998 C 110.53894,157.70429 110.40826999999999,157.71729 110.25165,157.71729 C 110.02359,157.71729 109.83861999999999,157.69059 109.83861999999999,157.65778999999998 C 109.83861999999999,157.62488999999997 110.02359,157.59808999999998 110.25165,157.59808999999998 C 110.4083,157.59808999999998 110.53966,157.61088999999998 110.60956,157.62929 L 143.31811,157.62929 C 145.66401,157.62929 147.35088,157.43529999999998 148.41512,157.25629 C 148.54906,157.18149 148.86072000000001,156.96089 148.36202,156.73183 L 148.34902,156.72583 L 148.36042,156.71983 L 149.32786000000002,156.20246 L 149.32786000000002,149.25159 L 148.35041,148.72878 L 148.36341000000002,148.72278 C 148.86055000000002,148.4943 148.55312,148.27401 148.41741000000002,148.19877 C 147.35265,148.01969 145.66422000000003,147.82539 143.31940000000003,147.82539 L 110.60977000000003,147.82539 C 110.53967000000003,147.84359 110.40902000000003,147.85659 110.25240000000002,147.85659 C 110.02431000000003,147.85659 109.83933000000002,147.82989 109.83933000000002,147.79689000000002 C 109.83933000000002,147.76409 110.02431000000001,147.73709000000002 110.25240000000002,147.73709000000002 C 110.40906000000003,147.73709000000002 110.54041000000002,147.74999000000003 110.61027000000003,147.76829000000004 L 143.31884000000002,147.76829000000004 C 146.32894000000002,147.76829000000004 148.31230000000002,148.06737000000004 149.32860000000002,148.27527000000003 L 149.32860000000002,148.13233000000002 C 148.36795000000004,147.98231 146.11143,147.68276000000003 142.89101000000002,147.56847000000002 L 61.16932900000002,147.56864000000002 C 57.94947000000002,147.68297 55.69552500000002,147.98222 54.73591600000002,148.13227 L 54.73591600000002,148.27527 C 55.75382600000002,148.06737 57.73556100000002,147.76829 60.74727100000002,147.76829 L 93.45427500000002,147.76829 C 93.52574500000003,147.74969000000002 93.65712600000002,147.73709 93.81322200000002,147.73709 C 94.04023300000003,147.73709 94.22679300000003,147.76379 94.22679300000003,147.79679 C 94.22679300000003,147.82969 94.04023300000003,147.85648999999998 93.81322200000002,147.85648999999998 C 93.65720100000003,147.85648999999998 93.52679300000003,147.84358999999998 93.45534800000003,147.82528999999997 L 60.747723,147.82528999999997 C 58.402353,147.82528999999997 56.712812,148.01958999999997 55.649174,148.19866999999996 C 55.514115000000004,148.27396999999996 55.206681,148.49419999999998 55.702254,148.72268999999997 L 55.714754000000006,148.72868999999997 L 55.70383400000001,148.73468999999997 L 54.73611100000001,149.25221999999997 L 54.73611100000001,156.20331999999996 L 55.71458200000001,156.72603999999995 L 55.702082000000004,156.73203999999996 C 55.205448000000004,156.96059999999994 55.515010000000004,157.18096999999995 55.649002,157.25613999999996 C 56.712652000000006,157.43521999999996 58.402181000000006,157.62949999999995 60.747552000000006,157.62949999999995 L 93.454558,157.62949999999995 C 93.52601800000001,157.61099999999996 93.65739400000001,157.59829999999994 93.813489,157.59829999999994 C 94.04048300000001,157.59829999999994 94.227061,157.62499999999994 94.227061,157.65799999999993 C 94.227061,157.69079999999994 94.04048300000001,157.71759999999992 93.813489,157.71759999999992 C 93.65746800000001,157.71759999999992 93.527046,157.70479999999992 93.455601,157.6863999999999 L 60.747103,157.6863999999999 C 57.735408,157.6863999999999 55.753642,157.3872099999999 54.735718000000006,157.1793999999999 L 54.735718000000006,157.3223299999999 C 55.696383000000004,157.47243999999992 57.95350800000001,157.7719899999999 61.175409,157.8861399999999 L 142.89345,157.8859799999999 C 146.11383,157.7717799999999 148.36881,157.47251999999992 149.32839,157.3224299999999 L 149.32839,157.1793999999999 C 148.31205,157.3872199999999 146.32872,157.6863999999999 143.31861,157.6863999999999" fill="none" stroke="#000000" stroke-width="0.9609669100000001"/>
    <path d="M 54.735016,157.3774699999999 L 54.735016,157.5725899999999 C 54.735016,157.5725899999999 56.652114000000005,157.7365499999999 57.139746,157.8861399999999 L 60.226637000000004,157.8861399999999 C 57.605884,157.76028999999988 55.70510900000001,157.5224599999999 54.735016,157.3774699999999" fill="none" stroke="#000000" stroke-width="0.9609669100000001"/>
    <path d="M 149.32766,148.0800199999999 L 149.32766,147.8849199999999 C 149.32766,147.8849199999999 147.41165,147.7209599999999 146.92291,147.57136999999992 L 143.83761,147.57136999999992 C 146.45728000000003,147.69720999999993 148.35756,147.9351399999999 149.32766,148.0800199999999" fill="none" stroke="#000000" stroke-width="0.9609669100000001"/>
    <path d="M 143.83867,157.8861799999999 L 146.92293,157.8861799999999 C 147.41166,157.73674999999992 149.32767,157.57262999999992 149.32767,157.57262999999992 L 149.32767,157.3776699999999 C 148.35757,157.52265999999992 146.45781000000002,157.7603399999999 143.83867,157.8861799999999" fill="none" stroke="#000000" stroke-width="0.9609669100000001"/>
    <path d="M 60.224037,147.57116 L 57.139743,147.57116 C 56.652096,147.72059 54.735015000000004,147.88470999999998 54.735015000000004,147.88470999999998 L 54.735015000000004,148.07966 C 55.705108,147.93477 57.604325,147.69700999999998 60.224037,147.57116" fill="none" stroke="#000000" stroke-width="0.9609669100000001"/>
</svg>
