<?xml version="1.0" encoding="utf-8" ?>
<svg baseProfile="full" height="564px" version="1.1" viewBox="-694.2468500000002,-55.50580196005736,300.0581800000007,281.8377519600574" width="600px" xmlns="http://www.w3.org/2000/svg" xmlns:ev="http://www.w3.org/2001/xml-events" xmlns:xlink="http://www.w3.org/1999/xlink">
  <defs/>
  <path d="M -645.49497,225.47761 C -645.49497,224.32205 -644.70214,223.27143999999998 -643.11398,222.32247 C -642.38623,221.88762 -641.35424,221.13052000000002 -640.82066,220.64004 L -639.85052,219.74824 L -639.84452,217.25660000000002 C -639.84152,215.88620000000003 -640.1029,213.24162 -640.42558,211.37976000000003 C -641.14343,207.23779000000005 -641.0260099999999,206.72556000000003 -638.8082999999999,204.32472000000004 C -633.2364899999999,198.29279000000005 -630.1940299999999,185.24082000000004 -630.34273,168.00787000000003 C -630.3719299999999,164.62010000000004 -630.28163,161.40477 -630.1419999999999,160.86269000000001 L -629.88812,159.87709 L -627.72538,158.41585 C -626.53588,157.61216000000002 -624.50751,155.85066 -623.21789,154.50141 L -620.87314,152.04820999999998 L -619.2247100000001,148.92181 L -617.5763000000001,145.7954 L -616.5292700000001,141.65101 C -615.9534000000001,139.3716 -615.4198800000001,137.03037 -615.3436500000001,136.44829000000001 C -615.2674500000002,135.86621000000002 -615.0384100000001,134.36283 -614.8347100000001,133.10744000000003 L -614.4643400000001,130.82493000000002 L -614.7959400000001,130.49333000000001 L -615.1275400000001,130.16173 L -615.8113500000001,131.00621 C -616.50467,131.86242000000001 -617.0345500000001,132.85963 -618.1293300000001,135.36851000000001 L -618.7357200000001,136.75817 L -619.0569800000002,136.25046 C -619.2336700000002,135.97121 -619.3806600000001,135.06805 -619.3836300000002,134.24343000000002 C -619.3947300000002,131.15311000000003 -620.8697500000002,133.05458000000002 -622.0820500000002,137.72208 C -622.5364300000002,139.47149000000002 -623.1213800000002,141.20719 -623.3819400000002,141.57919 L -623.8556800000002,142.25555 L -623.6948500000002,140.31618 L -623.5340300000003,138.37681 L -624.0422900000002,138.57185 C -624.3218400000002,138.67912 -626.0406000000002,141.02333000000002 -627.8617700000002,143.7812 L -631.1729900000003,148.79551 L -631.4643600000003,147.39921 C -631.6246100000003,146.63124000000002 -631.9497900000002,145.87789 -632.1869700000003,145.72509000000002 L -632.6182000000003,145.44729 L -635.6899400000003,148.69457 C -638.8934000000003,152.08109 -639.5159300000004,152.41626 -638.6200600000003,150.27212 C -638.0164700000003,148.82754 -637.9453100000003,147.62425 -638.4191800000003,146.8753 L -638.7412900000003,146.36618 L -639.5858700000002,146.751 C -640.0503900000002,146.96265 -641.4508200000002,147.99425 -642.6979400000002,149.04344 C -648.3848100000002,153.82778000000002 -649.4049700000003,154.35919 -648.1477800000002,151.88232 L -647.2972500000002,150.20663 L -647.5992400000002,149.90287999999998 L -647.9012400000003,149.59913999999998 L -651.2901100000003,151.22579999999996 C -655.2859800000002,153.14381999999998 -655.0727800000003,153.10551999999996 -654.9447500000002,151.88231999999996 L -654.8432000000003,150.91217999999998 L -655.5487600000002,151.03405999999998 C -655.9368200000002,151.10106 -656.9444500000002,151.46928999999997 -657.7879600000002,151.85226999999998 C -659.4984400000002,152.62888999999998 -659.8441900000003,152.54611999999997 -659.2815100000003,151.49474999999998 C -658.5606300000003,150.14776999999998 -658.0033300000002,150.17998999999998 -668.6454800000002,150.95334999999997 C -670.4159000000002,151.08200999999997 -672.3013000000002,151.07761999999997 -672.8352700000003,150.94334999999998 L -673.8061200000003,150.69967999999997 L -673.0559100000003,149.90111999999996 L -672.3057100000003,149.10255999999995 L -672.3057100000003,147.76860999999997 L -672.3057100000003,146.43465999999998 L -674.5001400000003,146.55662999999998 L -676.6945800000003,146.67857999999998 L -676.9237100000004,145.29628 L -677.1528400000004,143.91398999999998 L -677.8160900000004,143.42193999999998 L -678.4793300000003,142.92987999999997 L -680.5223500000003,143.04033999999996 L -682.5653700000003,143.15079999999995 L -682.4626300000002,141.78595999999996 L -682.3598900000002,140.42111999999997 L -682.8890500000002,140.12923999999998 C -683.1801000000003,139.96871 -683.9785100000003,139.74882999999997 -684.6633100000003,139.64060999999998 C -685.9709600000002,139.43398 -690.4280000000002,136.99021 -690.0983800000002,136.66058999999998 C -689.9931200000002,136.55533 -689.5722000000003,136.46444999999997 -689.1630000000002,136.45862 C -687.3149800000002,136.43232 -688.5521400000002,134.65893 -692.2489800000002,132.03513999999998 C -693.2082500000001,131.3543 -694.0502000000001,130.50079 -694.1199800000002,130.13845999999998 L -694.2468500000002,129.47965999999997 L -691.1255900000002,129.71235999999996 C -687.5113200000002,129.98179999999996 -684.3753300000002,130.43562999999997 -679.8315000000002,131.34677999999997 C -678.0528400000003,131.70344999999998 -675.0026600000002,132.19430999999997 -673.0533300000002,132.43758999999997 L -669.5090900000002,132.87990999999997 L -665.7039300000002,132.41752999999997 L -661.8987700000002,131.95515999999998 L -658.9564100000002,130.89346999999998 C -649.9814700000003,127.65506999999998 -641.2751800000002,120.34515999999998 -631.3283700000002,107.69662999999997 C -630.4891600000002,106.62947999999997 -629.4315300000002,105.35947999999998 -628.9780800000002,104.87440999999997 C -627.9108300000003,103.73273999999996 -627.4280100000002,102.49122999999997 -627.7081000000002,101.60876999999996 L -627.9312200000002,100.90576999999996 L -627.4524900000001,100.60242999999996 C -627.1892000000001,100.43559999999995 -626.4748200000001,100.29666999999995 -625.8649900000001,100.29369999999996 L -624.7562000000001,100.28869999999996 L -624.5445700000001,99.73718399999996 C -624.4281700000001,99.43385399999995 -624.5746700000001,98.71831399999995 -624.8700000000001,98.14709399999995 L -625.4070800000001,97.10851399999996 L -623.1036200000001,96.00821399999995 L -620.8001600000001,94.90791399999995 L -620.8001600000001,94.22695399999995 L -620.8001600000001,93.54599399999995 L -622.6522400000001,92.71473399999995 L -624.5043300000001,91.88348399999995 L -622.5640500000001,91.06851399999995 C -619.5126200000001,89.78684399999995 -617.4482700000001,88.60871399999995 -614.67605,86.56682399999995 L -612.1063,84.67408399999995 L -610.78848,82.66995399999995 L -609.4706500000001,80.66583399999995 L -607.6388800000001,80.09801399999995 C -604.9085600000001,79.25165399999995 -601.12206,77.04712399999995 -599.1258300000001,75.14166399999995 L -597.35814,73.45434399999995 L -593.9979000000001,71.76255399999995 C -592.1497700000001,70.83206399999995 -589.2882800000001,69.12677399999995 -587.6390500000001,67.97301399999995 L -584.6404400000001,65.87527399999995 L -581.9946000000001,65.27129399999995 C -579.47868,64.69697399999995 -578.2270300000001,64.53466399999995 -569.1182100000001,63.601523999999955 C -559.3460800000001,62.60043399999996 -554.0679200000001,60.92598399999996 -549.8474600000001,57.48802399999995 C -548.7774200000001,56.61637399999995 -546.8812200000001,55.43129399999995 -545.63368,54.85451399999995 C -544.38615,54.27773399999995 -542.4129300000001,53.032083999999955 -541.24877,52.08639399999995 C -540.0846,51.14070399999995 -538.73522,50.10315399999995 -538.2501500000001,49.780733999999946 C -537.7650900000001,49.45830399999995 -536.0982100000001,48.063433999999944 -534.5459900000001,46.681003999999945 L -531.7237700000001,44.16751399999995 L -528.17096,42.41187399999995 L -524.61816,40.656243999999944 L -522.4614799999999,40.27635399999994 L -520.3047999999999,39.89646399999994 L -518.3122599999999,37.29503399999994 C -517.2163599999999,35.864243999999935 -515.7771899999999,34.35829399999994 -515.1140999999999,33.94848399999994 C -513.8060699999999,33.140073999999935 -513.6112499999999,32.53565399999994 -514.4376499999998,31.849803999999935 C -514.7286899999998,31.608263999999934 -514.9668199999999,31.296343999999934 -514.9668199999999,31.156663999999935 C -514.9668199999999,30.861863999999937 -509.09308999999985,29.016493999999934 -508.17584999999985,29.023123999999935 C -507.3254699999999,29.029123999999936 -507.39973999999984,28.702713999999936 -508.5130399999999,27.540693999999935 L -509.4675799999999,26.544353999999935 L -506.89634999999987,26.639453999999933 L -504.3251299999999,26.73455399999993 L -503.45040999999986,24.44150399999993 L -502.57568999999984,22.14844399999993 L -502.74962999999985,21.25620399999993 L -502.92356999999987,20.36396399999993 L -501.00203999999985,19.35791399999993 L -499.08050999999983,18.351863999999928 L -497.1807499999998,16.26718399999993 C -494.5312999999998,13.359833999999928 -492.3890399999998,8.878943799999929 -492.3890399999998,6.24454379999993 L -492.3890399999998,5.06963379999993 L -494.9466799999998,4.96598379999993 L -497.5043199999998,4.86233379999993 L -497.4501199999998,3.69561379999993 L -497.3959199999998,2.52888379999993 L -496.47047999999984,1.1934737999999299 C -495.96148999999986,0.4589938099999299 -493.7994899999998,-1.9247762000000703 -491.66605999999985,-4.103796200000071 L -487.78707999999983,-8.065636200000071 L -486.68302999999986,-10.244706000000072 C -486.0758099999999,-11.443196000000071 -485.46054999999984,-12.900026000000071 -485.31577999999985,-13.482106000000073 C -484.43431999999984,-17.026316000000072 -483.02669999999983,-21.234986000000074 -481.97569999999985,-23.46871600000007 L -480.76257999999984,-26.04698600000007 L -478.7265199999998,-28.064696000000072 L -476.6904599999998,-30.082396000000074 L -474.2210099999998,-31.376826000000072 L -471.7515699999998,-32.671246000000075 L -470.7620599999998,-35.33381600000008 L -469.7725499999998,-37.996396000000075 L -466.7826999999998,-42.403336000000074 C -465.1382899999998,-44.82714600000008 -463.0435699999998,-47.80680600000007 -462.1277699999998,-49.02478600000008 C -461.21196999999984,-50.242766000000074 -459.9070499999998,-52.32546600000008 -459.2279599999998,-53.653006000000076 C -457.43447999999984,-57.15898600000008 -451.52829999999983,-55.429196000000076 -448.96979999999985,-50.648596000000076 L -448.60315999999983,-49.96352600000007 L -449.5058399999998,-46.825886000000075 C -451.1408099999998,-41.142816000000074 -450.2156899999998,-40.300796000000076 -446.6860699999998,-44.25938600000008 L -445.2566699999998,-45.86249600000008 L -443.95203999999984,-44.71701600000008 L -442.64739999999983,-43.57152600000008 L -442.64739999999983,-42.754026000000074 C -442.64739999999983,-42.30440600000007 -443.37946999999986,-39.34429600000007 -444.2742299999998,-36.175996000000076 L -445.9010599999998,-30.415446000000074 L -445.9499599999998,-14.011276000000073 C -445.9768599999998,-4.988986200000074 -445.8835599999998,2.802233799999925 -445.7426999999998,3.3025437999999276 L -445.4865699999998,4.212203799999927 L -444.6076499999998,4.612673799999928 C -444.1242399999998,4.832923799999928 -443.2371099999998,5.691793799999928 -442.6362399999998,6.521263799999928 L -441.5437599999998,8.029403799999928 L -442.3110699999998,8.650723799999929 C -442.7330899999998,8.992463799999928 -443.3105499999998,9.272053799999929 -443.5943299999998,9.272053799999929 L -444.11027999999976,9.272053799999929 L -443.99621999999977,9.889413799999929 L -443.88215999999977,10.506783999999929 L -442.11826999999977,11.388723999999929 L -440.35437999999976,12.270663999999929 L -441.67728999999974,12.38016399999993 L -443.00020999999975,12.48964399999993 L -443.00020999999975,13.350303999999928 C -443.00020999999975,13.823653999999928 -442.7066799999998,14.488763999999929 -442.34791999999976,14.828303999999928 C -441.9891699999998,15.167853999999927 -441.0315399999998,16.05922399999993 -440.2198699999998,16.80912399999993 L -438.7441099999998,18.17257399999993 L -440.1665999999998,19.26586399999993 C -441.8222599999998,20.53836399999993 -441.9153999999998,20.97155399999993 -440.7040099999998,21.76529399999993 C -438.6803899999998,23.09121399999993 -438.54067999999984,24.96033399999993 -440.43866999999983,25.31502399999993 C -442.0534499999998,25.61678399999993 -442.6474299999998,26.06851399999993 -442.6474299999998,26.99480399999993 L -442.6474299999998,27.69782399999993 L -440.1779899999998,30.03855399999993 L -437.7085399999998,32.37928399999993 L -437.7085399999998,33.166143999999925 L -437.7085399999998,33.95300399999992 L -439.2960399999998,33.73541399999992 L -440.88353999999975,33.51782399999992 L -440.88353999999975,34.38418399999992 L -440.88353999999975,35.25053399999992 L -439.82520999999974,36.435943999999914 C -439.2431299999997,37.087923999999916 -438.76687999999973,37.751513999999915 -438.76687999999973,37.91059399999991 C -438.76687999999973,38.06968399999991 -438.76722999999976,38.304363999999914 -438.7678799999997,38.43212399999991 C -438.7685799999997,38.55987399999991 -439.5225699999997,38.67894399999991 -440.4435699999997,38.69670399999991 L -442.1182099999997,38.72900399999991 L -442.2279499999997,39.49993399999991 L -442.33768999999967,40.270873999999914 L -441.0814199999997,42.097163999999914 C -439.5885199999997,44.267453999999915 -439.5518399999997,44.652343999999914 -440.7070999999997,46.025283999999914 L -441.58903999999967,47.073413999999914 L -441.58903999999967,49.83932399999991 L -441.58903999999967,52.60523399999991 L -442.29459999999966,54.25124399999991 C -443.23349999999965,56.441623999999905 -443.20442999999966,56.75106399999991 -441.7487999999997,60.06177399999991 C -440.2572999999997,63.45404399999991 -440.68254999999965,64.66329399999991 -442.80299999999966,63.05947399999991 C -443.17962999999963,62.77460399999991 -443.85431999999963,62.54152399999991 -444.30229999999966,62.54152399999991 L -445.1168199999997,62.54152399999991 L -445.1724199999997,63.68805399999991 C -445.2030199999997,64.3186439999999 -445.2152199999997,65.06551399999991 -445.1996199999997,65.3477739999999 C -445.1840199999997,65.6300239999999 -445.0583199999997,68.2890939999999 -444.9203599999997,71.2568039999999 L -444.66950999999966,76.6526339999999 L -445.2044699999997,76.6526339999999 C -445.4986999999997,76.6526339999999 -446.3744299999997,76.0176339999999 -447.1505399999997,75.24152399999991 C -448.8438099999997,73.54826399999992 -449.1318799999997,73.50995399999991 -449.7082399999997,74.90141399999992 L -450.1518599999997,75.97242399999992 L -449.9564899999997,77.81183399999992 C -449.8490299999997,78.82351399999992 -449.6516699999997,79.92906399999993 -449.51791999999966,80.26861399999991 L -449.27472999999964,80.88597399999992 L -450.15786999999966,80.88597399999992 L -451.04101999999966,80.88597399999992 L -452.16313999999966,82.16400399999992 L -453.28527999999966,83.44204399999992 L -453.16982999999965,85.86608399999993 L -453.05438999999967,88.29012399999993 L -454.38631999999967,88.82213399999993 L -455.71824999999967,89.35414399999993 L -456.02653999999967,90.16499399999994 C -456.19609999999966,90.61096399999994 -456.26010999999966,91.36673399999994 -456.1687799999997,91.84448399999994 L -456.0027299999997,92.71310399999993 L -457.6586499999997,92.58141399999992 L -459.3145799999997,92.44970399999993 L -459.61866999999967,92.92964399999993 C -459.78590999999966,93.19361399999993 -459.92517999999967,94.59227399999992 -459.9281499999997,96.03777399999993 L -459.93314999999967,98.66597399999993 L -460.37411999999966,98.22708399999993 C -460.6166599999997,97.98570399999993 -460.9844299999997,97.28989399999993 -461.19139999999965,96.68083399999993 C -461.62780999999967,95.39660399999994 -462.4146199999997,94.79083399999993 -463.23658999999964,95.10625399999994 L -463.8137099999996,95.32771399999993 L -463.8137099999996,98.02236399999992 L -463.8137099999996,100.71700999999993 L -464.43106999999964,100.47816999999993 C -464.7706199999996,100.34680999999993 -465.4773699999996,100.15275999999993 -466.00162999999964,100.04693999999994 L -466.9548299999996,99.85455399999994 L -467.1281099999996,100.68900999999994 C -467.2234099999996,101.14795999999994 -467.3694099999996,103.28221999999994 -467.4525499999996,105.43180999999994 L -467.6037099999996,109.34013999999995 L -468.9992999999996,112.31825999999995 C -469.7668799999996,113.95622999999995 -471.1133199999996,116.40435999999995 -471.9913999999996,117.75853999999995 C -477.2568899999996,125.87905999999995 -478.0813699999996,128.11887999999996 -478.6764299999996,135.91929999999996 L -479.06665999999956,141.03457999999998 L -478.85347999999954,146.32625 L -478.6402999999995,151.61792 L -477.94720999999953,155.14569 C -477.18956999999955,159.00205 -476.9695899999995,159.79627 -475.82206999999954,162.81861 C -474.96673999999956,165.07139 -474.98909999999955,165.05846 -473.22439999999955,164.32112 C -472.5320499999996,164.03184000000002 -470.32984999999957,163.54837 -468.33061999999956,163.24674000000002 L -464.69564999999955,162.69833000000003 L -461.52064999999953,163.10422000000003 C -455.21241999999955,163.91065000000003 -448.2212799999995,166.93633000000003 -439.11925999999954,172.79925000000003 C -437.8580799999995,173.61162000000002 -434.20682999999957,175.63837000000004 -431.0053699999995,177.30315000000002 L -425.1845399999995,180.33003000000002 L -421.8474499999995,181.40800000000002 C -420.01204999999953,182.00089000000003 -418.2016799999995,182.48597 -417.8243999999995,182.48597 C -416.1783499999995,182.48597 -406.88972999999953,189.18507 -405.19175999999953,191.59684000000001 C -404.9341799999995,191.96271000000002 -403.49339999999955,193.57721 -401.99004999999954,195.18461000000002 C -398.84540999999956,198.54687 -395.22982999999954,203.75916 -394.61218999999954,205.82066000000003 L -394.18866999999955,207.23426000000003 L -394.8309499999996,209.12381000000005 C -395.1841999999996,210.16307000000006 -396.64194999999955,213.12751000000006 -398.0703799999996,215.71148000000005 C -399.4988199999996,218.29544000000004 -400.9451099999996,221.08368000000004 -401.2843699999996,221.90757000000005 L -401.9011999999996,223.40555000000006 L -420.95119999999963,223.41255000000007 C -431.42869999999965,223.41655000000006 -448.17682999999965,223.56860000000006 -458.1692599999996,223.75063000000006 C -468.1616899999996,223.93266000000006 -482.2904499999996,224.16962000000007 -489.5664899999996,224.27720000000005 C -496.8425299999996,224.38479000000004 -509.8600299999996,224.63419000000005 -518.4942699999996,224.83144000000004 C -541.0095899999995,225.34579000000005 -581.3816099999996,225.88195000000005 -615.7727499999996,226.12334000000004 L -645.4942799999997,226.33195000000003 L -645.4942799999997,225.47768000000002 L -645.49497,225.47761 M -622.2719999999999,214.89116 C -614.1914899999999,211.85174 -600.9319599999999,208.09065 -592.0005699999999,206.30461000000003 L -590.8936799999999,206.08326000000002 L -590.6583799999999,203.54494000000003 C -590.0565799999998,197.05303000000004 -592.0427699999999,182.32817000000003 -594.3269099999999,176.34769000000003 L -594.7175699999999,175.32486000000003 L -592.8202899999999,173.63384000000002 L -590.9230099999999,171.94283000000001 L -589.6419799999999,169.50502 C -588.9374099999999,168.16422 -588.1215699999999,166.0517 -587.8289999999998,164.81053 L -587.2970599999999,162.55385 L -587.2972399999999,159.20246 C -587.2973499999998,157.35920000000002 -587.4395199999999,155.62661 -587.6131699999999,155.35227 L -587.9289099999999,154.85347000000002 L -589.6362499999999,156.35956000000002 C -591.5509299999999,158.04857 -593.7169099999999,159.21452000000002 -599.6338499999999,161.74131000000003 C -604.0328199999999,163.61985 -607.7547099999999,165.70232000000001 -610.14749,167.62387000000004 L -611.6652899999999,168.84277000000003 L -613.0371099999999,171.16636000000003 C -614.4926699999999,173.63181000000003 -615.2500899999999,175.53144000000003 -616.7063999999999,180.36913 C -619.5546199999999,189.83054 -620.6100799999999,192.82387 -623.2369899999999,198.89011000000002 C -624.8333499999999,202.57656000000003 -626.5257099999999,206.42970000000003 -626.9977799999999,207.45264000000003 L -627.8560799999999,209.31254000000004 L -627.8560799999999,212.77371000000005 C -627.8560799999999,215.86301000000006 -627.7241599999999,216.70524000000006 -627.24029,216.70524000000006 C -627.1602899999999,216.70524000000006 -624.9245699999999,215.88890000000006 -622.2719999999999,214.89116000000007 L -622.2719999999999,214.89116 M -575.7079899999999,196.79863 C -573.9287799999998,195.88959 -569.4035299999999,195.26241000000002 -562.8646199999998,195.01861 C -553.2543299999999,194.66029 -551.6020499999998,194.19446 -547.7826999999999,190.76659999999998 L -545.4968399999999,188.71502999999998 L -543.0201999999999,187.57847999999998 C -538.51078,185.50906999999998 -530.28167,183.22332999999998 -523.4338499999999,182.13812 C -522.1726699999999,181.93824999999998 -519.55329,181.41672 -517.6130099999999,180.97913999999997 L -514.0852399999999,180.18356999999997 L -514.1282399999999,178.41065999999998 L -514.1712399999999,176.63776 L -514.9028699999999,175.24024999999997 C -515.3052599999999,174.47161999999997 -516.1699799999999,173.28710999999998 -516.8244599999999,172.60801999999998 C -517.47894,171.92891999999998 -518.5591199999999,170.75137999999998 -519.2248599999999,169.99125999999998 L -520.43531,168.60923 L -520.43531,151.8232 L -520.43531,135.03718 L -521.42314,130.46193 C -521.96645,127.94555 -522.7004,125.23241 -523.05414,124.43272999999999 L -523.69729,122.97877 L -527.73142,122.56978 C -529.9501899999999,122.34482999999999 -532.51528,122.16078999999999 -533.4316299999999,122.16078999999999 L -535.09773,122.16078999999999 L -535.30971,121.60837 L -535.52169,121.05595 L -534.37003,119.86773 L -533.2183600000001,118.67952 L -533.4303500000001,118.1271 C -534.1281200000001,116.30875 -546.3644700000001,125.6704 -546.3644700000001,128.0226 C -546.3644700000001,140.98708000000002 -557.9393400000001,160.85423 -575.4393600000001,177.92687 L -579.8783700000001,182.25747 L -579.8783700000001,185.96892000000003 C -579.8783700000001,189.47855 -579.3065700000001,197.28791 -578.9756700000002,198.29766000000004 L -578.8229400000001,198.76369000000003 L -577.8513500000001,198.08049000000003 C -577.3169700000001,197.70472000000004 -576.3524900000001,197.12789000000004 -575.7080600000002,196.79863000000003 L -575.7079899999999,196.79863 M -498.8406599999999,174.41095 C -497.9118399999999,174.04438000000002 -495.8025299999999,173.11344000000003 -494.1532899999999,172.34221000000002 C -492.5040499999999,171.57098000000002 -490.16248999999993,170.57964 -488.94981999999993,170.13922000000002 C -487.73713999999995,169.69881 -486.74495999999994,169.29685000000003 -486.74495999999994,169.24597000000003 C -486.74495999999994,169.19507000000002 -487.32910999999996,167.92340000000002 -488.0430799999999,166.41999000000004 L -489.34120999999993,163.68651000000006 L -489.4449899999999,161.88545000000005 C -490.5382399999999,142.91301000000004 -491.3691999999999,136.71374000000006 -493.4428199999999,132.06022000000004 C -494.1830299999999,130.39908000000005 -494.89566999999994,128.48433000000006 -495.0264699999999,127.80523000000004 C -495.1572799999999,127.12614000000004 -495.3308599999999,126.33239000000003 -495.4122199999999,126.04135000000004 L -495.5601299999999,125.51218000000004 L -499.5654199999999,125.47028000000005 L -503.5707099999999,125.42838000000005 L -503.8074599999999,132.26527000000004 C -503.9376799999999,136.02556000000004 -504.23368999999985,140.80690000000004 -504.46526999999986,142.89048000000005 L -504.88631999999984,146.67879000000005 L -504.89961999999986,156.02740000000006 L -504.9129199999999,165.37601000000006 L -504.11744999999985,168.19823000000005 C -503.13827999999984,171.67217000000005 -501.58549999999985,175.07740000000004 -500.98055999999985,175.07740000000004 C -500.73237999999986,175.07740000000004 -499.76937999999984,174.77747000000005 -498.84056999999984,174.41089000000005 L -498.8406599999999,174.41095" id="path7560" style="fill:#000000;stroke-width:1"/>
</svg>
