<?xml version="1.0" encoding="utf-8" ?>
<svg baseProfile="full" height="600px" version="1.1" viewBox="97.93472655106582,100.27132,225.73786593912416,257.9336815093287" width="526px" xmlns="http://www.w3.org/2000/svg" xmlns:ev="http://www.w3.org/2001/xml-events" xmlns:xlink="http://www.w3.org/1999/xlink">
  <defs/>
  <path d="M 203.76076,350.93811 C 193.66732000000002,338.51637 192.35935,336.89475 183.11347,325.33967 C 173.24505,313.00657 163.50438,300.69246 163.08157,300.01545 C 162.1256,298.48467999999997 162.4745,300.39544 163.97071,304.88471 C 165.93748,310.78589999999997 169.30951,316.69881 172.82373,320.40864 L 174.68765000000002,322.3763 L 172.43869,320.97608 C 149.35855,306.60615 133.31725,289.32315 127.43531000000002,272.48915 C 126.95162000000002,271.10483999999997 126.81638000000001,271.20705 125.85991000000001,273.67978 C 123.33116000000001,280.21732 121.44984000000001,290.15791 121.34795000000001,297.52031 L 121.32175000000001,299.4105 L 120.94265000000001,298.21988 C 119.79978000000001,294.63045999999997 118.46079000000002,286.05852 117.61563000000001,276.92091999999997 L 117.27303,273.21675999999997 L 117.27803,261.4428 L 117.28303,249.66884 L 117.7555,245.70009 C 118.01536,243.51728 118.28841,241.43367999999998 118.36227,241.06987999999998 L 118.49656999999999,240.40841999999998 L 116.33004,242.65738 C 110.25325,248.9654 102.13435,260.74966 98.682062,268.27276 C 97.795332,270.20508 97.771362,270.04636 98.226482,265.25707 C 101.49083,230.906 111.71158,205.43693 129.49105,187.34895 L 133.53249,183.23739 L 132.62206,179.14687 C 125.40109000000001,146.70325 126.87242,113.52272 136.06657,101.46858 L 136.73041,100.59823 L 137.60172,100.43477 L 138.47301,100.27132 L 140.17636,100.7009 C 151.84826999999999,103.64454 161.13436,109.73571000000001 176.09282,124.26015000000001 L 180.6726,128.70706 L 180.49191,127.93691000000001 C 180.06521999999998,126.11821 179.21643,123.87513000000001 178.36273,122.31012000000001 L 177.4454,120.62848000000001 L 178.44797,121.23209000000001 C 182.84538,123.87960000000001 194.20622,131.11047000000002 206.63569999999999,139.17283 L 210.80211999999997,141.87538 L 219.00322999999997,136.56533000000002 C 231.48176999999998,128.48574000000002 237.44636999999997,124.70075000000001 243.15934999999996,121.23643000000001 L 244.16191999999995,120.62848000000001 L 243.24458999999996,122.31012000000001 C 242.39088999999996,123.87513000000001 241.54209999999995,126.11821 241.11540999999997,127.93691000000001 L 240.93471999999997,128.70706 L 245.51449999999997,124.26015000000001 C 260.45881999999995,109.74943000000002 269.77007999999995,103.64176 281.43095999999997,100.70090000000002 L 283.13430999999997,100.27132000000002 L 284.00559999999996,100.43477000000001 L 284.87690999999995,100.59823000000002 L 285.54074999999995,101.46858000000002 C 294.89967999999993,113.73876000000001 296.24487999999997,151.07347000000001 288.42914999999994,181.63314000000003 L 288.03279999999995,183.18286000000003 L 292.08897999999994,187.32168000000004 C 309.9436799999999,205.54019000000005 320.11281999999994,230.86742000000004 323.3808399999999,265.25707000000006 C 323.83595999999994,270.04636000000005 323.81197999999995,270.20508000000007 322.9252599999999,268.27276000000006 C 319.47295999999994,260.74966000000006 311.3540699999999,248.96540000000007 305.27726999999993,242.65738000000007 L 303.11074999999994,240.40842000000006 L 303.24503999999996,241.06988000000007 C 303.31893999999994,241.43368000000007 303.59194999999994,243.51728000000006 303.85180999999994,245.70009000000007 L 304.32428999999996,249.66884000000007 L 304.32928999999996,261.4428000000001 L 304.33428999999995,273.2167600000001 L 303.99168,276.9209200000001 C 303.14653,286.0585200000001 301.80753999999996,294.6304600000001 300.66465999999997,298.2198800000001 L 300.28556,299.4105000000001 L 300.25845999999996,297.69071000000014 C 300.09315999999995,287.18640000000016 295.48993999999993,268.23045000000013 294.13856999999996,272.4891500000001 C 288.96788999999995,288.7839700000001 271.99836999999997,306.8417700000001 247.71340999999995,321.8916400000001 L 246.91965999999996,322.3835500000001 L 248.78357999999997,320.4122600000001 C 252.39812999999998,316.5894900000001 255.69858999999997,310.73367000000013 257.76365,304.47939000000014 C 258.87131999999997,301.1246800000001 259.43555,299.00181000000015 259.14603999999997,299.2782100000001 C 259.06984,299.3510100000001 257.41880999999995,301.44947000000013 255.47710999999998,303.9415400000001 C 253.53540999999998,306.4336100000001 250.45846999999998,310.34654000000006 248.63944999999998,312.63693000000006 C 246.82044,314.92733000000004 244.55826,317.78675000000004 243.61236999999997,318.9911900000001 C 242.16485999999998,320.8343700000001 235.11875999999998,329.59787000000006 222.55306999999996,345.18342000000007 C 209.05979999999997,361.9194500000001 211.96230999999997,361.0306100000001 203.76152999999996,350.93811000000005 L 203.76076,350.93811 M 213.14722,338.50269 C 217.45168,333.79641 221.04888,328.33876999999995 229.32187,313.96259 C 233.19928,307.22472 236.47508,301.84308 236.61426999999998,301.98226999999997 C 236.66406999999998,302.03207 236.61627,304.50987 236.50853999999998,307.48852 C 236.40060999999997,310.46717 236.35096,312.95752 236.39819999999997,313.02262 C 236.54515999999998,313.22512 240.90733999999998,308.7905 243.02116999999998,306.28967 C 245.82229999999998,302.97573 249.32804,298.20851 254.98728999999997,290.0178 C 263.6167,277.52831000000003 263.79517,277.33664000000005 264.28707999999995,280.02978 L 264.63744999999994,281.94801 L 264.64144999999996,286.90836 C 264.64345,289.63656000000003 264.72454999999997,291.86898 264.82100999999994,291.8693 C 265.2453499999999,291.8703 269.73747999999995,287.98578000000003 273.50816999999995,284.35639000000003 C 281.6660499999999,276.50423 288.73819999999995,266.62882 293.65806,256.21949 C 295.46723,252.39168 295.14903,252.54594 296.52801,254.82822000000002 C 297.14348,255.84686000000002 297.70963,256.6803 297.78611,256.6803 C 297.86261,256.6803 297.85791,253.55490999999998 297.77561000000003,249.73498999999998 L 297.62605,242.78966999999997 L 297.19847000000004,239.21779999999998 C 296.96330000000006,237.25327 296.52792000000005,234.11776999999998 296.23096000000004,232.25001999999998 C 295.934,230.38226999999998 295.75619000000006,228.78894999999997 295.83584,228.70929999999998 C 296.19634,228.34879999999998 304.40383,233.45158999999998 308.71582,236.7171 C 310.16171,237.81207999999998 311.3447,238.63781 311.3447,238.55207 C 311.3447,238.14202999999998 303.82489,225.3978 299.09187,217.78654999999998 C 288.11859999999996,200.14022999999997 283.41531,194.26782999999998 275.14619999999996,187.88863999999998 L 274.28876999999994,187.22717999999998 L 276.1667499999999,185.77196999999998 C 278.0896599999999,184.28195 281.4475999999999,180.97438999999997 281.44575999999995,180.57216999999997 C 281.4452299999999,180.44887999999997 279.62949,179.43383999999998 277.41085999999996,178.31651999999997 C 272.92371999999995,176.05675999999997 267.79783,172.93298999999996 264.50354999999996,170.45066999999997 C 261.82095,168.42926999999997 261.90034999999995,168.27240999999998 263.32381,172.78146999999998 C 263.97810999999996,174.8541 264.51345,176.62954 264.51345,176.72689999999997 C 264.51345,176.82429999999997 261.89408,174.28656999999998 258.69262,171.08758999999998 C 252.08336999999997,164.48346999999998 252.4817,165.05198 254.12855999999996,164.57353999999998 L 255.38532999999995,164.20843 L 257.63428999999996,164.22983 L 259.88325,164.25123 L 261.45493999999997,164.71487 C 264.83385999999996,165.71161999999998 267.87989,167.63756999999998 272.19152999999994,171.50341 L 274.5595599999999,173.62661 L 275.5557799999999,173.4458 C 277.1576399999999,173.15507 278.5624999999999,172.30777 280.17491999999993,170.65993 L 281.6824899999999,169.11924 L 283.02120999999994,166.39924 C 285.85684999999995,160.63786 287.46640999999994,153.13764999999998 288.06963999999994,142.87469 L 288.3575599999999,137.97627999999997 L 288.07688999999993,133.26502999999997 C 287.42891999999995,122.38836999999997 284.51386999999994,112.01520999999997 281.81415999999996,110.97923999999998 C 280.71578999999997,110.55774999999997 277.11591,114.82622999999998 271.73243999999994,122.93341999999997 C 266.47283999999996,130.85405999999998 264.86590999999993,132.93650999999997 262.2559099999999,135.21413999999996 L 261.2204099999999,136.11776999999995 L 265.1427899999999,135.94835999999995 L 269.0651799999999,135.77894999999995 L 268.76614999999987,136.13925999999995 C 266.6751599999999,138.65873999999994 241.47804999999988,145.56658999999996 214.44105999999988,151.03261999999995 L 210.80303999999987,151.76810999999995 L 207.16501999999986,151.03130999999996 C 179.76211,145.48148 154.9479,138.6792 152.83993,136.13926 L 152.54090000000002,135.77895 L 156.46329000000003,135.94836 L 160.38567000000003,136.11777 L 159.35017000000002,135.21414000000001 C 156.74017,132.93651000000003 155.13324000000003,130.85406 149.87364000000002,122.93342000000001 C 144.49017000000003,114.82623000000001 140.89029000000002,110.55775000000001 139.79192000000003,110.97924000000002 C 136.94313000000002,112.07242000000002 133.94022000000004,123.39934000000002 133.39607000000004,135.10425 L 133.22387000000003,138.80842 L 133.52995000000004,143.43863000000002 C 134.67824000000005,160.80903 139.20369000000005,171.96472000000003 145.66398000000004,173.35020000000003 L 147.02844000000005,173.64283000000003 L 149.40551000000005,171.51153000000002 C 153.72660000000005,167.63720000000004 156.76988000000006,165.71232000000003 160.15114000000005,164.71488000000002 L 161.72283000000004,164.25124000000002 L 163.97179000000006,164.22984000000002 L 166.22075000000007,164.20844000000002 L 167.47752000000006,164.57355 C 169.12438000000006,165.05199000000002 169.52271000000005,164.48345 162.91346000000004,171.0876 C 159.71200000000005,174.28658000000001 157.09263000000004,176.82427 157.09263000000004,176.7269 C 157.09263000000004,176.6295 157.62797000000003,174.8541 158.28227000000004,172.78148 C 159.70573000000005,168.27241999999998 159.78513000000004,168.42927999999998 157.10253000000003,170.45067999999998 C 153.80825000000004,172.93299 148.68236000000002,176.05676999999997 144.19522000000003,178.31652999999997 C 141.97659000000004,179.43384999999998 140.16089000000002,180.43689999999998 140.16032000000004,180.54553999999996 C 140.15832000000003,180.94171999999995 143.60359000000005,184.35511999999997 145.43566000000004,185.77197999999996 L 147.31731000000005,187.22717999999995 L 146.45988000000006,187.88863999999995 C 138.19077000000004,194.26782999999995 133.48748000000006,200.14022999999995 122.51421000000005,217.78654999999995 C 117.78119000000005,225.39779999999996 110.26138000000005,238.14202999999995 110.26138000000005,238.55206999999996 C 110.26138000000005,238.63776999999996 111.44437000000005,237.81207999999995 112.89026000000004,236.71709999999996 C 117.20225000000003,233.45158999999995 125.40974000000004,228.34879999999995 125.77024000000004,228.70929999999996 C 125.84984000000004,228.78899999999996 125.67204000000004,230.38226999999995 125.37512000000004,232.25001999999995 C 125.07816000000004,234.11776999999995 124.64219000000004,237.25326999999996 124.40630000000004,239.21779999999995 L 123.97741000000005,242.78966999999994 L 123.83261000000005,249.27196999999995 C 123.75301000000005,252.83722999999995 123.73351000000004,255.98797999999996 123.78931000000004,256.27362999999997 L 123.89086000000005,256.79301 L 125.04395000000005,254.88456999999997 C 126.46232000000005,252.53709999999998 126.13678000000006,252.38744999999997 127.94795000000005,256.21948999999995 C 133.14546000000004,267.21624999999995 140.54910000000004,277.35851999999994 149.47886000000005,285.71473 C 151.98952000000006,288.06413 156.50912000000005,291.87023 156.78717000000006,291.86929999999995 C 156.88237000000007,291.86902999999995 156.96221000000006,289.63656 156.96455000000006,286.90835999999996 L 156.96855000000005,281.94800999999995 L 157.31893000000005,280.02977999999996 C 157.81084000000004,277.33663999999993 157.98931000000005,277.52831 166.61872000000005,290.01779999999997 C 172.27796000000006,298.20851 175.78371000000004,302.97572999999994 178.58483000000007,306.28966999999994 C 180.69867000000008,308.79049999999995 185.06085000000007,313.22511999999995 185.20780000000008,313.02261999999996 C 185.25500000000008,312.95752 185.20580000000007,310.46716999999995 185.09746000000007,307.48851999999994 C 184.98953000000006,304.5098699999999 184.94195000000008,302.0320499999999 184.99174000000008,301.9822699999999 C 185.1309300000001,301.84307999999993 188.40672000000006,307.22471999999993 192.2841300000001,313.9625899999999 C 206.1354200000001,338.0322799999999 209.7202300000001,342.2489999999999 213.1466900000001,338.5026899999999 L 213.14722,338.50269 M 209.21577,315.81676 C 202.20632999999998,313.93895 194.54813,308.23206 190.04243,301.52879 L 188.61858999999998,299.4105 L 187.95620999999997,297.42613 C 186.42485999999997,292.83848 184.35509999999996,281.30653 181.56913999999998,261.83967 L 180.09239999999997,251.52092000000002 L 179.44253999999998,249.20096 C 177.73051999999998,243.08918 173.44394999999997,238.47014000000001 169.04462999999998,237.99659 L 167.80847999999997,237.86352 L 166.95788,238.39883 L 166.10727,238.93414 L 165.43709,240.25667 C 164.36012000000002,242.38198000000003 163.4901,245.37094000000002 163.02168,248.55487000000002 L 162.58531,251.52092000000002 L 162.75796,254.03447000000003 C 162.85296,255.41691000000003 163.10539,257.38140000000004 163.31902,258.39999 C 163.53265,259.41858 163.70744,260.35907 163.70744,260.48997 C 163.70744,260.76509000000004 161.65010999999998,258.07243000000005 160.08911,255.75426000000002 C 154.29951,247.15639000000002 150.91887,236.61814 150.37059,225.45947 C 150.29549,223.9315 150.2295,222.64186 150.22388999999998,222.59359 C 150.18958999999998,222.29901 147.49801,225.73261 146.06479,227.8992 C 141.87680999999998,234.2301 139.50663,241.14350000000002 138.79782,249.09574 L 138.49515,252.4914 L 138.79762,255.71033 C 138.96399,257.48074 139.16075,259.40551 139.23488,259.98759 L 139.36967,261.04592 L 138.03424,258.35237 L 136.69881,255.65881000000002 L 136.07474000000002,253.19299 C 132.17927000000003,237.80123 138.18424000000002,217.80675000000002 150.32415000000003,205.74739 L 153.52098000000004,202.57178 L 156.16681000000003,200.81275 C 160.99161000000004,197.60509 165.74303000000003,195.56297 170.93363000000002,194.46613 L 173.62931000000003,193.89649 L 177.59806000000003,193.86909 C 179.78088000000002,193.85399 182.38657000000003,193.94219 183.38849000000002,194.06505 L 185.21016000000003,194.28838000000002 L 184.58897000000002,193.4036 C 183.644,192.05763000000002 181.28049000000001,189.8195 179.68640000000002,188.76108000000002 C 177.9584,187.61375 177.90415000000002,187.49050000000003 179.41154000000003,188.13664000000003 C 195.41861000000003,194.99807000000004 205.69259000000002,207.03946000000002 206.83232000000004,220.27455000000003 L 207.11205000000004,223.52288000000004 L 206.84183000000004,227.07084000000003 C 206.12591000000003,236.47068000000004 202.98677000000004,248.09879000000004 200.63913000000005,250.04716000000002 C 200.12140000000005,250.47684 200.12078000000005,250.41318 200.62853000000004,248.97447000000003 C 200.85327000000004,248.33771000000002 201.32952000000003,246.37302000000003 201.68687000000003,244.60849000000002 L 202.33659000000003,241.40024000000003 L 202.33659000000003,238.99911000000003 C 202.33659000000003,236.07359000000002 201.98723000000004,234.29348000000002 201.00308000000004,232.20453000000003 L 200.25433000000004,230.61524000000003 L 198.83249000000004,229.16182000000003 C 197.17786000000004,227.47043000000002 195.37667000000005,226.43208000000004 193.36830000000003,226.01180000000002 C 191.58783000000003,225.63922000000002 191.70888000000002,225.38216000000003 192.06261000000003,228.78448000000003 L 192.36336000000003,231.67714000000004 L 192.15776000000002,233.26464000000004 L 191.95216000000002,234.85214000000005 L 191.73367000000002,234.32298000000006 C 191.61349,234.03194000000005 191.07913000000002,232.75379000000007 190.54619000000002,231.48267000000007 L 189.57720000000003,229.17152000000007 L 188.53473000000002,228.22971000000007 C 187.19338000000002,227.01788000000008 186.70917000000003,226.84766000000008 183.32045000000002,226.39665000000008 C 180.11178,225.96960000000007 178.86309000000003,225.57536000000007 176.42011000000002,224.21803000000008 L 174.68764000000002,223.25546000000008 L 172.67495000000002,221.2486000000001 L 170.66225000000003,219.2417300000001 L 169.41229000000004,216.7281900000001 L 168.16233000000005,214.2146500000001 L 168.33599000000007,216.1718000000001 C 168.88964000000007,222.4117000000001 172.77484000000007,229.2643900000001 177.68279000000007,232.6576500000001 C 179.13518000000008,233.6618000000001 178.97167000000007,233.80678000000012 176.96622000000008,233.2930100000001 C 171.28402000000008,231.83729000000008 162.62478000000007,224.1434000000001 159.43722000000008,217.7181600000001 L 158.81264000000007,216.45917000000009 L 158.15118000000007,216.6090000000001 C 154.82345000000007,217.3627900000001 153.20638000000008,219.1016600000001 154.58789000000007,220.4406800000001 C 157.98147000000006,223.7298600000001 161.05554000000006,230.5647800000001 161.49128000000007,235.7897500000001 C 161.58788000000007,236.94755000000012 161.70263000000008,237.8948500000001 161.74637000000007,237.8948500000001 C 161.79007000000007,237.8948500000001 162.27901000000006,237.4755100000001 162.83281000000008,236.9629900000001 C 163.38661000000008,236.4504700000001 164.4945600000001,235.7067300000001 165.29493000000008,235.3102400000001 L 166.75014000000007,234.5893400000001 L 170.05743000000007,234.59134000000012 L 173.36472000000006,234.59334000000013 L 175.48139000000006,235.49172000000013 L 177.59805000000006,236.39009000000013 L 179.85588000000007,238.66356000000013 L 182.11371000000008,240.93703000000014 L 183.33417000000009,243.31828000000013 C 186.5002100000001,249.49552000000014 188.22776000000007,259.6890100000001 188.0066600000001,270.8885500000001 C 187.9074600000001,275.9128700000001 187.9876600000001,276.10869000000014 188.7969300000001,272.8193200000001 C 189.2846100000001,270.83721000000014 189.47400000000007,269.6213100000001 190.0681600000001,264.6579600000001 L 190.2058100000001,263.5080600000001 L 191.4341500000001,265.1871200000001 C 194.0588700000001,268.7749600000001 196.5249800000001,273.9912100000001 197.3253200000001,277.6479600000001 C 197.71130000000008,279.41149000000013 197.6515400000001,279.3718000000001 198.5778300000001,278.4796500000001 C 198.9716600000001,278.10034000000013 199.8892000000001,277.5152700000001 200.6168000000001,277.17950000000013 L 201.9397200000001,276.56902000000014 L 210.8032600000001,276.56902000000014 L 219.6668000000001,276.56902000000014 L 220.98972000000012,277.17950000000013 C 221.71732000000011,277.51527000000016 222.63486000000012,278.10034000000013 223.02869000000013,278.4796500000001 C 223.95498000000012,279.3718000000001 223.89522000000014,279.41149000000013 224.28120000000013,277.6479600000001 C 225.08154000000013,273.99121000000014 227.54765000000012,268.77496000000014 230.17237000000011,265.1871200000001 L 231.40071000000012,263.5080600000001 L 231.53836000000013,264.6579600000001 C 232.1325200000001,269.6213100000001 232.32191000000012,270.83721000000014 232.80959000000013,272.8193200000001 C 233.61890000000014,276.10869000000014 233.69905000000014,275.9128700000001 233.59986000000012,270.8885500000001 C 233.3787600000001,259.6890100000001 235.10631000000012,249.4955200000001 238.27235000000013,243.31828000000013 L 239.49281000000013,240.93703000000014 L 241.75064000000015,238.66356000000013 L 244.00847000000016,236.39009000000013 L 246.12513000000015,235.49172000000013 L 248.24180000000015,234.59334000000013 L 251.54909000000015,234.59134000000012 L 254.85638000000014,234.5893400000001 L 256.31159000000014,235.3102400000001 C 257.1119600000001,235.7067300000001 258.21991000000014,236.4504700000001 258.77371000000016,236.9629900000001 C 259.3275100000002,237.4755100000001 259.8164100000002,237.8948500000001 259.86015000000015,237.8948500000001 C 259.90385000000015,237.8948500000001 260.01868000000013,236.9475500000001 260.11524000000014,235.7897500000001 C 260.55098000000015,230.5647800000001 263.62505000000016,223.72986000000012 267.01863000000014,220.4406800000001 C 267.53267000000017,219.9424500000001 267.95326000000017,219.4074200000001 267.95326000000017,219.2517300000001 C 267.95326000000017,218.6802000000001 263.1174100000002,216.0654000000001 262.8485400000002,216.4915500000001 C 262.8123400000002,216.5489500000001 262.4998300000002,217.1316800000001 262.15409000000017,217.7865200000001 C 258.6184900000002,224.48300000000012 250.30799000000016,231.8410100000001 244.64030000000017,233.2930100000001 C 242.63485000000017,233.8067800000001 242.47134000000017,233.66180000000008 243.92373000000018,232.6576500000001 C 248.83168000000018,229.2643900000001 252.71688000000017,222.4117000000001 253.27053000000018,216.1718000000001 L 253.4441900000002,214.2146500000001 L 252.1942300000002,216.7281900000001 L 250.94427000000022,219.2417300000001 L 248.93157000000022,221.2486000000001 L 246.91888000000023,223.25546000000008 L 245.18641000000022,224.21803000000008 C 242.74343000000022,225.57536000000007 241.49474000000023,225.96960000000007 238.28607000000022,226.39665000000008 C 234.89735000000022,226.84766000000008 234.41314000000023,227.01788000000008 233.07179000000022,228.22971000000007 L 232.0293200000002,229.17152000000007 L 231.06033000000022,231.48267000000007 C 230.52739000000022,232.75379000000007 229.99303000000023,234.03194000000008 229.87285000000023,234.32298000000006 L 229.65436000000022,234.85214000000005 L 229.44876000000022,233.26464000000004 L 229.24316000000022,231.67714000000004 L 229.5439100000002,228.78448000000003 C 229.89764000000022,225.38216000000003 230.01869000000022,225.63922000000002 228.2382200000002,226.01180000000002 C 226.2298500000002,226.43208 224.4286600000002,227.47043000000002 222.7740300000002,229.16182000000003 L 221.3521900000002,230.61524000000003 L 220.6034400000002,232.20453000000003 C 219.6192900000002,234.29348000000005 219.26993000000022,236.07359000000002 219.26993000000022,238.99911000000003 L 219.26993000000022,241.40024000000003 L 219.91965000000022,244.60849000000002 C 220.2769900000002,246.37302000000003 220.7532400000002,248.33771000000002 220.97798000000023,248.97447000000003 C 221.48575000000022,250.41318 221.48513000000023,250.47684000000004 220.96738000000022,250.04716000000002 C 219.16002000000023,248.54719000000003 216.4179300000002,239.82195000000002 215.28357000000022,231.96150000000003 L 214.71368000000024,228.01252000000002 L 214.84050000000025,222.56879000000004 L 214.96732000000026,217.12506000000005 L 215.54019000000025,215.00840000000005 C 218.42622000000026,204.34486000000004 228.81424000000024,193.87229000000005 242.19497000000024,188.13664000000006 C 243.70236000000023,187.49050000000005 243.64810000000023,187.61375000000007 241.92010000000025,188.76108000000005 C 240.32601000000025,189.81950000000006 237.96251000000024,192.05763000000005 237.01753000000025,193.40360000000004 L 236.39634000000024,194.28838000000005 L 238.21802000000022,194.06505000000004 C 239.21994000000024,193.94223000000005 241.82563000000022,193.85404000000005 244.00844000000023,193.86909000000003 L 247.97719000000023,193.89649000000003 L 250.67287000000024,194.46613000000002 C 255.86347000000023,195.56297 260.61490000000026,197.60509000000002 265.43969000000027,200.81275000000002 L 268.08552000000026,202.57178000000002 L 271.28235000000024,205.74739000000002 C 283.42599000000024,217.81046000000003 289.4284300000002,237.79651 285.5317700000002,253.19299 L 284.9077000000002,255.65881000000002 L 283.57227000000023,258.35237 L 282.23684000000026,261.04592 L 282.37162000000023,259.98759 C 282.4457200000002,259.40551 282.6425200000002,257.48074 282.8088800000002,255.71033 L 283.1113600000002,252.4914 L 282.80869000000024,249.09574 C 282.09987000000024,241.14350000000002 279.72970000000026,234.2301 275.5417200000002,227.8992 C 274.10849000000024,225.73261 271.4168600000002,222.29901 271.3826100000002,222.59359 C 271.37661000000026,222.64189000000002 271.31101000000024,223.9315 271.2359100000002,225.45947 C 270.6979700000002,236.40779 267.5748000000002,246.36249 261.9507900000002,255.05456 C 260.27483000000024,257.64480000000003 257.8990700000002,260.8319 257.8990700000002,260.48997 C 257.8990700000002,260.35907000000003 258.0722500000002,259.42428 258.2839100000002,258.41265000000004 C 258.4955700000002,257.40102 258.7481800000002,255.49116000000004 258.8452700000002,254.16851000000005 L 259.0217900000002,251.76370000000006 L 258.7099800000002,249.39335000000005 C 258.2789500000002,246.11684000000005 257.48541000000023,243.13728000000006 256.4428200000002,240.88073000000006 L 255.5607100000002,238.97152000000006 L 254.6793700000002,238.41752000000005 L 253.7980300000002,237.86352000000005 L 252.5618800000002,237.99659000000005 C 248.1625600000002,238.47014000000004 243.8759900000002,243.08918000000006 242.1639700000002,249.20096000000007 L 241.51411000000022,251.52092000000007 L 240.0373700000002,261.83967000000007 C 237.2516000000002,281.3051900000001 235.1818500000002,292.83734000000004 233.6504400000002,297.42613000000006 L 232.9882000000002,299.41050000000007 L 231.5770200000002,301.52717000000007 C 225.7148100000002,310.3200800000001 214.7804100000002,317.3075100000001 209.2157400000002,315.81676000000004 L 209.21577,315.81676 M 215.04004,309.84281 C 221.52213,308.04652999999996 226.15713,302.76452 227.90926000000002,295.17717 L 228.39806000000002,293.0605 L 228.38436000000002,287.63655 L 228.37066000000002,282.21259 L 227.7715,279.43892999999997 C 227.00017,275.8683 226.96921,275.85637999999994 225.21873,278.45568999999995 L 224.35536,279.73772999999994 L 225.12654999999998,281.2397399999999 C 225.55070999999998,282.06584999999995 226.03492999999997,283.4862799999999 226.2026,284.3962599999999 L 226.50745999999998,286.0507599999999 L 226.22925999999998,287.8481099999999 C 225.7086,291.2118699999999 223.67324,294.2435099999999 221.05808,295.5505199999999 L 219.93144999999998,296.1135899999999 L 219.33613999999997,295.4321899999999 L 218.74082999999996,294.7507899999999 L 218.74082999999996,293.75777999999985 C 218.74082999999996,293.21161999999987 218.91562999999996,292.53364999999985 219.12928999999997,292.25117999999986 C 219.69774999999996,291.49960999999985 219.64115999999996,291.3938899999999 218.48494999999997,291.04747999999984 L 217.43532999999996,290.7330099999998 L 216.29296999999997,291.1692799999998 L 215.15060999999997,291.60554999999977 L 214.69675999999998,292.3738499999998 C 213.81477999999998,293.8669099999998 214.28349999999998,296.0780299999998 215.67529,296.98995999999977 L 216.34096,297.4261299999998 L 218.00391,297.4301299999998 C 219.93081999999998,297.4351299999998 220.85280999999998,297.81749999999977 221.32913,298.8108999999998 L 221.66849,299.5186299999998 L 221.2787,300.4515099999998 L 220.88891999999998,301.3843899999998 L 216.21653999999998,303.68273999999985 L 211.54414999999997,305.9810899999999 L 210.80332999999996,305.9810899999999 L 210.06249999999997,305.9810899999999 L 205.39011999999997,303.68273999999985 L 200.71773999999996,301.3843899999998 L 200.32794999999996,300.4515099999998 L 199.93816999999996,299.5186299999998 L 200.27751999999995,298.8108999999998 C 200.75384999999994,297.81749999999977 201.67583999999997,297.43464999999975 203.60273999999995,297.4301299999998 L 205.26569999999995,297.4261299999998 L 205.93136999999996,296.98995999999977 C 207.32315999999994,296.0780299999998 207.79186999999996,293.8669099999998 206.90989999999996,292.3738499999998 L 206.45604999999998,291.60554999999977 L 205.31368999999998,291.1692799999998 L 204.17132999999998,290.7330099999998 L 203.12169999999998,291.04747999999984 C 201.96549999999996,291.39388999999983 201.90890999999996,291.49960999999985 202.47736999999998,292.25117999999986 C 202.69101999999998,292.53364999999985 202.86583,293.21161999999987 202.86583,293.75777999999985 L 202.86583,294.7507899999999 L 202.27051999999998,295.4321899999999 L 201.6752,296.1135899999999 L 200.54858,295.5505199999999 C 197.93341999999998,294.2435099999999 195.89806,291.2118699999999 195.3774,287.8481099999999 L 195.09919,286.0507599999999 L 195.40404999999998,284.3962599999999 C 195.57172999999997,283.4862799999999 196.05595,282.06584999999995 196.4801,281.2397399999999 L 197.25128999999998,279.73772999999994 L 196.38791999999998,278.45568999999995 C 194.63743999999997,275.85637999999994 194.60647999999998,275.8682999999999 193.83515999999997,279.43892999999997 L 193.23599999999996,282.21259 L 193.22229999999996,287.63655 L 193.20859999999996,293.0605 L 193.69739999999996,295.17717 C 195.42797999999996,302.6712 199.91890999999995,307.8696 206.30547999999996,309.77144 L 208.28984999999997,310.36235999999997 L 210.67641999999998,310.37656 L 213.06298999999999,310.39076 L 215.04016,309.84286 L 215.04004,309.84281 M 184.6201,221.79994 L 185.21846000000002,221.31540999999999 L 185.05734,220.67546 C 184.96874,220.32349 184.30183000000002,219.45048999999997 183.57536000000002,218.73546 L 182.2545,217.4354 L 181.85226,217.76924 C 181.63102,217.95284999999998 181.02703,218.11506 180.51004,218.12971 L 179.57007000000002,218.15631 L 178.98094,217.56705 L 178.39181,216.9778 L 178.41640999999998,215.82719 L 178.44100999999998,214.67658 L 177.28484999999998,214.11487 C 176.64894999999999,213.80593 175.72378999999998,213.55317 175.22892,213.55317 L 174.32916,213.55317 L 173.75559,214.28077 L 173.18203000000003,215.00838 L 173.31688000000003,216.01948 C 173.49108000000004,217.32566999999997 174.46981000000002,218.78709999999998 176.02239000000003,220.05933 L 177.25968000000003,221.07318999999998 L 179.01636000000002,221.67198 L 180.77304,222.27076 L 182.39738,222.27776 L 184.02170999999998,222.28476 L 184.62007999999997,221.80023 L 184.6201,221.79994 M 242.37619,221.74993999999998 L 244.10693,221.21537999999998 L 245.44743,220.15577 C 247.08174,218.86391999999998 248.10985,217.36775 248.28964,216.01958 L 248.42449,215.00848 L 247.85093,214.28087 L 247.27736000000002,213.55327 L 246.37760000000003,213.55327 C 245.88273000000004,213.55327 244.95757000000003,213.80603 244.32168000000004,214.11497 L 243.16552000000004,214.67668 L 243.19012000000004,215.82729 L 243.21472000000003,216.9779 L 242.62559000000002,217.56715 L 242.03646,218.15641 L 241.09649000000002,218.12981 C 240.57950000000002,218.11521 239.97551,217.95295 239.75427000000002,217.76934 L 239.35203,217.4355 L 238.03117,218.73556 C 237.3047,219.45059 236.63781,220.32359 236.54919,220.67556 L 236.38807,221.31551 L 236.98643,221.80004 L 237.5848,222.28457 L 239.11512,222.28457 L 240.64543999999998,222.28457 L 242.37617999999998,221.74999 L 242.37619,221.74993999999998 M 197.04494,217.52627999999999 C 197.04494,216.74254 194.75565,212.15365999999997 193.19563,209.81032 L 191.39365999999998,207.10356 L 189.12606999999997,204.82390999999998 C 186.18743999999998,201.86964999999998 182.27124999999998,199.11926 179.13475999999997,197.80687999999998 L 178.29019999999997,197.4535 L 180.33365999999998,199.48412 C 184.05477,203.18182 185.44190999999998,205.70299 183.18735999999998,204.67082 C 182.36085999999997,204.29244 180.70561999999998,203.81106 179.50904999999997,203.60109 L 177.33347999999998,203.21934 L 175.54753999999997,203.39341 C 173.27587999999997,203.61481999999998 173.28824999999998,203.83660999999998 175.59253999999996,204.19944999999998 L 177.42344999999995,204.48773999999997 L 179.23055999999994,205.36449999999996 L 181.03766999999993,206.24125999999995 L 178.25953999999993,206.45493999999997 C 175.07948999999994,206.69951999999998 172.54001999999994,207.38687999999996 170.91734999999994,208.44223999999997 C 169.38167999999993,209.44102999999998 169.43535999999995,209.48605999999998 172.37255999999994,209.66280999999998 L 174.95224999999994,209.81804999999997 L 176.93661999999995,210.37533999999997 C 179.69078999999994,211.14881999999997 182.82042999999996,212.75898999999995 184.97767999999994,214.51238999999995 L 186.80101999999994,215.99439999999996 L 188.32157999999993,215.82236999999995 L 189.84212999999994,215.65033999999994 L 191.65760999999995,215.93656999999993 C 192.65611999999996,216.09399999999994 194.18745999999996,216.56494999999993 195.06057999999996,216.98311999999993 C 196.84997999999996,217.84013999999993 197.04495999999995,217.89350999999994 197.04495999999995,217.52627999999993 L 197.04494,217.52627999999999 M 226.48311999999999,217.00212 C 227.43469,216.57066 229.01226999999997,216.09 229.98883999999998,215.93399 L 231.76442999999998,215.65034 L 233.28497999999996,215.82237 L 234.80553999999995,215.9944 L 236.62887999999995,214.51239 C 238.78612999999996,212.75899 241.91576999999995,211.14882 244.66992999999997,210.37534000000002 L 246.65430999999995,209.81805000000003 L 249.23399999999995,209.66281000000004 C 252.17119999999994,209.48606000000004 252.22487999999996,209.44103000000004 250.68920999999995,208.44224000000003 C 249.06653999999995,207.38688000000002 246.52706999999995,206.69952000000004 243.34701999999996,206.45494000000002 L 240.56888999999995,206.24126 L 242.37599999999995,205.36450000000002 L 244.18310999999994,204.48774000000003 L 246.01401999999993,204.19945000000004 C 248.29045999999994,203.84099000000003 248.33022999999994,203.62190000000004 246.15921999999992,203.39947000000004 C 243.44892999999993,203.12179000000003 240.14536999999993,203.73670000000004 237.78227999999993,204.95870000000005 L 236.91987999999992,205.40466000000006 L 237.08445999999992,204.97578000000007 C 237.51763999999991,203.84692000000007 239.65817999999993,201.05961000000008 241.40975999999992,199.34358000000006 L 243.3558199999999,197.43701000000007 L 242.49151999999992,197.79864000000006 C 235.33725999999993,200.79204000000007 228.12577999999993,208.26310000000007 225.21068999999991,215.70151000000007 C 224.2541999999999,218.14218000000008 224.16649999999993,218.05253000000008 226.48311999999993,217.00212000000008 L 226.48311999999999,217.00212" id="path8159" style="fill:#000000;stroke-width:1"/>
</svg>
