<?xml version="1.0" encoding="UTF-8" standalone="no"?>
<svg xmlns:svg="http://www.w3.org/2000/svg" xmlns="http://www.w3.org/2000/svg" xmlns:sodipodi="http://sodipodi.sourceforge.net/DTD/sodipodi-0.dtd" xmlns:inkscape="http://www.inkscape.org/namespaces/inkscape" sodipodi:docname="palette_winter.svg" inkscape:version="1.1-dev (1:0.92.0+devel+202005080040+c5a9cc1)" id="svg12299" version="1.1" viewBox="0 0 132.73117 66.157538" height="66.157539mm" width="132.73117mm">
    <defs id="defs12295" />
    <sodipodi:namedview inkscape:window-maximized="1" inkscape:window-y="0" inkscape:window-x="0" inkscape:window-height="1403" inkscape:window-width="2560" showgrid="false" inkscape:current-layer="layer1" inkscape:document-units="mm" inkscape:cy="124.04146" inkscape:cx="181.08573" inkscape:zoom="1.6947909" inkscape:pageshadow="2" inkscape:pageopacity="0.0" borderopacity="1.0" bordercolor="#666666" pagecolor="#ffffff" id="base" />
    <g transform="translate(304.35251,-443.81737)" id="layer1" inkscape:groupmode="layer" inkscape:label="Layer 1">
        <rect transform="matrix(0.48881543,0,0,0.48881546,-276.90768,419.76278)" style="display:inline;fill:#1b294b;fill-opacity:1;stroke:none;stroke-width:0.264583;stop-color:black" id="rect10-2" width="29.482143" height="25.702381" x="82.398811" y="76.351189" />
        <rect transform="matrix(0.48881543,0,0,0.48881546,-300.4221,393.93201)" style="display:inline;fill:#b8b8cb;fill-opacity:1;stroke:none;stroke-width:0.264583;stop-color:black" id="rect10-8" width="29.482143" height="25.702381" x="23.434523" y="102.05357" />
        <rect transform="matrix(0.48881543,0,0,0.48881546,-314.83342,434.06596)" y="102.05357" x="52.916664" height="25.702381" width="29.482143" id="rect10-8-9" style="display:inline;fill:#f7b445;fill-opacity:1;stroke:none;stroke-width:0.264583;stop-color:black" />
        <rect transform="matrix(0.48881543,0,0,0.48881546,-276.90768,408.12625)" style="display:inline;fill:#32174d;fill-opacity:1;stroke:none;stroke-width:0.264583;stop-color:black" id="rect10-8-9-6" width="29.482143" height="25.702381" x="82.398804" y="127.75595" />
        <rect transform="matrix(0.48881543,0,0,0.48881546,-277.28084,408.12625)" style="display:inline;fill:#512888;fill-opacity:1;stroke:none;stroke-width:0.264583;stop-color:black" id="rect10-8-4-4" width="29.482143" height="25.702381" x="52.916664" y="127.75595" />
        <rect transform="matrix(0.48881543,0,0,0.48881546,-306.4203,407.19906)" style="display:inline;fill:#778ba5;fill-opacity:1;stroke:none;stroke-width:2.23037;stroke-linecap:round;stroke-linejoin:round;stroke-opacity:1;paint-order:markers stroke fill;stop-color:black" id="rect1565-7" width="29.482143" height="25.702381" x="82.398804" y="102.05357" />
        <rect y="127.75595" x="52.916664" height="25.702381" width="29.482143" id="rect10-8-4-4-3" style="display:inline;fill:#7e39da;fill-opacity:1;stroke:none;stroke-width:0.264583;stop-color:black" transform="matrix(0.48881543,0,0,0.48881546,-292.00898,408.12625)" />
        <rect transform="matrix(0.48881543,0,0,0.48881543,-291.69218,419.76278)" y="76.351189" x="82.398811" height="25.702381" width="29.482143" id="rect10-2-8-6" style="display:inline;fill:#32527b;fill-opacity:1;stroke:none;stroke-width:0.264583;stop-color:black" />
        <rect transform="matrix(0.48881543,0,0,0.48881543,-330.219,406.49573)" style="display:inline;fill:#dfe2de;fill-opacity:1;stroke:none;stroke-width:0.264583;stop-color:black" id="rect10-2-0-6-0" width="29.482143" height="25.702381" x="52.916672" y="76.351189" />
        <rect transform="matrix(0.48881543,0,0,0.48881543,-262.86952,434.06596)" y="102.05357" x="23.434523" height="25.702381" width="29.482143" id="rect10-8-7-6" style="display:inline;fill:#1b1b1b;fill-opacity:1;stroke:none;stroke-width:0.264583;stop-color:black" />
        <rect transform="matrix(0.48881543,0,0,0.48881543,-262.49638,434.06596)" style="display:inline;fill:#100c08;fill-opacity:1;stroke:none;stroke-width:0.264583;stop-color:black" id="rect10-8-9-0-4" width="29.482143" height="25.702381" x="52.916664" y="102.05357" />
        <rect transform="matrix(0.48881543,0,0,0.48881543,-263.18633,434.06596)" style="display:inline;fill:#1f262a;fill-opacity:1;stroke:none;stroke-width:0.264583;stop-color:black" id="rect10-8-1-4-9" width="29.482143" height="25.702381" x="-6.0476246" y="102.05357" />
        <rect transform="matrix(0.48881543,0,0,0.48881543,-343.65609,382.07163)" style="display:inline;fill:#83c7df;fill-opacity:1;stroke:none;stroke-width:2.23037;stroke-linecap:round;stroke-linejoin:round;stroke-opacity:1;paint-order:markers stroke fill;stop-color:black" id="rect1565-9-2-9-9" width="29.482143" height="25.702381" x="111.88095" y="153.45833" />
        <rect y="153.45833" x="111.88095" height="25.702381" width="29.482143" id="rect1565-9-2-9-9-6" style="display:inline;fill:#ebb0d7;fill-opacity:1;stroke:none;stroke-width:2.23037;stroke-linecap:round;stroke-linejoin:round;stroke-opacity:1;paint-order:markers stroke fill;stop-color:black" transform="matrix(0.48881543,0,0,0.48881543,-343.65609,422.39839)" />
        <rect style="display:inline;fill:#414a4c;fill-opacity:1;stroke:none;stroke-width:0.264583;stop-color:black" id="rect10-2-8-6-0" width="29.482143" height="25.702381" x="82.398811" y="76.351189" transform="matrix(0.48881543,0,0,0.48881543,-291.69218,406.49573)" />
        <rect transform="matrix(0.48881543,0,0,0.48881543,-276.90768,406.49573)" y="76.351189" x="82.398811" height="25.702381" width="29.482143" id="rect10-2-8-6-0-6" style="display:inline;fill:#36454f;fill-opacity:1;stroke:none;stroke-width:0.264583;stop-color:black" />
        <rect y="153.45833" x="111.88095" height="25.702381" width="29.482143" id="rect6160" style="display:inline;fill:#bedfe4;fill-opacity:1;stroke:none;stroke-width:2.23037;stroke-linecap:round;stroke-linejoin:round;stroke-opacity:1;paint-order:markers stroke fill;stop-color:black" transform="matrix(0.48881543,0,0,0.48881543,-359.04165,382.07163)" />
        <rect transform="matrix(0.48881543,0,0,0.48881543,-320.83165,422.39839)" style="display:inline;fill:#e6197d;fill-opacity:1;stroke:none;stroke-width:2.23037;stroke-linecap:round;stroke-linejoin:round;stroke-opacity:1;paint-order:markers stroke fill;stop-color:black" id="rect6162" width="29.482143" height="25.702381" x="111.88095" y="153.45833" />
        <rect y="153.45833" x="111.88095" height="25.702381" width="29.482143" id="rect6164" style="display:inline;fill:#960145;fill-opacity:1;stroke:none;stroke-width:2.23037;stroke-linecap:round;stroke-linejoin:round;stroke-opacity:1;paint-order:markers stroke fill;stop-color:black" transform="matrix(0.48881543,0,0,0.48881543,-306.1035,422.39839)" />
        <rect transform="matrix(0.48881543,0,0,0.48881543,-343.65609,395.56253)" style="display:inline;fill:#a76bcf;fill-opacity:1;stroke:none;stroke-width:2.23037;stroke-linecap:round;stroke-linejoin:round;stroke-opacity:1;paint-order:markers stroke fill;stop-color:black" id="rect6166" width="29.482143" height="25.702381" x="111.88095" y="153.45833" />
        <path id="path5467" fill-opacity="1" fill="black" class="selected" d="m 259.375,16.25 c -132.32,0 -239.78,107.46 -239.78,239.78 0,132.32 107.46,239.783 239.78,239.783 132.32,0 239.78,-107.462 239.78,-239.782 0,-132.32 -107.46,-239.78 -239.78,-239.78 z" transform="matrix(0.06691062,0,0,0.07896672,-205.05357,448.73016)" style="display:inline;fill:none;stroke:black" />
        <path id="path5469" fill-opacity="1" fill="white" class="" d="m 292.875,36.656 c 26.563,4.015 51.57,12.708 74.156,25.25 l -58.124,147.124 c -14.573,-7.215 -30.96,-11.344 -48.312,-11.53 z" transform="matrix(0.06691062,0,0,0.07896672,-205.05357,448.73016)" style="display:inline;fill:none;stroke:black" />
        <path id="path5471" fill-opacity="1" fill="black" class="" d="m 225.155,36.75 23.97,161.22 c -17.2,1.56 -33.28,6.986 -47.313,15.436 l -51,-151 c 22.616,-12.698 47.696,-21.54 74.344,-25.656 z" transform="matrix(0.06691062,0,0,0.07896672,-205.05357,448.73016)" style="display:inline;fill:none;stroke:black" />
        <path id="path5473" fill-opacity="1" fill="white" class="" d="m 418.405,101.25 c 17.683,18.164 32.28,39.32 42.94,62.688 l -107.658,85.468 c -8.9,-14.076 -20.863,-26.014 -34.968,-34.875 l 99.686,-113.28 z" transform="matrix(0.06691062,0,0,0.07896672,-205.05357,448.73016)" style="display:inline;fill:none;stroke:black" />
        <path id="path5475" stroke-width="3" stroke-opacity="1" stroke="black" fill-opacity="1" fill="#4a4a4a" class="" d="m 99.313,102.313 93.187,117.373 c -13.318,9.978 -24.317,22.88 -32.063,37.75 l -103.937,-91.436 c 10.527,-23.725 25.082,-45.226 42.813,-63.688 z" transform="matrix(0.06691062,0,0,0.07896672,-205.05357,448.73016)" style="display:inline;fill:none;stroke:black" />
        <path id="path5477" stroke-width="3" stroke-opacity="1" stroke="black" fill-opacity="1" fill="white" class="" d="m 478.063,218.219 c 2.105,12.286 3.218,24.92 3.218,37.81 0,11.49 -0.882,22.768 -2.56,33.783 l -107.876,16.062 c -0.463,-17.028 -4.757,-33.097 -12,-47.375 l 119.22,-40.28 z" transform="matrix(0.06691062,0,0,0.07896672,-205.05357,448.73016)" style="display:inline;fill:none;stroke:black" />
        <path style="display:inline;fill:none;stroke:black" id="path5479" stroke-width="3" stroke-opacity="1" stroke="black" fill="url(#gradient-8)" class="" d="m 40.25,221.093 115.844,45.75 c -4.918,12.077 -7.81,25.224 -8.188,39 l -107.844,-16.03 c -1.678,-11.016 -2.562,-22.295 -2.562,-33.783 0,-11.89 0.954,-23.554 2.75,-34.936 z" transform="matrix(0.06691062,0,0,0.07896672,-205.05357,448.73016)" />
        <path id="path5481" stroke-width="3" stroke-opacity="1" stroke="black" fill-opacity="1" fill="white" class="" d="m 170.813,310.623 h 177.125 l 119.062,23.909 c -31.674,83.843 -112.62,143.376 -207.625,143.376 -95.018,0 -175.968,-59.548 -207.625,-143.406 l 119.063,-23.875 z" transform="matrix(0.06691062,0,0,0.07896672,-205.05357,448.73016)" style="display:inline;fill:none;stroke:black" />
    </g>
</svg>
