<?xml version="1.0" encoding="UTF-8" standalone="no"?>
<svg xmlns:osb="http://www.openswatchbook.org/uri/2009/osb" xmlns:dc="http://purl.org/dc/elements/1.1/" xmlns:cc="http://creativecommons.org/ns#" xmlns:rdf="http://www.w3.org/1999/02/22-rdf-syntax-ns#" xmlns:svg="http://www.w3.org/2000/svg" xmlns="http://www.w3.org/2000/svg" xmlns:sodipodi="http://sodipodi.sourceforge.net/DTD/sodipodi-0.dtd" xmlns:inkscape="http://www.inkscape.org/namespaces/inkscape" sodipodi:docname="ul.svg" inkscape:version="1.1-dev (1:0.92.0+devel+202004150043+bc69992)" id="svg1467" version="1.1" viewBox="0 0 129.90612 71.193067" height="269.07617" width="490.98376">
    <defs id="defs1461">
        <inkscape:perspective id="perspective1217" inkscape:persp3d-origin="103.9344 : -18.942471 : 1" inkscape:vp_z="207.86881 : 3.5914174 : 1" inkscape:vp_y="0 : 999.99996 : 0" inkscape:vp_x="0 : 3.5914174 : 1" sodipodi:type="inkscape:persp3d" />
        <linearGradient osb:paint="solid" id="linearGradient1691">
            <stop id="stop1689" offset="0" style="stop-color:#502d16;stop-opacity:1;" />
        </linearGradient>
        <linearGradient gradientUnits="userSpaceOnUse" y2="70.859451" x2="228.29134" y1="70.859451" x1="129.3744" gradientTransform="scale(1.4315041,0.69856592)" id="gradient-4">
            <stop id="stop1923" stop-opacity="1" stop-color="#ffffff" offset="0%" />
            <stop id="stop1925" stop-opacity="1" stop-color="#c9c9c9" offset="100%" />
        </linearGradient>
        <linearGradient gradientUnits="userSpaceOnUse" gradientTransform="scale(1.3021721,0.76794765)" id="gradient-10" y2="342.47125" y1="282.57135" x2="301.80344" x1="301.80344">
            <stop id="stop1928" stop-opacity="1" stop-color="#fff" offset="0%" />
            <stop id="stop1930" stop-opacity="1" stop-color="#9b9b9b" offset="100%" />
        </linearGradient>
        <linearGradient gradientUnits="userSpaceOnUse" gradientTransform="scale(1.3038405,0.76696499)" id="gradient-11" y2="325.96011" y1="299.8833" x2="48.318794" x1="48.318794">
            <stop id="stop1933" stop-opacity="1" stop-color="#000000" offset="0%" />
            <stop id="stop1935" stop-opacity="1" stop-color="#000000" offset="100%" />
        </linearGradient>
    </defs>
    <sodipodi:namedview inkscape:document-rotation="0" inkscape:snap-global="false" units="px" id="base" pagecolor="#ffffff" bordercolor="#666666" borderopacity="1.0" inkscape:pageopacity="0.0" inkscape:pageshadow="2" inkscape:zoom="1.3421572" inkscape:cx="108.84159" inkscape:cy="37.072028" inkscape:document-units="px" inkscape:current-layer="layer1" showgrid="false" inkscape:window-width="1920" inkscape:window-height="983" inkscape:window-x="1820" inkscape:window-y="1467" inkscape:window-maximized="1" />
    <metadata id="metadata1464">
        <rdf:RDF>
            <cc:Work rdf:about="">
                <dc:format>image/svg+xml</dc:format>
                <dc:type rdf:resource="http://purl.org/dc/dcmitype/StillImage" />
                <dc:title />
            </cc:Work>
        </rdf:RDF>
    </metadata>
    <g inkscape:label="Layer 1" inkscape:groupmode="layer" id="layer1" transform="translate(1949.3848,-218.64919)">
        <text id="text5558" y="106.33998" x="-1788.2684" style="font-size:2.82165px;line-height:1;font-family:'Cascadia Code';-inkscape-font-specification:'Cascadia Code';letter-spacing:0px;word-spacing:0px;stroke-width:0.264533" xml:space="preserve" transform="translate(-161.199,126.41071)"><tspan id="tspan944" style="stroke-width:0.264533" y="106.33998" x="-1788.2684" sodipodi:role="line">Pre-History -- Wandering the lands west of the large sea at the center of </tspan><tspan id="tspan937" style="stroke-width:0.264533" y="109.16163" x="-1788.2684" sodipodi:role="line">the peninsula, -- they would dub it a golden sea after witnessing one </tspan><tspan id="tspan952" style="stroke-width:0.264533" y="111.98328" x="-1788.2684" sodipodi:role="line">particularly reflective sunrise -- a traveling group of five shapeshifters...</tspan><tspan id="tspan954" style="stroke-width:0.264533" y="114.80493" x="-1788.2684" sodipodi:role="line" /><tspan id="tspan1014" style="stroke-width:0.264533" y="117.62658" x="-1788.2684" sodipodi:role="line">They would defeat the elder white dragon that guarded the icy mountain pass.</tspan><tspan id="tspan958" style="stroke-width:0.264533" y="120.44823" x="-1788.2684" sodipodi:role="line">Left with empty lands, they needed help in carving arable land out of the </tspan><tspan id="tspan962" style="stroke-width:0.264533" y="123.26988" x="-1788.2684" sodipodi:role="line">rocky expanse. The dwarves aided them.</tspan><tspan id="tspan998" style="stroke-width:0.264533" y="126.09153" x="-1788.2684" sodipodi:role="line" /><tspan id="tspan1039" style="stroke-width:0.264533" y="128.91318" x="-1788.2684" sodipodi:role="line">One went turncoat and aided the Xadgnians (or wrwym?, timeline?) - thus Ravens.</tspan><tspan id="tspan1041" style="stroke-width:0.264533" y="131.73483" x="-1788.2684" sodipodi:role="line" /><tspan id="tspan1000" style="stroke-width:0.264533" y="134.55649" x="-1788.2684" sodipodi:role="line">The area was called Ul, legend stating that it was derived from the </tspan><tspan id="tspan1002" style="stroke-width:0.264533" y="137.37813" x="-1788.2684" sodipodi:role="line">shapeshifters word meaning 'land between two peaks' (<tspan id="tspan1004" style="font-style:italic">l-<tspan id="tspan1006" style="font-style:normal">ul</tspan>-l</tspan>) and in time</tspan><tspan id="tspan1008" style="stroke-width:0.264533" y="140.19978" x="-1788.2684" sodipodi:role="line">the inhabitants would call themselves the Ulfaren, the lands' defenders. </tspan><tspan id="tspan994" style="stroke-width:0.264533" y="143.02144" x="-1788.2684" sodipodi:role="line" /><tspan id="tspan996" style="stroke-width:0.264533" y="145.84308" x="-1788.2684" sodipodi:role="line">True to their name, the society that emerged was deeply attached to the</tspan><tspan id="tspan1025" style="stroke-width:0.264533" y="148.66473" x="-1788.2684" sodipodi:role="line">land and to ritual. Modeling themselves after the heirarchy they observed</tspan><tspan id="tspan1027" style="stroke-width:0.264533" y="151.48639" x="-1788.2684" sodipodi:role="line">in nature, Ulfaren etc etc</tspan><tspan id="tspan323" style="stroke-width:0.264533" y="154.30803" x="-1788.2684" sodipodi:role="line" /><tspan id="tspan566" style="stroke-width:0.264533" y="157.12968" x="-1788.2684" sodipodi:role="line">Ul's gates remain open to travelers, though the Ulfaren are </tspan><tspan id="tspan167" style="stroke-width:0.2645" y="159.95132" x="-1788.2684" sodipodi:role="line">characteristically cautious of outsiders, preferring to keep to </tspan><tspan id="tspan5574" style="stroke-width:0.2645" y="162.77298" x="-1788.2684" sodipodi:role="line">their <tspan id="tspan1808" style="stroke-width:0.264533">own rather than deal with their neighboring human kingdoms </tspan></tspan></text>
        <g id="g363" transform="matrix(0.02194647,0,0,0.02194647,-1899.3116,218.42919)" style="fill:none;stroke:black;stroke-width:6.02792;stroke-miterlimit:4;stroke-dasharray:none;stroke-opacity:1">
            <path inkscape:connector-curvature="0" d="m 35.31,22.3 c -7.812,20.466 -13.172,42.343 -15.31,65.078 l 103.705,27.79 -4.838,18.052 -99.873,-26.763 c -0.012,0.954 -0.035,1.905 -0.035,2.86 0,14.055 1.196,27.83 3.48,41.23 h 94.146 v 18.687 h -90.192 c 3.368,13.324 7.83,26.207 13.29,38.547 l 79.184,-21.216 4.838,18.05 -75.64,20.27 c 5.994,11.096 12.817,21.67 20.396,31.636 l 61.933,-35.756 9.343,16.183 -59.22,34.192 c 7.782,8.728 16.18,16.885 25.132,24.4 l 44.73,-44.726 13.214,13.215 -43.055,43.052 c 8.963,6.406 18.374,12.215 28.186,17.357 l 28.734,-49.772 16.186,9.346 -27.987,48.472 c 12.545,5.367 25.63,9.697 39.156,12.87 0.99,3.566 2.08,7.103 3.25,10.593 -12.36,9.993 -24.163,20.49 -35.12,31.728 -4.458,-2.16 -9.46,-3.373 -14.75,-3.373 -18.707,0 -33.874,15.164 -33.874,33.873 0,1.715 0.13,3.402 0.377,5.05 2.02,-11.514 12.06,-20.265 24.153,-20.265 3.103,0 6.068,0.582 8.8,1.633 -10.103,12.102 -19.193,25.08 -26.906,39.23 13.897,-7.544 27.684,-15.755 41.15,-24.764 0.96,2.63 1.485,5.468 1.485,8.43 0,12.122 -8.796,22.184 -20.352,24.168 1.685,0.258 3.412,0.393 5.168,0.393 18.71,0 33.873,-15.168 33.873,-33.875 0,-4.17 -0.757,-8.16 -2.134,-11.848 10.033,-7.467 19.823,-15.43 29.26,-23.984 2.978,5.705 6.203,11.034 9.65,15.818 l -43.53,87.17 c 48.267,22.47 115.7,22.76 157.872,0 l -42.13,-84.36 c 3.722,-4.81 7.21,-10.25 10.426,-16.14 8.577,7.617 17.428,14.77 26.483,21.508 -1.375,3.685 -2.13,7.67 -2.13,11.836 0,18.707 15.165,33.873 33.874,33.873 1.758,0 3.486,-0.132 5.172,-0.39 -11.56,-1.983 -20.355,-12.045 -20.355,-24.168 0,-2.964 0.525,-5.805 1.49,-8.435 13.464,9.006 27.247,17.223 41.143,24.767 -7.71,-14.148 -16.78,-27.136 -26.877,-39.238 2.726,-1.045 5.682,-1.623 8.775,-1.623 12.09,0 22.13,8.75 24.15,20.262 0.246,-1.647 0.377,-3.332 0.377,-5.047 0,-18.71 -15.166,-33.873 -33.875,-33.873 -5.275,0 -10.268,1.205 -14.72,3.355 -10.007,-10.27 -20.74,-19.908 -31.946,-29.12 1.938,-5.52 3.658,-11.18 5.132,-16.886 7.91,-2.368 15.65,-5.14 23.2,-8.283 l -28.497,-49.356 16.186,-9.346 29.34,50.816 c 9.98,-5.11 19.555,-10.9 28.672,-17.308 l -44.146,-44.147 13.215,-13.216 45.926,45.922 c 9.145,-7.557 17.72,-15.785 25.666,-24.6 l -60.95,-35.19 9.343,-16.182 63.748,36.804 c 7.76,-10.087 14.746,-20.807 20.87,-32.07 l -77.93,-20.883 4.837,-18.05 81.534,21.847 c 5.588,-12.533 10.157,-25.625 13.584,-39.178 h -92.836 v -18.687 h 96.777 c 2.282,-13.4 3.48,-27.174 3.48,-41.23 0,-1.19 -0.025,-2.376 -0.044,-3.563 l -102.497,27.468 -4.836,-18.054 106.274,-28.476 c -2.18,-22.49 -7.52,-44.13 -15.254,-64.39 h -0.004 c -26.517,41.51 -83.592,73.934 -154.764,87.02 12.67,15.603 20.442,35.52 20.442,57.233 0,31.196 -15.723,58.718 -39.604,75 -21.27,-12.407 -42.907,-28.878 -45.52,-43.814 l 17.653,-3.81 -2.235,-10.352 c 15.67,-11.335 33.936,-9.138 53.433,-0.01 l -18.302,-40.414 -41.903,9.04 -2.846,-13.188 v -0.005 l -80.87,17.453 20.458,30.266 c -8.595,19.678 -2.717,41.68 5.45,58.56 -27.204,-15.57 -45.592,-44.998 -45.592,-78.73 0,-21.713 7.772,-41.63 20.44,-57.232 -71.168,-13.083 -128.242,-45.507 -154.76,-87.017 z" class="selected" fill="white" fill-opacity="1" stroke="black" stroke-opacity="1" stroke-width="1" id="path359" style="fill:none;stroke:black;stroke-width:6.02792;stroke-miterlimit:4;stroke-dasharray:none;stroke-opacity:1" />
            <path inkscape:connector-curvature="0" d="m 251.76,154.867 c 5.244,-0.056 9.98,3.573 11.13,8.9 1.312,6.085 -2.557,12.084 -8.644,13.397 -6.087,1.313 -12.085,-2.556 -13.398,-8.643 -1.314,-6.085 2.556,-12.086 8.642,-13.4 0.76,-0.163 1.52,-0.245 2.27,-0.253 z" class="" fill="white" fill-opacity="1" id="path361" style="fill:none;stroke:black;stroke-width:6.02792;stroke-miterlimit:4;stroke-dasharray:none;stroke-opacity:1" />
        </g>
        <g transform="translate(-170.97618,165.19052)" id="g1879">
            <g id="g1869">
                <path inkscape:connector-curvature="0" transform="matrix(0.05440215,0,0,0.05440215,-1722.6461,37.72537)" id="hammer_head" d="m 182.2797,361.7887 40.78315,-38.8411 40.39473,0.7768 -59.42687,59.8153 z" style="fill:none;fill-rule:evenodd;stroke:black;stroke-width:4;stroke-linecap:butt;stroke-linejoin:miter;stroke-miterlimit:4;stroke-dasharray:none;stroke-opacity:1" />
                <path transform="matrix(0.05440215,0,0,0.05440215,-1722.6461,37.72537)" sodipodi:nodetypes="cccc" inkscape:connector-curvature="0" id="path3101" d="m 282.25864,424.98103 -59.25563,-60.14496 14.19167,-14.31137 c 0,0 42.64504,40.9272 61.43775,61.15474" style="fill:none;stroke:black;stroke-width:4;stroke-linecap:butt;stroke-linejoin:miter;stroke-miterlimit:4;stroke-dasharray:none;stroke-opacity:1" />
                <path inkscape:connector-curvature="0" transform="matrix(0.05440215,0,0,0.05440215,-1722.6461,37.72537)" id="path3097" d="m 315.63012,428.24447 27.06329,26.37443 c 1.50068,8.3563 -1.93691,14.4081 -15.92484,15.5364 l -27.09363,-27.49802" style="fill:none;fill-rule:evenodd;stroke:black;stroke-width:4;stroke-linecap:butt;stroke-linejoin:miter;stroke-miterlimit:4;stroke-dasharray:none;stroke-opacity:1" />
            </g>
            <g id="g1864">
                <path inkscape:connector-curvature="0" transform="matrix(0.05440215,0,0,0.05440215,-1722.6461,37.72537)" sodipodi:nodetypes="ccccccc" id="sickle_handle" d="m 195.35219,429.6269 c -11.06856,7.3329 -23.04995,13.7529 -29.93663,25.2676 -3.93605,12.18 3.8262,17.4874 12.63381,16.4789 14.43702,-5.9976 18.91455,-18.9669 26.64086,-29.662 6.47299,-2.0605 11.75797,-4.9525 10.98592,-12.0845 8.35053,-6.6302 -6.54434,-18.4957 -9.33804,-9.0634 -5.95051,-0.4117 -9.42818,2.8859 -10.98592,9.0634 z" style="fill:none;fill-rule:evenodd;stroke:black;stroke-width:4;stroke-linecap:butt;stroke-linejoin:miter;stroke-miterlimit:4;stroke-dasharray:none;stroke-opacity:1" />
                <path inkscape:connector-curvature="0" transform="matrix(0.05440215,0,0,0.05440215,-1722.6461,37.72537)" sodipodi:nodetypes="ccccc" id="sickle_blade" d="m 216.77474,433.7466 c 72.96097,67.686 191.19997,-54.3681 40.09861,-142.8169 112.44686,124.9296 4.48228,163.23 -34.60565,124.6902 l -1.9668,-1.63414 -4.62475,5.20454" style="fill:none;fill-rule:evenodd;stroke:black;stroke-width:4;stroke-linecap:round;stroke-linejoin:miter;stroke-miterlimit:4;stroke-dasharray:none;stroke-opacity:1" />
            </g>
            <path inkscape:connector-curvature="0" style="fill:none;fill-rule:evenodd;stroke:black;stroke-width:1px;stroke-linecap:butt;stroke-linejoin:miter;stroke-opacity:1" d="m 206.052,420.49685 9.71027,9.71027" id="path5837" transform="matrix(0.05440215,0,0,0.05440215,-1722.6461,37.72537)" />
        </g>
        <g transform="matrix(0.39854654,0,0,0.15630775,-1177.4279,212.65382)" id="g1308">
            <path style="mix-blend-mode:darken;fill:#7e5b2d;fill-opacity:1;stroke:#502d16;stroke-width:3.9022;stroke-miterlimit:4;stroke-dasharray:none;stroke-opacity:1" id="path1130" stroke-width="1" stroke-opacity="1" stroke="black" fill-opacity="1" fill="white" class="selected" d="m 271.125,17.813 v 145.562 h 66.938 v -128.875 c -20.606,-10.187 -43.6,-15.728 -66.938,-16.688 z" transform="matrix(0.10170545,0,0,0.10170545,-1863.4522,44.460678)" inkscape:connector-curvature="0" />
            <path style="mix-blend-mode:darken;fill:#7e5b2d;fill-opacity:1;stroke:#502d16;stroke-width:3.9022;stroke-miterlimit:4;stroke-dasharray:none;stroke-opacity:1" id="path1132" fill-opacity="1" fill="white" class="" d="m 252.437,18.031 c -22.768,1.465 -45.25,7.305 -65.53,17.376 v 127.97 h 65.53 v -145.347 z" transform="matrix(0.10170545,0,0,0.10170545,-1863.4447,44.460678)" inkscape:connector-curvature="0" />
            <path style="mix-blend-mode:darken;fill:#7e5b2d;fill-opacity:1;stroke:#502d16;stroke-width:3.9022;stroke-miterlimit:4;stroke-dasharray:none;stroke-opacity:1" id="path1134" stroke-width="2" stroke-opacity="1" stroke="black" fill="url(#gradient-4)" class="" d="m 356.75,45.5 v 117.875 h 61.844 c -2.66,-48.27 -21.532,-83.515 -48.656,-107.53 -4.2,-3.72 -8.6,-7.17 -13.188,-10.345 z" transform="matrix(0.10170545,0,0,0.10170545,-1863.4596,44.460678)" inkscape:connector-curvature="0" />
            <path style="mix-blend-mode:darken;fill:#7e5b2d;fill-opacity:1;stroke:#502d16;stroke-width:3.9022;stroke-miterlimit:4;stroke-dasharray:none;stroke-opacity:1" id="path1136" stroke-width="2" stroke-opacity="1" stroke="black" fill-opacity="1" fill="black" class="" d="m 168.22,46.313 c -5.32,3.63 -10.403,7.6 -15.22,11.906 -27.108,24.233 -45.9,58.953 -48.656,105.155 h 63.875 v -117.062 z" transform="matrix(0.10170545,0,0,0.10170545,-1863.4596,44.460678)" inkscape:connector-curvature="0" />
            <path style="fill:#81878a;fill-opacity:1;stroke:#333;stroke-width:4.23214;stroke-miterlimit:4;stroke-dasharray:none;stroke-opacity:1" id="path1140" stroke-width="16" stroke-opacity="1" stroke="black" fill-opacity="1" fill="black" class="" d="m 438.156,181.813 v 0.25 h -353.376 v 32 h 353.376 v 0.156 h 20.844 v -32.407 h -20.844 z" transform="matrix(0.08567712,0,0,0.10170545,-1860.163,42.873177)" inkscape:connector-curvature="0" />
            <path style="mix-blend-mode:darken;fill:#7e5b2d;fill-opacity:1;stroke:#502d16;stroke-width:3.9022;stroke-miterlimit:4;stroke-dasharray:none;stroke-opacity:1" id="path1146" fill="url(#gradient-10)" class="" d="m 271.126,232.75 v 130.375 h 66.937 v -130.375 h -66.938 z" transform="matrix(0.10170545,0,0,0.10170545,-1863.4819,41.264111)" inkscape:connector-curvature="0" />
            <path style="mix-blend-mode:darken;fill:#7e5b2d;fill-opacity:1;stroke:#502d16;stroke-width:3.90215;stroke-miterlimit:4;stroke-dasharray:none;stroke-opacity:1" id="path1148" stroke-width="2" stroke-opacity="1" stroke="black" fill="url(#gradient-11)" class="" d="m 356.75,232.75 v 130.375 h 62.156 v -130.375 z" transform="matrix(0.10170681,0,0,0.10170681,-1863.4601,41.263795)" inkscape:connector-curvature="0" />
            <path style="fill:#81878a;fill-opacity:1;stroke:#333;stroke-width:4.23214;stroke-miterlimit:4;stroke-dasharray:none;stroke-opacity:1" id="path1156" stroke-width="0.5" stroke-opacity="1" stroke="black" fill-opacity="1" fill="white" class="" d="m 84.78,381.813 v 32 h 353.376 v 0.157 h 20.844 v -32 h -18.47 v -0.158 h -355.75 z" transform="matrix(0.08567712,0,0,0.10170545,-1860.163,39.698175)" inkscape:connector-curvature="0" />
            <path style="mix-blend-mode:darken;fill:#7e5b2d;fill-opacity:1;stroke:#502d16;stroke-width:3.9022;stroke-miterlimit:4;stroke-dasharray:none;stroke-opacity:1" id="path1158" stroke-width="0.5" stroke-opacity="1" stroke="black" fill-opacity="1" fill="white" class="" d="m 104,432.5 v 59.844 h 64.22 v -59.844 z" transform="matrix(0.10170545,0,0,0.10170545,-1863.4596,38.110674)" inkscape:connector-curvature="0" />
            <path style="mix-blend-mode:darken;fill:#7e5b2d;fill-opacity:1;stroke:#502d16;stroke-width:3.9022;stroke-miterlimit:4;stroke-dasharray:none;stroke-opacity:1" id="path1160" stroke-width="0.5" stroke-opacity="1" stroke="black" fill-opacity="1" fill="white" class="" d="m 186.906,432.5 v 59.844 h 65.53 v -59.844 z" transform="matrix(0.10170545,0,0,0.10170545,-1863.4594,38.110674)" inkscape:connector-curvature="0" />
            <path style="mix-blend-mode:darken;fill:#7e5b2d;fill-opacity:1;stroke:#502d16;stroke-width:3.9022;stroke-miterlimit:4;stroke-dasharray:none;stroke-opacity:1" id="path1162" stroke-width="0.5" stroke-opacity="1" stroke="black" fill-opacity="1" fill="white" class="" d="m 271.126,432.5 v 59.844 h 66.937 v -59.844 h -66.938 z" transform="matrix(0.10170545,0,0,0.10170545,-1863.4597,38.110674)" inkscape:connector-curvature="0" />
            <path style="mix-blend-mode:darken;fill:#7e5b2d;fill-opacity:1;stroke:#502d16;stroke-width:3.9022;stroke-miterlimit:4;stroke-dasharray:none;stroke-opacity:1" id="path1164" stroke-width="0.5" stroke-opacity="1" stroke="black" fill-opacity="1" fill="white" class="" d="m 356.75,432.5 v 59.844 h 62.156 v -59.844 z" transform="matrix(0.10170545,0,0,0.10170545,-1863.4596,38.110674)" inkscape:connector-curvature="0" />
            <path transform="matrix(-0.10170545,0,0,0.10170545,-1810.2549,41.264111)" d="m 271.126,232.75 v 130.375 h 66.937 v -130.375 h -66.938 z" class="" fill="url(#gradient-10)" id="path1146-6" style="mix-blend-mode:darken;fill:#7e5b2d;fill-opacity:1;stroke:#502d16;stroke-width:3.9022;stroke-miterlimit:4;stroke-dasharray:none;stroke-opacity:1" inkscape:connector-curvature="0" />
            <path transform="matrix(-0.10170545,0,0,0.10170545,-1810.2772,41.264111)" d="m 356.75,232.75 v 130.375 h 62.156 v -130.375 z" class="" fill="url(#gradient-11)" stroke="black" stroke-opacity="1" stroke-width="2" id="path1148-2" style="mix-blend-mode:darken;fill:#7e5b2d;fill-opacity:1;stroke:#502d16;stroke-width:3.9022;stroke-miterlimit:4;stroke-dasharray:none;stroke-opacity:1" inkscape:connector-curvature="0" />
        </g>
    </g>
</svg>
