<?xml version="1.0" encoding="UTF-8" standalone="no"?>
<svg
     xmlns:dc="http://purl.org/dc/elements/1.1/"
     xmlns:cc="http://creativecommons.org/ns#"
     xmlns:rdf="http://www.w3.org/1999/02/22-rdf-syntax-ns#"
     xmlns:svg="http://www.w3.org/2000/svg"
     xmlns="http://www.w3.org/2000/svg"
     xmlns:sodipodi="http://sodipodi.sourceforge.net/DTD/sodipodi-0.dtd"
     xmlns:inkscape="http://www.inkscape.org/namespaces/inkscape"
     inkscape:version="1.1-dev (1:0.92.0+devel+202003241343+2742de5)"
     sodipodi:docname="bear.svg"
     id="svg6"
     width="72.01"
     viewBox="8.9 77 188.4 119.2"
     version="1.1"
     height="45.6">
    <metadata
         id="metadata10">
        <rdf:RDF>
            <cc:Work
                 rdf:about="">
                <dc:format>image/svg+xml</dc:format>
                <dc:type
                     rdf:resource="http://purl.org/dc/dcmitype/StillImage" />
            </cc:Work>
        </rdf:RDF>
    </metadata>
    <sodipodi:namedview
         inkscape:current-layer="svg6"
         inkscape:window-maximized="1"
         inkscape:window-y="27"
         inkscape:window-x="0"
         inkscape:cy="22.7"
         inkscape:cx="36.01"
         inkscape:zoom="18.11"
         showgrid="false"
         id="namedview8"
         inkscape:window-height="983"
         inkscape:window-width="1920"
         inkscape:pageshadow="2"
         inkscape:pageopacity="0"
         guidetolerance="10"
         gridtolerance="10"
         objecttolerance="10"
         borderopacity="1"
         bordercolor="#666666"
         pagecolor="#ffffff" />
    <defs
         id="defs2" />
    <path
         style="fill:none;stroke:#000000;stroke-width:0.999372;stroke-miterlimit:4;stroke-dasharray:none;stroke-opacity:1"
         id="path4"
         fill="#000000"
         d="m 196.6,122.6 c -0.6,-1.1 -2.7,-2.5 -3.7,-3.5 -1,-1.1 -1.4,-2.8 -2.6,-3.9 -1.3,-1.3 -2.5,-1.8 -3.1,-3.8 -0.3,-1 -0.1,-1.9 -0.5,-2.9 -0.3,-0.8 -0.8,-1.5 -1.3,-2.2 -1.9,-2.9 -5,-5 -7.1,-7.78 -1.1,-1.4 -2.4,-2.22 -3.7,-3.36 -0.5,-0.35 -1.7,-1.04 -1.9,-1.51 -0.4,-0.63 0.1,-1.97 0.2,-2.73 0.3,-2.41 0.3,-6.83 -2.8,-7.59 -3.5,-0.87 -3.5,5.25 -5.7,6.06 -0.1,-0.87 -2.8,-1.16 -3.6,-0.8 -0.1,0 -0.4,-0.15 -0.7,-0.19 0,-0.25 -0.1,-0.5 0,-0.76 -0.2,0 -0.4,0.1 -0.5,0.15 -0.3,-0.32 -0.8,-0.2 -1.3,0.1 0.1,-0.75 -0.5,-0.86 -0.9,-0.44 -0.2,-0.13 0,-0.23 -0.2,-0.34 -0.4,0.32 -0.9,0.45 -1,-0.17 -0.5,-0.23 -1.1,-0.1 -1.5,0.29 -0.1,-0.27 -0.4,-0.32 -0.4,-0.39 -0.9,-0.96 -1.6,-0.52 -2.2,0 -0.1,-0.15 -0.1,-0.32 -0.1,-0.47 -0.2,0.15 -0.5,0.15 -0.8,0.48 0,-0.1 -0.2,-0.2 -0.2,-0.29 -0.3,0.14 -0.4,0.37 -0.4,0.63 l -0.3,-0.23 c -0.1,-0.31 -0.2,-0.67 -0.3,-0.87 -0.1,0.24 -0.5,0.56 -0.6,0.8 -0.4,-0.1 -0.1,-0.18 -0.6,0.1 -0.4,-0.34 -0.6,-0.77 -0.7,-1.19 -0.7,0.14 -1.8,0.27 -2.3,0.58 -0.2,-0.42 -0.5,-0.51 -0.7,-0.92 -0.5,0.37 -1,0.37 -1.3,-0.18 -0.4,0.25 -1,0.62 -1.4,0.22 -0.5,0.27 -1,0.1 -1.3,-0.32 -0.6,0 -2.1,0.77 -2.1,-0.34 -0.2,0.1 -0.4,0 -0.6,0.13 -0.1,-0.35 -0.3,-0.69 -0.2,-1.07 -0.7,0.61 -1.2,0.71 -2.1,0.47 0.1,-0.23 0,-0.61 0,-0.85 -0.4,0.14 -0.6,0.58 -1,0.91 0,-0.13 0,-0.23 0,-0.34 -0.4,0.27 -0.6,0.62 -1.1,0.77 -0.2,0 -0.6,-0.24 -0.8,-0.33 0,0 0,-0.33 0,-0.39 -1,0 -2.6,-0.29 -3.2,0.44 0,-0.14 0.2,-0.25 0.3,-0.35 l -0.4,-0.11 c -0.2,-0.25 -0.4,-0.33 -0.5,-0.7 -0.2,0 -0.4,0.1 -0.5,0.13 0,-0.81 -0.9,-0.95 -1.4,-0.3 -0.3,-0.42 -0.8,-0.37 -1.2,0.1 -0.2,-0.52 -0.5,-0.53 -0.9,-0.1 -0.2,-0.22 -0.6,-0.25 -0.8,-0.48 -0.3,0.37 -0.4,0.27 -0.8,0.39 -0.3,0.28 -0.6,0.37 -1,0.39 0,-0.28 -0.1,-0.66 -0.1,-0.92 -0.3,0.4 -0.6,0.85 -1,1.16 -0.1,-0.24 -0.5,-0.47 -0.6,-0.72 -0.1,0 -0.3,0.19 -0.4,0.27 -0.1,-0.1 -0.1,-0.24 -0.2,-0.35 -0.1,0.1 -0.4,0.28 -0.5,0.47 -0.2,-0.34 -0.5,-0.66 -0.9,-0.89 -0.2,0.37 -0.5,0.61 -0.7,0.89 -0.1,-0.28 -0.3,-0.43 -0.4,-0.7 -0.1,0 -0.2,0.18 -0.3,0.27 -0.1,-0.1 -0.3,-0.23 -0.4,-0.23 -0.4,0.59 -1.1,0.4 -1.6,0.1 -0.3,0.57 -0.9,0.7 -1.3,0.2 -0.5,0.68 -1.4,0.29 -1.8,0.91 -0.3,-0.27 -0.7,-0.4 -0.9,-0.63 -0.1,0.15 -0.2,0.31 -0.3,0.47 -0.2,-0.52 -0.5,-1.09 -0.9,-1.4 0,0.54 0,1.16 -0.4,1.49 -0.3,-0.33 -0.6,-0.68 -0.8,-1.04 -0.1,0.22 -0.4,0.43 -0.5,0.72 -0.1,0 -0.3,0 -0.4,0 0,-0.23 -0.1,-0.49 -0.1,-0.75 0,0 -0.2,0.37 -0.3,0.56 -0.3,-0.34 -0.5,-0.33 -0.4,-0.85 -0.5,0.14 -0.9,0.62 -1.1,1.06 -0.1,-0.13 -0.2,-0.18 -0.3,-0.35 -0.4,0.24 -0.7,0.22 -1.1,0.28 0,-0.2 -0.1,-0.49 -0.1,-0.7 -1,0 -2.8,-0.52 -3.4,0.2 -0.8,-0.76 -1.66,0.29 -2.12,-0.75 -0.36,0.15 -0.72,0 -1.11,-0.11 0.1,-0.14 0.13,-0.35 0.19,-0.47 -0.57,0.25 -1.25,0.18 -1.86,0.1 0.25,-0.19 0.19,-0.42 0.31,-0.61 -0.33,0.1 -0.76,0 -1.07,0 0.19,-0.29 0.25,-0.57 0.43,-0.84 -0.57,0.44 -1.36,0 -2,0.29 0,-0.19 -0.15,-0.29 -0.2,-0.45 -0.19,0.2 -0.6,0.3 -0.79,0.52 -0.13,-0.42 -0.28,-0.42 -0.22,-0.81 -0.46,0.43 -0.88,1.16 -1.55,1.15 0,-0.11 0,-0.33 0,-0.45 -0.25,0.27 -0.5,0.43 -0.73,0.72 0,-0.35 -0.15,-0.73 -0.22,-1.02 0,0.56 -0.54,0.95 -0.41,1.35 l -0.58,-0.4 c 0.1,-0.4 0,-0.86 -0.1,-1.29 -0.18,0.17 -0.52,0.32 -0.71,0.61 0,-0.22 -0.1,-0.47 -0.1,-0.67 -0.25,0.67 -0.72,1.07 -1.41,1.15 0,-0.28 -0.14,-0.66 -0.1,-0.94 -0.16,0.2 -0.44,0.34 -0.59,0.56 0.18,-0.39 0.1,-0.68 -0.19,-1.09 0,0.2 -0.49,0.82 -0.78,1.15 0,-0.14 -0.1,-0.29 -0.1,-0.44 -0.14,0.2 -0.34,0.33 -0.44,0.61 -0.1,-0.39 -0.2,-0.72 -0.19,-1.15 -0.43,0.31 -0.87,0.61 -1.22,0.97 0.34,-0.71 -0.3,-1.77 -0.5,-2.19 0.13,0.75 0,1.8 -0.88,1.92 0,-0.1 0,-0.42 0,-0.47 -0.27,0.4 -0.69,0.66 -1.16,0.67 0.19,-0.39 0.23,-0.8 0.14,-1.23 -0.19,0.61 -0.74,1.32 -1.55,0.93 0,-0.18 0,-0.36 0.1,-0.57 -0.35,0.33 -0.76,0.52 -1.24,0.5 0.22,-0.33 0.5,-0.81 0.53,-1.21 -0.52,0.63 -1.2,0.72 -1.94,0.94 0.11,-0.23 0.1,-0.47 0.27,-0.73 -0.54,0 -0.97,0.33 -1.41,0.63 0.1,-0.19 0.1,-0.48 0.18,-0.7 -0.79,0.1 -1.32,0.81 -2.07,0.84 0,-0.13 0,-0.22 -0.1,-0.34 -0.35,0.13 -0.74,0.19 -1.07,0.4 -0.1,-0.1 0,-0.25 -0.1,-0.34 -0.18,0.1 -0.53,0.1 -0.72,0.13 0,-0.34 -0.24,-0.39 -0.31,-0.61 -0.23,0.28 -0.62,0.47 -0.83,0.76 -0.2,-0.37 -0.54,-0.44 -0.77,-0.63 -0.1,0.1 -0.1,0.22 -0.1,0.33 -0.11,-0.14 -0.24,-0.27 -0.34,-0.42 -0.21,0.1 -0.38,0.1 -0.59,0.12 -0.1,-0.44 -0.15,-0.85 -0.22,-1.3 -0.55,0.98 -0.98,2.1 -2.29,1.96 0,-0.29 -0.14,-0.67 -0.1,-0.96 -0.16,0.14 -0.53,0.28 -0.68,0.52 0,-0.11 0,-0.24 -0.1,-0.34 -0.28,0.24 -0.68,0.49 -0.92,0.77 0,-0.19 -0.1,-0.4 -0.1,-0.59 -0.17,0.27 -0.53,0.62 -0.67,0.92 -0.11,-0.1 -0.1,-0.15 -0.13,-0.23 -0.16,0.33 -0.53,0.53 -0.73,0.77 -0.1,-0.11 -0.3,-0.27 -0.36,-0.35 -0.2,0.49 -0.57,0.89 -1.1,0.91 0,-0.57 0,-1.16 -0.29,-1.69 -0.18,0.27 -0.48,0.54 -0.58,0.89 -0.11,0.1 -0.1,-0.17 -0.13,-0.18 -0.1,0.17 -0.31,0.39 -0.46,0.56 -0.1,-0.22 -0.34,-0.42 -0.42,-0.62 -0.15,0.42 -0.36,0.82 -0.68,1.13 -0.1,-0.2 -0.28,-0.27 -0.34,-0.61 -0.19,0.3 -0.42,0.86 -0.63,1.15 0,-0.29 -0.27,-0.54 -0.33,-0.75 -0.1,0.18 -0.25,0.4 -0.32,0.62 -0.1,-0.27 -0.28,-0.53 -0.33,-0.77 -0.1,0.34 -0.3,0.63 -0.35,0.96 -0.1,0.1 -0.14,-0.1 -0.24,-0.1 -0.44,0.1 -0.39,0.24 -0.52,0.28 -0.11,-0.2 -0.35,-0.44 -0.43,-0.58 0,0.18 0,0.39 0,0.58 -0.24,-0.44 -0.49,-0.89 -0.59,-1.39 -0.16,0.39 -0.25,0.78 -0.34,1.21 -0.1,-0.19 -0.32,-0.29 -0.42,-0.57 -0.11,0.28 -0.25,0.72 -0.29,1.09 0,-0.32 -0.2,-0.71 -0.29,-0.94 0,0.66 -0.22,1.24 -0.29,1.88 l -0.33,-0.71 c 0,-0.1 0,-0.27 0,-0.35 0,0.14 -0.27,0.32 -0.33,0.53 -0.1,-0.1 -0.43,-0.67 -0.64,-0.93 -0.1,0 -0.5,0.11 -0.54,0.13 0,0.27 -0.15,0.66 -0.1,0.97 -0.23,0 -0.28,0 -0.45,-0.1 0,0.15 -0.2,0.44 -0.25,0.59 -0.2,-0.23 -0.64,-0.86 -0.7,-0.93 0.1,0.43 0.1,0.85 0.1,1.26 -0.47,-0.67 -1.64,-0.22 -1.46,0.7 -0.2,0 -0.29,0 -0.45,-0.1 -0.15,0.16 -0.1,0.31 -0.16,0.44 -0.1,0.1 -0.27,0.19 -0.34,0.56 -0.21,-0.23 -0.65,-0.37 -0.87,-0.54 0,0.25 -0.13,0.53 0,0.85 -0.13,0 -0.31,0 -0.48,-0.1 -0.24,1.72 -1.56,1.01 -2.29,2.13 -0.18,-0.1 -0.34,0 -0.49,-0.1 0,0.29 -0.11,0.44 0,0.75 -0.65,-0.34 -1.46,-0.29 -1.94,0.27 0,0.11 0.1,0.22 0.1,0.3 -0.68,-0.1 -1.01,0.47 -1.44,0.76 -0.1,0 0,0.27 0,0.34 -0.14,0 -0.31,-0.1 -0.47,-0.1 -0.1,0.22 -0.1,0.35 -0.15,0.58 -0.33,0.34 -0.4,0.36 -0.44,0.91 -0.71,0 -2.56,-0.39 -1.84,0.97 -0.16,0 -0.31,0.1 -0.45,0.1 -0.33,0.25 -0.73,0.71 -0.73,1.26 -0.74,-0.28 -2.09,0.63 -1.94,1.49 -0.2,0 -0.38,0.17 -0.58,0.2 0.1,0.17 0,0.51 0.14,0.7 -0.55,-0.1 -0.86,0.25 -0.83,0.8 -0.19,0.1 -0.53,0.2 -0.72,0.22 -0.1,0 0.16,0.13 0.11,0.19 -0.29,0 -0.38,0.1 -0.58,0.22 0.14,0.22 0,0.47 0.13,0.68 -0.25,0 -0.45,0.19 -0.72,0.2 0,0.61 -0.42,1.02 -0.58,1.64 -0.2,-0.1 -0.52,0 -0.73,-0.1 0.15,0.6 -0.17,1 -0.19,1.7 -0.39,0.2 -0.47,0.6 -0.29,0.9 l -0.1,0.6 c -0.82,-0.2 -2.38,1 -2.56,1.9 0.13,0 0.24,0 0.35,0.1 -0.54,0.8 -1.12,1.3 -1.5,2.1 -0.38,0.9 -0.64,1.9 -1.01,2.7 -0.36,0.9 -0.81,1.8 -1.06,2.7 -0.13,0.4 -0.18,0.7 -0.36,1.2 -0.18,0.4 -0.4,0.8 -0.5,1.2 0.13,0.1 0.23,0 0.35,0.1 -0.28,1.1 -0.44,2 -1.02,3.2 -0.5,1 -1.36,2.6 -1.16,3.8 0.1,0 0.1,0 0.1,-0.1 -0.14,1 -0.73,1.9 -0.86,2.9 0.14,-0.1 0.27,-0.2 0.39,-0.3 -0.38,1.1 -0.95,2.2 -1.07,3.3 0.13,-0.1 0.22,-0.2 0.34,-0.3 -0.64,0.8 -0.77,2.1 -0.78,3 0.1,0 0.1,-0.1 0.2,-0.1 -0.2,0.4 -0.43,0.8 -0.62,1.3 0.13,-0.1 0.3,-0.1 0.43,-0.1 0,0.9 -0.5,1.4 -0.83,2.2 0.22,-0.2 0.58,-0.3 0.82,-0.5 -0.21,0.6 -0.32,1.2 -0.65,1.7 0.21,-0.1 0.25,0 0.43,0 0.1,-0.1 0.11,-0.2 0.19,-0.2 -0.35,0.6 -0.38,1.1 -0.53,1.7 0.1,0 0.22,-0.2 0.25,-0.2 -0.24,1 -0.32,2.1 -0.55,3.1 0.19,-0.3 0.44,-0.5 0.62,-0.8 -0.11,0.3 0,0.6 -0.1,0.9 0.38,-0.3 0.69,-0.8 1.02,-1.1 0.1,1.1 -0.58,2.6 -1.22,3.5 0.15,-0.1 0.4,-0.1 0.54,-0.2 -0.1,0.4 -0.5,1.1 -0.63,1.3 0,0.5 -0.83,1 -1.08,1.6 0.1,0 0.19,-0.1 0.27,-0.2 -0.14,0.5 -0.52,0.9 -0.67,1.2 0.17,0 0.4,0 0.58,-0.1 0.1,0.6 -0.48,0.9 -0.76,1.4 0.34,-0.1 0.74,-0.3 1.08,-0.4 -0.2,0.8 -0.98,1.5 -1.76,1.6 0,0 0,0.3 0,0.3 0.69,0.1 1.41,-0.1 1.94,-0.4 -0.44,0.4 -0.99,0.7 -1.5,0.9 0.68,0.2 1.41,0.1 1.94,-0.4 -0.81,0.8 -1.3,1.9 -2.66,2 0.9,0.6 2.65,0.3 3.34,-0.6 -0.35,0.7 -1.08,1.2 -1.71,1.5 0.32,-0.1 0.64,0 0.96,0 -0.71,0.5 -1.55,1 -2.57,1 0.62,0.3 1.25,0.4 1.95,0.3 -0.2,0.2 -0.33,0.5 -0.4,0.6 0.78,0 1.44,-0.4 2.07,-0.9 -0.78,1.5 -2.42,2 -3.25,2.7 l 2.53,-1 c -0.45,0.3 -1.1,1 -1.53,1.3 -0.74,0.4 -1.64,0.6 -2.44,1.1 0.76,0.5 1.94,-0.2 2.79,-0.5 -0.33,0.2 -1.16,0.7 -1.69,1 0.93,-0.1 1.75,-0.5 2.53,-1 -0.95,0.7 -2.07,1.8 -3.2,2.3 0.71,0.1 1.57,-0.3 2.19,-0.8 -0.44,0.4 -0.91,0.8 -1.41,1.1 0.99,0.1 1.67,-0.4 2.38,-1 -1.1,1.1 -2.41,2.1 -3.58,3 0.4,-0.1 0.71,-0.1 1.07,-0.2 -0.1,0.1 -0.18,0.2 -0.27,0.3 0.59,-0.2 1.21,-0.6 1.71,-1 -0.77,0.8 -1.49,1.7 -2.3,2.4 0.29,-0.2 0.65,-0.3 0.93,-0.5 -0.14,0.2 -0.31,0.3 -0.43,0.4 0.65,-0.1 1.31,-0.5 1.81,-1 -0.29,0.6 -0.83,1 -1.37,1.4 0.92,-0.2 1.88,-0.7 2.49,-1.4 -1.07,1.2 -2.27,2.5 -3.64,3.4 0.43,-0.1 0.82,-0.2 1.2,-0.3 -0.24,0.1 -0.47,0.5 -0.69,0.7 0.86,-0.1 1.55,-0.6 2.19,-1.2 -0.3,0.3 -0.63,0.7 -0.9,1 0.5,0 0.93,-0.2 1.29,-0.6 -0.92,0.9 -1.89,2.1 -3.07,3 0.63,0 1.17,-0.3 1.69,-0.6 -0.38,0.5 -0.91,0.9 -1.39,1.3 0.5,0.1 1.02,0 1.44,-0.3 -0.3,0.3 -0.69,0.6 -1.02,0.9 0.22,-0.1 0.57,-0.1 0.81,-0.3 -0.16,0.3 -0.34,0.7 -0.68,0.9 0.22,-0.1 0.5,0 0.72,-0.1 -0.42,0.6 -0.98,1.1 -1.53,1.5 0.29,0 0.57,0 0.86,-0.1 -0.38,0.5 -1.06,0.8 -1.65,1.2 0.48,0 0.96,-0.1 1.42,-0.1 -0.29,0.2 -0.5,0.4 -0.79,0.6 0,0.1 0.2,0.1 0.24,0.2 -0.1,0.1 -0.24,0 -0.22,0.2 0.22,0 0.52,0.1 0.73,0 -0.5,0.8 -1.21,1.2 -1.85,1.8 0.27,-0.1 0.57,0 0.82,-0.1 -0.25,0.6 -0.93,1.1 -1.5,1.5 0.45,0 0.86,-0.1 1.18,-0.4 -0.35,0.7 -1.06,1.2 -1.51,1.7 0.15,0 0.31,0 0.47,-0.1 -0.19,0.2 -0.43,0.5 -0.64,0.7 0.43,0.4 -0.39,0.8 -0.58,1.4 0.19,0 0.4,0 0.59,0 -0.11,0.5 -0.66,1 -1.15,1.3 0.3,0.1 0.54,0.2 0.99,0.2 -0.16,0.5 -1.11,1.1 -0.92,1.3 l -0.49,0.4 c -0.25,0.3 -0.63,0.7 -1.07,0.9 0.15,0.1 0.25,0.3 0.5,0.4 -0.11,0.1 -0.24,0.2 -0.36,0.3 0.11,0.3 0.25,0.2 0.4,0.3 0,0.1 -0.2,0.2 -0.1,0.3 0.1,0 0.22,0 0.35,0 -0.18,1.1 0.21,2.8 0.55,3.5 1.01,1.7 2.52,2.2 4.3,2.5 3.75,1 7.86,1.2 11.85,0.9 0.29,0 0.58,0 0.86,0 0,0 0,0 0,0 0.53,0.8 0.78,1.7 1.01,2.5 0.45,-0.8 0.35,-1.7 0,-2.7 0.64,-0.2 1.26,-0.3 1.9,-0.4 0.86,0.9 1.36,2.1 1.27,3.5 0.72,-0.8 0.63,-2.6 0.1,-3.9 0.24,0 0.48,-0.1 0.72,-0.1 0.27,-0.1 0.54,-0.1 0.85,-0.1 0.19,0.1 0.36,0.2 0.54,0.3 0.83,0.9 1.44,1.7 1.79,3 0.29,-1.4 -0.15,-2.5 -0.8,-3.5 0.27,0 0.53,0 0.78,0 0.94,0.1 0.91,0 1.67,-0.3 v 0 c 1.21,1.1 1.51,2 1.65,3.8 1.06,-1.2 0.31,-2.8 -0.83,-4.1 1.17,-1.1 -0.86,-2.7 -1.65,-3.2 -1.49,-1.1 -4.17,-1 -5.45,-2.3 -0.67,-0.6 -0.97,-1.7 -1.36,-2.6 0.3,-0.6 0.45,-1.3 0.69,-2 0,0.1 0,0.3 0.1,0.4 0.5,-0.5 0.91,-1 1.12,-1.7 0,0.2 0,0.3 0.1,0.5 1.13,-1.1 0.94,-2.5 1.8,-3.5 0,0.2 -0.1,0.4 -0.1,0.6 0.82,-1.1 1.74,-2.3 2.48,-3.5 0,0.1 0.13,0.2 0.18,0.4 0.1,-0.3 0.35,-0.6 0.45,-0.9 0,0.2 0.1,0.4 0,0.7 0.92,-1 1.21,-2 1.66,-3.1 0.1,0.3 0.2,0.5 0.2,0.9 0.19,-0.4 0.33,-2.1 0.33,-2.8 0.18,0.6 0.34,1.2 0.36,1.8 0.11,-0.9 0.73,-1.5 0.99,-2.3 0.28,-0.8 0.31,-1.6 0.74,-2.5 0,1.1 -0.69,1.9 -0.73,3 0.49,-1 1.21,-2 1.57,-3 0.1,0.9 -0.19,1.8 -0.73,2.5 0.83,-0.9 1.42,-2.2 1.31,-3.6 0,0.7 0.16,1.4 0,2 0.64,-0.6 0.82,-1.7 0.83,-2.6 0,0.4 0,0.7 0.1,1 0.24,-0.6 0.63,-1.4 0.47,-2.4 0.28,0.5 0.43,1.2 0.39,1.8 0.52,-2.2 0.4,-4.7 1.7,-6.9 0.1,0.5 0.1,1 0.13,1.5 0.22,-1.2 0.4,-2.5 1.29,-3.5 -0.34,1 -0.71,2.3 -0.28,3.4 0.33,-0.8 -0.11,-3 1.3,-3.5 0.1,0.1 0,0.3 0,0.3 0.11,-0.2 0.38,-0.4 0.44,-0.5 0.36,0.7 0.24,1.6 0.2,2.4 0.41,-0.6 0.48,-1.4 0.59,-2 0.35,1.3 -0.5,3.2 -1.18,4.4 1.45,-1 1.15,-3.8 2.19,-4.7 l 0.48,0.3 c -0.14,0.8 -0.59,1.5 -0.45,2.4 0.15,-0.3 0.43,-0.9 0.46,-1 0.18,0.8 -0.16,1.6 0,2.4 0.2,-0.6 0.43,-1.4 0.86,-1.9 -0.18,0.9 0.11,2.1 0.24,3.1 0.1,-0.2 0.2,-0.3 0.3,-0.5 0,0.4 0.1,0.7 0,1.1 0.82,0.6 0.1,3.9 -0.14,4.9 -0.31,1.5 -1.03,2.9 -2.22,4 0.24,-0.1 0.69,-0.2 0.93,-0.3 0.1,0.7 -0.36,1.1 0,1.6 -1.99,3.1 -1.62,6.7 1.71,8.9 1.36,0.9 3.48,1.1 5.01,1.8 1.75,0.7 3.39,1 5.22,1.6 1.61,0.5 10.11,1.4 11.64,0.3 0.35,-0.2 0.68,-0.6 0.88,-1 0.13,0.1 0.25,0.1 0.34,0.1 0.95,0.4 1.46,1.1 1.45,2.1 0.63,-0.6 0.22,-1.7 -0.33,-2.3 -0.39,-0.4 -0.81,-0.6 -1.27,-0.7 0,-0.3 0,-0.5 -0.13,-0.6 1.16,0.1 2.57,1 2.85,1.8 0.22,-1.4 -0.82,-2 -1.94,-2.3 0.2,-0.2 0.43,-0.4 0.62,-0.6 0.53,0.2 0.92,0.6 0.91,1.3 0.55,-0.6 0.15,-1.3 -0.53,-1.8 0.1,-0.2 0.2,-0.3 0.25,-0.4 -0.1,-0.1 -0.18,-0.2 -0.28,-0.3 0.49,0.2 0.91,0.6 1.04,1.1 0.11,-1.3 -0.92,-1.8 -1.93,-1.8 -1.17,-0.6 -2.62,-0.7 -3.93,-0.8 -1.95,-0.2 -4.18,-3.1 -4.36,-4.7 0.29,0.5 0.62,0.9 0.91,1.3 0,-0.5 -0.1,-0.9 -0.27,-1.3 0.11,0.2 0.25,0.4 0.34,0.6 0,-0.3 0.11,-0.4 0.1,-0.7 0.1,0.3 0.25,0.6 0.34,0.9 0.38,-0.6 0.13,-1.7 0.1,-2.4 0.28,0.4 0.53,0.9 0.63,1.5 0.55,-1 -0.25,-2.1 -0.22,-3.2 0.15,0.8 0.87,1.3 1.01,2.1 0,-0.8 -0.28,-1.4 -0.53,-2.1 0.3,0.4 0.55,0.8 0.86,1.2 0,-0.5 -0.19,-1 -0.1,-1.5 0.13,0.3 0.4,0.6 0.52,0.9 0.27,-0.7 0.15,-1.8 0.14,-2.5 0.19,0.7 0.59,1.3 0.63,2 0.41,-0.6 0.24,-1.8 0,-2.5 0,0.1 0.39,0.7 0.54,0.9 0,-0.2 0,-0.5 0,-0.7 0,0.3 0.25,0.6 0.31,0.9 0.54,-0.8 0.33,-2.1 -0.1,-2.9 0.31,0.5 0.76,0.8 1.01,1.4 0.23,-0.4 0.24,-0.9 0.15,-1.4 0,0.3 0.13,0.4 0.19,0.6 0.22,-0.8 0.45,-2.1 0.25,-3 0.14,0.4 0.33,0.8 0.58,1.1 0,-0.8 0,-1.7 -0.38,-2.3 0.59,0.6 1.51,1.6 1.18,2.6 1.06,-1.1 0.59,-2.9 0.5,-4.3 0.1,0.6 0.42,1 0.69,1.5 0,-0.4 0,-0.8 0,-1.1 0.1,0.1 0.24,0.3 0.28,0.4 0.28,-0.7 0,-2 -0.1,-2.9 0.11,0.2 0.4,0.8 0.44,0.9 0.18,-0.7 0,-1.5 0,-2.2 0.1,0.5 0.46,1 0.59,1.5 0,-0.2 0,-0.5 0,-0.7 0.1,0.2 0.32,0.3 0.43,0.6 0.23,-0.4 0.22,-1 0.13,-1.5 0.13,0.4 0.34,0.5 0.53,0.8 0,-0.4 0,-0.8 -0.19,-1.2 0.11,0.3 0.3,0.4 0.44,0.7 0.19,-0.8 0.1,-2.1 -0.14,-2.8 0.2,0.4 0.38,0.8 0.55,1.2 0.45,-1.3 -0.28,-3.1 -0.53,-4.4 0.55,0.7 1.25,1.2 1.54,2.1 -0.1,-0.9 0.1,-2.1 -0.68,-2.8 0.49,0 0.79,0.4 0.93,0.9 -0.19,-0.7 -0.73,-1.3 -0.35,-2 0.21,0.4 0.44,0.9 0.78,1.2 0.24,-0.6 -0.1,-1.2 0.29,-1.8 0,0.6 0.1,1.2 0.25,1.7 0.58,-0.7 0.58,-1.8 1.37,-2.5 -0.18,0.5 0,1.2 -0.25,1.7 0.69,-0.8 0.76,-1.9 1.06,-2.9 0.59,0.4 0.62,1.9 0.29,2.7 0.45,-1 0.87,-1.9 0.97,-2.9 0.16,0.3 0.3,0.6 0.32,1.1 0.29,-0.4 0.58,-1.2 0.65,-1.4 0,0.7 0.24,1.4 -0.15,2.1 0.46,-0.8 1.09,-1.6 1.16,-2.2 0.24,1.4 -0.69,2.3 -0.81,3.5 0.55,-1.2 1.04,-2.2 1.4,-3.5 0.21,1.6 -0.14,3 -1.15,4.2 0.62,-0.6 1.65,-1.2 2.28,-2 -0.44,0.8 -0.86,1.5 -1.61,2.2 -0.74,0.6 -1.74,0.9 -2.18,1.8 1.22,-0.8 2.82,-1.5 3.72,-2.8 -0.53,1.2 -1.56,1.9 -2.76,2.7 0.98,-0.1 1.85,-0.9 2.63,-1.4 -0.58,0.7 -0.88,1.5 -1.57,2.1 -0.72,0.6 -1.66,0.9 -2.2,1.8 1.11,-1.1 2.46,-1.3 3.5,-2.6 -0.45,0.7 -1.01,1.2 -1.61,1.7 1.03,0 1.79,-0.8 2.56,-1.4 -0.38,0.6 -0.78,1.2 -1.26,1.8 0.63,-0.2 1.39,-0.5 1.84,-1 -0.95,1.5 -1.7,2.6 -3.33,3.5 1.35,-0.5 2.87,-0.9 3.75,-2.2 -0.3,0.6 -1.21,1.4 -1.67,1.7 0.92,0 1.71,-0.2 2.53,-0.5 -0.35,0.3 -0.84,0.6 -1.28,0.9 0.48,0 0.79,-0.1 1.17,-0.3 -0.44,0.5 -1.12,0.8 -1.54,1.2 0.48,0 0.96,0 1.35,-0.3 -0.71,1.6 -3.39,1.1 -3.98,2.9 1.22,-0.7 2.15,-1.3 3.6,-1.5 -1.02,0.4 -2.19,1.3 -2.48,2.7 0.98,-0.8 1.55,-2 2.84,-2.5 -0.34,0.5 -0.79,1 -1.16,1.4 0.43,-0.3 0.97,-0.5 1.32,-0.7 -0.38,0.4 -0.71,1 -1.15,1.3 0.44,0.1 0.81,0 1.13,-0.2 -0.67,0.8 -2.14,0.8 -2.46,1.9 0.48,-0.4 1.01,-0.7 1.61,-0.8 -0.22,0.1 -0.83,0.7 -0.95,1.2 0.68,-0.3 1.49,-0.4 2.08,-0.7 -0.34,1.5 -2.08,2 -2.67,3.5 0.64,-0.6 1.51,-1.3 2.46,-1.1 -0.52,1.5 -2.87,2.2 -3.82,3.6 0.79,-0.7 1.59,-1.3 2.7,-1.3 -0.3,0.7 -1.81,1.6 -2.47,2.2 0.66,-0.3 1.36,-0.6 2.03,-1 -0.28,0.4 -0.72,0.8 -1.13,1.1 0.41,-0.3 0.9,-0.6 1.4,-0.8 -0.35,1 -1.35,1.6 -2.08,2.3 0.53,-0.3 1.06,-0.6 1.64,-0.8 -0.35,0.5 -0.92,0.8 -1.26,1.2 0.69,0 1.4,0 1.94,-0.4 -0.33,0.5 -0.93,0.9 -1.39,1.1 0.63,0.1 1.21,-0.2 1.71,-0.5 -0.38,1.2 -1.51,1.6 -2.6,2.2 0.88,-0.2 1.83,-0.4 2.7,-0.9 -0.2,0.4 -0.39,0.7 -0.77,0.9 0.27,0 0.44,0.1 0.71,0.1 -0.13,0.1 -0.3,0.4 -0.45,0.5 0.19,0 0.43,0 0.62,0 -0.11,0.4 -0.49,0.7 -0.88,1 0.33,-0.1 0.72,0 1.05,0 -0.25,0.4 -0.54,0.9 -0.97,1.2 0.19,0 0.36,0 0.57,-0.1 -0.15,0.2 -0.25,0.6 -0.52,0.8 0.14,0 0.32,0 0.44,0 -0.28,0.2 -0.53,0.5 -0.82,0.6 0.5,0 1.01,-0.1 1.45,-0.3 -0.28,0.1 -0.41,0.4 -0.65,0.6 0.16,0 0.4,0 0.55,0 -0.14,0.3 -0.1,0.5 -0.14,0.7 0.18,0 0.4,0.1 0.59,0 -0.1,0.3 0,0.7 0,0.9 0.15,-0.1 0.43,-0.1 0.58,-0.2 -0.13,0.6 -0.33,1.2 -0.99,1.5 0.4,-0.2 0.79,-0.2 1.21,-0.2 -0.1,0.4 -0.18,0.8 -0.25,1.2 0.13,0 0.32,-0.1 0.44,-0.1 -0.11,0.1 -1.01,0.6 -1.18,0.7 0.93,-0.4 0.77,0.4 0.25,0.8 0.81,-0.4 0.14,1.1 -0.53,1.5 l 1.36,-0.7 c -0.28,1 -1.5,1.5 -1.74,2.5 0.19,-0.1 0.4,-0.1 0.6,-0.1 -0.23,0.2 1.37,-0.6 1.26,-0.4 0,3.1 -0.27,5.9 6.33,5.6 1.7,-0.1 3.1,-0.1 4.8,-0.1 0.3,0 0.7,0 1.1,0 0.3,0.6 0.4,1.3 0.5,2 0.6,-0.6 0.6,-1.4 0.3,-2.1 0.5,-0.2 1,-0.4 1.4,-0.5 0.3,0.7 0.5,1.4 0.8,2.1 0.4,-1.3 0.3,-2 -0.1,-2.7 0.1,-0.1 0.2,-0.2 0.3,-0.5 0.5,0 1,0 1.5,-0.1 0.8,0.6 1.3,1.2 1.1,2.4 0.9,-0.7 0.6,-1.9 -0.1,-2.7 0.3,-0.3 0.5,-0.5 0.7,-0.9 0,-0.1 0.1,-0.2 0.1,-0.4 0.9,0.4 1.7,1.1 2.1,2 0.4,-1.2 -1,-2.6 -2.1,-3.2 -0.3,-0.6 -0.1,-1.2 -0.5,-1.6 -0.7,-0.8 -2.6,-1.4 -4,-1.4 -0.7,0 -2.6,-0.5 -2.8,-0.9 0,0 -0.3,-8 -0.2,-9.2 0.1,0.1 0.2,0.3 0.2,0.4 0.7,-1.3 1,-2.7 1.5,-4 0,0 0.2,0 0.3,0 0.3,-1.6 1.2,-3.1 1.6,-4.7 1,0.1 1.7,-4.9 2.1,-5.8 0.8,-1.8 2.1,-4.5 4.2,-5.3 -0.8,0.5 -1.4,1.1 -1.9,1.8 0.5,-0.3 1,-0.6 1.6,-0.9 -0.5,0.5 -1,1.1 -1.4,1.6 0.5,-0.3 1,-0.6 1.4,-1 -0.5,0.7 -0.9,1.4 -1.6,1.9 0.7,-0.2 1.4,-0.7 1.7,-1.1 -0.4,0.8 -1.1,1.3 -1.7,2 0.4,-0.1 0.8,-0.4 1.1,-0.7 -0.2,0.2 -0.4,0.5 -0.5,0.7 0.4,-0.2 0.9,-0.5 1.3,-0.9 -0.5,0.6 -0.9,1.3 -1.4,1.8 0.2,-0.1 0.5,-0.2 0.8,-0.4 -0.3,0.3 -0.5,0.6 -0.7,0.9 0.4,-0.1 0.8,-0.2 1.2,-0.5 -0.3,0.2 -0.5,0.5 -0.8,0.7 0.8,-0.3 1.4,-0.9 2,-1.5 -0.7,0.9 -1.2,1.6 -2.1,2.3 0.5,0 0.9,-0.3 1.2,-0.7 -0.2,0.3 -0.2,0.5 -0.5,0.8 0.3,-0.2 0.6,-0.3 1,-0.6 -0.2,0.1 -0.5,0.6 -0.7,0.8 0.2,-0.1 0.5,-0.1 0.7,-0.1 -0.2,0.3 -0.4,0.7 -0.7,0.9 0.4,-0.2 0.8,-0.3 1.1,-0.5 -0.3,0.4 -0.8,0.9 -1,1.1 0.3,-0.1 0.5,0 0.8,-0.1 0,0 0.1,-0.2 0.1,-0.2 -0.6,1 -1.9,1.6 -2.8,2.3 1.4,-0.5 2.6,-1.2 3.8,-2 -0.4,0.5 -0.8,1 -1.3,1.4 0.8,-0.2 1.7,-0.7 2.4,-1.1 -0.3,0.2 -0.5,0.5 -0.7,0.8 0.5,0 0.9,-0.2 1.3,-0.5 -0.2,0.3 -0.8,0.9 -1.2,1.2 0.7,-0.2 1.4,-0.5 2,-1 -0.1,1 -0.8,1.7 -1.6,2.3 0.8,-0.4 1.6,-0.8 2.2,-1.4 -0.7,0.8 -1.4,1.7 -2.2,2.1 0.8,-0.3 2.1,-0.6 2.8,-1.4 -0.5,0.7 -0.8,1.6 -1.3,2 0.4,-0.3 0.8,-0.5 1.2,-0.7 -0.5,1.1 -2.2,1.9 -3.3,2.4 1.5,0 2.6,-1.1 3.8,-1.7 -0.1,0.5 -0.5,0.8 -0.9,1.2 0.4,-0.3 0.9,-0.6 1.3,-0.8 -0.4,1 -1.7,1.7 -2.6,2.3 0.8,-0.4 1.6,-1 2.5,-1.4 -0.7,0.9 -1.5,1.6 -2.4,2.3 0.8,-0.5 1.5,-1.2 2.4,-1.5 -0.6,0.9 -1.4,1.6 -2.1,2.4 0.8,-0.4 1.5,-1 2.2,-1.6 -0.4,1 -1.5,1.6 -2.3,2.4 0.8,-0.3 1.5,-0.8 2.2,-1.2 -0.3,0.8 -0.9,1.3 -1.7,1.7 0.5,-0.3 1.2,-0.6 1.7,-0.9 -0.4,0.6 -0.8,1.1 -1.5,1.4 0.6,-0.1 1.2,-0.4 1.7,-0.7 -0.3,0.7 -0.9,1.3 -1.5,1.6 0.1,-0.1 0.3,-0.1 0.4,-0.1 -0.3,0.1 -0.7,0.4 -0.9,0.6 0.4,0 0.9,0 1.3,-0.2 -0.3,0.4 -0.8,0.6 -1.3,0.8 0.6,0 1.1,-0.2 1.6,0 l -0.2,0.4 c -0.5,0.1 -0.8,0.5 -0.7,1 0.7,-0.4 1.3,-0.8 2.1,-0.8 -0.2,0.2 -0.5,0.5 -0.8,0.6 0.7,0 1.1,-0.4 1.7,-0.6 -0.3,1 -1.7,1.9 -2.7,1.9 0.7,0.6 2.1,0.6 2.9,0.1 -0.3,0.8 -1.1,1.3 -1.3,2 0.8,-0.1 1.2,-0.6 1.7,-1.2 0,0.6 -0.5,1 -0.8,1.4 0.3,-0.2 0.6,-0.3 0.9,-0.5 -1.4,1.6 0.7,4.4 2.2,4.8 1.6,0.5 3.2,-0.3 4.9,0.4 1.9,0.7 3.8,0.7 5.8,0.9 1.3,0.1 4.4,0.4 5.5,-0.7 1.9,1 3.6,0.4 5.3,-1.1 0.3,-0.2 0.4,-0.3 0.5,-0.5 1.1,0.2 2,0.9 2,2.2 1.2,-1.6 -0.1,-2.7 -1.5,-3.1 0,-0.1 0,-0.1 -0.2,-0.2 0.5,0 0.9,-0.1 1.2,-0.2 0.9,0.2 1.3,0.8 1.6,1.8 0.6,-1.1 0,-2.1 -1.1,-2.8 -0.1,-0.2 -0.2,-0.4 -0.3,-0.6 -1.4,-1.5 -2.9,-1.8 -4.7,-2.1 -1.2,-0.2 -1.9,0.2 -3.1,0.2 -0.9,0 -2,-0.4 -3,-0.6 -2,-0.4 -3.2,-0.9 -3.2,-3.2 0,-1.6 0.6,-4.2 0.2,-5.5 v -0.8 c -0.8,-0.8 -0.4,-1.6 -0.5,-2.7 0,0 0.1,0 0.2,0 0,-1.6 -0.1,-2.9 0,-4.5 0.3,-1.7 -0.3,-3.1 -0.5,-4.6 -0.1,-1.5 0.3,-3.2 0.4,-4.7 0,-0.7 0.2,-1.4 0.2,-2.1 0.2,-0.8 0.2,-1.1 0,-1.9 0.2,0 0.3,0 0.4,0 0,-0.7 -0.1,-1.4 -0.1,-2 0,-0.7 0.2,-1.2 0.2,-1.9 0,0.2 0.2,0.3 0.4,0.5 0.1,-0.6 0.3,-1.2 0.3,-1.8 0.1,0.1 0.7,0.7 0.9,1.2 0.7,-0.8 0.1,-2.1 0.1,-3 0.3,0.3 0.5,0.7 0.6,1.2 0.1,-1 0.2,-1.9 0.1,-2.9 0,-0.5 -0.5,-1.1 -0.5,-1.6 0,-0.4 0.5,-0.5 0.4,-1.1 0.4,0.1 0.7,0.6 0.7,1 0.7,-1.4 -1.3,-3.5 -0.4,-4.8 0.1,0.4 0.4,0.8 0.7,1.2 0,-1.3 -0.4,-2.3 0.2,-3.5 0.1,0.2 0.3,0.3 0.4,0.7 0.6,-0.8 0.6,-1.3 0.6,-2.3 0,0 0.3,0 0.3,0 0.2,0.7 0.2,1.4 0.3,2.1 0.4,-0.7 0.5,-0.8 0.5,-1.4 0.1,-0.6 -0.4,-1.3 0,-1.9 0,0.1 0.1,0.3 0.2,0.4 0.2,-0.8 2.8,-3.1 3.8,-3 -0.1,0.4 -0.1,0.8 -0.1,1.2 0.9,-1.2 5.4,-3.7 6,-2.2 0,-0.2 0.1,-0.5 0.1,-0.7 0.8,-0.1 2.6,-0.1 3.4,0.2 -0.1,-0.1 -0.1,-0.3 -0.3,-0.4 0.5,0 0.9,0.3 1.3,0.6 0,0.2 0.1,0.4 0.2,0.7 0.4,-0.4 0.4,-1 0,-1.4 0.5,0.2 0.6,0.2 0.9,0.7 -0.1,-0.4 0,-0.8 -0.1,-1.1 0.4,0.1 0.9,0.4 1.1,0.8 -0.1,-0.4 -0.1,-0.5 -0.3,-0.9 1.1,0.5 1.2,1.5 0.8,2.4 1.1,-1.1 1.1,-1.7 0.5,-3.1 1.4,0.5 3.1,2.3 3.7,3.6 0.3,-0.5 0.2,-1.2 -0.3,-1.6 1.2,0.8 1.8,2.3 0.6,3.4 1.8,-0.5 2.1,-2.7 1.1,-3.8 1.2,0.7 2.5,2 1.3,3.7 1.3,-0.6 1.4,-1.7 1.7,-2.9 0.7,0.8 0.3,2 -0.4,2.8 0.7,-0.6 1.6,-0.9 2.2,-1.7 -0.1,0.6 -0.5,1.1 -1,1.5 0.9,-0.3 1.6,-1 2.4,-1.2 -0.1,0.1 -0.1,0.3 -0.1,0.5 0.2,-0.3 0.5,-0.4 0.7,-0.8 0.1,0.4 0.1,0.7 0,1 0.1,-0.3 0.5,-0.7 0.5,-0.7 0,0 0.1,1.1 0,1.4 0.7,-0.9 1.2,-1.7 2.2,-2 0.7,-0.2 3.1,0.5 1.7,0.9 0.2,0.1 0.4,0.2 0.7,0.2 0,0 0,0.3 0,0.4 0.8,-0.1 1.3,0.5 2,0.8 0,0.1 0,0.3 0,0.3 0.9,-0.1 4,1.3 4.7,1.6 6.6,2 6.4,-1.4 8.7,-2 1.3,-0.3 1.2,-1.5 2.6,-2.2 1.5,-0.4 2.7,-0.7 2.1,-1.8 M 89.36,81.62 c 0,0 0,-0.1 0.1,-0.15 0,0 0,0.1 -0.1,0.15" />
</svg>
