<?xml version="1.0" encoding="UTF-8" standalone="no"?>
<svg
     xmlns:dc="http://purl.org/dc/elements/1.1/"
     xmlns:cc="http://creativecommons.org/ns#"
     xmlns:rdf="http://www.w3.org/1999/02/22-rdf-syntax-ns#"
     xmlns:svg="http://www.w3.org/2000/svg"
     xmlns="http://www.w3.org/2000/svg"
     xmlns:sodipodi="http://sodipodi.sourceforge.net/DTD/sodipodi-0.dtd"
     xmlns:inkscape="http://www.inkscape.org/namespaces/inkscape"
     inkscape:version="1.1-dev (1:0.92.0+devel+202003131352+8c7fb13)"
     sodipodi:docname="running_wolf.svg"
     viewBox="0 0 194.2 98.23"
     height="98.23"
     width="194.2"
     id="svg1979"
     version="1.1">
    <metadata
         id="metadata1985">
        <rdf:RDF>
            <cc:Work
                 rdf:about="">
                <dc:format>image/svg+xml</dc:format>
                <dc:type
                     rdf:resource="http://purl.org/dc/dcmitype/StillImage" />
                <dc:title></dc:title>
            </cc:Work>
        </rdf:RDF>
    </metadata>
    <defs
         id="defs1983" />
    <sodipodi:namedview
         inkscape:current-layer="g1987"
         inkscape:window-maximized="1"
         inkscape:window-y="27"
         inkscape:window-x="0"
         inkscape:cy="44.88"
         inkscape:cx="82.5"
         inkscape:zoom="2.634"
         showgrid="false"
         id="namedview1981"
         inkscape:window-height="983"
         inkscape:window-width="1920"
         inkscape:pageshadow="2"
         inkscape:pageopacity="0"
         guidetolerance="10"
         gridtolerance="10"
         objecttolerance="10"
         borderopacity="1"
         bordercolor="#666666"
         pagecolor="#ffffff" />
    <g
         transform="translate(-81.35,-119)"
         id="g1987"
         inkscape:label="Image"
         inkscape:groupmode="layer">
        <path
             id="path2054"
             d="m 81.35,217 c 0.8,-0.3 9.2,-1.2 20.55,-2.3 13.3,-1.3 33.6,-2.4 51.2,-2.9 l 13.2,-0.4 1.6,-1.3 c 2,-1.6 5.6,-5.7 7.2,-8.2 5.6,-8.4 6.2,-17.1 1.8,-26.1 -1,-2.1 -2.1,-3.7 -4.3,-6.2 -3.3,-3.8 -12.9,-13.5 -13,-13.3 -0.3,0.2 1.9,6.4 3.6,10.2 2.8,6.2 6.4,12.3 11,18.6 1.7,2.4 2.3,3.3 2.1,3.9 -0.5,2 -2.2,6.2 -2.5,6.2 -0.2,0 -0.9,-0.6 -1.6,-1.2 -3.3,-3 -11.2,-9.3 -15,-12.1 -8.5,-6.3 -14.3,-9.5 -21.4,-11.8 -4.2,-1.4 -7.4,-3.3 -9.9,-6.1 -1.3,-1.5 -3.9,-6.2 -3.9,-7.1 0,-0.2 -0.1,-0.4 -0.2,-0.4 -0.2,0 -0.5,1.6 -0.7,3.6 -0.2,1.9 -0.4,3.6 -0.5,3.7 -0.4,0.4 -3.3,-1.6 -5,-3.5 -2.4,-2.5 -3.6,-4.6 -4.7,-8.1 l -0.9,-2.6 -0.2,1.3 c -0.1,0.7 -0.3,2 -0.4,2.9 -0.1,0.9 -0.3,1.7 -0.4,1.7 -0.4,0 -4.7,-4.7 -6.7,-7.3 -0.9,-1.2 -1.9,-2.3 -2.2,-2.3 -0.15,0 -1.95,0.5 -3.75,1 -1.9,0.5 -4.1,1.1 -4.9,1.2 -1.4,0.1 -1.7,0 -2.4,-0.7 -1.6,-1.6 -1.2,-2 3,-3.3 2.1,-0.7 3.8,-1.3 3.7,-1.4 -0.1,-0.1 -1.8,-0.3 -3.8,-0.4 -4.6,-0.3 -6.7,-0.9 -8.3,-2.5 -0.7,-0.7 -1.2,-1.5 -1.1,-1.8 0.1,-0.4 1.9,-1.4 6.4,-3.3 6,-2.6 6.3,-2.7 6.8,-3.9 0.7,-1.5 3.4,-4.1 5.05,-5 3.1,-1.5 9.8,-1.8 13.8,-0.7 l 2.2,0.7 5.2,-1.3 c 3,-0.7 5.4,-1.2 5.4,-1.2 0.4,0.4 -2.3,4.6 -4.4,6.7 -1.2,1.3 -2.2,2.5 -2.1,2.5 0.1,0 1.1,-0.4 2.1,-0.8 l 2,-0.8 2.1,1 c 4.5,2 8.9,2.6 15.7,2.1 12.4,-0.8 17.3,-1.8 30,-5.9 12.4,-3.9 13.1,-4.1 18.5,-4.1 4.4,0 5,0.1 7,0.9 3.3,1.2 5.5,2.7 8.7,5.8 3.6,3.5 5.6,5.1 9.1,7.2 l 2.7,1.6 h 5.1 c 7.4,0 12.4,-0.9 15.7,-2.9 l 1.3,-0.7 -0.3,1.4 c -0.2,1.5 -1,3.4 -2.1,5 -0.6,1 -0.6,1 -0.1,1 1.5,0 5.9,-1.3 8.4,-2.6 2.2,-1.1 3.3,-1.9 5.5,-4.1 1.7,-1.6 3.1,-3.4 3.6,-4.4 0.5,-0.9 1,-1.7 1.2,-1.8 0.5,-0.3 1.6,3.4 1.6,5.8 v 1.5 l 2.1,-1.6 c 5.6,-3.9 10.1,-9 13.2,-15 0.7,-1.3 1.4,-2.3 1.5,-2.1 0.1,0.1 0,1.6 -0.2,3.4 -2.2,21.4 -20.1,37.6 -41.7,37.6 -6.3,0 -12,-1.3 -17.9,-4.1 l -3.2,-1.5 -3.8,2 c -9.4,4.8 -15.7,10.1 -18.5,15.9 -2.4,4.9 -2.4,8.8 -0.3,18 l 0.7,2.9 -7.2,9 c -4,5 -7.3,9.1 -7.3,9.2 0,0 1.2,0.1 2.7,0.1 h 2.7 l 2.3,-2.9 c 1.4,-1.5 2.5,-2.8 2.7,-2.8 0.1,0 0.8,1.1 1.5,2.5 0.6,1.5 1.4,2.8 1.5,3 0.3,0.3 2.7,0.5 8.9,0.6 12.5,0.3 34.7,1.6 46.9,2.8 11.3,1.1 19.8,2 20.6,2.3 0.5,0.1 -41,0.2 -92.3,0.2 -51.3,0 -92.75,-0.1 -92.25,-0.2 z M 193.2,199 c -0.6,-0.2 -1.1,-0.4 -1,-0.6 0.1,-0.2 1.7,-2.2 3.5,-4.6 4.6,-5.8 5.2,-7.1 5.2,-11.1 0,-3.8 -0.6,-5.3 -3.6,-8.3 l -2.1,-2 2.1,-2 c 2.2,-2.1 5.8,-4.7 6.6,-4.7 0.2,0 0.4,0.2 0.3,0.3 -0.4,0.6 0.4,5.1 1.2,6.7 0.8,1.7 3.2,3.9 4.2,3.9 0.4,0 1.4,1.6 1.4,2.2 0,0.2 -1.1,1.8 -2.5,3.7 -3,3.7 -5.5,7.8 -7.3,11.8 -1.4,3 -2.3,3.9 -4.8,4.6 -1.7,0.5 -1.8,0.5 -3.2,0.1 z m -40.4,-0.8 c -1.5,-0.4 -4.3,-1.1 -6.1,-1.6 -1.9,-0.5 -3.4,-0.9 -3.5,-1 -0.1,-0.1 0.6,-1.6 1.5,-3.4 1.5,-3.1 3.6,-8.7 3.6,-9.9 0,-1.2 0.7,-1 5.5,2.1 1,0.7 1.8,1.3 1.8,1.4 0,0.3 -2.3,3.2 -4,5 l -1.7,1.8 1.3,0.2 c 0.8,0.1 3.5,0.3 6,0.5 2.6,0.2 4.8,0.4 4.8,0.5 0.3,0.3 -1.4,3.1 -2.3,3.8 -1.1,0.8 -2.8,1.4 -3.7,1.4 -0.3,0 -1.7,-0.4 -3.2,-0.8 z"
             style="fill:#000000;stroke-width:1" />
    </g>
</svg>
