<?xml version="1.0" encoding="utf-8" ?>
<svg baseProfile="full" height="508px" version="1.1" viewBox="-156.84549999999996,60.99492378465471,92.97862500000011,78.61506956775517" width="600px" xmlns="http://www.w3.org/2000/svg" xmlns:ev="http://www.w3.org/2001/xml-events" xmlns:xlink="http://www.w3.org/1999/xlink">
  <defs/>
  <path d="M -65.467685,139.30564 C -65.851005,139.13173 -66.966125,138.67249 -67.945735,138.28511 C -71.512945,136.87447 -71.639575,136.76503 -73.587595,133.40922 C -76.51161499999999,128.37208 -77.670565,127.16471 -81.40133499999999,125.26909 C -83.99924499999999,123.94907 -84.960535,123.70749 -90.867685,122.89004 C -93.873505,122.47408 -95.29267499999999,122.11928 -96.68894499999999,121.43468 L -97.786425,120.89657 L -99.08955499999999,119.7214 C -100.68651999999999,118.28126 -101.50563999999999,117.69647 -102.36567999999998,117.38253 L -103.02560999999999,117.14163 L -105.03902999999998,117.15803000000001 C -107.89330999999999,117.18123000000001 -110.34928999999998,117.51879000000001 -115.90559999999998,118.65143 C -123.52840999999998,120.20533 -125.85790999999998,120.51065 -131.36828999999997,120.67808000000001 L -134.62072999999998,120.77688 L -136.40183,120.52783000000001 C -137.38143,120.39085000000001 -138.91472,120.23590000000002 -139.80913999999999,120.18351000000001 C -140.70355999999998,120.13111 -142.19029999999998,119.99386000000001 -143.11299999999997,119.87849000000001 C -144.03569999999996,119.76313000000002 -144.92383999999998,119.71802000000001 -145.08664999999996,119.77825000000001 L -145.38265999999996,119.88775000000001 L -144.32693999999995,121.82069000000001 C -142.94811999999996,124.34521000000001 -141.63425999999995,126.45518000000001 -141.12228999999996,126.96716 L -140.71244999999996,127.37699 L -139.30837999999997,127.87924000000001 C -138.53614999999996,128.15547 -137.70564999999996,128.54866 -137.46282999999997,128.75298 L -137.02133999999998,129.12447 L -137.02133999999998,129.72013 C -137.02133999999998,130.04774 -137.08934,130.49456 -137.17237999999998,130.71307000000002 L -137.32342999999997,131.11034 L -137.93045999999998,131.11034 C -139.01735,131.11034 -142.71518999999998,129.76868000000002 -144.26935999999998,128.81043 L -144.93506999999997,128.39998 L -145.38788999999997,127.61431 C -145.63694999999996,127.18220000000001 -146.09277999999998,126.10192 -146.40085999999997,125.2137 C -147.25308999999996,122.75667 -147.98683999999997,121.84214 -149.86779999999996,120.89264 C -150.38856999999996,120.62976 -151.08747999999997,120.16819 -151.42093999999997,119.86693 L -152.02722999999997,119.31918 L -152.20828999999998,118.77056 C -152.85184999999998,116.82055 -151.08288,115.26398 -147.19351999999998,114.3579 L -145.77194999999998,114.02673 L -142.69970999999998,114.01153000000001 L -139.62745999999999,113.99633000000001 L -139.34025999999997,113.64200000000001 L -139.05304999999998,113.28766000000002 L -139.43928,112.26154000000001 L -139.82551,111.23542 L -139.97154,109.51831 C -140.05184,108.57391 -140.22119,106.40732 -140.34783000000002,104.70366 C -140.75432,99.235621 -141.16644000000002,97.616761 -143.20886000000002,93.465121 L -144.47090000000003,90.899751 L -144.92802000000003,90.62972099999999 L -145.38514000000004,90.35970099999999 L -146.12284000000002,90.35370099999999 C -146.52858000000003,90.35070099999999 -147.66089000000002,90.46578099999999 -148.63908000000004,90.60975099999999 L -150.41761000000002,90.87152099999999 L -151.17784000000003,90.770671 C -152.15108000000004,90.641561 -152.70748000000003,90.349751 -153.07107000000002,89.777761 C -153.23051,89.526911 -153.81399000000002,88.959981 -154.36768,88.517901 C -155.94256000000001,87.260491 -155.9949,87.42248099999999 -153.62995,86.234601 C -151.08185,84.95472099999999 -150.11529000000002,84.29404099999999 -148.86951000000002,82.980701 C -147.58165000000002,81.622991 -146.56511000000003,80.96013099999999 -144.06477,79.847691 L -142.20271,79.01923099999999 L -142.19971,78.464351 C -142.19871,78.15917099999999 -142.00811000000002,77.500311 -141.77732,77.000211 C -141.54652000000002,76.500121 -141.35769,75.847771 -141.35769,75.550551 L -141.35769,75.010151 L -141.83378,74.11692099999999 C -142.39142999999999,73.07065099999998 -143.36384999999999,72.03741099999999 -144.18707999999998,71.61642099999999 L -144.77074,71.31794099999999 L -147.59439999999998,71.00392099999999 C -153.33332,70.36569399999999 -155.99867999999998,69.56160399999999 -156.61147999999997,68.28363399999999 L -156.84549999999996,67.795594 L -156.84549999999996,66.923594 L -156.84549999999996,66.05158399999999 L -156.63244999999995,65.969884 L -156.41940999999994,65.888184 L -155.55067999999994,66.756914 L -154.68193999999994,67.625654 L -153.55670999999995,68.137824 C -152.93782999999996,68.419524 -152.27465999999995,68.699524 -152.08299999999994,68.760044 L -151.73451999999995,68.87008399999999 L -151.72751999999994,68.66605399999999 C -151.72351999999995,68.553834 -152.39382999999995,67.13781399999999 -153.21635999999995,65.51933399999999 L -154.71186999999995,62.576653999999984 L -154.78966999999994,61.86116399999998 L -154.86746999999994,61.14567399999998 L -154.68793999999994,61.034723999999976 C -154.39506999999995,60.85372399999998 -154.07877999999994,61.225423999999975 -152.58507999999995,63.50592399999998 C -150.77079999999995,66.27588399999998 -149.98809999999995,67.25181399999998 -149.32869999999994,67.56625399999999 L -148.79968999999994,67.81852399999998 L -148.40839999999994,67.64024399999998 L -148.01709999999994,67.46195399999998 L -148.01709999999994,67.14118399999998 C -148.01709999999994,66.76532399999998 -148.34471999999994,66.09302399999999 -148.98136999999994,65.16246399999999 C -149.78219999999993,63.991903999999984 -149.89518999999993,62.841233999999986 -149.24352999999994,62.49247399999999 L -148.94636999999994,62.33343399999999 L -148.64015999999995,62.49731399999999 C -148.21967999999995,62.72235399999999 -148.01541999999995,63.15166399999999 -147.76940999999997,64.327474 L -147.55936999999997,65.331344 L -147.00457999999998,66.043434 C -146.27605999999997,66.97852400000001 -145.21196999999998,67.84605400000001 -144.11315999999997,68.40072400000001 L -143.22470999999996,68.84921400000002 L -142.60622999999995,68.84921400000002 L -141.98774999999995,68.84921400000002 L -141.81772999999995,68.53153400000002 L -141.64771999999996,68.21385400000003 L -141.88971999999995,67.04362400000002 C -142.02282999999994,66.40000400000002 -142.13172999999995,65.70906400000003 -142.13172999999995,65.50822400000003 L -142.13172999999995,65.14304400000003 L -141.80908999999994,64.97036400000003 L -141.48644999999993,64.79769400000004 L -141.20555999999993,65.05189400000003 C -140.73657999999995,65.47632400000003 -140.55814999999993,66.60855400000003 -140.42408999999992,70.01080400000004 L -140.2959299999999,73.26323100000003 L -139.9102299999999,75.09061100000004 C -139.6980899999999,76.09567100000004 -139.4011899999999,77.10621100000004 -139.2504599999999,77.33627100000004 L -138.9763799999999,77.75455100000003 L -138.8553399999999,77.28999100000003 C -138.6861499999999,76.64064100000003 -137.7838199999999,75.19362100000004 -137.3872299999999,74.93566100000002 L -137.0567599999999,74.72070100000002 L -136.80643999999992,74.97102100000002 L -136.55611999999994,75.22134100000002 L -136.56011999999993,76.41058100000002 C -136.56211999999994,77.06466100000002 -136.63551999999993,77.91345100000002 -136.72316999999993,78.29677100000002 L -136.88244999999992,78.99372100000002 L -137.51649999999992,79.64225100000002 L -138.15054999999992,80.29078100000001 L -138.05954999999992,81.05893100000002 L -137.9685499999999,81.82708100000002 L -137.0286799999999,83.70201100000003 C -136.5117499999999,84.73322100000003 -135.8164399999999,86.25626100000002 -135.4835399999999,87.08655100000003 C -131.7391799999999,96.42553100000003 -126.9473399999999,101.01127000000002 -119.5656999999999,102.31976000000003 L -117.7386099999999,102.64364000000003 L -114.15544999999989,102.72604000000004 L -110.57229999999988,102.80844000000005 L -108.81215999999988,102.62517000000005 C -107.84407999999988,102.52436000000006 -105.97174999999987,102.19823000000005 -104.65140999999988,101.90044000000006 C -99.48032499999988,100.73412000000006 -100.12126999999988,100.78118000000006 -97.44957499999988,101.37158000000007 L -95.90079499999989,101.71383000000007 L -94.86698499999989,101.63113000000007 C -93.14679499999988,101.49357000000008 -92.19237499999988,100.68509000000007 -90.59622499999989,98.01343100000007 L -89.7831149999999,96.65244100000007 L -89.78511499999989,96.03162100000007 C -89.7861149999999,95.69017100000008 -89.98733499999989,94.83582100000007 -90.23195499999989,94.13306100000007 L -90.67671499999989,92.85532100000007 L -90.49374499999989,92.85532100000007 C -90.3931149999999,92.85532100000007 -89.77965499999989,93.20399100000007 -89.13050499999989,93.63015100000007 L -87.95023499999989,94.40499100000007 L -87.42165499999989,95.14021100000006 C -87.13094499999988,95.54459100000007 -86.80335499999988,96.10125100000006 -86.69370499999988,96.37723100000007 L -86.49432499999988,96.87902100000007 L -86.55632499999987,97.85347100000007 L -86.61832499999987,98.82792100000007 L -86.96846499999987,99.39446100000008 L -87.31860499999986,99.96100100000008 L -89.06372499999986,101.12315000000008 L -90.80885499999987,102.28531000000008 L -91.10204499999986,102.82973000000008 L -91.39523499999986,103.37415000000009 L -91.14774499999986,103.88394000000008 C -91.01162499999985,104.16433000000008 -90.55195499999986,104.82443000000008 -90.12625499999986,105.35084000000008 C -89.15724499999986,106.54907000000007 -88.89942499999985,107.26686000000008 -88.77953499999985,109.10012000000008 C -88.64282499999986,111.19058000000007 -88.32725499999985,112.38834000000007 -87.43649499999985,114.19760000000008 L -86.65106499999985,115.79294000000007 L -85.39048499999984,117.12478000000007 L -84.12989499999985,118.45661000000007 L -82.56482499999984,119.56536000000007 L -80.99974499999985,120.67412000000007 L -78.43718499999984,121.93985000000008 C -74.73844499999984,123.76678000000008 -74.53860499999985,123.98020000000008 -72.99793499999984,127.74883000000008 L -72.03531499999984,130.10349000000008 L -71.12478499999985,131.56463000000008 C -69.61664499999985,133.9848000000001 -67.87105499999984,135.5455100000001 -66.36731499999985,135.8182400000001 L -65.79619499999986,135.92182000000008 L -65.09362499999986,136.70325000000008 L -64.39106499999986,137.48467000000008 L -64.12896499999985,138.31612000000007 L -63.86687499999985,139.14758000000006 L -64.06643499999986,139.38803000000007 C -64.32922499999985,139.70468000000008 -64.62573499999985,139.68720000000008 -65.46709499999986,139.30553000000006 L -65.467685,139.30564" id="path3926" style="fill:#000000;stroke-width:1"/>
</svg>
