<?xml version="1.0" encoding="UTF-8" standalone="no"?>
<svg
     xmlns:dc="http://purl.org/dc/elements/1.1/"
     xmlns:cc="http://creativecommons.org/ns#"
     xmlns:rdf="http://www.w3.org/1999/02/22-rdf-syntax-ns#"
     xmlns:svg="http://www.w3.org/2000/svg"
     xmlns="http://www.w3.org/2000/svg"
     xmlns:sodipodi="http://sodipodi.sourceforge.net/DTD/sodipodi-0.dtd"
     xmlns:inkscape="http://www.inkscape.org/namespaces/inkscape"
     inkscape:version="1.1-dev (1:0.92.0+devel+202003241343+2742de5)"
     sodipodi:docname="viper.svg"
     id="svg18"
     width="57.42"
     viewBox="103.7 144.5 7.754 5.447"
     version="1.1"
     height="40.39">
    <metadata
         id="metadata22">
        <rdf:RDF>
            <cc:Work
                 rdf:about="">
                <dc:format>image/svg+xml</dc:format>
                <dc:type
                     rdf:resource="http://purl.org/dc/dcmitype/StillImage" />
            </cc:Work>
        </rdf:RDF>
    </metadata>
    <sodipodi:namedview
         inkscape:current-layer="svg18"
         inkscape:window-maximized="1"
         inkscape:window-y="27"
         inkscape:window-x="0"
         inkscape:cy="19.76"
         inkscape:cx="28.51"
         inkscape:zoom="14.46"
         showgrid="false"
         id="namedview20"
         inkscape:window-height="983"
         inkscape:window-width="1920"
         inkscape:pageshadow="2"
         inkscape:pageopacity="0"
         guidetolerance="10"
         gridtolerance="10"
         objecttolerance="10"
         borderopacity="1"
         bordercolor="#666666"
         pagecolor="#ffffff" />
    <defs
         id="defs2" />
    <path
         style="stroke-width:0.054;stroke-miterlimit:4;stroke-dasharray:none"
         id="path4"
         stroke-width="0.0809903"
         stroke="#000000"
         fill="none"
         d="m 108.5,149.8 c 1.2,-0.3 2,-0.9 2.3,-1.6 0.5,-1 0,-2 -1.1,-2.3 -0.7,-0.3 -1.2,-0.1 -1.8,0.4 l -0.2,0.2 v -0.2 c 0,0 0,-0.2 0,-0.3 0.1,-0.2 0,-0.1 -0.1,0.1 0,0.1 -0.1,0.4 -0.1,0.7 -0.1,1 -0.2,1.2 -0.5,1.3 -0.1,0.1 -0.5,0 -0.6,-0.1 -0.1,-0.1 -0.2,-0.1 -0.1,-0.1 0.3,0.2 0.7,0 0.8,-0.3 0.1,-0.2 0.1,-0.8 -0.1,-1.1 -0.2,-0.5 -1.1,-1.1 -1.7,-1.1 H 105 l -0.2,0.2 c -0.2,0.2 -0.3,0.2 -0.3,0.2 -0.1,-0.2 -0.1,-0.4 0,-0.6 0.1,-0.2 0.4,-0.3 1.1,-0.3 0.3,0 0.5,-0.1 0.5,-0.1 0,0 0,0 -0.1,0 -0.2,0 -0.2,-0.1 0,-0.2 0.2,-0.1 0.4,-0.1 0.9,-0.1 0.6,0 0.7,0 1.3,0.2 0.4,0.1 0.8,0.2 1.1,0.2 0.2,0.1 0.5,0.2 0.8,0.4 0.9,0.4 1.3,1.2 1.3,2.2 -0.1,1.3 -1.3,2.3 -2.9,2.4 h -0.4 l 0.4,-0.1" />
    <path
         style="stroke-width:0.054;stroke-miterlimit:4;stroke-dasharray:none"
         id="path6"
         stroke-width="0.0809903"
         stroke="#000000"
         fill="none"
         d="m 107.3,145.4 c 0.2,-0.2 0.2,-0.2 0,-0.1 -0.2,0.1 -0.4,0.1 -0.6,-0.1 -0.1,-0.1 -0.2,0 0,0.1 0.1,0.2 0.5,0.2 0.6,0.1 v 0" />
    <path
         style="stroke-width:0.054;stroke-miterlimit:4;stroke-dasharray:none"
         id="path8"
         stroke-width="0.0809903"
         stroke="#000000"
         fill="none"
         d="m 107.1,145.1 c 0,-0.1 0,-0.1 0.7,0.1 0.2,0 0.4,0.1 0.6,0.1 h 0.2 l -0.2,-0.1 c -0.2,0 -0.4,-0.1 -0.6,-0.2 -0.4,-0.1 -1,-0.2 -1.3,-0.1 -0.2,0.1 -0.2,0.2 0,0.1 0.4,-0.1 0.4,-0.1 0.4,0.2 0,0.1 0.1,0.1 0.1,0.1 0.1,-0.1 0.1,-0.1 0.1,-0.2 v 0" />
    <path
         style="stroke-width:0.054;stroke-miterlimit:4;stroke-dasharray:none"
         id="path10"
         stroke-width="0.0809903"
         stroke="#000000"
         fill="none"
         d="m 107.4,149.7 c 1.4,-0.6 2.1,-1.2 2,-2 0,-0.5 -0.4,-1 -1,-1.2 l -0.2,-0.1 0.2,-0.1 c 0.1,-0.1 0.4,-0.1 0.6,-0.1 0.7,0 1,0.1 1.3,0.5 0.4,0.4 0.5,0.9 0.2,1.4 -0.3,0.8 -1.2,1.3 -2.7,1.6 -0.8,0.2 -0.9,0.1 -0.4,0" />
    <path
         style="stroke-width:0.054;stroke-miterlimit:4;stroke-dasharray:none"
         id="path12"
         stroke-width="0.0809903"
         stroke="#000000"
         fill="none"
         d="m 104.4,148.8 c -0.2,0 -0.7,-0.3 -0.7,-0.3 0,-0.1 0,0 0.1,0 0.1,0 0.3,0.1 0.6,0.1 0.3,0 0.4,0 0.2,-0.1 -0.4,-0.1 -0.5,-0.2 -0.7,-0.4 l -0.2,-0.2 0.2,0.1 c 0.4,0.2 0.6,0.3 0.9,0.2 0.4,-0.1 0.6,-0.4 0.7,-0.8 0.2,-0.7 0.6,-0.9 1,-0.8 h 0.1 l -0.2,0.1 c -0.3,0 -0.5,0.3 -0.6,1.1 -0.1,0.3 -0.2,0.6 -0.3,0.8 -0.3,0.2 -0.7,0.3 -1.1,0.2 v 0" />
    <path
         style="stroke-width:0.054;stroke-miterlimit:4;stroke-dasharray:none"
         id="path14"
         stroke-width="0.0809903"
         stroke="#000000"
         fill="none"
         d="m 106.4,147.8 c -0.1,0 -0.2,-0.2 -0.2,-0.3 0,0 0.1,0 0.2,0.1 0.1,0.1 0.2,0.1 0.2,0.1 0.1,0 0.2,-0.1 0.2,-0.3 0,-0.1 0,-0.2 0,-0.1 0.1,0.1 0.1,0.4 0,0.5 -0.1,0.1 -0.3,0.1 -0.4,0 v 0" />
    <path
         style="stroke-width:0.054;stroke-miterlimit:4;stroke-dasharray:none"
         id="path16"
         stroke-width="0.0809903"
         stroke="#000000"
         fill="none"
         d="m 104.8,146.2 c -0.1,-0.1 -0.2,-0.2 -0.2,-0.3 0,-0.1 0.4,-0.4 0.5,-0.4 0.3,0 0.5,0 0.7,0.1 0.3,0.2 0.4,0.3 0.1,0.1 -0.2,-0.1 -0.5,-0.1 -0.5,0 0,0.1 0,0.1 0,0.2 0,0.1 0,0.1 0,0.1 -0.1,0 -0.2,-0.2 -0.2,-0.2 0,-0.2 -0.2,-0.2 -0.3,0 0,0.1 0,0.2 0.1,0.4 0.1,0.2 0.1,0.3 -0.2,0 v 0" />
</svg>
