<?xml version="1.0" encoding="UTF-8" standalone="no"?>
<svg
     xmlns:dc="http://purl.org/dc/elements/1.1/"
     xmlns:cc="http://creativecommons.org/ns#"
     xmlns:rdf="http://www.w3.org/1999/02/22-rdf-syntax-ns#"
     xmlns:svg="http://www.w3.org/2000/svg"
     xmlns="http://www.w3.org/2000/svg"
     xmlns:sodipodi="http://sodipodi.sourceforge.net/DTD/sodipodi-0.dtd"
     xmlns:inkscape="http://www.inkscape.org/namespaces/inkscape"
     inkscape:version="1.1-dev (1:0.92.0+devel+202003241343+2742de5)"
     sodipodi:docname="viper2.svg"
     id="svg6"
     width="40.98"
     version="1.1"
     height="47.97">
    <metadata
         id="metadata10">
        <rdf:RDF>
            <cc:Work
                 rdf:about="">
                <dc:format>image/svg+xml</dc:format>
                <dc:type
                     rdf:resource="http://purl.org/dc/dcmitype/StillImage" />
            </cc:Work>
        </rdf:RDF>
    </metadata>
    <sodipodi:namedview
         inkscape:current-layer="svg6"
         inkscape:window-maximized="1"
         inkscape:window-y="27"
         inkscape:window-x="0"
         inkscape:cy="40.81"
         inkscape:cx="18.93"
         inkscape:zoom="5.076"
         showgrid="false"
         id="namedview8"
         inkscape:window-height="983"
         inkscape:window-width="1920"
         inkscape:pageshadow="2"
         inkscape:pageopacity="0"
         guidetolerance="10"
         gridtolerance="10"
         objecttolerance="10"
         borderopacity="1"
         bordercolor="#666666"
         pagecolor="#ffffff" />
    <defs
         id="defs2" />
    <path
         style="fill:none;stroke:#000000;stroke-width:0.500013;stroke-miterlimit:4;stroke-dasharray:none;stroke-opacity:1"
         id="path4"
         d="m 6.753,47.66 c -0.06,-0.14 0.07,-0.51 0.753,-2.02 1.867,-4.15 4.194,-8.19 6.094,-10.61 1.73,-2.22 3.08,-3.49 6,-5.74 1.75,-1.36 2.88,-2.37 4.42,-3.92 2.68,-2.73 4.02,-5.15 4.02,-7.28 0,-1.42 -0.56,-2.47 -1.85,-3.51 -0.69,-0.55 -2.53,-1.64 -2.62,-1.55 0,0 0,0.4 0,0.83 0.1,2.44 -0.62,5.22 -1.92,7.82 -1.02,2.03 -2,3.31 -4.55,5.94 -0.76,0.78 -1.03,1.01 -1.67,1.36 -0.41,0.22 -1.02,0.51 -1.34,0.65 -0.58,0.2 -0.63,0.23 -1.37,0.14 -0.62,-0.1 -0.85,-0.11 -1.25,-0.31 -0.26,-0.14 -0.48,-0.31 -0.48,-0.37 0,-0.1 0.41,-0.2 0.9,-0.37 1.77,-0.52 3,-1.38 4.52,-3.14 1.23,-1.43 2.05,-2.76 2.57,-4.15 0.43,-1.13 0.66,-2.73 0.47,-3.32 -0.16,-0.55 -1.09,-2.7 -1.17,-2.7 0,0 -0.15,0.15 -0.26,0.34 -0.25,0.42 -1.23,1.37 -1.87,1.8 -0.71,0.48 -1.89,1.09 -2.91,1.51 -1.15,0.47 -1.6,0.7 -2.17,1.09 -0.52,0.36 -1.633,1.33 -1.812,1.59 -0.07,0.1 -0.384,0.3 -0.699,0.45 -0.316,0.15 -0.727,0.41 -0.921,0.58 l -0.346,0.3 v 1.05 c 0,2.05 0.471,3.93 1.423,5.62 0.327,0.6 0.594,1.11 0.594,1.17 0,0.14 -0.156,0.1 -0.509,-0.34 C 7.759,29.46 6.571,27.68 6.159,26.69 5.787,25.8 5.375,24.28 5.31,23.57 5.245,22.87 5.282,22.91 4.387,22.85 4.103,22.82 3.583,22.71 3.236,22.59 2.509,22.34 2.501,22.34 2.417,23.02 c -0.116,0.93 0.22,2.91 0.768,4.55 0.176,0.52 0.307,0.96 0.29,0.98 C 3.37,28.66 2.806,27.82 2.429,27 1.52,25.04 1.021,23.24 1.021,21.93 c 0,-0.84 0,-0.85 -0.2813,-1.23 C -0.0133,19.68 0.0992,18.67 1.094,17.55 2.289,16.19 3.005,14.76 3.705,12.32 3.909,11.61 4.196,10.77 4.344,10.46 5.25,8.525 6.85,7.117 8.927,6.421 9.821,6.122 10.47,5.983 11.76,5.818 14.73,5.434 17.45,4.344 19.71,2.642 20.9,1.741 22.47,1.03 24.31,0.5589 26.33,0.042 29.42,0.1931 31.72,0.9201 33.23,1.4 35.13,2.369 36.07,3.159 c 0.99,0.81 2.33,2.59 3.04,3.981 0.71,1.411 1.17,2.818 1.45,4.39 0.14,0.87 0.17,1.3 0.17,2.83 0,2.5 -0.23,4.22 -0.91,6.59 -1.22,4.32 -4.46,9.96 -7.56,13.14 -0.28,0.29 -1.28,1.23 -2.27,2.08 -1.65,1.51 -4.23,3.95 -5.56,5.32 -1.99,2.02 -3.3,3.67 -3.89,4.83 -0.41,0.8 -0.5,0.89 -1.4,1.06 -1.04,0.22 -2.55,0.28 -7.52,0.34 -4.159,0 -4.83,0 -4.867,-0.1 z m 3.148,-28.4 c 0.189,-0.1 0.519,-0.34 0.739,-0.56 0.23,-0.22 0.48,-0.56 0.56,-0.74 0.19,-0.41 0.22,-1.31 0,-1.69 -0.25,-0.61 -1.627,-1.53 -2.014,-1.36 -0.113,0 -0.355,0.43 -0.673,1.05 -0.565,1.11 -0.577,0.9 0.108,2.07 0.21,0.36 0.372,0.7 0.355,0.74 -0.03,0.1 -0.304,-0.11 -0.642,-0.35 -0.645,-0.47 -0.79,-0.52 -0.943,-0.33 -0.07,0.1 -0.07,0.16 0.03,0.34 0.148,0.28 0.58,0.7 0.895,0.86 0.338,0.18 1.119,0.16 1.543,0 z" />
</svg>
