<?xml version="1.0" encoding="utf-8" ?>
<svg baseProfile="full" height="175px" version="1.1" viewBox="-6.367705918108868e-09,-2.9649331809156187e-09,98.52476827501512,86.17241350621342" width="200px" xmlns="http://www.w3.org/2000/svg" xmlns:ev="http://www.w3.org/2001/xml-events" xmlns:xlink="http://www.w3.org/1999/xlink">
  <defs/>
  <path d="M 0.34409693,78.477071 C 1.6424159,61.962585 5.1831589,55.398262 16.440991,48.634399 C 21.979894,45.306549000000004 22.686354,45.142526000000004 30.804129,45.299627 C 41.006278,45.497066000000004 45.032494,47.007395 50.572525999999996,52.715218 L 54.64658,56.912663 L 56.3736,53.523531000000006 C 57.323461,51.65950900000001 59.642770000000006,48.014540000000004 61.527620000000006,45.42360000000001 C 64.47874800000001,41.36694200000001 64.912075,40.050360000000005 64.648228,35.94221700000001 L 64.341836,31.171631 L 59.01584,29.993686 C 56.086541999999994,29.345815 53.467231999999996,28.593128 53.19515,28.321047 C 52.923069,28.048965 51.533698,28.431676 50.107659,29.171514 C 46.576665,31.003414999999997 41.575295999999994,28.635102 41.986103,25.325688999999997 C 42.135709,24.120479999999997 41.512926,22.009399 40.602139,20.634398999999995 C 39.094505,18.358345999999994 39.081386,17.686503999999996 40.455679,13.134398999999995 C 41.285912,10.384398999999995 42.466910000000006,6.424340499999995 43.080119,4.334268499999995 C 43.693328,2.244197499999995 44.545822,0.31734550999999467 44.974551000000005,0.05237650999999488 C 45.935436,-0.5414834900000052 71.18095500000001,4.064901499999995 79.020015,6.264430499999995 C 82.169333,7.148083499999995 85.46936,8.670324499999996 86.353409,9.647186499999995 C 87.320363,10.715659999999994 89.140663,17.740486999999995 90.922192,27.27884999999999 C 92.550973,35.99940199999999 95.046009,47.40939899999999 96.466715,52.63439899999999 C 99.275703,62.96514899999999 99.23249999999999,67.18710599999999 96.19402,79.28335099999998 C 94.50901499999999,85.99139099999998 94.165892,86.37533099999999 91.635221,84.38440099999998 C 89.995536,83.09442099999998 88.414041,71.25197299999998 90.01346600000001,72.24047199999998 C 90.469069,72.52205099999998 90.84183600000001,73.85087499999999 90.84183600000001,75.19341599999998 C 90.84183600000001,78.73121099999999 92.56009900000001,78.18852099999998 93.40332300000001,74.38439899999999 C 94.40822400000002,69.85089399999998 94.06426200000001,57.17414199999999 92.80996300000001,52.516030999999984 C 92.234509,50.37896 90.679382,42.893837 89.354125,35.882423 C 84.216115,8.6992405 85.107912,10.748265 77.341836,8.2825495 C 69.63409300000001,5.8353535 49.841836,1.7949035000000002 49.841836,2.6686185 C 49.841836,3.0968165 49.054336,3.2437675 48.091836,2.9951775 C 46.171863,2.4992965 44.495896,5.5536165 43.351321,11.634399 C 42.988982,13.559399 42.479492,15.894492 42.219121,16.823496 C 41.937619,17.827897 42.544242000000004,18.939947999999998 43.715619000000004,19.56685 C 45.487777,20.515279999999997 45.864682,20.094775 47.470363000000006,15.377752999999998 C 48.452028000000006,12.493907999999998 49.162200000000006,9.796898499999998 49.048522000000006,9.3843985 C 48.934845,8.9718985 49.291836,8.6343985 49.84183600000001,8.6343985 C 51.216136000000006,8.6343985 51.097634000000006,10.473324 49.35266000000001,16.225468 C 47.40300800000001,22.652318 47.459959000000005,23.634399 49.782309000000005,23.634399 C 51.288825,23.634399 52.120006000000004,22.296318 53.498991000000004,17.651080999999998 C 55.766926000000005,10.011338999999998 57.280527000000006,11.227399999999998 55.23818300000001,19.048386999999998 C 53.975074000000006,23.885360999999996 53.93668300000001,25.078742 55.022045000000006,25.766935999999998 C 57.219260000000006,27.16012 57.477450000000005,26.840514 58.750606000000005,21.151450999999998 C 60.246066000000006,14.469034999999998 62.21019700000001,12.565869999999999 61.166234,18.810805 C 59.715746,27.487547999999997 59.910688,28.099095 64.24005,28.453599999999998 C 68.128952,28.772039 69.79405799999999,27.671705999999997 69.826523,24.761954 C 69.83887299999999,23.655276999999998 69.551368,23.630577 68.341836,24.634399 C 67.079375,25.682149 66.847448,25.50359 66.87727100000001,23.506843999999997 C 66.91819100000001,20.767229999999998 69.74980900000001,15.182128999999998 69.80640100000001,17.729411 C 69.887651,21.386552 76.02296100000001,24.210735999999997 77.203462,21.134399 C 78.34791,18.152016 79.75889600000001,19.573874999999997 78.691991,22.634399 C 78.116798,24.284398999999997 77.240207,25.634399 76.744011,25.634399 C 76.247815,25.634399 75.79698,26.871899 75.742156,28.384399 C 75.644016,31.092005 75.632025,31.097002 74.96457299999999,28.708537999999997 C 74.591726,27.374314 73.84908199999998,26.139906999999997 73.314253,25.965410999999996 C 71.54178499999999,25.387116999999996 68.651688,32.05202499999999 68.31976599999999,37.483292999999996 C 68.05693299999999,41.784051999999996 67.22071899999999,43.939539999999994 64.05235399999998,48.483292999999996 C 56.72080999999998,58.997462 55.301381999999975,63.61407799999999 56.703702999999976,72.384399 C 57.34651999999998,76.404661 57.24538699999998,77.634401 56.271946999999976,77.634401 C 54.621938999999976,77.634401 53.49139099999998,72.675584 53.408178999999976,65.073323 C 53.34597899999998,59.390486 53.11494699999997,58.813039 49.70606299999997,55.820024000000004 C 44.10061499999997,50.898417 40.03982899999997,49.634399 29.83411699999997,49.634399 C 19.17278399999997,49.634399 15.01560799999997,51.276907 9.567522899999972,57.641769000000004 C 5.513749899999972,62.377691000000006 4.0177928999999715,67.240381 3.445809899999972,77.54073100000001 C 3.135550899999972,83.12791100000001 2.623572899999972,85.177041 1.3613768999999718,85.883401 C -0.16538607000002825,86.73782100000001 -0.2543930700000283,86.08980100000001 0.3440969299999719,78.47707100000001 L 0.34409693,78.477071" fill="none" stroke="#000000" stroke-width="0.09852476827501512"/>
  <path d="M 46.856776,25.680556 C 44.130931000000004,23.58618 43.276082,23.717684 44.186913000000004,26.091271 C 44.51259700000001,26.939991 45.805690000000006,27.624392999999998 47.060451,27.612163 L 49.341836,27.589923 L 46.856776,25.680556" fill="none" stroke="#000000" stroke-width="0.09852476827501512"/>
</svg>
