<?xml version="1.0" encoding="utf-8" ?>
<svg baseProfile="full" height="113px" version="1.1" viewBox="0.0,-1.839495666899893e-09,136.25104490733762,76.63197590979637" width="200px" xmlns="http://www.w3.org/2000/svg" xmlns:ev="http://www.w3.org/2001/xml-events" xmlns:xlink="http://www.w3.org/1999/xlink">
  <defs/>
  <path d="M 34.592248,76.31028 C 34.991436,75.8886 32.018422,73.663218 27.985552,71.364988 C 21.569354,67.70856 8.366452,58.163277 8.366452,57.180996 C 8.366452,56.456278 9.137581,56.927483 14.435846000000002,60.889757 C 19.050400000000003,64.340721 33.688734,72.368135 38.42246900000001,74.043614 C 40.215647000000004,74.67829900000001 39.60250700000001,75.359696 36.36645200000001,76.32851000000001 C 34.99145200000001,76.74016 34.19306000000001,76.73196000000002 34.59224800000001,76.31031000000002 L 34.592248,76.31028" fill="none" stroke="#000000" stroke-width="0.1362510449073376"/>
  <path d="M 91.366452,74.828513 C 89.3466,74.403353 88.752411,74.036125 89.961416,73.960154 C 93.258253,73.75299100000001 103.35951,66.67741000000001 109.11645,60.542722000000005 C 113.79315,55.559147 114.36645,54.471681000000004 114.36645,50.584154000000005 C 114.36645,45.222066000000005 110.5218,38.75956500000001 102.91164,31.329671000000005 C 98.33937200000001,26.865704000000004 89.719451,20.828513000000004 87.918058,20.828513000000004 C 87.592319,20.828513000000004 88.346207,22.741013000000006 89.593365,25.078513000000004 C 92.78363300000001,31.057909000000006 92.8741,46.146744000000005 89.760047,52.879318000000005 C 79.877657,74.245022 54.757725,75.307378 44.506642,54.793145 C 39.657675,45.089503 39.420135,33.061436 43.906683,24.413607000000003 C 44.72923,22.828146000000004 45.252655000000004,21.381383000000003 45.06985,21.198578 C 44.887045,21.015773000000003 41.196567,22.677045 36.868788,24.890294 C 28.118585000000003,29.365193 18.069028000000003,36.244396 11.616452000000002,42.176224000000005 C 9.278952000000002,44.325079 7.366452000000002,45.651816000000004 7.366452000000002,45.124528000000005 C 7.366452000000002,43.726586000000005 20.945963000000003,31.750445000000006 28.431176,26.546973000000005 C 52.423743,9.8681361 76.60121,7.7537391 97.627442,20.495538 C 113.39971,30.053463999999998 129.32168000000001,48.801226 129.35668,57.856007000000005 C 129.38028,63.958332000000006 123.44865000000001,66.91071500000001 119.36645000000001,62.82851300000001 C 116.75084000000001,60.21290400000001 116.42666000000001,60.27432900000001 112.71307000000002,64.089161 C 110.10033000000001,66.773137 95.89487200000002,76.13685000000001 95.10329400000002,75.69687 C 94.97303100000002,75.62447 93.29145200000002,75.23370800000001 91.36645200000002,74.828513 L 91.366452,74.828513" fill="none" stroke="#000000" stroke-width="0.1362510449073376"/>
  <path d="M 50.866891,48.275388 C 55.015749,45.843995 55.196289,45.545998 54.653419,42.025388 C 54.339892,39.992107 53.983089,38.202039 53.860524,38.047458999999996 C 53.737959,37.89288 51.326651999999996,37.492698999999995 48.502065,37.158167999999996 C 43.765338,36.597173 43.366452,36.712267999999995 43.366452,38.640001 C 43.366452,41.454581 45.408199,50.828513 46.021246000000005,50.828513 C 46.290232,50.828513 48.470772000000004,49.679607000000004 50.866891,48.275388" fill="none" stroke="#000000" stroke-width="0.1362510449073376"/>
  <path d="M 72.369835,47.978976 C 78.111868,42.236943000000004 76.876725,32.470088000000004 69.99343499999999,29.187676000000003 C 67.009182,27.764585000000004 66.05846299999999,27.713445000000004 63.36069099999999,28.830899000000002 C 52.759275999999986,33.222149 55.81378299999999,50.74167800000001 67.19337499999999,50.813771 C 68.47318299999999,50.821871 70.80259,49.546221 72.369835,47.978976" fill="none" stroke="#000000" stroke-width="0.1362510449073376"/>
  <path d="M 126.51402,37.661738 C 101.97752,9.4820981 76.125375,-0.43836888 48.866452,7.8653721 C 35.374995,11.975203 23.816145,19.468791 8.933226,33.754033 L 0.0,42.328513 L 6.369095,34.516436 C 25.314684,11.278537 50.034576,-1.4258309 73.282291,0.12753712 C 83.893551,0.83656112 93.344552,3.6715481 104.20867,9.4044251 C 112.97323,14.029388999999998 126.22989,23.892319999999998 132.68502,30.590772 C 135.98261000000002,34.012663 136.46013000000002,35.083682 136.18502,38.440897 C 135.9221,41.649415 135.45519000000002,42.386722 133.5121,42.661738 C 131.70821,42.917054 130.07203,41.748037 126.51402,37.661738" fill="none" stroke="#000000" stroke-width="0.1362510449073376"/>
</svg>
