<?xml version="1.0" encoding="UTF-8" standalone="no"?>
<svg
     xmlns:dc="http://purl.org/dc/elements/1.1/"
     xmlns:cc="http://creativecommons.org/ns#"
     xmlns:rdf="http://www.w3.org/1999/02/22-rdf-syntax-ns#"
     xmlns:svg="http://www.w3.org/2000/svg"
     xmlns="http://www.w3.org/2000/svg"
     xmlns:sodipodi="http://sodipodi.sourceforge.net/DTD/sodipodi-0.dtd"
     xmlns:inkscape="http://www.inkscape.org/namespaces/inkscape"
     sodipodi:docname="adv_disadv.svg"
     inkscape:version="1.1-dev (1:0.92.0+devel+202003031341+7f69549)"
     id="svg21335"
     version="1.1"
     viewBox="0 0 39.61 3.122"
     height="3.122mm"
     width="39.61mm">
    <defs
         id="defs21329">
        <clipPath
             id="clipPath498"
             clipPathUnits="userSpaceOnUse">
            <path
                 inkscape:connector-curvature="0"
                 id="path496"
                 d="m 80.59,480 h 9.98 v 8.6 h -9.98 z" />
        </clipPath>
        <clipPath
             id="clipPath510"
             clipPathUnits="userSpaceOnUse">
            <path
                 inkscape:connector-curvature="0"
                 id="path508"
                 d="m 177.6,480 h 9.9 v 8.6 h -9.9 z" />
        </clipPath>
        <rect
             x="-330.8"
             y="-27.93"
             width="32.76"
             height="3.382"
             id="rect21257" />
    </defs>
    <sodipodi:namedview
         inkscape:window-maximized="1"
         inkscape:window-y="27"
         inkscape:window-x="0"
         inkscape:window-height="983"
         inkscape:window-width="1920"
         showgrid="false"
         inkscape:current-layer="layer1"
         inkscape:document-units="mm"
         inkscape:cy="202.9"
         inkscape:cx="-2133"
         inkscape:zoom="0.35"
         inkscape:pageshadow="2"
         inkscape:pageopacity="0.0"
         borderopacity="1.0"
         bordercolor="#666666"
         pagecolor="#ffffff"
         id="base" />
    <metadata
         id="metadata21332">
        <rdf:RDF>
            <cc:Work
                 rdf:about="">
                <dc:format>image/svg+xml</dc:format>
                <dc:type
                     rdf:resource="http://purl.org/dc/dcmitype/StillImage" />
                <dc:title></dc:title>
            </cc:Work>
        </rdf:RDF>
    </metadata>
    <g
         transform="translate(-670.2,-94.48)"
         id="layer1"
         inkscape:groupmode="layer"
         inkscape:label="Layer 1">
        <g
             transform="translate(1006,121.1)"
             id="advantage">
            <g
                 transform="matrix(0.3527,0,0,-0.3488,-364.2,143.8)"
                 id="Adv"
                 style="stroke-width:1.00552">
                <g
                     clip-path="url(#clipPath498)"
                     id="g494"
                     style="stroke-width:1.00552">
                    <path
                         inkscape:connector-curvature="0"
                         id="path500"
                         style="fill:#006100;fill-opacity:1;fill-rule:nonzero;stroke:none;stroke-width:1.00552"
                         d="m 88.42,488.4 c -0.17,0.3 -0.53,0.5 -0.85,0.5 l -4.04,0.1 c -0.16,0 -0.33,-0.1 -0.49,-0.2 -0.16,-0.1 -0.29,-0.2 -0.36,-0.3 l -1.97,-3.6 c -0.16,-0.2 -0.16,-0.7 0,-0.9 l 2.01,-3.5 c 0.16,-0.3 0.53,-0.5 0.85,-0.5 h 4 c 0.15,0 0.32,0.1 0.48,0.1 0.16,0.1 0.29,0.3 0.37,0.4 l 2.03,3.4 c 0.16,0.3 0.17,0.7 0,1 z" />
                    <path
                         inkscape:connector-curvature="0"
                         id="path502"
                         style="fill:#ffffff;fill-opacity:1;fill-rule:nonzero;stroke:none;stroke-width:1.00552"
                         d="m 86.42,483.9 c -0.29,0 -0.58,0 -0.86,0 -0.29,0 -0.58,0 -0.87,0 0,0 -0.1,0 -0.13,0 0.1,0.2 0.14,0.4 0.22,0.6 0.23,0.5 0.5,1 0.8,1.5 0.3,-0.5 0.57,-1 0.8,-1.5 0.1,-0.2 0.16,-0.4 0.23,-0.6 -0.1,0 -0.13,0 -0.19,0 m 2.02,-1.8 c -0.18,1 -0.45,2 -0.84,2.9 -0.39,0.9 -0.89,1.8 -1.46,2.6 v 0 c -0.13,0.2 -0.34,0.3 -0.55,0.3 -0.21,0 -0.42,-0.1 -0.55,-0.3 v 0 c -0.58,-0.8 -1.07,-1.7 -1.46,-2.6 -0.39,-0.9 -0.67,-1.9 -0.84,-2.9 -0.1,-0.3 0.16,-0.6 0.51,-0.7 0.34,-0.1 0.68,0.2 0.74,0.5 v 0 c 0.1,0.3 0.13,0.6 0.21,0.9 0.16,0 0.33,0.1 0.49,0.1 0.29,0 0.58,0 0.87,0 0.28,0 0.57,0 0.86,0 0.18,0 0.36,-0.1 0.55,-0.1 0.1,-0.3 0.15,-0.6 0.21,-0.9 v 0 c 0.1,-0.3 0.4,-0.6 0.75,-0.5 0.34,0.1 0.56,0.4 0.51,0.7" />
                </g>
            </g>
            <g
                 transform="matrix(0.3527,0,0,-0.3488,-362.3,143.8)"
                 id="DisAdv"
                 style="stroke-width:1.00552">
                <g
                     clip-path="url(#clipPath510)"
                     id="g506"
                     style="stroke-width:1.00552">
                    <path
                         inkscape:connector-curvature="0"
                         id="path512"
                         style="fill:#c80000;fill-opacity:1;fill-rule:nonzero;stroke:none;stroke-width:1.00552"
                         d="m 185.4,488.4 c -0.2,0.3 -0.5,0.5 -0.9,0.5 l -4,0.1 c -0.2,0 -0.3,-0.1 -0.5,-0.2 -0.2,-0.1 -0.3,-0.2 -0.4,-0.3 l -1.9,-3.6 c -0.2,-0.2 -0.2,-0.7 0,-0.9 l 2,-3.5 c 0.1,-0.3 0.5,-0.5 0.8,-0.5 h 4 c 0.2,0 0.4,0.1 0.5,0.1 0.2,0.1 0.3,0.3 0.4,0.4 l 2,3.4 c 0.2,0.3 0.2,0.7 0,1 z" />
                    <path
                         inkscape:connector-curvature="0"
                         id="path514"
                         style="fill:#ffffff;fill-opacity:1;fill-rule:nonzero;stroke:none;stroke-width:1.00552"
                         d="m 184,483.4 c -0.1,-0.2 -0.4,-0.4 -0.7,-0.5 -0.3,-0.1 -0.7,-0.2 -1.1,-0.2 -0.1,-0.1 -0.3,-0.1 -0.4,-0.1 v 3.7 c 0.1,0 0.2,-0.1 0.3,-0.1 0.3,-0.1 0.6,-0.3 0.9,-0.5 0.2,-0.2 0.5,-0.5 0.7,-0.8 0.2,-0.2 0.4,-0.5 0.4,-0.8 0.1,-0.3 0.1,-0.5 -0.1,-0.7 m 1.5,0.6 c 0,0.1 0,0.2 0,0.4 -0.1,0.2 -0.2,0.4 -0.3,0.7 -0.1,0.2 -0.2,0.4 -0.3,0.6 -0.3,0.3 -0.6,0.7 -1,1 -0.4,0.3 -0.8,0.5 -1.2,0.7 -0.4,0.2 -0.9,0.4 -1.4,0.4 v 0 c -0.1,0.1 -0.2,0.1 -0.3,0 -0.4,0 -0.6,-0.3 -0.6,-0.6 V 482 c 0,-0.1 0,-0.2 0,-0.2 0.1,-0.3 0.3,-0.5 0.6,-0.5 0,0 0.3,0 0.4,0 0.2,0 0.3,0 0.4,0 0.2,0.1 0.4,0.1 0.6,0.1 0.5,0.1 0.9,0.2 1.4,0.3 0.2,0.1 0.5,0.2 0.7,0.4 0.2,0.1 0.4,0.3 0.6,0.6 0.2,0.2 0.4,0.5 0.4,0.8 0,0.2 0,0.3 0,0.5" />
                </g>
            </g>
            <text
                 transform="matrix(1,0,0,1.335,-0.7019,10.59)"
                 style="font-style:normal;font-variant:normal;font-weight:normal;font-stretch:normal;font-size:2.4694px;line-height:1;font-family:'Century Schoolbook L';-inkscape-font-specification:'Century Schoolbook L';letter-spacing:0px;word-spacing:0px;white-space:pre;shape-inside:url(#rect21257);fill:#000000;fill-opacity:1;stroke:none;stroke-width:0.8653;"
                 id="text21255"
                 xml:space="preserve"><tspan
                     sodipodi:role="line"
                     x="-330.8"
                     y="-26.04"><tspan
                         style="stroke-width:0.865269">Advantage | DisAdventage</tspan></tspan></text>
        </g>
    </g>
</svg>
