<?xml version="1.0" encoding="UTF-8" standalone="no"?>
<svg xmlns:svg="http://www.w3.org/2000/svg" xmlns="http://www.w3.org/2000/svg" xmlns:sodipodi="http://sodipodi.sourceforge.net/DTD/sodipodi-0.dtd" xmlns:inkscape="http://www.inkscape.org/namespaces/inkscape" width="19.049999mm" height="18.839561mm" viewBox="0 0 19.049999 18.839561" version="1.1" id="svg2673" inkscape:version="1.1-dev (1:0.92.0+devel+202004290039+336bbbe)" sodipodi:docname="bane_icon.svg">
    <defs id="defs2669" />
    <sodipodi:namedview id="base" pagecolor="#ffffff" bordercolor="#666666" borderopacity="1.0" inkscape:pageopacity="0.0" inkscape:pageshadow="2" inkscape:zoom="17.246066" inkscape:cx="36.000002" inkscape:cy="35.60233" inkscape:document-units="mm" inkscape:current-layer="layer1" showgrid="false" inkscape:window-width="2560" inkscape:window-height="1403" inkscape:window-x="0" inkscape:window-y="0" inkscape:window-maximized="1" />
    <g inkscape:label="Layer 1" inkscape:groupmode="layer" id="layer1" transform="translate(195.48929,125.0805)">
        <path sodipodi:nodetypes="ccccc" d="m -310.76047,-176.19786 179.73638,-26.58612 -29.81981,150.164787 -78.01903,9.310737 z" transform="matrix(0.04065281,0.08978863,-0.08978863,0.04065281,-189.5187,-89.800165)" style="font-variation-settings:normal;vector-effect:none;fill:#ccc;fill-opacity:1;stroke:black;stroke-width:2.5;stroke-linecap:butt;stroke-linejoin:miter;stroke-miterlimit:4;stroke-dasharray:none;stroke-dashoffset:0;stroke-opacity:1;paint-order:markers stroke fill;stop-color:black" id="rect2216-2-9" />
        <path transform="matrix(0.09856292,0,0,0.09856292,-160.31081,-127.23137)" style="fill:none;stroke:black;stroke-width:2.5;stroke-linecap:butt;stroke-linejoin:miter;stroke-miterlimit:4;stroke-dasharray:none;stroke-opacity:1" d="m -264,24 -50.69842,187.85741" id="path2233-3" sodipodi:nodetypes="cc" />
        <path transform="matrix(-0.40643374,0.01193384,-0.010935,-0.37241612,-199.76231,-68.97922)" id="path2861" style="font-style:normal;font-variant:normal;font-weight:bold;font-stretch:normal;font-size:13.2272px;line-height:1;font-family:Norse;-inkscape-font-specification:'Norse Bold';text-align:center;letter-spacing:0.793632px;word-spacing:0px;text-anchor:middle;white-space:pre;fill:#960033;fill-opacity:1;stroke:black;stroke-width:0.339888;stroke-miterlimit:4;stroke-dasharray:none;stroke-opacity:1" d="m -34.261286,103.53392 -0.366738,0.46583 -0.265415,0.55085 -0.441023,0.49674 -0.382215,0.63242 0.125309,0.59555 0.07597,0.26751 1.652975,0.97272 0.171738,0.0958 0.232277,0.1224 0.108195,0.0563 -0.469836,0.89733 -0.567746,1.00167 0.08707,0.78104 0.111609,0.24561 1.038168,0.49132 2.051847,1.1106 1.00995,-0.56151 -0.196999,-0.72824 -0.08371,-0.18421 -0.158857,-0.0988 0.05157,-0.41949 -0.358357,-1.47838 -0.372969,-1.3663 -0.0609,-0.61058 -0.45062,-1.93223 -0.192721,-0.59342 -0.30551,-1.77592 -0.738526,0.0364 -0.580078,-0.0413 z m 1.675864,3.57515 -0.699835,-0.38007 -0.38426,-0.24994 -0.219396,-0.12541 -0.598921,-0.47152 0.363325,-0.65518 0.130545,-0.1391 0.278706,-0.37739 0.494735,-0.84881 0.170371,0.78878 0.158857,0.0988 -0.0919,0.13009 0.531732,2.28003 z m 0.652856,1.92581 0.11757,0.67886 0.277246,1.13057 -1.056193,-0.56861 -0.106056,0.0112 -0.100457,-0.13956 -0.483444,-0.26755 0.01288,-0.003 0.336696,-0.59464 -0.02358,-0.33406 0.187215,-0.0708 0.471976,-0.82993 0.08503,-0.10132 z" />
        <path transform="matrix(-0.40643374,0.01193384,-0.010935,-0.37241612,-199.76231,-68.97922)" id="path2863" style="font-style:normal;font-variant:normal;font-weight:bold;font-stretch:normal;font-size:13.2272px;line-height:1;font-family:Norse;-inkscape-font-specification:'Norse Bold';text-align:center;letter-spacing:0.793632px;word-spacing:0px;text-anchor:middle;white-space:pre;fill:#960033;fill-opacity:1;stroke:black;stroke-width:0.339888;stroke-miterlimit:4;stroke-dasharray:none;stroke-opacity:1" d="m -40.166242,107.08418 -0.202189,-0.40106 -0.133959,-0.0503 0.07301,-0.15285 -0.135642,-0.34867 -0.545981,-1.58402 -0.246023,-0.0649 -0.16746,0.039 -0.881135,0.53147 0.270875,0.52086 0.241289,0.16104 -0.05326,0.12108 0.318076,0.78149 0.601424,1.12288 0.04206,0.18034 1.342311,2.96025 0.181616,0.0799 -0.0361,0.2529 0.871842,1.87474 0.08157,0.1168 0.06268,0.094 0.09226,0.45385 0.243019,0.052 1.044269,-0.29787 -0.06044,-0.84158 -0.01024,-0.56806 -0.02999,-0.53629 -0.186759,-0.16018 0.168781,-0.32458 -0.01611,-1.81625 -0.05407,-0.23187 0.0142,-0.28854 -0.01843,-0.25376 -0.111878,-1.64451 -0.07296,-0.25463 0.108651,-0.17474 -0.06044,-0.84158 -0.0187,-1.65266 -0.516944,-0.17825 -0.81668,0.10897 0.05958,0.89611 0.174287,0.33965 -0.08289,0.16874 0.0716,0.94763 -0.233597,0.16314 -0.103918,0.0786 -0.814996,0.40738 -0.215573,0.24043 -0.01288,0.003 -0.174333,0.0678 z m 1.873049,2.67349 0.112474,0.19108 -0.113795,0.0944 0.108874,1.63163 -0.511662,-1.32038 -0.1056,-0.21985 -0.207742,-0.65782 -0.582077,-1.33113 0.339654,-0.17428 0.777217,-0.4529 0.0081,0.0932 0.04069,0.87335 0.0099,-0.0159 z" />
        <path transform="matrix(-0.40643374,0.01193384,-0.010935,-0.37241612,-199.76231,-68.97922)" id="path2865" style="font-style:normal;font-variant:normal;font-weight:bold;font-stretch:normal;font-size:13.2272px;line-height:1;font-family:Norse;-inkscape-font-specification:'Norse Bold';text-align:center;letter-spacing:0.793632px;word-spacing:0px;text-anchor:middle;white-space:pre;fill:#960033;fill-opacity:1;stroke:black;stroke-width:0.339888;stroke-miterlimit:4;stroke-dasharray:none;stroke-opacity:1" d="m -48.321119,107.39689 0.09613,0.4122 0.748077,2.80003 0.240834,0.39205 0.02312,0.56505 0.610203,3.1989 0.178518,0.88196 0.549172,-0.033 0.744125,-0.18712 -0.240331,-1.03053 -0.170873,-0.1503 0.03569,-0.42937 -0.258356,-1.10781 0.587314,0.59647 0.115069,0.0275 0.442204,0.44016 1.531851,1.32694 0.951551,-0.52072 -0.156216,-0.66984 -0.363956,-1.32767 -0.222762,-0.72223 -0.573335,-2.69137 -0.176016,-0.2306 0.01593,-0.39759 -0.349298,-1.84721 -0.05107,-0.21898 -0.06568,-0.10692 -0.15016,-1.05156 -0.577939,0.0261 -0.754002,0.20301 0.166501,0.83042 0.0807,0.17133 0.299549,1.34269 0.230091,0.46246 0.04374,0.47875 0.659181,2.943 0.193632,0.13141 0.01889,0.0228 -0.07219,0.50579 0.162223,0.69561 -0.443068,-0.38563 -0.699379,-0.61108 -0.47871,-0.36373 -0.246432,-0.24134 -0.225404,-0.15116 -0.287216,-0.29974 -0.325312,-1.33667 -0.09572,-0.23574 0.02362,-0.0734 -0.275516,-1.23963 -0.298275,-1.22074 -0.221441,-1.00777 -0.44398,0.0764 -0.705481,0.17811 -0.06532,0.47702 z" />
        <path transform="matrix(-0.40643374,0.01193384,-0.010935,-0.37241612,-199.76231,-68.97922)" id="path2867" style="font-style:normal;font-variant:normal;font-weight:bold;font-stretch:normal;font-size:13.2272px;line-height:1;font-family:Norse;-inkscape-font-specification:'Norse Bold';text-align:center;letter-spacing:0.793632px;word-spacing:0px;text-anchor:middle;white-space:pre;fill:#960033;fill-opacity:1;stroke:black;stroke-width:0.339888;stroke-miterlimit:4;stroke-dasharray:none;stroke-opacity:1" d="m -52.415261,115.86262 0.142468,0.72737 0.130043,0.49938 1.272268,-0.31029 0.478347,-0.22022 0.204375,0.061 0.734247,-0.17124 0.587407,-0.21848 -0.277701,-0.89957 -0.180751,-0.13442 0.09063,-0.25203 -0.166093,-0.65395 -0.221441,-1.00777 -0.222306,-0.95323 -0.07251,-0.48563 -0.400462,-1.25124 0.02749,-0.11507 -0.175105,-0.6926 -0.06909,-0.29627 -0.151983,-0.12754 0.07647,-0.37097 -0.125309,-0.59556 -0.04593,-0.13869 -0.126992,-0.89397 -0.187578,-0.51312 -0.969119,0.21243 -0.08803,0.0884 -0.450853,0.10514 -0.752273,0.094 -0.853185,0.18539 -0.266234,0.19791 0.05963,0.48864 0.124444,0.65008 0.64708,-0.13732 0.298006,-0.17816 1.027518,-0.25321 0.109061,0.002 0.121942,-0.001 0.317165,1.2435 0.01889,0.0228 -0.01161,0.12495 0.164409,0.35554 0.2579,1.33881 -0.206104,0.0481 -0.817545,0.1635 -0.637204,0.12144 0.09741,0.53415 0.01284,0.40447 0.242563,0.28298 0.641938,-0.21762 0.496371,-0.14292 0.482625,-0.0854 0.142925,0.49637 0.152848,0.073 -0.08762,0.26492 0.02572,0.40146 0.29741,1.27527 0.04934,0.32805 0.03305,0.1417 -0.115934,0.027 -0.714493,0.13946 -0.197092,0.0867 -0.03564,0.0219 -0.33319,-0.031 z" />
        <text transform="matrix(0.1149645,-0.03016181,0.0310646,0.11190729,-142.31302,-172.20816)" id="text2342" y="360" x="-474.63852" style="font-style:normal;font-variant:normal;font-weight:bold;font-stretch:normal;font-size:50px;line-height:0.8;font-family:Norse;-inkscape-font-specification:'Norse Bold';letter-spacing:1px;word-spacing:0px" xml:space="preserve"><tspan style="font-style:normal;font-variant:normal;font-weight:bold;font-stretch:normal;font-family:Norse;-inkscape-font-specification:'Norse Bold';text-align:center;text-anchor:middle" y="360" x="-474.63852" id="tspan2340" sodipodi:role="line"> 1</tspan><tspan style="font-style:normal;font-variant:normal;font-weight:bold;font-stretch:normal;font-family:Norse;-inkscape-font-specification:'Norse Bold';text-align:center;text-anchor:middle" id="tspan2344" y="400" x="-474.13852" sodipodi:role="line">D4</tspan></text>
        <path transform="matrix(0.06523361,0,0,0.06523361,-195.45046,-124.43701)" id="path2352" d="m 32.141792,224.61543 c -16.129048,-26.67738 -29.3584677,-48.81075 -29.3987107,-49.18525 -0.090777,-0.84477 131.6408987,-174.3659874 132.0604487,-173.9542924 0.33241,0.326181 -71.380415,266.8986124 -72.590245,269.8340024 -0.566899,1.37545 -7.78501,-9.83269 -30.071493,-46.69446 z" style="font-variation-settings:normal;vector-effect:none;fill:#960033;fill-opacity:1;stroke:#960033;stroke-width:0.755461;stroke-linecap:butt;stroke-linejoin:miter;stroke-miterlimit:4;stroke-dasharray:none;stroke-dashoffset:0;stroke-opacity:1;paint-order:markers stroke fill;stop-color:black" />
    </g>
</svg>
