<?xml version="1.0" encoding="UTF-8" standalone="no"?>
<svg
     xmlns:dc="http://purl.org/dc/elements/1.1/"
     xmlns:cc="http://creativecommons.org/ns#"
     xmlns:rdf="http://www.w3.org/1999/02/22-rdf-syntax-ns#"
     xmlns:svg="http://www.w3.org/2000/svg"
     xmlns="http://www.w3.org/2000/svg"
     xmlns:sodipodi="http://sodipodi.sourceforge.net/DTD/sodipodi-0.dtd"
     xmlns:inkscape="http://www.inkscape.org/namespaces/inkscape"
     sodipodi:docname="banner.svg"
     inkscape:version="1.1-dev (1:0.92.0+devel+202003031341+7f69549)"
     id="svg29744"
     version="1.1"
     viewBox="0 0 56.44 8.819"
     height="8.819mm"
     width="56.44mm">
    <defs
         id="defs29738" />
    <sodipodi:namedview
         inkscape:window-maximized="1"
         inkscape:window-y="27"
         inkscape:window-x="0"
         inkscape:window-height="983"
         inkscape:window-width="1920"
         showgrid="false"
         inkscape:current-layer="layer1"
         inkscape:document-units="mm"
         inkscape:cy="16.67"
         inkscape:cx="106.6"
         inkscape:zoom="6.732"
         inkscape:pageshadow="2"
         inkscape:pageopacity="0.0"
         borderopacity="1.0"
         bordercolor="#666666"
         pagecolor="#ffffff"
         id="base" />
    <metadata
         id="metadata29741">
        <rdf:RDF>
            <cc:Work
                 rdf:about="">
                <dc:format>image/svg+xml</dc:format>
                <dc:type
                     rdf:resource="http://purl.org/dc/dcmitype/StillImage" />
                <dc:title></dc:title>
            </cc:Work>
        </rdf:RDF>
    </metadata>
    <g
         transform="translate(-303.6,-273.8)"
         id="layer1"
         inkscape:groupmode="layer"
         inkscape:label="Layer 1">
        <path
             inkscape:connector-curvature="0"
             id="path29770"
             d="m 342.5,282.5 c -1.8,0 -5.4,-0.1 -8.1,-0.1 -14.1,-0.4 -22,-0.4 -29.3,0 -0.5,0 -0.7,0 -0.5,-0.1 0.3,0 0.3,0 0.1,0 -0.4,-0.1 0.1,-0.3 1,-0.5 0.8,-0.1 0.7,-0.2 -0.2,-0.2 -0.5,0 -0.9,0 -1.7,-0.2 -0.4,-0.1 -0.2,-0.2 0.5,-0.1 0.4,0 0.6,0 0.4,-0.1 -0.1,0 0,0 0.6,-0.1 0.8,-0.1 0.9,0 -1.2,-0.2 -0.7,-0.1 -0.6,-0.2 0.3,-0.2 1.2,-0.1 1.4,-0.2 0.5,-0.2 -0.9,0 -0.9,0 1.3,-0.4 1.1,-0.2 1.1,-0.2 -0.8,-0.2 -1.6,0.1 -2,0 -1.2,-0.1 0.2,0 0.3,-0.1 0.3,-0.2 0,0 0.2,-0.1 0.5,-0.1 0.8,-0.2 0.8,-0.2 -0.3,-0.3 -1.4,0 -1.3,0 0.4,-0.2 1.7,-0.2 1.7,-0.2 0.1,-0.2 -1.5,0.1 -1.4,-0.1 0.2,-0.3 0.7,-0.1 0.9,-0.1 0.6,-0.1 -0.6,-0.1 -0.3,-0.1 0.8,-0.2 0.6,-0.1 1.2,-0.2 1.2,-0.2 0,0 -0.2,0 -0.4,0 -1.3,0.1 -2.8,0.1 -3.2,-0.1 -0.4,-0.2 -0.3,-0.2 0.8,-0.2 1,-0.1 0.9,-0.2 -0.1,-0.2 -0.3,0 -0.8,-0.1 -1,-0.1 -0.4,-0.1 0,-0.1 1.5,-0.3 0.6,0 0.6,0 -0.3,-0.1 -0.9,0 -0.9,0 -0.2,-0.2 0.9,-0.2 0.8,-0.2 -0.3,0 -1.4,0.2 -1,0.1 0.8,-0.3 1,-0.2 1.8,-0.3 1.9,-0.3 0,-0.1 -0.7,0 -1.6,0 -1,0 -1.8,0 -1.9,0 -0.2,-0.1 -0.1,-0.1 0.5,-0.1 0.8,0 0.8,-0.1 -0.1,-0.2 -0.7,-0.2 -0.7,-0.2 1.1,-0.2 2,0 2,-0.1 -0.3,-0.2 -1,-0.1 -1.3,-0.1 -1,-0.2 0.3,0 0.3,0 -0.1,0 -0.6,-0.1 0.4,-0.2 1.5,-0.2 1.1,0 1.4,-0.1 0.3,-0.1 -1.1,0 -2.2,-0.1 -2.2,-0.2 0,0 0.5,-0.1 2.6,-0.3 1.2,-0.2 1.1,-0.2 -1.3,-0.3 -2.5,-0.1 -1.5,-0.2 3.5,-0.3 5.4,-0.2 11.1,-0.1 22.9,0.2 14.1,0.4 21,0.4 27.3,0.1 0.6,-0.1 1.1,-0.1 1.2,-0.1 0.1,0.1 -0.3,0.2 -2,0.5 -2.4,0.4 -2.4,0.4 -1.9,0.3 1.9,-0.1 1.9,-0.1 0,0.3 -0.1,0 0.8,0 1.9,0 2,0 2.1,0 2.1,0.1 0,0.2 -0.8,0.3 -3,0.3 -1.4,0 -1.1,0.1 0.4,0.1 2.1,0 2.7,0.3 0.8,0.3 -1.1,0 -1.4,0.1 -0.4,0.1 1,0.1 0.9,0.1 -0.1,0.3 -1.2,0.1 -0.9,0.1 0.7,0 0.8,0 1.5,-0.1 1.5,-0.1 0.1,0.1 0,0.1 0,0.1 -0.2,0 -3.9,0.7 -3.9,0.7 0,0 0.8,0 1.7,0.1 0.9,0 1.7,0.1 1.8,0.1 0,0.1 0,0.1 -0.1,0.1 -0.1,0 -0.8,0.1 -1.5,0.2 -1.3,0.1 -0.8,0.1 1.3,0 0.5,-0.1 0.8,0 0.8,0 0,0.1 -0.7,0.2 -2.5,0.3 -0.5,0.1 -0.9,0.1 -0.9,0.1 0,0 0.6,0.1 1.5,0.1 1.5,0 1.5,0 0.2,0.1 -2.5,0.2 -2.6,0.2 -1.7,0.2 2,0.1 2.3,0.1 1.2,0.2 -1.6,0.2 -1.6,0.3 0.1,0.3 1.6,0 1.6,0 0.2,0.1 -0.8,0 -1.5,0.1 -1.6,0.1 -0.1,0 0.7,0.1 1.7,0.1 2.1,0.1 2.3,0.2 0.4,0.2 -1.3,0 -1.1,0.1 0.3,0.1 1.2,0 0.5,0.2 -2,0.4 -0.6,0.1 -1.1,0.2 -1.2,0.2 0,0 0.7,0 1.6,0 1.6,0 1.6,0 0.7,0.1 -0.4,0.1 -0.8,0.1 -0.9,0.2 0,0 1.6,0.1 2.2,0.1 0.4,0 0.7,0 0.7,0.1 0,0.1 -0.3,0.1 -1.6,0.1 -1.9,0.1 -1.9,0.2 -0.1,0.2 1.7,0 1.7,0 1.7,0.2 0,0.2 0,0.2 -1,0.2 -0.5,0 -0.9,0 -1,0.1 0,0 0.3,0 0.9,0 0.5,0 0.9,0.1 0.9,0.1 0,0.1 -0.7,0.1 -2,0.1 -1,0 -1.9,0 -1.9,0 0,0 0.8,0.1 1.8,0.1 1.5,0.1 1.9,0.2 1.8,0.3 0,0 -0.5,0.1 -1,0.1 -1,0 -1,0 0.1,0.1 2.9,0.3 1.7,0.3 -6,0.4 -3.8,0 -8.3,0 -10.1,-0.1 z"
             style="fill:#000000;stroke-width:0.999999" />
    </g>
</svg>
