<?xml version="1.0" encoding="UTF-8" standalone="no"?>
<svg xmlns:dc="http://purl.org/dc/elements/1.1/" xmlns:cc="http://creativecommons.org/ns#" xmlns:rdf="http://www.w3.org/1999/02/22-rdf-syntax-ns#" xmlns:svg="http://www.w3.org/2000/svg" xmlns="http://www.w3.org/2000/svg" xmlns:sodipodi="http://sodipodi.sourceforge.net/DTD/sodipodi-0.dtd" xmlns:inkscape="http://www.inkscape.org/namespaces/inkscape" sodipodi:docname="barbed_wire.svg" inkscape:version="1.1-dev (1:0.92.0+devel+202004210040+f9ba163)" id="svg5147" version="1.1" viewBox="0 0 72.389999 104.14" height="104.14mm" width="72.389999mm">
    <defs id="defs5141" />
    <sodipodi:namedview inkscape:window-maximized="1" inkscape:window-y="0" inkscape:window-x="0" inkscape:window-height="1403" inkscape:window-width="2560" showgrid="false" inkscape:current-layer="layer1" inkscape:document-units="mm" inkscape:cy="-540.34285" inkscape:cx="1628.2286" inkscape:zoom="0.35" inkscape:pageshadow="2" inkscape:pageopacity="0.0" borderopacity="1.0" bordercolor="#666666" pagecolor="#ffffff" id="base" />
    <metadata id="metadata5144">
        <rdf:RDF>
            <cc:Work rdf:about="">
                <dc:format>image/svg+xml</dc:format>
                <dc:type rdf:resource="http://purl.org/dc/dcmitype/StillImage" />
                <dc:title></dc:title>
            </cc:Work>
        </rdf:RDF>
    </metadata>
    <g transform="translate(324.96881,-291.13238)" id="layer1" inkscape:groupmode="layer" inkscape:label="Layer 1">
        <path transform="matrix(0.08856244,0,0,0.10507138,-325.26153,290.56967)" id="path5470" d="m 445.333,5.66669 0.334,0.66662 -0.334,-0.66662 m 191,2 0.334,0.66662 -0.334,-0.66662 m -192.333,0.33331 -1,5 -1,-2 h -1 l -7,36 c -5.365,-2.6499 -7.635,-0.4588 -9,5 h -1 c -0.243,-5.0521 -3.642,-11.2382 -7,-4 h -1 c -4.27,-8.4531 -8.175,0.7598 -11,5 0.33,-2.4136 1.358,-7.6526 -2.341,-8.13 -4.14,-0.5342 -6.135,5.701 -10.403,4.705 -3.707,-0.8652 -5.125,-6.6385 -6.572,-9.5757 -3.895,-7.9034 -9.573,-14.8607 -14.684,-21.9993 l -6,-3 5,9 -5,-4 1,3 -2,-1 18,29 c -16.613,1.6643 -34.906,7.5493 -51.446,7.0181 -10.614,-0.3409 -20.959,-4.0602 -31.554,-4.8435 -12.328,-0.9117 -24.724,0.8681 -37,0.3687 -8.503,-0.3459 -16.361,-3.271 -25,-2.0261 -12.67,1.8255 -22.897,12.4046 -34.747,14.0858 -4.149,0.5885 -11.349,-9.9843 -14.649,-5.5232 -2.648,3.5794 2.924,11.5703 4.396,14.9202 -3.074,-3.6226 -16.373,-22.1675 -17,-8 h -1 c -3.256,-3.9072 -6.017,-2.7645 -7,2 h -1 c -7.953,-6.9435 -4.435,7.6417 -3,11 l -34,-34 2,4 -8,-7 6,10 -9,-9 5,8 -6,-3 37,38 c -17.687,8.4421 -27.296,24.572 -39.658,38.751 -10.401,11.93 -22.0005,22.322 -28.3872,37.249 -3.8981,9.111 -2.3656,19.038 -5.9467,28 -6.6194,16.566 -16.2699,30.939 -19.0081,49 l -41,-17 v 1 l 4,2 -1,2 3,1 v 1 l -12,-4 v 1 l 8,4 v 1 l -5,-1 v 1 l 38,14 c -3.8836,5.523 -0.409,7.998 5,10 v 1 c -10.9773,-1.109 -9.6868,6.381 0,8 v 1 c -13.7713,-1.62 -6.6374,5.324 0,10 -2.4147,-0.328 -7.823,-1.365 -8.3273,2.341 -0.567,4.167 5.905,6.065 4.9013,10.403 -0.8562,3.701 -6.6404,5.135 -9.5747,6.567 -7.9815,3.895 -14.8417,9.506 -21.9993,14.689 l -3,6 9,-5 -4,5 4,-2 -2,3 29,-18 c 1.1925,16.903 7.3706,34.669 6.9988,51.446 -0.2343,10.573 -4.0724,20.977 -4.8266,31.554 -0.8502,11.924 1.0597,24.137 -0.1699,36 -0.9138,8.817 -4.776,16.979 -4.8987,26 -0.1461,10.741 5.1536,21.43 4.735,31.904 -0.2636,6.593 -11.4709,5.976 -10.7543,11.733 0.645,5.181 11.6481,2.515 14.9157,2.363 v 1 c -12.8935,2.544 -20.4687,3.964 -18,19 -4.7085,6.753 5.7197,6.976 10,7 v 1 l -46,8 -1,2 v 1 h 5 v 1 l -12,1 v 1 h 9 v 1 h -3 v 1 l 50,-8 3.7796,55 -1.7825,45 6.2733,27 -7.2704,50 c -13.1561,-3.192 -28.4194,-8.389 -42,-7 v 1 l 6,1 v 1 l -10,-1 v 1 l 6,1 v 1 h -3 v 1 l 38,8 c -3.3295,5.48 0.6618,7.114 5,10 -6.4585,-0.697 -9.2672,1.896 -6,8 -4.889,5.274 3.4284,8.074 7,11 -2.4306,-0.402 -7.6559,-1.434 -8.1285,2.333 -0.5929,4.725 7.4979,6.348 5.8727,11.322 -1.4436,4.418 -9.308,7.235 -12.7251,10.004 -6.5676,5.322 -11.4137,12.341 -16.0191,19.341 l 2,-1 v 1 l -5,8 10,-10 -5,9 h 1 l 2,-4 h 1 l -2,5 h 1 c 7.6768,-9.909 15.2735,-20.276 26,-27 l 19.8454,49 10.274,32 21.4256,29.342 11.532,18.544 35.236,22.094 4.078,14.936 10.609,-11.916 c -2.206,5.686 -8.724,20.529 2,20 1.973,3.894 3.931,4.324 8,3 2.025,10.115 8.445,1.447 10,-4 h 1 c -0.032,17.3 -3.419,33.389 -8,50 h 1 l 2,-5 h 1 v 4 h 1 l 3,-5 -1,11 h 1 l 1,-6 h 1 v 3 h 1 l 4.89,-35 2.119,-12.667 11.991,1.452 31,3.211 58,1.89 27,-6.204 50,7.318 c -3.256,13.175 -8.409,28.38 -7,42 h 1 l 1,-6 h 1 l -1,10 h 1 l 1,-6 h 1 v 3 h 1 l 8,-38 c 5.48,3.329 7.114,-0.662 10,-5 -0.595,4.34 1.076,10.601 6,6 h 2 c 5.213,4.854 7.536,-2.546 8,-7 h 2 c -0.228,2.559 -1.07,7.531 2.426,8.393 4.609,1.136 6.445,-6.754 11.19,-5.138 3.489,1.189 4.742,6.818 6.198,9.746 4.087,8.215 10.078,15.408 15.186,22.999 h 1 l -1,-3 6,6 -6,-11 7,7 -2,-4 2,1 -18,-30 c 16.273,-2.166 34.682,-7.324 51,-6.999 10.736,0.214 21.27,4.062 32,4.827 11.97,0.853 24.096,-1.025 36,-0.248 8.85,0.577 16.98,3.073 26,2.151 12.137,-1.241 23.707,-13.272 34.959,-13.274 4.079,-10e-4 10.075,9.765 13.832,5.463 3.037,-3.478 -2.549,-11.401 -3.791,-14.92 h 1 c 2.683,4.817 10.947,19.889 16,10 4.069,1.324 6.027,0.894 8,-3 9.192,2.968 6.691,-5.701 4,-11 12.317,9.546 22.712,29.53 37,35 l -4,-8 11,10 -5,-9 3,2 -35,-38 c 16.842,-6.589 27.43,-22.695 38.565,-36 9.806,-11.717 20.948,-21.421 28.462,-35 5.375,-9.714 3.996,-19.952 7.395,-30 5.817,-17.199 15.652,-32.173 20.578,-50 l 39,17 -4,-3 v -1 l 5,1 v -1 l -6,-3 v -1 l 13,5 v -1 l -9,-5 v -1 l 4,1 v -1 l -36,-13 c 3.115,-5.776 0.732,-8.052 -5,-10 v -1 c 4.893,-0.116 12.995,-3.291 5,-7 v -1 c 8.122,-4.128 0.153,-8.445 -5,-10 v -1 c 14.988,1.335 3.327,-8.695 2,-16 13.07,-2.633 23.29,-11.65 34,-19 v -1 l -3,1 6,-6 -11,6 6,-6 -3,1 1,-2 -30,18 c -1.17,-16.581 -6.842,-33.518 -6.866,-50 -0.015,-10.758 3.899,-21.288 4.691,-32 0.904,-12.218 -1.342,-24.88 0.082,-37 0.997,-8.494 4.633,-16.274 4.963,-25 0.421,-11.103 -5.247,-22.015 -4.719,-32.839 0.31,-6.333 11.468,-5.54 10.765,-10.971 -0.68,-5.248 -11.713,-2.616 -14.916,-2.19 v -2 c 7.453,-0.592 19.258,-1.023 17,-11 v -7 c 5.842,-5.949 -3.274,-7.828 -8,-8 v -1 l 46,-7 v -1 h -4 v -1 h 6 v -1 h -8 v -1 l 10,-1 v -1 h -7 v -1 h 3 v -1 c -16.376,0.144 -32.456,2.916 -48,8 -5.423,-27.64 -3,-57.113 -3,-85 0,-7.634 0.544,-15.491 -1.076,-23 -1.364,-6.328 -4.965,-12.481 -5.123,-19 -0.404,-16.678 5.527,-34.347 7.199,-51 l 40,9 v -1 h -3 v -1 h 3 v -1 l -5,-1 v -1 l 9,1 v -1 l -5,-1 2,-1 v -1 l -36,-7 c 2.65,-5.365 0.459,-7.635 -5,-9 v -1 c 4.637,-0.016 13.35,-4.054 5,-7 v -1 c 6.521,-5.382 -1.674,-8.119 -6,-11 2.612,0.357 7.531,1.301 8.392,-2.34 1.163,-4.916 -7.104,-6.589 -5.966,-11.465 0.962,-4.119 8.506,-6.735 11.574,-9.114 7.2,-5.582 12.712,-12.741 18,-20.081 l -2,1 v -1 l 5,-8 -11,10 6,-9 -30,25 c -2.93,-17.888 -11.941,-31.648 -18.661,-48 -4.245,-10.329 -5.292,-21.702 -9.826,-32 -5.248,-11.918 -14.235,-20.599 -21.669,-31 -4.332,-6.06 -6.815,-13.139 -11.616,-18.93 -5.572,-6.721 -13.409,-11.5456 -21.228,-15.2425 -4.151,-1.9626 -10.903,-3.1726 -13.921,-6.8074 -2.476,-2.9811 1.879,-14.5084 -3.343,-14.5935 -4.948,-0.0806 -7.326,9.0301 -8.736,12.5734 h -1 c 1.026,-6.1646 8.349,-21.4006 -3,-20 -1.25,-3.9929 -2.823,-5.0897 -7,-5 -2.845,-8.3661 -8.296,-0.8267 -10,4 h -1 c 0,-16.5798 3.037,-31.9785 7,-48 h -1 v 2 h -1 v -3 h -1 l -3,6 1,-11 h -1 l -2,8 h -1 v -7 h -1 l -6,52 c -19.303,-5.7651 -36.242,-6.1326 -56,-7.3341 -17.461,-1.0618 -34.333,-3.6688 -52,-2.5469 -8.998,0.5714 -17.147,5.987 -26,6.1941 -16.401,0.3837 -34.675,-5.129 -51,-7.3131 l 9,-40 h -1 v 3 h -1 v -3 h -1 l -1,5 h -1 v -9 m 3.333,1.66669 0.334,0.66661 -0.334,-0.66661 m 191.667,3.33331 1,1 -1,-1 m -270,3 1,1 -1,-1 m 2,3 -1,1 1,-1 m 267.667,0.6667 -0.334,0.6666 0.334,-0.6666 m -271.667,3.3333 1,2 -1,-2 m -239,21 1,1 -1,-1 m 288,5 v 4 h -1 l 1,-4 m -174,10 v 1 l -34,13 c 8.773,-8.162 22.091,-13.3893 34,-14 m 142,0 v 4 l -25,-1 25,-3 m -80,2 v 1 l -21,-1 h 21 m 170,4 v 1 l -37,-5 c 10.832,-3.0052 26.238,1.5754 37,4 m 65,-5 v 1 l -25,1 25,-2 m 106,1 -1,1 1,-1 m -259,10 c -1.479,16.8317 -10.582,34.03 -5,51 h 1 v -7 h 2 v 5 h 1 v -4 l 2,1 c 0.011,-14.73 2.597,-28.9632 7,-43 h 1 c 0.237,5.2402 1.722,11.8625 8,8 16.754,4.2751 12.161,-8.4148 20,-17 -0.494,2.4759 -3.11,15.5846 2.821,13.8783 3.861,-1.1111 5.009,-8.6401 6.179,-11.8783 11.973,3.3021 25.456,7.3735 38,6.4785 8.58,-0.6121 16.549,-4.7568 25,-5.1568 12.924,-0.6118 26,1.5727 39,0.4256 10.911,-0.9629 22.007,-5.0266 33,-4.4897 16.142,0.7883 31.778,11.0786 47,15.7424 l -20,24 3,-1 -3,5 2,-1 -1,3 c 7.682,-7.68 19.652,-25.4716 31,-26 1.392,6.9158 6.419,13.2841 9,3 h 1 c -0.504,7.9752 6.455,20.41 14,10 h 1 c -0.508,4.645 -0.006,7.35 5,8 l -16,36 5,-5 h 1 l -2,6 h 1 c 6.921,-11.325 15.114,-23.852 18,-37 13.583,3.455 35.744,16.718 43.869,28.268 5.01,7.121 6.311,16.999 10.493,24.732 6.465,11.957 15.8,23.216 20.542,36 5.716,15.411 6.931,35.659 8.096,52 -14.794,-0.13 -34.472,-5.955 -48,2 h 4 v 1 h -6 v 1 c 15.937,0 32.492,-0.141 48,4 v 1 c -9.014,0.297 -12.42,6.236 -7,14 -2.593,9.829 9.915,9.938 17,11 v 1 c -14.339,0.784 -19.396,4.078 -3,10 -3.685,13.359 -7.016,27.031 -5.925,41 0.588,7.522 4.252,14.523 4.603,22 0.547,11.617 -1.61,23.318 -0.317,35 1.181,10.663 4.753,21.269 5.098,32 0.543,16.865 -6.446,33.877 -6.459,51 l -30,-15 3,4 -8,-4 4,3 -2,2 c 8.419,4.21 15.455,10.553 23.989,14.692 2.685,1.301 7.385,2.773 7.834,6.286 0.527,4.127 -5.709,5.681 -5.152,9.718 0.459,3.318 5.119,2.543 7.329,2.304 -5.516,5.708 -12.352,11.127 1,10 v 1 c -8.69,1.45 -11.849,7.902 -1,8 v 1 c -5.186,1.636 -7.48,3.4 -6,9 l -38,8 v 1 h 3 v 1 h -3 v 1 l 8,-1 v 1 l -4,1 v 1 c 12.366,1.265 27.378,-2.83 39,-7 3.521,15.415 8.459,36.224 7.671,52 -0.46,9.215 -5.956,17.617 -6.552,27 -0.962,15.144 2.646,30.045 2.14,45 -0.612,18.091 -4.259,35.739 -4.259,54 l -50,-8 v 1 h 4 v 1 h -10 v 1 l 13,1 v 1 h -9 v 1 h 7 v 1 h -5 v 1 c 16.384,0.071 32.475,2.885 48,8 v 1 c -4.678,0.076 -12.512,0.622 -9,7 -4.872,16.41 8.226,12.867 17,20 -15.172,-2.268 -17.043,2.337 -3,9 -4.655,11.796 -10.146,23.599 -13.022,36 -1.73,7.465 -0.702,15.79 -3.158,23 -2.993,8.783 -9.073,16.862 -13.466,25 -5.481,10.152 -9.146,21.711 -16.308,30.881 -9.108,11.661 -29.333,22.891 -43.046,28.119 l -6,-34 h -1 v 6 h -1 l -1,-8 h -1 c -1.052,12.18 5.265,27.342 2.921,38.678 -1.641,7.935 -18.153,-3.855 -10.921,10.322 -4.208,-2.641 -7.944,-6.632 -12,-2 -4.055,0.164 -5.731,1.09 -7,5 l -7,1 c -5.735,-0.956 -11.395,-16.791 -14,-22 -1.684,-3.368 -2.253,-7.687 -5,-7 l 1,-3 h -3 l 3,7 -4,-5 h -1 l 18,38 c -13.423,6.662 -32.722,16.398 -48,16.292 -9.818,-0.068 -18.962,-5.963 -29,-6.254 -14.408,-0.416 -28.709,2.308 -43,1.887 -18.086,-0.534 -35.769,-3.925 -54,-3.925 l 8,-50 h -1 v 4 h -1 v -9 h -1 l -1,12 h -1 v -9 h -1 v 7 h -1 v -5 h -1 c -0.071,16.384 -2.885,32.475 -8,48 h -1 c -0.036,-4.858 -0.288,-13.333 -7,-9 l -8,1 c -8.88,-2.882 -9.512,9.854 -10,16 h -2 c 0.115,-2.483 2.376,-16.683 -3.695,-14.127 -3.636,1.531 -4.774,8.854 -6.305,12.127 -11.769,-3.686 -25.559,-7.451 -38,-6.468 -8.227,0.65 -15.88,4.396 -24,5.034 -11.884,0.933 -24.021,-1.531 -36,-0.205 -10.241,1.135 -20.655,4.871 -31,4.483 -15.831,-0.594 -32.264,-9.647 -47,-14.844 l 20,-26 -4,2 2,-6 c -7.029,7.003 -16.413,20.293 -25.188,24.605 -7.009,3.445 -9.01,-16.497 -14.812,-1.605 h -1 c 0.782,-8.426 -8.089,-20.813 -14,-9 h -1 c 0.342,-4.724 -0.014,-7.784 -5,-9 l 14,-37 h -1 l -3,7 h -1 l 1,-6 h -1 l -17,37 c -13.709,-6.843 -31.047,-15.032 -41.545,-26.412 -6.202,-6.723 -7.507,-17.64 -11.941,-25.588 -6.822,-12.226 -16.6943,-23.865 -21.6662,-37 -5.8543,-15.466 -7.0604,-35.597 -8.8478,-52 l 51,1 v -1 h -4 v -1 h 4 v -1 h -5 v -1 h 6 v -1 l -49,-3 v -1 c 9.8458,-1.025 12.7686,-14.107 5.2951,-20.925 -3.8962,-3.554 -11.3853,-3.607 -16.2951,-5.075 v -1 c 2.7629,0.079 16.646,2.47 14.8783,-3.651 -1.047,-3.625 -8.8486,-4.931 -11.8783,-6.349 3.7646,-13.649 7.2573,-27.765 5.8267,-42.037 -0.685,-6.834 -4.0126,-13.149 -4.5197,-19.963 -0.8858,-11.904 1.6346,-23.985 0.2277,-36 -1.2077,-10.314 -4.6142,-20.627 -4.9986,-31 -0.6251,-16.866 6.4309,-33.891 6.4639,-51 11.0102,1.859 19.8387,10.115 29,16 l -2,-5 7,3 -2,-5 -22.9889,-14.368 -7.834,-5.845 5.1515,-10.329 -7.3286,-2.458 c 3.9853,-3.554 10.7084,-4.982 6,-11 v -1 c 3.2813,-4.756 -0.2983,-6.476 -5,-7 v -1 c 5.0023,-1.486 6.4545,-3.987 5,-9 l 37,-7 v -1 h -3 v -1 l 6,-1 v -1 l -10,1 v -1 l 6,-1 v -1 l -42,7 -6.7377,-51 6.5575,-27 -2.0033,-45 4.1835,-54 48,7 -1,-2 h 5 v -1 l -9,-1 v -1 h 7 v -1 h -5 v -1 h 2 v -1 l -44,-7 v -1 c 5.6504,-0.255 10.7881,-1.494 8,-8 v -1 c 4.2189,-15.919 -8.9263,-11.628 -17,-19 14.2761,3.211 18.0985,-3.344 3,-8 3.237,-11.914 9.2262,-22.943 12.0216,-35 1.8696,-8.064 0.436,-17.299 3.2809,-25 3.7381,-10.119 10.3195,-19.317 15.0395,-29 4.62,-9.476 8.058,-20.77 15.219,-28.71 10.116,-11.218 27.873,-20.858 41.439,-27.29 l 4,30 2,-1 v 4 h 1 v -5 h 1 l 1,8 h 1 v -4 h 1 v 3 h 1 l -6,-40 c 6.697,-1.6349 18.172,3.43 12,-8 4.208,2.6406 7.944,6.6317 12,2 4.161,-0.4857 5.635,-1.7935 6,-6 3.785,1.2698 5.487,1.1927 8,-2 h 1 l 17,32 h 3 l -2,-5 h 3 l -17,-34 c 14.602,-5.763 30.221,-14.303 46,-16.1245 9.944,-1.1478 19.901,5.6379 30,6.0569 14.769,0.6128 29.356,-2.2891 44,-1.8571 17.752,0.5236 35.107,3.9247 53,3.9247 m 28,-8 -1,1 1,-1 m 230,0 -1,1 1,-1 m -24,7 c -6.157,5.6093 -19.112,-2.9208 -26,-5 8.367,-1.9044 18.198,2.1724 26,5 m -207,-5 -1,8 h -1 l 2,-8 m 230,0 -1,1 1,-1 m 9,0 -4,16 h -1 l 5,-16 m -476,2 8,12 -8,-12 m 228,0 v 3 h -1 l 1,-3 m 238,1 -1,1 1,-1 m -474,2 -1,1 1,-1 m 473,0 -2,3 2,-3 m -472,2 -1,1 1,-1 m 1,2 1,2 -1,-2 m 2,3 2,3 -2,-3 m 27,8 1,2 -1,-2 m -7,4 -1,1 1,-1 m -33,5 c -0.499,8.574 -13.173,13.558 -20,17 l 20,-17 m 508,2 c 11.512,4.076 24.181,9.336 31,20 l -32,-19 1,-1 m -74,8 -3,4 3,-4 m 0,4 -3,4 3,-4 m 1,2 -1,2 1,-2 m -364.667,4.667 0.334,0.666 -0.334,-0.666 m 0.667,2.333 -1,3 h 1 v -3 m -3,1 1,1 -1,-1 m 3,3 1,1 -1,-1 m 413,18 1,1 -1,-1 m -1,2 1,1 -1,-1 m 1,2 1,1 -1,-1 m 79,6 9,18 h -1 l -8,-18 m -619,3 -9,19 h -1 l 10,-19 m -21,58 -11,34 h -1 c 1.7455,-11.607 5.0699,-24.354 12,-34 m 669,7 7,25 -4,2 -3,-27 m 40,0 -2,3 2,-3 m 4,5 -1,1 1,-1 m -774,3 1,1 -1,-1 m 2,1 1,1 -1,-1 m 5,1 -1,1 1,-1 m 665.667,21.333 0.666,0.334 -0.666,-0.334 m 56.333,13.667 -1,1 1,-1 m -668,7 v 1 l -8,-1 h 8 m 671,2 v 1 l -8,-1 h 8 m 16,3 v 1 h -4 l 4,-1 m -690,3 v 1 h -3 l 3,-1 m 679,19 -5,36 h -1 c 0.023,-11.742 1.227,-25.142 6,-36 m -686,1 -1,26 h -1 l -2,-26 h 4 m 739.667,7.333 0.666,0.334 -0.666,-0.334 m -4,2 0.666,0.334 -0.666,-0.334 m -778.667,3.667 -1,1 1,-1 m -4,1 1,1 -1,-1 m 9,2 -1,1 1,-1 m -12,3 1,1 -1,-1 m 5,0 1,1 -1,-1 m 730,57 1,19 h -1 v -19 m -686,4 -1,21 h -1 l 2,-21 m -5,61 5,37 h -1 c -2.5397,-11.609 -7.4244,-25.142 -4,-37 m 693,11 v 26 l -4,-1 4,-25 m -41,5 3,3 -3,-3 m -7,1 2,2 -2,-2 m 5,0 2,2 -2,-2 m -4,4 1,1 -1,-1 m 2,1 1,1 -1,-1 m -596.333,3.333 0.666,0.334 -0.666,-0.334 m 3.333,0.667 1,1 -1,-1 m 4.667,2.333 0.666,0.334 -0.666,-0.334 m 641.333,26.667 v 1 h -3 l 3,-1 m -685,3 v 1 h -3 l 3,-1 m -4,1 -1,1 1,-1 m -11,2 v 1 l -9,1 9,-2 m 703,2 v 1 l -8,1 8,-2 m -10,2.333 c 0.773,0 0.16,0.498 -0.333,0.334 l 0.333,-0.334 m -697,4.667 -1,1 1,-1 m 694,19 5,37 h -1 c -2.028,-10.998 -6.772,-25.987 -4,-37 m -688,27 h -1 v -26 c 7.237,2.869 2.4284,19.825 1,26 m 633,-19 v 1 h 3 l -3,-1 m 4,2 v 1 l 6,1 v -1 l -6,-1 m 1,2 1,1 -1,-1 m -596,2 v 1 l 3,1 -3,-2 m -3,4 1,4 h 1 l -1,-2 3,1 -4,-3 m 5,0 v 1 l 4,2 -4,-3 m 645,59 -1,21 h -1 l 2,-21 m -688,6 1,19 h -1 v -19 m 5,61 -5,35 h -1 l 4,-35 h 2 m 682,9 c 0.192,6.729 5.889,22.875 -2,26 l 2,-26 m 39,7 -2,2 2,-2 m -775.3333,7.333 0.6666,0.334 -0.6666,-0.334 m 3.3333,2 c 0.7734,0 0.1602,0.498 -0.3333,0.334 l 0.3333,-0.334 m 726,27.667 v 1 h -3 l 3,-1 m -692,3.333 c 0.7734,0 0.1601,0.498 -0.3333,0.334 l 0.3333,-0.334 m 5,0.667 v 1 h -3 l 3,-1 m 12,2 v 1 h -3 l 3,-1 m 5,1 v 1 h -4 l 4,-1 m 666,1 -1,1 1,-1 m 9,2 v 1 l -8,-1 h 8 m 10,2 5,1 v 1 l -6,-1 1,-1 m -692,23 4,25 h -1 c -2.6583,-8.061 -6.6626,-16.397 -5,-25 h 2 m 683,1 -11,33 h -1 c 1.833,-11.014 5.963,-23.562 12,-33 m 43,15 -1,1 1,-1 m 6,2 1,1 -1,-1 m -771,3 -1,1 1,-1 m 4,4 -1,1 1,-1 m 694,48 -8,17 h -1 l 9,-17 m -634,3 9,18 h -1 l -8,-18 m 89,22 1,1 -1,-1 m -4,2 1,1 -1,-1 m 4,2 1,1 -1,-1 m 407,16 1,1 -1,-1 m 1,2 1,1 -1,-1 m -2,2 1,1 -1,-1 m -461,5 30,18 v 1 c -9.609,-2.616 -26.777,-8.475 -30,-19 m 103,3 -1,2 1,-2 m 2,1 -2,3 2,-3 m 450,0 c -5.751,7.287 -13.302,13.598 -22,17 2.622,-8.539 14.516,-13.23 22,-17 m -451,4 1,1 -1,-1 m 1,2 -1,2 1,-2 m 396,14 1,2 -1,-2 m -8,3 1,3 h -1 v -3 m -442,7 -3,12 h -1 l 4,-12 m 469,1 6,12 h -1 l -5,-12 m 10,0 -1,1 1,-1 m -20,1 7,11 h -1 l -6,-11 m -228,3 v 3 h -1 l 1,-3 m -224,2 -1,5 h -1 l 2,-5 m 46,9 v 1 l -26,-6 1,-4 25,9 m 381,-8 v 1 c -10.858,5.782 -21.419,11.766 -34,12 l 34,-13 m -204,1 -1,8 h -1 l 2,-8 m 9,0 v 3 h -1 l 1,-3 m -243,4 -1,1 1,-1 m 9,0 -2,7 h -1 l 3,-7 m 199,6 v 1 l -36,-5 c 11.555,-3.333 24.585,2.131 36,4 m 263,-5 -1,1 1,-1 m -184,4 v 1 c -6.691,0.191 -22.931,5.746 -26,-2 l 26,1 m -156,0 v 1 l -19,1 19,-2 m 232,1 v 1 l -21,-1 h 21 m -132,7 -1,6 h -1 l 2,-6 m 291,3 -1,1 1,-1 m -6,3 2,4 h -1 l -1,-4 m -237,24 1,2 -1,-2 m -265,4 -1,1 1,-1 m 184.667,4.667 -0.334,0.666 0.334,-0.666 m -186.334,2 0.334,0.666 -0.334,-0.666 m 184,1 0.334,0.666 -0.334,-0.666 m -181,5 0.334,0.666 -0.334,-0.666 m 183.667,2.333 1,1 z" style="fill:#666;stroke:white;stroke-width:1.38943;stroke-miterlimit:4;stroke-dasharray:none" />
    </g>
</svg>
