<?xml version="1.0" encoding="UTF-8" standalone="no"?>
<svg
     xmlns:dc="http://purl.org/dc/elements/1.1/"
     xmlns:cc="http://creativecommons.org/ns#"
     xmlns:rdf="http://www.w3.org/1999/02/22-rdf-syntax-ns#"
     xmlns:svg="http://www.w3.org/2000/svg"
     xmlns="http://www.w3.org/2000/svg"
     xmlns:sodipodi="http://sodipodi.sourceforge.net/DTD/sodipodi-0.dtd"
     xmlns:inkscape="http://www.inkscape.org/namespaces/inkscape"
     inkscape:version="1.1-dev (1:0.92.0+devel+202003241343+2742de5)"
     sodipodi:docname="bear2.svg"
     id="svg5"
     width="75.01"
     viewBox="1.529 104.4 25.74 19.24"
     version="1.1"
     height="56.08">
    <metadata
         id="metadata9">
        <rdf:RDF>
            <cc:Work
                 rdf:about="">
                <dc:format>image/svg+xml</dc:format>
                <dc:type
                     rdf:resource="http://purl.org/dc/dcmitype/StillImage" />
            </cc:Work>
        </rdf:RDF>
    </metadata>
    <sodipodi:namedview
         inkscape:current-layer="svg5"
         inkscape:window-maximized="1"
         inkscape:window-y="27"
         inkscape:window-x="0"
         inkscape:cy="27.94"
         inkscape:cx="37.52"
         inkscape:zoom="14.73"
         showgrid="false"
         id="namedview7"
         inkscape:window-height="983"
         inkscape:window-width="1920"
         inkscape:pageshadow="2"
         inkscape:pageopacity="0"
         guidetolerance="10"
         gridtolerance="10"
         objecttolerance="10"
         borderopacity="1"
         bordercolor="#666666"
         pagecolor="#ffffff" />
    <defs
         id="defs2" />
    <path
         style="fill:none;stroke:#000000;stroke-width:0.1716;stroke-miterlimit:4;stroke-dasharray:none;stroke-opacity:1"
         id="path1135"
         d="m 2.51,123.4 c -0.09,0 -0.333,-0.2 -0.533,-0.4 l -0.362,-0.3 v -1.1 c 0,-1.5 0.07,-1.6 1.204,-2.6 l 0.825,-0.7 0.06,-0.5 c 0.09,-0.8 0.436,-1.9 0.728,-2.3 0.14,-0.2 0.464,-0.6 0.716,-1 0.316,-0.3 0.521,-0.7 0.65,-1.1 0.458,-1.4 1.818,-2.7 3.392,-3.3 0.264,0 0.93,-0.1 1.47,-0.2 1.4,-0.1 2.31,-0.4 3.34,-1.2 0.52,-0.3 1.33,-0.6 2.01,-0.8 0.4,-0.1 0.68,-0.2 1.18,-0.6 0.77,-0.5 0.98,-0.7 0.98,-1.1 0,-0.1 0.11,-0.4 0.24,-0.7 0.28,-0.5 0.49,-0.6 0.83,-0.1 0.48,0.6 0.82,0.5 1.15,-0.3 0.1,-0.3 0.24,-0.6 0.3,-0.6 0.17,-0.2 0.5,0.2 0.71,0.8 0.16,0.5 0.22,0.6 0.57,0.8 0.22,0.1 0.63,0.4 0.93,0.7 0.38,0.3 0.63,0.5 0.85,0.5 0.18,0 0.5,0.1 0.67,0.2 0.41,0.1 0.5,0.4 0.22,0.7 -0.1,0.2 -0.25,0.5 -0.34,0.7 -0.17,0.4 -0.22,0.5 -0.51,0.6 -0.16,0 -0.42,0.1 -0.56,0.1 -0.21,0 -0.33,0.1 -0.67,0.6 -0.22,0.3 -0.62,0.8 -0.9,1.1 -0.38,0.4 -0.55,0.6 -0.69,1 -0.24,0.8 -0.17,1.3 0.35,2.4 0,0 0.45,0.3 0.92,0.6 0.46,0.3 1.03,0.7 1.27,0.9 0.34,0.3 0.57,0.4 1.21,0.6 0.51,0.1 1.03,0.2 1.4,0.2 0.53,0 0.61,0 0.82,0.2 0.16,0.1 0.25,0.3 0.25,0.5 0,0.2 0,0.3 -0.97,0.6 -1.29,0.5 -1.5,0.5 -1.99,0.3 -0.58,-0.3 -1.56,-0.6 -2.49,-0.7 -1.06,0 -1.55,-0.2 -2.39,-0.9 -0.87,-0.6 -1.09,-0.6 -1.75,-0.2 -0.25,0.2 -0.46,0.4 -0.46,0.4 0,0.1 0.11,0.3 0.15,0.6 0.16,0.5 0.42,0.8 1.3,1.4 0.65,0.5 0.77,0.7 0.77,1.4 0,0.5 -0.15,0.8 -0.59,1 -0.45,0.2 -0.71,0.2 -1.36,0 -0.43,-0.2 -0.53,-0.3 -0.77,-0.6 -0.12,-0.2 -0.27,-0.5 -0.28,-0.6 0,-0.2 -0.26,-0.4 -0.5,-0.7 -0.42,-0.4 -0.46,-0.4 -0.57,-0.2 -0.1,0.1 -0.1,0.2 -0.1,0.3 0,0.3 -0.26,0.8 -0.52,1.2 -0.21,0.2 -0.47,0.4 -0.98,0.6 -0.38,0.2 -0.76,0.4 -0.85,0.5 -0.16,0.1 -0.16,0.1 0.19,0.5 0.67,0.8 0.38,1 -1.48,0.9 -1.41,0 -1.937,-0.3 -2.614,-1.2 -0.135,-0.2 -0.244,-0.4 -0.244,-0.4 0,-0.1 0.202,-0.4 0.449,-0.7 0.613,-0.7 0.745,-1 0.745,-1.3 0,-0.3 -0.333,-0.9 -0.509,-0.9 -0.07,0 -0.323,0.3 -0.557,0.7 -0.58,0.8 -1.301,1.5 -1.801,1.7 -0.69,0.4 -1.535,0.6 -2.174,0.6 -0.683,0 -0.751,0.1 -0.31,0.5 0.345,0.2 0.484,0.5 0.487,0.8 v 0.2 H 3.848 c -0.64,0 -1.244,0 -1.338,-0.1 v 0" />
</svg>
