<?xml version="1.0" encoding="UTF-8" standalone="no"?>
<svg xmlns:svg="http://www.w3.org/2000/svg" xmlns="http://www.w3.org/2000/svg" xmlns:sodipodi="http://sodipodi.sourceforge.net/DTD/sodipodi-0.dtd" xmlns:inkscape="http://www.inkscape.org/namespaces/inkscape" sodipodi:docname="boxes.svg" inkscape:version="1.1-dev (1:0.92.0+devel+202005080040+c5a9cc1)" id="svg1009" version="1.1" viewBox="0 0 108.01186 80.010458" height="80.01046mm" width="108.01186mm">
    <defs id="defs1005" />
    <sodipodi:namedview inkscape:window-maximized="1" inkscape:window-y="0" inkscape:window-x="0" inkscape:window-height="1403" inkscape:window-width="2560" showgrid="false" inkscape:current-layer="layer1" inkscape:document-units="mm" inkscape:cy="210.56391" inkscape:cx="129.0387" inkscape:zoom="1.8748097" inkscape:pageshadow="2" inkscape:pageopacity="0.0" borderopacity="1.0" bordercolor="#666666" pagecolor="#ffffff" id="base" />
    <g transform="translate(-58.807547,5.110114)" id="layer1" inkscape:groupmode="layer" inkscape:label="Layer 1">
        <path transform="matrix(0.51294893,0,0,0.51294893,143.02731,55.462949)" style="fill:none;stroke:black;stroke-width:0.515808;stroke-miterlimit:4;stroke-dasharray:none" id="path118" stroke-width="0.07902500300000001" stroke="black" fill="none" d="m -89.917517,-15.271376 h -69.000003 l -5.012,-5.013 v -39.295 l 5.012,-5.012 h 69.000003 l 5.013,5.012 v 39.295 l -5.013,5.013" />
        <path transform="matrix(0.07055556,0,0,0.07055556,117.79211,-0.01860479)" inkscape:connector-curvature="0" inkscape:export-ydpi="128.67" inkscape:export-xdpi="128.67" inkscape:export-filename="C:\Users\Heather\Documents\Cricut\Borders and edges\rnd crnr sqr frame.png" sodipodi:nodetypes="csccsccccccccccccccccccccc" id="path3703" d="m 368.9,333 c -1.4,9.3 -3.4,17 -10.9,24.9 -6.8,7.1 -15.8,9.4 -25,10.9 v 288.3 c 9.5,1.1 18,4.3 25,10.9 7.1,6.8 9.3,15.8 10.9,25 h 288.2 c 1.1,-9.5 4.2,-18 10.9,-25 6.7,-7.1 15.7,-9.4 25,-10.9 v -288.3 c -9.5,-1 -18,-4.2 -25,-10.9 -7,-6.6 -9.3,-15.6 -10.9,-24.9 z m 12.4,15.4 h 263.4 c 2.4,7.8 6.9,14.6 12.5,20.4 5.7,5.8 12.8,9.9 20.4,12.5 v 263.4 c -7.8,2.3 -14.6,6.8 -20.4,12.4 -5.9,5.7 -9.9,12.8 -12.6,20.5 h -263.2 c -2.4,-7.8 -6.9,-14.6 -12.5,-20.5 -5.7,-5.8 -12.8,-9.9 -20.5,-12.5 v -263.3 c 7.7,-2.4 14.6,-6.8 20.5,-12.5 5.8,-5.7 9.9,-12.7 12.4,-20.4 z" style="color:black;font-style:normal;font-variant:normal;font-weight:normal;font-stretch:normal;font-size:medium;line-height:normal;font-family:'Bitstream Vera Sans';-inkscape-font-specification:'Bitstream Vera Sans';text-indent:0;text-align:start;text-decoration:none;text-decoration-line:none;letter-spacing:normal;word-spacing:normal;text-transform:none;writing-mode:lr-tb;direction:ltr;text-anchor:start;display:inline;overflow:visible;visibility:visible;fill:none;fill-opacity:0.960784;stroke:black;stroke-width:3.75;stroke-miterlimit:4;stroke-dasharray:none;marker:none;enable-background:accumulate" />
        <path style="fill:none;stroke:black;stroke-width:0.514573;stroke-miterlimit:4;stroke-dasharray:none" transform="matrix(0.51418019,0,0,0.51418019,198.58136,9.6856886)" d="m -119.91752,20.801766 h -69 l -5.012,-5.013 v -39.295 l 5.012,-5.012 h 69 l 5.013,5.012 v 39.295 l -5.013,5.013" fill="none" stroke="black" stroke-width="0.079025" id="path109" />
        <g style="display:inline;fill:none;stroke:black;stroke-width:0.421299;stroke-miterlimit:4;stroke-dasharray:none" id="g4849" transform="matrix(0.62801847,0,0,0.62801847,-67.110945,-80.624)">
            <path d="m 53.98964,289.58534 c -16.159739,2.96346 -32.563739,2.96346 -48.7234765,0 v -36.03945 c 16.1758555,-2.61932 32.5476195,-2.61932 48.7234765,0 z" style="display:inline;fill:none;fill-opacity:1;fill-rule:nonzero;stroke:black;stroke-width:0.421361;stroke-miterlimit:4;stroke-dasharray:none;stroke-opacity:1" id="path802" inkscape:connector-curvature="0" transform="matrix(0.99985143,0,0,0.99985143,267.01448,-87.677727)" />
            <path transform="matrix(0.27519477,0,0,-0.33985671,273.88495,200.92131)" d="m 0,0 c -0.992,0.132 -1.982,0.267 -2.973,0.403 v 3" style="display:inline;fill:none;fill-opacity:1;stroke:black;stroke-width:1.3776;stroke-linecap:butt;stroke-linejoin:miter;stroke-miterlimit:4;stroke-dasharray:none;stroke-opacity:1" id="path806" inkscape:connector-curvature="0" />
            <path transform="matrix(0.27769554,0,0,-0.33964862,273.06748,167.6209)" d="m 0,0 v 3 c 0.992,0.121 1.985,0.24 2.979,0.356" style="display:inline;fill:none;fill-opacity:1;stroke:black;stroke-width:1.3718;stroke-linecap:butt;stroke-linejoin:miter;stroke-miterlimit:4;stroke-dasharray:none;stroke-opacity:1" id="path814" inkscape:connector-curvature="0" />
            <path transform="matrix(0.27770318,0,0,-0.33964862,319.35679,166.48468)" d="m 0,0 c 0.993,-0.116 1.986,-0.235 2.979,-0.356 v -3" style="display:inline;fill:none;fill-opacity:1;stroke:black;stroke-width:1.37178;stroke-linecap:butt;stroke-linejoin:miter;stroke-miterlimit:4;stroke-dasharray:none;stroke-opacity:1" id="path822" inkscape:connector-curvature="0" />
            <path transform="matrix(0.27770382,0,0,-0.33964862,320.18404,199.76932)" d="m 0,0 v -3 c -0.99,-0.137 -1.981,-0.271 -2.973,-0.403" style="display:inline;fill:none;fill-opacity:1;stroke:black;stroke-width:1.37178;stroke-linecap:butt;stroke-linejoin:miter;stroke-miterlimit:4;stroke-dasharray:none;stroke-opacity:1" id="path830" inkscape:connector-curvature="0" />
        </g>
        <path transform="matrix(0.33006633,0,0,0.3669724,85.542212,32.23196)" inkscape:connector-curvature="0" id="path2192-1" style="display:inline;fill:none;fill-opacity:1;fill-rule:nonzero;stroke:black;stroke-width:0.76023;stroke-miterlimit:4;stroke-dasharray:none;stroke-opacity:1" d="m 55.416308,111.24449 c -0.130665,-0.71023 -0.228949,-1.87693 0.159987,-3.10684 l -0.700458,-2.51641 v 4.86349 c 0.145776,0.22541 0.323562,0.48324 0.540471,0.75976 m -0.540471,-54.030905 v -4.862959 c 0.145336,-0.224911 0.323562,-0.481746 0.539951,-0.757752 -0.130685,0.710747 -0.227888,1.875925 0.160507,3.103811 z m 94.092773,-4.862959 v 4.862959 l -0.70046,-2.5169 c 0.38787,-1.227886 0.29116,-2.898571 0.16048,-3.609307 0.21641,0.276026 0.39414,1.038317 0.53998,1.263248 m -88.11477,62.205434 h 32.536229 c 0.0697,0.12169 0.199728,0.20831 0.355504,0.20831 0.226838,0 0.410855,-0.17896 0.410855,-0.39784 0,-0.22038 -0.184017,-0.39883 -0.410855,-0.39883 -0.155776,0 -0.286472,0.0864 -0.356004,0.20929 h -32.535729 c -2.333511,0 -4.011487,-1.29663 -5.070038,-2.49317 -0.133335,-0.49944 -0.443247,-1.9745 0.0528,-3.50567 l 0.0119,-0.0353 -0.0107,-0.0355 -0.962348,-3.45815 v -46.463028 l 0.972268,-3.494556 -0.0119,-0.03472 c -0.494509,-1.527115 -0.188707,-2.999664 -0.054,-3.502637 1.059071,-1.19704 2.738627,-2.495676 5.071068,-2.495676 h 32.536469 c 0.0697,0.122341 0.199727,0.208784 0.355474,0.208784 0.226878,0 0.410875,-0.179043 0.410875,-0.398337 0,-0.219891 -0.183997,-0.398852 -0.410875,-0.398852 -0.155747,0 -0.286482,0.08648 -0.355964,0.209296 h -32.535749 c -2.994227,0 -4.967033,1.999271 -5.978013,3.388912 v -0.955511 c 0.955567,-1.002933 3.200205,-3.005231 6.40356,-3.76905 l 81.289893,9.56e-4 c 3.20281,0.764329 5.44484,2.764604 6.39935,3.767536 v 0.955908 c -1.01253,-1.389674 -2.98379,-3.388945 -5.97959,-3.388945 h -32.53424 c -0.0711,-0.122861 -0.20178,-0.209296 -0.35705,-0.209296 -0.22581,0 -0.41137,0.179042 -0.41137,0.398852 0,0.219431 0.18556,0.398335 0.41137,0.398335 0.15527,0 0.2849,-0.08643 0.35599,-0.208758 h 32.53545 c 2.33298,0 4.01358,1.298644 5.0716,2.495683 0.13439,0.502976 0.44014,1.975504 -0.0528,3.502639 l -0.0119,0.03472 0.0104,0.03551 0.96263,3.459203 v 46.462482 l -0.97333,3.49402 0.0119,0.0353 c 0.494,1.52764 0.18609,3.00069 0.0528,3.50315 -1.05802,1.19702 -2.73862,2.49568 -5.0716,2.49568 h -32.53413 c -0.0711,-0.12292 -0.20178,-0.20929 -0.35705,-0.20929 -0.22581,0 -0.41137,0.17838 -0.41137,0.39882 0,0.2189 0.18556,0.39785 0.41137,0.39785 0.15527,0 0.28491,-0.0864 0.35599,-0.20834 h 32.53531 c 2.99581,0 4.96706,-1.99975 5.97959,-3.38886 v 0.95541 c -0.95555,1.0034 -3.20071,3.00572 -6.40562,3.76853 l -81.286243,-9.1e-4 c -3.203345,-0.76332 -5.446423,-2.76362 -6.40091,-3.76703 v -0.95594 c 1.01097,1.3891 2.983776,3.38888 5.977993,3.38888 m 88.11551,-8.93447 v 4.86295 c -0.1458,0.22498 -0.32357,0.48228 -0.53998,0.75827 0.13069,-0.71073 0.22739,-1.87643 -0.16048,-3.10481 z m 0,6.86981 v 1.30421 c 0,0 -1.90695,1.09594 -2.39204,2.0958 h -3.07057 c 2.6069,-0.84113 4.49764,-2.43094 5.46261,-3.39999 m -94.092773,-62.147502 v -1.304204 c 0,0 1.905905,-1.095934 2.392033,-2.095826 h 3.06898 c -2.605861,0.841163 -4.496065,2.431478 -5.461013,3.40003 m 5.459963,65.546302 h -3.06793 c -0.486128,-0.99886 -2.392033,-2.09581 -2.392033,-2.09581 v -1.30323 c 0.964948,0.96907 2.854642,2.55788 5.459963,3.39904 m 83.17281,-68.945319 h 3.06796 c 0.48509,0.998879 2.39204,2.095825 2.39204,2.095825 v 1.303192 c -0.96497,-0.968552 -2.85414,-2.557855 -5.46,-3.399017" />
    </g>
</svg>
