<?xml version="1.0" encoding="UTF-8" standalone="no"?>
<svg
     xmlns:dc="http://purl.org/dc/elements/1.1/"
     xmlns:cc="http://creativecommons.org/ns#"
     xmlns:rdf="http://www.w3.org/1999/02/22-rdf-syntax-ns#"
     xmlns:svg="http://www.w3.org/2000/svg"
     xmlns="http://www.w3.org/2000/svg"
     xmlns:sodipodi="http://sodipodi.sourceforge.net/DTD/sodipodi-0.dtd"
     xmlns:inkscape="http://www.inkscape.org/namespaces/inkscape"
     sodipodi:docname="long_banner.svg"
     inkscape:version="1.1-dev (1:0.92.0+devel+202003031341+7f69549)"
     id="svg33203"
     version="1.1"
     viewBox="0 0 177.7 10.81"
     height="10.81mm"
     width="177.7mm">
    <defs
         id="defs33197" />
    <sodipodi:namedview
         inkscape:window-maximized="1"
         inkscape:window-y="27"
         inkscape:window-x="0"
         inkscape:window-height="983"
         inkscape:window-width="1920"
         showgrid="false"
         inkscape:current-layer="layer1"
         inkscape:document-units="mm"
         inkscape:cy="-379.7"
         inkscape:cx="2399"
         inkscape:zoom="0.35"
         inkscape:pageshadow="2"
         inkscape:pageopacity="0.0"
         borderopacity="1.0"
         bordercolor="#666666"
         pagecolor="#ffffff"
         id="base" />
    <metadata
         id="metadata33200">
        <rdf:RDF>
            <cc:Work
                 rdf:about="">
                <dc:format>image/svg+xml</dc:format>
                <dc:type
                     rdf:resource="http://purl.org/dc/dcmitype/StillImage" />
                <dc:title></dc:title>
            </cc:Work>
        </rdf:RDF>
    </metadata>
    <g
         transform="translate(528.8,-248.6)"
         id="layer1"
         inkscape:groupmode="layer"
         inkscape:label="Layer 1">
        <g
             transform="translate(-237.9,227)"
             id="g33158">
            <path
                 inkscape:connector-curvature="0"
                 id="path26544"
                 style="fill:#000000;fill-opacity:1;fill-rule:nonzero;stroke:none;stroke-width:0.3527"
                 d="m -282.3,29.31 c 0.4,-1.09 0.1,-2.4 0.1,-3.87 -0.1,-1.26 0.3,-2.37 -0.1,-3.35 53.7,1.95 107.4,-1.18 161,0.8 -0.3,0.97 -0.2,2.14 -0.3,3.44 0,1.43 -0.1,2.7 0.3,3.78 -53.7,-1.98 -107.4,1.15 -161,-0.8" />
            <path
                 inkscape:connector-curvature="0"
                 id="path26546"
                 style="fill:#000000;fill-opacity:1;fill-rule:nonzero;stroke:none;stroke-width:0.3527"
                 d="m -281.8,28.99 c 0.4,-1.19 0.2,-2.4 0.1,-3.63 0,-1.2 0.3,-2.39 0,-3.58 -0.4,0.2 -0.8,0.42 -1.1,0.62 5.5,0.21 11.1,0.39 16.7,0.5 13.2,0.27 26.5,0.28 39.8,0.18 15.9,-0.12 31.8,-0.39 47.6,-0.51 13.3,-0.11 26.6,-0.11 39.9,0.15 4.1,0.1 8.2,0.19 12.3,0.32 1.1,0 2.3,0.1 3.4,0.12 0.2,0 1.2,-0.1 1.3,0.1 0,0 -0.2,1.11 -0.3,1.17 0,0.67 0,1.35 0,2.02 0,1.34 -0.2,2.69 0.2,4.02 0.4,-0.2 0.8,-0.42 1.2,-0.62 -5.4,-0.21 -10.8,-0.38 -16.2,-0.5 -12.7,-0.27 -25.5,-0.3 -38.3,-0.22 -15.5,0.1 -31.1,0.36 -46.6,0.5 -13.4,0.12 -26.8,0.16 -40.1,-0.1 -4.4,-0.1 -8.9,-0.18 -13.3,-0.3 -1.4,0 -2.8,-0.1 -4.1,-0.14 -0.7,0 -1.5,-0.15 -2.2,-0.1 -0.1,0 -0.2,0 -0.3,0 -0.3,0 -0.7,0.65 -1.1,0.63 5.4,0.2 10.7,0.37 16.1,0.49 12.7,0.26 25.5,0.28 38.3,0.2 15.6,-0.1 31.1,-0.36 46.7,-0.5 13.3,-0.12 26.7,-0.15 40,0.1 4.4,0.1 8.9,0.18 13.3,0.31 1.4,0.1 2.8,0.1 4.2,0.14 0.7,0 1.5,0.16 2.1,0.1 0.1,0 0.2,0 0.3,0 0.1,0 1.2,-0.59 1.2,-0.62 -0.4,-1.26 -0.3,-2.52 -0.3,-3.79 0,-0.75 0,-1.51 0,-2.26 0.1,-0.18 0.3,-1.14 0.3,-1.17 -0.1,0 -0.3,0 -0.4,0 -0.6,-0.2 -1.7,-0.1 -2.4,-0.1 -3.5,-0.13 -7,-0.24 -10.6,-0.32 -12.6,-0.29 -25.3,-0.36 -38,-0.3 -15.8,0.1 -31.7,0.35 -47.5,0.5 -13.8,0.13 -27.7,0.17 -41.4,0 -4.7,-0.1 -9.3,-0.17 -13.9,-0.31 -1.4,0 -2.8,-0.1 -4.3,-0.14 -0.7,0 -1.5,-0.15 -2.2,-0.1 -0.1,0 -0.2,0 -0.3,0 -0.1,0 -1.1,0.59 -1.1,0.63 0.3,1.19 0,2.39 0,3.59 0,1.22 0.3,2.43 -0.1,3.62 0.1,-0.26 1.1,-0.34 1.1,-0.62" />
            <path
                 inkscape:connector-curvature="0"
                 id="path26548"
                 style="fill:#ffffff;fill-opacity:1;fill-rule:nonzero;stroke:none;stroke-width:0.3527"
                 d="m -290.1,22.07 c 3,2.03 3.4,3.8 3.4,3.8 0,0 -2.9,1.8 -3.5,3.49 4.7,0.1 9.4,0.65 14.1,1.28 v -7.29 c -4.6,-0.65 -9.4,-1.45 -14,-1.28" />
            <path
                 inkscape:connector-curvature="0"
                 id="path26550"
                 style="fill:#000000;fill-opacity:1;fill-rule:nonzero;stroke:none;stroke-width:0.3527"
                 d="m -290.4,22 c 1.1,0.77 2.1,1.63 2.8,2.66 0.2,0.24 0.7,0.86 0.6,1.15 -0.1,0.29 -1.1,0.77 -1.4,1 -0.9,0.71 -1.7,1.5 -2.1,2.47 0,0 0.5,0.15 0.6,0.15 3.2,0.1 6.4,0.37 9.6,0.73 1.1,0.13 2.2,0.25 3.3,0.39 0.2,0 1,0.22 1.2,0.13 0.1,-0.1 0,-1.1 0,-1.26 v -2.48 -3.52 c 0,0 -0.5,-0.12 -0.5,-0.13 -4.7,-0.71 -9.4,-1.51 -14.1,-1.29 0.2,0 0.4,0.15 0.6,0.14 4.7,-0.26 9.4,0.55 14,1.28 -0.2,0 -0.4,-0.1 -0.5,-0.13 l -0.1,3.51 v 2.39 c 0,0.2 0.2,1.21 0,1.35 -0.1,0.1 -0.9,-0.1 -1,-0.1 -1.2,-0.15 -2.4,-0.28 -3.5,-0.42 -3.2,-0.36 -6.4,-0.67 -9.6,-0.74 0.2,0 0.4,0.1 0.6,0.15 0.4,-0.93 1.1,-1.68 1.9,-2.37 0.3,-0.27 1.4,-0.78 1.5,-1.12 0.1,-0.25 -0.3,-0.81 -0.5,-1.03 -0.6,-1.08 -1.7,-1.97 -2.8,-2.77 -0.2,-0.1 -0.5,0 -0.6,-0.14" />
            <path
                 inkscape:connector-curvature="0"
                 id="path26552"
                 style="fill:#ffffff;fill-opacity:1;fill-rule:nonzero;stroke:none;stroke-width:0.3527"
                 d="m -276.1,30.64 c -1.4,-0.94 -6.2,-1.37 -6.2,-1.37 v -7.22 c 2.5,0.56 3.8,0.84 6.2,1.37 0,0 1.4,8.16 0,7.22" />
            <path
                 inkscape:connector-curvature="0"
                 id="path26554"
                 style="fill:#000000;fill-opacity:1;fill-rule:nonzero;stroke:none;stroke-width:0.3527"
                 d="m -276.2,30.41 c -1.7,-1.01 -4.2,-1.19 -6.2,-1.37 0,0.15 0.1,0.31 0.1,0.47 0,-2.23 -0.2,-4.58 0.1,-6.78 0,-0.26 -0.1,-0.35 0.1,-0.41 0.4,-0.1 1.6,0.35 1.9,0.42 1.4,0.31 2.8,0.62 4.2,0.92 0,-0.16 -0.1,-0.32 -0.1,-0.47 0.2,1.32 0.3,2.64 0.4,3.96 0.1,0.29 0.3,3.71 -0.5,3.26 0.1,0.1 0,0.39 0.1,0.46 0.9,0.46 0.6,-2.96 0.6,-3.25 -0.1,-1.32 -0.3,-2.65 -0.5,-3.96 0,-0.1 -0.1,-0.46 -0.1,-0.47 -1.4,-0.29 -2.7,-0.59 -4.1,-0.88 -0.4,-0.1 -1.6,-0.56 -2,-0.45 -0.3,0.1 -0.1,0 -0.1,0.41 -0.4,2.17 -0.1,4.56 -0.1,6.77 0,0 0.1,0.46 0.1,0.47 2,0.18 4.6,0.36 6.2,1.36 -0.1,-0.1 0,-0.39 -0.1,-0.46" />
            <path
                 inkscape:connector-curvature="0"
                 id="path26556"
                 style="fill:#ffffff;fill-opacity:1;fill-rule:nonzero;stroke:none;stroke-width:0.3527"
                 d="m -113.9,23.55 c -3.1,1.73 -3.5,3.48 -3.5,3.48 0,0 2.9,2.06 3.4,3.81 -4.7,-0.34 -9.4,-0.18 -14.1,0.14 l 0.1,-7.28 c 4.6,-0.37 9.5,-0.78 14.1,-0.15" />
            <path
                 inkscape:connector-curvature="0"
                 id="path26558"
                 style="fill:#000000;fill-opacity:1;fill-rule:nonzero;stroke:none;stroke-width:0.3527"
                 d="m -114.2,23.48 c -1.1,0.69 -2.2,1.47 -2.9,2.5 -0.2,0.21 -0.6,0.73 -0.5,1 0,0.14 0.5,0.39 0.6,0.49 0.4,0.36 0.8,0.73 1.2,1.12 0.4,0.41 0.8,0.83 1.1,1.29 0.1,0.18 0.4,0.55 0.4,0.74 -0.1,0.24 -0.4,0.11 -0.8,0.1 -4.4,-0.26 -8.9,-0.12 -13.3,0.22 0.3,0 0.4,0.1 0.6,0.13 l 0.1,-4.02 c 0,-0.58 -0.4,-2.95 0.1,-3.28 0.3,-0.21 1.6,-0.11 2,-0.14 1.4,-0.1 2.7,-0.16 4.1,-0.2 2.6,-0.1 5.3,-0.21 7.9,0.21 -0.2,0 -0.4,-0.11 -0.6,-0.14 -2.6,-0.42 -5.3,-0.3 -7.9,-0.21 -1.3,0.1 -2.6,0.11 -3.9,0.2 -0.5,0 -1.8,-0.1 -2.2,0.15 -0.5,0.31 -0.1,2.71 -0.1,3.28 l -0.1,4.02 c 0,0 0.6,0.13 0.6,0.13 4.4,-0.33 8.8,-0.47 13.2,-0.21 0.1,0 0.8,0.12 0.9,0.1 0.1,-0.1 -0.3,-0.64 -0.3,-0.74 -0.3,-0.47 -0.7,-0.9 -1.1,-1.31 -0.4,-0.4 -0.8,-0.79 -1.2,-1.16 -0.2,-0.14 -0.6,-0.38 -0.7,-0.55 -0.1,-0.26 0.2,-0.69 0.4,-0.93 0.7,-1.07 1.8,-1.89 3,-2.6 -0.1,0.1 -0.5,-0.2 -0.6,-0.14" />
            <path
                 inkscape:connector-curvature="0"
                 id="path26560"
                 style="fill:#ffffff;fill-opacity:1;fill-rule:nonzero;stroke:none;stroke-width:0.3527"
                 d="m -128.1,30.98 c 1.4,-0.85 6.3,-0.93 6.3,-0.93 v -7.21 c -2.5,0.36 -3.7,0.55 -6.2,0.93 0,0 -1.5,8.07 -0.1,7.21" />
            <path
                 inkscape:connector-curvature="0"
                 id="path26562"
                 style="fill:#000000;fill-opacity:1;fill-rule:nonzero;stroke:none;stroke-width:0.3527"
                 d="m -128,31.22 c 1.4,-0.75 3.4,-0.81 5.1,-0.89 1.2,-0.1 1.1,0.1 1.1,-0.95 l 0.1,-6.31 c 0,-0.1 -0.1,-0.47 -0.1,-0.47 -1.8,0.26 -3.6,0.52 -5.3,0.78 -0.5,0.1 -0.8,0 -1,0.31 -0.3,0.38 -0.2,1.25 -0.3,1.69 -0.2,1.53 -0.6,3.2 -0.3,4.76 0.1,0.26 0.2,1.34 0.7,1.08 0.1,0 -0.2,-0.44 -0.1,-0.47 -0.8,0.37 -0.5,-1.85 -0.4,-2.23 0.1,-1.33 0.2,-2.67 0.5,-3.99 0,-0.17 0,-0.43 0.1,-0.54 0.3,-0.21 1.5,-0.23 1.9,-0.28 1.4,-0.21 2.9,-0.43 4.3,-0.64 -0.1,-0.16 -0.1,-0.31 -0.1,-0.47 l -0.1,6.32 c 0,0.94 0.1,0.88 -1,0.93 -1.7,0.1 -3.8,0.13 -5.2,0.9 -0.1,0 0.2,0.44 0.1,0.47" />
            <path
                 inkscape:connector-curvature="0"
                 id="path26564"
                 style="fill:#ffffff;fill-opacity:1;fill-rule:nonzero;stroke:none;stroke-width:0.3527"
                 d="m -282.3,29.27 c 0.4,-1.08 0.1,-2.4 0.1,-3.87 -0.1,-1.25 0.3,-2.36 -0.1,-3.35 53.7,1.95 107.4,-1.18 161,0.81 -0.3,0.97 -0.2,2.13 -0.3,3.43 0,1.44 -0.1,2.7 0.3,3.78 -53.7,-1.98 -107.4,1.15 -161,-0.8" />
            <path
                 inkscape:connector-curvature="0"
                 id="path26566"
                 style="fill:#000000;fill-opacity:1;fill-rule:nonzero;stroke:none;stroke-width:0.3527"
                 d="m -282.1,29.14 c 0.4,-1.2 0.2,-2.41 0.1,-3.63 0,-1.2 0.3,-2.39 0,-3.59 -0.2,0.1 -0.3,0.18 -0.5,0.27 5.6,0.2 11.1,0.38 16.7,0.49 13.3,0.27 26.6,0.26 39.8,0.16 15.9,-0.12 31.8,-0.38 47.6,-0.5 13.3,-0.11 26.7,-0.11 39.9,0.15 4.1,0.1 8.2,0.2 12.3,0.33 1.2,0 2.3,0.1 3.4,0.12 0.2,0 1.2,-0.1 1.3,0 0,0 -0.2,1.12 -0.2,1.17 -0.1,0.67 -0.1,1.35 -0.1,2.02 0,1.35 -0.1,2.69 0.2,4.03 0.2,-0.1 0.4,-0.18 0.5,-0.27 -5.4,-0.2 -10.7,-0.37 -16.1,-0.49 -12.7,-0.27 -25.5,-0.29 -38.3,-0.2 -15.5,0.1 -31.1,0.35 -46.6,0.49 -13.4,0.12 -26.8,0.16 -40.1,-0.1 -4.5,-0.1 -8.9,-0.18 -13.3,-0.31 -1.4,-0.1 -2.8,-0.1 -4.2,-0.14 -0.6,0 -1.5,-0.16 -2.1,-0.1 -0.1,0 -0.2,0 -0.3,0 -0.2,0 -0.3,0.27 -0.5,0.26 5.4,0.2 10.8,0.37 16.1,0.48 12.8,0.27 25.6,0.28 38.3,0.19 15.6,-0.1 31.2,-0.35 46.7,-0.49 13.4,-0.12 26.7,-0.15 40.1,0.1 4.4,0.1 8.8,0.18 13.3,0.32 1.3,0 2.7,0.1 4.1,0.13 0.7,0 1.5,0.16 2.2,0.1 0,0 0.1,0 0.2,0 0.1,0 0.5,-0.26 0.5,-0.27 -0.3,-1.26 -0.2,-2.52 -0.2,-3.79 0,-0.75 0,-1.51 0,-2.25 0.1,-0.18 0.3,-1.15 0.3,-1.18 -0.1,0 -0.3,0 -0.4,0 -0.6,-0.2 -1.7,-0.1 -2.4,-0.1 -3.5,-0.13 -7.1,-0.24 -10.6,-0.32 -12.7,-0.29 -25.3,-0.35 -38,-0.28 -15.8,0.1 -31.7,0.34 -47.5,0.49 -13.8,0.13 -27.7,0.17 -41.5,0 -4.6,-0.1 -9.2,-0.17 -13.8,-0.31 -1.4,0 -2.9,-0.1 -4.3,-0.14 -0.7,0 -1.5,-0.16 -2.2,-0.1 -0.1,0 -0.2,0 -0.3,0 -0.1,0 -0.5,0.26 -0.5,0.27 0.3,1.19 0,2.39 0,3.59 0.1,1.22 0.3,2.44 -0.1,3.63 0.1,-0.11 0.5,-0.15 0.5,-0.27" />
            <path
                 inkscape:connector-curvature="0"
                 id="path26568"
                 style="fill:#000000;fill-opacity:1;fill-rule:nonzero;stroke:none;stroke-width:0.3527"
                 d="m -290.1,22.22 c 3,2.29 3.3,4.31 3.3,4.31 0,0 -2.8,2.06 -3.4,3.98 4.7,0.1 9.4,0.68 14.1,1.38 0,-2.76 0,-5.52 0,-8.28 -4.5,-0.73 -9.4,-1.64 -14,-1.39" />
            <path
                 inkscape:connector-curvature="0"
                 id="path26570"
                 style="fill:#000000;fill-opacity:1;fill-rule:nonzero;stroke:none;stroke-width:0.3527"
                 d="m -290.9,22.05 c 1.2,0.89 2.2,1.86 2.8,3.01 0.2,0.26 0.7,0.98 0.6,1.29 -0.1,0.36 -1.1,0.88 -1.4,1.15 -0.9,0.84 -1.6,1.75 -2,2.83 0,0 1.3,0.35 1.4,0.35 3.3,0.1 6.7,0.41 10,0.82 1.1,0.15 2.3,0.29 3.4,0.45 0.6,0.1 0.5,0.18 0.7,-0.1 0.2,-0.39 0,-1.35 0,-1.77 l 0.1,-2.69 v -3.63 c 0,-0.1 -1.3,-0.31 -1.5,-0.33 -4.6,-0.78 -9.3,-1.66 -14,-1.39 0.4,0 1,0.38 1.4,0.35 4.7,-0.32 9.5,0.57 14.1,1.37 -0.5,-0.11 -1,-0.22 -1.5,-0.33 v 3.51 2.7 c 0,0.45 0.2,1.46 0,1.87 -0.2,0.28 -0.1,0.19 -0.7,0.11 -1.1,-0.15 -2.2,-0.3 -3.2,-0.44 -3.4,-0.43 -6.8,-0.8 -10.2,-0.86 0.5,0.12 1,0.24 1.4,0.35 0.4,-1.03 1.1,-1.9 2,-2.7 0.3,-0.3 1.4,-0.9 1.5,-1.28 0.1,-0.29 -0.4,-0.92 -0.5,-1.17 -0.7,-1.19 -1.7,-2.21 -2.9,-3.13 -0.3,-0.25 -1.1,-0.1 -1.4,-0.35" />
            <path
                 inkscape:connector-curvature="0"
                 id="path26572"
                 style="fill:#000000;fill-opacity:1;fill-rule:nonzero;stroke:none;stroke-width:0.3527"
                 d="m -113.9,23.7 c -3.1,1.99 -3.5,3.98 -3.5,3.98 0,0 2.9,2.33 3.4,4.31 -4.7,-0.36 -9.4,-0.15 -14.1,0.24 l 0.1,-8.28 c 4.6,-0.44 9.5,-0.93 14.1,-0.25" />
            <path
                 inkscape:connector-curvature="0"
                 id="path26574"
                 style="fill:#000000;fill-opacity:1;fill-rule:nonzero;stroke:none;stroke-width:0.3527"
                 d="m -114.6,23.52 c -1.2,0.81 -2.3,1.73 -3,2.86 -0.1,0.25 -0.6,0.84 -0.5,1.14 0.1,0.45 1.2,1.13 1.6,1.53 0.4,0.47 0.8,0.96 1.2,1.49 0.1,0.24 0.3,0.53 0.4,0.79 0.1,0.48 0.4,0.35 -0.2,0.44 -0.7,0.1 -1.4,-0.1 -2.1,-0.1 -0.8,0 -1.6,0 -2.3,0 -1.5,0 -2.9,0 -4.4,0.11 -1.6,0.1 -3.3,0.17 -4.9,0.31 0.5,0.11 1,0.23 1.5,0.34 v -4.27 -2.77 c 0,-0.21 -0.1,-1.09 0,-1.25 0.2,-0.18 1.6,-0.13 1.8,-0.15 1.3,-0.11 2.6,-0.19 3.8,-0.26 2.8,-0.13 5.8,-0.31 8.5,0.18 -0.5,-0.1 -0.9,-0.27 -1.4,-0.36 -2.8,-0.49 -5.8,-0.3 -8.5,-0.15 -1.3,0.1 -2.5,0.15 -3.8,0.25 -0.3,0 -1.6,0 -1.8,0.16 -0.2,0.14 0,1.07 0,1.25 l -0.1,2.77 v 4.26 c 0,0 1.3,0.35 1.5,0.34 1.5,-0.14 3.1,-0.24 4.7,-0.31 1.4,-0.1 2.8,-0.1 4.3,-0.11 0.7,0 1.5,0 2.3,0 0.7,0 1.6,0.2 2.3,0.11 0.5,-0.1 0.3,0.14 0.3,-0.28 0,-0.21 -0.3,-0.59 -0.4,-0.8 -0.3,-0.53 -0.7,-1.02 -1.1,-1.51 -0.4,-0.43 -1.5,-1.17 -1.7,-1.66 -0.1,-0.3 0.3,-0.89 0.5,-1.15 0.6,-1.12 1.7,-2.04 2.9,-2.85 -0.2,0.14 -1.2,-0.5 -1.4,-0.35" />
            <path
                 inkscape:connector-curvature="0"
                 id="path26576"
                 style="fill:#000000;fill-opacity:1;fill-rule:nonzero;stroke:none;stroke-width:0.3527"
                 d="m -282.3,30.17 c 0.4,-1.23 0.1,-2.73 0.1,-4.4 -0.1,-1.42 0.3,-2.69 -0.1,-3.8 53.7,1.94 107.4,-1.19 161,0.8 -0.3,1.1 -0.2,2.43 -0.3,3.9 0,1.63 -0.1,3.08 0.3,4.3 -53.7,-1.98 -107.4,1.15 -161,-0.8" />
            <path
                 inkscape:connector-curvature="0"
                 id="path26578"
                 style="fill:#000000;fill-opacity:1;fill-rule:nonzero;stroke:none;stroke-width:0.3527"
                 d="m -281.7,29.83 c 0.3,-1.36 0.1,-2.75 0.1,-4.15 -0.1,-1.35 0.2,-2.7 -0.1,-4.05 -0.4,0.22 -0.8,0.45 -1.2,0.67 5.6,0.21 11.2,0.39 16.8,0.5 13.3,0.27 26.7,0.27 40.1,0.17 15.8,-0.12 31.7,-0.38 47.6,-0.51 13.3,-0.1 26.6,-0.1 39.8,0.16 4.1,0.1 8.2,0.19 12.3,0.32 1.1,0 2.2,0.1 3.3,0.12 0.2,0 1,-0.1 1.1,0.1 0.1,0 -0.2,1.77 -0.3,2.03 0,0.7 0,1.4 0,2.11 0,1.36 -0.1,2.71 0.3,4.06 0.4,-0.23 0.8,-0.45 1.2,-0.67 -5.4,-0.21 -10.8,-0.38 -16.1,-0.5 -12.8,-0.27 -25.6,-0.29 -38.3,-0.21 -15.6,0.1 -31.2,0.35 -46.7,0.49 -13.4,0.12 -26.7,0.16 -40.1,-0.1 -4.4,-0.1 -8.8,-0.17 -13.3,-0.3 -1.3,0 -2.7,-0.1 -4.1,-0.14 -0.7,0 -1.5,-0.15 -2.2,-0.1 0,0 -0.1,0 -0.2,0 -0.4,0 -0.8,0.68 -1.2,0.67 5.3,0.2 10.7,0.37 16,0.48 12.8,0.27 25.6,0.29 38.4,0.2 15.5,-0.1 31.1,-0.36 46.6,-0.49 13.4,-0.12 26.8,-0.16 40.1,0.1 4.4,0.1 8.9,0.18 13.3,0.31 1.4,0 2.8,0.1 4.1,0.14 0.7,0 1.5,0.15 2.2,0.1 0.1,0 0.2,0 0.3,0 0.1,0 1.2,-0.63 1.2,-0.67 -0.4,-1.27 -0.3,-2.54 -0.3,-3.82 0.1,-0.78 0,-1.57 0.1,-2.35 0,-0.27 0.3,-1.98 0.2,-2.04 0,0 -0.2,0 -0.3,0 -0.5,-0.2 -1.6,-0.1 -2.3,-0.1 -3.5,-0.13 -7,-0.25 -10.5,-0.33 -12.6,-0.31 -25.3,-0.38 -37.9,-0.32 -15.8,0.1 -31.7,0.34 -47.6,0.5 -13.8,0.13 -27.7,0.17 -41.6,0 -4.6,-0.1 -9.3,-0.17 -13.9,-0.31 -2.1,-0.1 -4.5,-0.41 -6.6,-0.22 -0.1,0 -0.2,0 -0.3,0 -0.1,0 -1.2,0.63 -1.2,0.67 0.3,1.35 0,2.7 0.1,4.05 0,1.4 0.2,2.79 -0.1,4.16 0,-0.29 1.1,-0.38 1.2,-0.67" />
            <path
                 inkscape:connector-curvature="0"
                 id="path26580"
                 style="fill:#ffffff;fill-opacity:1;fill-rule:nonzero;stroke:none;stroke-width:0.3527"
                 d="m -290.1,21.99 c 3,2.29 3.3,4.3 3.3,4.3 0,0 -2.8,2.06 -3.4,3.99 4.7,0.1 9.4,0.68 14.1,1.37 0,-2.76 0,-5.52 0,-8.28 -4.5,-0.72 -9.4,-1.64 -14,-1.38" />
            <path
                 inkscape:connector-curvature="0"
                 id="path26582"
                 style="fill:#000000;fill-opacity:1;fill-rule:nonzero;stroke:none;stroke-width:0.3527"
                 d="m -290.4,21.92 c 1.1,0.89 2.1,1.86 2.8,3 0.1,0.26 0.6,0.99 0.5,1.3 -0.1,0.35 -1.1,0.88 -1.3,1.15 -0.9,0.84 -1.7,1.75 -2.1,2.83 0,0 0.5,0.15 0.6,0.15 3.3,0.1 6.7,0.41 10,0.82 1.1,0.15 2.2,0.29 3.4,0.45 0.5,0.1 0.5,0.19 0.7,-0.1 0.2,-0.39 0,-1.35 0,-1.77 v -2.68 -3.64 c 0,0 -0.5,-0.13 -0.6,-0.14 -4.6,-0.77 -9.3,-1.66 -14,-1.38 0.1,0 0.4,0.16 0.6,0.15 4.7,-0.32 9.4,0.57 14,1.37 -0.2,-0.1 -0.4,-0.1 -0.6,-0.14 v 3.51 2.7 c 0,0.46 0.2,1.46 0,1.88 -0.2,0.27 -0.1,0.18 -0.7,0.1 -1.1,-0.15 -2.1,-0.29 -3.2,-0.44 -3.4,-0.43 -6.8,-0.79 -10.2,-0.85 0.2,0.1 0.4,0.1 0.6,0.15 0.4,-1.03 1.1,-1.9 1.9,-2.71 0.4,-0.29 1.4,-0.9 1.6,-1.27 0.1,-0.29 -0.4,-0.92 -0.5,-1.17 -0.7,-1.2 -1.8,-2.21 -2.9,-3.13 -0.2,-0.11 -0.5,-0.1 -0.6,-0.15" />
            <path
                 inkscape:connector-curvature="0"
                 id="path26584"
                 style="fill:#ffffff;fill-opacity:1;fill-rule:nonzero;stroke:none;stroke-width:0.3527"
                 d="m -276.1,31.65 c -0.5,0.1 -6.2,-1.52 -6.2,-1.52 v -8.2 c 2.5,0.61 3.8,0.92 6.2,1.52 0.3,2.25 0.5,8.16 0,8.2" />
            <path
                 inkscape:connector-curvature="0"
                 id="path26586"
                 style="fill:#000000;fill-opacity:1;fill-rule:nonzero;stroke:none;stroke-width:0.3527"
                 d="m -276.2,31.4 c -1.6,-1.08 -4.2,-1.32 -6.2,-1.52 0,0.17 0.1,0.33 0.1,0.5 l 0.1,-7.48 c 0,-0.12 -0.1,-0.66 0,-0.72 0.2,-0.1 1.5,0.36 1.7,0.41 1.5,0.37 3,0.74 4.5,1.11 0,-0.16 -0.1,-0.33 -0.1,-0.5 0.2,1.5 0.3,3 0.4,4.5 0.1,0.94 0.2,1.9 0.1,2.83 0,0.22 -0.1,1.22 -0.6,0.87 0.1,0.1 0,0.42 0.2,0.5 0.7,0.48 0.5,-3.4 0.5,-3.7 -0.1,-1.5 -0.3,-3 -0.5,-4.5 0,-0.1 -0.1,-0.49 -0.1,-0.5 -1.5,-0.36 -3,-0.72 -4.4,-1.08 -0.2,0 -1.7,-0.53 -1.8,-0.44 -0.1,0.1 -0.1,0.6 -0.1,0.72 v 7.48 c 0,0.1 0.1,0.5 0.1,0.5 2,0.2 4.7,0.44 6.2,1.52 -0.1,-0.1 0,-0.4 -0.1,-0.5" />
            <path
                 inkscape:connector-curvature="0"
                 id="path26588"
                 style="fill:#ffffff;fill-opacity:1;fill-rule:nonzero;stroke:none;stroke-width:0.3527"
                 d="m -113.9,23.53 c -3.1,1.99 -3.5,3.98 -3.5,3.98 0,0 2.9,2.33 3.4,4.31 -4.7,-0.36 -9.4,-0.15 -14.1,0.24 l 0.1,-8.28 c 4.6,-0.44 9.5,-0.93 14.1,-0.25" />
            <path
                 inkscape:connector-curvature="0"
                 id="path26590"
                 style="fill:#000000;fill-opacity:1;fill-rule:nonzero;stroke:none;stroke-width:0.3527"
                 d="m -114.2,23.46 c -1.2,0.81 -2.3,1.72 -3,2.85 -0.1,0.25 -0.6,0.84 -0.5,1.14 0.2,0.45 1.3,1.14 1.6,1.53 0.5,0.47 0.9,0.97 1.2,1.49 0.2,0.25 0.4,0.53 0.4,0.8 0.1,0.47 0.4,0.35 -0.2,0.44 -0.6,0.1 -1.5,-0.1 -2.1,-0.11 -0.8,0 -1.5,0 -2.4,0 -1.4,0 -2.8,0 -4.3,0.1 -1.6,0.1 -3.2,0.17 -4.9,0.32 0.2,0.1 0.4,0.1 0.6,0.14 l 0.1,-4.27 v -2.77 c 0,-0.2 -0.2,-1.09 0,-1.24 0.2,-0.18 1.5,-0.14 1.8,-0.16 1.3,-0.1 2.5,-0.19 3.9,-0.25 2.7,-0.14 5.6,-0.32 8.4,0.17 -0.2,0 -0.4,-0.12 -0.6,-0.16 -2.8,-0.48 -5.7,-0.3 -8.5,-0.15 -1.3,0.1 -2.6,0.14 -3.8,0.25 -0.3,0 -1.6,0 -1.8,0.16 -0.2,0.13 0,1.07 0,1.24 l -0.1,2.77 v 4.27 c 0,0 0.6,0.14 0.6,0.14 1.6,-0.14 3.2,-0.23 4.7,-0.3 1.5,-0.1 2.9,-0.11 4.3,-0.12 0.8,0 1.6,0 2.4,0 0.7,0 1.6,0.2 2.3,0.11 0.5,-0.1 0.3,0.14 0.3,-0.28 0,-0.21 -0.3,-0.6 -0.4,-0.8 -0.3,-0.53 -0.7,-1.03 -1.1,-1.51 -0.4,-0.43 -1.6,-1.16 -1.7,-1.66 -0.1,-0.3 0.3,-0.89 0.5,-1.15 0.7,-1.13 1.7,-2.04 2.9,-2.85 -0.1,0.1 -0.5,-0.21 -0.6,-0.15" />
            <path
                 inkscape:connector-curvature="0"
                 id="path26592"
                 style="fill:#ffffff;fill-opacity:1;fill-rule:nonzero;stroke:none;stroke-width:0.3527"
                 d="m -128.1,32 c 0.5,0.1 6.3,-1.09 6.3,-1.09 v -8.2 c -2.5,0.42 -3.7,0.64 -6.2,1.09 -0.4,2.26 -0.6,8.13 -0.1,8.2" />
            <path
                 inkscape:connector-curvature="0"
                 id="path26594"
                 style="fill:#000000;fill-opacity:1;fill-rule:nonzero;stroke:none;stroke-width:0.3527"
                 d="m -128,32.25 c 1.4,-0.88 3.7,-0.97 5.5,-1.06 0.3,0 0.6,0 0.7,-0.12 0.2,-0.19 0,-1.01 0,-1.24 l 0.1,-6.87 c 0,-0.1 -0.2,-0.5 -0.2,-0.5 -1.8,0.31 -3.6,0.63 -5.5,0.96 -0.6,0.12 -0.5,0 -0.7,0.43 -0.3,0.53 -0.2,1.39 -0.3,1.97 -0.2,1.68 -0.5,3.47 -0.3,5.17 0,0.24 0.2,1.57 0.7,1.26 0.1,0 -0.2,-0.46 -0.1,-0.5 -0.5,0.24 -0.4,-0.14 -0.5,-0.33 0,-0.7 0,-1.4 0.1,-2.09 0,-1.47 0.2,-2.95 0.5,-4.41 0.1,-1.08 0.2,-0.9 1.6,-1.14 1.6,-0.28 3.1,-0.56 4.7,-0.82 -0.1,-0.17 -0.1,-0.33 -0.2,-0.5 v 6.87 c 0,0.26 0.1,1 0,1.21 -0.2,0.18 -0.3,0.13 -0.7,0.15 -1.8,0.1 -4.1,0.16 -5.5,1.06 -0.1,0.1 0.2,0.46 0.1,0.5" />
            <path
                 inkscape:connector-curvature="0"
                 id="path26596"
                 style="fill:#ffffff;fill-opacity:1;fill-rule:nonzero;stroke:none;stroke-width:0.3527"
                 d="m -282.3,30.13 c 0.4,-1.23 0.1,-2.73 0.1,-4.4 -0.1,-1.42 0.3,-2.69 -0.1,-3.8 53.7,1.94 107.4,-1.18 161,0.8 -0.3,1.11 -0.2,2.43 -0.3,3.9 0,1.63 -0.1,3.07 0.3,4.3 -53.7,-1.98 -107.4,1.15 -161,-0.8" />
            <path
                 inkscape:connector-curvature="0"
                 id="path26598"
                 style="fill:#000000;fill-opacity:1;fill-rule:nonzero;stroke:none;stroke-width:0.3527"
                 d="m -282.1,29.99 c 0.4,-1.37 0.2,-2.76 0.1,-4.16 0,-1.35 0.3,-2.7 0,-4.05 -0.2,0.1 -0.4,0.19 -0.5,0.29 5.6,0.2 11.2,0.38 16.8,0.49 13.3,0.27 26.7,0.27 40,0.16 15.9,-0.12 31.8,-0.39 47.6,-0.51 13.3,-0.1 26.6,-0.1 39.9,0.17 4.1,0.1 8.1,0.2 12.2,0.33 1.1,0 2.2,0.1 3.3,0.12 0.2,0 1,-0.1 1.2,0 0.1,0 -0.3,1.77 -0.3,2.03 0,0.71 0,1.41 0,2.11 0,1.36 -0.1,2.71 0.2,4.06 0.2,-0.1 0.4,-0.18 0.5,-0.28 -5.4,-0.2 -10.7,-0.37 -16.1,-0.49 -12.7,-0.27 -25.5,-0.29 -38.3,-0.21 -15.5,0.1 -31.1,0.36 -46.6,0.5 -13.4,0.12 -26.8,0.16 -40.1,-0.1 -4.4,-0.1 -8.9,-0.18 -13.3,-0.31 -1.4,0 -2.8,-0.1 -4.2,-0.14 -0.6,0 -1.4,-0.16 -2.1,-0.1 -0.1,0 -0.2,0 -0.3,0 -0.2,0 -0.3,0.29 -0.5,0.28 5.4,0.2 10.7,0.37 16.1,0.48 12.8,0.27 25.6,0.28 38.3,0.19 15.5,-0.1 31.1,-0.36 46.7,-0.49 13.3,-0.12 26.7,-0.15 40,0.1 4.5,0.1 8.9,0.19 13.4,0.32 1.3,0 2.7,0.1 4.1,0.14 0.6,0 1.5,0.16 2.1,0.1 0.1,0 0.2,0 0.3,0 0,0 0.5,-0.26 0.5,-0.28 -0.3,-1.27 -0.2,-2.54 -0.2,-3.82 0,-0.78 0,-1.57 0,-2.35 0,-0.27 0.4,-1.98 0.3,-2.03 -0.1,0 -0.2,0 -0.3,0 -0.6,-0.2 -1.7,-0.1 -2.3,-0.1 -3.5,-0.13 -7,-0.24 -10.5,-0.32 -12.7,-0.29 -25.3,-0.36 -38,-0.3 -15.8,0.1 -31.7,0.34 -47.5,0.5 -13.9,0.13 -27.8,0.17 -41.7,0 -4.6,-0.1 -9.2,-0.17 -13.9,-0.31 -1.4,-0.1 -2.8,-0.1 -4.2,-0.15 -0.8,0 -1.6,-0.15 -2.3,-0.1 -0.1,0 -0.2,0 -0.3,0 -0.1,0 -0.5,0.26 -0.5,0.29 0.3,1.34 0,2.69 0,4.05 0.1,1.39 0.3,2.78 -0.1,4.15 0,-0.12 0.5,-0.16 0.5,-0.29" />
        </g>
    </g>
</svg>
