<?xml version="1.0" encoding="utf-8" ?>
<svg baseProfile="full" height="581px" version="1.1" viewBox="-129.34354000000002,80.2591176694571,197.032581,190.59179647552986" width="600px" xmlns="http://www.w3.org/2000/svg" xmlns:ev="http://www.w3.org/2001/xml-events" xmlns:xlink="http://www.w3.org/1999/xlink">
  <defs/>
  <path d="M -54.239789,270.36791 C -55.87135,269.08452 -58.901830000000004,263.77415 -67.972733,246.30338999999998 C -73.727328,235.21990999999997 -76.099878,230.85719999999998 -76.27663600000001,231.03395999999998 C -76.33922600000001,231.09655999999998 -75.785847,233.09927 -75.04689200000001,235.48442999999997 C -72.47631400000002,243.78161999999998 -69.49745300000001,256.06062999999995 -69.49745300000001,258.35947999999996 L -69.49745300000001,259.57665 L -69.758668,259.48845 C -69.902337,259.43995 -70.558696,258.68588 -71.21725,257.81275 L -72.41461600000001,256.22525 L -75.829638,249.34609 C -80.854226,239.22464 -84.583931,230.57962 -88.8108,219.25727 C -89.719213,216.82395 -90.629898,214.62130000000002 -90.83455000000001,214.36248 L -91.20663900000001,213.89192 L -91.00152600000001,216.40546 C -90.88871300000001,217.78791 -90.796411,219.77645 -90.796411,220.82444 L -90.796411,222.72988 L -91.13007900000001,223.06311 L -91.46374800000001,223.39633999999998 L -91.97122100000001,222.87745999999999 C -93.86206100000001,220.94412999999997 -97.38442200000001,211.37177 -98.71200800000001,204.55871 C -100.45284000000001,195.62492 -101.85024000000001,175.16142 -101.88696000000002,158.06484 L -101.90736000000001,148.53984 L -101.56768000000001,146.02629 C -101.05064000000002,142.20024999999998 -100.32100000000001,139.44087 -99.12267700000001,136.77955 L -98.03492500000002,134.36381 L -98.20746200000002,133.57826 C -98.702319,131.32544 -114.2379,118.106 -118.08003,116.66848 L -119.55165,116.11787 L -122.89949,115.72625 C -124.74081,115.51087 -126.42666,115.327 -126.64583,115.31766999999999 C -126.86500000000001,115.30866999999999 -125.55605,114.77287 -123.73704000000001,114.12772999999999 C -118.36545000000001,112.22261999999999 -115.59352000000001,111.09379999999999 -115.23954,110.66727999999999 L -114.90731000000001,110.26696999999999 L -115.38921,109.37213999999999 C -116.39368,107.50694999999999 -121.06865,104.54656999999999 -125.58912000000001,102.91314999999999 C -126.82605000000001,102.46619999999999 -128.17681000000002,101.87751999999999 -128.59081,101.60497 L -129.34354000000002,101.10942999999999 L -129.07097000000002,100.94097 C -128.92106,100.84827 -126.49874000000001,100.64334 -123.68803000000001,100.48546999999999 L -118.57766000000001,100.19842 L -108.92037,100.32813 L -99.26307700000001,100.45785000000001 L -96.749536,100.89632 C -92.89317000000001,101.56905 -90.56359300000001,102.21756 -83.38807700000001,104.61586 C -79.75005700000001,105.83181 -75.762072,107.02835 -74.52589100000002,107.27484 L -72.27828700000002,107.72299 L -70.39535300000001,107.60215 L -68.51241700000001,107.48131 L -66.73876700000001,106.65132 L -64.96511600000001,105.82133 L -63.58462600000001,104.40735000000001 L -62.204139000000005,102.99337000000001 L -61.213179000000004,101.10757000000001 C -60.668151,100.07038000000001 -59.987428,98.30373600000001 -59.700461000000004,97.181706 L -59.178703000000006,95.141653 L -59.178703000000006,92.69371 C -59.178703000000006,91.347341 -59.35727500000001,89.312558 -59.57553300000001,88.17197 C -59.793788000000006,87.031383 -59.972381000000006,85.429622 -59.97240800000001,84.612502 L -59.97245300000001,83.126829 L -59.41992300000001,82.424403 C -56.80298800000001,79.097506 -44.64942700000001,79.631199 -27.176359000000012,83.84029699999999 C -23.02227900000001,84.84097299999999 -17.837559000000013,86.03148099999999 -15.654749000000011,86.48586999999999 C -0.9244494800000105,89.55222499999999 6.634350499999988,91.671769 8.79112049999999,93.34067599999999 L 9.424480499999989,93.83077399999999 L 9.23852049999999,94.13166199999999 L 9.05257049999999,94.43254999999999 L 7.017660499999989,94.42575 C 5.898460499999989,94.42195 3.823300499999989,94.30613 2.406200499999989,94.16826999999999 C -1.3743395000000107,93.800491 -1.970629500000011,94.17596999999999 0.5778205199999891,95.31968099999999 C 2.516570499999989,96.18973999999999 5.328200499999989,97.216056 15.169210999999988,100.64590999999999 C 37.67375099999999,108.48930999999999 51.04609099999999,114.82512999999999 46.98047099999999,115.71808999999999 C 45.737180999999985,115.99116 36.47792099999999,114.85388999999999 34.02077099999999,114.12630999999999 L 33.42546099999999,113.95002999999998 L 33.42546099999999,114.23307999999999 C 33.42546099999999,114.66634999999998 38.047090999999995,117.60143 43.414750999999995,120.57703999999998 C 51.33872099999999,124.96974999999998 56.07484099999999,128.1383 58.149820999999996,130.43506 L 59.121790999999995,131.51091 L 59.03759099999999,131.9556 L 58.95339099999999,132.40029 L 57.897260999999986,132.49579 C 57.31639099999999,132.54829 55.55394099999999,132.44249 53.98070099999999,132.26058 L 51.12028099999999,131.92992 L 50.852000999999994,132.1982 L 50.583721,132.46647000000002 L 52.124931,133.79897000000003 C 52.972581,134.53184000000002 54.848710999999994,136.12430000000003 56.294090999999995,137.33777000000003 L 58.92206099999999,139.54407000000003 L 60.06440099999999,141.21468000000004 L 61.20675099999999,142.88529000000005 L 61.20675099999999,143.60916000000006 C 61.20675099999999,146.08240000000006 59.28447099999999,145.30303000000006 44.46937099999999,136.82312000000007 L 36.59552099999999,132.3162700000001 L 34.29333099999999,131.48324000000008 C 33.02713099999999,131.0250800000001 31.264050999999988,130.58232000000007 30.375380999999987,130.49933000000007 L 28.759610999999985,130.34845000000007 L 27.539470999999985,130.88818000000006 L 26.319320999999984,131.42791000000005 L 25.931400999999983,132.17870000000005 C 25.265130999999982,133.46819000000005 24.990050999999983,134.90798000000004 24.57183099999998,139.29476000000005 C 23.712590999999982,148.30737000000005 20.67200099999998,153.25966000000005 15.552570999999983,153.98466000000005 C 14.637780999999983,154.11421000000004 13.581990999999983,154.36024000000006 13.206370999999983,154.53138000000004 L 12.523420999999983,154.84255000000005 L 12.523420999999983,155.41097000000005 C 12.523420999999983,157.16969000000006 22.475620999999983,161.39373000000006 45.596330999999985,169.44819000000004 C 62.236060999999985,175.24490000000003 66.36002099999999,177.14083000000005 67.33040099999998,179.44012000000004 L 67.68904099999997,180.28991000000005 L 67.68904099999997,184.52324000000004 L 67.68904099999997,188.75657000000004 L 67.20223099999997,190.83292000000003 C 66.93448099999996,191.97491000000002 66.23128099999997,193.85351000000003 65.63957099999998,195.00758000000002 L 64.56372099999997,197.10588 L 63.21596099999997,198.50473000000002 C 60.66650099999997,201.15083 57.08749099999997,203.01678 53.18090099999997,203.7366 L 51.40714099999997,204.06343 L 49.38156099999997,203.74852 C 42.11816099999997,202.6193 35.40158099999997,199.23262000000003 22.38739099999997,190.13735000000003 C 12.448360999999968,183.19122000000002 1.0477904999999694,176.96833000000004 0.27131051999996814,178.06551000000002 C -0.5959194800000318,179.29092000000003 -6.316189500000032,185.38953 -7.563119500000032,186.41811 L -9.261109500000032,187.81877 L -10.724289000000033,188.24412 C -14.649069000000033,189.38509000000002 -20.850209000000035,193.53549 -22.025289000000033,195.80784 C -22.229479000000033,196.2027 -22.687219000000034,197.44111 -23.04248900000003,198.55987 C -23.397759000000033,199.67862 -24.102079000000032,201.26431 -24.60762900000003,202.08361 C -26.78641900000003,205.61454 -28.61527900000003,214.22313 -29.67381900000003,225.93053 C -30.17161900000003,231.43619 -30.67961900000003,234.67292 -31.43213900000003,237.13367 L -31.985789000000032,238.94411 L -31.67603900000003,240.51854 C -31.505669000000033,241.38449 -30.94709900000003,243.2487 -30.43475900000003,244.66124 C -29.26340900000003,247.89067 -28.223949000000033,251.73324 -28.22307900000003,252.83713 L -28.222289000000032,253.68227 L -28.849869000000034,254.41188 L -29.477449000000036,255.14149 L -30.397689000000035,255.11539 C -31.672859000000035,255.07929 -32.84236900000003,254.41424999999998 -34.630739000000034,252.70842 C -35.471849000000034,251.90627999999998 -36.159909000000034,251.30231999999998 -36.159909000000034,251.36631 C -36.159909000000034,251.43031 -35.55690900000003,253.26412 -34.81988900000003,255.44148 L -33.47986900000003,259.40031 L -33.32943900000003,261.41344 L -33.17900900000003,263.42656 L -33.49386900000003,263.62116 C -34.58056900000003,264.29276999999996 -37.073811000000035,261.98344 -41.76436000000003,255.96072999999998 C -47.33620900000003,248.80641999999997 -47.76863600000003,248.51494 -45.81653500000003,253.22929 C -45.13421700000003,254.87709999999998 -44.03971300000003,257.75455999999997 -43.38430000000003,259.62363999999997 L -42.19264300000003,263.02196999999995 L -42.05375300000003,265.57676999999995 L -41.914863000000025,268.13156 L -42.45624800000002,268.79301999999996 L -42.997635000000024,269.45447999999993 L -43.84139400000002,268.66072999999994 C -45.082179000000025,267.4934799999999 -48.882077000000024,261.60765999999995 -54.83624200000002,251.63034999999994 C -59.69136200000002,243.49468999999993 -61.78548900000002,240.36760999999993 -61.81348200000002,241.21150999999995 C -61.82967200000002,241.69959999999995 -59.56794200000002,247.74629999999993 -56.93990400000002,254.24093999999994 C -52.31366500000002,265.67371999999995 -51.11635100000002,272.82481999999993 -54.23974900000002,270.3679599999999 L -54.239789,270.36791" id="path2121" style="fill:#000000;stroke-width:1"/>
</svg>
