<?xml version="1.0" encoding="UTF-8" standalone="no"?>
<svg xmlns:dc="http://purl.org/dc/elements/1.1/" xmlns:cc="http://creativecommons.org/ns#" xmlns:rdf="http://www.w3.org/1999/02/22-rdf-syntax-ns#" xmlns:svg="http://www.w3.org/2000/svg" xmlns="http://www.w3.org/2000/svg" xmlns:sodipodi="http://sodipodi.sourceforge.net/DTD/sodipodi-0.dtd" xmlns:inkscape="http://www.inkscape.org/namespaces/inkscape" sodipodi:docname="stag_head.svg" inkscape:version="1.1-dev (1:0.92.0+devel+202004011918+2cd319e)" id="svg8" version="1.1" viewBox="0 0 60.455032 89.411928" height="89.411926mm" width="60.455032mm">
    <defs id="defs2" />
    <sodipodi:namedview inkscape:window-maximized="1" inkscape:window-y="0" inkscape:window-x="0" inkscape:window-height="1403" inkscape:window-width="2560" showgrid="false" inkscape:current-layer="layer1" inkscape:document-units="mm" inkscape:cy="169.06009" inkscape:cx="114.49146" inkscape:zoom="3.115" inkscape:pageshadow="2" inkscape:pageopacity="0.0" borderopacity="1.0" bordercolor="#666666" pagecolor="#ffffff" id="base" />
    <metadata id="metadata5">
        <rdf:RDF>
            <cc:Work rdf:about="">
                <dc:format>image/svg+xml</dc:format>
                <dc:type rdf:resource="http://purl.org/dc/dcmitype/StillImage" />
                <dc:title></dc:title>
            </cc:Work>
        </rdf:RDF>
    </metadata>
    <g transform="translate(-641.74913,313.84952)" id="layer1" inkscape:groupmode="layer" inkscape:label="Layer 1">
        <path style="fill:#333;fill-opacity:1" d="m 153,368.06824 c -9.71546,-1.94799 -12.91236,-5.67094 -19.8087,-23.06824 -1.63517,-4.125 -6.11916,-14.025 -9.96443,-22 -6.09884,-12.64885 -8.50543,-18.07918 -12.27402,-27.69566 -0.79044,-2.017 -0.49356,-2.25067 3.64875,-2.87185 4.20098,-0.62997 6.56741,-0.42492 13.69915,1.18703 2.67189,0.60391 2.76765,0.50071 2.08146,-2.24324 -1.25012,-4.99902 -5.08583,-12.8706 -7.90322,-16.21888 -3.64224,-4.32855 -6.95375,-5.89383 -13.50166,-6.38196 l -5.47733,-0.40831 -0.5,-8.42369 c -0.44223,-7.45038 -0.73109,-8.45998 -2.5,-8.73784 -5.292322,-0.83131 -23.640656,-6.80949 -28.779582,-9.37684 -3.17877,-1.58808 -7.61217,-4.54305 -9.852,-6.5666 -3.792172,-3.426 -12.868418,-14.45434 -12.868418,-15.63612 0,-0.28924 -1.573843,-3.13592 -3.497429,-6.32596 -1.923586,-3.19004 -3.498586,-6.57901 -3.5,-7.53103 -0.0029,-1.9313 4.11988,-3.39834 6.190594,-2.20287 0.718759,0.41496 0.961841,0.37483 0.540183,-0.0892 -1.297866,-1.42821 5.009302,-3.40483 14.576018,-4.56803 10.275408,-1.24937 15.907211,-0.7589 24.251941,2.11211 7.096516,2.44156 23.821303,13.44625 28.784293,18.93968 l 3.68407,4.07783 2.90481,-2.97158 2.90482,-2.97158 -6.71588,-5.49447 c -9.6584,-7.90184 -49.267926,-49.14702 -58.226644,-60.63109 -14.520169,-18.61322 -20.854261,-40.23168 -20.888223,-71.292175 -0.0153,-13.992281 8.447635,-46.677705 12.085826,-46.677705 0.63775,0 0.842095,0.723162 0.474807,1.680301 -2.838809,7.397817 -4.566639,20.376306 -4.534298,34.059112 0.0296,12.522847 1.810568,29.439377 3.251024,30.879837 0.229685,0.22968 1.157965,-2.582526 2.062845,-6.249352 0.90488,-3.666826 3.186902,-9.412618 5.071161,-12.768427 4.708173,-8.385116 16.732506,-21.256402 20.664471,-22.120006 1.682243,-0.369482 3.283024,-0.447385 3.557292,-0.173117 0.274269,0.274268 -1.445409,2.454591 -3.821506,4.845161 -2.376096,2.39057 -5.72675,7.046491 -7.445896,10.346491 -5.691959,10.926038 -12.117452,38.05849 -10.913812,46.08494 0.9521,6.34906 14.371709,27.25485 16.607956,25.87277 0.427737,-0.26435 1.083717,-1.93798 1.457733,-3.71918 0.374016,-1.78119 2.996138,-7.70572 5.826937,-13.16562 6.688867,-12.90114 16.654957,-23.78192 26.371907,-28.79233 8.33424,-4.297439 15.95595,-6.499631 17.42178,-5.033797 0.71646,0.71646 -0.024,1.38763 -2.39383,2.169735 -4.84994,1.600624 -17.7535,13.840392 -23.01817,21.834042 -5.611381,8.52009 -9.873687,18.34872 -12.727026,29.34778 -2.007185,7.73731 -2.084999,8.87614 -0.77705,11.37245 3.291769,6.28257 24.551506,27.52921 27.546166,27.52921 1.54521,0 8.893,-8.43256 11.07547,-12.71057 2.8728,-5.63115 5.41653,-16.24516 4.80153,-20.03495 -0.38799,-2.39093 -0.15185,-3.25448 0.88995,-3.25448 2.10773,0 2.96087,4.38844 2.91609,15 -0.0363,8.60048 -0.35046,10.1623 -3.31799,16.49474 -1.80284,3.84711 -4.41062,8.47983 -5.79506,10.29493 -2.97241,3.89703 -3.03708,3.78246 6.57212,11.64405 l 6.74278,5.51648 5.91912,-0.96931 c 3.25552,-0.53312 9.81621,-0.97191 14.57932,-0.9751 8.55311,-0.006 8.72006,-0.0537 13.5,-3.87898 2.66189,-2.13025 6.04069,-5.16775 7.50845,-6.75 l 2.66864,-2.87681 -4.23752,-7 c -8.28436,-13.68502 -12.11702,-27.23649 -9.96948,-35.25 0.72172,-2.69312 2.36971,-2.99696 2.36971,-0.43691 0,2.32894 7.96444,17.96267 11.53713,22.6467 1.50627,1.97483 4.50009,4.98566 6.65292,6.69073 l 3.91424,3.10014 2.55298,-2.37533 c 4.32788,-4.02672 17.55632,-22.12345 19.64547,-26.87533 1.08812,-2.475 2.36515,-4.65 2.83783,-4.83333 1.71198,-0.664 0.79185,-8.7671 -1.55188,-13.66667 -1.31547,-2.75 -6.14858,-9.94313 -10.74023,-15.98474 -12.03843,-15.83993 -22.98991,-24.008121 -33.34543,-24.870787 -9.1742,-0.764255 -7.18888,-2.969978 3.1428,-3.491704 6.99868,-0.353417 8.01276,-0.131426 14.86113,3.253222 8.60559,4.253109 11.92133,6.903299 27.91313,22.310289 l 11.9201,11.48418 1.79311,-2.35023 c 0.98621,-1.29263 4.11291,-6.98049 6.94822,-12.63969 6.92522,-13.82253 7.37203,-18.759617 2.97616,-32.885526 -4.4412,-14.27158 -9.83821,-21.230373 -21.30768,-27.473695 -3.1625,-1.721483 -5.75,-3.574787 -5.75,-4.118453 0,-1.492738 7.54981,-0.0024 12.34177,2.43629 6.03225,3.069881 15.57364,13.263267 20.70472,22.119532 2.44943,4.227731 4.77195,7.692302 5.16116,7.699047 1.0792,0.0187 4.95497,-13.720826 5.77938,-20.487735 1.01228,-8.309117 -0.56343,-19.730558 -3.52961,-25.584019 -1.35158,-2.667221 -2.45742,-5.089453 -2.45742,-5.382737 0,-1.443862 2.24702,-0.179765 5.33813,3.003054 5.69106,5.859896 8.16187,15.233409 8.16187,30.963702 0,7.15 -0.5285,14.8 -1.17444,17 -6.74386,22.96867 -10.46807,31.36495 -25.59188,57.69724 -13.70316,23.85878 -32.97257,51.89379 -51.12115,74.37604 l -2.48087,3.07328 3.09679,1.82932 3.09679,1.82931 3.58738,-3.96832 c 1.97306,-2.18258 5.24303,-6.01135 7.2666,-8.50838 8.11811,-10.01752 21.92475,-15.82849 37.60786,-15.82849 8.0062,0 16.76511,1.46642 17.68914,2.96152 0.65126,1.05376 -4.81947,15.23077 -8.01114,20.7603 -4.92866,8.53882 -19.44793,24.3145 -26.49068,28.78301 -1.93908,1.23032 -6.10608,3.08254 -9.26001,4.11606 l -5.73442,1.87911 0.64795,7.25 0.64794,7.25 h -5.47382 c -4.71539,0 -6.08542,0.4766 -9.88793,3.43982 -5.8364,4.54817 -8.00465,8.46713 -8.65543,15.64404 l -0.53778,5.9307 3.47891,-1.45358 c 2.96877,-1.24043 10.40632,-2.10441 14.49629,-1.68394 1.56396,0.16078 -0.30784,6.6024 -6.71903,23.12296 -2.66801,6.875 -6.47735,17.54041 -8.46522,23.70091 -7.50437,23.25648 -12.78555,32.30383 -19.65906,33.67853 -3.88695,0.77739 -13.23633,0.61442 -17.85279,-0.3112 z m 16.65561,-6.61913 c 2.96695,-2.263 3.34439,-3.08816 3.34439,-7.31144 0,-7.40634 -2.20504,-9.13767 -11.63783,-9.13767 -4.88557,0 -8.76307,0.57094 -10.96104,1.61394 -3.12289,1.48191 -3.40113,1.98094 -3.40113,6.1 0,3.76846 0.54387,5.02993 3.4,7.88606 3.14198,3.14198 3.87472,3.4 9.65561,3.4 5.16522,0 6.83856,-0.44464 9.6,-2.55089 z m -30.15561,-26.46281 c 0,-2.1435 -2.90567,-1.8339 -3.32712,0.35451 -0.25736,1.3364 0.14991,1.74367 1.48631,1.48631 1.01244,-0.19498 1.84081,-1.02335 1.84081,-1.84082 z m 44.5,-1.4863 c 0,-0.825 -0.64844,-1.5 -1.44098,-1.5 -1.67065,0 -2.79841,1.42728 -1.86517,2.36052 1.19516,1.19516 3.30615,0.64571 3.30615,-0.86052 z m -22.44115,-25 c -0.96528,-19.32732 -2.13273,-30.47388 -3.3156,-31.65675 -4.12316,-4.12316 -3.35792,38.64736 0.95946,53.62551 l 1.16198,4.03124 0.89675,-7 c 0.4932,-3.85 0.62704,-12.4 0.29741,-19 z m -24.89072,17.07754 c -0.95026,-2.47633 -3.66813,-1.91634 -3.66813,0.75579 0,1.28334 0.31071,2.64405 0.69048,3.02381 1.12425,1.12426 3.636,-2.06397 2.97765,-3.7796 z m 13.08395,-3.32754 c -0.55233,-7.21621 -4.3058,-18.64385 -5.81691,-17.70993 -0.50175,0.31009 -0.67103,-0.0648 -0.37618,-0.83319 0.53696,-1.39931 -6.20027,-7.39893 -7.19338,-6.40582 -0.27667,0.27666 1.06612,2.68718 2.98398,5.3567 4.1857,5.82618 7.21259,13.1832 8.18789,19.90108 0.39454,2.71764 0.91157,5.27866 1.14895,5.69116 1.18704,2.06273 1.53348,0.11212 1.06565,-6 z m 23.83004,-6.75 c 1.79582,-8.04761 4.19816,-15.12549 6.10013,-17.97251 2.23674,-3.34812 1.45544,-4.15555 -1.22446,-1.26539 -6.35984,6.8588 -9.83269,19.35477 -7.88973,28.38873 0.80588,3.74701 0.83614,3.76954 1.13993,0.84917 0.17165,-1.65 1.015,-6.15 1.87413,-10 z m 12.86211,10.59024 c 0.81018,-1.31091 -0.44772,-4.09024 -1.85122,-4.09024 -1.82845,0 -3.49918,2.08095 -2.90788,3.62186 0.59297,1.54524 3.89284,1.87001 4.7591,0.46838 z m -52.10435,-8.25642 c 1.38723,-2.21366 -0.76053,-4.83382 -3.96232,-4.83382 -1.94399,0 -2.37756,0.51669 -2.37756,2.83333 0,1.55834 0.31898,3.15232 0.70885,3.54219 1.16283,1.16283 4.51057,0.24627 5.63103,-1.5417 z m 54.16012,-3.83382 c 0,-1.83273 -0.60174,-2.58545 -2.25447,-2.82014 -2.45711,-0.34891 -3.85266,1.79561 -2.85699,4.39028 0.3614,0.9418 1.50471,1.44202 2.85699,1.25 1.65273,-0.23469 2.25447,-0.98741 2.25447,-2.82014 z m -59.77733,-8.12267 c 1.57052,-1.57052 -0.50068,-5.87733 -2.82648,-5.87733 -2.54233,0 -5.1622,3.97455 -3.74527,5.68185 1.33801,1.6122 5.04477,1.72246 6.57175,0.19548 z m 62.88561,-2.45272 c 0.34284,-1.36598 0.077,-3.09891 -0.60067,-3.91544 -1.77179,-2.13488 -5.44252,-1.25996 -5.83437,1.39063 -0.69008,4.6678 5.30666,7.02064 6.43504,2.52481 z m -45.35249,-29.12289 c 0.97577,-1.67075 3.38917,-7.68586 5.36311,-13.36691 2.96841,-8.54318 3.52104,-11.37578 3.19604,-16.382 -0.50412,-7.76546 -3.21133,-13.1791 -8.64268,-17.28289 -3.53968,-2.67449 -5.2331,-3.26992 -9.29966,-3.26992 -8.90553,0 -13.72979,4.6285 -11.02095,10.57374 1.39514,3.06201 3.56233,3.0576 9.64058,-0.0196 4.41144,-2.23335 5.11446,-2.32749 8.09169,-1.08352 1.79329,0.74928 4.03376,2.54245 4.97884,3.98482 3.24954,4.95943 0.15328,24.88907 -6.04831,38.93101 -1.37611,3.11585 1.70757,1.39758 3.74134,-2.08473 z m 22.44475,-4.57694 c -4.5101,-11.26603 -5.75297,-24.02127 -2.86621,-29.41523 2.15849,-4.03318 7.52593,-6.43709 13.87112,-6.21247 9.53128,0.33741 11.27118,-0.85845 9.70964,-6.67356 -0.71577,-2.66552 -4.97816,-5.17011 -10.22703,-6.00944 -3.54636,-0.56708 -4.81492,-0.22032 -8.98627,2.45643 -2.67135,1.7142 -5.38144,4.1321 -6.02241,5.37311 -2.39034,4.62801 -4.17873,11.13561 -4.15854,15.13211 0.0334,6.61059 3.43034,19.61679 7.21486,27.62427 3.60504,7.62772 4.72985,5.88064 1.46484,-2.27522 z m -30.73718,-2.99879 c 5.32453,-10.81565 4.15409,-20.82209 -2.76211,-23.61427 -6.81211,-2.75016 -12.86768,-0.74547 -15.27042,5.05527 -1.64526,3.97202 -0.29152,6.22789 3.99168,6.65171 2.45314,0.24274 3.80978,-0.31681 5.69192,-2.34767 1.86483,-2.01219 3.07025,-2.516 4.91311,-2.05347 4.34017,1.08931 4.57155,8.61486 0.52205,16.98 -2.29495,4.74073 -2.46602,5.60244 -1.11225,5.60244 0.51553,0 2.32724,-2.82331 4.02602,-6.27401 z m 44.03664,4.95215 c 0,-0.17702 -0.72232,-2.44175 -1.60515,-5.03272 -1.80765,-5.30517 -1.26412,-10.6828 1.29321,-12.79494 0.89933,-0.74276 3.69992,-1.35048 6.22354,-1.35048 4.37034,0 4.60245,-0.14316 4.88404,-3.01245 0.44446,-4.52886 -2.79505,-7.48755 -8.19823,-7.48755 -6.85555,0 -10.59741,4.94303 -10.59741,13.99927 0,5.18297 4.74814,16.00073 7.02305,16.00073 0.53732,0 0.97695,-0.14484 0.97695,-0.32186 z m -82.436172,-29.27985 c -0.698703,-2.78386 -2.225,-3.02434 -5.341322,-0.84159 -3.505019,2.45502 -2.848647,5.09464 1.527494,6.14288 3.28811,0.78761 3.791001,0.66415 4.08288,-1.00238 0.18308,-1.04534 0.06201,-2.97985 -0.269052,-4.29891 z m 121.936172,3.12924 c 2.75,-1.34242 7.31401,-4.82279 10.14226,-7.73415 l 5.14225,-5.29338 -0.70896,-5.21872 c -0.38993,-2.8703 -1.53619,-6.1328 -2.54725,-7.25 -2.85947,-3.15969 -3.50109,-2.40079 -1.4205,1.68016 2.29662,4.5047 2.43933,10.06241 0.3355,13.06605 -1.75819,2.51016 -3.96306,3.01937 -3.07713,0.71066 1.22737,-3.19845 -3.38617,-10.48815 -6.63779,-10.48815 -1.60391,0 -1.81622,0.41032 -1.16419,2.25 0.43859,1.2375 0.82858,4.56551 0.86663,7.39558 0.0801,5.95582 -2.20365,9.35442 -6.28581,9.35442 -1.97945,0 -2.27834,-0.26667 -1.34501,-1.2 1.62441,-1.62441 1.51936,-6.29007 -0.17325,-7.69481 -4.27798,-3.55041 -8.71515,6.12408 -5.53454,12.06711 1.33534,2.49511 4.89322,2.02347 12.40779,-1.64477 z m -132.380471,-1.73345 c -1.046762,-2.82967 0.205184,-8.39042 2.446637,-10.86719 2.084152,-2.30296 1.332999,-2.44323 -2.491875,-0.46531 -1.699045,0.87861 -3.470893,3.07236 -4.442243,5.5 -2.804253,7.00852 -5.209426,4.3559 -3.625125,-3.99808 0.523333,-2.75953 1.410866,-5.87563 1.972296,-6.92467 1.517729,-2.8359 1.306658,-3.03445 -2.000328,-1.88163 -3.424825,1.1939 -4.501544,2.7814 -5.501422,8.11121 -0.891633,4.75281 -2.094237,4.74274 -3.524033,-0.0295 -0.954266,-3.18505 -0.810893,-4.59261 0.936129,-9.1904 1.134637,-2.98612 1.892475,-5.59981 1.684085,-5.8082 -1.587639,-1.58764 -8.57365,7.46868 -8.57365,11.11445 0,0.96592 -0.560605,1.36734 -1.438893,1.03031 -1.698981,-0.65196 -2.905138,-5.38053 -2.712781,-10.63508 0.170841,-4.66683 -1.368882,-4.82326 -3.499397,-0.35552 -2.157562,4.52445 -1.278693,7.37336 3.837245,12.43866 4.85666,4.80859 20.654594,13.02026 27.031602,14.05086 0.394776,0.0638 0.350565,-0.87666 -0.09825,-2.08992 z m 154.644941,-18.85799 2.23451,-2.5639 -2.50186,-5.1861 c -1.37602,-2.85235 -2.95079,-5.18609 -3.49949,-5.18609 -1.2884,0 -1.25747,0.64596 0.15752,3.2899 1.18959,2.22277 1.31038,8.5851 0.23118,12.17645 -0.3634,1.20929 -0.25546,1.62829 0.26626,1.03365 0.48255,-0.55 1.8829,-2.15376 3.11188,-3.56391 z m -189.76447,-7.96084 c 0,-4.52549 -0.265413,-5.12566 -2.671226,-6.04035 -4.798581,-1.82442 -5.143211,-0.6911 -1.616261,5.3151 1.857078,3.1625 3.581476,5.75 3.831996,5.75 0.25052,0 0.455491,-2.26114 0.455491,-5.02475 z m 195.8675,-0.47525 c 1.13578,-1.925 1.67425,-3.5 1.1966,-3.5 -0.47765,0 -1.33906,-1.35 -1.91426,-3 -0.57519,-1.65 -1.18171,-3 -1.34782,-3 -0.16611,0 -0.30202,2.925 -0.30202,6.5 0,3.575 0.068,6.5 0.15122,6.5 0.0832,0 1.0805,-1.575 2.21628,-3.5 z m 6.57525,-14.25 c 0.47595,-1.54747 0.28069,-2.24522 -0.62536,-2.23469 -2.8844,0.0335 -3.76251,1.54803 -3.13601,5.40872 0.60911,3.75346 0.65157,3.78701 1.84639,1.45889 0.67263,-1.31061 1.53437,-3.39542 1.91498,-4.63292 z m -140.60389,85.95954 c -5.01897,-0.19029 -8.05912,-0.77001 -8.81512,-1.68094 -0.63469,-0.76476 -1.41264,-3.89655 -1.72877,-6.95953 l -0.57478,-5.56907 h 4.49202 c 5.62422,0 10.60449,3.13305 13.11371,8.24972 2.8252,5.76101 2.24831,6.29101 -6.48706,5.95982 z m 76.16114,-4.90238 c 0,-3.52603 5.20504,-10.17204 9.22689,-11.78126 4.77704,-1.9114 10.77311,-2.02496 10.77311,-0.20404 0,0.72702 -0.70004,3.37638 -1.55565,5.88745 l -1.55566,4.5656 -6.69434,1.01922 c -3.68189,0.56057 -7.48185,1.33436 -8.44435,1.71953 -1.29967,0.52011 -1.75,0.20964 -1.75,-1.2065 z" id="path872" transform="matrix(0.26458333,0,0,0.26458333,631.16354,-322.03571)" />
    </g>
</svg>
