<?xml version="1.0" encoding="UTF-8" standalone="no"?>
<svg xmlns:svg="http://www.w3.org/2000/svg" xmlns="http://www.w3.org/2000/svg" xmlns:xlink="http://www.w3.org/1999/xlink" xmlns:sodipodi="http://sodipodi.sourceforge.net/DTD/sodipodi-0.dtd" xmlns:inkscape="http://www.inkscape.org/namespaces/inkscape" sodipodi:docname="swiss_knife.svg" inkscape:version="1.1-dev (1:0.92.0+devel+202005080040+c5a9cc1)" id="svg3165" version="1.1" viewBox="0 0 34.016998 16.497162" height="16.497162mm" width="34.016998mm">
    <defs id="defs3161">
        <filter inkscape:collect="always" color-interpolation-filters="sRGB" id="filter6018-3">
            <feGaussianBlur inkscape:collect="always" stdDeviation="10.920062" id="feGaussianBlur6020-6" />
        </filter>
        <linearGradient inkscape:collect="always" xlink:href="#linearGradient4717" id="linearGradient2900" gradientUnits="userSpaceOnUse" gradientTransform="rotate(-1.1450181,392.34626,2587.723)" x1="284.13" y1="-59.311001" x2="313.06" y2="4.9333" />
        <linearGradient id="linearGradient4717">
            <stop id="stop4719" style="stop-color:#dfe0db" offset="0" />
            <stop id="stop4725" style="stop-color:#787976" offset=".49415" />
            <stop id="stop4727" style="stop-color:#81817e" offset=".60805" />
            <stop id="stop4721" style="stop-color:#8a8a87" offset="1" />
        </linearGradient>
        <radialGradient inkscape:collect="always" r="2.5538001" gradientTransform="matrix(0.99236,-0.12341,2.7888,22.424,111.49,871.3)" cx="229.37" cy="-39.348" gradientUnits="userSpaceOnUse" id="radialGradient8620-6">
            <stop offset="0" style="stop-color:#292a24" id="stop4737-2" />
            <stop offset="1" style="stop-color:#292a24;stop-opacity:0" id="stop4739-9" />
        </radialGradient>
        <filter inkscape:collect="always" x="-0.11238" y="-0.083788" color-interpolation-filters="sRGB" width="1.2248" height="1.1676" id="filter4838-1">
            <feGaussianBlur inkscape:collect="always" stdDeviation="0.85637256" id="feGaussianBlur4840-2" />
        </filter>
        <filter inkscape:collect="always" x="-0.16966" y="-0.055817999" color-interpolation-filters="sRGB" width="1.3393" height="1.1116" id="filter4842-7">
            <feGaussianBlur inkscape:collect="always" stdDeviation="1.4232833" id="feGaussianBlur4844-0" />
        </filter>
        <linearGradient inkscape:collect="always" xlink:href="#linearGradient4717" id="linearGradient2902" gradientUnits="userSpaceOnUse" gradientTransform="matrix(0.48302,-0.07789,0.07789,0.48302,-428.38,132.05)" x1="1221.4" y1="629.02002" x2="1277.1" y2="629.02002" />
        <linearGradient inkscape:collect="always" xlink:href="#linearGradient5625" id="linearGradient2904" gradientUnits="userSpaceOnUse" x1="1267.6" y1="511.85001" x2="1268.1" y2="682.35999" />
        <linearGradient id="linearGradient5625">
            <stop id="stop5627" style="stop-color:#dfe0db" offset="0" />
            <stop id="stop5629" style="stop-color:#787976" offset=".49415" />
            <stop id="stop5631" style="stop-color:#81817e" offset=".60805" />
            <stop id="stop5633" style="stop-color:#8a8a87;stop-opacity:.604" offset="1" />
        </linearGradient>
        <linearGradient inkscape:collect="always" xlink:href="#linearGradient8628" id="linearGradient2906" gradientUnits="userSpaceOnUse" gradientTransform="translate(66.382,-76.425)" x1="378.54001" y1="-160.53999" x2="395.57999" y2="-160.53999" />
        <linearGradient id="linearGradient8628" y2="-160.53999" gradientUnits="userSpaceOnUse" x2="395.57999" gradientTransform="translate(66.382,-76.425)" y1="-160.53999" x1="378.54001" inkscape:collect="always">
            <stop id="stop4567" style="stop-color:#2b2b29" offset="0" />
            <stop id="stop4581" style="stop-color:#393b3a" offset=".074279" />
            <stop id="stop4579" style="stop-color:#5f6160" offset=".17933" />
            <stop id="stop4577" style="stop-color:#f3f5f4" offset=".28942" />
            <stop id="stop4575" style="stop-color:#dde3e3" offset=".57885" />
            <stop id="stop4573" style="stop-color:#585d60" offset=".69615" />
            <stop id="stop4571" style="stop-color:#a8b0b2" offset=".88462" />
            <stop id="stop4569" style="stop-color:#6c7477" offset="1" />
        </linearGradient>
        <clipPath clipPathUnits="userSpaceOnUse" id="clipPath4611-0">
            <path inkscape:connector-curvature="0" style="fill:none;stroke:black;stroke-width:0.1" sodipodi:nodetypes="ccccccc" d="m 452.88,-150.77 2.6722,-114.7 5.7555,-10.072 h 1.4389 l 6.1666,10.894 v 113.26 z" id="path4613-2" />
        </clipPath>
        <filter inkscape:collect="always" x="-0.15808" y="-0.020313" color-interpolation-filters="sRGB" width="1.3162" height="1.0405999" id="filter4603-3">
            <feGaussianBlur inkscape:collect="always" stdDeviation="1.0560352" id="feGaussianBlur4605-7" />
        </filter>
        <radialGradient inkscape:collect="always" r="2.6429999" gradientTransform="matrix(1.2552,-0.14751,0.70939,6.036,48.533,1104.3)" cx="390.26001" cy="-207.77" gradientUnits="userSpaceOnUse" id="radialGradient8630-5">
            <stop offset="0" style="stop-color:#3d3d3d" id="stop4639-9" />
            <stop offset="1" style="stop-color:#3d3d3d;stop-opacity:0" id="stop4641-2" />
        </radialGradient>
        <filter inkscape:collect="always" x="-0.17017999" y="-0.020129001" color-interpolation-filters="sRGB" width="1.3404" height="1.0403" id="filter4619-2">
            <feGaussianBlur inkscape:collect="always" stdDeviation="0.2267442" id="feGaussianBlur4621-8" />
        </filter>
        <radialGradient inkscape:collect="always" r="3.3762" gradientTransform="matrix(0.99912,0.041855,-0.25831,6.1662,-53.396,1059.7)" cx="386.63" cy="-208.02" gradientUnits="userSpaceOnUse" id="radialGradient8632-9">
            <stop offset="0" style="stop-color:#676767" id="stop4647-7" />
            <stop offset="1" style="stop-color:#676767;stop-opacity:0" id="stop4649-3" />
        </radialGradient>
        <filter inkscape:collect="always" x="-0.15218" y="-0.020415001" color-interpolation-filters="sRGB" width="1.3044" height="1.0408" id="filter4633-6">
            <feGaussianBlur inkscape:collect="always" stdDeviation="0.20276152" id="feGaussianBlur4635-1" />
        </filter>
        <linearGradient inkscape:collect="always" xlink:href="#linearGradient8634" id="linearGradient2908" gradientUnits="userSpaceOnUse" gradientTransform="translate(18.605,2.3256)" x1="402.32999" y1="-140.99001" x2="409.29999" y2="-134.88" />
        <linearGradient id="linearGradient8634" y2="-134.88" gradientUnits="userSpaceOnUse" x2="409.29999" gradientTransform="translate(18.605,2.3256)" y1="-140.99001" x1="402.32999" inkscape:collect="always">
            <stop id="stop4535" style="stop-color:#ebebeb" offset="0" />
            <stop id="stop4537" style="stop-color:#b2b2b2" offset="1" />
        </linearGradient>
        <radialGradient inkscape:collect="always" r="12.044" gradientTransform="matrix(0.29896,0.24955,-1.4016,1.679,75.554,3.8169)" cx="448.67001" cy="-170.50999" gradientUnits="userSpaceOnUse" id="radialGradient8636-3">
            <stop offset="0" style="stop-color:#2b2b29" id="stop4745-1" />
            <stop offset="1" style="stop-color:#2b2b29;stop-opacity:0" id="stop4747-9" />
        </radialGradient>
        <clipPath clipPathUnits="userSpaceOnUse" id="clipPath4688-4">
            <path inkscape:connector-curvature="0" inkscape:transform-center-y="-55.232558" inkscape:transform-center-x="-43.023256" d="m 445.16,-168.31 c 0,0 13.67,-7.5451 17.162,-11.321 3.492,-3.7757 29.974,-33.402 36.377,-41.535 6.4031,-8.1334 19.5,-24.109 25.318,-28.464 5.8181,-4.3549 16.581,-11.903 16.581,-11.903 0,0 -7.8652,17.144 -17.471,30.216 -9.6055,13.072 -34.925,42.699 -40.164,49.38 -5.2389,6.681 -17.173,22.658 -17.173,22.658 z" style="fill:none;stroke:#3d3d3d;stroke-width:0.1" id="path4690-7" />
        </clipPath>
        <filter color-interpolation-filters="sRGB" inkscape:collect="always" id="filter4684-8">
            <feGaussianBlur inkscape:collect="always" stdDeviation="1.4826909" id="feGaussianBlur4686-4" />
        </filter>
        <linearGradient inkscape:collect="always" xlink:href="#linearGradient4717" id="linearGradient2910" gradientUnits="userSpaceOnUse" gradientTransform="matrix(0.48302,-0.07789,0.07789,0.48302,-428.38,132.05)" x1="1401.3" y1="838.13" x2="1414.6" y2="806.52002" />
        <linearGradient inkscape:collect="always" xlink:href="#linearGradient4717" id="linearGradient2912" gradientUnits="userSpaceOnUse" x1="113.61" y1="-89.401001" x2="270.35999" y2="-81.178001" />
        <filter inkscape:collect="always" x="-0.25029001" y="-0.034086" color-interpolation-filters="sRGB" width="1.5006" height="1.0682" id="filter5285-5">
            <feGaussianBlur inkscape:collect="always" stdDeviation="0.37513656" id="feGaussianBlur5287-0" />
        </filter>
        <radialGradient inkscape:collect="always" r="19.117001" gradientTransform="matrix(-1.9166,0.23652,-0.021832,-0.17691,473.81,-157.82)" cx="163.21001" cy="-101.3" gradientUnits="userSpaceOnUse" xlink:href="#linearGradient5275" id="radialGradient8642-3" />
        <linearGradient id="linearGradient5275" inkscape:collect="always">
            <stop id="stop5277" style="stop-color:#2c2c2c" offset="0" />
            <stop id="stop5279" style="stop-color:#2c2c2c;stop-opacity:0" offset="1" />
        </linearGradient>
        <radialGradient inkscape:collect="always" r="100.91" gradientTransform="matrix(1.056,-0.10851,0.031133,0.30297,-9.576,-99.122)" cx="220.10001" cy="-88.252998" gradientUnits="userSpaceOnUse" id="radialGradient8644-0">
            <stop offset="0" style="stop-color:#d9d9d9" id="stop5347-6" />
            <stop offset="1" style="stop-color:#d9d9d9;stop-opacity:0" id="stop5349-3" />
        </radialGradient>
        <clipPath clipPathUnits="userSpaceOnUse" id="clipPath5373-2">
            <path inkscape:connector-curvature="0" style="opacity:0.60153;fill:none;stroke:#1f1f1f;stroke-width:0.1" sodipodi:nodetypes="cssscccscsssc" d="m 147.69,-160.65 c 1.3741,0.27481 4.7696,-9.625 27.085,-17.953 25.514,-9.5214 51.404,-7.6287 74.659,-8.2101 23.256,-0.5814 33.14,-0.5814 50.581,-1.1628 17.442,-0.5814 41.837,-2.1909 41.837,-2.1909 l -2.302,30.098 -41.743,3.194 c 0,0 0.18793,-2.4423 -4.4632,-2.4423 -4.6512,0 -4.8567,1.9145 -4.8567,1.9145 0,0 -13.323,1.1261 -31.495,3.7292 -8.5678,1.2273 -28.817,4.5806 -50.851,4.8214 -16.288,0.17802 -26.914,0.34058 -39.705,-4.892 -12.791,-5.23258 -18.746,-6.9062 -18.746,-6.9062 z" id="path5375-0" />
        </clipPath>
        <filter color-interpolation-filters="sRGB" inkscape:collect="always" id="filter5359-6">
            <feGaussianBlur inkscape:collect="always" stdDeviation="1.1777015" id="feGaussianBlur5361-1" />
        </filter>
        <linearGradient inkscape:collect="always" xlink:href="#linearGradient8646" id="linearGradient2914" gradientUnits="userSpaceOnUse" x1="509.22" y1="-94.138" x2="602.23999" y2="-95.93" />
        <linearGradient id="linearGradient8646" y2="-95.93" gradientUnits="userSpaceOnUse" x2="602.23999" y1="-94.138" x1="509.22" inkscape:collect="always">
            <stop id="stop5559" style="stop-color:#d8d8d4" offset="0" />
            <stop id="stop5569" style="stop-color:#d9dad5" offset=".32364" />
            <stop id="stop5567" style="stop-color:#c0c1bc" offset=".64729" />
            <stop id="stop5561" style="stop-color:#787976" offset=".73216" />
            <stop id="stop5563" style="stop-color:#81817e" offset=".91443" />
            <stop id="stop5565" style="stop-color:#8a8a87" offset="1" />
        </linearGradient>
        <radialGradient inkscape:collect="always" r="17.113001" gradientTransform="matrix(0.92336,-0.41186,0.35677,0.79984,64.973,199.26)" cx="526.35999" cy="-69.049004" gradientUnits="userSpaceOnUse" id="radialGradient8648-6">
            <stop offset="0" style="stop-color:#000000" id="stop4159-9" />
            <stop offset="1" style="stop-color:#000000;stop-opacity:0" id="stop4161-3" />
        </radialGradient>
        <filter inkscape:collect="always" x="-0.072126999" y="-0.35685" color-interpolation-filters="sRGB" width="1.1443" height="1.7137001" id="filter4150-7">
            <feGaussianBlur inkscape:collect="always" stdDeviation="0.56316498" id="feGaussianBlur4152-4" />
        </filter>
        <linearGradient inkscape:collect="always" xlink:href="#linearGradient4717" id="linearGradient2916" gradientUnits="userSpaceOnUse" x1="933.84003" y1="574.78003" x2="989.59003" y2="772.79999" />
        <radialGradient inkscape:collect="always" r="19.117001" gradientTransform="matrix(0.21974,-3.1429,-0.29011,-0.020283,882.19,1139.1)" cx="163.21001" cy="-101.3" gradientUnits="userSpaceOnUse" xlink:href="#linearGradient5275" id="radialGradient8652-5" />
        <radialGradient inkscape:collect="always" r="67.269997" gradientTransform="matrix(0.48302,-0.07789,0.08783,0.54466,-435.49,87.957)" cx="1410.3" cy="715.25" gradientUnits="userSpaceOnUse" id="radialGradient8654-2">
            <stop offset="0" style="stop-color:#4d4d4d" id="stop6049-5" />
            <stop offset="1" style="stop-color:#4d4d4d;stop-opacity:0" id="stop6051-4" />
        </radialGradient>
        <linearGradient inkscape:collect="always" xlink:href="#linearGradient8656" id="linearGradient2918" gradientUnits="userSpaceOnUse" gradientTransform="matrix(0.48302,-0.07789,0.07789,0.48302,-428.38,132.05)" x1="1342.5" y1="715.25" x2="1478.1" y2="715.25" />
        <linearGradient id="linearGradient8656" y2="715.25" gradientUnits="userSpaceOnUse" x2="1478.1" gradientTransform="matrix(0.48302,-0.07789,0.07789,0.48302,-428.38,132.05)" y1="715.25" x1="1342.5" inkscape:collect="always">
            <stop id="stop4719-4" style="stop-color:#dfe0db" offset="0" />
            <stop id="stop4725-6" style="stop-color:#787976" offset=".49415" />
            <stop id="stop4727-9" style="stop-color:#81817e" offset=".60805" />
            <stop id="stop4721-7" style="stop-color:#8a8a87" offset="1" />
        </linearGradient>
        <linearGradient inkscape:collect="always" xlink:href="#linearGradient8658" id="linearGradient2920" gradientUnits="userSpaceOnUse" x1="334.32999" y1="435.98999" x2="335.85001" y2="430.98999" />
        <linearGradient id="linearGradient8658" y2="430.98999" gradientUnits="userSpaceOnUse" x2="335.85001" y1="435.98999" x1="334.32999" inkscape:collect="always">
            <stop id="stop7675" style="stop-color:#414242" offset="0" />
            <stop id="stop7677" style="stop-color:#414242;stop-opacity:0" offset="1" />
        </linearGradient>
        <filter inkscape:collect="always" color-interpolation-filters="sRGB" id="filter5719-8">
            <feGaussianBlur inkscape:collect="always" stdDeviation="3.205601" id="feGaussianBlur5721-6" />
        </filter>
        <radialGradient inkscape:collect="always" r="22.767" gradientTransform="matrix(1.4467,0.14172,-0.022116,0.22577,-10.518,-41.382)" cx="186.57001" cy="103.77" gradientUnits="userSpaceOnUse" xlink:href="#linearGradient3905" id="radialGradient8660-8" />
        <linearGradient id="linearGradient3905" inkscape:collect="always">
            <stop id="stop3907" style="stop-color:#ffffff" offset="0" />
            <stop id="stop3909" style="stop-color:#ffffff;stop-opacity:0" offset="1" />
        </linearGradient>
        <filter inkscape:collect="always" x="-0.020592" y="-0.14298999" color-interpolation-filters="sRGB" width="1.0412" height="1.286" id="filter3913-3">
            <feGaussianBlur inkscape:collect="always" stdDeviation="0.3821076" id="feGaussianBlur3915-1" />
        </filter>
        <radialGradient inkscape:collect="always" r="22.767" gradientTransform="matrix(1.9968,8.2637001e-8,0,0.09919,-172.42,122.86)" cx="188.89999" cy="109.63" gradientUnits="userSpaceOnUse" xlink:href="#linearGradient3905" id="radialGradient8662-4" />
        <radialGradient inkscape:collect="always" r="80.336998" gradientTransform="matrix(1,0,0,0.039297,68.605,-30.612)" cx="299.26999" cy="121.8" gradientUnits="userSpaceOnUse" id="radialGradient8664-9">
            <stop offset="0" style="stop-color:#ffffff" id="stop3929-9-2" />
            <stop offset="1" style="stop-color:#ffffff;stop-opacity:0" id="stop3931-1-0" />
        </radialGradient>
        <filter inkscape:collect="always" x="-0.012045" y="-3.21" color-interpolation-filters="sRGB" width="1.0240999" height="7.4198999" id="filter3923-6">
            <feGaussianBlur inkscape:collect="always" stdDeviation="0.7776163" id="feGaussianBlur3925-8" />
        </filter>
        <radialGradient inkscape:collect="always" r="14.008" gradientTransform="matrix(0.69003,0.0017145,-0.0018106,0.72871,116.18,55.785)" cx="502.34" cy="-101.24" gradientUnits="userSpaceOnUse" id="radialGradient8666-9">
            <stop offset="0" style="stop-color:#fbfbfb" id="stop3961-2" />
            <stop offset="1" style="stop-color:#fbfbfb;stop-opacity:0" id="stop3963-6" />
        </radialGradient>
        <filter color-interpolation-filters="sRGB" inkscape:collect="always" id="filter3979-6">
            <feGaussianBlur inkscape:collect="always" stdDeviation="0.37963568" id="feGaussianBlur3981-4" />
        </filter>
        <filter color-interpolation-filters="sRGB" inkscape:collect="always" id="filter8490-9">
            <feGaussianBlur inkscape:collect="always" stdDeviation="0.52629456" id="feGaussianBlur8492-5" />
        </filter>
        <linearGradient inkscape:collect="always" xlink:href="#linearGradient4717" id="linearGradient2922" gradientUnits="userSpaceOnUse" x1="233.03999" y1="620.34998" x2="250.10001" y2="620.34998" />
        <radialGradient r="100.91" cy="-88.252998" cx="220.10001" gradientTransform="matrix(1.056,-0.10851,0.031133,0.30297,-9.576,-99.122)" gradientUnits="userSpaceOnUse" id="radialGradient3669" xlink:href="#radialGradient8644-0" inkscape:collect="always" />
        <radialGradient r="19.117001" cy="-101.3" cx="163.21001" gradientTransform="matrix(-1.9166,0.23652,-0.021832,-0.17691,473.81,-157.82)" gradientUnits="userSpaceOnUse" id="radialGradient3671" xlink:href="#linearGradient5275" inkscape:collect="always" />
        <radialGradient r="2.5538001" cy="-39.348" cx="229.37" gradientTransform="matrix(0.99236,-0.12341,2.7888,22.424,111.49,871.3)" gradientUnits="userSpaceOnUse" id="radialGradient3695" xlink:href="#radialGradient8620-6" inkscape:collect="always" />
        <radialGradient r="2.6429999" cy="-207.77" cx="390.26001" gradientTransform="matrix(1.2552,-0.14751,0.70939,6.036,48.533,1104.3)" gradientUnits="userSpaceOnUse" id="radialGradient3697" xlink:href="#radialGradient8630-5" inkscape:collect="always" />
        <radialGradient r="3.3762" cy="-208.02" cx="386.63" gradientTransform="matrix(0.99912,0.041855,-0.25831,6.1662,-53.396,1059.7)" gradientUnits="userSpaceOnUse" id="radialGradient3699" xlink:href="#radialGradient8632-9" inkscape:collect="always" />
        <radialGradient r="12.044" cy="-170.50999" cx="448.67001" gradientTransform="matrix(0.29896,0.24955,-1.4016,1.679,75.554,3.8169)" gradientUnits="userSpaceOnUse" id="radialGradient3701" xlink:href="#radialGradient8636-3" inkscape:collect="always" />
        <radialGradient r="100.91" cy="-88.252998" cx="220.10001" gradientTransform="matrix(1.056,-0.10851,0.031133,0.30297,-9.576,-99.122)" gradientUnits="userSpaceOnUse" id="radialGradient3703" xlink:href="#radialGradient8644-0" inkscape:collect="always" />
        <radialGradient r="17.113001" cy="-69.049004" cx="526.35999" gradientTransform="matrix(0.92336,-0.41186,0.35677,0.79984,64.973,199.26)" gradientUnits="userSpaceOnUse" id="radialGradient3705" xlink:href="#radialGradient8648-6" inkscape:collect="always" />
        <radialGradient r="67.269997" cy="715.25" cx="1410.3" gradientTransform="matrix(0.48302,-0.07789,0.08783,0.54466,-435.49,87.957)" gradientUnits="userSpaceOnUse" id="radialGradient3707" xlink:href="#radialGradient8654-2" inkscape:collect="always" />
        <radialGradient r="80.336998" cy="121.8" cx="299.26999" gradientTransform="matrix(1,0,0,0.039297,68.605,-30.612)" gradientUnits="userSpaceOnUse" id="radialGradient3709" xlink:href="#radialGradient8664-9" inkscape:collect="always" />
        <radialGradient r="14.008" cy="-101.24" cx="502.34" gradientTransform="matrix(0.69003,0.0017145,-0.0018106,0.72871,116.18,55.785)" gradientUnits="userSpaceOnUse" id="radialGradient3711" xlink:href="#radialGradient8666-9" inkscape:collect="always" />
    </defs>
    <sodipodi:namedview inkscape:window-maximized="1" inkscape:window-y="0" inkscape:window-x="0" inkscape:window-height="1403" inkscape:window-width="2560" showgrid="false" inkscape:current-layer="layer1" inkscape:document-units="mm" inkscape:cy="27.629505" inkscape:cx="75.652161" inkscape:zoom="13.926325" inkscape:pageshadow="2" inkscape:pageopacity="0.0" borderopacity="1.0" bordercolor="#666666" pagecolor="#ffffff" id="base" />
    <g transform="translate(-527.5467,36.218817)" id="layer1" inkscape:groupmode="layer" inkscape:label="Layer 1">
        <path transform="matrix(0.02367988,-0.00389739,0.00381852,0.02416897,504.97436,-41.467874)" d="m 1237.6,525.97 c 0,0 -6.0453,8.4836 -7.9688,34.312 -1.2759,17.133 3.3041,63.816 6.5625,93.594 l -8.1563,18.063 c 0,0 -20.455,10.103 -25.406,15.812 -4.9509,5.7106 -3.8486,3.6402 -5,13.313 -1.1513,9.6721 6.9859,32.046 6.4062,43.125 -0.2101,4.0234 -5.8544,18.937 -12.906,36.25 -0.657,-0.9927 -1.24,-2.4768 -1.5625,-4.75 -1.0655,-7.5136 2,-8.2813 2,-8.2813 0,0 -1.2293,-21.8 -1.1875,-51.75 0.01,-7.0603 0.1979,-18.941 -0.1875,-33.531 -0.048,-1.8225 -0.088,-3.69 -0.1563,-5.5937 -0.4755,-13.326 -1.493,-28.498 -3.5312,-44.094 -3.4438,-26.352 -5.6177,-43.569 -17,-63.031 -11.3823,-19.462 -15.438,-28.688 -15.438,-28.688 0.047,0.1348 0.041,0.284 -0.031,0.4688 -0.034,0.086 -0.1291,0.2123 -0.1874,0.3124 -0.3424,-0.7264 -0.6563,-1.375 -0.6563,-1.375 0.7587,2.1578 -14.441,9.8902 -22.781,47.844 -9.5344,43.394 -0.5445,84.802 3.8438,122.5 4.3883,37.698 6.631,53.662 9.6875,81.969 1.3317,12.332 2.6544,26.708 3.7187,39.156 l -6.75,-7.1562 c 0,0 -8.9729,8.1099 -12.719,5.4374 -3.7457,-2.6721 2.8437,-14.5 2.8437,-14.5 l -7.625,10.125 -4.7812,-4.4062 3.0312,-14.312 -7.8124,9.9375 -4.7813,-4.4062 3.2187,-14.156 -8,9.7813 -4.7812,-4.4063 3.4062,-13.969 -8.1874,9.5937 -4.7813,-4.4063 3.625,-13.781 -8.4063,9.4062 -4.7812,-4.4062 3.8125,-13.594 -8.5937,9.2188 -4.7813,-4.4062 4,-13.438 -8.7813,9.0626 -4.7812,-4.4063 4.1875,-13.25 -8.9687,8.875 -4.7813,-4.4063 4.4063,-13.062 -9.1876,8.6874 -4.7812,-4.4062 4.5938,-12.875 -9.375,8.5 -4.7813,-4.4062 4.7813,-12.719 -9.5626,8.3438 -4.7812,-4.4063 4.9688,-12.531 -9.75,8.1563 -4.7813,-4.4063 5.1563,-12.344 -9.9376,7.9687 -4.7812,-4.4062 5.375,-12.156 -10.156,7.7812 -4.7813,-4.4062 5.5625,-12 -10.344,7.625 -4.7812,-4.4063 5.75,-11.812 -10.531,7.4375 -4.7813,-4.4063 5.9375,-11.625 -10.719,7.25 -4.7812,-4.4062 6.1562,-11.438 -10.937,7.0625 -4.7813,-4.4062 6.5937,-11.031 -22.375,-18.406 c 0,0 -5.3941,29.004 1.7813,41.219 5.606,9.5433 119.69,137.78 170.5,194.75 l -6.8437,-1.9062 c 0,0 -31.54,35.108 -31.969,36.156 -0.345,0.843 10.691,-2.3566 18.594,-5.9688 -4.205,4.1946 -6.8061,9.4978 -7.8126,16.063 -1.6842,10.996 3.3438,13.594 3.3438,13.594 0,0 4.3368,-13.59 10.375,-16.156 6.0383,-2.5661 14.67,-0.1764 18.594,6.375 3.9239,6.5527 2.5298,19.294 -1.1563,22.281 l -25.562,20.719 c -4.3602,3.5342 -15.713,4.6968 -17.156,-5.2187 l -52.063,-3.7813 c 0,0 10.589,14.345 17.281,19.188 11.312,8.1845 15.868,10.046 24.5,12.375 7.8875,2.1268 16.25,2.8608 24.219,1.25 9.7446,-1.9714 18.735,-7.7579 27.594,-13.094 17.505,-10.544 50.062,-37.125 50.062,-37.125 l -0.6875,-3.625 c 5.4928,2.6107 10.112,3.0212 28.5,1.6875 17.27,-1.2524 100.58,-72.359 145.28,-111.5 l 103.62,140.31 16.406,7.6875 1.8125,-1.2813 -1.9062,-19.437 -79.031,-112.44 c 3.5941,1.7437 6.3729,2.9846 7.5625,3.2813 6.595,1.6447 10.605,-1.8975 15.281,-4.2813 4.6767,-2.3835 14.688,-9.5312 14.688,-9.5312 0,0 1.4882,22.167 5.625,27.344 4.1363,5.1766 3.1155,4.8513 9.0312,3.9687 5.9157,-0.8827 19.781,-14.938 19.781,-14.938 0,0 0.9522,21.71 3.375,25.656 2.4232,3.9462 4.8854,4.7332 10.719,3.6563 5.8333,-1.0769 18.656,-13.531 18.656,-13.531 l 2.25,20.906 c 0,0 1.3404,5.1807 4.5,7.0313 3.1599,1.8502 6.3038,2.4088 11.875,-0.5626 5.5713,-2.9711 15.5,-18.906 15.5,-18.906 l -2.5312,-1.9375 -20.312,14.375 c 0,0 -0.4511,-22.143 -4.25,-27.375 -3.799,-5.2317 -3.1419,-4.7046 -9.0313,-3.9687 -5.889,0.7356 -18.906,14.406 -18.906,14.406 0,0 -2.0605,-20.836 -4.8125,-25.969 -2.752,-5.1326 -4.1299,-5.0244 -6.7812,-5.6562 -2.6509,-0.6319 -5.3437,1.6875 -5.3437,1.6875 0,0 -11.614,11.262 -15.25,14.688 -3.6362,3.425 -4.25,-25.885 -6.1875,-29.344 -1.9376,-3.4584 -2.6626,-4.5293 -9.0312,-3.9687 -6.3687,0.5606 -23.719,15.812 -23.719,15.812 l -10.469,-5.6562 5.8126,-21.906 c 5.794,-0.7156 11.301,-1.3518 15.281,-1.7813 13.91,-1.5005 78.025,-5.6769 104.5,-9.375 26.475,-3.6976 55.75,-14.156 55.75,-14.156 0,0 -21.294,-4.0171 -33.125,-5.875 -11.831,-1.858 -45.755,1.0777 -62.719,2.875 -16.963,1.7973 -82.371,4.5913 -90.844,4.8125 -2.5801,0.067 -6.6691,-0.5708 -11.094,-1.5 -0.8788,-5.4601 -1.7053,-10.7 -1.9688,-13 -0.6929,-6.0497 142.78,-115.19 142.78,-115.19 5e-4,0 -7.7527,-18.408 -14.656,-24.844 -6.9036,-6.4357 -15.02,-11.371 -24.844,-12.406 -9.2464,-0.9744 -9.5786,-3.5192 -27.031,5.9688 l 0.9062,-3.25 -68,-62.875 -31.812,-19.531 -14.219,14.188 17.281,25.625 36.438,17.781 c 0,0 13.175,8.709 14.156,17.813 0.9815,9.1025 -2.4906,14.392 -6.0625,18.562 -3.572,4.1703 -3.0625,3.5626 -3.0625,3.5626 l -8.4375,-8.25 -3.0625,10.812 8.75,8.5 c 0,0 8.0963,-10.067 11.969,-6.75 3.8715,3.3176 -4.1563,14.5 -4.1563,14.5 l 4,3.3126 c -29.313,23.517 -69.559,56.582 -109.44,89.656 l -14.062,-84.219 c 11.306,-30.469 29.272,-85.969 32.188,-105.75 3.9264,-26.64 0,-26.531 0,-26.531 l -42,87.844 -22.406,-94.344 z m 19.281,162.44 c 1.3301,1.2782 2.6428,2.7377 3.875,4.4375 8.3514,11.52 13.596,57.497 14.25,63.5 -22.822,18.952 -44.049,36.664 -63.469,52.938 l -3.8124,-13.688 -5.6563,-5.6562 c 0,0 22.344,-91.256 29.938,-95.969 6.0631,-3.763 17.658,-2.3403 24.875,-5.5625 z" inkscape:connector-curvature="0" style="opacity:0.5;fill:black;filter:url(#filter6018-3)" id="path5731-4" />
        <g id="original">
            <path id="path4320-8" style="fill:url(#linearGradient2900)" d="m 248.08,-86.729 -23.067,8.2737 c 0,0 -0.351,26.523 1.2038,39.656 0.7868,6.646 1.4145,13.523 4.0936,19.655 2.1911,5.0156 5.6191,9.5389 9.5192,13.379 4.268,4.2025 6.8193,6.2328 14.801,10.19 4.7222,2.3409 15.294,4.0118 15.294,4.0118 l -20.96,-28.436 c -5.1446,2.1745 -8.7977,-4.6388 -8.7633,-8.1837 l 0.20168,-20.769 c 0.0291,-2.9969 5.4311,-7.6458 9.9264,-7.3942 4.4953,0.25162 8.8014,4.4373 9.8358,8.644 1.0344,4.2067 -3.6912,10.765 -3.6912,10.765 0,0 3.0696,2.0719 7.5629,-2.2071 4.2126,-4.0117 5.5404,-9.3009 4.2009,-16.12 -0.47727,-2.4297 -0.90134,-4.9337 -1.9934,-7.156 -4.4613,-9.0787 -18.167,-24.308 -18.167,-24.308 z" sodipodi:nodetypes="ccaaasccsszzcssac" inkscape:transform-center-y="47.582617" inkscape:connector-curvature="0" inkscape:transform-center-x="0.6280464" transform="matrix(-0.02480561,-0.03341999,-0.02556095,0.02855656,539.49145,-13.72928)" />
            <path id="path4322-7" style="fill:url(#radialGradient3695)" inkscape:connector-curvature="0" d="m 226.82,-57.662 3.4884,36.628 c 0,0 2.4709,-5.6686 1.3081,-17.587 -1.1628,-11.919 -4.7965,-19.041 -4.7965,-19.041 z" transform="matrix(-0.02480561,-0.03341999,-0.02556095,0.02855656,539.49145,-13.72928)" />
            <path d="m 270.93,137.5 c 0,0 -2.9716,0.0466 2.7616,-9.8837 7.1221,-10.756 11.195,-18.52 15.846,-12.996 4.6512,5.5233 -18.608,22.88 -18.608,22.88 z" inkscape:connector-curvature="0" style="fill:none;stroke:black;stroke-width:1px;filter:url(#filter4838-1)" sodipodi:nodetypes="ccsc" id="path4326-1" transform="matrix(-0.00688551,-0.04358091,-0.03494673,0.00575178,540.75776,-11.530893)" />
            <path d="m 313.23,82.703 -4.1043,5.2767 c 0,0 2.2147,14.636 1.6333,24.084 -0.58139,9.4477 -1.3081,11.192 -3.7791,15.843 -2.4709,4.6512 -5.3779,16.279 -4.7965,15.988 0.5814,-0.2907 20.058,-21.657 20.058,-21.657 z" inkscape:connector-curvature="0" style="fill:none;stroke:white;stroke-width:1px;filter:url(#filter4842-7)" id="path4328-7" transform="matrix(-0.00688551,-0.04358091,-0.03494673,0.00575178,540.75776,-11.530893)" />
            <path id="path2997-2" sodipodi:nodetypes="czczcccc" style="fill:url(#linearGradient2902)" inkscape:connector-curvature="0" d="m 205.54,284.18 c 0,0 -2.2652,4.5803 -1.1825,17.206 1.0827,12.6257 13.957,57.105 13.957,57.105 0,0 6.1341,-0.76434 11.408,4.4916 5.2743,5.256 11.98,30.12 11.98,30.12 l 4.6841,-1.4771 -16.086,-47.709 z" transform="matrix(0.04902465,0,0,0.05003721,525.97555,-48.075284)" />
            <path d="m 1154,835.89 c 0,0 41.459,-93.325 42.039,-104.4 0.5795,-11.079 -7.5519,-33.471 -6.4006,-43.144 1.1514,-9.6721 0.062,-7.6068 5.0129,-13.317 4.9512,-5.7098 25.407,-15.809 25.407,-15.809 l 21.455,-47.427 9.0336,-1.1292 43.474,-90.901 c 0,0 3.9264,-0.10455 0,26.536 -3.9264,26.64055 -35.186,118.14 -40.651,125.91 -5.465,7.7683 -21.766,4.3211 -29.359,9.0336 -7.593,4.7125 -29.924,95.982 -29.924,95.982 l 5.6461,5.646 5.646,20.326 -49.685,39.522 z" inkscape:connector-curvature="0" style="fill:white" sodipodi:nodetypes="czzzcccczzzccccc" id="path5637-7" transform="matrix(0.02367988,-0.00389739,0.00381852,0.02416897,504.97436,-41.467874)" />
            <path inkscape:connector-curvature="0" style="fill:url(#linearGradient2904)" sodipodi:nodetypes="czzzcccczzzccccc" d="m 1154,835.89 c 0,0 41.459,-93.325 42.039,-104.4 0.5795,-11.079 -7.5519,-33.471 -6.4006,-43.144 1.1514,-9.6721 0.062,-7.6068 5.0129,-13.317 4.9512,-5.7098 25.407,-15.809 25.407,-15.809 l 21.455,-47.427 9.0336,-1.1292 43.474,-90.901 c 0,0 3.9264,-0.10455 0,26.536 -3.9264,26.64055 -35.186,118.14 -40.651,125.91 -5.465,7.7683 -21.766,4.3211 -29.359,9.0336 -7.593,4.7125 -29.924,95.982 -29.924,95.982 l 5.6461,5.646 5.646,20.326 -49.685,39.522 z" id="path2995-2" transform="matrix(0.02367988,-0.00389739,0.00381852,0.02416897,504.97436,-41.467874)" />
            <path transform="matrix(0.0268057,-0.02667284,-0.02613308,-0.02735935,522.99957,-19.880898)" inkscape:connector-curvature="0" sodipodi:nodetypes="ccccccc" d="m 445.42,-174.58 2.6722,-114.7 5.7555,-10.072 h 1.4389 l 6.1666,10.894 v 113.26 z" style="fill:url(#linearGradient2906)" id="path4254-2" />
            <path transform="matrix(0.0268057,-0.02667284,-0.02613308,-0.02735935,523.42195,-19.0307)" inkscape:connector-curvature="0" sodipodi:nodetypes="ccccccc" clip-path="url(#clipPath4611-0)" d="m 452.88,-150.77 2.6722,-114.7 5.7555,-10.072 h 1.4389 l 6.1666,10.894 v 113.26 z" style="fill:none;stroke:black;filter:url(#filter4603-3)" id="path4256-6" />
            <path d="m 390.26,-225.29 c 0,0 0.5814,7.9942 0.43605,14.68 -0.14535,6.686 3.0523,16.279 3.0523,16.279" inkscape:connector-curvature="0" style="fill:none;stroke:url(#radialGradient3697);stroke-width:2;stroke-linecap:round;stroke-linejoin:round;filter:url(#filter4619-2)" sodipodi:nodetypes="csc" id="path4258-1" transform="matrix(0.0268057,-0.02667284,-0.02613308,-0.02735935,526.74024,-19.548073)" />
            <path d="m 387.5,-220.2 c 0,0 -0.24664,8.1184 -0.87208,13.372 -0.72675,6.1047 -2.907,10.174 -2.907,10.174" inkscape:connector-curvature="0" style="fill:none;stroke:url(#radialGradient3699);stroke-width:2;stroke-linecap:round;stroke-linejoin:round;filter:url(#filter4633-6)" sodipodi:nodetypes="csc" id="path4260-0" transform="matrix(0.0268057,-0.02667284,-0.02613308,-0.02735935,526.74024,-19.548073)" />
            <path inkscape:connector-curvature="0" inkscape:transform-center-y="-55.232558" inkscape:transform-center-x="-43.023256" d="m 387.79,-110.76 c 0,0 13.663,-7.5581 17.151,-11.337 3.4884,-3.7791 29.942,-33.43 36.337,-41.57 6.3954,-8.1395 19.477,-24.128 25.291,-28.488 5.814,-4.3605 16.57,-11.919 16.57,-11.919 0,0 -7.8488,17.151 -17.442,30.233 -9.593,13.081 -34.884,42.733 -40.116,49.419 -5.2326,6.686 -17.151,22.674 -17.151,22.674 z" style="fill:url(#linearGradient2908)" id="path4304-6" transform="matrix(0.03171848,0.02407303,-0.02358588,0.0323736,524.58613,-33.89647)" />
            <path inkscape:connector-curvature="0" style="fill:url(#radialGradient3701)" d="m 460.72,-184.99 -24.088,28.947 c 0,0 10.892,-8.8946 14.985,-14.029 4.093,-5.1348 9.1035,-14.918 9.1035,-14.918 z" id="path4306-1" transform="matrix(0.03171848,0.02407303,-0.02358588,0.0323736,524.58613,-33.89647)" />
            <path id="path4308-5" style="opacity:0.5;fill:none;stroke:#3d3d3d;filter:url(#filter4684-8)" d="m 445.16,-168.31 c 0,0 13.67,-7.5451 17.162,-11.321 3.492,-3.7757 29.974,-33.402 36.377,-41.535 6.4031,-8.1334 19.5,-24.109 25.318,-28.464 5.8181,-4.3549 16.581,-11.903 16.581,-11.903 0,0 -7.8652,17.144 -17.471,30.216 -9.6055,13.072 -34.925,42.699 -40.164,49.38 -5.2389,6.681 -17.173,22.658 -17.173,22.658 z" clip-path="url(#clipPath4688-4)" inkscape:transform-center-x="-70.898947" inkscape:transform-center-y="-91.018898" inkscape:connector-curvature="0" transform="matrix(0.03174102,0.02404204,-0.02355552,0.03239661,521.40409,-33.396479)" />
            <path id="path4383-9" sodipodi:nodetypes="czzczzczzcczzccczzczzczzzccccc" style="fill:url(#linearGradient2910)" inkscape:connector-curvature="0" d="m 271.33,417.81 c 0,0 27.693,9.9569 31.007,10.238 3.3136,0.28073 4.9816,-1.7324 7.0547,-3.248 2.0732,-1.5156 6.3467,-5.7565 6.3467,-5.7565 0,0 2.457,10.597 4.8582,12.775 2.4012,2.1782 1.8826,2.0925 4.6713,1.2054 2.7887,-0.88711 8.3815,-8.7546 8.3815,-8.7546 0,0 2.1577,10.416 3.6354,12.133 1.4777,1.7173 2.7337,1.9116 5.4674,0.93709 2.7338,-0.97453 7.946,-7.9849 7.946,-7.9849 l 2.718,9.9146 c 0,0 1.0592,2.3979 2.7296,3.0456 1.6703,0.64768 3.2235,0.67298 5.683,-1.1962 2.4595,-1.86918 6.0168,-10.332 6.0168,-10.332 l -1.3677,-0.74694 -8.6982,8.5259 c 0,0 -1.9358,-10.666 -4.1782,-12.897 -2.2425,-2.2311 -1.884,-2.0196 -4.6713,-1.2054 -2.7873,0.81419 -8.0146,8.4275 -8.0146,8.4275 0,0 -2.6235,-9.9044 -4.3526,-12.169 -1.7291,-2.2649 -2.3826,-2.1007 -3.7124,-2.1994 -1.3298,-0.0987 -2.4474,1.2341 -2.4474,1.2341 0,0 -4.7303,6.3404 -6.2199,8.278 -1.4896,1.9376 -4.0814,-12.178 -5.2867,-13.697 -1.2053,-1.5197 -1.6387,-1.9722 -4.6713,-1.2054 -3.0326,0.76684 -10.223,9.4831 -10.223,9.4831 l -5.485,-1.9136 1.1246,-11.246 -11.544,-2.1838 z" transform="matrix(0.04902465,0,0,0.05003721,525.97555,-48.075284)" />
            <path id="path5665-4" d="m 166.34,297.81 c 0.53444,0.98259 -6.2102,5.9123 -7.2823,24.894 -1.2258,21.703 6.3393,40.993 11.395,58.861 5.056,17.867 7.3932,25.403 11.074,38.838 3.6812,13.435 8.2228,32.414 8.2228,32.414 l 22.402,-8.8722 -7.4358,-32.58 c 0,0 -1.8176,0.72081 -2.9174,-2.8252 -1.0998,-3.54601 0.31113,-4.1554 0.31113,-4.1554 0,0 -2.2919,-10.424 -4.6045,-24.893 -1.0902,-6.8222 -3.3221,-23.053 -8.349,-39.909 -3.716,-12.46 -6.1048,-20.6 -13.119,-29.114 -7.0138,-8.5142 -9.698,-12.658 -9.698,-12.658 z" sodipodi:nodetypes="cssscccscsssc" style="fill:white" inkscape:connector-curvature="0" transform="matrix(0.04902465,0,0,0.05003721,525.97555,-48.075284)" />
            <path inkscape:connector-curvature="0" style="opacity:0.60153;fill:url(#linearGradient2912)" sodipodi:nodetypes="cssscccscsssc" d="m 112.79,-81.395 c 1.3741,0.27481 4.7696,-9.6251 27.085,-17.953 25.514,-9.5214 51.404,-7.6287 74.659,-8.2101 23.256,-0.5814 33.14,-0.5814 50.581,-1.1628 17.442,-0.5814 41.837,-2.1909 41.837,-2.1909 l -2.302,30.098 -41.743,3.194 c 0,0 0.18793,-2.4423 -4.4632,-2.4423 -4.6512,0 -4.8567,1.9145 -4.8567,1.9145 0,0 -13.323,1.1261 -31.495,3.7292 -8.5678,1.2273 -28.817,4.5806 -50.851,4.8214 -16.288,0.17802 -26.914,0.34057 -39.705,-4.892 -12.791,-5.23257 -18.746,-6.9062 -18.746,-6.9062 z" id="path4270-9" transform="matrix(0.01159285,0.03814787,0.0373759,-0.0118323,535.8648,-38.439622)" />
            <path inkscape:connector-curvature="0" style="fill:#585856;filter:url(#filter5285-5)" sodipodi:nodetypes="cccc" d="m 255.92,-106.89 1.2333,26.414 2.3639,-0.30833 z" id="path4272-0" transform="matrix(0.01159285,0.03814787,0.0373759,-0.0118323,535.8648,-38.439622)" />
            <path inkscape:connector-curvature="0" style="fill:url(#radialGradient8642-3)" d="m 144.09,-98.981 38.233,-5.3444 c 0,0 -6.9888,4.3166 -15.828,5.55 -8.8388,1.2333 -22.405,-0.20556 -22.405,-0.20556 z" id="path4274-9" transform="matrix(0.01159285,0.03814787,0.0373759,-0.0118323,535.8648,-38.439622)" />
            <path transform="matrix(0.01159285,0.03814787,0.0373759,-0.0118323,538.39968,-40.71961)" inkscape:connector-curvature="0" sodipodi:nodetypes="cssscccscsssc" clip-path="url(#clipPath5373-2)" d="m 147.69,-160.65 c 1.3741,0.27481 4.7696,-9.625 27.085,-17.953 25.514,-9.5214 51.404,-7.6287 74.659,-8.2101 23.256,-0.5814 33.14,-0.5814 50.581,-1.1628 17.442,-0.5814 41.837,-2.1909 41.837,-2.1909 l -2.302,30.098 -41.743,3.194 c 0,0 0.18793,-2.4423 -4.4632,-2.4423 -4.6512,0 -4.8567,1.9145 -4.8567,1.9145 0,0 -13.323,1.1261 -31.495,3.7292 -8.5678,1.2273 -28.817,4.5806 -50.851,4.8214 -16.288,0.17802 -26.914,0.34058 -39.705,-4.892 -12.791,-5.23258 -18.746,-6.9062 -18.746,-6.9062 z" style="fill:none;stroke:url(#radialGradient3703);stroke-width:4;filter:url(#filter5359-6)" id="path4276-1" />
            <path inkscape:connector-curvature="0" style="fill:url(#linearGradient2914)" sodipodi:nodetypes="ccccccssccccsccc" d="m 505.52,-104.65 68.605,-2.6163 27.326,4.3605 1.1628,14.826 -22.093,6.1047 -29.07,-7.5581 c 0,0 -11.628,-1.4535 -16.57,3.1977 -4.9419,4.6512 -5.5232,9.3023 -5.5232,13.372 v 3.4884 l 8.7209,-0.5814 -3.4884,7.5581 -9.0116,0.5814 c 0,0 0.29069,-9.593 -3.4884,-9.593 -3.77909,0 -4.6512,10.174 -4.6512,10.174 l -31.977,-0.5814 z" id="path4346-7" transform="matrix(-0.02761608,-0.01721931,-0.01687085,0.02818646,553.39602,-20.665396)" />
            <path inkscape:connector-curvature="0" transform="matrix(-0.01472987,-0.02941019,-0.02881504,0.01503411,546.04189,-15.027501)" sodipodi:nodetypes="csc" d="m 508.95,-71.034 c 0,0 7.6921,1.5784 13.198,0.15958 7.6463,-1.9704 12.175,-5.8566 16.326,-11.453" style="opacity:0.53257;fill:none;stroke:url(#radialGradient3705);stroke-width:4;filter:url(#filter4150-7)" id="path4348-7" />
            <path d="m 976.34,564.92 c 0,0 -25.012,15.637 -29.157,29.184 -4.1445,13.547 -32.01,296.11 -32.01,296.11 l 58.709,1.0517 4.0294,-55.432 c 0,0 -12.039,-1.13 -12.604,-5.6966 -0.56482,-4.5665 12.604,-7.7211 12.604,-7.7211 l -12.604,1.2296 v -6.4915 l 12.604,-7.4562 -12.604,0.96462 v -6.4915 l 12.604,-7.1912 -12.604,0.69968 v -6.4915 l 12.604,-6.9263 -12.604,0.43475 v -6.4915 l 12.604,-6.6613 -12.604,0.16981 v -6.4915 l 12.604,-6.3964 -12.604,-0.0951 v -6.4915 l 12.604,-6.1315 -12.604,-0.36006 v -6.4915 l 12.604,-5.8665 -12.604,-0.62505 v -6.4915 l 12.604,-5.6016 -12.604,-0.88998 v -6.4915 l 12.604,-5.3366 -12.604,-1.155 v -6.4915 l 12.604,-5.0716 -12.604,-1.4199 v -6.4915 l 12.604,-4.8067 -12.604,-1.6848 v -6.4915 l 12.604,-4.5418 -12.604,-1.9498 v -6.4915 l 12.604,-4.2768 -12.604,-2.2147 v -6.4915 l 12.604,-4.0119 -12.604,-2.4796 v -6.4915 l 12.604,-3.747 -12.604,-2.7446 v -6.4915 l 12.604,-3.482 -12.604,-3.0095 v -6.4915 l 12.604,-3.2171 -12.604,-3.2744 v -6.4915 l 12.604,-2.6154 z" inkscape:connector-curvature="0" style="fill:white" sodipodi:nodetypes="czccczcccccccccccccccccccccccccccccccccccccccccccccccccccccccc" id="path5689-1" transform="matrix(0.01320282,-0.02043869,0.02002509,0.01347551,505.25332,-17.540576)" />
            <path inkscape:connector-curvature="0" style="opacity:0.602;fill:url(#linearGradient2916)" sodipodi:nodetypes="czccczcccccccccccccccccccccccccccccccccccccccccccccccccccccccc" d="m 976.34,564.92 c 0,0 -25.012,15.637 -29.157,29.184 -4.1445,13.547 -32.01,296.11 -32.01,296.11 l 58.709,1.0517 4.0294,-55.432 c 0,0 -12.039,-1.13 -12.604,-5.6966 -0.56482,-4.5665 12.604,-7.7211 12.604,-7.7211 l -12.604,1.2296 v -6.4915 l 12.604,-7.4562 -12.604,0.96462 v -6.4915 l 12.604,-7.1912 -12.604,0.69968 v -6.4915 l 12.604,-6.9263 -12.604,0.43475 v -6.4915 l 12.604,-6.6613 -12.604,0.16981 v -6.4915 l 12.604,-6.3964 -12.604,-0.0951 v -6.4915 l 12.604,-6.1315 -12.604,-0.36006 v -6.4915 l 12.604,-5.8665 -12.604,-0.62505 v -6.4915 l 12.604,-5.6016 -12.604,-0.88998 v -6.4915 l 12.604,-5.3366 -12.604,-1.155 v -6.4915 l 12.604,-5.0716 -12.604,-1.4199 v -6.4915 l 12.604,-4.8067 -12.604,-1.6848 v -6.4915 l 12.604,-4.5418 -12.604,-1.9498 v -6.4915 l 12.604,-4.2768 -12.604,-2.2147 v -6.4915 l 12.604,-4.0119 -12.604,-2.4796 v -6.4915 l 12.604,-3.747 -12.604,-2.7446 v -6.4915 l 12.604,-3.482 -12.604,-3.0095 v -6.4915 l 12.604,-3.2171 -12.604,-3.2744 v -6.4915 l 12.604,-2.6154 z" id="path2989-1" transform="matrix(0.01320282,-0.02043869,0.02002509,0.01347551,505.25332,-17.540576)" />
            <path transform="matrix(0.03537103,0.0170849,0.01673917,-0.03610159,527.24176,-33.407224)" inkscape:connector-curvature="0" sodipodi:nodetypes="cccc" d="m 255.92,-106.89 1.2333,26.414 2.3639,-0.30833 z" style="fill:#585856;filter:url(#filter5285-5)" id="path4807-5" />
            <path d="m 949.57,596.84 -5.4037,62.75 c 0,0 6.4288,-11.759 7.6744,-26.266 1.2456,-14.507 -2.2707,-36.485 -2.2707,-36.485 z" inkscape:connector-curvature="0" style="fill:url(#radialGradient8652-5)" id="path4809-9" transform="matrix(0.01320282,-0.02043869,0.02002509,0.01347551,505.25332,-17.540576)" />
            <path id="path6037-7" d="m 281.28,390.68 7.6134,17.766 c 0,0 36.507,-40.475 44.715,-51.53 8.2084,-11.055 0.54843,-30.954 0.54843,-30.954 l -56.808,55.063 z" sodipodi:nodetypes="cczccc" style="fill:url(#radialGradient3707)" inkscape:connector-curvature="0" transform="matrix(0.04902465,0,0,0.05003721,525.97555,-48.075284)" />
            <path id="path6027-7" sodipodi:nodetypes="cczccc" style="fill:url(#linearGradient2918)" inkscape:connector-curvature="0" d="m 281.28,390.68 7.6134,17.766 c 0,0 36.507,-40.475 44.715,-51.53 8.2084,-11.055 0.54843,-30.954 0.54843,-30.954 l -56.808,55.063 z" transform="matrix(0.04902465,0,0,0.05003721,525.97555,-48.075284)" />
            <path id="path7671-6" d="m 271.33,417.81 c 0,0 27.693,9.9569 31.007,10.238 3.3136,0.28073 4.9816,-1.7324 7.0547,-3.248 2.0732,-1.5156 6.3467,-5.7565 6.3467,-5.7565 0,0 2.457,10.597 4.8582,12.775 2.4012,2.1782 1.8826,2.0925 4.6713,1.2054 2.7887,-0.88711 8.3815,-8.7546 8.3815,-8.7546 0,0 2.1577,10.416 3.6354,12.133 1.4777,1.7173 2.7337,1.9116 5.4674,0.93709 2.7338,-0.97453 7.946,-7.9849 7.946,-7.9849 l 2.718,9.9146 c 0,0 1.0592,2.3979 2.7296,3.0456 1.6703,0.64768 3.2235,0.67298 5.683,-1.1962 2.4595,-1.86918 6.0168,-10.332 6.0168,-10.332 l -1.3677,-0.74694 -8.6982,8.5259 c 0,0 -1.9358,-10.666 -4.1782,-12.897 -2.2425,-2.2311 -1.884,-2.0196 -4.6713,-1.2054 -2.7873,0.81419 -8.0146,8.4275 -8.0146,8.4275 0,0 -2.6235,-9.9044 -4.3526,-12.169 -1.7291,-2.2649 -2.3826,-2.1007 -3.7124,-2.1994 -1.3298,-0.0987 -2.4474,1.2341 -2.4474,1.2341 0,0 -4.7303,6.3404 -6.2199,8.278 -1.4896,1.9376 -4.0814,-12.178 -5.2867,-13.697 -1.2053,-1.5197 -1.6387,-1.9722 -4.6713,-1.2054 -3.0326,0.76684 -10.223,9.4831 -10.223,9.4831 l -5.485,-1.9136 1.1246,-11.246 -11.544,-2.1838 z" sodipodi:nodetypes="czzczzczzcczzccczzczzczzzccccc" style="fill:url(#linearGradient2920)" inkscape:connector-curvature="0" transform="matrix(0.04902465,0,0,0.05003721,525.97555,-48.075284)" />
            <path id="path2987-7" sodipodi:nodetypes="zzzzczczzzz" style="fill:#c72d25" inkscape:connector-curvature="0" d="m 187.97,454.65 c 4.2375,-5.602 111.69,-129.65 120.88,-136.94 9.1929,-7.2957 9.2851,-5.9276 14.111,-6.1928 4.8259,-0.26518 9.1311,1.4937 12.967,4.0648 3.8359,2.5711 9.0256,10.856 9.0256,10.856 0,0 -60.812,63.889 -60.006,66.757 0.80595,2.8682 4.8978,14.879 4.8978,14.879 0,0 -62.481,77.495 -73.812,80.176 -11.33,2.6801 -11.808,2.1901 -16.715,0.45689 -4.9067,-1.7332 -8.1446,-3.8203 -11.031,-9.4134 -2.8868,-5.5931 -4.5534,-19.038 -0.31598,-24.64 z" transform="matrix(0.04902465,0,0,0.05003721,525.97555,-48.075284)" />
            <path id="path5693-3" style="fill:#cf453a;filter:url(#filter5719-8)" inkscape:connector-curvature="0" d="m 1450.8,617.84 c -17.69,3.7903 -31.697,17.158 -45.446,28.386 -87.277,69.988 -173.59,141.38 -258.46,214.43 -8.0385,13.453 -7.7753,31.308 -0.3125,44.844 11.659,15.341 35.789,15.189 50.125,3.5625 32.746,-22.089 62.654,-48.072 93.019,-73.363 19.174,-16.323 38.207,-33.062 56.981,-49.887 -1.6686,-11.182 -6.5954,-23.43 -1.625,-34.375 21.879,-23.972 49.557,-41.658 74.276,-62.577 20.93,-16.406 41.938,-32.695 63.068,-48.86 -5.5302,-12.123 -17.685,-22.813 -31.625,-22.156 z" transform="matrix(0.02367988,-0.00389739,0.00381852,0.02416897,504.97437,-41.467861)" />
            <path id="path4388-6" style="opacity:0.50192;fill:none;stroke:url(#radialGradient8660-8);stroke-width:3;filter:url(#filter3913-3)" d="m 248.84,2.0814 c 0,0 1.7442,5.5233 9.8837,7.2674 8.1395,1.7442 35.465,1.7442 35.465,1.7442" sodipodi:nodetypes="csc" inkscape:connector-curvature="0" transform="matrix(0.03077228,-0.03524121,0.03415989,0.03117618,528.26946,-15.233357)" />
            <path id="path4390-5" style="opacity:0.50192;fill:none;stroke:url(#radialGradient8662-4);stroke-width:3;filter:url(#filter3913-3)" d="m 191.86,126.74 c 0,0 1.7442,5.5233 9.8837,7.2674 8.1395,1.7442 62.791,0.87209 62.791,0.87209" sodipodi:nodetypes="csc" transform="matrix(0.03077228,-0.03524121,-0.03415989,-0.03117618,533.84597,-13.970928)" inkscape:connector-curvature="0" />
            <path id="path4392-6" style="opacity:0.61303;fill:none;stroke:url(#radialGradient3709);stroke-width:2;stroke-linecap:round;filter:url(#filter3923-6)" d="m 290.41,-25.535 154.94,-0.5814" sodipodi:nodetypes="cc" inkscape:connector-curvature="0" transform="matrix(0.03077228,-0.03524121,0.03415989,0.03117618,528.26946,-15.233357)" />
            <path id="path4394-3" style="opacity:0.7;fill:none;stroke:url(#radialGradient3711);stroke-width:2;filter:url(#filter3979-6)" d="m 445.35,-26.116 c 14.451,-4.6356 29.353,8.6607 23.844,24.667" sodipodi:nodetypes="cc" inkscape:connector-curvature="0" transform="matrix(0.03077228,-0.03524121,0.03415989,0.03117618,528.26946,-15.233357)" />
            <circle r="8.7715759" cy="604.36206" cx="236.83255" transform="matrix(0.0220253,-0.01078152,0.01056334,0.02248022,525.33389,-41.593778)" style="fill:#4d4d4d;filter:url(#filter8490-9)" id="path7687-9" />
            <path inkscape:connector-curvature="0" style="fill:url(#linearGradient2922)" d="m 241.57,611.59 c -4.1388,0 -7.6085,2.8627 -8.5312,6.7188 h 17.062 c -0.92279,-3.856 -4.3924,-6.7188 -8.5312,-6.7188 z m -8.4062,11.25 c 1.0719,3.6335 4.4254,6.2812 8.4062,6.2812 3.9808,0 7.3343,-2.6477 8.4062,-6.2812 h -16.812 z" id="path7681-4" transform="matrix(0.0220253,-0.01078152,0.01056334,0.02248022,525.0606,-41.902191)" />
        </g>
        <g id="2d">
            <path transform="matrix(-0.02480561,-0.03341999,-0.02556095,0.02855656,556.33132,-13.614014)" inkscape:transform-center-x="0.6280464" inkscape:connector-curvature="0" inkscape:transform-center-y="47.582617" sodipodi:nodetypes="ccaaasccsszzcssac" d="m 248.08,-86.729 -23.067,8.2737 c 0,0 -0.351,26.523 1.2038,39.656 0.7868,6.646 1.4145,13.523 4.0936,19.655 2.1911,5.0156 5.6191,9.5389 9.5192,13.379 4.268,4.2025 6.8193,6.2328 14.801,10.19 4.7222,2.3409 15.294,4.0118 15.294,4.0118 l -20.96,-28.436 c -5.1446,2.1745 -8.7977,-4.6388 -8.7633,-8.1837 l 0.20168,-20.769 c 0.0291,-2.9969 5.4311,-7.6458 9.9264,-7.3942 4.4953,0.25162 8.8014,4.4373 9.8358,8.644 1.0344,4.2067 -3.6912,10.765 -3.6912,10.765 0,0 3.0696,2.0719 7.5629,-2.2071 4.2126,-4.0117 5.5404,-9.3009 4.2009,-16.12 -0.47727,-2.4297 -0.90134,-4.9337 -1.9934,-7.156 -4.4613,-9.0787 -18.167,-24.308 -18.167,-24.308 z" style="fill:#b8b8b7;fill-opacity:1;stroke:#616261;stroke-width:0.341356;stroke-miterlimit:4;stroke-dasharray:none;stroke-opacity:1" id="path3571" />
            <path transform="matrix(-0.02480561,-0.03341999,-0.02556095,0.02855656,556.33132,-13.614014)" d="m 226.82,-57.662 3.4884,36.628 c 0,0 2.4709,-5.6686 1.3081,-17.587 -1.1628,-11.919 -4.7965,-19.041 -4.7965,-19.041 z" inkscape:connector-curvature="0" style="fill:#4b4c4c;fill-opacity:1" id="path3573" />
            <path transform="matrix(0.04902465,0,0,0.05003721,542.81542,-47.960018)" d="m 205.54,284.18 c 0,0 -2.2652,4.5803 -1.1825,17.206 1.0827,12.6257 13.957,57.105 13.957,57.105 0,0 6.1341,-0.76434 11.408,4.4916 5.2743,5.256 11.98,30.12 11.98,30.12 l 4.6841,-1.4771 -16.086,-47.709 z" inkscape:connector-curvature="0" style="fill:#8f8f8c;fill-opacity:1" sodipodi:nodetypes="czczcccc" id="path3579" />
            <path transform="matrix(0.02367988,-0.00389739,0.00381852,0.02416897,521.81423,-41.352608)" id="path3583" d="m 1154,835.89 c 0,0 41.459,-93.325 42.039,-104.4 0.5795,-11.079 -7.5519,-33.471 -6.4006,-43.144 1.1514,-9.6721 0.062,-7.6068 5.0129,-13.317 4.9512,-5.7098 25.407,-15.809 25.407,-15.809 l 21.455,-47.427 9.0336,-1.1292 43.474,-90.901 c 0,0 3.9264,-0.10455 0,26.536 -3.9264,26.64055 -35.186,118.14 -40.651,125.91 -5.465,7.7683 -21.766,4.3211 -29.359,9.0336 -7.593,4.7125 -29.924,95.982 -29.924,95.982 l 5.6461,5.646 5.646,20.326 -49.685,39.522 z" sodipodi:nodetypes="czzzcccczzzccccc" style="fill:#b3b4b0;fill-opacity:1" inkscape:connector-curvature="0" />
            <path id="path3585" style="fill:#8f8f8c;fill-opacity:1" d="m 445.42,-174.58 2.6722,-114.7 5.7555,-10.072 h 1.4389 l 6.1666,10.894 v 113.26 z" sodipodi:nodetypes="ccccccc" inkscape:connector-curvature="0" transform="matrix(0.0268057,-0.02667284,-0.02613308,-0.02735935,539.83944,-19.765632)" />
            <path transform="matrix(0.02447863,-0.02551007,-0.0238644,-0.02616665,544.93726,-19.658868)" id="path3589" sodipodi:nodetypes="csc" style="mix-blend-mode:normal;fill:#676767;fill-opacity:1;stroke:#3d3d3d;stroke-width:2;stroke-linecap:round;stroke-linejoin:round;stroke-opacity:1" inkscape:connector-curvature="0" d="m 390.26,-225.29 c 0,0 0.5814,7.9942 0.43605,14.68 -0.14535,6.686 3.0523,16.279 3.0523,16.279" />
            <path transform="matrix(0.0268057,-0.02667284,-0.02613308,-0.02735935,543.58011,-19.432807)" id="path3591" sodipodi:nodetypes="csc" style="fill:none;fill-opacity:1;stroke:#3d3d3d;stroke-width:2;stroke-linecap:round;stroke-linejoin:round;stroke-opacity:1" inkscape:connector-curvature="0" d="m 387.5,-220.2 c 0,0 -0.24664,8.1184 -0.87208,13.372 -0.72675,6.1047 -2.907,10.174 -2.907,10.174" />
            <path transform="matrix(0.03171848,0.02407303,-0.02358588,0.0323736,541.426,-33.781204)" id="path3593" style="fill:#d5d5d5;fill-opacity:1" d="m 387.79,-110.76 c 0,0 13.663,-7.5581 17.151,-11.337 3.4884,-3.7791 29.942,-33.43 36.337,-41.57 6.3954,-8.1395 19.477,-24.128 25.291,-28.488 5.814,-4.3605 16.57,-11.919 16.57,-11.919 0,0 -7.8488,17.151 -17.442,30.233 -9.593,13.081 -34.884,42.733 -40.116,49.419 -5.2326,6.686 -17.151,22.674 -17.151,22.674 z" inkscape:transform-center-x="-43.023256" inkscape:transform-center-y="-55.232558" inkscape:connector-curvature="0" />
            <path transform="matrix(0.03171848,0.02407303,-0.02358588,0.0323736,541.426,-33.781204)" id="path3595" d="m 460.72,-184.99 -24.088,28.947 c 0,0 10.892,-8.8946 14.985,-14.029 4.093,-5.1348 9.1035,-14.918 9.1035,-14.918 z" style="fill:#696966;fill-opacity:1" inkscape:connector-curvature="0" />
            <path transform="matrix(0.04902465,0,0,0.05003721,542.81542,-47.960018)" d="m 271.33,417.81 c 0,0 27.693,9.9569 31.007,10.238 3.3136,0.28073 4.9816,-1.7324 7.0547,-3.248 2.0732,-1.5156 6.3467,-5.7565 6.3467,-5.7565 0,0 2.457,10.597 4.8582,12.775 2.4012,2.1782 1.8826,2.0925 4.6713,1.2054 2.7887,-0.88711 8.3815,-8.7546 8.3815,-8.7546 0,0 2.1577,10.416 3.6354,12.133 1.4777,1.7173 2.7337,1.9116 5.4674,0.93709 2.7338,-0.97453 7.946,-7.9849 7.946,-7.9849 l 2.718,9.9146 c 0,0 1.0592,2.3979 2.7296,3.0456 1.6703,0.64768 3.2235,0.67298 5.683,-1.1962 2.4595,-1.86918 6.0168,-10.332 6.0168,-10.332 l -1.3677,-0.74694 -8.6982,8.5259 c 0,0 -1.9358,-10.666 -4.1782,-12.897 -2.2425,-2.2311 -1.884,-2.0196 -4.6713,-1.2054 -2.7873,0.81419 -8.0146,8.4275 -8.0146,8.4275 0,0 -2.6235,-9.9044 -4.3526,-12.169 -1.7291,-2.2649 -2.3826,-2.1007 -3.7124,-2.1994 -1.3298,-0.0987 -2.4474,1.2341 -2.4474,1.2341 0,0 -4.7303,6.3404 -6.2199,8.278 -1.4896,1.9376 -4.0814,-12.178 -5.2867,-13.697 -1.2053,-1.5197 -1.6387,-1.9722 -4.6713,-1.2054 -3.0326,0.76684 -10.223,9.4831 -10.223,9.4831 l -5.485,-1.9136 1.1246,-11.246 -11.544,-2.1838 z" inkscape:connector-curvature="0" style="fill:#919191;fill-opacity:1" sodipodi:nodetypes="czzczzczzcczzccczzczzczzzccccc" id="path3599" />
            <path transform="matrix(0.01159285,0.03814787,0.0373759,-0.0118323,552.70467,-38.324356)" id="path3603" d="m 112.79,-81.395 c 1.3741,0.27481 4.7696,-9.6251 27.085,-17.953 25.514,-9.5214 51.404,-7.6287 74.659,-8.2101 23.256,-0.5814 33.14,-0.5814 50.581,-1.1628 17.442,-0.5814 41.837,-2.1909 41.837,-2.1909 l -2.302,30.098 -41.743,3.194 c 0,0 0.18793,-2.4423 -4.4632,-2.4423 -4.6512,0 -4.8567,1.9145 -4.8567,1.9145 0,0 -13.323,1.1261 -31.495,3.7292 -8.5678,1.2273 -28.817,4.5806 -50.851,4.8214 -16.288,0.17802 -26.914,0.34057 -39.705,-4.892 -12.791,-5.23257 -18.746,-6.9062 -18.746,-6.9062 z" sodipodi:nodetypes="cssscccscsssc" style="opacity:0.60153;fill:#bdbfb5;fill-opacity:1" inkscape:connector-curvature="0" />
            <path transform="matrix(0.01159285,0.03814787,0.0373759,-0.0118323,552.70467,-38.324356)" id="path3605" d="m 255.92,-106.89 1.2333,26.414 2.3639,-0.30833 z" sodipodi:nodetypes="cccc" style="fill:#585856;filter:url(#filter5285-5)" inkscape:connector-curvature="0" />
            <path transform="matrix(0.01159285,0.03814787,0.0373759,-0.0118323,552.70467,-38.324356)" id="path3607" d="m 144.09,-98.981 38.233,-5.3444 c 0,0 -6.9888,4.3166 -15.828,5.55 -8.8388,1.2333 -22.405,-0.20556 -22.405,-0.20556 z" style="fill:url(#radialGradient3671)" inkscape:connector-curvature="0" />
            <path id="path3609" style="fill:none;stroke:url(#radialGradient3669);stroke-width:4;filter:url(#filter5359-6)" d="m 147.69,-160.65 c 1.3741,0.27481 4.7696,-9.625 27.085,-17.953 25.514,-9.5214 51.404,-7.6287 74.659,-8.2101 23.256,-0.5814 33.14,-0.5814 50.581,-1.1628 17.442,-0.5814 41.837,-2.1909 41.837,-2.1909 l -2.302,30.098 -41.743,3.194 c 0,0 0.18793,-2.4423 -4.4632,-2.4423 -4.6512,0 -4.8567,1.9145 -4.8567,1.9145 0,0 -13.323,1.1261 -31.495,3.7292 -8.5678,1.2273 -28.817,4.5806 -50.851,4.8214 -16.288,0.17802 -26.914,0.34058 -39.705,-4.892 -12.791,-5.23258 -18.746,-6.9062 -18.746,-6.9062 z" clip-path="url(#clipPath5373-2)" sodipodi:nodetypes="cssscccscsssc" inkscape:connector-curvature="0" transform="matrix(0.01159285,0.03814787,0.0373759,-0.0118323,555.23955,-40.604344)" />
            <path transform="matrix(-0.02761608,-0.01721931,-0.01687085,0.02818646,570.23589,-20.55013)" id="path3611" d="m 505.52,-104.65 68.605,-2.6163 27.326,4.3605 1.1628,14.826 -22.093,6.1047 -29.07,-7.5581 c 0,0 -11.628,-1.4535 -16.57,3.1977 -4.9419,4.6512 -5.5232,9.3023 -5.5232,13.372 v 3.4884 l 8.7209,-0.5814 -3.4884,7.5581 -9.0116,0.5814 c 0,0 0.29069,-9.593 -3.4884,-9.593 -3.77909,0 -4.6512,10.174 -4.6512,10.174 l -31.977,-0.5814 z" sodipodi:nodetypes="ccccccssccccsccc" style="fill:#d8d8d4;fill-opacity:1" inkscape:connector-curvature="0" />
            <path id="path3613" style="opacity:1;fill:none;stroke:#6c6c6c;stroke-width:4;stroke-opacity:1" d="m 508.95,-71.034 c 0,0 7.6921,1.5784 13.198,0.15958 7.6463,-1.9704 12.175,-5.8566 16.326,-11.453" sodipodi:nodetypes="csc" transform="matrix(-0.01472987,-0.02941019,-0.02881504,0.01503411,562.88176,-14.912235)" inkscape:connector-curvature="0" />
            <path transform="matrix(0.01320282,-0.02043869,0.02002509,0.01347551,522.09319,-17.42531)" id="path3617" d="m 976.34,564.92 c 0,0 -25.012,15.637 -29.157,29.184 -4.1445,13.547 -32.01,296.11 -32.01,296.11 l 58.709,1.0517 4.0294,-55.432 c 0,0 -12.039,-1.13 -12.604,-5.6966 -0.56482,-4.5665 12.604,-7.7211 12.604,-7.7211 l -12.604,1.2296 v -6.4915 l 12.604,-7.4562 -12.604,0.96462 v -6.4915 l 12.604,-7.1912 -12.604,0.69968 v -6.4915 l 12.604,-6.9263 -12.604,0.43475 v -6.4915 l 12.604,-6.6613 -12.604,0.16981 v -6.4915 l 12.604,-6.3964 -12.604,-0.0951 v -6.4915 l 12.604,-6.1315 -12.604,-0.36006 v -6.4915 l 12.604,-5.8665 -12.604,-0.62505 v -6.4915 l 12.604,-5.6016 -12.604,-0.88998 v -6.4915 l 12.604,-5.3366 -12.604,-1.155 v -6.4915 l 12.604,-5.0716 -12.604,-1.4199 v -6.4915 l 12.604,-4.8067 -12.604,-1.6848 v -6.4915 l 12.604,-4.5418 -12.604,-1.9498 v -6.4915 l 12.604,-4.2768 -12.604,-2.2147 v -6.4915 l 12.604,-4.0119 -12.604,-2.4796 v -6.4915 l 12.604,-3.747 -12.604,-2.7446 v -6.4915 l 12.604,-3.482 -12.604,-3.0095 v -6.4915 l 12.604,-3.2171 -12.604,-3.2744 v -6.4915 l 12.604,-2.6154 z" sodipodi:nodetypes="czccczcccccccccccccccccccccccccccccccccccccccccccccccccccccccc" style="opacity:0.602;fill:#4c4e43;fill-opacity:1" inkscape:connector-curvature="0" />
            <path id="path3619" style="fill:#585856" d="m 255.92,-106.89 1.2333,26.414 2.3639,-0.30833 z" sodipodi:nodetypes="cccc" inkscape:connector-curvature="0" transform="matrix(0.03537103,0.0170849,0.01673917,-0.03610159,544.08163,-33.291958)" />
            <path transform="matrix(0.01320282,-0.02043869,0.02002509,0.01347551,522.09319,-17.42531)" id="path3621" style="fill:#3d3d3d;fill-opacity:1" inkscape:connector-curvature="0" d="m 949.57,596.84 -5.4037,62.75 c 0,0 6.4288,-11.759 7.6744,-26.266 1.2456,-14.507 -2.2707,-36.485 -2.2707,-36.485 z" />
            <path transform="matrix(0.04902465,0,0,0.05003721,542.81542,-47.960018)" d="m 281.28,390.68 7.6134,17.766 c 0,0 36.507,-40.475 44.715,-51.53 8.2084,-11.055 0.54843,-30.954 0.54843,-30.954 l -56.808,55.063 z" inkscape:connector-curvature="0" style="fill:#bfc1b7;fill-opacity:1" sodipodi:nodetypes="cczccc" id="path3625" />
            <path transform="matrix(0.04902465,0,0,0.05003721,542.81542,-47.960018)" inkscape:connector-curvature="0" style="fill:#414242;fill-opacity:1" sodipodi:nodetypes="czzczzczzcczzccczzczzczzzccccc" d="m 271.33,417.81 c 0,0 27.693,9.9569 31.007,10.238 3.3136,0.28073 4.9816,-1.7324 7.0547,-3.248 2.0732,-1.5156 6.3467,-5.7565 6.3467,-5.7565 0,0 2.457,10.597 4.8582,12.775 2.4012,2.1782 1.8826,2.0925 4.6713,1.2054 2.7887,-0.88711 8.3815,-8.7546 8.3815,-8.7546 0,0 2.1577,10.416 3.6354,12.133 1.4777,1.7173 2.7337,1.9116 5.4674,0.93709 2.7338,-0.97453 7.946,-7.9849 7.946,-7.9849 l 2.718,9.9146 c 0,0 1.0592,2.3979 2.7296,3.0456 1.6703,0.64768 3.2235,0.67298 5.683,-1.1962 2.4595,-1.86918 6.0168,-10.332 6.0168,-10.332 l -1.3677,-0.74694 -8.6982,8.5259 c 0,0 -1.9358,-10.666 -4.1782,-12.897 -2.2425,-2.2311 -1.884,-2.0196 -4.6713,-1.2054 -2.7873,0.81419 -8.0146,8.4275 -8.0146,8.4275 0,0 -2.6235,-9.9044 -4.3526,-12.169 -1.7291,-2.2649 -2.3826,-2.1007 -3.7124,-2.1994 -1.3298,-0.0987 -2.4474,1.2341 -2.4474,1.2341 0,0 -4.7303,6.3404 -6.2199,8.278 -1.4896,1.9376 -4.0814,-12.178 -5.2867,-13.697 -1.2053,-1.5197 -1.6387,-1.9722 -4.6713,-1.2054 -3.0326,0.76684 -10.223,9.4831 -10.223,9.4831 l -5.485,-1.9136 1.1246,-11.246 -11.544,-2.1838 z" id="path3627" />
            <path transform="matrix(0.04902465,0,0,0.05003721,542.81542,-47.960018)" d="m 187.97,454.65 c 4.2375,-5.602 111.69,-129.65 120.88,-136.94 9.1929,-7.2957 9.2851,-5.9276 14.111,-6.1928 4.8259,-0.26518 9.1311,1.4937 12.967,4.0648 3.8359,2.5711 9.0256,10.856 9.0256,10.856 0,0 -60.812,63.889 -60.006,66.757 0.80595,2.8682 4.8978,14.879 4.8978,14.879 0,0 -62.481,77.495 -73.812,80.176 -11.33,2.6801 -11.808,2.1901 -16.715,0.45689 -4.9067,-1.7332 -8.1446,-3.8203 -11.031,-9.4134 -2.8868,-5.5931 -4.5534,-19.038 -0.31598,-24.64 z" inkscape:connector-curvature="0" style="fill:#c72d25" sodipodi:nodetypes="zzzzczczzzz" id="path3629" />
            <path transform="matrix(0.02367988,-0.00389739,0.00381852,0.02416897,521.81424,-41.352595)" d="m 1450.8,617.84 c -17.69,3.7903 -31.697,17.158 -45.446,28.386 -87.277,69.988 -173.59,141.38 -258.46,214.43 -8.0385,13.453 -7.7753,31.308 -0.3125,44.844 11.659,15.341 35.789,15.189 50.125,3.5625 32.746,-22.089 62.654,-48.072 93.019,-73.363 19.174,-16.323 38.207,-33.062 56.981,-49.887 -1.6686,-11.182 -6.5954,-23.43 -1.625,-34.375 21.879,-23.972 49.557,-41.658 74.276,-62.577 20.93,-16.406 41.938,-32.695 63.068,-48.86 -5.5302,-12.123 -17.685,-22.813 -31.625,-22.156 z" inkscape:connector-curvature="0" style="fill:#cf453a" id="path3631" />
            <path transform="matrix(0.03077228,-0.03524121,0.03415989,0.03117618,545.10933,-15.118091)" inkscape:connector-curvature="0" sodipodi:nodetypes="csc" d="m 248.84,2.0814 c 0,0 1.7442,5.5233 9.8837,7.2674 8.1395,1.7442 35.465,1.7442 35.465,1.7442" style="opacity:0.50192;fill:none;stroke:white;stroke-width:3;stroke-opacity:1" id="path3633" />
            <path inkscape:connector-curvature="0" transform="matrix(0.03077228,-0.03524121,-0.03415989,-0.03117618,550.68584,-13.855662)" sodipodi:nodetypes="csc" d="m 191.86,126.74 c 0,0 1.7442,5.5233 9.8837,7.2674 8.1395,1.7442 62.791,0.87209 62.791,0.87209" style="opacity:0.50192;fill:none;stroke:white;stroke-width:3;stroke-opacity:1" id="path3635" />
            <path transform="matrix(0.03077228,-0.03524121,0.03415989,0.03117618,545.10933,-15.118091)" inkscape:connector-curvature="0" sodipodi:nodetypes="cc" d="m 290.41,-25.535 154.94,-0.5814" style="opacity:0.61303;fill:none;stroke:white;stroke-width:2;stroke-linecap:round;stroke-opacity:1" id="path3637" />
            <path transform="matrix(0.03077228,-0.03524121,0.03415989,0.03117618,545.10933,-15.118091)" inkscape:connector-curvature="0" sodipodi:nodetypes="cc" d="m 445.35,-26.116 c 14.451,-4.6356 29.353,8.6607 23.844,24.667" style="opacity:0.7;fill:none;stroke:#fbfbfb;stroke-width:2;stroke-opacity:1" id="path3639" />
            <circle id="circle3641" style="fill:#4d4d4d" transform="matrix(0.0220253,-0.01078152,0.01056334,0.02248022,542.17376,-41.478512)" cx="236.83255" cy="604.36206" r="8.7715759" />
            <path transform="matrix(0.0220253,-0.01078152,0.01056334,0.02248022,541.90047,-41.786925)" id="path3643" d="m 241.57,611.59 c -4.1388,0 -7.6085,2.8627 -8.5312,6.7188 h 17.062 c -0.92279,-3.856 -4.3924,-6.7188 -8.5312,-6.7188 z m -8.4062,11.25 c 1.0719,3.6335 4.4254,6.2812 8.4062,6.2812 3.9808,0 7.3343,-2.6477 8.4062,-6.2812 h -16.812 z" style="fill:#dfe0db;fill-opacity:1" inkscape:connector-curvature="0" />
        </g>
    </g>
</svg>
