<?xml version="1.0" encoding="UTF-8" standalone="no"?>
<svg
     xmlns:dc="http://purl.org/dc/elements/1.1/"
     xmlns:cc="http://creativecommons.org/ns#"
     xmlns:rdf="http://www.w3.org/1999/02/22-rdf-syntax-ns#"
     xmlns:svg="http://www.w3.org/2000/svg"
     xmlns="http://www.w3.org/2000/svg"
     xmlns:sodipodi="http://sodipodi.sourceforge.net/DTD/sodipodi-0.dtd"
     xmlns:inkscape="http://www.inkscape.org/namespaces/inkscape"
     inkscape:version="1.1-dev (1:0.92.0+devel+202003241343+2742de5)"
     sodipodi:docname="wolf2.svg"
     id="svg5"
     width="74.59"
     viewBox="-694.2 -55.51 37.3 35.38"
     version="1.1"
     height="70.81">
    <metadata
         id="metadata9">
        <rdf:RDF>
            <cc:Work
                 rdf:about="">
                <dc:format>image/svg+xml</dc:format>
                <dc:type
                     rdf:resource="http://purl.org/dc/dcmitype/StillImage" />
            </cc:Work>
        </rdf:RDF>
    </metadata>
    <sodipodi:namedview
         inkscape:current-layer="svg5"
         inkscape:window-maximized="1"
         inkscape:window-y="27"
         inkscape:window-x="0"
         inkscape:cy="31.86"
         inkscape:cx="51.22"
         inkscape:zoom="11.66"
         showgrid="false"
         id="namedview7"
         inkscape:window-height="983"
         inkscape:window-width="1920"
         inkscape:pageshadow="2"
         inkscape:pageopacity="0"
         guidetolerance="10"
         gridtolerance="10"
         objecttolerance="10"
         borderopacity="1"
         bordercolor="#666666"
         pagecolor="#ffffff" />
    <defs
         id="defs2" />
    <path
         style="fill:none;stroke:#000000;stroke-width:0.1;stroke-opacity:1;stroke-miterlimit:4;stroke-dasharray:none"
         id="path7560"
         d="m -687.8,-20.77 c 0,-0.15 0.1,-0.27 0.3,-0.39 0,0 0.2,-0.15 0.2,-0.21 l 0.1,-0.11 0.1,-0.29 c 0,-0.17 -0.1,-0.5 -0.1,-0.72 -0.1,-0.51 -0.1,-0.57 0.2,-0.86 0.7,-0.73 1,-2.32 1,-4.4 0,-0.42 0,-0.81 0,-0.87 l 0.1,-0.12 0.2,-0.18 c 0.2,-0.1 0.4,-0.3 0.6,-0.47 l 0.2,-0.31 0.3,-0.37 0.1,-0.38 0.2,-0.5 c 0,-0.28 0.1,-0.57 0.1,-0.64 0,-0.1 0.1,-0.24 0.1,-0.4 v -0.28 0 h -0.1 v 0.1 c -0.1,0.11 -0.2,0.23 -0.3,0.54 l -0.1,0.17 v -0.1 c 0,0 -0.1,-0.15 -0.1,-0.26 0,-0.36 -0.2,-0.13 -0.3,0.43 0,0.22 -0.1,0.42 -0.2,0.47 v 0.1 -0.25 -0.23 0 c -0.1,0 -0.3,0.29 -0.5,0.63 l -0.4,0.6 v -0.17 c 0,-0.1 -0.1,-0.18 -0.1,-0.2 h -0.1 l -0.3,0.4 c -0.4,0.41 -0.5,0.45 -0.4,0.2 0.1,-0.19 0.1,-0.33 0,-0.42 v -0.1 l -0.1,0.1 c -0.1,0 -0.2,0.15 -0.4,0.27 -0.7,0.58 -0.8,0.65 -0.6,0.35 v -0.21 0 0 l -0.4,0.2 c -0.5,0.23 -0.5,0.23 -0.5,0.1 v -0.12 0 c -0.1,0 -0.2,0.1 -0.3,0.11 -0.2,0.1 -0.3,0.1 -0.2,-0.1 0.1,-0.17 0.2,-0.16 -1.1,-0.1 -0.3,0 -0.5,0 -0.5,0 h -0.2 l 0.1,-0.1 0.1,-0.1 v -0.25 -0.17 h -0.2 -0.3 v -0.17 l -0.1,-0.17 v -0.1 l -0.1,-0.1 h -0.3 -0.2 v -0.17 -0.17 h -0.1 c 0,0 -0.1,0 -0.2,-0.1 -0.1,0 -0.7,-0.32 -0.6,-0.35 0,0 0,0 0.1,0 0.2,0 0,-0.22 -0.4,-0.55 -0.1,-0.1 -0.2,-0.18 -0.2,-0.23 v -0.1 h 0.3 c 0.5,0 0.9,0.1 1.4,0.19 0.2,0 0.6,0.11 0.8,0.13 l 0.5,0.1 0.4,-0.1 h 0.5 l 0.3,-0.13 c 1.1,-0.39 2.2,-1.29 3.4,-2.82 0.1,-0.13 0.2,-0.27 0.3,-0.34 0.1,-0.14 0.2,-0.29 0.1,-0.4 v -0.1 0 c 0.1,0 0.2,0 0.2,0 h 0.2 v -0.1 c 0,0 0,-0.13 0,-0.19 l -0.1,-0.13 0.3,-0.13 0.3,-0.14 v -0.1 -0.1 l -0.3,-0.11 -0.2,-0.1 0.2,-0.1 c 0.4,-0.16 0.7,-0.3 1,-0.55 l 0.3,-0.23 0.2,-0.24 0.1,-0.25 0.3,-0.1 c 0.3,-0.1 0.7,-0.37 1,-0.6 l 0.2,-0.2 0.4,-0.21 c 0.2,-0.11 0.6,-0.32 0.8,-0.46 l 0.3,-0.25 0.4,-0.1 c 0.3,-0.1 0.4,-0.1 1.5,-0.2 1.2,-0.12 1.8,-0.32 2.4,-0.74 0.1,-0.11 0.3,-0.25 0.5,-0.32 0.1,-0.1 0.4,-0.22 0.5,-0.34 0.1,-0.11 0.3,-0.24 0.4,-0.28 0,0 0.2,-0.21 0.4,-0.37 l 0.4,-0.31 0.4,-0.21 0.4,-0.21 0.3,-0.1 h 0.2 l 0.3,-0.31 c 0.1,-0.18 0.3,-0.36 0.4,-0.41 0.1,-0.1 0.2,-0.17 0.1,-0.25 -0.1,0 -0.1,-0.1 -0.1,-0.1 0,0 0.7,-0.26 0.8,-0.26 0.1,0 0.1,0 0,-0.18 l -0.2,-0.12 h 0.4 0.3 l 0.1,-0.28 0.1,-0.28 v -0.11 l -0.1,-0.11 0.3,-0.12 0.2,-0.12 0.2,-0.25 c 0.4,-0.36 0.6,-0.9 0.6,-1.22 v -0.14 h -0.3 -0.3 v -0.14 -0.14 l 0.1,-0.17 c 0.1,-0.1 0.4,-0.37 0.6,-0.64 l 0.5,-0.48 0.1,-0.26 c 0.1,-0.15 0.2,-0.33 0.2,-0.4 0.1,-0.43 0.3,-0.94 0.4,-1.21 l 0.1,-0.31 0.3,-0.25 0.2,-0.24 0.3,-0.16 0.3,-0.16 0.1,-0.32 0.2,-0.32 0.3,-0.54 c 0.2,-0.29 0.5,-0.65 0.6,-0.8 0.1,-0.15 0.3,-0.4 0.3,-0.56 0.3,-0.43 1,-0.22 1.3,0.36 v 0.1 l -0.1,0.38 c -0.2,0.7 -0.1,0.8 0.4,0.32 l 0.1,-0.2 0.2,0.14 0.2,0.14 v 0.1 c 0,0.1 -0.1,0.41 -0.2,0.8 l -0.2,0.7 v 1.99 c -0.1,1.09 0,2.04 0,2.1 v 0.11 h 0.1 c 0.1,0 0.2,0.13 0.3,0.23 l 0.1,0.18 -0.1,0.1 c -0.1,0 -0.1,0.1 -0.2,0.1 v 0 0.1 0.1 l 0.2,0.1 0.2,0.11 h -0.1 -0.2 v 0.1 c 0,0.1 0,0.14 0.1,0.18 0,0 0.2,0.15 0.2,0.24 l 0.2,0.17 -0.2,0.13 c -0.1,0.15 -0.2,0.21 0,0.3 0.2,0.16 0.3,0.39 0,0.43 -0.2,0 -0.2,0.1 -0.2,0.21 v 0.1 l 0.2,0.29 0.4,0.28 v 0.1 0.1 h -0.2 -0.2 v 0.1 0.11 l 0.1,0.14 c 0.1,0.1 0.1,0.16 0.1,0.18 0,0 0,0.1 0,0.1 0,0 -0.1,0 -0.2,0 h -0.2 v 0.1 0.1 l 0.1,0.22 c 0.2,0.26 0.2,0.31 0.1,0.47 l -0.1,0.13 v 0.34 0.33 l -0.1,0.2 c -0.1,0.27 -0.1,0.31 0.1,0.71 0.1,0.41 0.1,0.56 -0.2,0.36 0,0 -0.1,-0.1 -0.1,-0.1 h -0.1 l -0.1,0.14 c 0,0.1 0,0.17 0,0.2 0,0 0.1,0.36 0.1,0.72 V -39 h -0.1 c 0,0 -0.1,-0.1 -0.2,-0.17 -0.2,-0.2 -0.2,-0.21 -0.3,0 l -0.1,0.13 0.1,0.22 c 0,0.13 0,0.26 0,0.3 v 0.1 h -0.1 -0.1 l -0.1,0.15 -0.1,0.16 v 0.29 0.29 l -0.2,0.1 -0.1,0.1 -0.1,0.1 c 0,0.1 0,0.15 0,0.21 v 0.1 h -0.2 -0.2 v 0.1 c 0,0 0,0.2 0,0.38 v 0.31 l -0.1,-0.1 c 0,0 -0.1,-0.11 -0.1,-0.19 0,-0.15 -0.1,-0.23 -0.2,-0.19 h -0.1 v 0.33 0.32 h -0.1 c 0,0 -0.1,0 -0.2,-0.1 h -0.1 v 0.1 c 0,0 0,0.32 -0.1,0.57 v 0.48 l -0.1,0.36 c -0.1,0.21 -0.3,0.5 -0.4,0.67 -0.6,0.98 -0.7,1.25 -0.8,2.19 l -0.1,0.62 0.1,0.65 v 0.64 l 0.1,0.43 c 0.1,0.47 0.1,0.57 0.2,0.93 0.1,0.28 0.1,0.28 0.3,0.18 0.1,0 0.4,-0.1 0.6,-0.13 l 0.5,-0.1 0.4,0.1 c 0.7,0.1 1.6,0.46 2.7,1.17 0.1,0.1 0.6,0.34 1,0.55 l 0.7,0.36 0.4,0.14 c 0.2,0.1 0.4,0.13 0.5,0.13 0.2,0 1.3,0.82 1.5,1.11 0,0.1 0.2,0.24 0.4,0.43 0.4,0.4 0.8,1.05 0.9,1.29 v 0.17 0.23 c -0.1,0.13 -0.3,0.49 -0.4,0.8 -0.2,0.32 -0.4,0.66 -0.4,0.76 l -0.1,0.18 h -2.3 c -1.3,0 -3.3,0 -4.5,0 -1.2,0 -3,0 -3.8,0.1 -0.9,0 -2.5,0 -3.5,0.1 -2.8,0.1 -7.7,0.13 -11.8,0.15 h -3.6 v -0.1 0 m 2.8,-1.28 c 1,-0.37 2.6,-0.83 3.6,-1.05 h 0.2 v -0.32 c 0.1,-0.78 -0.2,-2.57 -0.4,-3.3 l -0.1,-0.12 0.3,-0.21 0.2,-0.2 0.1,-0.3 c 0.1,-0.15 0.2,-0.41 0.3,-0.57 v -0.26 -0.42 c 0,-0.22 0,-0.43 0,-0.46 l -0.1,-0.1 -0.2,0.18 c -0.2,0.2 -0.5,0.34 -1.2,0.65 -0.5,0.23 -1,0.48 -1.2,0.71 l -0.2,0.15 -0.2,0.29 c -0.2,0.29 -0.3,0.52 -0.4,1.12 -0.4,1.14 -0.5,1.5 -0.8,2.24 -0.2,0.45 -0.4,0.91 -0.5,1.05 l -0.1,0.22 v 0.42 c 0,0.38 0,0.47 0.1,0.47 0,0 0.3,-0.1 0.6,-0.21 v 0 m 5.6,-2.2 c 0.2,-0.11 0.8,-0.18 1.6,-0.22 1.1,0 1.3,-0.1 1.8,-0.51 l 0.3,-0.26 0.3,-0.13 c 0.5,-0.25 1.5,-0.53 2.4,-0.67 0.1,0 0.4,-0.1 0.7,-0.13 l 0.4,-0.1 v -0.22 -0.21 l -0.1,-0.17 c -0.1,-0.1 -0.2,-0.24 -0.2,-0.32 -0.1,-0.1 -0.3,-0.22 -0.3,-0.32 l -0.2,-0.17 v -2.03 -2.04 l -0.1,-0.55 c -0.1,-0.31 -0.2,-0.64 -0.2,-0.74 l -0.1,-0.17 h -0.5 c -0.2,0 -0.5,0 -0.6,0 h -0.3 v -0.1 -0.1 l 0.1,-0.14 0.2,-0.15 v -0.1 c -0.1,-0.22 -1.6,0.92 -1.6,1.2 0,1.58 -1.4,3.99 -3.5,6.06 l -0.6,0.53 v 0.45 c 0,0.43 0.1,1.37 0.1,1.49 v 0.1 l 0.2,-0.1 c 0,-0.1 0.1,-0.12 0.2,-0.16 v 0 m 9.3,-2.72 c 0.2,0 0.4,-0.16 0.6,-0.25 0.2,-0.1 0.5,-0.21 0.6,-0.27 0.2,-0.1 0.3,-0.1 0.3,-0.11 0,0 -0.1,-0.16 -0.1,-0.34 l -0.2,-0.33 v -0.22 c -0.1,-2.3 -0.3,-3.05 -0.5,-3.61 -0.1,-0.21 -0.2,-0.44 -0.2,-0.53 0,-0.1 0,-0.18 0,-0.21 l -0.1,-0.1 h -0.5 -0.4 l -0.1,0.84 c 0,0.45 0,1.03 0,1.29 l -0.1,0.46 v 1.13 1.14 l 0.1,0.34 c 0.1,0.42 0.3,0.84 0.4,0.84 0,0 0.1,0 0.2,-0.1 v 0" />
</svg>
