<?xml version="1.0" encoding="UTF-8" standalone="no"?>
<svg
     xmlns:dc="http://purl.org/dc/elements/1.1/"
     xmlns:cc="http://creativecommons.org/ns#"
     xmlns:rdf="http://www.w3.org/1999/02/22-rdf-syntax-ns#"
     xmlns:svg="http://www.w3.org/2000/svg"
     xmlns="http://www.w3.org/2000/svg"
     xmlns:sodipodi="http://sodipodi.sourceforge.net/DTD/sodipodi-0.dtd"
     xmlns:inkscape="http://www.inkscape.org/namespaces/inkscape"
     inkscape:version="1.1-dev (1:0.92.0+devel+202003241343+2742de5)"
     sodipodi:docname="wolf.svg"
     id="svg5"
     width="75"
     viewBox="97.93 100.3 32.2 36.8"
     version="1.1"
     height="85.61">
    <metadata
         id="metadata9">
        <rdf:RDF>
            <cc:Work
                 rdf:about="">
                <dc:format>image/svg+xml</dc:format>
                <dc:type
                     rdf:resource="http://purl.org/dc/dcmitype/StillImage" />
            </cc:Work>
        </rdf:RDF>
    </metadata>
    <sodipodi:namedview
         inkscape:current-layer="svg5"
         inkscape:window-maximized="1"
         inkscape:window-y="27"
         inkscape:window-x="0"
         inkscape:cy="42.81"
         inkscape:cx="37.14"
         inkscape:zoom="9.648"
         showgrid="false"
         id="namedview7"
         inkscape:window-height="983"
         inkscape:window-width="1920"
         inkscape:pageshadow="2"
         inkscape:pageopacity="0"
         guidetolerance="10"
         gridtolerance="10"
         objecttolerance="10"
         borderopacity="1"
         bordercolor="#666666"
         pagecolor="#ffffff" />
    <defs
         id="defs2" />
    <path
         style="fill:#000000;stroke:none;stroke-width:0.99981;stroke-opacity:1"
         id="path8159"
         d="m 112.9,136.1 c -1.5,-1.8 -1.7,-2 -3,-3.7 -1.4,-1.7 -2.8,-3.5 -2.8,-3.6 -0.2,-0.2 -0.1,0.1 0.1,0.7 0.3,0.9 0.7,1.7 1.2,2.2 l 0.3,0.3 -0.3,-0.2 c -3.3,-2 -5.6,-4.5 -6.4,-6.9 -0.1,-0.2 -0.1,-0.2 -0.3,0.2 -0.3,0.9 -0.6,2.3 -0.6,3.4 v 0.2 l -0.1,-0.1 c -0.1,-0.6 -0.3,-1.8 -0.4,-3.1 l -0.1,-0.5 v -1.7 -1.7 l 0.1,-0.5 c 0,-0.4 0.1,-0.7 0.1,-0.7 v -0.1 l -0.3,0.3 c -0.85,0.9 -2.02,2.6 -2.51,3.7 -0.12,0.3 -0.13,0.2 -0.1,-0.4 0.47,-5 1.92,-8.6 4.51,-11.2 l 0.5,-0.6 -0.1,-0.6 c -1,-4.6 -0.8,-9.3 0.5,-11 l 0.1,-0.2 h 0.1 0.1 0.3 c 1.6,0.5 3,1.3 5.1,3.4 l 0.7,0.6 -0.1,-0.1 c 0,-0.2 -0.1,-0.5 -0.3,-0.8 l -0.1,-0.2 0.1,0.1 c 0.7,0.4 2.3,1.4 4.1,2.5 l 0.6,0.4 1.1,-0.7 c 1.8,-1.2 2.7,-1.7 3.5,-2.2 l 0.1,-0.1 -0.1,0.2 c -0.1,0.3 -0.3,0.6 -0.3,0.8 v 0.1 l 0.6,-0.6 c 2.2,-2.1 3.5,-2.9 5.1,-3.4 h 0.3 0.1 0.1 l 0.1,0.2 c 1.4,1.7 1.6,7 0.4,11.4 v 0.2 l 0.6,0.6 c 2.5,2.6 4,6.2 4.4,11.2 0.1,0.6 0.1,0.7 0,0.4 -0.5,-1.1 -1.7,-2.8 -2.5,-3.7 l -0.4,-0.3 0.1,0.1 c 0,0 0,0.3 0.1,0.7 v 0.5 1.7 1.7 0.5 c -0.2,1.3 -0.3,2.5 -0.5,3.1 l -0.1,0.1 v -0.2 c 0,-1.5 -0.6,-4.2 -0.8,-3.6 -0.8,2.3 -3.2,4.9 -6.7,7 l -0.1,0.1 0.3,-0.3 c 0.5,-0.5 1,-1.4 1.3,-2.2 0.1,-0.5 0.2,-0.8 0.2,-0.8 0,0 -0.3,0.3 -0.6,0.7 -0.2,0.3 -0.7,0.9 -0.9,1.2 -0.3,0.3 -0.6,0.8 -0.8,0.9 -0.2,0.3 -1.2,1.5 -3,3.8 -1.9,2.3 -1.5,2.2 -2.6,0.8 v 0 m 1.3,-1.8 c 0.6,-0.7 1.1,-1.4 2.3,-3.5 0.6,-1 1,-1.7 1,-1.7 0.1,0 0,0.4 0,0.8 0,0.4 0,0.8 0,0.8 0,0 0.7,-0.6 1,-1 0.4,-0.5 0.9,-1.1 1.7,-2.3 1.2,-1.8 1.2,-1.8 1.3,-1.4 v 0.2 0.7 c 0,0.4 0.1,0.8 0.1,0.8 0,0 0.7,-0.6 1.2,-1.1 1.2,-1.1 2.2,-2.6 2.9,-4 0.3,-0.6 0.2,-0.6 0.4,-0.2 0.1,0.1 0.2,0.2 0.2,0.2 0,0 0,-0.4 0,-1 v -1 l -0.1,-0.5 c 0,-0.2 -0.1,-0.7 -0.1,-1 -0.1,-0.2 -0.1,-0.5 -0.1,-0.5 0.1,0 1.2,0.7 1.8,1.2 0.3,0.1 0.4,0.2 0.4,0.2 0,0 -1.1,-1.8 -1.7,-2.9 -1.6,-2.6 -2.3,-3.4 -3.5,-4.3 l -0.1,-0.1 0.3,-0.2 c 0.3,-0.2 0.7,-0.7 0.7,-0.7 0,-0.1 -0.2,-0.2 -0.5,-0.4 -0.7,-0.3 -1.4,-0.7 -1.9,-1.1 -0.4,-0.3 -0.3,-0.3 -0.1,0.3 0.1,0.3 0.1,0.6 0.1,0.6 0,0 -0.3,-0.3 -0.8,-0.8 -0.9,-0.9 -0.9,-0.9 -0.7,-0.9 l 0.2,-0.1 h 0.3 0.4 l 0.2,0.1 c 0.5,0.1 0.9,0.4 1.5,1 l 0.4,0.3 0.1,-0.1 c 0.2,0 0.4,-0.1 0.7,-0.4 l 0.2,-0.2 0.2,-0.4 c 0.4,-0.8 0.6,-1.9 0.7,-3.3 v -0.7 -0.7 c -0.1,-1.6 -0.5,-3 -0.9,-3.2 -0.2,0 -0.7,0.6 -1.4,1.7 -0.8,1.2 -1,1.4 -1.4,1.8 l -0.1,0.1 h 0.5 0.6 -0.1 c -0.3,0.4 -3.9,1.4 -7.7,2.1 l -0.5,0.1 -0.6,-0.1 c -3.9,-0.8 -7.4,-1.7 -7.7,-2.1 h -0.1 0.6 0.6 l -0.2,-0.1 c -0.4,-0.4 -0.6,-0.6 -1.3,-1.8 -0.8,-1.1 -1.3,-1.7 -1.5,-1.7 -0.4,0.2 -0.8,1.8 -0.9,3.5 v 0.5 0.6 c 0.2,2.5 0.8,4.1 1.8,4.3 l 0.2,0.1 0.3,-0.3 c 0.6,-0.6 1.1,-0.9 1.5,-1 l 0.3,-0.1 h 0.3 0.3 l 0.2,0.1 c 0.2,0 0.3,0 -0.7,0.9 -0.4,0.5 -0.8,0.8 -0.8,0.8 0,0 0.1,-0.3 0.2,-0.6 0.2,-0.6 0.2,-0.6 -0.2,-0.3 -0.5,0.4 -1.2,0.8 -1.8,1.1 -0.4,0.2 -0.6,0.3 -0.6,0.3 0,0.1 0.5,0.6 0.7,0.8 l 0.3,0.2 -0.1,0.1 c -1.2,0.9 -1.9,1.7 -3.4,4.3 -0.7,1.1 -1.79,2.9 -1.79,2.9 0,0 0.16,-0.1 0.37,-0.2 0.62,-0.5 1.82,-1.2 1.82,-1.2 0,0 0,0.3 0,0.5 -0.1,0.3 -0.1,0.8 -0.2,1 v 0.5 l -0.1,1 c 0,0.5 0,0.9 0,1 h 0.1 l 0.1,-0.2 c 0.2,-0.4 0.2,-0.4 0.4,0.2 0.8,1.5 1.8,3 3.1,4.2 0.4,0.3 1,0.9 1.1,0.9 0,0 0,-0.4 0,-0.8 v -0.7 -0.2 c 0.1,-0.4 0.1,-0.4 1.4,1.4 0.8,1.2 1.3,1.8 1.7,2.3 0.3,0.4 0.9,1 0.9,1 0,0 0,-0.4 0,-0.8 0,-0.4 0,-0.8 0,-0.8 0,0 0.5,0.7 1,1.7 2,3.4 2.5,4 3,3.5 v 0 m -0.6,-3.2 c -1,-0.3 -2.1,-1.1 -2.7,-2.1 l -0.2,-0.3 -0.1,-0.3 c -0.2,-0.6 -0.5,-2.3 -0.9,-5 l -0.2,-1.5 -0.1,-0.3 c -0.3,-0.9 -0.9,-1.6 -1.5,-1.6 l -0.2,-0.1 -0.1,0.1 -0.1,0.1 -0.1,0.2 c -0.2,0.3 -0.3,0.7 -0.4,1.2 v 0.4 0.3 c 0,0.2 0.1,0.5 0.1,0.7 0,0.1 0,0.3 0,0.3 0,0 -0.2,-0.4 -0.5,-0.7 -0.8,-1.2 -1.3,-2.7 -1.4,-4.3 0,-0.3 0,-0.4 0,-0.4 0,-0.1 -0.4,0.4 -0.6,0.7 -0.6,0.9 -0.9,1.9 -1,3 l -0.1,0.5 0.1,0.5 c 0,0.2 0,0.5 0,0.6 l 0.1,0.1 -0.2,-0.3 -0.2,-0.4 -0.1,-0.4 c -0.6,-2.2 0.3,-5 2,-6.8 l 0.5,-0.4 0.4,-0.3 c 0.7,-0.4 1.3,-0.7 2.1,-0.9 h 0.4 0.5 c 0.3,0 0.7,0 0.9,0 h 0.2 l -0.1,-0.1 c -0.1,-0.2 -0.4,-0.5 -0.7,-0.7 -0.2,-0.1 -0.2,-0.2 0,-0.1 2.3,1 3.7,2.7 3.9,4.6 v 0.5 0.5 c -0.1,1.3 -0.6,3 -0.9,3.3 -0.1,0 -0.1,0 0,-0.2 0,-0.1 0.1,-0.3 0.2,-0.6 v -0.5 -0.3 c 0,-0.4 0,-0.7 -0.1,-1 l -0.1,-0.2 -0.2,-0.2 c -0.3,-0.2 -0.5,-0.4 -0.8,-0.5 -0.3,0 -0.3,0 -0.2,0.4 v 0.5 0.2 0.2 l -0.1,-0.1 c 0,0 0,-0.2 -0.1,-0.4 l -0.2,-0.3 -0.1,-0.1 c -0.2,-0.2 -0.3,-0.2 -0.8,-0.3 -0.4,-0.1 -0.6,-0.1 -0.9,-0.3 l -0.3,-0.1 -0.3,-0.3 -0.3,-0.3 -0.1,-0.4 -0.2,-0.3 v 0.2 c 0.1,0.9 0.6,1.9 1.3,2.4 0.2,0.1 0.2,0.2 -0.1,0.1 -0.8,-0.2 -2,-1.3 -2.5,-2.2 l -0.1,-0.2 v 0 c -0.5,0.1 -0.8,0.4 -0.6,0.5 0.5,0.5 1,1.5 1,2.2 0,0.2 0.1,0.3 0.1,0.3 0,0 0,0 0.1,-0.1 0.1,-0.1 0.3,-0.2 0.4,-0.2 l 0.2,-0.1 h 0.5 0.4 l 0.3,0.1 0.3,0.1 0.4,0.4 0.3,0.3 0.1,0.3 c 0.5,0.9 0.7,2.4 0.7,4 0,0.7 0,0.7 0.1,0.2 0.1,-0.3 0.1,-0.4 0.2,-1.1 v -0.2 l 0.2,0.2 c 0.4,0.6 0.7,1.3 0.8,1.8 0.1,0.3 0.1,0.3 0.2,0.1 0.1,0 0.2,-0.1 0.3,-0.1 l 0.2,-0.1 h 1.3 1.2 l 0.2,0.1 c 0.1,0 0.2,0.1 0.3,0.1 0.1,0.2 0.1,0.2 0.2,-0.1 0.1,-0.5 0.4,-1.2 0.8,-1.8 l 0.2,-0.2 v 0.2 c 0.1,0.7 0.1,0.8 0.2,1.1 0.1,0.5 0.1,0.5 0.1,-0.2 0,-1.6 0.2,-3.1 0.7,-4 l 0.2,-0.3 0.3,-0.3 0.3,-0.4 0.3,-0.1 0.3,-0.1 h 0.5 0.5 l 0.2,0.1 c 0.1,0 0.2,0.1 0.3,0.2 0.1,0.1 0.2,0.1 0.2,0.1 0,0 0,-0.1 0,-0.3 0.1,-0.7 0.5,-1.7 1,-2.2 0.1,0 0.1,-0.1 0.1,-0.1 0,-0.1 -0.7,-0.5 -0.7,-0.4 0,0 -0.1,0.1 -0.1,0.2 -0.5,0.9 -1.7,2 -2.5,2.2 -0.3,0.1 -0.3,0 -0.1,-0.1 0.7,-0.5 1.2,-1.5 1.3,-2.4 v -0.2 l -0.1,0.3 -0.2,0.4 -0.3,0.3 -0.3,0.3 -0.2,0.1 c -0.4,0.2 -0.6,0.2 -1,0.3 -0.5,0.1 -0.6,0.1 -0.8,0.3 l -0.1,0.1 -0.1,0.3 c -0.1,0.2 -0.2,0.4 -0.2,0.4 v 0.1 l -0.1,-0.2 v -0.2 -0.5 c 0.1,-0.4 0.1,-0.4 -0.2,-0.4 -0.2,0.1 -0.5,0.3 -0.7,0.5 l -0.2,0.2 -0.1,0.2 c -0.2,0.3 -0.2,0.6 -0.2,1 v 0.3 l 0.1,0.5 c 0,0.3 0.1,0.5 0.1,0.6 0.1,0.2 0.1,0.2 0,0.2 -0.2,-0.2 -0.6,-1.5 -0.8,-2.6 l -0.1,-0.6 v -0.7 l 0.1,-0.8 v -0.3 c 0.4,-1.6 1.9,-3 3.8,-3.9 0.3,-0.1 0.2,0 0,0.1 -0.2,0.2 -0.6,0.5 -0.7,0.7 l -0.1,0.1 h 0.3 c 0.1,0 0.5,0 0.8,0 h 0.6 0.4 c 0.7,0.2 1.4,0.5 2.1,0.9 l 0.3,0.3 0.5,0.4 c 1.7,1.8 2.6,4.6 2,6.8 l -0.1,0.4 -0.1,0.4 -0.2,0.3 v -0.1 c 0,-0.1 0,-0.4 0,-0.6 l 0.1,-0.5 -0.1,-0.5 c -0.1,-1.1 -0.4,-2.1 -1,-3 -0.2,-0.3 -0.6,-0.8 -0.6,-0.7 0,0 0,0.1 0,0.4 -0.1,1.5 -0.5,3 -1.3,4.2 -0.3,0.4 -0.6,0.8 -0.6,0.8 0,0 0,-0.2 0,-0.3 0.1,-0.2 0.1,-0.4 0.1,-0.6 v -0.4 -0.3 c -0.1,-0.5 -0.2,-0.9 -0.3,-1.2 l -0.1,-0.3 -0.2,-0.1 -0.1,-0.1 -0.2,0.1 c -0.6,0 -1.2,0.7 -1.5,1.6 l -0.1,0.3 -0.2,1.5 c -0.4,2.7 -0.7,4.4 -0.9,5 l -0.1,0.3 -0.2,0.3 c -0.8,1.3 -2.4,2.3 -3.2,2.1 v 0 m 0.9,-0.9 c 0.9,-0.2 1.6,-1 1.8,-2.1 l 0.1,-0.3 v -0.8 -0.7 l -0.1,-0.4 c -0.1,-0.5 -0.1,-0.5 -0.4,-0.2 l -0.1,0.2 0.1,0.2 c 0.1,0.2 0.1,0.4 0.2,0.5 v 0.2 0.3 c -0.1,0.5 -0.4,0.9 -0.8,1.1 l -0.1,0.1 -0.1,-0.1 -0.1,-0.1 v -0.2 c 0,-0.1 0,-0.2 0,-0.2 0.1,-0.1 0.1,-0.1 0,-0.2 h -0.2 l -0.2,0.1 h -0.1 l -0.1,0.1 c -0.1,0.2 0,0.6 0.2,0.7 v 0 h 0.3 c 0.3,0 0.4,0.1 0.5,0.2 v 0.1 0.2 l -0.1,0.1 -0.7,0.3 -0.6,0.4 h -0.1 -0.1 l -0.7,-0.4 -0.7,-0.3 v -0.1 l -0.1,-0.2 0.1,-0.1 c 0,-0.1 0.2,-0.2 0.4,-0.2 h 0.3 0.1 c 0.2,-0.1 0.2,-0.5 0.1,-0.7 l -0.1,-0.1 h -0.1 l -0.2,-0.1 h -0.1 c -0.2,0.1 -0.2,0.1 -0.1,0.2 0,0 0,0.1 0,0.2 v 0.2 l -0.1,0.1 v 0.1 l -0.2,-0.1 c -0.4,-0.2 -0.7,-0.6 -0.7,-1.1 l -0.1,-0.3 0.1,-0.2 c 0,-0.1 0.1,-0.3 0.1,-0.5 l 0.1,-0.2 -0.1,-0.2 c -0.2,-0.3 -0.2,-0.3 -0.4,0.2 v 0.4 0.7 0.8 0.3 c 0.3,1.1 0.9,1.8 1.8,2.1 l 0.3,0.1 h 0.3 0.4 l 0.3,-0.1 v 0 m -4.4,-12.6 h 0.1 v -0.1 c 0,-0.1 -0.1,-0.2 -0.2,-0.3 l -0.2,-0.2 -0.1,0.1 c 0,0 -0.1,0 -0.2,0 h -0.1 l -0.1,-0.1 h -0.1 v -0.2 -0.2 l -0.1,-0.1 c -0.1,0 -0.2,0 -0.3,0 h -0.1 l -0.1,0.1 -0.1,0.1 v 0.1 c 0,0.2 0.2,0.4 0.4,0.6 l 0.2,0.1 0.2,0.1 0.3,0.1 h 0.2 0.2 l 0.1,-0.1 v 0 m 8.3,0 h 0.2 l 0.2,-0.2 c 0.2,-0.2 0.4,-0.4 0.4,-0.6 v -0.1 -0.1 l -0.1,-0.1 h -0.2 c 0,0 -0.2,0 -0.3,0 l -0.1,0.1 v 0.2 0.2 h -0.1 l -0.1,0.1 h -0.1 c -0.1,0 -0.2,0 -0.2,0 l -0.1,-0.1 -0.2,0.2 c -0.1,0.1 -0.2,0.2 -0.2,0.3 v 0.1 h 0.1 l 0.1,0.1 h 0.2 0.2 l 0.3,-0.1 v 0 m -6.5,-0.6 c 0,-0.1 -0.3,-0.7 -0.5,-1.1 l -0.3,-0.4 -0.3,-0.3 c -0.4,-0.4 -1,-0.8 -1.5,-1 h -0.1 l 0.3,0.3 c 0.6,0.5 0.7,0.8 0.4,0.7 -0.1,-0.1 -0.3,-0.1 -0.5,-0.2 h -0.3 -0.3 c -0.3,0 -0.3,0.1 0,0.1 l 0.3,0.1 0.3,0.1 0.2,0.1 -0.4,0.1 c -0.4,0 -0.8,0.1 -1,0.2 -0.2,0.2 -0.2,0.2 0.2,0.2 h 0.4 l 0.2,0.1 c 0.4,0.1 0.9,0.4 1.2,0.6 l 0.2,0.2 h 0.3 0.2 0.2 c 0.2,0 0.4,0.1 0.5,0.2 0.3,0.1 0.3,0.1 0.3,0 v 0 m 4.2,0 c 0.1,-0.1 0.4,-0.2 0.5,-0.2 h 0.3 0.2 0.2 l 0.2,-0.2 c 0.4,-0.2 0.8,-0.5 1.2,-0.6 l 0.3,-0.1 h 0.3 c 0.5,0 0.5,0 0.3,-0.2 -0.3,-0.1 -0.6,-0.2 -1.1,-0.2 l -0.4,-0.1 0.3,-0.1 0.2,-0.1 0.3,-0.1 c 0.3,0 0.3,-0.1 0,-0.1 -0.4,0 -0.9,0.1 -1.2,0.2 l -0.1,0.1 v -0.1 c 0.1,-0.1 0.4,-0.5 0.6,-0.8 l 0.3,-0.2 h -0.1 c -1,0.4 -2.1,1.5 -2.5,2.6 -0.1,0.3 -0.1,0.3 0.2,0.2 v 0" />
</svg>
