<?xml version="1.0" encoding="UTF-8" standalone="no"?>
<svg
     xmlns:dc="http://purl.org/dc/elements/1.1/"
     xmlns:cc="http://creativecommons.org/ns#"
     xmlns:rdf="http://www.w3.org/1999/02/22-rdf-syntax-ns#"
     xmlns:svg="http://www.w3.org/2000/svg"
     xmlns="http://www.w3.org/2000/svg"
     xmlns:sodipodi="http://sodipodi.sourceforge.net/DTD/sodipodi-0.dtd"
     xmlns:inkscape="http://www.inkscape.org/namespaces/inkscape"
     inkscape:version="1.1-dev (1:0.92.0+devel+202003131352+8c7fb13)"
     sodipodi:docname="wolves.svg"
     viewBox="0 0 265.7 252.7"
     height="252.7"
     width="265.7"
     id="svg2110"
     version="1.1">
    <metadata
         id="metadata2116">
        <rdf:RDF>
            <cc:Work
                 rdf:about="">
                <dc:format>image/svg+xml</dc:format>
                <dc:type
                     rdf:resource="http://purl.org/dc/dcmitype/StillImage" />
                <dc:title></dc:title>
            </cc:Work>
        </rdf:RDF>
    </metadata>
    <defs
         id="defs2114" />
    <sodipodi:namedview
         inkscape:current-layer="g2118"
         inkscape:window-maximized="1"
         inkscape:window-y="27"
         inkscape:window-x="0"
         inkscape:cy="106.6"
         inkscape:cx="124.5"
         inkscape:zoom="2.634"
         showgrid="false"
         id="namedview2112"
         inkscape:window-height="983"
         inkscape:window-width="1920"
         inkscape:pageshadow="2"
         inkscape:pageopacity="0"
         guidetolerance="10"
         gridtolerance="10"
         objecttolerance="10"
         borderopacity="1"
         bordercolor="#666666"
         pagecolor="#ffffff" />
    <g
         transform="translate(-7.805,23.76)"
         id="g2118"
         inkscape:label="Image"
         inkscape:groupmode="layer">
        <path
             id="path2211"
             d="m 135,228.7 c -1.4,-0.6 -2.7,-3.3 -2.7,-5.8 0,-0.7 0,-1.3 -0.1,-1.3 -0.1,0 -0.7,0.6 -1.4,1.3 -1.2,1.2 -1.4,1.3 -2.9,1.3 -1.9,0 -3.5,-0.5 -3.9,-1.3 -0.3,-0.5 -0.6,-0.6 -3,-0.4 -3.1,0.2 -7.1,-0.3 -7.8,-1 -0.5,-0.4 -0.5,-0.6 0.1,-1.4 0.9,-1.2 4.9,-3.2 6.8,-3.5 l 1.6,-0.1 0.1,-2.4 c 0.2,-2.5 0.6,-3.5 2.7,-6.1 1,-1.2 1.5,-2.2 1.9,-4 0.8,-3.3 1.6,-5.2 3.4,-8.2 3.4,-5.5 4.6,-10.4 3.2,-12.7 -0.7,-1 -0.9,-3.6 -0.4,-4.2 0.1,-0.1 0.1,-1.2 0.1,-2.5 0,-1.3 0,-2.7 0.2,-3.2 0.2,-0.7 0.1,-1.4 -0.5,-2.8 -0.8,-2 -1.2,-4.9 -0.9,-6.2 0.5,-2 2.2,-1.6 4.6,1 1,1 1.6,1.4 2,1.2 0.2,-0.1 1.4,-0.3 2.5,-0.4 l 2,-0.2 1,-2.6 c 1.2,-3.6 2.6,-4.5 4.2,-2.8 2.2,2.4 3.6,6.9 4,12.8 0.3,5.4 0.2,11.6 -0.2,13 -0.4,1.1 -0.4,1.5 0.5,4.5 1.6,5.1 1.7,7 1.3,15.5 -0.3,7.6 -0.3,9.7 0.5,12.8 0.3,1.3 0.6,1.9 1.2,2.3 1,0.5 1.4,1.5 1.1,2.7 -0.3,1.1 -1.9,1.6 -4.1,1.3 -1.3,-0.2 -1.8,-0.5 -2.9,-1.6 -1.3,-1.3 -1.4,-1.3 -4.7,-1.8 -4.6,-0.8 -4.6,-0.8 -4.3,0.4 0.1,0.6 0.6,1.8 1.1,2.7 1.1,1.8 1.1,2.2 0,3.1 -1,0.7 -5.1,1.1 -6.3,0.6 z m 4,-1.5 c 0.1,-0.1 0,-0.3 -0.2,-0.5 -0.4,-0.5 -0.2,-1.5 0.3,-1.5 0.2,0 0.6,0.4 0.8,0.9 0.3,0.5 0.7,1 0.9,1 0.1,0 0,-0.4 -0.3,-0.9 -1.1,-1.6 -1.4,-2.5 -2.1,-5.5 -0.5,-2.6 -0.6,-3.8 -0.5,-8.3 0.2,-5.1 0.3,-5.3 0.9,-5.4 0.6,-0.1 0.6,0 0.5,5.7 0,3.3 0,6.2 0.2,6.6 0.2,0.6 0.5,0.7 1.6,0.8 0.7,0 2.3,0.2 3.6,0.4 1.2,0.2 2.2,0.4 2.3,0.3 0,0 -0.1,-0.8 -0.3,-1.7 -0.3,-1.1 -0.6,-1.7 -1.1,-2 -1,-0.5 -2.6,-0.4 -3.5,0.2 -1,0.6 -1.8,0.7 -1.8,0.1 0,-0.7 1,-1.4 2.9,-2.1 1.5,-0.5 1.9,-0.7 2.5,-2 0.6,-1.3 0.7,-1.8 0.6,-4.8 0,-3.5 0,-3.8 1.1,-3.8 0.2,0 0.3,2.9 0.3,6.8 0,7.3 0.2,8.2 1.7,10.4 0.9,1.3 1.7,1.8 3.3,2.1 0.8,0.2 0.8,0.2 0.3,-0.2 -0.3,-0.3 -0.5,-0.7 -0.5,-1 0,-0.9 0.7,-0.9 1.6,0.1 0.6,0.7 1,0.9 1,0.6 0,-0.3 -0.5,-0.9 -1.1,-1.4 -1.8,-1.3 -2,-3.2 -2,-16.1 v -11.1 l -1.1,-3.5 c -1,-3.4 -1.1,-3.5 -0.6,-5.7 0.9,-4.8 0.2,-15.8 -1.3,-19.9 -1.1,-3 -1.4,-3.7 -2.2,-4.5 -0.6,-0.5 -0.7,-0.5 -1.3,0.7 -0.3,0.7 -0.7,1.7 -0.8,2.2 -0.1,0.5 -0.5,1.4 -0.8,2 -0.6,1 -0.8,1 -2.5,1 -3.4,0.1 -5.9,2 -6.9,5.3 -0.3,1.1 -0.3,1.2 0.4,1.7 0.4,0.4 1,0.6 1.5,0.5 1,-0.2 1,0.4 -0.2,2.2 -1.1,1.6 -1.1,1.7 0.8,1.6 0.5,0 0.1,1.9 -0.5,2.8 l -0.7,0.9 1,0.4 c 1,0.4 2.9,0 4,-0.8 0.4,-0.3 0.8,-0.5 1,-0.5 0.7,0 0.5,0.9 -0.3,1.3 -0.4,0.3 -1.1,0.7 -1.6,1.1 -1,0.9 -3,1.3 -4.2,0.8 -0.8,-0.3 -0.9,-0.3 -0.7,0.4 0.5,1.9 -1.5,7.9 -3.8,11.4 -1.6,2.3 -2.6,4.6 -3.3,7.5 -0.7,2.5 -0.9,3 -3.2,6.3 -1.5,2.3 -1.9,4 -1.3,6.5 0.3,1.5 0.5,1.8 0.9,1.6 2,-0.8 4.7,-0.1 5.9,1.7 0.7,1 0.8,1.1 1.3,0.6 0.4,-0.5 0.4,-1.1 0.2,-3.5 -0.3,-3.7 -1,-4.8 -3.8,-5.9 -1,-0.4 -1.5,-1.6 -0.5,-1.6 0.6,0 2.3,0.8 3.1,1.5 0.6,0.5 0.6,0.5 0.5,-0.1 -0.6,-1.9 -0.9,-3.8 -0.9,-6 0,-2.1 0.1,-2.4 0.6,-2.3 0.4,0 0.5,0.4 0.6,1.6 0,0.9 0.4,3.6 0.9,6.1 0.4,2.4 1,6.7 1.2,9.5 0.5,5.1 1.1,7.2 2.1,7.5 0.3,0.1 0.4,0 0.3,-0.3 -0.1,-0.2 0,-0.7 0.3,-1 0.4,-0.6 0.5,-0.6 0.7,-0.2 0.2,0.3 0.3,0.8 0.3,1.2 0,0.6 0.2,0.7 0.9,0.5 0.5,-0.1 1,-0.2 1,-0.3 z m -0.6,-45.9 c 0,-0.1 0.2,-0.3 0.5,-0.3 0.2,0 0.5,0.2 0.5,0.3 0,0.2 -0.3,0.3 -0.5,0.3 -0.3,0 -0.5,-0.1 -0.5,-0.3 z m -0.6,-1.3 c 0.2,-0.3 0.6,-0.4 0.6,-0.1 0,0.2 -0.1,0.3 -0.3,0.4 -0.2,0.1 -0.4,0 -0.3,-0.3 z m 1.7,-4.5 c -0.3,-0.5 0.9,-1.6 1.6,-1.5 0.6,0.1 1.4,1.1 1.2,1.3 -0.4,0.4 -2.6,0.5 -2.8,0.2 z m 6.4,-4.3 c -1.4,-0.8 -1.4,-1 -0.6,-2.8 0.4,-0.9 0.8,-1.9 0.8,-2.2 0,-0.7 0.9,-1.4 1.3,-1 0.2,0.2 0.4,1.7 0.5,3.4 0.2,2.9 0.2,3.1 -0.4,3.1 -0.3,0 -1.1,-0.2 -1.6,-0.5 z m -17.7,50.9 c -0.1,-0.6 0,-0.8 0.6,-0.8 0.6,0 0.6,-0.1 0.4,-0.6 -0.7,-1.2 -4.1,-1.9 -4.7,-1 -0.1,0.2 -0.1,0.7 0,1.1 0.1,0.6 0.3,0.8 0.5,0.5 0.4,-0.6 1.3,-0.1 1.2,0.7 -0.1,0.3 -0.1,0.6 0.1,0.6 0.1,0 0.3,-0.3 0.3,-0.6 0,-0.5 0.2,-0.7 0.6,-0.7 0.5,0 0.6,0.2 0.6,0.8 0,0.5 0.2,0.8 0.3,0.8 0.2,0 0.2,-0.3 0.1,-0.8 z m -5.3,-1.8 c -0.1,-0.4 -0.3,-1.1 -0.4,-1.6 -0.1,-0.7 -0.3,-0.9 -1.1,-0.9 -1.7,0 -6.7,2.1 -6.7,2.9 0,0.2 1.9,0.3 4.2,0.3 h 4.2 z m 12.6,-39.9 c 0.3,-0.6 0.3,-0.7 -0.6,-0.7 -1,0 -1.2,0.3 -0.6,0.9 0.5,0.5 0.7,0.5 1.2,-0.2 z m -0.5,-4 c 0.7,-1.1 0.7,-1.1 -0.3,-0.9 -0.5,0.1 -0.8,0.3 -0.8,0.9 0,1 0.4,1 1.1,0 z m -1.5,-8.1 c -0.3,-1 -0.5,-1.6 -0.5,-1.3 0,0.7 0.6,3.5 0.8,3.3 0.1,0 -0.1,-0.9 -0.3,-2 z m 1.4,-2.4 c -1.6,-1.6 -2.3,-1.8 -2.2,-0.4 0.1,0.6 0.2,0.7 0.7,0.6 0.3,-0.1 0.9,0.1 1.6,0.6 1.6,1.4 1.6,1 -0.1,-0.8 z m 73.3,56.6 c -6.8,-0.3 -10.7,-0.4 -15.4,-0.2 -2.5,0.1 -3.2,0 -4.1,-0.4 -1.4,-0.8 -1.3,-1.4 0.3,-1.9 0.8,-0.2 2,-0.5 2.7,-0.7 0.7,-0.2 2.7,-0.4 4.6,-0.4 1.8,0 3.4,-0.1 3.4,-0.2 0.1,-0.1 0.4,-0.9 0.6,-1.8 0.5,-1.8 1.7,-4.1 2.6,-4.9 1.3,-1.1 3.5,-1.6 7.8,-1.6 5.1,0 5.9,-0.3 7,-2.9 0.4,-0.9 1.3,-2.9 2.1,-4.3 2.5,-4.3 3.5,-5.3 3.9,-3.3 0.2,0.8 0.4,0.9 1.9,1.1 1.1,0.2 1.8,0.5 2.4,1.1 0.5,0.4 1.5,1 2.3,1.3 1.2,0.4 1.4,0.6 1.3,1.3 -0.2,1.2 -1.3,2.2 -2.8,2.3 -1.1,0.1 -1.3,0.2 -1.5,1.2 -0.2,0.6 -0.1,1.9 0,3.2 0.6,3.4 0.5,4.8 -0.4,6.5 l -0.7,1.5 h 1.6 c 2.8,0.1 5.4,0.5 5.7,1 0.5,0.7 0.3,1.8 -0.3,2 -0.3,0.1 -3.7,0.1 -7.7,-0.1 -5.2,-0.1 -7.2,-0.3 -7.4,-0.6 -0.1,-0.3 -0.3,-0.2 -0.6,0.4 -0.4,0.9 0.5,0.9 -9.3,0.4 z m -11.9,-1.9 c 1.6,-0.2 1.4,-0.2 -1.2,-0.1 -1.7,0 -3.4,0.2 -3.7,0.4 -0.5,0.4 -0.3,0.4 1.3,0.2 1,-0.1 2.7,-0.3 3.6,-0.5 z m 13.3,-0.4 c 0,-0.6 0,-1.5 -0.1,-2 -0.3,-0.9 -2,-2.3 -3,-2.3 -0.3,0 -0.6,-0.2 -0.6,-0.7 0,-1.3 2.9,-0.5 4.1,1.2 0.4,0.4 0.8,1.3 0.9,2 l 0.2,1.3 h 2.5 c 1.3,0 2.7,0.1 3.1,0.2 0.5,0.1 0.8,0 0.9,-0.6 0.1,-0.4 0.5,-1 0.9,-1.4 0.6,-0.7 0.7,-0.7 1.1,-0.2 0.3,0.5 0.3,0.7 0,1.1 -0.7,0.7 -0.9,1.5 -0.4,1.8 0.2,0.2 2.4,0.3 5,0.3 2.5,0 3.6,-0.1 2.4,-0.1 -2.3,-0.2 -2.9,-0.6 -2,-1.7 0.2,-0.2 0.8,-1.2 1.2,-2.1 0.7,-1.5 0.7,-1.7 0.3,-4.8 -0.6,-5 -0.1,-6.6 2.2,-6.6 0.7,0 1.4,-0.2 1.6,-0.4 0.3,-0.4 0.1,-0.5 -1.1,-0.9 -0.8,-0.2 -1.6,-0.6 -1.7,-0.9 -0.2,-0.7 -0.7,-0.9 -2.7,-1.1 -1,-0.2 -1.8,-0.4 -1.8,-0.6 -0.1,-0.2 -0.3,0.1 -0.6,0.7 -0.4,0.6 -0.6,1.3 -0.5,1.4 0.1,0.2 0.1,0.2 -0.1,0.1 -0.2,-0.1 -0.8,0.7 -1.5,2.1 -1.1,2.1 -1.1,2.3 -0.6,2.7 0.4,0.3 0.7,0.3 1.4,-0.2 0.9,-0.8 1.6,-0.6 1.6,0.2 0,0.5 0.2,0.4 0.9,-0.3 0.9,-0.8 1,-0.9 1.2,-0.4 0.3,0.8 -0.2,1.5 -1.8,2.4 -1,0.5 -1.4,0.6 -1.8,0.4 -0.3,-0.3 -0.6,-0.3 -1.3,0 -0.7,0.2 -1,0.2 -1.2,-0.1 -0.3,-0.4 -0.5,-0.4 -1.7,0.2 -1.3,0.8 -1.9,0.8 -5.4,0.8 -4.8,0 -6.8,0.5 -8,2.1 -0.8,1 -2.1,4.5 -2.1,5.5 0,0.2 -0.3,0.6 -0.7,0.7 -0.4,0.2 -0.6,0.3 -0.5,0.4 1,0.2 1.9,0.4 4.6,0.6 1.8,0.1 3.6,0.3 4,0.3 0.8,0 0.9,-0.1 1.1,-1.1 z m 15.5,-16.8 c -0.2,-0.2 -0.3,-0.4 -0.2,-0.5 0.3,-0.3 1.5,0.1 1.5,0.5 0,0.4 -0.7,0.4 -1.3,0 z M 215,221.1 c -0.7,-0.1 -2.1,-0.1 -2.9,0 -0.8,0.1 -0.2,0.1 1.4,0.1 1.6,0 2.2,0 1.5,-0.1 z m 16.8,0 c -0.3,-0.1 -0.8,-0.1 -1.2,0 -0.2,0.1 0,0.2 0.6,0.2 0.6,0 0.9,-0.1 0.6,-0.2 z M 43.65,218.8 c -7,-1 -13.34,-5.8 -16.25,-12.4 -0.77,-1.8 -1.67,-5 -1.67,-6.1 v -0.7 H 16.77 7.805 l 0.19,-0.9 c 0.48,-2.2 0.87,-3 1.92,-3.9 1.035,-0.9 1.545,-1.2 3.175,-1.4 0.42,-0.1 0.71,-0.4 0.8,-1 0.51,-2.8 4.35,-4.8 7.23,-3.7 0.74,0.3 0.93,0.2 1.19,-0.2 0.7,-1.3 2.82,-3.2 4.19,-4 0.83,-0.3 2.31,-0.8 3.33,-0.8 1.57,-0.2 2.05,-0.4 3.33,-1.6 1.76,-1.6 6.05,-3.7 8.57,-4.3 2.28,-0.6 7.33,-0.6 9.6,0 5.73,1.3 11.27,5.7 13.73,10.9 0.74,1.4 1.32,2.8 1.32,3 0,0.2 0.44,0.6 0.99,0.9 0.54,0.4 1.47,1.3 2.11,2.2 0.83,1.2 1.28,1.5 1.66,1.4 2.53,-1.1 5.53,-0.1 6.93,2.2 0.4,0.8 0.8,1.6 0.8,1.9 0,0.4 0.2,0.5 0.8,0.5 2.2,0 4.5,2.3 4.9,4.8 l 0.1,1.3 h -9.62 c -8.9,0 -9.67,0 -9.86,0.6 -0.51,1.3 -2.78,4.3 -4.7,6 -4.42,4.1 -10.92,6.1 -16.84,5.3 z m 7.84,-1.9 c 4.2,-1 8.97,-4.4 11.27,-8 0.58,-0.9 1.06,-1.7 1.06,-1.8 0,-0.1 -4.32,-0.2 -9.61,-0.2 h -9.6 V 206 c 0,-3.8 3.4,-7.8 7.14,-8.5 0.96,-0.2 1.31,-0.5 1.73,-1.4 0.89,-1.9 2.97,-3.7 5.09,-4.5 1.53,-0.6 2.3,-0.7 4.03,-0.6 l 2.18,0.2 -0.45,-1.1 c -1.57,-3.7 -5.67,-7.9 -9.48,-9.6 -5.76,-2.7 -12.86,-2.4 -18.27,0.9 -6.27,3.7 -9.92,10.6 -9.47,17.8 0.35,5.2 2.02,8.8 5.66,12.5 5,5.1 11.68,7 18.72,5.2 z m 31.48,-11.7 c 0,-1.6 -2,-3.1 -4.1,-3.1 -1.2,0 -1.3,0 -1.3,-0.9 0,-1.4 -1,-2.9 -2.43,-3.6 -1.66,-0.8 -2.24,-0.8 -3.87,0.2 l -1.34,0.7 -0.83,-1.7 c -3.08,-6.3 -12.04,-5.9 -14.76,0.7 -0.32,0.8 -0.67,1.1 -1.18,1.1 -3.14,0 -6.91,3.5 -6.95,6.3 v 0.7 h 18.41 c 16.35,0 18.35,0 18.35,-0.4 z m -57.24,-8.5 c 0,-0.8 0.23,-2.4 0.48,-3.5 0.45,-1.9 2.31,-6.1 3.17,-7.1 0.93,-1.1 0.9,-1.3 -0.19,-1.1 -2.43,0.5 -5.28,2.9 -6.05,5.2 -0.35,1 -0.74,1.3 -1.09,0.7 -0.13,-0.2 -0.73,-0.5 -1.37,-0.8 -1.48,-0.6 -2.95,-0.4 -4.23,0.7 -0.93,0.8 -1.82,3 -1.44,3.6 0.13,0.2 -0.35,0.4 -1.12,0.4 -2.05,0 -3.81,1.1 -4.295,2.7 l -0.22,0.8 h 8.165 8.19 z m 220.87,16.7 c -0.6,-0.2 -0.4,-1.6 0.3,-2.1 1.2,-0.8 0.7,-4.6 -0.9,-5.9 -1.5,-1.4 -2.3,-1.8 -2.6,-1.5 -0.1,0.2 -0.8,0.7 -1.5,1.1 -3.8,2.2 -5.5,3.4 -6,4.3 -0.5,0.7 -0.9,1 -1.6,1 -1.3,0 -1.4,-0.7 -0.5,-2.6 0.5,-1.2 1.3,-2.2 3.2,-3.8 l 2.5,-2.2 -0.8,-0.8 c -0.5,-0.5 -1.3,-1.6 -1.9,-2.6 l -1.2,-1.7 -1.8,0.2 c -1.5,0.2 -1.9,0.1 -2.6,-0.4 l -0.8,-0.7 1,-1 c 0.6,-0.6 1.1,-1.4 1.1,-1.7 0,-0.3 0.4,-1 1,-1.5 0.6,-0.6 1,-1.3 1,-1.6 -0.2,-0.8 0.9,-1.3 1.9,-0.7 1.2,0.7 1.3,0.7 3.2,1.1 1.2,0.2 2.5,0.8 3.8,1.7 3.4,2.3 3.1,2.2 8.3,1.9 6.7,-0.6 8.8,0 12.1,3.2 0.9,0.9 2.4,2.3 3.3,3.1 2.2,1.9 3.9,5.3 2.8,5.9 -0.3,0.2 -3.1,-0.9 -3.9,-1.6 -0.3,-0.3 -0.5,-0.5 -0.5,-0.3 0,0.1 0.3,0.6 0.8,1 0.7,0.7 0.8,0.9 0.8,3.5 0,3.5 -0.2,4.1 -1.2,4.6 -1.1,0.5 -1.9,0.4 -2.5,-0.2 -0.7,-0.6 -0.6,-1 0.3,-1.8 1.2,-1 1.1,-2.8 -0.3,-4.2 -4,-3.9 -4.2,-4 -4.8,-3.4 -0.3,0.3 -0.5,1 -0.5,1.6 0,0.6 -0.2,1.3 -0.4,1.7 -0.4,0.9 -3.6,5.1 -4.2,5.8 -0.7,0.7 -3,0.7 -3.3,0 -0.2,-0.4 -0.2,-0.4 -0.7,0 -0.6,0.5 -2.2,0.9 -2.9,0.6 z m 8.1,-4.4 c 1.7,-2.4 2.1,-3.2 2.1,-4.2 0,-0.7 0.2,-1.5 0.4,-1.7 0.4,-0.3 0.2,-0.4 -1,-0.2 -0.8,0.1 -1.6,0.3 -1.7,0.5 -0.1,0.1 0.1,0.7 0.6,1.3 0.4,0.6 0.8,1.2 0.8,1.4 0,0.5 -2.2,4.1 -3.1,5.1 -0.5,0.5 -0.7,0.8 -0.5,0.8 0.1,0 1.2,-1.3 2.4,-3 z m -1.9,0 c 1.5,-2.3 1.6,-2.9 0.8,-4 -0.3,-0.5 -0.6,-1.1 -0.6,-1.3 0,-0.1 -0.6,-0.3 -1.5,-0.3 h -1.4 v 3.8 3.8 l 0.8,-0.1 c 0.5,-0.1 1.1,-0.8 1.9,-1.9 z m 12.4,-2.8 c -0.9,-1 -1.5,-2.4 -2.1,-4.5 -0.4,-1.5 -0.4,-1.9 0,-2.1 0.3,-0.3 0.6,-0.1 1.2,0.7 0.4,0.5 0.8,1.3 0.9,1.6 0.2,0.5 2.7,2.5 3.2,2.5 0.6,0 -0.8,-2 -2.3,-3.3 -0.9,-0.7 -2.5,-2.2 -3.5,-3.2 -2.7,-2.6 -3.7,-2.9 -11,-2.8 -3.2,0.1 -6.1,0 -6.4,-0.1 -0.4,-0.2 -0.5,-0.2 -0.3,0.4 0.1,0.5 0,0.7 -0.9,0.8 -0.5,0.2 -0.9,0.4 -0.9,0.6 0,0.6 -0.8,0.8 -2.5,0.8 -1.8,0 -2.5,-0.3 -2.2,-1 0.1,-0.4 0.4,-0.5 1.2,-0.3 1,0.1 1.1,0.1 1.1,-0.6 0,-0.7 0.1,-0.8 1.1,-0.7 1,0.1 1.2,0 1.4,-0.6 0.2,-0.9 0,-1.1 -1.5,-1.9 -1.5,-0.8 -5.4,-1.6 -5.7,-1.3 -0.1,0.1 -0.6,0.5 -1.2,1 -0.6,0.4 -1,1 -1,1.4 0,0.3 -0.3,1 -0.7,1.4 -0.8,0.8 -0.6,0.9 1,0.4 1.4,-0.5 2.3,-0.1 3.5,1.7 1.6,2.7 2.8,3.7 5.6,5 3.2,1.5 4.9,3 5.3,4.5 0.2,1.1 0.3,1 0.3,-0.6 0,-1.2 -0.2,-2.1 -0.5,-2.5 -0.3,-0.4 -0.4,-0.9 -0.3,-1 0.1,-0.2 1.7,-0.4 3.6,-0.5 1.9,-0.1 4.5,-0.3 5.7,-0.4 2.2,-0.2 2.3,-0.2 3.1,0.7 0.4,0.5 1.6,1.7 2.7,2.7 1.1,0.9 2.1,2 2.3,2.4 0.2,0.6 0.2,0.6 0.3,0.1 0.1,-0.4 -0.1,-1 -0.5,-1.3 z M 234.6,193 c 0.1,-0.3 0.5,-0.5 0.9,-0.5 0.7,0 0.7,0 0.1,0.5 -0.8,0.6 -1.2,0.6 -1,0 z m 5.5,11.5 c 0.6,-0.3 0.9,-0.7 0.8,-0.8 -0.1,-0.2 0.1,-0.2 0.3,-0.1 0.8,0.3 0.9,-0.4 0.2,-0.7 -0.7,-0.3 -1.1,-0.1 -3.3,1.8 -1.4,1.3 -2.6,2.4 -2.7,2.6 0,0.1 0.8,-0.3 1.8,-1 1,-0.6 2.3,-1.5 2.9,-1.8 z m -45.8,3.8 c -0.8,-0.2 -2.5,-1.3 -2.5,-1.5 0.1,-0.1 -0.1,-0.6 -0.4,-1.1 -0.2,-0.5 -0.6,-1.4 -0.8,-2.1 -0.6,-1.8 -0.8,-2 -1.3,-0.9 -0.2,0.6 -0.6,1 -0.9,1 -0.5,0 -1.3,-1.8 -1.3,-3 0,-1.1 0.8,-3 1.6,-4 0.6,-0.5 0.8,-1.2 0.9,-3.2 0.2,-3 0.6,-3.5 3.4,-4.9 2.1,-1 4.2,-1.1 8.7,-0.5 3.8,0.5 5.5,0.1 8.5,-2.1 1.6,-1.2 3.1,-2 4.7,-2.5 3,-0.9 3,-0.9 3,0.1 0.1,0.7 0.4,1.1 1.2,1.6 0.6,0.4 1.3,1.1 1.5,1.6 0.2,0.5 0.7,1.1 1.2,1.4 0.9,0.6 1,1.5 0.1,2.2 -0.5,0.5 -0.9,0.5 -2.2,0.4 -1.5,-0.2 -1.6,-0.2 -2.3,0.8 -0.5,0.6 -1.6,2.5 -2.6,4.1 -1,1.7 -2,3.3 -2.4,3.7 -0.6,0.5 -0.7,0.9 -0.7,3.3 0,2.6 0.1,2.8 0.8,3.4 0.7,0.5 0.8,0.9 0.7,1.4 -0.2,0.5 -0.5,0.6 -2.9,0.8 -3.2,0.1 -3.6,0.1 -4,-0.9 -0.4,-0.9 -1.3,-6.8 -1.3,-8.4 v -1 h -1.8 c -1.7,0 -1.8,0 -3.7,1.8 -1.8,1.8 -1.9,2 -1.5,2.9 0.6,1.6 1.6,2.9 2.2,2.9 0.8,0 1.4,1.1 0.9,2 -0.5,1 -2.1,0.8 -3.4,-0.5 -1.2,-1.3 -3.3,-5 -3.3,-5.7 0,-0.8 -0.5,-0.7 -0.9,0 -0.5,1 0.6,3.6 1.7,4.3 0.7,0.3 1,0.7 1.1,1.5 0,0.5 -0.1,1 -0.3,1 -0.1,0 -0.4,0.1 -0.7,0.1 -0.2,0.1 -0.7,0.1 -1,0 z m -1,-2.7 c -0.4,-0.5 -0.7,-0.9 -0.7,-0.8 -0.2,0.2 0.9,1.8 1.1,1.8 0,0 -0.2,-0.4 -0.4,-1 z m 16.9,-2.5 c -0.1,-1.7 -0.1,-2.4 0.3,-3.2 0.3,-0.5 0.4,-1 0.3,-1 -0.4,0 -1.3,1.1 -1.3,1.7 0,1 0.6,4.7 0.8,4.7 0.1,0 0.1,-1 -0.1,-2.2 z m -2.1,-3.3 c 0.3,-0.6 1.3,-1.5 2.2,-2.1 2.7,-1.7 3.3,-2.3 4.5,-4.6 0.6,-1.2 1.6,-2.6 2.1,-3 0.9,-0.8 1.2,-0.8 2.5,-0.7 1.8,0.3 1.9,0.1 0.8,-0.8 -0.5,-0.3 -0.8,-0.8 -0.8,-1.1 0,-0.2 -0.7,-0.8 -1.5,-1.4 -1.4,-0.8 -1.6,-0.8 -1.9,-0.4 -0.4,0.5 -0.5,0.5 -0.9,0 -0.7,-0.8 -1.2,-0.7 -3.4,0.9 -2.2,1.6 -2.3,2.5 -0.4,2.3 1.1,0 1.2,0 1.2,0.7 -0.1,0.6 0,0.7 1.2,0.5 0.9,-0.1 1.2,-0.1 1.2,0.3 0,0.7 -1,1.2 -2.7,1.2 -1.2,0 -1.6,-0.2 -1.7,-0.7 -0.1,-0.4 -0.5,-0.6 -1.2,-0.7 -0.7,-0.1 -1,-0.2 -0.9,-0.7 0,-0.3 -0.1,-0.5 -0.5,-0.4 -1.7,0.5 -3.8,0.6 -7.5,0.2 -3.8,-0.4 -4.4,-0.3 -5.8,0.1 -0.9,0.3 -2,0.9 -2.6,1.3 -0.9,0.8 -1,1.1 -1.1,4.9 0,0.4 -0.5,1.2 -1,1.9 -0.8,0.9 -1.8,3.2 -1.4,3.6 0,0 0.5,-0.6 1.2,-1.5 1.3,-1.7 1.9,-3.4 2,-5.5 0,-1.2 0.1,-1.4 0.6,-1.4 0.6,0 0.7,0.2 0.8,3 0.1,3 0.1,3.1 -0.9,4.4 l -1,1.3 0.6,1.5 c 0.2,0.8 0.5,1.4 0.6,1.4 0,-0.1 -0.1,-0.6 -0.3,-1.2 -0.5,-1.6 -0.1,-2.4 2.3,-4.2 1.2,-0.9 2.3,-1.9 2.4,-2.3 0.2,-0.6 0.4,-0.6 2.4,-0.4 1.1,0.1 3.2,0.3 4.7,0.4 2.5,0.2 2.5,0.3 2.5,1 -0.1,0.5 0,2.3 0.2,4 l 0.4,3.2 0.2,-2 c 0.2,-1.1 0.6,-2.5 0.9,-3 z m 9.4,-12.4 c -0.3,-0.2 -0.4,-0.4 -0.3,-0.5 0.3,-0.3 1.2,0.1 1.2,0.5 0,0.4 -0.3,0.4 -0.9,0 z m -19.2,11.8 1.7,-1.4 -1,-0.2 c -0.7,-0.1 -1,0 -1.5,0.5 -0.3,0.4 -0.5,0.9 -0.5,1.1 0,0.3 -0.3,0.9 -0.6,1.3 -0.4,0.4 -0.5,1 -0.5,1.4 0.2,0.6 0.3,0.6 0.5,-0.3 0.2,-0.7 0.9,-1.5 1.9,-2.4 z m 34.1,-17 c -5.7,-1.4 -8.5,-8.1 -5.5,-13.2 2.9,-4.9 10.3,-5.9 14.1,-1.8 2.6,2.8 3.3,6.9 1.8,10 -1.9,3.9 -6.3,6.1 -10.4,5 z m 5,-1.6 c 0.5,-0.2 0.9,-0.5 0.9,-0.6 0,-0.2 0.1,-0.3 0.2,-0.2 0.4,0.3 2.3,-1.6 3,-3 0.8,-1.5 0.8,-4.6 0.1,-6.3 -1.6,-3.8 -6.4,-5.6 -10.3,-3.8 -4.5,2.1 -5.7,7.9 -2.5,11.7 2.2,2.5 5.5,3.4 8.6,2.2 z M 21.67,136.7 c 0.38,-4.3 2.21,-7.8 4.61,-9 1.05,-0.5 1.34,-0.8 1.37,-1.5 0,-0.4 0.48,-1.6 1.03,-2.7 0.96,-1.7 1.05,-2.2 1.09,-4.9 0.1,-3.1 0.1,-3.1 1.21,-4.2 1.7,-1.7 1.54,-2.6 -0.16,-1.1 -1.69,1.5 -4.13,2.6 -6.43,2.9 -1.99,0.2 -2.37,-0.1 -1.06,-0.8 0.8,-0.5 0.8,-0.5 -1.34,-1.4 -1.6,-0.8 -2.63,-1.6 -3.87,-2.9 -0.9,-1.1 -1.67,-2 -1.67,-2.2 0,-0.1 0.48,-0.1 1.06,0 0.54,0.2 2.17,0.3 3.58,0.3 2.63,-0.1 4.04,-0.6 6.31,-2.2 0.86,-0.7 3.13,-3.8 3.13,-4.3 0,-0.2 -0.35,-0.5 -0.8,-0.7 -1.15,-0.5 -3.87,-3.14 -5.28,-5.04 -0.67,-0.9 -1.6,-2.7 -2.08,-4 -0.8,-2.1 -0.89,-2.9 -0.93,-5.9 0,-2.9 0.1,-3.9 0.71,-5.7 1.28,-3.7 3.97,-7.2 7.17,-9.3 0.67,-0.4 1.15,-0.8 1.05,-0.9 -0.1,-0.1 0.13,-0.2 0.42,-0.2 0.29,0 1.41,-0.3 2.46,-0.8 2.6,-0.9 6.98,-1.1 9.76,-0.4 6.88,1.7 11.88,6.9 13.28,13.9 0.29,1.3 0.55,2.5 0.61,2.7 0.1,0.3 2.12,-2.3 2.12,-2.7 0,-0.2 -0.36,-0.5 -0.8,-0.7 l -0.84,-0.4 0.71,-0.9 c 0.38,-0.5 1.02,-1.1 1.44,-1.2 0.48,-0.2 1.05,-1 1.66,-2.3 0.51,-1.1 1.54,-2.7 2.27,-3.5 0.77,-0.8 1.83,-2.3 2.37,-3.3 0.71,-1.3 1.25,-2 1.73,-2 0.8,-0.2 1.7,1 1.7,2.1 0,0.5 0.19,0.7 0.6,0.7 0.9,0 1.09,0.9 0.68,3.3 -0.29,1.6 -0.26,2.4 0.12,4.2 0.68,2.9 0.71,11.5 0,15.3 -0.58,3.3 -1.54,5.34 -3.52,7.64 -0.8,0.9 -1.44,1.8 -1.44,2 0,0.3 -0.61,1.6 -1.32,3.1 -1.24,2.5 -1.31,2.8 -1.15,4.6 0.23,2 0.67,3.9 1.15,4.6 0.2,0.4 0.9,0.4 3.75,0.1 1.92,-0.2 4.61,-0.5 5.95,-0.6 2.49,-0.1 2.49,-0.1 3.49,0.9 1.7,1.8 1.7,6.1 0.2,10.1 -1.6,3.9 -4.33,9.3 -5.39,10.3 l -0.99,1.1 H 46.44 21.48 Z M 72.14,136 c 1.4,-2 3.93,-7.5 4.83,-10.3 0.8,-2.9 0.8,-6.3 -0.2,-7.4 -0.7,-0.8 -1.3,-0.8 -5.75,-0.3 -1.76,0.1 -4.48,0.4 -6.05,0.6 -2.66,0.2 -3.01,0.4 -5.6,2 -1.51,1 -3.27,1.9 -3.88,2.1 -0.6,0.2 -3.58,0.6 -6.62,1 -3.78,0.4 -6.43,0.9 -8.48,1.6 -1.63,0.5 -4.7,1.3 -6.82,1.8 -2.11,0.4 -4.57,1 -5.47,1.3 -2.81,0.8 -4.51,3.3 -5.12,7.5 l -0.19,1.6 H 46.95 71.14 Z M 30.92,124.6 c 0.51,-1.1 1.25,-3 1.66,-4.3 0.45,-1.3 0.93,-2.6 1.12,-2.9 0.16,-0.3 2.21,-1.7 4.58,-3.1 3.77,-2.3 4.38,-2.8 5.47,-4.5 2.08,-3.1 4.93,-3.8 9.31,-2.5 1.19,0.4 3.04,0.7 4.07,0.7 1.6,0 1.89,0.1 1.89,0.6 0,0.7 1.6,5.9 2.4,7.7 0.38,0.9 0.8,1.3 1.18,1.3 0.7,0 0.7,0.1 0.1,-1.6 -0.28,-0.8 -0.54,-2.5 -0.54,-4.1 0,-2.5 0,-2.9 0.83,-4.1 0.48,-0.8 1.12,-2.2 1.41,-3.2 0.38,-1.1 0.86,-2 1.41,-2.4 1.15,-0.8 2.69,-3.34 3.33,-5.44 0.8,-2.6 1.05,-13.6 0.38,-16.9 -0.29,-1.3 -0.45,-2.5 -0.38,-2.7 0.32,-1.1 0.44,-3.4 0.12,-3.3 -0.67,0.5 -1.31,-0.5 -1.08,-1.6 0.32,-1.7 -0.64,-1.4 -1.7,0.6 -0.48,0.9 -1.44,2.2 -2.18,2.9 -0.7,0.8 -1.63,2.2 -2.04,3.2 -0.61,1.5 -1.03,2 -1.92,2.5 l -1.12,0.5 1.24,0.6 c 0.68,0.3 1.41,0.4 1.64,0.3 0.48,-0.1 0.89,0.7 0.6,1.2 -0.12,0.2 -0.67,0.2 -1.28,0.2 -0.99,-0.2 -1.12,-0.1 -2.04,1.4 -1.09,1.6 -2.57,2.9 -4.84,4.2 -1.09,0.7 -1.25,0.8 -0.7,0.8 0.38,0 1.09,-0.1 1.57,-0.3 0.8,-0.3 0.83,-0.3 0.64,0.4 -0.58,2.2 -0.58,2.2 0,2 1.22,-0.2 6.5,-0.4 6.5,-0.2 0,0.1 -0.55,0.6 -1.19,1 l -1.15,0.8 1.22,0.3 c 0.76,0.1 1.66,0.1 2.33,-0.1 1.28,-0.5 2.05,0 1.38,0.7 -0.58,0.8 -2.98,0.9 -5.03,0.4 -2.2,-0.6 -2.27,-0.6 -1.69,-1.3 0.41,-0.5 0.22,-0.5 -2.21,-0.4 -2.85,0.2 -2.82,0.2 -2.18,-1.4 0.32,-0.7 -0.99,-1 -2.17,-0.3 -0.55,0.2 -1.67,0.9 -2.47,1.5 -1.76,1.3 -3.77,2.1 -5.37,2.1 -1.96,0 -3.59,0.6 -6.37,2.4 -3.23,2.14 -5.92,4.54 -5.7,5.24 0.1,0.2 0.1,0.3 -0.13,0.2 -0.16,-0.1 -0.67,0.5 -1.12,1.3 -1.85,3.1 -5.28,5.2 -9.21,5.6 l -2.28,0.2 1.8,1.2 c 1.44,1 2.14,1.2 3.74,1.4 1.44,0.1 1.95,0.3 1.83,0.6 -0.26,0.6 0.92,0.3 2.43,-0.8 1.47,-0.9 3.52,-3.7 4.13,-5.6 0.25,-0.8 0.57,-1.2 0.99,-1.2 0.73,0 0.73,0.7 0,2.2 -0.36,0.7 -0.61,1.9 -0.61,2.9 0,1.2 -0.26,2 -0.77,2.9 -0.42,0.6 -0.7,1.2 -0.64,1.4 0,0.1 -0.13,0.2 -0.32,0.1 -0.29,0 -0.48,0.8 -0.61,2.9 -0.19,2.4 -0.41,3.4 -1.21,5.1 -1.16,2.4 -1.22,3 -0.42,2.8 0.29,-0.1 0.93,-1 1.41,-2.1 z m 33.6,-47.04 c 0,-0.4 0.29,-0.8 0.51,-0.9 0.55,-0.1 0.48,0.8 -0.13,1.3 -0.44,0.3 -0.48,0.3 -0.38,-0.4 z M 35.94,125.3 c 1.31,-0.4 2.43,-0.7 2.5,-0.8 0.16,-0.1 -0.48,-5 -0.67,-5.2 -0.1,-0.1 0.22,-0.6 0.64,-1.3 0.41,-0.6 0.76,-1.5 0.76,-2 v -1 l -1.82,1.2 c -2.4,1.5 -2.88,2.1 -3.49,4.3 -0.29,1 -0.93,2.7 -1.41,3.8 l -0.89,1.9 0.99,-0.2 c 0.58,0 2.08,-0.4 3.39,-0.7 z m 4.51,-2.9 c 0,-2.1 0.26,-2.5 3.04,-5.4 1.28,-1.3 2.53,-2.9 2.85,-3.4 0.42,-0.9 1.44,-4.5 1.47,-5.3 0,-0.6 -2.24,0.9 -2.59,1.7 -0.48,1.2 -2.43,3.2 -3.68,3.9 -0.89,0.4 -1.02,0.7 -1.21,2.3 -0.13,1 -0.48,2 -0.8,2.5 -0.45,0.5 -0.52,0.9 -0.36,1.8 0.16,0.6 0.36,1.7 0.45,2.3 0.32,1.8 0.83,1.5 0.83,-0.4 z m 5.92,0.3 c 1.41,-0.1 3.88,-0.4 5.44,-0.6 2.85,-0.4 4.96,-1 4.96,-1.5 0,-0.1 -0.22,-1 -0.48,-2 -0.25,-1 -0.57,-3.5 -0.67,-5.5 L 55.4,109.3 54.09,109 c -0.74,-0.2 -1.96,-0.6 -2.72,-0.8 -0.8,-0.3 -1.6,-0.5 -1.83,-0.5 -0.22,0 -0.54,0.9 -0.77,2.2 -0.57,3.2 -1.34,4.7 -3.61,7 -3.01,3.2 -3.43,3.8 -3.43,5.3 0,1.3 0,1.3 1.06,1.1 0.54,-0.2 2.18,-0.4 3.58,-0.6 z m 12.07,-3 c 0.32,-0.1 0.42,-1 0.35,-3.6 -0.1,-4.3 -0.64,-6.8 -1.5,-6.8 -0.58,0 -0.58,0.2 -0.42,3.4 0.16,3 0.77,7.2 1.06,7.2 0,0 0.25,-0.1 0.51,-0.2 z m 2.34,-1.4 c 0.1,-0.2 0,-0.7 -0.29,-1.2 l -0.48,-0.9 v 1.2 c 0,1.1 0.38,1.5 0.8,0.9 z m -28.01,-18 c 0.58,-0.54 2.34,-1.84 3.88,-2.84 2.88,-2 5.28,-2.9 7.16,-2.9 0.58,0 1.51,-0.2 2.12,-0.4 1.08,-0.3 5.08,-2.8 5.08,-3.1 0,-0.1 -0.76,-0.5 -1.66,-0.9 -0.9,-0.4 -1.57,-0.8 -1.5,-0.9 0.1,-0.1 1.02,0 2.08,0.2 1.79,0.4 2.01,0.3 3.58,-0.5 l 1.66,-0.8 v -1.9 c 0,-9.1 -8.44,-16.4 -17.72,-15.6 -7.43,0.8 -13.41,6.4 -14.57,13.9 -0.73,4.5 0.74,9.5 3.78,12.9 1.54,1.8 4.1,3.84 4.71,3.84 0.22,0 0.83,-0.4 1.4,-1 z M 135,136.4 c -1.4,-0.7 -3.4,-1.9 -4.5,-2.6 l -2,-1.3 -0.1,-2.4 -0.1,-2.4 -0.8,1.7 c -0.4,0.9 -0.8,1.7 -0.9,1.7 -0.4,0 -5.9,-5.3 -7.4,-7.2 -1.7,-2.2 -1.7,-2 -1.1,-5.1 l 0.2,-1 -0.9,1.1 -1,1.1 -0.7,-1.4 c -2.2,-4.1 -3.5,-8.2 -3.8,-11.8 l -0.1,-2.5 2.6,-5.14 c 1.4,-2.8 3.6,-6.9 4.7,-9.1 l 2.1,-3.9 -0.4,-2 c -0.4,-2.5 -0.4,-7 0,-9.2 0.6,-2.5 2.4,-6.3 3.8,-7.7 4,-4.2 6.9,-1.5 9,8.7 0.4,1.9 0.7,3.7 0.8,4.1 0.2,0.7 0.3,0.7 3.7,0.7 h 3.4 l 0.2,-1.7 c 0.3,-2.5 2,-8.9 2.8,-10.5 0.9,-1.7 1.8,-2.8 2.8,-3.2 1.6,-0.6 4.3,1.5 6,4.6 1.9,3.5 2.7,9.8 1.8,14.1 -0.4,1.8 -0.4,1.9 0.8,4.2 0.6,1.2 2.8,5.5 4.7,9.3 l 3.6,7.14 -0.3,2.3 c -0.3,3.2 -1.2,6.4 -2.6,9.5 -1.6,3.6 -1.7,3.7 -2.8,2.3 -0.5,-0.5 -0.9,-0.8 -0.8,-0.5 0.1,0.3 0.3,1.2 0.4,2 0.2,1.4 0.2,1.6 -1.1,3.2 -2,2.6 -7.5,8 -7.8,7.5 -0.1,0 -0.4,-0.7 -0.7,-1.5 -0.8,-1.8 -1.1,-1.9 -1.1,-0.3 0.1,3.3 0.2,3.3 -2.4,4.8 -2.4,1.6 -6.7,3.8 -7.1,3.8 -0.2,0 -1.4,-0.6 -2.9,-1.4 z m 6.3,-1.7 c 1.5,-0.9 3.2,-1.9 3.8,-2.2 l 1.1,-0.6 -0.2,-4 -0.1,-3.9 0.7,0.7 c 0.5,0.5 1.3,1.5 2,2.4 0.6,0.8 1.2,1.6 1.2,1.7 0.2,0.2 4.2,-3.7 5.7,-5.7 1.4,-1.7 1.4,-1.7 1.1,-3.3 -0.2,-1 -0.5,-2.4 -0.8,-3.2 -0.3,-0.9 -0.4,-1.6 -0.4,-1.7 0.1,-0.1 1,0.4 2,1.1 1,0.7 1.9,1.3 1.9,1.3 0.4,0 2,-4.3 2.7,-6.9 0.8,-3.5 1,-5.8 0.3,-6.7 -0.2,-0.3 -2.4,-4.44 -4.8,-9.14 l -4.3,-8.5 0.4,-1.9 c 0.6,-2.5 0.6,-6.7 0,-9.3 -1.1,-5 -4.5,-9.1 -6.5,-7.9 -0.5,0.4 -1.8,3.2 -2.5,5.7 -0.6,1.7 -2,8.6 -2,9.3 0,0 -2.1,0.1 -4.6,0.1 h -4.6 l -0.8,-4.3 c -1,-5 -1.9,-7.8 -3,-9.7 -1,-1.7 -1.9,-1.8 -3.6,-0.3 -3.5,3.2 -5.2,10.7 -3.7,16.4 0.3,1.4 0.4,2.2 0.2,2.5 -0.2,0.2 -2.4,4.4 -4.9,9.3 l -4.5,8.94 0.2,1.9 c 0.3,2.7 1.3,6.4 2.4,8.9 l 0.9,2.1 1.1,-1 c 1.1,-1.1 2.5,-2 2.9,-2 0.1,0 -0.1,0.8 -0.4,1.7 -1,2.9 -1.2,4.8 -0.5,5.8 0.7,1.1 5.3,5.9 6,6.2 0.4,0.3 0.6,0.2 1,-0.5 0.3,-0.5 1.1,-1.6 1.9,-2.5 l 1.5,-1.6 -0.2,3.9 -0.2,3.8 1.4,1 c 2.2,1.5 6.1,3.6 6.8,3.6 0.4,0 1.9,-0.7 3.4,-1.5 z m -6.3,-8.6 c -0.6,-0.2 -1.3,-0.9 -1.6,-1.5 -0.3,-0.5 -1.3,-1.7 -2.2,-2.6 -0.9,-1 -1.8,-2.3 -2.1,-2.9 -0.3,-1.1 -0.4,-1.2 -0.7,-0.6 -0.2,0.3 -0.4,1.9 -0.4,3.5 0,1.6 0,3 -0.1,3 0,0 -0.6,-0.4 -1.3,-0.8 -1.4,-0.9 -3.6,-3.2 -4.4,-4.7 -0.8,-1.5 -0.8,-5 0.1,-7.2 0.4,-1 0.7,-1.8 0.7,-1.9 0,-0.2 -2.2,2.4 -2.9,3.4 -0.6,0.9 -0.9,0.8 -1.9,-1.2 -0.6,-1.2 -0.8,-2 -0.8,-3.8 0.1,-2.8 1.1,-4.8 4,-7.7 2,-2.14 2,-2.14 1.6,-3.14 -0.5,-1.1 -0.6,-5.1 -0.2,-5.5 0.4,-0.5 3.9,-0.5 5.8,-0.2 2.7,0.6 4.2,1.8 5.4,4.1 1.8,3.84 1.1,7.94 -2.8,16.34 -1.6,3.5 -1.7,4.2 -0.4,6.6 1.1,2.2 3,3.1 5.3,2.5 1.2,-0.3 1.2,-0.4 1.3,-1.9 0.1,-1.6 0,-1.6 -1.1,-2.2 -2.3,-1.2 -3.6,-3.2 -3,-4.7 0.1,-0.4 0.4,-0.8 0.6,-1 0.2,-0.1 2.1,-0.2 4.3,-0.2 4.3,0.1 4.7,0.3 4.7,2.2 0,1.2 -1.6,3.2 -3.1,3.7 -1.1,0.4 -1.1,0.4 -1,2.2 l 0.1,1.7 1.3,0.3 c 1.7,0.4 3,-0.1 4.3,-1.6 1.1,-1.2 1.7,-3.3 1.4,-4.6 -0.1,-0.4 -0.9,-2.3 -1.7,-4.1 -2.3,-4.9 -3,-7.2 -3.2,-10.2 -0.1,-2.24 0,-2.94 0.6,-4.34 0.8,-2.1 2.2,-3.5 4,-4.3 1.5,-0.6 6.5,-1 7.2,-0.5 0.7,0.5 0.8,3.7 0.2,5.4 l -0.6,1.4 1.2,1.04 c 0.7,0.5 1.7,1.7 2.4,2.5 0.7,0.9 1.3,1.5 1.5,1.3 0.1,-0.1 0.1,0 0,0.2 -0.1,0.2 0.1,1 0.4,1.7 1,2.1 0.9,4.6 -0.2,6.6 -1,2 -1.3,2.3 -1.7,1.7 -0.5,-0.9 -2.9,-3.9 -3.1,-3.7 0,0 0.2,0.8 0.6,1.6 0.3,0.8 0.7,2.4 0.8,3.5 0.2,1.7 0.1,2.3 -0.6,3.8 -0.4,0.9 -1.3,2.2 -1.9,2.8 -1.2,1.2 -3.4,2.9 -3.8,2.9 -0.1,0 -0.2,-1 -0.1,-2.2 0.1,-1.2 0,-2.7 -0.2,-3.5 l -0.4,-1.4 -0.7,1.5 c -0.4,0.9 -1.2,2.1 -1.9,2.6 -0.7,0.6 -1.2,1.3 -1.2,1.5 0,0.8 -1.3,2.2 -2.4,2.6 -1.4,0.6 -4.8,0.6 -6.1,0 z m 5.6,-1.4 c 1.7,-0.8 1.6,-1.2 -0.2,-1.5 -2.8,-0.4 -6.3,-0.1 -6.1,0.6 0.2,0.7 2.3,1.5 3.8,1.5 0.8,0 1.9,-0.2 2.5,-0.6 z m -13.2,-7.2 c 0.2,-0.5 0.6,-1.3 0.9,-1.8 0.6,-1.1 3.3,-7 4.3,-9.6 0.9,-2.5 1.3,-6.44 0.7,-8.14 -0.5,-1.5 -2.1,-3.4 -3.4,-3.9 -0.5,-0.2 -1.9,-0.5 -3,-0.6 -2.3,-0.3 -3.2,0.1 -3.2,1.5 0,1 0.8,3 1.4,3.7 0.5,0.6 0.4,0.7 -1.2,1.94 -3.4,2.6 -5.6,6.4 -5.2,8.9 0.1,0.8 0.3,1.7 0.5,2.1 0.3,0.6 0.4,0.6 1.2,-0.4 0.5,-0.6 1.2,-1.4 1.7,-1.9 0.8,-0.8 4.1,-2.4 4.3,-2.2 0.1,0.1 -0.3,1 -1,2.1 -1.2,2.1 -2.3,4.7 -2.5,6.5 -0.3,1.5 0.7,3.9 2.3,5.5 l 1.2,1.3 0.3,-2 c 0.1,-1.1 0.4,-2.4 0.7,-3 z m 1.5,-17 c -2.7,-0.84 -4.1,-2.54 -4.3,-5.14 l -0.1,-1.3 h 1.3 c 2.3,0.1 3.5,0.5 4.9,1.6 1.5,1.3 2.1,2.3 2.4,4.1 l 0.3,1.24 h -1.6 c -0.8,0 -2.2,-0.2 -2.9,-0.5 z m 2.8,-1.04 c 0,-0.1 -0.2,-0.6 -0.5,-1.1 -0.5,-1 -0.5,-1 -1,-0.3 -0.6,0.8 -1.6,0.8 -2.4,0.1 -0.7,-0.6 -0.8,-1.2 -0.1,-1.8 0.6,-0.6 0.5,-0.6 -1,-0.9 -0.5,-0.2 -0.8,0 -0.8,0.2 0,0.9 0.9,2.3 1.9,2.9 1,0.7 3.9,1.4 3.9,0.9 z m 20.8,19.34 c 0.3,-0.8 0.6,-1.8 0.6,-2.4 0,-1.6 -1.2,-4.8 -2.5,-7.1 -0.7,-1.1 -1.2,-2.1 -1.2,-2.2 0.1,0 0.6,0.1 1.2,0.4 1.7,0.5 3.7,2 4.7,3.4 l 1,1.4 0.5,-1.2 c 0.7,-1.6 0.6,-2.7 -0.1,-4.8 -0.8,-1.9 -3.5,-5.2 -5.4,-6.34 l -1.1,-0.7 0.7,-0.7 c 0.3,-0.4 0.8,-1.2 1,-1.8 0.3,-1.3 0.4,-3.2 0,-3.2 -0.1,0 -0.6,-0.1 -1,-0.2 -0.5,-0.1 -1.8,0 -3,0.3 -2.1,0.3 -2.4,0.5 -3.6,1.7 -1.6,1.7 -2.2,3.8 -1.9,6.54 0.3,3.1 1.5,6.1 4.9,13.2 1.3,2.6 1.8,4 1.9,5.4 l 0.2,2 1.2,-1.3 c 0.7,-0.6 1.5,-1.7 1.9,-2.4 z m -9.6,-18.5 c 0,-1.14 1,-3.24 2,-4.24 1.2,-1.1 2.6,-1.7 4.8,-2 l 1.8,-0.2 v 1.2 c 0,3.2 -2.5,5.54 -6.5,5.84 -2,0.2 -2.1,0.2 -2.1,-0.6 z m 5,-1.54 c 1.1,-0.4 1.8,-1.3 2.2,-2.5 0.2,-0.7 0.1,-0.8 -0.9,-0.8 -0.7,0 -1.2,0.2 -1.2,0.4 0,0.2 0.1,0.3 0.3,0.3 0.5,0 0.6,1.2 0.1,1.9 -0.6,0.9 -2,0.7 -2.5,-0.2 -0.4,-0.8 -0.4,-0.8 -0.9,0.3 -0.3,0.6 -0.5,1.2 -0.5,1.3 0,0.3 2.2,-0.1 3.4,-0.7 z m -7,16.44 c 0.4,-0.4 0.7,-1.1 0.7,-1.4 0,-0.6 -0.2,-0.6 -3.5,-0.6 -3.5,0 -3.5,0 -3.5,0.7 0,0.8 1.2,2.1 2.5,2.6 1.1,0.5 2.7,-0.1 3.8,-1.3 z m 9.9,-29.84 c -0.5,-2.7 -1.2,-4.6 -1.6,-4.3 -0.2,0.2 -0.9,0.5 -1.6,0.8 -1.3,0.5 -1.3,0.5 -1.1,-0.2 1,-4.1 1.5,-7.8 1.5,-10.1 0,-1.6 0.1,-2.9 0.2,-3 0.3,-0.3 2.2,2 3,3.5 1.7,3.4 1.9,7.1 0.8,11.8 -0.7,2.8 -1,3.1 -1.2,1.5 z m -0.1,-10.8 c -0.3,-1 -0.7,-2 -1,-2.3 -0.3,-0.5 -0.4,-0.4 -0.4,1 0,0.9 -0.2,2.7 -0.5,4 -0.2,1.3 -0.3,2.5 -0.3,2.5 0.1,0.1 0.3,-0.3 0.7,-1 l 0.5,-1 0.6,1.3 c 0.3,0.7 0.6,1.5 0.6,1.7 0.1,0.3 0.2,-0.6 0.2,-2 0.1,-1.8 0,-3.1 -0.4,-4.2 z m -26.5,9.5 c -1.5,-6.1 -0.7,-10.9 2.5,-14.4 l 1.4,-1.5 0.1,3.1 c 0,3 0.6,7.7 1.3,9.8 0.2,0.6 0.3,1.1 0.2,1.2 -0.1,0.1 -0.9,-0.2 -1.7,-0.6 l -1.4,-0.8 -0.5,1.6 c -0.3,0.9 -0.6,2.1 -0.7,2.7 -0.1,0.6 -0.3,1.1 -0.4,1.1 -0.2,0 -0.5,-1 -0.8,-2.2 z m 1.9,-5.7 c 0.1,-0.5 0.2,-0.5 0.9,0.4 0.3,0.6 0.6,1.1 0.7,1.1 0,0 -0.1,-1.1 -0.4,-2.3 -0.2,-1.3 -0.4,-3 -0.4,-3.9 0,-0.8 -0.1,-1.5 -0.3,-1.5 -0.9,0 -2.1,5.7 -1.8,7.9 l 0.3,1.1 0.3,-1 c 0.3,-0.7 0.6,-1.4 0.7,-1.8 z m 87,45.94 c -2.4,-2.3 -4.3,-5.4 -4.3,-6.9 0,-0.6 -0.1,-0.8 -0.5,-0.6 -0.3,0.1 -0.6,0.2 -0.8,0.2 -0.4,0 -2.7,3.2 -3.3,4.6 -0.5,1.2 -0.5,1.2 0.3,1.5 1,0.4 1.5,1.3 1.2,2.4 -0.1,0.7 -0.3,0.8 -2.2,0.8 -1.6,0 -2.2,-0.2 -2.7,-0.6 -1.4,-1.5 -1.1,-4.2 1,-8.5 1.1,-2.4 2.9,-4.7 3.6,-4.7 0.3,0 2.5,-1.9 2.8,-2.7 0.2,-0.3 0.7,-1.9 1.1,-3.4 l 0.7,-2.7 -2.7,2.7 c -1.5,1.5 -2.7,2.9 -2.7,3.1 0.1,0.1 0,0.2 -0.1,0.1 -0.1,-0.2 -1.3,0.3 -2.5,0.9 -1.2,0.6 -3.2,1.5 -4.5,1.9 -1.2,0.5 -2.6,1 -3,1.3 -0.7,0.5 -0.7,0.5 -0.7,-0.8 0,-0.7 -0.2,-1.3 -0.3,-1.3 -0.2,0 -1,0.8 -1.9,1.7 -0.9,1 -1.7,1.8 -1.9,1.8 -0.1,0 -0.1,-1.2 0,-2.7 0.3,-4.3 1.3,-5.7 5.4,-7.7 6,-3 7.1,-3.6 10.7,-6.74 4.8,-4 8.1,-6.2 9.7,-6.5 0.7,-0.1 1.6,-0.4 2,-0.7 1.6,-1.3 4.3,-2.4 6.5,-2.7 3.1,-0.4 5.6,-1.4 9.9,-3.9 3.8,-2.2 4.5,-2.7 3.5,-2.7 -0.9,0 -0.3,-0.4 3,-1.7 1.7,-0.7 4.4,-2 5.9,-2.8 3.2,-1.9 5.7,-2.9 8,-3.1 1.4,-0.2 1.5,-0.3 1.6,-1.1 l 0.1,-1 1.3,1 c 0.7,0.5 2.4,1.2 3.7,1.6 3.8,1.1 4.9,1.8 5.6,3.2 0.4,1 1,1.6 3,2.7 1.5,0.8 2.6,1.7 2.6,1.9 0,0.5 -1.3,1.8 -2.7,2.6 -0.6,0.3 -2.1,0.7 -3.6,0.9 -6,0.7 -5.9,0.6 -6.7,1.8 -0.4,0.6 -1,1.9 -1.3,2.9 -0.3,1 -0.8,2.3 -1.1,2.9 l -0.6,1.2 1.7,0.4 c 3.6,0.8 6.1,1.8 6.5,2.5 0.6,1 1.3,4.34 1.4,6.44 0,1.4 -0.2,1.8 -0.8,2.5 -0.4,0.4 -1.2,0.9 -1.7,1 -0.8,0.1 -1,0.4 -1.3,1.3 -1.2,3.8 -4.7,4.9 -5.4,1.5 -0.2,-1.3 0,-2.1 1.1,-3.4 0.6,-0.7 0.9,-1.5 1,-2.5 l 0.1,-1.5 -1.5,-0.3 c -3.1,-0.4 -7,-1.2 -7.6,-1.4 -0.4,-0.2 -1.3,-0.1 -3,0.5 -2.9,1 -6.1,1.1 -14.7,0.6 l -4.8,-0.2 -0.6,1.7 c -0.3,0.9 -1.3,3.2 -2.2,5 -1.9,4.1 -3.6,5.9 -7.2,7.7 -2.4,1.2 -2.5,1.2 -2.4,2.3 0.1,0.5 0.4,1.8 0.8,2.6 l 0.7,1.6 1.3,-0.2 c 1.5,-0.2 2.2,0.2 2.8,1.7 0.8,1.9 0.4,2.3 -2.8,2.3 h -2.1 z m 5.5,1.1 c 0.6,-0.2 0.6,-0.4 0.5,-0.9 -0.3,-0.6 -0.5,-0.7 -1.9,-0.5 l -1.6,0.1 -0.8,-1.5 c -0.4,-0.9 -1,-2.3 -1.2,-3.1 -0.6,-2.3 -0.2,-2.9 2.7,-4.2 4.2,-2.1 6.1,-4.5 8.5,-10.6 0.5,-1.4 1,-2.9 1.1,-3.4 l 0.3,-0.7 5,0.2 c 2.7,0.1 6.3,0.3 7.9,0.4 3.1,0.2 6.7,-0.5 9.4,-1.84 1.1,-0.5 1.3,-0.5 1.5,-0.2 0.2,0.7 0.8,0.94 5.5,1.64 l 4.4,0.7 -0.1,2.4 c 0,2.3 -0.1,2.6 -1,3.7 -1,1.1 -1.2,1.8 -0.8,2.8 0.3,0.8 1.2,0.6 1.9,-0.5 1.4,-2.1 2.8,-8.8 2,-9.7 -0.6,-0.84 -3.1,-2.04 -6.1,-3.04 l -2.7,-0.9 1.1,-1.2 c 0.5,-0.7 1.4,-2.4 2,-3.8 0.5,-1.5 1.1,-3 1.3,-3.4 0.1,-0.5 0.6,-1.2 1,-1.8 0.8,-1 1.4,-1.1 7.3,-1.7 2.7,-0.3 3.9,-0.8 3.7,-1.6 -0.1,-0.2 -0.2,-0.6 -0.2,-0.9 0,-0.2 -0.6,-0.7 -1.4,-1.1 -1.2,-0.5 -1.7,-1 -2.3,-2.2 -0.8,-1.5 -0.8,-1.5 -4,-2.6 -1.9,-0.6 -3.5,-1.2 -3.8,-1.3 -0.6,-0.6 -0.8,-0.1 -0.3,1.1 0.1,0.7 0.2,1.3 0.1,1.5 -0.3,0.5 -1.3,-0.5 -1.6,-1.5 -0.1,-0.5 -0.4,-0.7 -1,-0.7 -1.5,0 -5.4,1.4 -8.4,3.1 -1.5,0.9 -3.5,2 -4.5,2.4 l -1.8,0.8 1.2,0.2 c 1.4,0.3 1.5,0.5 0.5,2 l -0.6,1.2 2.8,-0.3 c 1.6,-0.1 3.4,-0.2 4,-0.3 1.5,-0.3 1.7,0.4 0.5,1.4 -0.5,0.3 -0.8,0.7 -0.8,0.8 0,0.4 3.4,0.5 4.8,0.1 1,-0.4 1.4,-0.4 1.6,-0.1 0.7,1.1 -0.6,1.6 -3.7,1.6 -3.1,-0.1 -5.1,-0.7 -4.9,-1.6 0.2,-0.5 0,-0.6 -1.4,-0.5 -0.9,0 -2.2,0 -3,-0.1 -1.6,-0.2 -1.9,-0.8 -0.8,-2.2 l 0.6,-0.8 -0.8,-0.2 c -0.8,-0.2 -2.8,0.8 -3.4,1.6 -0.1,0.1 -0.2,0.2 -0.2,0.1 0,-0.1 -1.4,0.6 -3,1.5 -3.6,2.1 -5.5,2.9 -9,3.5 -2.8,0.5 -4.7,1.2 -6.5,2.6 -0.5,0.4 -1.5,0.8 -2.2,1 -0.7,0.1 -1.6,0.3 -2.1,0.6 -0.8,0.4 -4.5,3.3 -9.1,7.04 -1.7,1.4 -3.9,2.7 -6.9,4.2 -4.8,2.3 -5.5,2.9 -6.4,4.8 -1.2,2.5 -0.8,2.6 2,0.4 2.8,-2.1 2.9,-2.1 1.8,0.6 -0.2,0.6 -0.3,1.1 -0.2,1.2 0.3,0.3 5.7,-2 7.7,-3.1 0.9,-0.6 1.7,-1.3 1.6,-1.5 0,-0.2 0.2,-0.3 0.4,-0.3 0.7,0 2.9,-2.4 5.4,-5.7 2,-2.64 2.7,-3.14 2.5,-1.74 0,0.4 -0.2,3.74 -0.3,7.24 l -0.3,6.4 -1,2.1 -1.1,2.1 0.5,1.5 c 1,2.6 5.3,7 6.8,6.9 0.3,0 1,-0.1 1.3,-0.2 z m 45.2,-46.24 c -0.3,-0.2 -0.5,-0.5 -0.4,-0.6 0.2,-0.4 1.4,0 1.5,0.5 0.2,0.5 -0.3,0.6 -1.1,0.1 z m -59.1,45.54 c 0,-0.2 -0.4,-0.4 -0.8,-0.5 -1.8,-0.4 -1.7,-2.3 0.4,-5.5 1.4,-2.2 2.1,-2.7 4.1,-3.3 1.2,-0.4 1.7,-0.9 1.7,-1.7 0,-0.2 0.1,-0.4 0.4,-0.6 0.3,-0.2 0.4,-1.3 0.5,-4.2 l 0.1,-3.9 -0.7,2.3 c -0.7,2.7 -1.5,4.2 -2.9,5.3 -0.5,0.5 -0.9,0.8 -0.8,0.9 0,0.1 0,0.1 -0.1,0.1 -0.1,-0.1 -0.5,0.1 -1,0.3 -1,0.6 -2.7,3.3 -3.7,6.2 -0.9,2.6 -1,3.7 -0.3,4.4 0.6,0.5 3.1,0.7 3.1,0.2 z m 59.6,-21.5 c 0,-2.7 -0.7,-5.04 -1.5,-5.44 -0.8,-0.5 -6.3,-2 -6.5,-1.8 -0.1,0 0.5,0.3 1.2,0.5 2.2,0.6 5,2.2 5.6,3 0.5,0.84 0.5,2.84 -0.1,5.84 -0.2,1 -0.2,1 0.6,0.4 0.6,-0.4 0.7,-0.7 0.7,-2.5 z M 50.85,45.36 C 43.72,43.76 37.73,40.15 29.93,32.66 25.41,28.34 15.84,16.75 16.48,16.37 c 0.1,0 1.48,-0.71 3.14,-1.51 3.62,-1.72 9.12,-5.213 8.77,-5.563 -0.13,-0.13 -0.1,-0.2 0.13,-0.13 0.35,0.1 4.19,-2.88 4.22,-3.27 0,-0.1 -0.54,-0.51 -1.25,-0.92 -0.67,-0.45 -1.98,-1.54 -2.91,-2.47 l -1.66,-1.6596 1.89,-0.23 c 3.42,-0.38 5.53,-0.83 6.84,-1.4 0.77,-0.3604 3.24,-2.4404 6.02,-5.1904 5.22,-5.087 6.91,-6.177 11.39,-7.327 1.38,-0.35 2.88,-0.93 3.43,-1.28 0.51,-0.38 1.95,-2.11 3.17,-3.84 4.16,-5.82 5.69,-6.59 7.58,-3.74 1.7,2.53 2.46,4.89 2.5,7.58 0,1.31 -0.1,2.79 -0.26,3.3 -0.22,0.83 -0.19,0.86 0.8,0.86 0.58,0 1.41,-0.22 1.86,-0.48 1.15,-0.67 2.14,-0.57 2.68,0.23 1.25,1.757 0.35,3.677 -3.45,7.867 -3.2,3.4904 -3.36,3.94 -4.51,11.1 -0.71,4.453 -1.67,8.233 -2.4,9.283 -0.39,0.58 -1.22,3.49 -1.6,5.61 -0.9,5.08 -1.7,7.26 -4.58,12.12 -2.31,3.88 -3.46,6.65 -3.65,8.55 l -0.19,1.7 h -1.47 c -0.8,0 -1.76,-0.1 -2.12,-0.2 z m 2.4,-1.7 c 0,-1.4 1.44,-4.83 3.88,-9.15 2.49,-4.44 3.49,-6.78 3.93,-9.24 l 0.26,-1.28 -1.12,1.21 -1.09,1.25 -0.19,-1.57 C 58.5,21.52 57.8,20.02 55.49,17.58 53.25,15.25 52.74,14.22 53,12.82 c 0.13,-0.64 0,-0.8 -1.06,-1.12 -2.21,-0.68 -4,-3.593 -3.71,-6.083 0.19,-1.7 0.9,-2.4 2.75,-2.72 1.22,-0.2 1.28,-0.23 0.99,-1 C 51.81,1.457 51.3,0.5574 50.85,-0.1126 49.8,-1.653 49.83,-2.803 50.98,-4.083 l 0.93,-1.06 -0.67,-0.96 c -0.55,-0.73 -0.71,-1.44 -0.71,-2.94 0,-1.117 -0.1,-2.017 -0.12,-2.017 -0.1,0 -0.93,0.45 -1.92,1.03 -1.09,0.607 -3.52,2.717 -6.12,5.307 -4.83,4.8004 -5.98,5.5404 -10.08,6.27 -1.4,0.26 -2.4,0.48 -2.24,0.51 0.2,0 0.45,0.1 0.58,0 0.16,0 0.19,0.1 0.1,0.22 -0.1,0.16 0.64,0.9 1.66,1.6 2.14,1.5 4.86,2.3 7.71,2.3 1.89,0 1.95,0 1.95,0.84 v 0.86 l -2.14,-0.18 c -1.22,-0.13 -3.07,-0.42 -4.16,-0.64 l -1.98,-0.42 -1.06,1.09 C 30.5,10.03 24.1,14.35 20.13,16.18 c -0.86,0.41 -1.66,0.8 -1.73,0.83 -0.35,0.19 6.63,8.64 10.53,12.7 4.74,4.93 12.96,11.43 13.83,10.88 0.19,-0.12 0.25,-0.1 0.16,0.1 -0.29,0.45 4.25,2.47 6.49,2.97 2.85,0.6 3.01,0.6 3.46,0.6 0.19,0 0.38,-0.2 0.38,-0.6 z M 62.41,19.6 c 0.38,-1.28 1.15,-3.62 1.66,-5.22 0.55,-1.6 1.28,-4.963 1.67,-7.523 0.41,-2.78 0.99,-5.28 1.4,-6.2396 0.42,-0.89 1.89,-2.8804 3.36,-4.4804 2.98,-3.23 3.68,-4.38 3.43,-5.47 -0.19,-0.697 -0.23,-0.737 -1.35,-0.26 -1.34,0.58 -5.24,1 -5.24,0.58 0,-0.16 0.28,-1.087 0.64,-2.047 0.8,-2.27 0.8,-4 0,-6.49 l -0.67,-2.05 -1.18,0.32 c -0.96,0.25 -1.41,0.22 -2.27,-0.23 -1.25,-0.6 -1.03,-0.8 -3.81,2.88 -2.27,3.04 -3.4,3.88 -5.92,4.45 -1.44,0.32 -1.67,0.48 -2.08,1.54 -0.64,1.757 -0.23,3.327 1.28,4.767 l 1.28,1.21 -0.9,0.36 c -1.18,0.44 -2.34,1.53 -2.34,2.2 0,0.29 0.29,0.8 0.61,1.09 0.71,0.6404 1.63,3.11 1.63,4.35 0,0.74 -0.12,0.84 -1.02,0.84 -2.88,0 -3.62,0.99 -2.69,3.45 0.77,1.95 1.7,2.723 3.68,2.983 1.38,0.16 1.63,0.29 1.44,0.7 -0.99,2.5 -0.83,3.11 1.57,5.38 1.83,1.76 2.88,3.61 3.3,5.66 l 0.22,1.22 0.8,-0.8 c 0.48,-0.48 1.12,-1.83 1.54,-3.17 z M 53.57,-8.503 c 0,-1.05 1.41,-2.237 2.63,-2.237 h 1.06 l -1.54,1.407 c -1.73,1.6 -2.15,1.76 -2.15,0.8 z M 121.4,41.36 c -1.3,-0.38 -2.9,-1.85 -3.7,-3.42 -0.8,-1.83 -0.7,-5.95 0.4,-8.19 0.9,-2.21 3.2,-5.73 5.4,-8.49 l 1.8,-2.17 -1.2,-0.23 c -3.3,-0.6 -8.4,-4.38 -10.5,-7.77 -1.9,-3.173 -2.5,-5.513 -2.5,-9.513 0,-4.19 0.8,-6.81 3,-10.11 5.7,-8.447 18,-10.297 25.8,-3.937 0.8,0.64 1.6,1.03 1.7,0.9 0.3,-0.16 0.3,-0.1 0.2,0.16 -0.3,0.38 0.6,1.627 1.2,1.627 0.1,0 0.5,-0.607 0.8,-1.367 0.6,-1.35 2.6,-3.43 3.3,-3.43 0.2,0 1,-0.32 1.8,-0.67 0.9,-0.45 1.3,-0.83 1.2,-1.15 -0.1,-0.26 0,-0.35 0.2,-0.26 0.1,0.13 1.5,-0.83 2.9,-2.11 2.1,-1.92 2.6,-2.27 3.1,-2.02 0.9,0.58 1.3,1.83 1.2,3.4 0,0.89 0.1,1.37 0.2,1.21 0.5,-0.48 1.4,0.26 1.7,1.28 0.1,0.74 -0.1,1.51 -1,3.3 -2.2,4.507 -2.4,6.367 -1.4,13.497 0.6,4.61 0,10.663 -1.6,17.283 -0.2,0.71 -0.5,3.91 -0.7,7.11 l -0.4,5.79 0.8,1.41 c 0.5,0.99 1.1,1.47 1.8,1.73 1.2,0.38 2,1.21 2,2.08 0,1.25 -5.8,3.2 -7.2,2.43 -0.8,-0.42 -2.3,-2.05 -3,-3.26 -0.3,-0.64 -0.6,-2.34 -0.7,-5.28 -0.3,-4.04 -0.4,-5.28 -0.8,-7.43 -0.2,-0.86 -0.2,-0.83 -2,1.06 -1,1.05 -2.1,2.37 -2.5,2.94 -0.4,0.58 -1.4,1.6 -2.3,2.31 l -1.7,1.28 1.8,0.32 1.8,0.32 -1,0.6 -1.1,0.61 1.3,0.35 c 1.8,0.52 2.7,1.99 2.7,4.42 0,1.66 -0.1,1.92 -0.8,2.24 -0.5,0.22 -1.2,0.26 -2,0 -0.9,-0.22 -2.2,-0.19 -4.5,0.1 -1.7,0.22 -3.8,0.41 -4.6,0.45 -0.8,0 -2.1,0.22 -3,0.47 -1.7,0.63 -6.1,0.63 -7.9,0.13 z m 7.5,-1.41 c 3.1,-0.8 6.2,-2.59 7.9,-4.54 2.4,-2.78 2.4,-2.75 -0.3,-2.53 -2.8,0.19 -4.9,0.96 -8.5,3.01 -2.6,1.57 -4.9,2.08 -6.2,1.41 -1.2,-0.64 -0.5,-1.22 1.5,-1.22 1.6,0 2.1,-0.13 4.4,-1.47 2.9,-1.7 5.5,-2.78 7.3,-3.01 1.5,-0.19 4.9,-2.59 6.3,-4.38 0.4,-0.55 1.8,-2.05 3,-3.33 l 2.2,-2.31 -0.7,-2.17 c -1,-3.11 -0.9,-4 0.3,-3.68 0.4,0.1 0.6,0.45 0.6,1.15 0,0.58 0.4,1.98 0.8,3.14 1,2.75 1.4,4.93 1.8,10.43 0.3,4.7 0.5,5.54 2,7.23 0.8,0.87 1.8,1.06 3.3,0.67 0.9,-0.25 1,-0.76 0.2,-0.76 -0.8,0 -2.5,-1.41 -3.2,-2.69 -0.5,-0.8 -0.5,-1.73 -0.5,-4.99 0.1,-2.21 0.3,-5.44 0.5,-7.21 0.3,-2.81 0.5,-3.55 1.7,-6.01 1.7,-3.3 2.7,-6.883 2.7,-9.633 0,-1.06 -0.2,-3.81 -0.5,-6.1196 -0.7,-6.0404 -0.2,-10.4604 1.7,-13.2074 0.3,-0.48 0.7,-1.16 0.9,-1.48 0.2,-0.6 0.2,-0.6 -0.4,-0.1 -0.8,0.73 -1.9,0.7 -2.2,-0.1 -0.1,-0.35 0.1,-1.15 0.4,-1.79 0.6,-1.66 0.6,-2.62 -0.2,-2.81 -0.5,-0.13 -1.4,0.48 -3.3,2.2 -1.6,1.51 -3,2.5 -3.8,2.69 -1.6,0.45 -2.9,1.63 -3.7,3.3 -0.4,0.767 -1,1.627 -1.5,1.917 -0.4,0.29 -1.2,1.18 -1.8,1.98 l -0.9,1.44 h 1 c 0.6,0 1.4,-0.19 1.9,-0.44 0.7,-0.39 0.8,-0.36 1.2,0.19 0.3,0.54 0.2,0.67 -1,1.21 -1.4,0.61 -1.5,0.77 -2.3,3.1104 -1.3,3.5796 -2,4.7996 -3.7,6.5896 l -1.5,1.57 1.8,-0.1 1.7,-0.13 -0.2,1.54 -0.2,1.503 h 1.7 c 0.9,0 2.8,-0.283 4.2,-0.603 2.2,-0.55 3.2,-0.61 2.7,-0.26 -0.1,0.1 -0.9,0.64 -1.7,1.283 -1.6,1.15 -1.6,1.15 -0.7,1.38 0.7,0.19 1.5,0.12 4.2,-0.26 1,-0.16 1,0.96 0,1.34 -1.3,0.48 -4.6,0.36 -6.4,-0.28 -1.5,-0.52 -1.6,-0.61 -1,-0.93 0.5,-0.29 0.1,-0.35 -2.1,-0.39 -1.6,0 -2.9,-0.16 -3,-0.32 -0.1,-0.19 0,-0.7 0.3,-1.123 0.6,-0.99 0.6,-1.02 -0.2,-1.21 -0.8,-0.23 -1.6,0.32 -1.4,0.77 0.1,0.16 0.1,0.25 -0.1,0.22 -0.1,-0.1 -0.7,0.35 -1.2,0.863 -0.5,0.55 -1.4,1.6 -2.2,2.4 -6.1,6.56 -10.9,12.77 -12.8,16.65 -1,1.92 -1.1,2.49 -1.1,4.64 0,2.52 0.4,3.68 1.5,4.73 1.6,1.51 5.3,1.89 8.8,0.99 z m 19.8,-51.62 c 0,-0.67 0.8,-1.31 1.7,-1.31 0.6,0 0.5,0.1 0,0.67 -0.3,0.36 -0.9,0.8 -1.2,0.96 -0.4,0.26 -0.5,0.2 -0.5,-0.32 z m -8.8,50.38 c 0.7,0 1.6,0.1 2.1,0.25 1.1,0.29 1.2,-0.29 0.2,-1.5 -1,-1.35 -4,-0.99 -6.5,0.83 l -1.3,0.96 2.1,-0.26 c 1.1,-0.16 2.6,-0.28 3.4,-0.28 z m 17.6,-1.6 c 0,-0.1 -0.8,-0.52 -1.5,-0.9 -2.1,-1.09 -2.9,-2.75 -2.9,-6.43 0,-2.63 0.4,-6.85 0.8,-10.28 0.2,-1.24 0.2,-1.24 -0.3,-0.48 -0.3,0.71 -0.6,2.5 -1.3,11.21 0,0.96 0,2.3 0.2,3 0.3,1.35 1.7,3.08 2.6,3.08 0.3,0 0.7,0.22 0.9,0.48 0.2,0.25 0.7,0.48 1.1,0.48 0.3,0 0.5,-0.1 0.4,-0.16 z m -15.8,-2.02 c -0.3,-0.26 -1,-0.35 -1.7,-0.26 -1.8,0.29 -1.7,0.68 0.4,0.68 1.6,0 1.8,-0.1 1.3,-0.42 z M 128.9,14.96 c 1.5,-1.73 3.5,-3.94 4.4,-4.9 1.7,-1.883 1.9,-2.243 1.1,-2.243 -0.8,0 -0.5,-0.48 1.3,-2.04 2,-1.7 3,-3.3 4.3,-6.7596 0.6,-1.3404 1,-2.4904 1,-2.5204 0,-0.1 -0.4,-0.2 -0.9,-0.29 -0.5,-0.1 -1.3,-0.35 -1.9,-0.55 l -0.9,-0.35 1.3,-0.7 c 0.7,-0.39 1.6,-1.31 2.1,-2.08 0.9,-1.28 0.9,-1.38 0.4,-2.05 -1.5,-1.947 -5,-4.097 -8,-4.897 -7,-1.82 -14.4,1.19 -18.4,7.457 -3.1,4.86 -3.1,11.74 -0.1,16.993 2,3.36 6.6,6.82 10.2,7.68 0.7,0.16 1.3,0.29 1.3,0.32 0,0 1.3,-1.37 2.8,-3.07 z m 97.2,19.39 c -0.4,-0.16 -1.4,-0.92 -2.2,-1.66 -0.9,-0.77 -2.4,-1.92 -3.5,-2.59 -2.3,-1.51 -2.8,-2.31 -3.1,-5.25 -0.2,-2.21 -0.9,-4.35 -1.8,-5.54 -0.3,-0.25 -1.5,-1.25 -2.7,-2.17 -3.2,-2.31 -4.8,-4.1 -5.4,-6.37 -0.3,-1.033 -0.5,-2.343 -0.5,-2.953 v -1.05 l -0.9,1.31 c -1.2,1.89 -3.7,4.833 -4,4.863 -0.2,0 -0.2,-0.48 -0.1,-1.02 l 0.3,-1.06 -0.9,0.84 c -1.5,1.34 -3.5,2.43 -5.5,3.04 -2.5,0.73 -7.1,0.73 -9.2,0 -3.9,-1.35 -6.6,-4.803 -6.9,-8.713 -0.1,-1.15 -0.1,-1.25 0.6,-1.15 0.5,0.1 2.1,0.74 3.7,1.47 l 2.9,1.38 -0.1,-0.87 -0.1,-0.86 2.5,0.45 c 4,0.73 8.6,0 12.6,-1.99 1.8,-0.92 4.8,-3.36 6.7,-5.3696 1.7,-1.8604 3.3,-2.8504 5.9,-3.6204 2.2,-0.61 6.5,-0.7 8.8,-0.16 4.5,1.03 12.3,1.31 16.7,0.64 3.5,-0.54 7.2,-1.89 10.8,-4 l 3.2,-1.89 -0.2,-1.757 c -0.1,-0.96 0,-1.6 0.1,-1.41 0.2,0.2 1.3,0.96 2.4,1.67 1.9,1.15 2.5,1.34 5.3,1.657 3.8,0.48 4.3,0.64 5.5,2.05 0.5,0.77 1.6,1.44 2.9,2.02 2.9,1.18 3.6,1.66 3.6,2.49 0,0.93 -1.1,2.2404 -2.2,2.6604 -0.5,0.19 -2.5,0.51 -4.5,0.67 -4.6,0.42 -5.2,0.83 -7.1,4.6696 -2.4,5.19 -5.4,9.193 -7.7,10.403 -0.7,0.36 -0.7,0.29 -0.6,-0.96 0,-0.76 0,-0.76 -0.5,-0.25 -0.6,0.51 -0.5,0.7 0.4,3.84 1.5,4.77 1.4,5.21 -0.9,7.84 -1.4,1.66 -2.4,2.46 -4,3.23 -2,0.99 -2.1,1.03 -3,0.55 -0.5,-0.26 -1.1,-0.87 -1.2,-1.28 -0.3,-1.48 0.1,-2.34 1.8,-3.17 1.7,-0.87 3.2,-2.21 3.2,-2.82 0,-0.61 -2.3,-4.51 -2.8,-4.64 -0.2,-0.1 -0.6,0.19 -1,0.58 -0.6,0.64 -0.7,1.08 -0.6,3.74 0,2.91 0,3.04 -0.9,3.91 -0.5,0.48 -1.8,1.18 -2.8,1.6 -1.3,0.51 -2.2,1.12 -3.1,2.27 -0.7,0.86 -1.5,1.57 -1.7,1.57 -0.7,0 -2.3,-1.54 -2.6,-2.4 -0.5,-1.86 1.4,-4.13 4,-5.09 1.2,-0.45 1.6,-0.74 1.6,-1.28 0,-1.09 -0.9,-4.71 -1.2,-4.96 -0.1,-0.13 -1.4,-0.58 -2.8,-0.96 -1.4,-0.42 -3.2,-1 -4,-1.35 -0.7,-0.32 -1.4,-0.61 -1.4,-0.61 0,0 -0.1,1.06 -0.1,2.34 0,1.98 -0.1,2.56 -1,4.19 -0.5,1.03 -1,2.05 -1,2.28 0,0.22 0.8,1.34 1.9,2.49 1.9,2.15 2.6,3.75 1.9,4.55 -0.3,0.32 -0.2,0.6 0.2,1.21 0.7,1.12 0.1,2.37 -1.4,2.79 -1.4,0.35 -1.3,0.38 -2.3,0 z m 2.6,-1.4 c 0.1,-0.26 0.2,-0.61 0.1,-0.8 -0.1,-0.23 -1.6,-1.32 -3.4,-2.44 -3.2,-2.08 -4.4,-3.42 -4.4,-4.92 0,-0.45 0.6,-2.09 1.4,-3.65 0.9,-1.8 1.5,-3.24 1.5,-4 0,-1.6 -1.6,-4.68 -3.4,-6.66 -1.2,-1.383 -1.4,-1.733 -1,-1.893 0.3,-0.13 0.8,0 1.1,0.32 0.3,0.29 0.7,0.42 0.9,0.29 0.1,-0.16 0.1,-0.1 0,0.1 -0.1,0.19 0.1,0.64 0.5,1.023 1.3,1.22 9.9,4.7 13.8,5.63 0.8,0.19 0.9,0.1 0.9,-0.57 0,-0.42 0.3,-1.25 0.8,-1.8 0.5,-0.54 0.9,-1.47 1,-2.01 0.2,-0.61 0.5,-1.06 0.8,-1.12 1,-0.19 0.7,1.98 -0.4,3.26 -1.3,1.41 -1.5,3.2 -0.8,6.05 0.8,3.71 0.7,4.1 -2.1,5.15 -1.6,0.58 -3.2,2.08 -3.2,3.08 0,0.32 0.3,0.89 0.7,1.31 l 0.6,0.77 0.7,-0.96 c 1.2,-1.57 2,-2.21 3.6,-2.82 0.9,-0.32 2,-0.83 2.4,-1.18 0.8,-0.58 0.8,-0.77 0.8,-3.4 -0.1,-3.87 0.2,-4.41 4.8,-7.68 2.5,-1.82 3.1,-2.01 2.4,-0.77 -0.6,1.16 -0.1,1.09 1.3,-0.16 1.2,-1.12 1.3,-1.31 1.3,-2.91 0,-1.893 -0.3,-2.243 -1.2,-1.573 -1,0.8 -1.3,0.55 -1.5,-1.44 -0.1,-1.05 -0.3,-1.92 -0.4,-1.92 -0.1,0 -0.5,0.23 -0.9,0.52 -0.8,0.48 -0.8,0.48 -1,-0.9 -0.2,-1.47 -0.8,-2.75 -1.8,-4.1896 -0.6,-0.71 -0.6,-0.96 -0.3,-1.28 0.5,-0.5104 2.1,1.31 2.8,3.3296 0.5,1.31 0.6,1.44 1.1,1.12 0.8,-0.45 1.2,0.1 1.4,1.98 0.3,1.47 0.5,1.6 1.6,0.83 1,-0.67 1.2,-0.35 1.2,3.393 0.1,1.76 0.2,3.2 0.3,3.2 0.4,0 3.2,-3.803 4.4,-6.143 0.7,-1.28 1.3,-2.94 1.5,-3.68 l 0.2,-1.34 -2,-0.1 -2.1,-0.1 1.1,-0.67 1.1,-0.6996 -2.4,-0.23 -2.3,-0.22 1,-0.54 1,-0.52 -0.7,-0.6704 c -0.9,-0.8 -1.3,-2.01 -1,-3.2 0.3,-1.15 0.9,-0.77 1.1,0.61 0.1,1.57 1.2,2.46 3.1,2.46 1.3,0 1.8,0.39 1,0.74 -0.2,0.1004 0.1,0.1904 0.8,0.1904 1.5,0 1.7,0.45 0.7,0.99 -1.1,0.58 -1,0.8 0.3,0.8 0.6,0 1.3,-0.25 1.6,-0.57 1,-0.93 2,-1.22 5.5,-1.4104 1.7,-0.1 3.5,-0.32 3.9,-0.48 l 0.8,-0.29 -0.7,-0.73 c -0.4,-0.42 -0.6,-0.96 -0.5,-1.22 0.1,-0.35 -0.3,-0.67 -1.4,-1.18 -0.9,-0.39 -2,-1.16 -2.5,-1.8 -0.9,-1.28 -1.9,-1.6 -5.7,-1.95 -2,-0.16 -2.9,-0.41 -4,-1.12 -0.8,-0.477 -1.5,-0.827 -1.5,-0.767 -0.2,0.19 1.1,2.947 1.5,3.167 0.2,0.13 0.3,0.45 0.3,0.71 0,0.86 -0.9,0.44 -1.8,-0.8 l -1,-1.25 -2,1.28 c -5.4,3.42 -9.7,4.7 -16.6,4.96 -4,0.16 -5.5,0.1 -10.6,-0.71 -5.4,-0.76 -6.3,-0.83 -8.2,-0.51 -3.4,0.58 -5.1,1.54 -8.2,4.6104 -4,3.9396 -7.6,5.8596 -12.6,6.8196 -2.6,0.48 -4.9,0.44 -7,-0.1 -0.5,-0.13 -0.4,0.1 0.4,0.83 0.6,0.55 1.1,1.06 1,1.16 -0.4,0.38 -3.6,-0.64 -6.2,-1.96 -1.7,-0.83 -2.9,-1.31 -3,-1.08 -0.2,0.64 1,3.26 2.1,4.513 1.5,1.6 3,2.37 5.7,2.85 5.4,0.99 12.1,-1.83 13.6,-5.733 0.4,-1.03 1.5,-0.8 1.4,0.25 -0.1,0.68 0.1,0.55 1,-0.7 0.5,-0.8 1.4,-2.14 1.8,-2.94 0.5,-0.84 1,-1.48 1.3,-1.48 0.5,0 0.5,0.32 0.4,2.53 -0.3,3.04 0.3,5.313 1.5,7.013 0.5,0.67 2.2,2.21 3.8,3.39 3.4,2.56 4.3,3.94 4.8,7.62 0.2,1.28 0.5,2.69 0.6,3.14 0.2,0.89 3.5,3.26 4.2,3.04 0.2,-0.1 0.3,0 0.2,0.12 -0.1,0.16 0.6,0.96 1.4,1.76 1.8,1.54 3.1,1.89 3.9,1 z m 33.8,-38.793 c -0.5,-0.45 -0.2,-1.06 0.5,-1.06 0.7,0 1.5,0.55 1.5,1.03 0,0.32 -1.7,0.35 -2,0 z M 228.7,29.49 c 0,-0.54 -0.8,-1.7 -2.5,-3.49 -1.9,-2.08 -2,-2.62 -0.6,-5.28 1.2,-2.34 1.4,-3.78 0.8,-5.89 -0.2,-0.64 -0.6,-1.25 -0.9,-1.34 -0.3,-0.1 -0.8,-0.26 -1.1,-0.39 -0.5,-0.22 -0.5,-0.12 0.1,1.28 1.1,2.56 0.7,4.74 -1.4,8.16 -0.5,0.77 -0.8,1.45 -0.6,1.57 0.5,0.36 2.5,3.04 2.7,3.62 0.2,0.58 2.4,2.11 3,2.14 0.3,0 0.5,-0.16 0.5,-0.38 z m 17,-1.54 c 0.7,-0.38 1.7,-0.96 2.1,-1.28 1,-0.8 3.6,-4.19 3.5,-4.61 -0.1,-0.16 -0.6,-1.72 -1,-3.42 -0.6,-1.73 -1.1,-3.14 -1.2,-3.14 -0.1,0 -0.7,0.55 -1.4,1.25 l -1.2,1.22 1,1.85 c 0.5,1.03 1,2.18 1,2.56 0,0.87 -1.4,2.28 -3.4,3.33 -1.6,0.87 -2,1.67 -1.4,2.44 0.5,0.6 0.4,0.6 2,-0.2 z m 0.8,-11.77 0.4,-1.09 -0.7,0.61 c -0.4,0.32 -0.8,0.64 -0.9,0.67 0,0 0.1,0.29 0.3,0.57 0.5,0.58 0.5,0.61 0.9,-0.76 z"
             style="fill:#000000;stroke-width:1" />
    </g>
</svg>
